<?xml version="1.0" encoding="utf-8"?>
<!-- Generator: Adobe Illustrator 25.2.0, SVG Export Plug-In . SVG Version: 6.00 Build 0)  -->
<svg version="1.1" id="Layer_1" xmlns="http://www.w3.org/2000/svg" xmlns:xlink="http://www.w3.org/1999/xlink" x="0px" y="0px"
	 viewBox="0 0 1161.5 338.1" style="enable-background:new 0 0 1161.5 338.1;" xml:space="preserve">
<style type="text/css">
	.st0{fill:url(#Path_2431_1_);}
	.st1{fill:url(#Path_2432_1_);}
	.st2{fill:url(#Path_2433_1_);}
	.st3{fill:url(#Path_2434_1_);}
</style>
<g id="Group_4051">
	
		<linearGradient id="Path_2431_1_" gradientUnits="userSpaceOnUse" x1="-2047.6892" y1="583.5375" x2="-2026.7755" y2="588.4227" gradientTransform="matrix(55.73 0 0 -61.13 114126.5391 36015.4688)">
		<stop  offset="0" style="stop-color:#31BAC6"/>
		<stop  offset="1" style="stop-color:#B6509E"/>
	</linearGradient>
	<path id="Path_2431" class="st0" d="M715.7,310L603.4,37.2c-0.9-2.6-1.3-5.1-1.3-7.7c-0.4-5.6,1.7-11.1,5.6-15.4
		c3.8-3.8,9.4-6,14.9-6c4.3,0,8.1,1.3,11.5,3.8c3.4,2.6,6.4,6,8.1,10.2L749,289.6L856.2,22.3c1.7-4.3,4.3-7.7,8.1-10.2
		c3.4-2.6,7.3-3.8,11.5-3.8c5.6-0.4,11.1,1.7,14.9,6c3.8,4.3,5.6,9.8,5.6,15.4c0,2.6-0.4,5.1-1.3,7.7L782.3,310
		c-6.4,14.1-15.8,20.9-28.2,20.9h-9.8C731.5,331.4,722.1,324.1,715.7,310z"/>
	
		<linearGradient id="Path_2432_1_" gradientUnits="userSpaceOnUse" x1="-2037.0889" y1="582.0846" x2="-2009.4583" y2="587.0308" gradientTransform="matrix(42.21 0 0 -60.24 86023.75 35493.1758)">
		<stop  offset="0" style="stop-color:#31BAC6"/>
		<stop  offset="1" style="stop-color:#B6509E"/>
	</linearGradient>
	<path id="Path_2432" class="st1" d="M944.1,322.9c-3.8-3.8-6-9-6-14.5V31.7c0-5.6,2.1-11.1,6-14.9c3.8-3.8,9-6.4,14.5-6h182.8
		c5.1,0,10.2,2.1,13.7,6c3.8,3.4,6,8.5,6,13.7s-2.1,10.2-6,13.7c-3.8,3.4-8.5,5.6-13.7,5.6H979.6v100.8h145.6c5.1,0,10.2,2.1,13.7,6
		c3.8,3.4,6,8.5,6,13.7c0,5.1-2.1,10.2-6,13.7c-3.8,3.4-8.5,5.6-13.7,5.6H980v101.2h161.8c5.1,0,10.2,2.1,13.7,6
		c3.8,3.4,6,8.5,6,13.7s-2.1,10.2-6,13.7c-3.8,3.4-8.5,5.6-13.7,5.6H958.6C953.1,329.3,947.5,327.1,944.1,322.9z"/>
	
		<linearGradient id="Path_2433_1_" gradientUnits="userSpaceOnUse" x1="-2047.0226" y1="584.169" x2="-2026.1392" y2="589.0235" gradientTransform="matrix(55.78 0 0 -61.13 114180.3203 36019.3516)">
		<stop  offset="0" style="stop-color:#31BAC6"/>
		<stop  offset="1" style="stop-color:#B6509E"/>
	</linearGradient>
	<path id="Path_2433" class="st2" d="M628.6,302.4L516.3,29.5c-6.4-14.1-15.8-20.9-28.2-20.9h-9.8c-12.4,0-21.8,6.8-28.2,20.9
		l-48.7,118.7h-37.1c-11.1,0-20.1,9-20.1,20.1l0,0c0,11.1,9,20.1,20.1,20.1h20.1l-46.5,113.2c-0.9,2.6-1.3,5.1-1.3,7.7
		c-0.4,5.6,1.7,11.1,5.6,15.4c3.8,3.8,9.4,6,14.9,6c4.3,0,8.1-1.3,11.5-3.8c3.4-2.6,6.4-6,8.1-10.2l51.2-128.1h35.4
		c11.1,0,20.1-9,20.1-20.1v-0.4c0-11.1-9-20.1-20.1-20.1h-19.2l39.7-98.2l106.7,267.3c1.7,4.3,4.7,7.7,8.1,10.2
		c3.4,2.6,7.3,3.8,11.5,3.8c5.6,0.4,11.1-1.7,14.9-6c3.8-4.3,5.6-9.8,5.6-15.4C630.3,307.5,629.9,304.9,628.6,302.4z"/>
	
		<linearGradient id="Path_2434_1_" gradientUnits="userSpaceOnUse" x1="-2046.0947" y1="585.4789" x2="-2025.2113" y2="590.3636" gradientTransform="matrix(55.78 0 0 -61.13 114120.2344 36016.2305)">
		<stop  offset="0" style="stop-color:#31BAC6"/>
		<stop  offset="1" style="stop-color:#B6509E"/>
	</linearGradient>
	<path id="Path_2434" class="st3" d="M292.5,302.4L179.8,29.5C173.4,15.4,164,8.6,151.6,8.6h-9.8c-12.4,0-21.8,6.8-28.2,20.9
		L65,148.2H27.8c-11.1,0-20.1,9-20.1,20.1l0,0c0,11.1,9,20.1,20.1,20.1h20.1L1.3,301.9c-0.9,2.6-1.3,5.1-1.3,7.7
		c-0.4,5.6,1.7,11.1,5.6,15.4c3.8,3.8,9.4,6,14.9,6c4.3,0,8.1-1.3,11.5-3.8c3.4-2.6,6.4-6,8.1-10.2l51.2-128.1h35.9
		c11.1,0,20.1-9,20.1-20.5v-0.4c0-11.1-9-20.1-20.1-20.1h-19.2l39.3-98.2l107.2,267.3c1.7,4.3,4.7,7.7,8.1,10.2
		c3.4,2.6,7.3,3.8,11.5,3.8c5.6,0.4,11.1-1.7,14.9-6c3.8-4.3,5.6-9.8,5.6-15.4C293.8,307.5,293.4,304.9,292.5,302.4z"/>
</g>
</svg>
