<svg xmlns="http://www.w3.org/2000/svg" xmlns:xlink="http://www.w3.org/1999/xlink" viewBox="0 0 601 155"><defs><style>.cls-1{fill:#0b1624;}.cls-2{fill:#25c1ff;}.cls-3{fill:#0b76ff;}.cls-4{fill:#24c1ff;}.cls-5{fill:#39fff2;}.cls-6{fill:#00e2c2;}.cls-7{fill:url(#Безымянный_градиент_11);}.cls-8{fill:url(#Безымянный_градиент_177);}.cls-9{fill:url(#Безымянный_градиент_370);}.cls-10{fill:url(#Безымянный_градиент_12);}</style><linearGradient id="Безымянный_градиент_11" x1="4.03" y1="489" x2="4.4" y2="489" gradientTransform="matrix(98, 0, 0, -47, -339.5, 23060.11)" gradientUnits="userSpaceOnUse"><stop offset="0" stop-color="#fff" stop-opacity="0"/><stop offset="1" stop-color="#fff"/></linearGradient><linearGradient id="Безымянный_градиент_177" x1="3.64" y1="490.56" x2="4.06" y2="490.56" gradientTransform="translate(542.5 29505.11) rotate(180) scale(98 60)" gradientUnits="userSpaceOnUse"><stop offset="0" stop-color="#fd76fd" stop-opacity="0"/><stop offset="1" stop-color="#ff51ff"/></linearGradient><linearGradient id="Безымянный_градиент_370" x1="3.63" y1="509.97" x2="3.97" y2="509.97" gradientTransform="matrix(-98, 0, 0, 26, 542.5, -13173.89)" gradientUnits="userSpaceOnUse"><stop offset="0" stop-color="#9d6eff" stop-opacity="0"/><stop offset="1" stop-color="#a18cff"/></linearGradient><linearGradient id="Безымянный_градиент_12" x1="3.63" y1="488.29" x2="4.03" y2="488.29" gradientTransform="translate(542.5 21075.11) rotate(180) scale(98 43)" gradientUnits="userSpaceOnUse"><stop offset="0" stop-color="#ae60d6" stop-opacity="0"/><stop offset="1" stop-color="#ab38e6"/></linearGradient></defs><title>Beam logo rectangle</title><g id="Слой_2" data-name="Слой 2"><g id="logo_triangle" data-name="logo triangle"><g id="rectangle"><rect class="cls-1" width="601" height="155" rx="20" ry="20"/><g id="logo"><path id="BEAM" class="cls-2" d="M239.78,100.1V54.77c2.6-.13,9.05-.39,14.1-.39,11.11,0,15.63,5,15.63,11.33,0,4.75-1.86,8-5.32,10.16V76c3.4,1.24,6.65,4.56,6.65,10.42,0,9.58-7.58,14.07-17.69,14.07C248.7,100.49,242.51,100.36,239.78,100.1Zm14.77-18.3h-4.12v8.53a12.51,12.51,0,0,0,3.59.39c4.12,0,6.18-1.76,6.18-4.82C260.2,83,258,81.8,254.55,81.8Zm-.8-17.65a26.31,26.31,0,0,0-3.32.26v8.27H254c2.73,0,4.92-1.11,4.92-4.43C258.87,65.51,256.34,64.15,253.75,64.15Zm71.41,36.08V54.64h27.61v9.77h-17v8h15v9.77h-15v8.27h17.62v9.77Zm76.6,0,19.36-45.59h9.51L450,100.23H438.61l-3.86-9.58H416.33l-3.86,9.58ZM425.57,68l-5.25,12.9h10.44Zm74.74,32.24V54.64H511l14.37,19.21L539,54.64h10v45.59H538.36v-29L525.39,89h-1.53L511,71.38v28.85Z"/><g id="logo-2" data-name="logo"><path id="Combined-Shape" class="cls-3" d="M120.87,108h27.29L120.88,60.5h0V31.72l53.46,91.56H120.87Z"/><path id="Combined-Shape-2" data-name="Combined-Shape" class="cls-4" d="M120.87,108H93.59L120.86,60.5h0V31.72L67.41,123.28h53.46Z"/><polygon id="Triangle-5" class="cls-5" points="120.87 72.49 120.87 103.2 104.17 103.23 120.87 72.49"/><polygon id="Triangle-5-2" data-name="Triangle-5" class="cls-6" points="120.87 72.49 120.87 103.2 137.58 103.23 120.87 72.49"/><polygon id="Rectangle-5" class="cls-7" points="55.38 60.35 120.87 90.62 120.87 93.79 55.38 79.45 55.38 60.35"/><polygon id="Rectangle-5-2" data-name="Rectangle-5" class="cls-8" points="186.5 51.56 120.87 90.62 120.87 91.68 186.5 64.17 186.5 51.56"/><polygon id="Rectangle-5-3" data-name="Rectangle-5" class="cls-9" points="186.5 89.39 120.87 93.79 120.87 92.73 186.5 76.78 186.5 89.39"/><polygon id="Rectangle-5-4" data-name="Rectangle-5" class="cls-10" points="186.5 64.17 120.87 91.68 120.87 92.73 186.5 76.78 186.5 64.17"/></g></g></g></g></g></svg>