<?xml version="1.0" encoding="UTF-8"?>
<svg width="99px" height="24px" viewBox="0 0 99 24" version="1.1" xmlns="http://www.w3.org/2000/svg" xmlns:xlink="http://www.w3.org/1999/xlink">
    <!-- Generator: Sketch 61.2 (89653) - https://sketch.com -->
    <title>Group 14</title>
    <desc>Created with Sketch.</desc>
    <defs>
        <polygon id="path-1" points="0.000127690469 0.152465567 16.4017487 0.152465567 16.4017487 23.7142857 0.000127690469 23.7142857"></polygon>
    </defs>
    <g id="Page-1" stroke="none" stroke-width="1" fill="none" fill-rule="evenodd">
        <g id="Tablet" transform="translate(-347.000000, -33.000000)">
            <g id="Group-14" transform="translate(347.000000, 33.000000)">
                <polygon id="Fill-1" fill="#FFFFFF" points="28.5325714 6.50768571 31.4537143 6.50768571 31.4537143 11.0005429 36.1537143 11.0005429 36.1537143 6.50768571 39.0748571 6.50768571 39.0748571 17.9545429 36.1537143 17.9545429 36.1537143 13.2931143 31.4537143 13.2931143 31.4537143 17.9545429 28.5325714 17.9545429"></polygon>
                <g id="Group-13" transform="translate(0.000000, 0.133343)">
                    <path d="M43.4925143,6.37434286 L46.3982286,6.37434286 L46.3982286,13.2209143 C46.3982286,13.9009143 46.5848,14.4323429 46.9579429,14.8157714 C47.3313714,15.1992 47.8602286,15.3909143 48.5450857,15.3909143 C49.2148,15.3909143 49.7413714,15.2029143 50.1245143,14.8272 C50.5079429,14.4517714 50.6996571,13.9160571 50.6996571,13.2209143 L50.6996571,6.37434286 L53.6208,6.37434286 L53.6208,13.3897714 C53.6208,14.8209143 53.1582286,15.9426286 52.2330857,16.7554857 C51.3079429,17.5683429 50.0733714,17.9746286 48.5296571,17.9746286 C47.6762286,17.9746286 46.9248,17.8649143 46.2756571,17.6449143 C45.6265143,17.4252 45.0999429,17.1106286 44.6962286,16.7017714 C44.2925143,16.2929143 43.9910857,15.8123429 43.7916571,15.2606286 C43.5922286,14.7083429 43.4925143,14.0849143 43.4925143,13.3897714 L43.4925143,6.37434286 Z" id="Fill-2" fill="#FFFFFF"></path>
                    <polygon id="Fill-4" fill="#FFFFFF" points="58.0230571 6.37434286 61.6187714 6.37434286 64.1182 12.0863429 64.2410571 12.0863429 66.6944857 6.37434286 70.3056286 6.37434286 70.3056286 17.8212 67.4613429 17.8212 67.4613429 13.5046286 67.6222 10.4226286 67.5073429 10.4226286 64.1796286 17.6677714 60.8522 10.4226286 60.7142 10.4226286 60.8827714 13.5352 60.8827714 17.8212 58.0230571 17.8212"></polygon>
                    <path d="M80.6962,13.8498 L80.3510571,12.7840857 L79.4387714,9.46408571 L79.3313429,9.46408571 L78.3424857,12.7840857 L77.9973429,13.8498 L80.6962,13.8498 Z M77.6216286,6.37437143 L81.0413429,6.37437143 L85.1736286,17.8212286 L81.9536286,17.8212286 L81.4016286,16.0960857 L77.2767714,16.0960857 L76.7093429,17.8212286 L73.6807714,17.8212286 L77.6216286,6.37437143 Z" id="Fill-6" fill="#FFFFFF"></path>
                    <polygon id="Fill-8" fill="#FFFFFF" points="88.2573143 6.37434286 91.6078857 6.37434286 95.6867429 13.6426286 95.8096 13.6426286 95.6407429 10.4226286 95.6407429 6.37434286 98.5464571 6.37434286 98.5464571 17.8212 95.2036 17.8212 91.1478857 10.6297714 91.0253143 10.6297714 91.1784571 13.7423429 91.1784571 17.8212 88.2573143 17.8212"></polygon>
                    <g id="Group-12">
                        <mask id="mask-2" fill="white">
                            <use xlink:href="#path-1"></use>
                        </mask>
                        <g id="Clip-11"></g>
                        <path d="M14.0474857,0.7368 C13.5154857,0.5628 12.9869143,0.383657143 12.4614857,0.199371429 C11.8057714,-0.0312 11.1777714,0.621085714 11.2034857,1.50451429 C11.2623429,3.1508 11.3212,4.79708571 11.3800571,6.44365714 C11.4000571,6.98937143 11.1354857,7.48737143 10.7140571,7.69108571 C9.88748571,8.09051429 9.04891429,8.47908571 8.2012,8.85537143 C7.35205714,8.47937143 6.51434286,8.0908 5.6872,7.69108571 C5.26491429,7.48794286 5.00377143,6.98908571 5.02205714,6.44365714 C5.08091429,4.79708571 5.13948571,3.1508 5.19834286,1.50451429 C5.22862857,0.621085714 4.59891429,-0.0317714286 3.94034286,0.199371429 C3.41577143,0.383657143 2.88777143,0.5628 2.35405714,0.7368 C1.92005714,0.878514286 1.59577143,1.3588 1.54977143,1.92965714 C1.3972,3.87451429 1.24348571,5.81994286 1.09062857,7.76537143 C1.0472,8.30908571 1.29605714,8.81937143 1.71434286,9.04108571 C2.64034286,9.52908571 2.56205714,11.1296571 1.54091429,11.4868 C1.08462857,11.6468 0.746628571,12.1096571 0.705771429,12.6536571 C0.471485714,15.6253714 0.237771429,18.5973714 0.00405714286,21.5690857 C-0.0390857143,22.1388 0.276057143,22.6722286 0.800342857,22.8810857 C1.44034286,23.1373714 2.0852,23.3879429 2.73434286,23.6325143 C3.55205714,23.9408 4.42177143,23.3402286 4.45034286,22.4570857 C4.54577143,19.7816571 4.64148571,17.1062286 4.73691429,14.4310857 C4.75834286,13.8856571 5.0752,13.4088 5.53262857,13.2299429 C6.43177143,12.8782286 7.32177143,12.5139429 8.2012,12.1373714 C9.07948571,12.5139429 9.96862857,12.8782286 10.8689143,13.2299429 C11.3252,13.4090857 11.6440571,13.8856571 11.6652,14.4310857 C11.7606286,17.1062286 11.8563429,19.7816571 11.9517714,22.4570857 C11.9823429,23.3408 12.8480571,23.9405143 13.6677714,23.6325143 C14.3166286,23.3876571 14.9614857,23.1373714 15.6009143,22.8810857 C16.1217714,22.6722286 16.4429143,22.1388 16.3974857,21.5690857 C16.1634857,18.5973714 15.9297714,15.6253714 15.6957714,12.6539429 C15.6500571,12.1096571 15.3212,11.6468 14.8603429,11.4868 C13.8432,11.1293714 13.7594857,9.52937143 14.6874857,9.04108571 C15.1103429,8.81965714 15.3509143,8.30937143 15.3106286,7.76537143 C15.1580571,5.81994286 15.0040571,3.87451429 14.8514857,1.92965714 C14.8046286,1.35908571 14.4803429,0.878228571 14.0474857,0.7368" id="Fill-10" fill="#FFFFFF" mask="url(#mask-2)"></path>
                    </g>
                </g>
            </g>
        </g>
    </g>
</svg>