<?xml version="1.0" encoding="utf-8"?>
<!-- Generator: Adobe Illustrator 23.0.0, SVG Export Plug-In . SVG Version: 6.00 Build 0)  -->
<svg version="1.1" id="图层_1" xmlns="http://www.w3.org/2000/svg" xmlns:xlink="http://www.w3.org/1999/xlink" x="0px" y="0px"
	 viewBox="0 0 150.8 44.8" style="enable-background:new 0 0 150.8 44.8;" xml:space="preserve">
<style type="text/css">
	.st0{opacity:0.95;fill:url(#SVGID_1_);}
	.st1{opacity:0.95;fill:url(#SVGID_2_);}
	.st2{fill:#000612;}
</style>
<linearGradient id="SVGID_1_" gradientUnits="userSpaceOnUse" x1="9.1966" y1="39.5563" x2="25.2694" y2="11.7173">
	<stop  offset="0" style="stop-color:#174E5B"/>
	<stop  offset="6.904168e-02" style="stop-color:#195A6C"/>
	<stop  offset="0.2067" style="stop-color:#1E779A"/>
	<stop  offset="0.3984" style="stop-color:#27A7E3"/>
	<stop  offset="0.4684" style="stop-color:#2ABAFF"/>
	<stop  offset="0.7045" style="stop-color:#1DDAF0"/>
	<stop  offset="1" style="stop-color:#0EFFE0"/>
</linearGradient>
<path class="st0" d="M28.8,42.4c-0.1-0.1-0.2-0.2-0.3-0.2c-2.6-0.6-5-1.5-7.1-2.7c-4.6-2.7-7.5-6.6-7.6-11.2c0-1.7,0.3-3.4,1.1-5.1
	c0.5-1,2.9-4.7,3.4-5.4c1.7-2.7,1.1-2.5-1.2-5.8L13.5,7l-2.3-3.4c0,0,0,0,0,0l0,0c0,0,0,0,0,0c-1.4,0.9-2.6,1.9-3.8,3
	C3.4,10.6,1,16,1,22.1c0,8.3,4.6,15.5,11.3,19.2c-7.6-5.6-11.1-14-8.2-22.5c0.8-2.3,2-4.4,3.5-6.3l2.5,3.7c0.3,0.4,0.3,1-0.1,1.4
	c-1.2,1.5-2.2,3.2-2.8,4.9C4,32,12.7,41.6,21.9,43.2c1.8,0.3,5,0.6,6.6,0.2C28.9,43.3,29,42.7,28.8,42.4z"/>
<linearGradient id="SVGID_2_" gradientUnits="userSpaceOnUse" x1="-912.7769" y1="879.1206" x2="-934.3792" y2="841.7044" gradientTransform="matrix(-1 0 0 -1 -890.9417 877.4521)">
	<stop  offset="0" style="stop-color:#174E5B"/>
	<stop  offset="6.904168e-02" style="stop-color:#195A6C"/>
	<stop  offset="0.2067" style="stop-color:#1E779A"/>
	<stop  offset="0.3984" style="stop-color:#27A7E3"/>
	<stop  offset="0.4684" style="stop-color:#2ABAFF"/>
	<stop  offset="0.7045" style="stop-color:#1DDAF0"/>
	<stop  offset="1" style="stop-color:#0EFFE0"/>
</linearGradient>
<path class="st1" d="M17.2,1.8C17.2,1.9,17.3,2,17.5,2c2.6,0.6,5,1.5,7.1,2.7c4.6,2.7,7.5,6.6,7.6,11.2c0,1.7-0.3,3.4-1.1,5.1
	c-0.5,1-2.9,4.7-3.4,5.4c-1.7,2.7-1.1,2.5,1.2,5.8l3.5,5.1l2.3,3.4c0,0,0,0,0,0l0,0c0,0,0,0,0,0c1.4-0.9,2.6-1.9,3.8-3
	c4-4,6.4-9.5,6.4-15.5C45,13.9,40.4,6.7,33.7,3c7.6,5.6,11.1,14,8.2,22.5c-0.8,2.3-2,4.4-3.5,6.3L35.9,28c-0.3-0.4-0.3-1,0.1-1.4
	c1.2-1.5,2.2-3.2,2.8-4.9c3.2-9.3-5.5-19-14.6-20.6c-1.8-0.3-5-0.6-6.6-0.2C17,1,16.9,1.5,17.2,1.8z"/>
<path class="st2" d="M57.9,23.2H55V10.5h2.9V23.2z"/>
<path class="st2" d="M62.1,23.2V10.5h2.6l6.9,8.2v-8.2h2.9v12.7h-2.6L65,14.9v8.3H62.1z"/>
<path class="st2" d="M83.8,10.5v8.7c0,1-0.1,2.4-1.1,3.4c-0.8,0.8-1.9,1-2.7,1c-0.7,0-1.4-0.1-2-0.5c-0.4-0.2-0.9-0.7-1.2-1.1
	l1.8-2.1c0.1,0.2,0.3,0.6,0.5,0.7c0.2,0.2,0.4,0.3,0.7,0.3c0.2,0,0.5-0.1,0.7-0.3c0.4-0.4,0.4-1,0.4-1.5v-8.7H83.8z"/>
<path class="st2" d="M95.1,12.9h-4.3v2.5h4v2.5h-4v2.8h4.3v2.5h-7.2V10.5h7.2V12.9z"/>
<path class="st2" d="M108,22.8c-1.1,0.6-2,0.7-2.8,0.7c-2.3,0-3.9-0.8-5-1.9c-1.1-1.1-2-2.8-2-4.8c0-2,0.8-3.7,2-4.8
	c1.1-1.1,2.8-1.8,4.8-1.8c0.8,0,1.8,0.2,3.1,0.7v3.4c-0.6-0.7-1.6-1.4-3-1.4c-1.1,0-1.9,0.3-2.6,1c-0.7,0.7-1.2,1.7-1.2,2.9
	c0,1.3,0.5,2.3,1.1,2.8c0.3,0.3,1.2,1.1,2.8,1.1c0.8,0,1.8-0.2,2.9-1.3V22.8z"/>
<path class="st2" d="M116.2,12.9v10.3h-2.9V12.9h-2.8v-2.5h8.5v2.5H116.2z"/>
<path class="st2" d="M124.8,23.2h-2.9V10.5h2.9V23.2z"/>
<path class="st2" d="M130.9,10.5l3.2,8.2l3.2-8.2h3.2l-5.4,12.7h-2l-5.4-12.7H130.9z"/>
<path class="st2" d="M150.5,12.9h-4.3v2.5h4v2.5h-4v2.8h4.3v2.5h-7.2V10.5h7.2V12.9z"/>
<path class="st2" d="M57.3,31.1h0.9c0.3,0,0.9,0,1.3-0.4c0.2-0.2,0.4-0.6,0.4-1c0-0.4-0.2-0.8-0.4-1c-0.4-0.3-0.9-0.4-1.4-0.4h-0.8
	V31.1z M58.5,26.3c0.9,0,1.9,0.1,2.8,0.9c0.9,0.8,1,1.8,1,2.6c0,1.3-0.5,2.1-0.9,2.5c-0.8,0.9-1.9,0.9-2.7,0.9h-1.5v3.7h-2.4V26.3
	H58.5z"/>
<path class="st2" d="M68.7,31.1h0.6c0.4,0,1,0,1.5-0.5c0.2-0.2,0.4-0.5,0.4-1c0-0.6-0.3-0.9-0.5-1.1c-0.4-0.3-1-0.3-1.3-0.3h-0.6
	V31.1z M70,26.3c1.3,0,2.2,0.4,2.7,0.9c0.4,0.4,0.9,1.2,0.9,2.4c0,0.7-0.1,1.5-0.8,2.2c-0.4,0.3-0.9,0.7-1.5,0.8l3.2,4.3h-3
	l-2.9-4.2v4.2h-2.4V26.3H70z"/>
<path class="st2" d="M81.2,29.2c-0.5,0.4-0.9,1.2-0.9,2.4c0,1,0.3,1.7,1,2.4c0.7,0.6,1.4,0.9,2.3,0.9c1.1,0,1.8-0.4,2.3-0.9
	c0.4-0.4,0.9-1.1,0.9-2.4c0-1.1-0.4-1.9-0.9-2.4c-0.5-0.5-1.4-0.9-2.3-0.9C82.6,28.3,81.8,28.6,81.2,29.2z M87.6,27.6
	c1,1,1.6,2.4,1.6,4c0,1.4-0.5,2.9-1.6,4c-1,1-2.3,1.6-4.1,1.6c-2,0-3.3-0.8-4.1-1.6c-1-1-1.6-2.4-1.6-3.9c0-1.5,0.7-3.1,1.6-4
	c0.7-0.7,2-1.6,4.1-1.6C85.2,26,86.6,26.5,87.6,27.6z"/>
<path class="st2" d="M96.9,28.3v8.5h-2.4v-8.5h-2.3v-2.1h7v2.1H96.9z"/>
<path class="st2" d="M105.5,29.2c-0.5,0.4-0.9,1.2-0.9,2.4c0,1,0.3,1.7,1,2.4c0.7,0.6,1.4,0.9,2.3,0.9c1.1,0,1.8-0.4,2.3-0.9
	c0.4-0.4,0.9-1.1,0.9-2.4c0-1.1-0.4-1.9-0.9-2.4c-0.5-0.5-1.4-0.9-2.3-0.9C106.9,28.3,106,28.6,105.5,29.2z M111.9,27.6
	c1,1,1.6,2.4,1.6,4c0,1.4-0.5,2.9-1.6,4c-1,1-2.3,1.6-4.1,1.6c-2,0-3.3-0.8-4.1-1.6c-1-1-1.6-2.4-1.6-3.9c0-1.5,0.7-3.1,1.6-4
	c0.7-0.7,2-1.6,4.1-1.6C109.4,26,110.8,26.5,111.9,27.6z"/>
<path class="st2" d="M125.4,36.5c-0.9,0.5-1.7,0.6-2.3,0.6c-1.9,0-3.3-0.7-4.2-1.5c-1-0.9-1.6-2.3-1.6-4c0-1.7,0.7-3.1,1.6-4
	c0.9-0.9,2.3-1.5,3.9-1.5c0.7,0,1.5,0.1,2.5,0.6v2.8c-0.5-0.6-1.3-1.1-2.5-1.1c-0.9,0-1.6,0.3-2.2,0.8c-0.6,0.6-1,1.4-1,2.4
	c0,1.1,0.4,1.9,0.9,2.3c0.2,0.2,1,0.9,2.3,0.9c0.6,0,1.5-0.2,2.4-1.1V36.5z"/>
<path class="st2" d="M132.6,29.2c-0.5,0.4-0.9,1.2-0.9,2.4c0,1,0.3,1.7,1,2.4c0.7,0.6,1.4,0.9,2.3,0.9c1.1,0,1.8-0.4,2.3-0.9
	c0.4-0.4,0.9-1.1,0.9-2.4c0-1.1-0.4-1.9-0.9-2.4c-0.5-0.5-1.4-0.9-2.3-0.9C134,28.3,133.2,28.6,132.6,29.2z M139.1,27.6
	c1,1,1.6,2.4,1.6,4c0,1.4-0.5,2.9-1.6,4c-1,1-2.3,1.6-4.1,1.6c-2,0-3.3-0.8-4.1-1.6c-1-1-1.6-2.4-1.6-3.9c0-1.5,0.7-3.1,1.6-4
	c0.7-0.7,2-1.6,4.1-1.6C136.6,26,138,26.5,139.1,27.6z"/>
<path class="st2" d="M147.4,26.3v8.5h3.3v2.1h-5.7V26.3H147.4z"/>
</svg>
