<?xml version="1.0" encoding="utf-8"?>
<!-- Generator: Adobe Illustrator 25.2.0, SVG Export Plug-In . SVG Version: 6.00 Build 0)  -->
<svg version="1.1" id="레이어_1" xmlns="http://www.w3.org/2000/svg" xmlns:xlink="http://www.w3.org/1999/xlink" x="0px"
	 y="0px" viewBox="0 0 610.4 127.4" style="enable-background:new 0 0 610.4 127.4;" xml:space="preserve">
<style type="text/css">
	.st0{fill:url(#SVGID_1_);}
	.st1{fill-rule:evenodd;clip-rule:evenodd;fill:#050E26;}
	.st2{fill:url(#SVGID_2_);}
</style>
<g>
	<g transform="translate(-242 -173) translate(242 173)">
		
			<linearGradient id="SVGID_1_" gradientUnits="userSpaceOnUse" x1="-488.1544" y1="615.4421" x2="-489.0305" y2="615.4421" gradientTransform="matrix(-56.8875 -56.8875 -70.7107 70.7107 15784.7236 -71245.8359)">
			<stop  offset="0" style="stop-color:#7EB5FF"/>
			<stop  offset="0.9997" style="stop-color:#1A38F8"/>
		</linearGradient>
		<path class="st0" d="M50.9,127.4c-5.3-4.2-8-8.5-7.9-13c0-4.5,1.4-8.2,4.2-11.1L107.5,43c4.1,3.5,6.6,7.6,7.4,12.1
			c0.8,4.5-0.5,8.6-3.9,12.2L50.9,127.4z M29.4,105.9c-5.3-4.2-8-8.5-7.9-13c0-4.5,1.4-8.2,4.2-11.1L86,21.5
			c4.1,3.5,6.6,7.6,7.4,12.1c0.8,4.5-0.5,8.6-3.9,12.2L29.4,105.9z M7.9,84.4c-5.3-4.2-8-8.5-7.9-13c0-4.5,1.4-8.2,4.2-11.1L64.5,0
			c4.1,3.5,6.6,7.6,7.4,12.1c0.8,4.5-0.5,8.6-3.9,12.2L7.9,84.4z"/>
	</g>
	<g>
		<path class="st1" d="M498.6,40.2c11.1,0,19.8,3.8,26,11.3L525,52v-9.6h20.9v81H525v-9.6l-0.4,0.5c-6.2,7.5-14.9,11.3-26,11.3
			c-10.8,0-20.1-4.1-27.8-12.4S459.2,95,459.2,83s3.9-22.1,11.6-30.4S487.8,40.2,498.6,40.2L498.6,40.2z M407.9,40.2
			c11.9,0,21.7,4.1,29.4,12.3c7.7,8.2,11.6,18.4,11.6,30.5c0,2.4-0.2,4.9-0.6,7.5l-0.2,1.1H387c2.8,10.2,10.4,15.2,22.9,15.2
			c8,0,14-2.7,18.2-8.1h20.1c-1.3,5.3-1.6,6-3.8,9.7c-6,9.7-19.2,17.3-34.8,17.3c-13.4,0-24.1-4.1-32.3-12.2S365.1,95.3,365.1,83
			c0-12.2,4-22.4,12-30.5C385.1,44.3,395.3,40.2,407.9,40.2L407.9,40.2z M180.8,1.6v98.9c0,0.9,0.7,1.6,1.6,1.6h41.7v21.4h-62.4
			c-1.8,0-3.2-1.5-3.2-3.2V1.6L180.8,1.6L180.8,1.6z M256.7,42.5v81h-20.9v-81H256.7z M320.8,40.2c8.9,0,16.2,3,22,8.9
			c5.8,5.9,8.7,14.2,8.7,24.6v49.8h-20.9V76.4l0-0.6c-0.1-5.1-1.6-9-4.4-11.8c-2.9-2.9-6.8-4.3-11.7-4.3c-5.4,0-9.7,1.7-13,5
			c-3.2,3.3-4.9,8.4-4.9,15.1v43.8h-20.9v-81h20.9v9.1l0.3-0.5C302.1,43.8,310.1,40.2,320.8,40.2L320.8,40.2z M610.4,40.9v23.3
			l-0.7-0.1c-6.1-0.6-11.6,0.7-16.4,4c-5,3.3-7.5,8.9-7.5,16.7v38.7h-20.9v-81h20.9v13.9l0.2-0.6c2-4.9,5.1-8.5,9.4-11
			C599.9,42.2,604.9,40.9,610.4,40.9z M502.5,60.1c-6.5,0-11.8,2.1-16,6.4c-4.2,4.3-6.3,9.7-6.3,16.4c0,6.7,2.1,12.2,6.3,16.5
			c4.2,4.2,9.6,6.3,16,6.3s11.9-2.1,16.1-6.4c4.3-4.3,6.4-9.8,6.4-16.4c0-6.7-2.1-12.2-6.4-16.4C514.4,62.3,509,60.1,502.5,60.1z
			 M407.9,59c-5.6,0-10.3,1.4-13.9,4.3c-3.5,2.7-5.9,6.5-7.1,11.4l-0.2,0.7H428c-1.2-5.5-3.6-9.6-7.4-12.3
			C416.9,60.4,412.6,59,407.9,59L407.9,59z"/>
		
			<linearGradient id="SVGID_2_" gradientUnits="userSpaceOnUse" x1="-446.9375" y1="629.475" x2="-446.9375" y2="628.0552" gradientTransform="matrix(7.898973e-16 12.9 36.176 -2.215141e-15 -22482.1777 5777.5259)">
			<stop  offset="0" style="stop-color:#7EB5FF"/>
			<stop  offset="0.9995" style="stop-color:#1A38F8"/>
		</linearGradient>
		<path class="st2" d="M293.3,2.2c0,10.7-8.3,19.4-18.7,20.2l-1.5,0.1h-38.4v-0.6c0-10.7,8.3-19.4,18.7-20.2l1.5-0.1h38.4L293.3,2.2
			L293.3,2.2z"/>
	</g>
</g>
</svg>
