<svg id="图层_1" data-name="图层 1" xmlns="http://www.w3.org/2000/svg" viewBox="0 0 563.33 154.58"><defs><style>.cls-1{fill:#041030;}.cls-2{fill:#e11f53;}.cls-3{fill:#4c8bf5;}.cls-4{fill:#43c6ac;}.cls-5{fill:#f8b233;}</style></defs><title>lambda LOGO导出</title><path class="cls-1" d="M346.47,70.31a27.1,27.1,0,0,0-2.05,2.27,29,29,0,0,0-2.05-2.27,26.57,26.57,0,0,0-26.05-6.82V62.26h-11.7v53.8h11.7V75.91a15.18,15.18,0,0,1,22.25,13.32v26.83h11.7V89.23a14.47,14.47,0,0,1,4.44-10.61,14.7,14.7,0,0,1,10.76-4.43,15.8,15.8,0,0,1,3,.3V62.71a24.26,24.26,0,0,0-3-.22A26,26,0,0,0,346.47,70.31ZM203.55,38.4h-11.7v71.81a6,6,0,0,0,5.85,5.85h40.82v-11.7h-35Zm90.51,23.68H282.38v5a25.73,25.73,0,0,0-15.09-4.6,26,26,0,0,0-19,7.82,26.71,26.71,0,0,0,0,37.93,26,26,0,0,0,19,7.82,26.64,26.64,0,0,0,10.88-2.32l-.11-13.82a15.2,15.2,0,0,1-26-10.7,14.4,14.4,0,0,1,4.45-10.6,15.14,15.14,0,0,1,21.4,0,14.47,14.47,0,0,1,4.44,10.61v26.83h11.7V89.22c0-.17,0-.32,0-.49ZM419,62.49a26,26,0,0,0-10.88,2.34V78.75A14.84,14.84,0,0,1,419,74.19a14.67,14.67,0,0,1,10.76,4.43,14.43,14.43,0,0,1,4.44,10.6A15.14,15.14,0,0,1,404,91.16V61.1h-.13V38.4h-11.7V89.16c0,1,.06,2,.15,3v24.05H404v-4.63A26.9,26.9,0,0,0,445.9,89.22,25.62,25.62,0,0,0,438,70.31,26,26,0,0,0,419,62.49ZM563.3,88.71V61.1H551.63v6a25.75,25.75,0,0,0-15.09-4.6,26.06,26.06,0,0,0-19,7.82,26.74,26.74,0,0,0,0,37.93,26,26,0,0,0,19,7.82,26.67,26.67,0,0,0,10.88-2.32l-.12-13.82a15.19,15.19,0,0,1-26-10.7,14.43,14.43,0,0,1,4.44-10.6,15.15,15.15,0,0,1,21.41,0,14.43,14.43,0,0,1,4.44,10.6v27H563.3v-.12h0V89.22C563.33,89.05,563.31,88.88,563.3,88.71ZM490.93,61.1h0V90A15.16,15.16,0,0,1,465,100a15.25,15.25,0,0,1,0-21.41,15.19,15.19,0,0,1,21.58.12V64.83a26.74,26.74,0,0,0-37.66,24.45,26.85,26.85,0,0,0,41.95,22.25v4.65h11.68V90.5c0-.41.05-.81.05-1.22V38.51H490.93ZM372.52,63.49h0V75.91h0v40.15h11.7V62.26h-11.7Z"/><path class="cls-2" d="M57.13,50.38l.14.39a9.34,9.34,0,0,0,17.38.73l17-38.37A9.35,9.35,0,0,0,89.7,2.74h0A9.35,9.35,0,0,0,74.57,5.51l-17.12,38A9.33,9.33,0,0,0,57.13,50.38Z"/><path class="cls-2" d="M85.68,42.06h0a8.66,8.66,0,0,1,5.11-4.69L112,30.1a8.66,8.66,0,0,1,8.94,2.07l.28.28a8.66,8.66,0,0,1-3.45,14.37l-21.48,7A8.67,8.67,0,0,1,85.68,42.06Z"/><path class="cls-3" d="M104.18,56.89l-.39.13a9.35,9.35,0,0,0-.73,17.38l38.37,17a9.33,9.33,0,0,0,10.39-1.93h0a9.34,9.34,0,0,0-2.76-15.13l-38-17.13A9.33,9.33,0,0,0,104.18,56.89Z"/><path class="cls-3" d="M112.73,85.71h0a8.71,8.71,0,0,1,4.7,5.11L124.7,112a8.68,8.68,0,0,1-2.07,8.94l-.28.28A8.67,8.67,0,0,1,108,117.8l-7-21.48A8.67,8.67,0,0,1,112.73,85.71Z"/><path class="cls-4" d="M97.49,104.19l-.13-.38A9.35,9.35,0,0,0,80,103.07L63,141.44a9.35,9.35,0,0,0,1.93,10.4h0a9.35,9.35,0,0,0,15.13-2.77l17.13-38A9.33,9.33,0,0,0,97.49,104.19Z"/><path class="cls-4" d="M68.67,112.72h0a8.65,8.65,0,0,1-5.12,4.69l-21.2,7.27a8.68,8.68,0,0,1-9-2.07l-.27-.28A8.66,8.66,0,0,1,36.57,108l21.48-7A8.68,8.68,0,0,1,68.67,112.72Z"/><path class="cls-5" d="M50.38,97.75l.39-.13a9.34,9.34,0,0,0,.73-17.38l-38.37-17A9.32,9.32,0,0,0,2.74,65.19h0A9.35,9.35,0,0,0,5.51,80.32l38,17.12A9.33,9.33,0,0,0,50.38,97.75Z"/><path class="cls-5" d="M41.66,69.23h0A8.69,8.69,0,0,1,37,64.12L29.7,42.92a8.69,8.69,0,0,1,2.07-9l.28-.28a8.68,8.68,0,0,1,14.38,3.45l7,21.48A8.67,8.67,0,0,1,41.66,69.23Z"/></svg>