<?xml version="1.0" encoding="utf-8"?>
<!-- Generator: Adobe Illustrator 25.2.0, SVG Export Plug-In . SVG Version: 6.00 Build 0)  -->
<svg version="1.1" id="layer" xmlns="http://www.w3.org/2000/svg" xmlns:xlink="http://www.w3.org/1999/xlink" x="0px" y="0px"
	 viewBox="0 0 1766.3 331" style="enable-background:new 0 0 1766.3 331;" xml:space="preserve">
<style type="text/css">
	.st0{fill:#040000;}
</style>
<path class="st0" d="M165.3,0l-34.2,101l-0.3,0.2L0,165.7l101,34.2L165.7,331L200,230.1l0.3-0.1l130.8-64.5l-101-34.3L165.3,0z
	 M100.8,188l-71.5-24.2l1.6-0.8l95.1-46.9l-24.5,72.2L100.8,188z M167.3,29.3l51.2,103.8l-103.8,51.2L167.3,29.3z M163.7,301.8
	l-47.6-96.6l72.1,24.3L163.7,301.8z M300.1,168.1L194.9,220l-75.3-25.5l1.6-0.8l105.2-51.9l75.3,25.5L300.1,168.1z"/>
<g>
	<polygon class="st0" points="649.3,178.5 756.5,178.5 756.5,165.1 649.3,165.1 649.3,105.2 769.7,105.2 769.7,91.8 635.9,91.8 
		635.9,251.6 782.7,251.6 782.7,238.4 649.3,238.4 	"/>
	<path class="st0" d="M1413.9,250.5h15.6l20.3-39.3h95.4l20.3,39.3h15.4l-83.4-162L1413.9,250.5z M1456.6,197.8l40.9-79.5l40.9,79.5
		H1456.6z"/>
	<polygon class="st0" points="1262.4,92.1 1248.8,92.1 1248.8,248.7 1383.6,248.7 1383.6,235.6 1262.4,235.6 	"/>
	<polygon class="st0" points="565.5,224.8 431.1,82.3 431.1,248.7 444.5,248.7 444.5,116 578.9,258.5 578.9,92.1 565.5,92.1 	"/>
	<g>
		<path class="st0" d="M967.3,167.2c4.7-5.8,7.2-13,7.2-20.5v-19.9c0-15.2-10-28.6-24.8-33.5l-0.9-0.4c-8.5-2.7-17.4-4.2-26.6-4.2
			h-84.2v163.1h96.7c9.2,0,17.9-1.4,26.4-4.2l0.9-0.2c14.8-4.9,24.8-18.3,24.8-33.3v-14.5C986.7,186.1,979.1,173.9,967.3,167.2
			 M852.8,103h69.7c7.4,0,14.8,1.1,22.1,3.4l0.9,0.4c9,2.9,15,11,15,20.1V147c0,7.1-4.2,13.6-10.5,16.7h-97.2V103L852.8,103z
			 M973,213.9c0,9.2-6,17.2-15,20.1l-0.9,0.2c-7.1,2.4-14.3,3.4-22.1,3.4h-82.2v-61.5h98.1c12.1,1.8,21.5,11.8,22.1,23.7V213.9z"/>
		<path class="st0" d="M1766.1,201.3c-0.4-14.3-9-27.1-22.6-33.1l-1.4-0.5c-8.1-2.7-16.8-4-25.5-4h-50.9c-7.2,0-14.5-1.3-21.5-3.4
			c-8.3-2.5-13.8-10-13.8-18.5V128c0-8.5,5.6-15.7,13.9-18.5c6.9-2.4,14.1-3.4,21.5-3.4h82.5V92.3h-82.5c-8.9,0-17.6,1.4-25.9,4.2
			c-14.1,4.3-23.7,17-23.7,31.5v13.8c0,14.3,9.4,27,23.5,31.5c8.5,2.7,17.2,4.2,26.1,4.2h50.9c7.2,0,14.3,1.1,21.4,3.4
			c8.5,3.8,13.8,11.9,14.1,20.8v8.9c-0.2,9-5.6,17.2-14.3,21.2c-6.7,2.2-13.8,3.3-21,3.3h-93.6v13.8h93.6c8.7,0,17.4-1.4,25.5-4
			l1.4-0.5c13.4-6.2,22.1-18.8,22.4-33.3L1766.1,201.3z"/>
		<path class="st0" d="M1172.8,187.5c-0.9,27.9-24.4,50.1-53.6,50.3h-10.1c-29.1-0.4-52.7-22.4-53.6-50.1v-99h-14.3v99.2
			c0.9,35.5,30.8,63.7,67.7,64.3h10.3c36.9-0.4,66.6-28.6,67.7-64.4v-99h-14.3L1172.8,187.5L1172.8,187.5z"/>
	</g>
</g>
</svg>
