<?xml version="1.0" encoding="utf-8"?>
<!-- Generator: Adobe Illustrator 25.2.0, SVG Export Plug-In . SVG Version: 6.00 Build 0)  -->
<svg version="1.1" id="레이어_1" xmlns="http://www.w3.org/2000/svg" xmlns:xlink="http://www.w3.org/1999/xlink" x="0px"
	 y="0px" viewBox="0 0 1959.8 422.3" style="enable-background:new 0 0 1959.8 422.3;" xml:space="preserve">
<style type="text/css">
	.st0{fill:#1E909A;}
	.st1{fill:#BBBAC2;}
	.st2{fill:#FFFFFF;}
	.st3{fill:none;}
	.st4{font-family:'Montserrat-Light';}
	.st5{font-size:276px;}
</style>
<g>
	<path class="st0" d="M200.2,13.2C89.4,11.8,1.7,100.4,0,207.7c-1.8,112.6,89,201.6,197.6,201.4c109.3,0,197.9-88.3,198-197.3
		C395.8,103.2,309.5,14.5,200.2,13.2 M235.3,390.7c-55.9,11.2-106.9-0.8-151.8-36.2C48.8,327,27.3,291,18.2,247.6
		c-1.9-8.9-3.1-17.9-3.3-27.1c-0.9-5.1-0.2-10.3-0.4-15.4c0-1-0.3-2.2,0.3-3.2v0c2-40.1,15.8-75.6,41-106.8
		C68.3,79.7,83.1,66.7,100,56c0.8-0.5,1.7-1,2.6-1.4c1.2-1.5,3-2,4.5-2.9v0c60.4-32.4,120.9-32.3,181.3,0c1.8,1.1,3.7,2.2,5.5,3.3v0
		v0c28.5,17.6,50.5,41.3,66.2,70.9c11.5,21.7,18.4,44.7,20.3,69.1c3.9,48.5-9,92.3-39.3,130.4C313.8,359.8,278.4,382.1,235.3,390.7"
		/>
	<path class="st1" d="M22.4,225.9c11.8,20.6,23.6,41.3,35.4,61.9c8.5,14.8,16.9,29.7,25.4,44.6c6.2,10.9,12.3,21.8,18.6,32.6
		c1.6,2.7,4.1,4,7.3,4c59,0,118,0,177,0c3.6,0,6.2-1.3,8-4.5c12.9-22.8,25.9-45.5,38.9-68.3c13-22.8,26.1-45.6,39.1-68.4
		c2.6-4.5,5.1-9,7.7-13.5c1.6-2.7,1.3-5.5-0.2-8.1c-5.6-9.8-11.2-19.6-16.7-29.3c-8.4-14.7-16.8-29.4-25.2-44.1
		c-9.7-17-19.5-34-29.2-51c-4.8-8.3-9.5-16.7-14.3-25c-0.3-0.5-0.9-1.1-0.1-1.7v0c-1.8-1.1-3.7-2.2-5.5-3.3
		c-0.8,0.8-1.7,0.4-2.6,0.4c-58.7,0-117.4,0-176,0c-0.9,0-1.8,0.3-2.6-0.4h0c-1.6,0.9-3.4,1.4-4.5,2.9c-5.7,9.8-11.3,19.6-17,29.5
		c-9.8,17.1-19.5,34.2-29.3,51.3c-9,15.7-17.9,31.4-26.9,47.2c-4.7,8.2-9.4,16.5-14.6,24.6c0-1.7,0-3.4,0-5.1h0
		c-0.6,1-0.4,2.1-0.3,3.2c0.1,5.1-0.5,10.3,0.4,15.4v-7.8C17.6,217.6,20,221.7,22.4,225.9 M31.5,208.3c9.2-16,18.3-32,27.4-48
		c9-15.9,18.1-31.7,27.2-47.6c8.4-14.8,16.9-29.5,25.3-44.3c0.8-1.4,1.7-1.8,3.2-1.8c55.3,0,110.7,0,166,0c1.8,0,2.7,0.6,3.5,2.1
		c8.2,14.5,16.5,29,24.8,43.5c10,17.5,19.9,34.9,29.9,52.4c8.4,14.7,16.7,29.4,25.2,44.1c0.8,1.3,0.8,2.3,0,3.6
		c-7,12.1-13.9,24.3-20.9,36.5c-8.4,14.6-16.7,29.3-25.1,43.9c-9.8,17.1-19.5,34.2-29.3,51.3c-1.6,2.8-3.3,5.5-4.7,8.3
		c-0.8,1.7-1.8,2.2-3.7,2.2c-26-0.1-52.1,0-78.1,0h-4.5c-27.3,0-54.6,0-81.9,0.1c-2.5,0-3.8-0.7-5.1-2.9c-9.6-17-19.3-33.9-29-50.9
		c-9.7-17-19.3-33.9-29-50.9c-7-12.3-14.1-24.6-21.2-36.9C30.7,211.3,30.5,210.1,31.5,208.3"/>
	<path class="st2" d="M15.5,205.7c10.1-17.8,20.3-35.6,30.4-53.4c14.4-25.3,28.9-50.5,43.3-75.8c3.5-6.2,7-12.3,10.5-18.5
		c0.7-1.3,1.5-2.6,2.8-3.4c-0.9,0.5-1.8,0.9-2.6,1.4C83.1,66.7,68.3,79.7,55.8,95.2c-25.1,31.2-38.9,66.7-41,106.8v0
		C16,203.1,15.4,204.5,15.5,205.7"/>
	<path class="st2" d="M380.4,195c-1.9-24.4-8.9-47.5-20.3-69.1C344.5,96.3,322.5,72.6,294,55v0c3.5,6.6,7.3,12.9,11,19.4
		c16.4,28.9,33,57.7,49.4,86.6c8.3,14.6,16.6,29.2,25,43.7c2.1,3.7,2.3,7.4,0.1,11.2c-13,22.9-26.1,45.7-39.1,68.5
		c-13.3,23.3-26.6,46.6-39.8,69.9c-2,3.6-4.1,7.1-6.1,10.6c-1.8,3.1-4.5,4.6-8,4.7c-0.9,0-1.8,0-2.8,0c-57.4,0-114.9,0-172.3,0.1
		c-5.4,0-8.9-1.9-11.5-6.6c-20-35.2-40.1-70.4-60.1-105.6c-7.6-13.3-15.2-26.5-22.7-39.8c-0.5-0.9-1.1-1.8-1.4-2.7
		c-0.1,1.8,0.7,3.8-0.7,5.6c0.3,9.1,1.4,18.1,3.3,27.1C27.3,291,48.8,327,83.6,354.5c44.8,35.4,95.9,47.4,151.8,36.2
		c43-8.6,78.4-30.8,105.8-65.2C371.5,287.3,384.3,243.6,380.4,195"/>
	<path class="st2" d="M52.8,249.8c9.7,17,19.3,33.9,29,50.9c9.7,16.9,19.4,33.9,29,50.9c1.3,2.2,2.6,2.9,5.1,2.9
		c27.3-0.1,54.6-0.1,81.9-0.1h4.5c26,0,52.1,0,78.1,0c1.8,0,2.9-0.5,3.7-2.2c1.4-2.8,3.1-5.5,4.7-8.3c9.8-17.1,19.5-34.2,29.3-51.3
		c8.4-14.6,16.7-29.3,25.1-43.9c7-12.2,13.9-24.3,20.9-36.5c0.8-1.3,0.7-2.3,0-3.6c-8.4-14.7-16.8-29.4-25.2-44.1
		c-10-17.5-19.9-34.9-29.9-52.4c-8.3-14.5-16.5-29-24.8-43.5c-0.8-1.5-1.8-2.1-3.5-2.1c-55.3,0.1-110.7,0-166,0
		c-1.5,0-2.4,0.4-3.2,1.8c-8.4,14.8-16.9,29.6-25.3,44.3C77,128.6,68,144.4,58.9,160.3c-9.1,16-18.2,32-27.4,48
		c-1,1.7-0.8,3,0.2,4.6C38.7,225.2,45.8,237.5,52.8,249.8 M228.2,268.6c-7.6,0-13.4-5.9-13.4-13.5c0-7.6,5.9-13.5,13.4-13.5
		c7.6,0,13.6,6,13.5,13.5C241.7,262.6,235.7,268.6,228.2,268.6 M145.3,155.4c0.2-1.6,1.4-1.9,2.7-2c7-0.9,14.1-1,21.2-1.5
		c4.2-0.3,8.3-0.3,12.5-0.7c1.9-0.2,2.4,0.3,2.5,2.2c0.6,8.4,1.3,16.8,1.6,25.2c0,0.2,0.1,0.4,0.3,1.3c3.3-5.5,6.4-10.4,10.3-14.8
		c6-6.9,13-12.5,22.2-14.5c10.9-2.4,20.7,2.5,23.8,12.2c1.3,3.9,1,7.8-0.2,11.6c-1.2,3.5-3.8,5.5-7.5,6.2c-3.8,0.7-7-0.3-9.2-3.6
		c-1.1-1.6-2-3.3-2.9-4.9c-4.7-8.4-11.9-10.2-19.6-4.5c-8.5,6.3-14.3,14.6-15.6,25.3c-2.3,19.3-2.2,38.6-0.8,58
		c0.5,6.5,1.2,9,10.6,10.8c0.9,0.2,1.8,0.3,2.7,0.5c0.9,0.2,1.5,0.7,1.6,1.6c0.1,0.9-0.3,1.6-1.1,2.1c-1.2,0.7-2.5,0.9-3.8,0.9
		c-15.3,0-30.5,0-45.8,0c-0.9,0-1.8-0.1-2.7-0.6c-1.5-0.9-1.5-2.5,0-3.3c1-0.6,2.2-0.7,3.4-0.8c1.7-0.2,3.5-0.3,5.2-0.6
		c4.5-0.9,7.3-3.3,7.8-8.1c0.9-7.9,1.2-15.8,1.2-23.7c0.1-18,0.2-36.1-1-54.1c-0.1-2.1-0.3-4.2-0.6-6.2c-1-6.6-5.2-10.3-12.4-10.8
		c-1.3-0.1-2.7-0.2-4-0.5C146.4,157.7,145.1,157.1,145.3,155.4"/>
	<path class="st2" d="M15.5,215c0.3,0.9,0.8,1.8,1.4,2.7c7.6,13.3,15.2,26.5,22.7,39.8c20.1,35.2,40.1,70.4,60.1,105.6
		c2.7,4.7,6.2,6.6,11.5,6.6c57.4-0.1,114.9-0.1,172.3-0.1c0.9,0,1.8,0,2.8,0c3.5-0.1,6.2-1.5,8-4.7c2-3.5,4.1-7.1,6.1-10.6
		c13.2-23.3,26.5-46.6,39.8-69.9c13-22.8,26.1-45.7,39.1-68.5c2.1-3.7,2-7.5-0.1-11.2c-8.3-14.6-16.7-29.1-25-43.7
		c-16.5-28.9-33-57.7-49.4-86.6c-3.7-6.4-7.5-12.8-11-19.4c-0.9,0.6-0.2,1.2,0.1,1.7c4.7,8.3,9.5,16.7,14.3,25
		c9.7,17,19.5,34,29.2,51c8.4,14.7,16.8,29.4,25.2,44.1c5.6,9.8,11.2,19.5,16.7,29.3c1.5,2.6,1.8,5.3,0.2,8.1
		c-2.6,4.5-5.1,9-7.7,13.5c-13,22.8-26.1,45.6-39.1,68.4c-13,22.7-26,45.5-38.9,68.3c-1.8,3.2-4.4,4.5-8,4.5c-59,0-118,0-177,0
		c-3.2,0-5.7-1.3-7.3-4c-6.2-10.8-12.4-21.7-18.6-32.6c-8.5-14.9-16.9-29.7-25.4-44.6c-11.8-20.6-23.6-41.3-35.4-61.9
		c-2.4-4.1-4.8-8.3-7.5-13.1v7.8C16.2,218.8,15.4,216.8,15.5,215"/>
	<path class="st2" d="M29.5,182.5c9-15.7,17.9-31.4,26.9-47.2c9.8-17.1,19.5-34.2,29.3-51.3c5.6-9.8,11.3-19.7,17-29.5
		c-1.3,0.9-2.1,2.1-2.8,3.4c-3.5,6.2-7,12.3-10.5,18.5c-14.4,25.3-28.9,50.6-43.3,75.8c-10.2,17.8-20.3,35.6-30.4,53.4
		c0-1.3,0.5-2.6-0.6-3.7c0,1.7,0,3.4,0,5.1C20.1,199,24.8,190.7,29.5,182.5"/>
	<path class="st0" d="M147.8,158c1.3,0.2,2.6,0.3,4,0.5c7.2,0.6,11.4,4.2,12.4,10.8c0.3,2.1,0.5,4.1,0.6,6.2c1.1,18,1.1,36,1,54.1
		c0,7.9-0.3,15.8-1.2,23.7c-0.6,4.8-3.3,7.3-7.8,8.1c-1.7,0.3-3.5,0.5-5.2,0.6c-1.2,0.1-2.3,0.2-3.4,0.8c-1.5,0.8-1.5,2.5,0,3.3
		c0.8,0.5,1.7,0.6,2.7,0.6c15.3,0,30.5,0,45.8,0c1.3,0,2.7-0.2,3.8-0.9c0.8-0.5,1.2-1.2,1.1-2.1c-0.1-1-0.7-1.5-1.6-1.6
		c-0.9-0.2-1.8-0.3-2.7-0.5c-9.4-1.8-10.1-4.4-10.6-10.8c-1.4-19.4-1.6-38.7,0.8-58c1.3-10.6,7.1-19,15.6-25.3
		c7.7-5.7,14.9-3.9,19.6,4.5c0.9,1.7,1.8,3.4,2.9,4.9c2.2,3.2,5.4,4.2,9.2,3.6c3.7-0.6,6.3-2.6,7.5-6.2c1.3-3.8,1.5-7.7,0.2-11.6
		c-3.1-9.6-12.9-14.6-23.8-12.2c-9.2,2.1-16.2,7.6-22.2,14.5c-3.8,4.4-7,9.3-10.3,14.8c-0.2-0.9-0.3-1.1-0.3-1.3
		c-0.3-8.4-0.9-16.8-1.6-25.2c-0.1-1.9-0.6-2.4-2.5-2.2c-4.1,0.4-8.3,0.4-12.5,0.7c-7.1,0.4-14.2,0.6-21.2,1.5
		c-1.3,0.2-2.6,0.5-2.7,2C145.1,157.1,146.4,157.7,147.8,158"/>
	<path class="st0" d="M228.2,241.6c-7.5,0-13.4,5.9-13.4,13.5c0,7.6,5.9,13.5,13.4,13.5c7.5,0,13.5-6,13.5-13.5
		C241.8,247.6,235.8,241.6,228.2,241.6"/>
</g>
<rect x="473.6" y="72.8" class="st3" width="1645.5" height="276.7"/>
<text transform="matrix(1 0 0 1 473.6078 307.4183)" class="st4 st5">RAMPDEFI</text>
</svg>
