<?xml version="1.0" encoding="UTF-8"?>
<svg width="150px" height="26px" viewBox="0 0 150 26" version="1.1" xmlns="http://www.w3.org/2000/svg" xmlns:xlink="http://www.w3.org/1999/xlink">
    <title>nervos-logotype-white</title>
    <g id="Welcome" stroke="none" stroke-width="1" fill="none" fill-rule="evenodd">
        <g id="01-Nervos-Home" transform="translate(-40.000000, -31.000000)" fill="#FFFFFF" fill-rule="nonzero">
            <g id="nervos-logotype-white" transform="translate(40.000000, 31.000000)">
                <polygon id="type_PathItem_" points="17.7752163 1 17.7752163 15.0268276 0 1 0 25 4.86656827 25 4.86656827 10.9734632 22.6415094 25 22.6415094 1"></polygon>
                <polygon id="type_PathItem_2" points="27.3584906 25 27.3584906 1 47.1698113 1 47.1698113 5.40408594 32.4709557 5.40408594 32.4709557 10.4450543 47.1698113 10.4450543 47.1698113 14.8491403 32.4709557 14.8491403 32.4709557 20.5959141 47.1698113 20.5959141 47.1698113 25"></polygon>
                <polygon id="type_PathItem_3" points="83.7355356 25 73.5849057 1 79.5019348 1 86.8749794 19.6868298 94.2829226 1 100 1 89.849084 25"></polygon>
                <path d="M144.467438,7.59598053 C144.095878,6.51421455 143.382021,5.61062264 142.453107,5.0462645 C141.555359,4.52804416 140.308287,4.268934 138.711891,4.268934 C136.897305,4.268934 135.511721,4.51154988 134.555137,4.99678166 C133.595419,5.47931437 133.113761,6.18616931 133.113761,7.10954918 C133.064385,7.88148887 133.400735,8.62283267 133.99491,9.05167586 C134.58142,9.46733175 135.652631,9.80231561 137.208543,10.0566274 L141.908925,10.8555505 C144.699828,11.338683 146.746159,12.1873887 148.047917,13.4016677 C149.348199,14.6162467 149.998893,16.2863676 150,18.4120307 C150,20.8159973 149.056604,22.6813506 147.169811,24.0080906 C145.283296,25.3360302 142.591711,26 139.095059,26 C136.556742,26 134.451668,25.676812 132.779837,25.0304361 C131.105793,24.3844601 129.825984,23.4022006 128.940408,22.0836578 C128.05594,20.7659146 127.528634,19.0909953 127.358491,17.0588998 L132.507885,17.0588998 C132.72091,18.6783384 133.349748,19.8632276 134.3944,20.6135674 C135.439329,21.3627077 137.0064,21.7378776 139.095612,21.7390772 C140.969125,21.7390772 142.38422,21.4655721 143.330936,20.9227602 C144.280695,20.3826475 144.755713,19.576527 144.755713,18.514895 C144.781706,17.7134085 144.42511,16.9539033 143.81204,16.5049918 C143.183478,16.0188604 142.184197,15.6706811 140.821668,15.4646525 L136.982239,14.8753568 C133.870414,14.4138168 131.595013,13.5758074 130.156034,12.3613284 C128.717977,11.1500484 127.998395,9.44563927 127.997289,7.24810114 C127.975451,5.83946551 128.431233,4.47111663 129.278205,3.40253437 C130.129752,2.31571116 131.371198,1.47760173 133.002545,0.888206069 C134.892354,0.258139934 136.86296,-0.040246023 138.839706,0.0043524946 C141.951807,0.0043524946 144.360556,0.565258033 146.065955,1.68706911 C147.769601,2.80598119 148.888766,4.56727057 149.423449,6.97093723 L144.467438,7.59598053 Z" id="type_PathItem_4"></path>
                <path d="M125.471693,13.0017997 C125.471693,15.6122373 124.926075,17.894633 123.834842,19.8489868 C122.723381,21.8219813 121.076458,23.4034174 119.104035,24.3916821 C117.043591,25.4636922 114.590081,26.0000014 111.743507,26.0000014 C109.00846,26.0000014 106.621543,25.4861882 104.582756,24.4585703 C102.608229,23.4938295 100.950389,21.9381377 99.8181756,19.9875622 C98.6824843,18.0340083 98.1141616,15.7054208 98.1132075,13.0017997 C98.1132075,10.3877627 98.6600643,8.10536702 99.7537778,6.15461257 C100.865127,4.18163242 102.511956,2.60019144 104.484299,1.61191725 C106.545315,0.536307782 108.99892,-0.000997041229 111.845112,1.38889563e-06 C114.576439,1.38889563e-06 116.963356,0.514911572 119.005864,1.54472915 C120.97971,2.51069317 122.637269,4.06622607 123.770444,6.01603712 C124.905754,7.96969106 125.472836,10.2982786 125.471693,13.0017997 M119.981562,13.0017997 C119.981562,10.3202747 119.264314,8.24024313 117.829817,6.76170503 C116.396178,5.2805674 114.378666,4.54079844 111.77728,4.54239557 C109.198219,4.54239557 107.19082,5.28806607 105.755082,6.7794019 C104.32173,8.26773826 103.605721,10.3418709 103.607055,13.0017997 C103.607055,15.6833247 104.323065,17.7633562 105.755082,19.2418943 C107.188721,20.7191327 109.207378,21.4589016 111.811053,21.4612012 C114.390114,21.4612012 116.396369,20.7153333 117.829817,19.2235976 C119.263169,17.7322617 119.980418,15.6583291 119.981562,13.0017997" id="type_CompoundPathItem_"></path>
                <path d="M69.0575271,25 L64.179124,16.0234469 L57.6445581,16.0234469 L57.6445581,25 L52.8301887,25 L52.8301887,1 L63.8043638,1 C70.0378337,1 73.1544785,3.49867316 73.1542982,8.49601948 C73.1542982,10.1074194 72.8051387,11.4515613 72.1068198,12.5284452 C71.4085911,13.6059108 70.3397412,14.4460722 68.9002701,15.0489294 L74.5283019,25 L69.0575271,25 Z M63.4294141,11.8909811 C65.075838,11.8909811 66.2898704,11.6155804 67.0715114,11.0647788 C67.8530623,10.5171762 68.2437025,9.64938747 68.2437025,8.46141263 C68.2437025,7.2737286 67.8743437,6.42212852 67.1356262,5.90661238 C66.3954659,5.39012687 65.1814334,5.13304737 63.4935289,5.13535823 L57.644477,5.13535823 L57.644477,11.8909811 L63.4294141,11.8909811 Z" id="type_CompoundPathItem_2"></path>
            </g>
        </g>
    </g>
</svg>