<svg width="484" height="221" viewBox="0 0 484 221" fill="none" xmlns="http://www.w3.org/2000/svg">
<g clip-path="url(#clip0)">
<path d="M83.8802 101.052C57.4466 102.049 29.937 102.049 4.85464 112.577C-3.23643 116.627 3.23643 124.726 9.70929 126.346C49.3556 140.519 93.3386 137.328 132.58 150.894C135.38 151.866 138.163 152.919 140.914 154.069C148.067 156.313 152.112 164.412 145.639 170.081C127.839 184.659 103.566 180.61 81.7199 185.469C76.0561 187.089 67.1559 187.089 67.1559 191.139C66.3468 199.238 70.3923 213.006 79.2925 215.436C118.13 226.775 158.585 214.626 198.474 213.938C201.241 213.792 203.944 213.614 206.606 213.387C209.268 213.168 211.881 212.901 214.454 212.601C217.027 212.302 219.543 211.961 222.019 211.581C224.932 210.576 228.977 210.576 232.214 208.957C250.014 195.188 268.624 188.709 288.851 180.61C290.47 180.61 291.279 178.18 292.67 176.779C293.916 175.183 295.09 173.547 296.182 171.863C314.354 143.856 309.378 105.555 302.007 78.3506C301.538 76.6174 301.077 74.9085 300.705 73.2401C297.752 59.1234 316.361 52.6441 317.17 42.9252C317.17 21.0576 279.951 17.0081 265.387 0C268.624 14.5784 285.615 18.6279 292.897 30.7766C292.897 31.5865 291.279 32.3964 290.47 32.3964C273.478 25.1072 255.678 8.909 238.687 14.5784C233.832 17.0081 245.16 26.727 239.496 33.2063C228.168 46.1648 198.231 51.8342 207.091 73.0376C208.289 75.435 209.607 77.7999 210.983 80.1405C212.358 82.4812 213.782 84.7894 215.206 87.0896C223.484 100.477 232.036 114.319 227.691 130.671C225.846 137.636 222.019 143.897 217.52 148.967C216.016 150.659 214.438 152.214 212.836 153.632C205.513 158.742 191.758 169.271 186.095 159.552C182.858 153.883 187.713 145.784 185.577 138.486C185.14 135.465 184.42 132.428 183.125 129.553C182.025 127.091 180.35 124.443 177.834 121.778C152.921 102.049 118.939 102.859 88.6458 101.044C87.1004 101.028 85.5065 101.02 83.8802 101.052ZM182.575 215.217C144.83 210.576 78.4834 242.973 65.5377 191.139C90.62 175.75 126.221 191.139 146.448 167.651C151.303 161.982 146.448 156.313 141.141 153.988C138.56 152.87 135.93 151.858 133.503 150.643C90.62 134.445 37.2189 144.974 0 118.247C50.9738 91.5198 129.457 91.5198 179.598 123.131C181.167 125.058 182.486 127.131 183.489 129.383C184.8 132.299 185.528 135.36 185.965 138.405C186.904 146.594 182.858 156.313 187.713 161.172C194.186 166.841 206.322 159.552 212.569 153.324C214.163 151.923 215.724 150.384 217.213 148.707C221.679 143.678 225.466 137.474 227.294 130.574C231.591 114.384 223.459 101.239 214.85 87.3082C213.418 85 211.986 82.6756 210.603 80.3268C209.219 77.9781 207.9 75.605 206.695 73.1834C203.086 65.6027 204.704 57.5036 211.177 52.6441C227.359 42.1153 246.778 34.0162 237.068 12.9586C257.296 9.71891 273.478 26.727 292.088 31.5865C286.424 17.818 268.624 15.3883 264.578 0C279.951 16.1982 317.17 21.0576 317.17 42.9252C316.361 53.454 299.37 59.1234 301.117 73.1348C301.482 74.8032 301.927 76.5202 302.404 78.2535C309.799 105.531 314.775 143.961 296.53 172.09C295.429 173.782 294.248 175.434 292.994 177.038C290.47 180.61 287.233 183.849 283.188 184.659C267.815 187.899 254.869 191.949 242.732 202.477C236.259 207.337 229.787 211.386 222.092 211.978C219.616 212.358 217.084 212.698 214.511 213.006C211.938 213.306 209.316 213.573 206.646 213.792C203.976 214.01 201.265 214.197 198.498 214.334C195.998 214.464 193.458 214.577 190.844 214.699C188.215 214.837 185.488 215.007 182.575 215.217Z" fill="white"/>
<path opacity="0.9667" d="M239.787 43.8647C229.787 50.2144 211.177 58.3135 218.912 72.7866C220.045 75.0867 221.299 77.3382 222.602 79.5574C223.904 81.7846 225.264 83.9876 226.615 86.1744C234.479 98.9223 242.619 112.108 238.468 127.69C235.523 138.746 227.367 147.946 219.665 153.154C218.119 154.199 216.598 155.081 215.134 155.786C211.177 158.742 205.513 159.552 201.468 156.313C198.231 153.073 199.041 148.213 199 143.589C198.871 140.908 198.725 138.057 198.312 135.182C197.9 132.307 197.204 129.424 195.974 126.678C194.396 123.163 191.597 119.259 186.758 115.501C185.148 114.246 183.303 113.015 181.208 111.816C131.076 92.3297 71.2016 93.9495 20.2279 114.197C16.1823 115.817 19.4188 121.486 23.4643 123.106C36.41 127.156 48.5466 130.395 62.3014 132.825C88.3952 137.685 114.942 137.531 139.668 144.35C142.419 145.111 145.138 145.954 147.84 146.901C154.54 150.643 167.485 153.883 161.013 162.792C144.83 185.469 114.084 174.94 90.6202 182.23C88.1929 183.04 84.1473 183.849 84.9565 186.279C86.5747 198.428 93.0475 213.006 107.611 213.816C142.403 214.626 176.386 208.957 210.878 207.296C213.499 207.159 216.08 206.989 218.613 206.778C232.214 206.527 242.732 198.428 254.06 191.949C264.578 187.089 276.715 187.899 287.233 183.849C289.661 183.04 292.088 181.42 294.062 179.055C295.972 177.241 297.752 175.337 299.402 173.353C301.053 171.369 302.574 169.303 303.966 167.165C319.832 142.698 317.186 109.986 311.223 84.7327C310.681 82.4407 310.115 80.2053 309.524 78.0429C303.415 63.1729 322.025 55.0738 323.643 43.7351C326.88 21.8675 289.661 18.6279 275.906 3.23962C279.951 14.5784 291.279 18.6279 298.561 26.727C300.179 29.1567 302.606 29.9666 302.606 33.2063C284.806 30.7765 267.815 7.28917 253.251 18.6279C249.205 21.0576 257.296 35.636 245.694 40.2849C243.792 41.4755 241.826 42.666 239.787 43.8647ZM239.561 43.7513C254.06 38.8756 254.06 27.5369 250.823 15.3883C270.242 12.1486 284.806 29.9666 302.606 33.2063C302.606 29.9666 299.37 28.3468 297.752 25.9171C290.47 17.818 279.951 12.9585 275.097 3.23962C291.279 16.1982 321.216 21.0576 324.452 41.3054C326.88 53.454 303.415 61.5531 309.937 77.9457C310.528 80.1162 311.094 82.3516 311.636 84.6598C317.615 109.994 320.269 142.811 304.322 167.392C302.922 169.546 301.393 171.62 299.734 173.62C298.075 175.621 296.287 177.524 294.37 179.354C292.897 181.42 290.47 183.04 288.042 183.04C266.197 187.899 248.396 195.188 229.787 205.717C226.55 207.337 222.505 205.717 218.678 207.183C216.137 207.393 213.556 207.572 210.926 207.709C208.556 207.831 206.177 207.928 203.75 208.001C167.485 206.527 123.794 228.394 92.2384 204.907C85.7656 200.048 76.0563 184.659 93.0475 180.61C116.512 175.75 144.83 183.849 161.013 162.792C167.485 155.503 153.731 149.833 147.225 147.549C144.531 146.634 141.812 145.8 139.078 145.039C103.55 135.077 65.1333 136.721 28.3189 125.536C24.2734 124.726 20.2279 122.296 18.6096 119.057C16.1823 114.197 21.8461 111.767 25.0825 110.958C73.629 96.3792 125.412 93.1396 173.78 107.799C176.353 108.844 178.789 110.002 181.07 111.273C187.907 115.104 193.401 120.061 196.29 126.492C197.536 129.27 198.232 132.185 198.652 135.077C199.073 137.968 199.211 140.843 199.348 143.54C199.85 149.023 199.041 160.362 208.677 157.479C210.587 157.187 212.698 156.499 214.956 155.414C223.646 151.218 234.593 140.714 238.088 127.569C242.198 112.148 234.463 99.6189 226.283 86.3525C224.924 84.1496 223.557 81.9385 222.246 79.6951C220.935 77.4516 219.673 75.192 218.532 72.8837C211.986 61.5531 224.123 52.6441 232.53 47.7118C234.658 46.3835 237.044 45.0634 239.561 43.7513Z" fill="white"/>
<path opacity="0.9333" d="M251.309 44.7151C241.114 50.2144 224.932 58.3134 230.741 72.5598C231.793 74.7384 232.982 76.8766 234.22 78.9904C235.458 81.1043 236.745 83.202 238.031 85.2753C239.277 87.292 240.523 89.3249 241.696 91.374C250.823 109.338 248.396 136.065 231.38 148.918C229.908 149.922 228.451 150.765 227.068 151.429C222.682 153.543 218.839 154.085 216.234 152.951C212.277 151.226 212.018 145.954 211.711 139.847C211.46 134.761 211.169 128.994 208.831 123.787C206.322 118.231 200.61 111.646 188.028 106.398C185.512 105.345 182.721 104.349 179.63 103.425C134.312 93.1396 84.1471 93.9495 40.4553 113.387C36.4098 115.007 39.6462 119.867 42.8826 121.486C78.4833 135.255 115.702 131.205 152.921 139.304C155.349 140.114 157.776 140.924 160.252 141.775C167.485 144.974 182.049 148.213 178.004 156.312C170.722 173.321 146.448 173.321 128.648 174.94C119.748 175.75 104.375 174.94 104.375 180.61C108.42 233.254 177.194 195.188 214.057 200.979C217.124 200.93 220.199 200.825 223.249 200.623C233.832 198.428 243.541 195.188 253.251 190.329C264.578 185.469 277.524 187.089 289.66 183.04C292.088 182.23 293.706 179.8 296.514 178.723C311.506 165.221 291.279 149.023 290.469 133.635C290.469 131.205 292.897 128.776 294.515 127.966C306.652 123.106 325.261 118.247 321.944 102.121C321.58 99.2301 321.135 96.3792 320.625 93.585C320.123 90.7989 319.557 88.0695 318.95 85.4211C318.343 82.7727 317.704 80.2053 317.049 77.7432C315.552 72.0819 316.361 65.6026 319.597 59.9333C324.452 52.6441 337.398 46.9747 332.543 38.8756C323.643 21.8675 301.797 17.818 286.424 6.47925C292.897 18.6279 308.27 22.6774 313.124 35.636C296.133 34.8261 276.715 7.28916 267.005 22.6774C264.578 26.727 266.196 37.2558 257.207 41.2244C255.387 42.3825 253.388 43.5488 251.309 44.7151ZM251.171 44.5612C260.533 41.3054 270.242 32.3964 263.769 21.0576C263.769 20.2477 264.578 18.6279 265.387 17.818C283.188 15.3883 296.133 29.9666 311.506 35.636C308.27 21.0576 291.279 19.4378 286.424 6.47925C300.988 19.4378 330.925 22.6774 332.543 41.3054C333.352 53.454 313.124 62.363 317.477 77.6379C318.133 80.1162 318.78 82.6917 319.387 85.3482C319.994 88.0047 320.56 90.7422 321.062 93.5445C321.572 96.3468 322.017 99.2058 322.381 102.113C326.07 120.676 304.224 122.296 292.897 129.585C292.088 130.395 290.469 132.015 290.469 133.635C292.088 148.213 310.697 164.412 296.821 179.039C294.863 181.039 292.468 182.44 289.855 183.347C287.233 184.254 284.401 184.659 281.569 184.659C261.342 185.469 245.969 196.808 226.55 200.858C223.314 201.667 220.077 200.048 216.574 201.343C214.316 201.4 212.051 201.433 209.753 201.449C173.958 196.808 102.757 231.634 105.993 180.61C106.802 170.891 131.884 176.56 147.257 172.511C158.585 170.081 182.049 167.651 177.194 152.263C174.767 145.784 165.867 144.974 158.99 142.001C156.303 141.208 153.609 140.503 150.898 139.879C123.793 133.586 95.4746 134.712 67.1558 127.966C57.4466 125.536 36.4098 121.486 40.4553 117.437C73.6287 86.6603 128.648 94.7594 172.502 101.174C175.131 101.773 177.737 102.462 180.293 103.239C193.053 107.127 204.518 113.428 209.106 123.592C211.476 128.865 211.768 134.664 212.027 139.774C212.334 146.002 212.585 150.919 216.331 152.555C218.839 153.648 222.577 153.105 226.866 151.032C228.241 150.368 229.681 149.534 231.146 148.537C248.396 136.065 250.823 109.338 241.47 91.6493C240.281 89.5679 239.002 87.4864 237.708 85.3887C236.421 83.2992 235.127 81.1934 233.88 79.0633C232.634 76.9333 231.445 74.787 230.385 72.6003C224.932 62.363 236.259 52.6441 244.31 48.2706C246.341 47.0638 248.671 45.8246 251.171 44.5612Z" fill="white"/>
<path opacity="0.9" d="M262.547 45.5493C252.441 51.8342 237.068 59.9333 243.128 73.3373C243.93 75.0543 244.876 76.7389 245.847 78.4154C247.02 80.424 248.234 82.4002 249.431 84.3763C261.342 100.429 253.25 121.486 246.778 138.494C245.159 144.164 239.496 147.403 233.233 148.926C231.477 149.193 229.948 149.064 228.71 148.529C226.833 147.711 225.83 146.059 225.263 143.88C224.697 141.71 224.559 139.013 224.414 136.121C224.123 130.395 224.123 125.536 221.679 120.919C220.724 118.822 219.284 116.562 217.14 114.286C211.233 108.042 199.979 101.7 178.756 98.2582C176.83 97.9423 174.816 97.6589 172.72 97.3916C135.121 93.9495 95.4745 93.1395 60.6829 111.767C54.21 115.007 62.3011 119.867 67.1557 121.486C100.531 129.65 135.266 126.249 167.477 135.506C170.406 136.348 173.311 137.296 176.199 138.365C183.667 141.734 194.995 144.164 193.376 149.023C185.285 176.56 141.594 161.982 122.175 176.56C116.511 181.42 121.366 202.477 136.739 201.667C164.249 200.858 190.949 191.949 218.216 194.338C220.749 194.184 223.265 193.941 225.765 193.633C248.25 190.896 269.505 182.845 292.007 181.136C294.458 180.027 296.732 178.763 298.738 177.305C309.888 166.031 297.751 152.263 295.324 139.304C295.324 137.685 294.515 135.255 296.133 133.635C307.461 123.916 329.307 127.156 329.8 108.795C329.808 106.074 329.541 103.296 329.193 100.55C328.408 94.3787 327.251 88.4016 325.924 82.8456C325.479 80.9909 325.034 79.1848 324.654 77.4192C320.406 63.1729 338.207 54.2639 339.016 42.9252C340.634 25.1072 311.506 21.8675 298.56 10.5288C303.415 22.6774 320.406 22.6774 322.025 37.2558C306.652 34.8261 292.897 13.7684 281.569 23.4873C277.524 27.5369 276.715 38.8756 267.984 42.3015C266.269 43.3625 264.432 44.4478 262.547 45.5493ZM262.482 45.363C272.669 41.3053 281.569 33.2062 279.142 21.0576C294.515 20.2477 307.461 31.5864 321.215 38.0657C322.025 24.2972 301.797 21.8675 297.751 9.71887C311.506 21.8675 340.634 24.2972 339.825 42.9252C339.825 53.454 320.406 62.363 325.107 77.322C325.488 79.0957 325.933 80.9099 326.378 82.7727C327.713 88.353 328.87 94.3463 329.654 100.542C330.002 103.296 330.277 106.09 330.277 108.827C330.925 113.387 328.497 117.437 325.261 120.676C316.361 128.776 298.56 124.726 296.133 136.875C294.515 150.643 312.315 165.221 299.038 177.67C297.007 179.12 294.725 180.391 292.249 181.509C274.287 186.279 256.487 184.659 239.496 192.758C234.641 195.188 228.977 194.378 222.909 194.783C219.85 194.807 216.792 194.759 213.701 194.678C183.667 190.329 151.303 213.816 125.411 195.998C118.129 190.329 114.893 170.891 131.075 170.891C152.921 170.891 179.622 170.891 193.376 153.073C199.04 145.784 182.049 142.544 175.269 138.584C172.663 137.701 170.05 136.899 167.436 136.17C138.624 128.184 108.889 129.116 78.4832 123.916C71.2012 123.106 55.8282 119.057 59.8737 115.007C88.1925 88.2801 134.312 94.7594 172.647 96.9947C175.366 97.3268 178.19 97.7479 181.054 98.2582C195.375 100.809 210.683 105.774 218.556 115.355C219.907 116.999 221.04 118.773 221.906 120.701C224.932 125.536 223.313 131.205 224.697 136.016C224.843 138.972 224.98 141.605 225.514 143.702C226.056 145.8 227.003 147.347 228.783 148.116C251.632 148.213 252.441 121.486 255.678 104.478C256.487 97.1891 252.441 90.7098 249.108 84.4411C247.91 82.4568 246.689 80.4645 245.507 78.4478C244.528 76.7713 243.582 75.0705 242.772 73.3454C237.068 62.363 248.396 53.454 257.231 48.3759C258.914 47.3797 260.654 46.3754 262.482 45.363Z" fill="white"/>
<path opacity="0.8667" d="M273.284 46.8127C263.769 51.8342 249.205 60.7432 254.95 73.0214C255.694 74.6574 256.552 76.2529 257.474 77.8323C258.575 79.7275 259.723 81.5984 260.8 83.4773C264.578 89.09 267.005 96.3792 264.578 102.049C258.105 115.817 258.105 145.784 241.923 141.734C230.596 138.494 240.305 115.817 226.663 108.576C225.288 107.532 223.718 106.487 221.93 105.466C214.778 101.409 204.105 97.8532 188.247 95.869C183.967 95.3425 179.646 94.9781 175.35 94.7432C173.198 94.6298 171.053 94.5488 168.917 94.4921C139.976 96.3792 100.329 88.2801 80.1016 114.197C80.1016 115.007 85.7654 117.437 89.8109 118.247C118.13 123.106 144.83 121.486 171.693 129.181C173.602 129.658 175.431 130.136 177.251 130.614C196.289 135.692 211.023 141.143 210.756 147.622C210.7 148.983 209.971 150.214 208.709 151.348C186.904 162.792 161.821 162.792 138.357 170.081C132.694 171.701 135.93 182.23 139.166 187.899C140.785 191.139 145.639 191.949 148.876 191.949C172.34 191.949 194.995 184.659 218.524 187.186C221.752 187.389 225.013 187.535 228.29 187.624C234.835 187.802 241.462 187.745 248.056 187.389C262.936 186.595 276.205 184.36 287.621 180.723C289.903 179.994 292.112 179.217 294.248 178.374C314.743 170.891 295.324 149.833 300.988 137.685C307.461 123.916 331.734 131.205 337.163 114.748C337.406 112.164 337.374 109.516 337.204 106.859C336.686 98.898 335.391 91.131 333.773 84.0038C333.231 81.6307 332.665 79.3306 332.195 77.1034C327.688 63.1729 345.489 55.0738 347.107 44.545C349.534 26.727 322.025 23.4873 309.888 13.7684C313.934 23.4873 339.016 33.2063 328.498 37.2558C320.407 39.6855 305.843 19.4378 296.133 26.727C290.47 30.7765 288.042 41.3054 278.98 43.9943C277.111 44.9014 275.194 45.8408 273.284 46.8127ZM273.308 46.586C282.378 42.1153 289.66 34.0162 296.133 26.727C303.415 18.6279 318.788 33.2063 329.307 39.6855C335.78 27.5369 314.743 22.6774 309.079 14.5783C323.643 21.8675 350.344 27.5369 347.107 44.545C345.489 55.0738 330.116 63.1729 332.673 77.0224C333.134 79.2577 333.7 81.566 334.242 83.9552C335.869 91.1067 337.163 98.9061 337.681 106.892C337.851 109.556 337.899 112.221 337.665 114.829C337.398 118.247 334.97 120.676 332.543 123.106C322.834 131.205 305.843 126.346 301.797 137.685C296.133 150.643 314.743 170.891 294.499 178.763C292.363 179.605 290.146 180.391 287.856 181.12C276.407 184.773 263.097 187.024 248.186 187.826C244.14 188.045 240.086 188.15 236.049 188.166C233.152 188.174 230.264 188.134 227.383 188.045C224.503 187.956 221.647 187.826 218.807 187.648C193.377 183.849 169.103 194.378 144.021 191.139C134.312 190.329 132.694 173.321 139.166 170.891C161.012 161.982 186.904 162.792 208.386 151.372C209.64 150.271 210.368 149.08 210.433 147.768C210.554 143.192 202.479 139.013 190.779 135.133C187.859 134.161 184.703 133.214 181.394 132.274C148.876 121.486 115.702 123.916 81.7198 116.627C80.1016 115.817 78.4834 114.197 78.4834 113.387C78.4834 108.528 83.338 106.908 86.5745 105.288C113.275 94.7594 142.403 93.1396 170.398 94.1519C173.335 94.241 176.304 94.3949 179.266 94.6136C182.227 94.8323 185.197 95.1157 188.142 95.4802C199.146 96.8246 212.01 99.5378 221.72 104.924C223.662 106.001 225.474 107.183 227.125 108.471C237.878 115.817 235.45 127.966 237.878 139.304C238.687 143.354 243.541 144.974 245.16 142.544C258.105 127.966 271.86 102.858 260.484 83.5016C259.4 81.6145 258.251 79.7275 257.142 77.8242C256.22 76.2367 255.354 74.625 254.618 72.9809C249.205 62.363 260.533 54.2639 268.446 49.3235C269.942 48.4002 271.545 47.485 273.308 46.586Z" fill="white"/>
<path opacity="0.8333" d="M284.337 48.5216C275.097 52.6441 261.342 60.7432 266.698 72.7298C267.402 74.2687 268.235 75.767 269.101 77.2491C270.137 79.0309 271.213 80.7965 272.224 82.5621C285.615 97.999 267.006 111.767 259.724 124.726C258.105 129.585 257.296 136.065 252.442 138.494C249.205 139.304 248.396 136.065 248.396 134.445C245.16 119.867 244.351 103.668 227.594 99.7403C226.073 99.1734 224.447 98.6388 222.707 98.1205C217.488 96.5817 211.242 95.2777 203.774 94.3544C195.707 93.3744 187.495 92.9938 179.614 93.0343C177.316 93.0424 175.042 93.091 172.817 93.1638C170.584 93.2448 168.392 93.3501 166.239 93.4797C144.83 96.3792 122.175 95.5693 103.566 106.908C125.412 119.867 153.731 115.007 178.052 123.471C179.84 123.9 181.612 124.329 183.368 124.758C205.942 130.306 225.426 136.186 225.167 143.403C225.078 145.954 222.464 148.051 218.338 149.817C216.275 150.7 213.839 151.494 211.137 152.231C191.759 157.932 161.013 155.503 157.776 168.461C152.921 190.329 201.468 171.701 223.654 179.873C226.607 180.148 229.609 180.391 232.643 180.577C241.745 181.136 251.131 181.258 260.444 180.756C268.85 180.302 276.715 179.354 283.981 177.937C286.4 177.459 288.763 176.933 291.044 176.35C310.697 172.511 298.561 151.453 304.225 140.114C310.697 125.536 344.68 136.065 344.631 112.375C344.648 109.856 344.567 107.337 344.413 104.835C343.927 97.3349 342.714 90.0133 341.185 83.2991C340.675 81.0638 340.133 78.8932 339.712 76.7956C337.398 63.9828 351.153 55.8837 354.389 45.3549C359.244 29.9666 334.162 25.1072 322.025 17.818C328.498 24.2972 339.825 28.3468 340.634 38.0657C341.444 40.4954 338.207 42.9252 335.78 41.3053C328.498 34.0162 317.979 24.2972 309.888 29.1567C302.606 33.2062 299.37 42.9252 289.604 45.9704C287.913 46.8127 286.141 47.6631 284.337 48.5216ZM284.369 48.2787C292.897 43.7351 301.797 37.2558 308.27 29.9666C315.552 21.0576 330.925 40.4954 337.398 38.8756C347.916 35.636 326.07 24.2972 321.216 17.0081C333.352 24.2972 362.48 30.7765 354.389 46.9747C349.535 56.6936 338.207 64.7927 340.197 76.7227C340.618 78.8284 341.16 81.0071 341.678 83.2505C343.207 89.989 344.429 97.343 344.915 104.867C345.076 107.378 345.157 109.905 345.133 112.44C343.871 134.445 314.743 126.346 305.034 139.304C297.752 149.833 313.934 174.13 291.279 176.755C288.989 177.338 286.626 177.872 284.199 178.35C276.909 179.784 269.028 180.731 260.597 181.193C256.787 181.403 252.968 181.509 249.165 181.525C240.977 181.549 232.845 181.152 225.013 180.456C222.4 180.221 219.81 179.954 217.254 179.678C198.231 175.75 178.004 183.849 158.585 177.37C155.349 176.56 148.876 170.891 153.731 167.651C170.722 155.503 191.759 157.932 210.918 152.166C213.588 151.445 216.016 150.667 218.055 149.809C222.149 148.084 224.746 146.051 224.859 143.581C224.972 136.583 204.712 130.549 182.608 125.082C180.884 124.661 179.161 124.24 177.413 123.819C156.967 118.247 135.93 115.817 114.893 113.387C110.848 112.577 106.802 111.767 103.566 109.338C118.939 92.3296 148.876 96.3792 170.73 92.8723C173.335 92.7589 175.997 92.6779 178.708 92.6536C186.831 92.5807 195.319 92.9452 203.644 93.9576C209.171 94.6217 215.198 95.6584 221.008 97.2458C223.913 98.0395 226.761 98.9709 229.471 100.064C245.969 103.668 245.16 120.676 247.587 133.635C248.396 137.685 253.251 139.304 255.678 135.255C258.105 129.585 258.915 123.106 262.96 118.247C272.669 108.528 282.379 94.7594 271.909 82.5459C270.897 80.7641 269.821 78.9904 268.778 77.2005C267.912 75.7022 267.07 74.1958 266.375 72.6488C262.96 64.7927 269.433 57.5035 275.453 53.0733C277.969 51.4292 281.036 49.8418 284.369 48.2787Z" fill="white"/>
<path opacity="0.8" d="M294.491 50.3682C283.188 53.454 271.86 65.6026 280.72 76.6741C281.691 78.3425 282.694 80.0028 283.689 81.6469C296.943 97.1891 283.188 111.767 268.624 118.247C262.96 121.486 262.151 132.825 257.296 130.395C251.633 128.776 254.869 118.247 254.06 110.958C253.251 102.049 244.351 98.8089 237.036 96.3468C235.426 95.877 233.695 95.4235 231.842 94.9942C228.136 94.1438 223.977 93.4149 219.309 92.8399C211.744 91.9328 204.041 91.5845 196.646 91.6331C188.029 91.6817 179.824 92.281 172.769 93.1395C169.241 93.5688 165.98 94.0628 162.979 94.5569C153.731 96.3792 143.212 96.3792 135.93 103.668C151.303 113.387 169.104 112.577 185.286 118.052C187.786 118.644 190.302 119.243 192.802 119.842C200.303 121.64 207.674 123.454 214.268 125.333C217.197 126.168 219.98 127.018 222.553 127.868C228.978 129.585 237.878 132.015 238.687 138.494C239.496 144.164 231.405 145.784 226.477 147.452C223.953 148.14 221.202 148.756 218.33 149.331C215.457 149.906 212.464 150.433 209.478 150.927C198.231 154.693 184.477 151.453 174.767 161.172C188.522 170.081 207.132 166.841 222.27 171.336C224.827 171.733 227.456 172.098 230.135 172.43C243.525 174.09 258.275 174.916 272.839 174.114C275.469 173.968 278.042 173.774 280.558 173.531C283.074 173.288 285.51 172.98 287.8 172.575C295.324 171.701 303.415 166.841 304.225 158.742C304.225 152.263 299.37 143.354 305.843 139.304C320.407 129.585 343.871 137.685 351.217 118.749C351.63 115.809 351.8 112.853 351.816 109.888C351.889 100.024 350.376 90.2158 348.345 81.5497C347.941 79.8165 347.512 78.1319 347.132 76.4959C344.68 61.5531 364.098 55.0738 362.48 42.1152C360.862 29.9666 344.68 25.917 334.162 20.2477C339.016 25.1071 346.298 28.3468 349.535 35.636C351.962 39.6855 347.107 45.3549 344.68 42.1152C339.016 35.636 330.116 27.5369 322.834 31.5864C314.743 35.636 308.27 44.545 299.289 47.8899C297.727 48.7079 296.117 49.5421 294.491 50.3682ZM294.572 50.0766C306.652 46.1648 313.125 34.8261 324.452 30.7765C330.925 27.5369 339.016 35.636 344.68 42.1152C347.916 45.3549 350.344 39.6855 349.535 37.2558C347.916 29.1567 339.825 25.917 334.162 20.2477C345.489 25.1071 364.098 31.5864 362.48 45.3549C361.671 55.8837 346.298 63.1729 347.649 76.4311C348.03 78.0752 348.458 79.7679 348.863 81.5011C350.902 90.1996 352.415 100.056 352.334 109.961C352.31 112.934 352.14 115.914 351.727 118.862C350.344 126.346 343.871 129.585 338.207 132.015C326.88 136.065 313.125 131.205 305.034 141.734C300.988 145.784 305.034 153.073 305.034 158.742C305.034 167.651 296.133 171.701 288.034 173.021C285.728 173.418 283.277 173.726 280.752 173.969C278.228 174.211 275.655 174.414 273.017 174.56C269.441 174.762 265.857 174.859 262.289 174.876C249.488 174.924 236.826 173.879 225.361 172.251C222.497 171.847 219.697 171.401 216.978 170.948C203.086 166.031 184.477 170.891 173.958 160.362C184.477 153.073 197.422 153.073 209.405 150.878C212.367 150.392 215.336 149.866 218.184 149.299C221.032 148.732 223.759 148.116 226.259 147.444C232.214 145.784 241.114 143.354 237.878 136.875C235.45 131.205 227.359 130.395 221.712 128.192C219.115 127.326 216.315 126.475 213.386 125.641C206.792 123.762 199.502 121.956 192.26 120.207C189.841 119.624 187.43 119.049 185.051 118.474C169.104 114.197 147.258 115.817 138.357 103.668C134.312 97.1891 158.585 97.1891 168.303 93.3663C170.244 93.0828 172.291 92.8156 174.436 92.5726C187.292 91.1229 203.515 90.5721 219.147 92.443C221.744 92.7508 224.455 93.1476 227.197 93.6498C229.94 94.1519 232.716 94.7594 235.418 95.4964C255.678 97.1891 253.251 115.007 255.678 130.395C256.487 132.015 258.105 132.015 258.915 131.205C264.578 120.676 273.478 114.197 283.997 107.718C293.706 101.239 288.852 89.09 283.398 81.574C282.395 79.9218 281.383 78.2534 280.413 76.5769C274.288 68.8423 279.142 57.5035 288.439 53.3892C290.276 52.3039 292.306 51.2024 294.572 50.0766Z" fill="white"/>
<path opacity="0.7667" d="M304.686 51.9233C295.324 55.0739 285.615 65.6027 292.347 76.0991C293.245 77.6623 294.183 79.2011 295.114 80.7399C296.02 82.2302 296.926 83.7285 297.8 85.243C298.674 86.7576 299.515 88.2883 300.276 89.8352C303.415 96.3793 304.224 104.478 297.752 108.528C286.424 114.197 274.287 116.627 264.578 124.726C263.769 125.536 261.342 124.726 261.342 123.916C268.624 106.908 259.723 92.3297 241.001 92.2244C239.075 91.8924 237.028 91.5846 234.843 91.3173C227.78 90.475 220.579 90.1673 213.677 90.224C201.605 90.305 190.423 91.5522 182.381 93.0344C179.541 93.5608 176.984 94.1277 174.735 94.7352C172.486 95.3345 170.552 95.9743 168.934 96.6223C166.676 97.1892 163.44 98.809 164.249 100.429C166.676 108.528 176.385 106.908 183.837 110.326C186.758 111.12 189.881 111.921 193.126 112.723C196.37 113.525 199.728 114.327 203.118 115.145C206.241 115.89 209.381 116.643 212.48 117.396C215.587 118.15 218.653 118.911 221.631 119.672C231.405 123.106 250.014 123.106 248.396 135.255C247.587 144.164 233.832 144.164 225.943 145.913C223.152 146.375 220.368 146.804 217.698 147.209C215.028 147.622 212.407 148.027 209.963 148.432C207.52 148.837 205.262 149.25 203.321 149.696C201.468 150.643 198.231 150.643 198.231 151.453C199.04 158.742 207.132 157.122 213.006 159.698C214.721 160.168 216.533 160.646 218.451 161.107C228.023 163.432 240.014 165.562 252.976 166.76C255.565 167.003 258.202 167.206 260.856 167.36C276.715 168.461 304.224 170.081 301.797 146.594C301.797 144.164 303.415 141.734 305.034 140.114C322.025 129.586 356.007 142.544 358.516 115.688C358.831 112.942 358.985 110.172 359.009 107.41C359.066 100.04 358.176 92.6942 356.841 85.9072C356.177 82.5136 355.4 79.2578 354.632 76.2125C352.771 62.3631 370.571 56.6937 369.762 44.5451C369.762 32.3964 356.007 29.1568 346.298 23.4874C351.153 28.3469 356.816 31.5865 359.244 38.0658C360.053 42.1153 355.198 46.1649 353.58 43.7352C347.916 38.8757 341.443 29.9667 334.97 33.2063C326.879 37.2559 319.597 43.7352 311.587 48.2626C309.273 49.4693 306.943 50.7004 304.686 51.9233ZM304.88 51.5994C314.743 45.355 324.452 40.4955 334.161 33.2063C339.825 29.1568 348.725 36.446 351.962 42.9253C354.389 46.1649 359.244 43.7352 359.244 39.6856C358.435 31.5865 351.153 28.3469 346.298 23.4874C356.007 28.3469 377.044 36.446 369.762 50.2144C364.098 59.1234 353.58 64.7928 355.182 76.1396C355.943 79.193 356.719 82.465 357.383 85.8748C358.718 92.6942 359.608 100.072 359.543 107.483C359.519 110.261 359.365 113.047 359.041 115.801C356.816 138.495 328.498 134.445 311.506 137.685C308.27 138.495 305.034 140.114 305.034 142.544C304.224 164.412 284.806 170.891 266.471 168.097C263.518 168 260.581 167.838 257.685 167.627C243.202 166.574 229.698 164.298 219.066 161.755C216.938 161.245 214.923 160.727 213.038 160.208C207.131 157.932 199.85 158.742 197.422 153.073C196.613 150.643 200.659 151.453 202.835 149.801C204.737 149.347 206.986 148.934 209.502 148.513C212.01 148.092 214.786 147.663 217.715 147.217C220.368 146.812 223.128 146.383 225.895 145.93C233.832 143.354 250.014 144.164 248.396 133.635C246.778 123.106 230.596 123.916 220.822 120.012C217.885 119.251 214.875 118.506 211.865 117.761C208.847 117.024 205.829 116.295 202.859 115.574C199.291 114.716 195.812 113.873 192.487 113.047C189.161 112.221 185.99 111.395 183.044 110.585C175.576 108.528 166.676 107.718 163.44 100.429C161.821 97.9991 166.676 98.809 168.391 96.4198C170.018 95.7557 171.968 95.0996 174.257 94.4841C176.539 93.8605 179.153 93.2773 182.065 92.7347C194.728 90.3616 215.182 88.6284 234.641 90.9286C237.06 91.2121 239.585 91.5765 242.117 92.0382C262.151 91.5198 267.005 108.528 262.151 124.726C274.287 112.577 310.697 114.197 300.057 89.8514C299.305 88.3126 298.464 86.7738 297.582 85.243C296.7 83.7042 295.769 82.1735 294.831 80.6184C293.9 79.0715 292.954 77.5165 292.055 75.9453C287.233 69.6523 289.66 59.9333 296.708 56.6856C298.965 55.0577 301.676 53.3731 304.88 51.5994Z" fill="white"/>
<path opacity="0.7333" d="M316.11 52.8466C309.888 56.6937 297.752 63.9829 303.019 73.3859C303.95 75.5403 305.236 77.6947 306.523 79.8328C309.031 83.9877 311.588 88.2154 313.165 92.678C313.958 94.9052 314.5 97.1973 314.67 99.5622C310.698 117.437 285.615 116.627 270.242 118.247C272.669 112.577 280.761 107.718 277.524 102.859C270.242 89.9 253.251 89.9 240.475 88.9929C237.19 88.839 233.913 88.7823 230.701 88.8147C219.479 88.9119 209.098 90.0863 201.622 91.4874C191.079 93.4555 184.671 96.0958 184.493 98.6551C184.185 103.263 202.002 107.661 220.943 112.229C223.848 112.934 226.777 113.606 229.649 114.246C238.687 118.247 255.678 116.627 255.678 127.156C256.487 140.924 237.878 140.114 227.602 143.224C225.329 143.621 223.233 144.002 221.453 144.399C217.893 145.193 215.587 146.035 215.635 146.999C215.716 148.546 221.526 151.194 230.475 153.688C232.465 154.239 234.609 154.79 236.891 155.324C260.533 160.362 287.233 163.602 305.843 141.734C317.979 127.966 355.198 144.974 364.39 120.191C365.005 117.704 365.45 115.177 365.741 112.626C366.963 101.984 365.595 90.961 363.459 81.4283C363.031 79.5251 362.602 77.6785 362.278 75.9291C361.534 71.677 362.836 68.2106 364.997 65.0925C366.073 63.5293 367.367 62.0553 368.727 60.6137C372.19 56.6937 377.044 52.6442 378.679 46.9748C379.075 44.5451 378.517 42.4231 377.328 40.5198C373.759 34.8261 364.503 31.1816 358.435 27.537C362.48 31.5865 370.571 37.2559 366.526 44.5451C364.908 46.1649 361.671 46.9748 361.671 46.1649C351.962 25.9171 334.162 43.7352 322.268 49.3235C320.156 50.4655 318.109 51.6561 316.11 52.8466ZM316.24 52.4903C326.071 46.9748 336.589 40.4955 346.298 35.6361C352.771 33.2063 358.435 40.4955 362.48 45.355C364.099 47.7847 368.144 42.1153 367.335 38.8757C366.526 33.2063 360.862 31.5865 358.435 26.7271C363.29 30.5093 372.101 33.2063 376.713 37.9443C379.019 40.3173 380.281 43.1925 379.496 46.9667C377.044 54.264 369.762 58.3135 365.555 65.0763C364.503 66.6313 363.662 68.2754 363.16 70.0491C362.666 71.8309 362.513 73.7504 362.836 75.8643C363.16 77.6218 363.581 79.4684 364.01 81.3878C366.154 90.9691 367.521 102.049 366.283 112.748C365.984 115.315 365.539 117.858 364.916 120.353C363.29 127.156 357.626 132.015 351.962 134.445C334.971 140.114 312.316 128.776 303.416 144.164C287.233 168.461 257.296 159.552 236.13 155.64C234.156 155.171 232.279 154.685 230.531 154.199C221.186 151.607 215.579 148.999 215.482 147.29C215.425 146.213 217.537 145.346 221.016 144.545C222.756 144.14 224.843 143.751 227.181 143.346C237.878 140.114 261.342 139.304 254.869 125.536C250.824 117.437 238.687 116.627 229.042 114.643C226.251 114.011 223.427 113.347 220.66 112.675C200.748 107.839 183.611 103.539 183.943 98.6389C184.129 95.9014 190.464 93.2449 201.282 91.1958C209.13 89.7056 220.183 88.4746 232.052 88.4422C235.022 88.4341 238.032 88.4988 241.05 88.6527C254.06 91.5198 279.142 89.0901 277.524 106.908C276.715 110.958 271.051 114.197 271.051 119.057C285.615 115.007 309.888 118.247 314.347 99.3273C314.201 97.011 313.683 94.7757 312.914 92.5808C311.377 88.1992 308.853 83.9877 306.247 79.6627C304.953 77.5084 303.666 75.3459 302.655 73.1592C299.37 65.6027 305.843 60.7432 310.285 56.2806C312.008 55.0577 314.015 53.7942 316.24 52.4903Z" fill="white"/>
<path opacity="0.7" d="M326.952 53.8023C317.979 59.1234 309.079 68.8424 317.963 78.9257C319.678 81.809 321.426 84.7247 322.81 87.7375C324.185 90.7504 325.196 93.8686 325.431 97.1487C325.585 99.3354 325.399 101.595 324.751 103.944C317.979 117.437 298.561 117.437 286.424 115.007C291.279 110.958 300.179 104.478 292.897 97.9991C277.524 85.8505 258.105 88.2802 240.135 87.6728C237.667 87.8104 235.28 88.0048 233.007 88.2316C228.452 88.6851 224.325 89.2926 220.878 89.9405C211.145 91.779 205.222 94.2168 205.06 96.598C204.866 99.4812 212.124 102.275 222.181 105.086C224.697 105.79 227.383 106.487 230.159 107.159C241.923 110.958 258.914 109.338 262.96 119.057C267.815 132.825 245.16 133.635 234.641 141.734C249.205 149.833 268.624 153.883 283.997 147.404C290.47 144.974 295.324 138.495 303.415 136.875C326.07 132.015 356.007 145.784 369.495 123.284C370.409 121.106 371.146 118.846 371.712 116.554C372.287 114.254 372.691 111.913 372.966 109.557C373.241 107.192 373.371 104.81 373.395 102.437C375.426 90.7099 366.526 79.3712 371.38 68.0324C376.235 59.1234 389.181 52.6442 385.629 40.5765C384.706 39.1997 383.363 38.0091 381.794 36.9481C378.662 34.8262 374.617 33.2063 371.38 31.5865C372.999 34.8262 376.235 36.446 377.853 39.6856C379.471 44.5451 371.38 50.2144 370.571 47.7847C360.862 28.3469 344.68 46.9748 332.616 50.6113C330.65 51.6318 328.773 52.709 326.952 53.8023ZM327.227 53.4298C339.671 48.4893 353.612 34.8505 367.747 41.8319C369.77 42.8281 371.793 44.2454 373.816 46.173C375.839 48.1978 376.445 45.5656 375.936 41.8157C375.426 38.0658 373.808 33.2063 371.38 30.7766C372.999 31.9915 375.021 33.1577 377.085 34.3483C379.148 35.5389 381.243 36.7537 383.015 38.0658C385.944 40.4955 389.99 44.5451 386.753 46.9748C371.38 63.9829 369.762 81.8009 373.961 102.518C373.937 104.908 373.8 107.305 373.533 109.678C373.257 112.051 372.845 114.408 372.27 116.716C371.696 119.024 370.96 121.292 370.037 123.487C366.526 132.825 356.816 136.065 348.725 136.065C323.643 136.875 300.988 137.685 277.524 149.023C264.578 154.693 246.778 149.833 233.832 141.734C245.16 136.065 267.815 132.015 262.151 119.057C258.105 110.148 241.114 110.958 229.52 107.516C226.655 106.811 223.929 106.09 221.396 105.369C211.258 102.486 204.283 99.6594 204.486 96.5818C204.656 94.0305 210.505 91.5765 220.498 89.657C224.123 88.9605 228.484 88.3207 233.314 87.8428C235.725 87.608 238.258 87.4136 240.871 87.2678C259.724 87.4703 286.424 84.2306 295.324 103.668C296.942 106.908 289.66 110.958 287.233 115.007C300.179 116.627 317.17 116.627 324.379 103.563C325.027 101.239 325.229 99.0196 325.091 96.8733C324.784 92.0544 322.777 87.6161 320.277 83.1697C319.444 81.6875 318.554 80.2054 317.664 78.7071C311.506 71.2721 313.125 61.5532 321.984 56.9529C323.465 55.7947 325.221 54.6203 327.227 53.4298Z" fill="white"/>
<path opacity="0.6667" d="M338.555 54.5393C329.307 59.1234 323.643 68.8423 329.452 78.0105C330.423 79.7842 331.475 81.5579 332.438 83.364C335.327 88.7903 337.333 94.5083 335.537 100.971C335.027 102.81 334.259 104.551 333.32 106.171C328.498 114.197 315.552 118.247 311.506 113.387C307.461 110.148 315.552 98.8089 305.843 93.9495C285.615 83.4206 262.151 85.0405 240.127 88.3854C237.894 88.8146 235.887 89.2763 234.115 89.7622C228.816 91.2201 225.733 92.8885 225.62 94.5407C225.531 95.8852 227.149 97.2134 229.948 98.5336C245.969 106.908 265.387 104.478 279.951 115.007C269.433 121.486 252.442 123.916 251.632 134.445C250.823 140.114 266.196 140.924 273.478 138.494C300.988 129.585 328.498 139.304 356.816 135.255C363.289 134.445 370.571 131.205 373.953 124.912C375.151 123.05 376.162 121.106 377.004 119.105C377.659 117.542 378.209 115.947 378.67 114.319C379.132 112.691 379.496 111.039 379.779 109.37C382.708 97.999 379.471 86.6603 378.662 75.3216C378.662 72.8918 380.281 69.6522 381.09 67.2225C384.326 59.1234 398.89 53.454 393.056 42.0829C392.029 40.7789 390.767 39.5721 389.399 38.4869C388.032 37.4097 386.551 36.4459 385.135 35.636C385.944 37.2558 387.158 39.4831 387.757 41.7022C389.99 46.9747 382.708 51.8342 378.751 50.2063C377.465 48.5945 376.842 45.9623 375.725 43.9376C374.609 41.9128 372.999 40.4954 369.762 41.3054C360.053 42.9252 352.771 47.7846 343.935 51.7532C342.115 52.6522 340.303 53.5836 338.555 54.5393ZM338.927 54.1586C349.114 49.5178 363.176 37.4988 375.07 43.4597C377.457 44.6503 379.779 46.5536 382.109 49.3802C385.944 49.4044 386.753 43.7351 386.592 40.1715C386.406 38.4626 385.742 36.8509 384.326 35.636C385.944 35.8385 387.563 36.4945 389.019 37.4664C392.417 39.6855 395.654 43.7351 394.844 45.3549C381.09 67.2225 379.471 85.8504 380.353 109.516C380.062 111.201 379.698 112.861 379.229 114.497C378.768 116.133 378.209 117.745 377.554 119.316C376.704 121.333 375.693 123.292 374.487 125.163C369.762 132.015 361.671 135.255 353.58 136.065C326.07 138.494 298.561 129.585 271.86 139.304C264.578 141.734 250.823 140.114 251.632 135.255C252.442 125.536 268.624 121.486 279.142 116.627C269.433 105.288 247.587 108.528 234.156 100.712C232.271 100.064 230.612 99.3921 229.236 98.7117C226.494 97.3511 224.94 95.9661 225.029 94.5245C225.183 92.1677 230.555 89.908 239.706 88.1181C241.365 87.7942 243.202 87.4783 245.16 87.1948C267.006 85.0405 292.897 81.8008 309.888 97.999C314.743 102.858 308.27 110.148 309.888 112.577C315.552 119.867 327.689 112.577 332.964 105.726C333.903 104.114 334.663 102.389 335.173 100.566C336.969 94.16 335.1 88.6527 332.22 83.2101C331.257 81.3959 330.197 79.5898 329.177 77.7432C325.261 72.8918 326.07 65.6026 330.496 60.3706C332.454 58.3378 335.197 56.2644 338.927 54.1586Z" fill="white"/>
<path opacity="0.6333" d="M335.149 55.4221C332.81 63.7074 336.856 70.5188 340.772 77.1195C344.575 83.5259 348.515 90.1591 346.314 98.0071C345.384 101.344 343.507 104.357 341.314 106.803C339.113 109.249 336.565 111.12 334.186 112.14C331.532 113.12 329.185 113.282 327.745 112.691C325.569 111.784 325.933 109.297 326.038 106.252C325.925 103.62 325.755 100.607 324.46 97.918C322.268 93.3501 315.698 87.3649 296.967 85.251C294.434 84.9676 291.869 84.7813 289.321 84.6841C275.097 84.2306 258.105 82.6107 245.969 93.1396C245.969 93.1396 247.587 95.5693 249.205 96.3792C266.196 106.098 288.851 102.049 303.415 114.197C289.661 120.676 268.624 113.387 258.914 126.346C296.943 126.346 337.398 141.734 373.565 128.889C375.28 127.666 376.777 126.313 378.12 124.856C379.463 123.406 380.669 121.859 381.721 120.223C383.177 117.963 384.326 115.566 385.216 113.08C386.114 110.585 386.762 108.009 387.296 105.377C394.035 84.2306 383.517 64.7927 373.597 46.9666C371.769 43.5488 370.118 40.8923 368.921 39.1915C367.359 36.9723 366.485 36.2272 366.17 36.2596C365.701 36.3163 365.717 38.4707 365.725 40.544C365.725 44.6179 365.741 49.7041 363.346 50.4087C361.809 50.8542 360.239 49.0967 358.427 47.0719C356.234 44.626 353.523 41.605 349.988 41.4025C344.397 41.0705 337.422 47.7684 335.149 55.4221ZM334.963 54.9442C337.204 47.3311 344.17 40.706 349.842 40.7951C349.947 40.7951 350.044 40.8032 350.149 40.8032C353.799 41.0138 356.558 44.0833 358.791 46.5698C360.563 48.554 362.1 50.2791 363.524 49.8742C363.524 49.8742 363.556 49.9633 363.556 49.9714L363.532 49.8823C365.814 49.2425 365.83 44.0266 365.83 40.2444C365.83 37.3692 365.854 35.8871 366.453 35.798C367.076 35.7008 368.411 37.3854 369.422 38.827C370.636 40.5521 372.303 43.241 374.148 46.6912C385.135 63.9828 394.845 84.2306 387.911 105.515C387.36 108.163 386.713 110.763 385.807 113.274C384.917 115.777 383.76 118.19 382.287 120.466C381.227 122.118 380.014 123.681 378.662 125.147C377.303 126.613 375.798 127.982 374.067 129.213C351.962 139.304 327.689 132.825 305.034 130.395C291.279 128.776 278.333 129.585 265.387 129.585C262.96 129.585 258.105 127.966 259.724 126.346C270.242 111.767 288.851 121.486 302.606 113.387C284.806 102.049 260.533 106.908 245.16 92.3296C257.296 83.4206 275.097 85.0405 289.612 84.3277C291.958 84.4249 294.305 84.595 296.635 84.8461C307.081 85.9476 320.35 89.1143 324.355 97.5293C325.642 100.259 325.852 103.272 325.981 105.92C324.444 111.776 329.299 114.205 333.895 111.63C336.249 110.601 338.773 108.738 340.966 106.309C343.151 103.879 345.02 100.89 345.958 97.5779C348.159 89.8027 344.445 83.4854 340.513 76.8118C336.613 70.1624 332.511 63.2944 334.963 54.9442Z" fill="#2C74E0"/>
<path opacity="0.6" d="M347.22 56.6775C345.084 64.1368 348.701 70.2678 352.196 76.2125C355.586 81.9872 359.106 87.9643 357.108 95.0348C355.408 101.052 350.327 105.888 346.282 107.856C344.178 108.876 342.325 109.16 341.063 108.641C339.154 107.856 339 105.385 338.814 102.526C338.66 100.153 338.506 97.4483 337.333 95.0348C335.343 90.9448 329.404 85.5832 312.518 83.7204C307.946 83.2182 303.294 83.0967 298.828 83.1939C296.878 83.2263 294.968 83.3154 293.115 83.4369C291.262 83.5584 289.466 83.7204 287.743 83.9148C279.951 85.0405 271.051 85.0405 265.387 90.7099C282.378 106.098 309.888 97.1892 324.452 113.387C307.461 119.867 288.042 111.768 271.051 118.247C305.843 123.916 343.062 138.495 377.416 126.573C379.148 125.601 380.75 124.54 382.222 123.398C383.695 122.256 385.038 121.025 386.26 119.713C387.473 118.401 388.558 117 389.512 115.526C404.554 93.9495 401.317 68.0324 382.441 49.2668C380.556 46.1892 379.026 43.7756 377.934 42.2287C376.526 40.2282 375.725 39.5479 375.442 39.5722C375.013 39.6127 375.021 41.5484 375.021 43.4112C375.013 47.0558 375.021 51.6237 372.829 52.2392C371.437 52.6361 370.013 51.0486 368.37 49.2101C366.38 46.9991 363.92 44.2697 360.716 44.0834C355.635 43.7675 349.308 49.7852 347.22 56.6775ZM347.05 56.1673C349.114 49.3154 355.457 43.3707 360.611 43.4679C360.708 43.4679 360.797 43.476 360.886 43.476C364.195 43.6785 366.704 46.4402 368.734 48.6999C370.345 50.4898 371.736 52.0529 373.039 51.7047C375.126 51.1458 375.151 46.4645 375.167 43.0872C375.175 40.5036 375.199 39.1835 375.749 39.1106C376.316 39.0377 377.521 40.5522 378.444 41.8643C379.56 43.4436 381.114 45.8814 383.023 48.9915C389.181 58.3135 398.081 66.4126 400.508 77.7513C402.935 91.5198 395.653 103.668 390.087 115.777C389.132 117.267 388.04 118.684 386.81 120.012C385.588 121.341 384.229 122.58 382.748 123.738C381.268 124.896 379.649 125.965 377.91 126.945C343.062 139.304 305.843 123.916 270.242 119.057C288.042 111.768 306.652 119.867 324.452 113.387C322.834 110.148 319.597 109.338 316.361 107.718C300.179 100.429 275.096 106.098 267.815 89.9C266.196 85.8504 280.76 85.0405 287.783 83.5665C289.612 83.364 291.513 83.1939 293.479 83.0643C299.378 82.6756 305.826 82.6675 312.129 83.3235C321.555 84.2711 333.538 87.0815 337.163 94.6299C338.336 97.0758 338.522 99.7809 338.692 102.162C338.895 105.078 339.04 107.37 340.861 108.107C342.082 108.601 343.887 108.317 345.958 107.313C349.987 105.345 355.044 100.542 356.752 94.5651C358.758 87.5512 355.449 81.8576 351.946 75.8481C348.458 69.8628 344.785 63.6751 347.05 56.1673Z" fill="white"/>
<path opacity="0.5667" d="M359.284 57.9247C357.358 64.5497 360.538 70.0085 363.613 75.2972C365.11 77.8646 366.631 80.4806 367.553 83.2424C368.476 86.0042 368.799 88.9118 367.893 92.0623C367.124 94.7431 365.611 97.1567 363.831 99.1248C362.051 101.093 360.02 102.607 358.208 103.498C356.331 104.413 354.672 104.665 353.547 104.211C351.84 103.523 351.695 101.328 351.525 98.7927C351.379 96.6869 351.242 94.2896 350.182 92.1514C348.393 88.5392 343.078 83.8013 328.053 82.1977C323.983 81.7603 319.832 81.6793 315.859 81.7846C308.917 81.9385 302.509 82.797 297.889 83.7365C294.644 84.3925 292.031 85.1376 290.186 85.9313C288.851 87.4702 285.615 88.2801 287.233 89.09C296.133 96.3792 306.652 97.1891 317.397 99.5702C319.808 100.202 322.17 100.834 324.403 101.473C328.878 102.745 332.859 104.041 335.739 105.393C338.619 106.738 340.399 108.139 340.48 109.629C329.307 120.676 310.697 110.958 296.942 115.817C321.216 123.106 346.298 129.585 371.461 126.095C373.298 125.714 375.062 125.269 376.745 124.766C378.428 124.264 380.038 123.697 381.559 123.074C385.078 121.648 388.161 119.907 390.791 117.866C393.42 115.817 395.589 113.468 397.336 110.82C423.163 87.4702 411.026 59.1233 384.326 44.545C383.517 44.545 386.753 51.8341 382.708 54.2639C381.089 54.2639 379.471 52.6441 378.46 51.332C376.534 49.3639 374.309 46.9342 371.437 46.756C366.865 46.4644 361.194 51.8017 359.284 57.9247ZM359.13 57.3901C361.016 51.2915 366.728 46.0271 371.364 46.1324C371.445 46.1324 371.534 46.1405 371.615 46.1405C374.584 46.3268 376.858 48.797 378.824 50.8056C380.28 51.0242 381.899 55.8837 384.326 52.6441C385.944 49.4044 383.517 45.3549 385.135 42.1152C409.408 60.7432 424.781 86.6602 397.927 111.079C396.171 113.76 393.979 116.133 391.333 118.198C388.687 120.263 385.58 122.029 382.044 123.479C380.507 124.11 378.897 124.677 377.206 125.188C375.515 125.698 373.743 126.151 371.898 126.54C346.298 131.205 321.216 123.106 296.942 115.817C311.506 111.767 327.688 119.867 340.327 110.115C340.108 108.682 338.174 107.281 335.189 105.92C332.203 104.559 328.15 103.231 323.683 101.943C321.45 101.295 319.112 100.655 316.749 100.024C306.652 95.5693 294.515 97.1891 286.424 89.8999C284.806 88.2801 288.042 87.4702 289.523 85.8018C291.384 84.9837 294.03 84.2143 297.363 83.5097C304.645 81.979 316.393 80.6993 327.624 81.8089C336.022 82.6107 346.711 85.0647 349.963 91.7384C351.015 93.9008 351.193 96.2982 351.347 98.4039C351.533 100.988 351.678 103.02 353.305 103.668C354.397 104.098 356.007 103.847 357.852 102.948C359.656 102.065 361.687 100.55 363.459 98.5983C365.231 96.6383 366.752 94.241 367.521 91.5764C368.427 88.4501 368.16 85.6236 367.27 82.9023C366.388 80.181 364.883 77.5812 363.346 74.9004C360.304 69.5631 357.067 64.0557 359.13 57.3901Z" fill="white"/>
<path opacity="0.5333" d="M371.372 59.172C369.762 61.5532 370.571 64.7928 372.189 67.2225C376.235 76.1315 385.135 86.6604 375.167 95.2859C373.524 97.0272 371.728 98.3636 370.134 99.1411C368.484 99.9429 367.027 100.178 366.032 99.7809C364.527 99.1816 364.398 97.2702 364.236 95.0672C364.098 93.2368 363.977 91.1392 363.03 89.2845C361.444 86.1501 356.76 82.0277 343.587 80.6832C340.011 80.3188 336.378 80.2702 332.891 80.3836C326.807 80.5536 321.191 81.3393 317.146 82.1897C311.466 83.3802 307.995 84.8381 307.906 86.304C307.728 89.2197 317.486 91.9896 327.939 94.7595C340.788 98.1935 354.607 101.482 354.907 105.402C355.166 108.747 345.068 110.277 337.195 111.476C331.936 112.278 326.976 113.031 327.098 114.052C327.195 114.87 330.375 116.295 335.246 117.583C344.016 119.907 358.184 121.972 371.963 121.025C379.423 120.515 385.912 119.13 391.268 116.935C394.351 115.671 397.061 114.132 399.416 112.326C408.599 100.429 428.827 91.5198 427.209 76.1315C424.781 61.5532 405.363 57.5036 394.844 46.1649C394.035 49.4045 397.272 54.264 394.844 55.0739C389.181 55.8838 382.708 46.1649 375.927 52.1987C373.929 53.9967 372.238 56.4993 371.372 59.172ZM371.235 58.6051C372.998 53.4541 377.044 48.5946 382.708 48.5946C387.562 49.4045 390.799 55.8838 394.844 54.264C397.272 53.4541 394.844 48.5946 394.844 45.355C405.363 57.5036 429.636 62.3631 428.018 78.5613C426.4 92.3297 410.217 101.239 399.974 112.667C397.603 114.497 394.877 116.06 391.77 117.34C386.381 119.567 379.852 120.992 372.351 121.527C370.652 121.657 368.953 121.729 367.254 121.77C355.101 122.013 343.183 120.223 335.432 118.198C330.326 116.862 327.252 115.453 327.13 114.562C326.985 113.436 331.516 112.748 337.276 111.873C345.068 110.69 354.818 109.176 354.769 105.928C354.001 102.162 339.825 98.6146 327.494 95.2454C316.466 92.2325 307.032 89.4627 307.218 86.2959C307.315 84.7166 310.754 83.2425 316.579 81.971C322.971 80.5779 333.263 79.3955 343.126 80.2864C350.505 80.9505 359.891 83.0401 362.771 88.839C363.71 90.718 363.872 92.8076 364.017 94.638C364.195 96.8895 364.325 98.6632 365.757 99.2221C366.72 99.5946 368.144 99.3597 369.762 98.5741C371.356 97.7885 373.152 96.4603 374.795 94.7271C384.326 85.8505 375.426 75.3216 371.453 66.688C370.579 64.1773 370.304 61.5127 371.235 58.6051Z" fill="white"/>
<path opacity="0.5" d="M384.852 60.3059C385.135 61.5532 384.326 63.173 384.326 63.9829C394.845 75.3216 398.081 97.1892 379.472 93.1396C376.235 93.1396 375.426 80.991 366.324 80.3755C364.325 79.8571 361.946 79.436 359.114 79.1606C356.04 78.869 352.909 78.8528 349.915 78.9743C344.688 79.1525 339.866 79.8814 336.387 80.6346C331.516 81.6956 328.538 82.9591 328.457 84.2387C328.304 86.8709 336.718 89.3735 345.756 91.8438C356.873 94.9133 368.937 97.7966 369.309 101.174C369.625 104.033 360.959 105.353 354.252 106.365C349.769 107.046 345.538 107.686 345.667 108.552C345.772 109.241 348.507 110.464 352.706 111.565C360.288 113.541 372.497 115.25 384.35 114.392C387.563 114.157 390.564 113.736 393.34 113.136C411.836 106.908 436.109 95.5694 439.345 76.1315C441.773 63.173 418.309 59.1234 406.981 49.4045C406.981 51.8342 411.027 55.8838 408.599 56.6937C402.936 58.3135 395.654 48.5946 388.792 54.345C386.988 55.8838 385.516 58.0219 384.852 60.3059ZM384.626 59.7066C388.372 46.1649 399.699 54.264 409.408 55.8838C408.599 53.4541 407.79 51.0243 406.981 48.5946C418.309 59.1234 443.391 63.173 440.964 76.1315C436.918 94.7594 413.454 106.908 393.817 113.598C391.026 114.222 387.999 114.659 384.771 114.902C383.307 115.015 381.842 115.096 380.37 115.137C369.9 115.396 359.616 113.922 352.909 112.205C348.515 111.079 345.853 109.872 345.732 109.111C345.578 108.155 349.437 107.572 354.349 106.827C360.983 105.823 369.285 104.527 369.188 101.749C368.322 98.5174 355.983 95.375 345.287 92.3459C335.739 89.6408 327.592 87.122 327.753 84.2387C327.834 82.8457 330.788 81.5741 335.78 80.4402C341.274 79.193 350.117 78.0834 358.605 78.7718C360.19 78.9014 361.89 79.1039 363.581 79.4198C365.28 79.7275 366.963 80.1487 368.581 80.6994C377.044 81.8009 375.426 91.5198 379.472 93.9495C385.135 96.3793 392.417 88.2802 393.226 81.8009C394.035 76.1315 388.372 71.2721 385.362 66.607C384.334 64.4607 383.897 62.193 384.626 59.7066Z" fill="white"/>
<path opacity="0.4667" d="M401.73 61.4074C401.317 70.4621 415.881 72.082 412.645 80.1811C409.408 86.6603 400.508 92.3297 392.417 89.9C394.035 86.6603 394.035 83.4207 391.608 81.8009C384.326 76.9414 375.426 77.7513 366.946 77.5732C364.754 77.6703 362.658 77.8809 360.74 78.1563C358.823 78.4317 357.091 78.7556 355.635 79.0958C351.581 80.0272 349.081 81.0882 349.025 82.1896C348.895 84.5384 355.967 86.7656 363.589 88.9443C365.935 89.6246 368.346 90.2806 370.66 90.9367C375.426 93.1396 381.899 91.5198 383.517 97.1892C384.326 98.809 381.09 99.6189 379.86 99.6675C377.295 100.356 374.099 100.85 371.324 101.263C367.61 101.83 364.114 102.348 364.244 103.061C364.349 103.628 366.647 104.648 370.167 105.547C371.761 105.952 373.605 106.341 375.62 106.689C377.635 107.03 379.827 107.329 382.125 107.556C407.79 109.338 449.864 97.9991 450.673 72.8919C451.482 63.173 432.063 59.1234 420.736 52.6441C421.545 55.0739 424.781 55.8838 424.781 59.1234C417.499 59.1234 411.026 51.0243 404.546 56.4831C403.081 57.7466 401.997 59.5122 401.73 61.4074ZM401.285 60.7837C405.363 49.4045 417.499 55.8838 424.781 59.1234C425.59 55.8838 421.545 55.0739 420.736 51.8342C432.063 59.1234 452.291 63.173 451.482 72.8919C449.864 97.9991 407.79 110.958 380.782 107.985C378.8 107.767 376.915 107.499 375.167 107.2C373.419 106.9 371.817 106.56 370.401 106.203C366.712 105.288 364.479 104.284 364.349 103.652C364.195 102.867 367.375 102.389 371.437 101.773C374.172 101.36 377.262 100.882 379.73 100.218C381.09 99.6189 382.708 98.809 384.326 97.1892C380.28 93.9495 374.617 92.3297 370.005 91.4631C367.723 90.7909 365.369 90.1106 363.103 89.4383C355.036 87.041 348.175 84.7733 348.313 82.1815C348.377 80.9829 350.853 79.9057 355.012 78.9014C357.31 78.3426 360.312 77.808 363.621 77.476C373.808 76.1315 389.181 76.9414 394.844 89.0901C396.463 92.3297 409.408 85.8504 411.836 79.3712C414.263 73.7018 406.172 70.4621 403.211 66.4855C401.803 64.7118 400.969 62.8328 401.285 60.7837Z" fill="white"/>
<path opacity="0.4333" d="M422.71 62.7923C426.4 68.0324 433.682 70.4622 434.491 75.3216C436.109 83.4207 422.354 86.6603 415.072 85.0405C412.645 85.0405 415.881 80.991 415.072 80.991C401.317 72.8919 383.517 74.5117 369.762 80.1811C378.662 89.0901 393.226 84.2306 402.936 92.3297C397.272 97.1892 389.181 93.9495 383.517 97.9991C410.218 105.288 455.528 101.239 460.382 71.2721C461.191 64.7928 445.009 60.7432 435.3 56.6937C436.918 58.3135 440.155 58.3135 440.155 61.5532C436.109 59.9333 432.064 59.1234 427.63 57.4874C423.875 57.1958 421.836 59.739 422.71 62.7923ZM421.747 62.1039C422.354 51.0243 433.682 60.7432 440.155 59.9333C437.727 59.9333 437.727 56.6937 435.3 55.8838C444.2 59.9333 453.909 63.173 462 69.6523C465.237 72.082 463.619 76.9414 461.191 79.3712C440.964 98.809 410.218 107.718 383.517 97.9991C389.181 95.5694 396.463 97.9991 402.127 93.1396C392.417 85.8504 377.853 89.0901 368.953 80.1811C379.472 73.7018 394.035 76.1315 406.172 76.1315C412.645 76.1315 415.072 80.1811 414.263 85.8504C421.545 85.0405 431.254 83.4207 434.491 76.1315C436.109 72.082 428.827 70.4622 425.243 66.7609C423.487 65.2949 422.128 63.7561 421.747 62.1039Z" fill="white"/>
<path opacity="0.4" d="M443.132 64.2339C445.818 68.0324 450.673 68.8423 452.291 72.082C455.527 78.5612 445.009 82.6108 440.154 80.991C439.345 80.991 440.154 79.3712 440.963 77.7513C426.399 72.8919 411.026 73.7018 396.462 76.9414C404.554 85.8504 417.499 81.8009 427.209 87.4702C421.545 92.3297 414.263 89.0901 407.79 91.5198C428.827 98.809 461.191 94.7594 469.282 72.8919C471.71 65.6027 457.146 63.9829 450.673 59.1234C450.673 61.5531 454.718 61.5531 453.909 62.3631C451.482 63.9829 448.245 60.7432 444.782 60.2978C442.145 60.1115 441.611 61.9986 443.132 64.2339ZM442.007 63.5455C440.963 62.3631 440.963 60.7432 441.773 59.9333C445.818 58.3135 449.864 61.5531 453.909 62.3631C453.909 59.9333 451.482 60.7432 450.673 59.1234C457.955 62.3631 477.373 67.2225 468.473 78.5612C453.1 95.5693 428.018 99.6189 407.79 92.3297C413.454 89.9 420.736 93.1396 426.399 88.2802C415.881 83.4207 403.744 85.0405 394.035 77.7513C408.599 73.7018 425.59 70.4621 440.154 76.9414C440.154 77.7513 440.154 80.1811 440.154 80.1811C445.009 81.8009 452.291 79.3712 453.1 73.7018C453.1 69.6522 448.245 69.6522 445.535 66.9066C444.095 65.8538 442.784 64.7442 442.007 63.5455Z" fill="white"/>
<path opacity="0.3667" d="M459.395 64.898C460.382 68.0324 464.428 68.0324 466.046 70.4621C467.664 74.5117 462.81 76.1315 460.382 76.9414C460.382 76.1315 460.382 74.5117 460.382 73.7017C452.291 72.0819 442.582 71.272 435.3 76.9414C440.964 80.181 447.436 80.181 452.291 84.2306C448.246 86.6603 444.2 85.0405 440.155 86.6603C453.1 90.7098 476.564 85.8504 476.564 70.4621C476.564 65.6026 468.473 64.7927 464.428 61.5531C465.237 62.363 466.046 63.1729 466.855 63.9828C464.428 63.1729 462.81 62.363 460.188 62.3468C458.457 62.282 458.327 63.4888 459.395 64.898ZM458.327 64.242C458.764 59.1234 463.619 64.7927 466.046 63.1729C465.237 62.363 465.237 62.363 464.428 61.5531C469.282 63.1729 477.373 64.7927 477.373 70.4621C476.564 85.8504 453.1 90.7098 439.345 87.4702C442.582 85.8504 447.436 86.6603 450.673 85.0405C446.627 79.3711 437.727 81.8008 433.682 76.1315C441.773 73.7017 453.1 68.8423 461.191 75.3216C464.428 77.7513 467.664 70.4621 463.36 68.2106C461.693 66.9957 459.468 65.7403 458.327 64.242Z" fill="white"/>
<path opacity="0.3333" d="M472.753 64.9871C474.137 65.6026 477.373 71.272 474.137 70.4621C470.9 69.6522 466.046 70.4621 465.237 72.8918C464.428 75.3215 468.473 76.9414 470.9 78.5612C470.091 78.5612 468.473 79.3711 467.664 80.181C474.137 80.181 486.273 76.9414 483.037 68.8423C482.228 65.6026 478.182 63.1729 474.007 63.7236C472.907 63.675 472.535 64.2744 472.753 64.9871ZM471.847 64.3311C476.564 63.1729 483.037 63.9828 483.846 68.8423C485.464 77.7513 474.137 80.9909 466.855 80.9909C467.664 80.181 469.282 79.3711 470.091 79.3711C466.855 77.7513 463.618 76.1315 464.428 72.8918C465.237 68.0324 471.709 72.0819 474.946 68.8423C474.946 68.0324 474.137 67.2224 473.829 66.3477C473.085 65.716 472.138 65.0519 471.847 64.3311Z" fill="white"/>
<path opacity="0.3" d="M455.794 67.9514C453.618 67.9514 451.854 69.7251 451.854 71.8956C451.854 74.0662 453.626 75.8399 455.794 75.8399C457.963 75.8399 459.735 74.0662 459.735 71.8956C459.735 69.7251 457.971 67.9514 455.794 67.9514ZM455.794 76.6498C453.173 76.6498 451.045 74.5198 451.045 71.8956C451.045 69.2715 453.173 67.1415 455.794 67.1415C458.416 67.1415 460.544 69.2715 460.544 71.8956C460.544 74.5198 458.416 76.6498 455.794 76.6498Z" fill="white"/>
<path d="M305.52 190.128C305.52 190.736 305.588 191.176 305.724 191.448C305.86 191.712 306.076 191.844 306.372 191.844C306.676 191.844 306.944 191.62 307.176 191.172C307.408 190.716 307.524 190.08 307.524 189.264C307.524 188.44 307.4 187.808 307.152 187.368C306.912 186.928 306.628 186.708 306.3 186.708C305.972 186.708 305.712 186.896 305.52 187.272V190.128ZM308.34 191.58C308.044 191.772 307.756 191.908 307.476 191.988C307.196 192.068 306.92 192.108 306.648 192.108C306.384 192.108 306.14 192.06 305.916 191.964C305.692 191.86 305.512 191.752 305.376 191.64C305.248 191.52 305.104 191.412 304.944 191.316C304.784 191.212 304.632 191.16 304.488 191.16C304.344 191.16 304.216 191.24 304.104 191.4C304 191.56 303.948 191.76 303.948 192H303.72V184.2H303.12V183.96H305.52V186.912C305.648 186.696 305.856 186.528 306.144 186.408C306.44 186.28 306.748 186.216 307.068 186.216C307.676 186.216 308.204 186.484 308.652 187.02C309.108 187.548 309.336 188.288 309.336 189.24C309.336 189.8 309.244 190.28 309.06 190.68C308.876 191.08 308.636 191.38 308.34 191.58Z" fill="white"/>
<path d="M467.36 96.24C467.36 95.296 467.636 94.58 468.188 94.092C468.74 93.604 469.44 93.36 470.288 93.36C471.144 93.36 471.78 93.576 472.196 94.008C472.612 94.432 472.76 94.872 472.64 95.328C472.576 95.576 472.44 95.76 472.232 95.88C472.032 95.992 471.812 96.02 471.572 95.964C471.068 95.844 470.816 95.552 470.816 95.088C470.816 94.968 470.828 94.788 470.852 94.548C470.884 94.3 470.896 94.12 470.888 94.008C470.88 93.896 470.856 93.808 470.816 93.744C470.736 93.608 470.548 93.556 470.252 93.588C469.532 93.7 469.172 94.584 469.172 96.24C469.172 97.888 469.76 98.712 470.936 98.712C471.208 98.712 471.484 98.64 471.764 98.496C472.044 98.352 472.252 98.18 472.388 97.98L472.556 98.1C472.372 98.404 472.096 98.648 471.728 98.832C471.36 99.016 470.948 99.108 470.492 99.108C468.404 99.108 467.36 98.152 467.36 96.24Z" fill="#2C74E0"/>
<path d="M231.3 11.76C231.22 11.84 231.068 11.912 230.844 11.976C230.62 12.032 230.36 12.06 230.064 12.06C229.408 12.06 228.996 11.864 228.828 11.472C228.428 11.888 227.816 12.096 226.992 12.096C226.552 12.096 226.188 11.996 225.9 11.796C225.62 11.588 225.48 11.284 225.48 10.884C225.48 10.348 225.688 9.936 226.104 9.648C226.52 9.352 227.248 9.144 228.288 9.024L228.768 8.964V8.376C228.768 7.68 228.716 7.212 228.612 6.972C228.508 6.732 228.3 6.612 227.988 6.612C227.684 6.612 227.488 6.656 227.4 6.744C227.312 6.824 227.28 6.92 227.304 7.032C227.328 7.136 227.368 7.276 227.424 7.452C227.48 7.628 227.508 7.768 227.508 7.872C227.508 8.12 227.42 8.332 227.244 8.508C227.076 8.676 226.868 8.76 226.62 8.76C226.38 8.76 226.172 8.676 225.996 8.508C225.82 8.332 225.732 8.12 225.732 7.872C225.732 7.464 225.94 7.116 226.356 6.828C226.78 6.532 227.408 6.384 228.24 6.384C229.08 6.384 229.676 6.548 230.028 6.876C230.388 7.204 230.568 7.784 230.568 8.616V10.776C230.568 11.2 230.62 11.468 230.724 11.58C230.828 11.684 231.02 11.704 231.3 11.64V11.76ZM227.148 10.644C227.188 10.948 227.3 11.184 227.484 11.352C227.668 11.512 227.88 11.592 228.12 11.592C228.368 11.592 228.584 11.472 228.768 11.232V9.192L228.336 9.252C227.968 9.3 227.668 9.44 227.436 9.672C227.212 9.904 227.116 10.228 227.148 10.644Z" fill="#2C74E0"/>
<path d="M235.5 10.5L463 93.5" stroke="#2C74E0" stroke-linecap="square" stroke-dasharray="2 3"/>
</g>
<defs>
<clipPath id="clip0">
<rect width="484" height="221" fill="white"/>
</clipPath>
</defs>
</svg>
