<svg width="432" height="126" viewBox="0 0 432 126" fill="none" xmlns="http://www.w3.org/2000/svg">
<g clip-path="url(#clip0)">
<path d="M0.600078 122.43C59.0001 125.75 117 118.75 175.22 116.46C176.79 116.41 178.37 116.36 179.94 116.31C206.72 115.48 233.68 115.33 261 117.75C297 120.75 332 121.75 366.9 121.75C367.88 121.75 368.85 121.75 369.81 121.75C407.34 121.75 432 121.75 432 121.75V123.75C432 123.75 407.34 123.75 369.81 123.75C368.85 123.75 367.88 123.75 366.9 123.75C302.98 122.95 239.64 117.03 175.8 118.03C174.2 118.05 172.61 118.08 171.01 118.12C114 122.75 58.0001 127.75 0.580078 124.41L0.600078 122.43Z" fill="#1D1D1D"/>
<path d="M0.480469 82.26C56.0005 85.75 111 80.75 167.42 78.63C169.02 78.62 170.62 78.62 172.22 78.61C225.04 78.5 278 80.88 330.81 81.75C332.03 81.75 333.24 81.75 334.45 81.75C391.09 81.75 432 81.75 432 81.75V83.75C432 83.75 391.09 83.75 334.45 83.75C333.24 83.75 332.03 83.75 330.81 83.75C278 82.88 225.05 80.5 172.23 80.67C170.63 80.67 169.03 80.68 167.43 80.69C112 82.75 56.0005 87.75 0.500469 84.29L0.480469 82.26Z" fill="#1D1D1D"/>
<path d="M0.129883 53.87C49.9999 55.75 98.9999 54.75 148.84 51.37C150.46 51.34 152.09 51.32 153.71 51.29C204.08 50.64 254.85 53.01 305.17 53.75C306.4 53.75 307.62 53.75 308.84 53.75C378.34 53.75 432 53.75 432 53.75V55.75C432 55.75 377.93 55.75 308.05 55.75C306.85 55.75 305.64 55.75 304.42 55.75C255.55 54.32 207.4 53.4 159.02 53.83C157.41 53.84 155.79 53.86 154.18 53.88C103 55.75 50.9999 58.75 0.149883 55.89L0.129883 53.87Z" fill="#1D1D1D"/>
<path d="M0 25.75C41 24.75 83 27.75 123.62 25.15C125.18 25.11 126.74 25.08 128.3 25.05C187.55 23.79 246.35 24.03 305.57 25.76C306.7 25.76 307.82 25.76 308.94 25.76C378.39 25.76 432 25.76 432 25.76V27.76C432 27.76 378.39 27.76 308.94 27.76C307.82 27.76 306.7 27.76 305.57 27.76C247.91 26.08 190.65 25.81 132.98 26.96C131.42 26.99 129.86 27.02 128.3 27.06C85 28.75 43 26.75 0 27.75V25.75Z" fill="#1D1D1D"/>
<path d="M0 0.75C0 0.75 43.74 0.75 103.37 0.75C104.44 0.75 105.51 0.75 106.58 0.75C171 -0.25 235 -0.25 298.75 0.75C299.89 0.75 301.03 0.75 302.17 0.75C374.87 0.75 432 0.75 432 0.75V2.75C432 2.75 376.65 2.75 305.57 2.75C304.44 2.75 303.31 2.75 302.17 2.75C237 0.75 172 0.75 106.58 2.75C105.5 2.75 104.43 2.75 103.37 2.75C43.74 2.75 0 2.75 0 2.75V0.75Z" fill="#1D1D1D"/>
<path d="M364.5 62.75C377.479 62.75 388 52.2287 388 39.25C388 26.2713 377.479 15.75 364.5 15.75C351.521 15.75 341 26.2713 341 39.25C341 52.2287 351.521 62.75 364.5 62.75Z" stroke="#1D1D1D" stroke-width="2" stroke-dasharray="2 2"/>
<path d="M339.5 62.75C352.479 62.75 363 52.2287 363 39.25C363 26.2713 352.479 15.75 339.5 15.75C326.521 15.75 316 26.2713 316 39.25C316 52.2287 326.521 62.75 339.5 62.75Z" stroke="#1D1D1D" stroke-width="2" stroke-dasharray="2 2"/>
</g>
<defs>
<clipPath id="clip0">
<rect width="432" height="125.5" fill="white"/>
</clipPath>
</defs>
</svg>
