<svg width="432" height="126" viewBox="0 0 432 126" fill="none" xmlns="http://www.w3.org/2000/svg">
<g clip-path="url(#clip0)">
<path d="M0 123.12C0 123.12 115.49 123.12 227.04 123.12C228.27 123.12 229.49 123.12 230.72 123.12C288 121.12 346 121.12 402.68 123.12C403.99 123.12 405.27 123.12 406.51 123.12C422.58 123.12 432.01 123.12 432.01 123.12V125.12C432.01 125.12 422.58 125.12 406.51 125.12C405.27 125.12 404 125.12 402.68 125.12C346 123.12 288 123.12 230.72 125.12C229.5 125.12 228.27 125.12 227.04 125.12C115.49 125.12 0 125.12 0 125.12V123.12Z" fill="#1D1D1D"/>
<path d="M0.000234375 53.12C0.000234375 53.12 66.4002 53.12 147.13 53.12C148.3 53.12 149.47 53.12 150.65 53.12C171.66 55.38 192.64 56.84 213.6 57.64C215.21 57.7 216.82 57.76 218.44 57.81C286 53.12 353 45.12 420.5 53.12C421.73 53.12 422.87 53.12 423.92 53.12C429.15 53.12 432 53.12 432 53.12V55.12C432 55.12 429.15 55.12 423.92 55.12C422.87 55.12 421.73 55.12 420.5 55.12C353 47.12 286 55.12 218.43 59.62C216.82 59.58 215.21 59.53 213.59 59.47C192.64 58.76 171.65 57.38 150.64 55.12C149.46 55.12 148.29 55.12 147.12 55.12C66.3902 55.12 -0.00976562 55.12 -0.00976562 55.12V53.12H0.000234375Z" fill="#1D1D1D"/>
<path d="M0 1.11998C0 1.11998 62.6 1.11998 140.15 1.11998C141.31 1.11998 142.47 1.11998 143.63 1.11998C170.37 2.96998 196.93 4.53998 223.42 5.38998C224.98 5.43998 226.54 5.48998 228.09 5.52998C291 5.11998 354 -2.88002 416.99 1.11998C418.36 1.11998 419.65 1.11998 420.84 1.11998C428.02 1.11998 431.99 1.11998 431.99 1.11998V3.11998C431.99 3.11998 428.19 3.11998 421.31 3.11998C420.16 3.11998 418.93 3.11998 417.62 3.11998C385.99 4.11998 353.99 -1.88002 320.99 1.11998C287.99 4.11998 255.99 12.12 223.02 8.21998C221.53 8.06998 220.04 7.91998 218.55 7.77998C193.28 5.28998 168.58 3.11998 143.62 3.11998C142.46 3.11998 141.29 3.11998 140.14 3.11998C62.6 3.11998 0 3.11998 0 3.11998V1.11998Z" fill="#1D1D1D"/>
<path d="M84 105.12C107.196 105.12 126 86.316 126 63.12C126 39.924 107.196 21.12 84 21.12C60.804 21.12 42 39.924 42 63.12C42 86.316 60.804 105.12 84 105.12Z" stroke="#1D1D1D" stroke-width="2"/>
<path d="M84 22.12V105.12" stroke="#1D1D1D" stroke-dasharray="2 2"/>
<path d="M125.5 63.62H42.5" stroke="#1D1D1D" stroke-dasharray="2 2"/>
</g>
<defs>
<clipPath id="clip0">
<rect width="432" height="125.12" fill="white"/>
</clipPath>
</defs>
</svg>
