<svg width="172" height="111" viewBox="0 0 172 111" fill="none" xmlns="http://www.w3.org/2000/svg">
<path d="M87.48 12H84.48V11.76H85.08V6.72H84.48V6.48H86.88V7.908C86.952 7.516 87.08 7.196 87.264 6.948C87.456 6.7 87.664 6.536 87.888 6.456C88.12 6.376 88.34 6.336 88.548 6.336C88.764 6.336 88.968 6.376 89.16 6.456C89.36 6.528 89.508 6.68 89.604 6.912C89.7 7.136 89.704 7.364 89.616 7.596C89.528 7.82 89.372 7.98 89.148 8.076C88.932 8.172 88.732 8.184 88.548 8.112C88.364 8.04 88.232 7.944 88.152 7.824C88.072 7.696 88.016 7.576 87.984 7.464C87.904 7.168 87.796 7.02 87.66 7.02C87.508 7.02 87.34 7.284 87.156 7.812C86.972 8.332 86.88 8.884 86.88 9.468V11.76H87.48V12Z" fill="#1A1A1A"/>
<path d="M6.3 60.7601C6.22 60.8401 6.068 60.9121 5.844 60.9761C5.62 61.0321 5.36 61.0601 5.064 61.0601C4.408 61.0601 3.996 60.8641 3.828 60.4721C3.428 60.8881 2.816 61.0961 1.992 61.0961C1.552 61.0961 1.188 60.9961 0.9 60.7961C0.62 60.5881 0.48 60.2841 0.48 59.8841C0.48 59.3481 0.688 58.9361 1.104 58.6481C1.52 58.3521 2.248 58.1441 3.288 58.0241L3.768 57.9641V57.3761C3.768 56.6801 3.716 56.2121 3.612 55.9721C3.508 55.7321 3.3 55.6121 2.988 55.6121C2.684 55.6121 2.488 55.6561 2.4 55.7441C2.312 55.8241 2.28 55.9201 2.304 56.0321C2.328 56.1361 2.368 56.2761 2.424 56.4521C2.48 56.6281 2.508 56.7681 2.508 56.8721C2.508 57.1201 2.42 57.3321 2.244 57.5081C2.076 57.6761 1.868 57.7601 1.62 57.7601C1.38 57.7601 1.172 57.6761 0.996 57.5081C0.82 57.3321 0.732 57.1201 0.732 56.8721C0.732 56.4641 0.94 56.1161 1.356 55.8281C1.78 55.5321 2.408 55.3841 3.24 55.3841C4.08 55.3841 4.676 55.5481 5.028 55.8761C5.388 56.2041 5.568 56.7841 5.568 57.6161V59.7761C5.568 60.2001 5.62 60.4681 5.724 60.5801C5.828 60.6841 6.02 60.7041 6.3 60.6401V60.7601ZM2.148 59.6441C2.188 59.9481 2.3 60.1841 2.484 60.3521C2.668 60.5121 2.88 60.5921 3.12 60.5921C3.368 60.5921 3.584 60.4721 3.768 60.2321V58.1921L3.336 58.2521C2.968 58.3001 2.668 58.4401 2.436 58.6721C2.212 58.9041 2.116 59.2281 2.148 59.6441Z" fill="#1A1A1A"/>
<path d="M114.52 59.1281C114.52 59.7361 114.588 60.1761 114.724 60.4481C114.86 60.7121 115.076 60.8441 115.372 60.8441C115.676 60.8441 115.944 60.6201 116.176 60.1721C116.408 59.7161 116.524 59.0801 116.524 58.2641C116.524 57.4401 116.4 56.8081 116.152 56.3681C115.912 55.9281 115.628 55.7081 115.3 55.7081C114.972 55.7081 114.712 55.8961 114.52 56.2721V59.1281ZM117.34 60.5801C117.044 60.7721 116.756 60.9081 116.476 60.9881C116.196 61.0681 115.92 61.1081 115.648 61.1081C115.384 61.1081 115.14 61.0601 114.916 60.9641C114.692 60.8601 114.512 60.7521 114.376 60.6401C114.248 60.5201 114.104 60.4121 113.944 60.3161C113.784 60.2121 113.632 60.1601 113.488 60.1601C113.344 60.1601 113.216 60.2401 113.104 60.4001C113 60.5601 112.948 60.7601 112.948 61.0001H112.72V53.2001H112.12V52.9601H114.52V55.9121C114.648 55.6961 114.856 55.5281 115.144 55.4081C115.44 55.2801 115.748 55.2161 116.068 55.2161C116.676 55.2161 117.204 55.4841 117.652 56.0201C118.108 56.5481 118.336 57.2881 118.336 58.2401C118.336 58.8001 118.244 59.2801 118.06 59.6801C117.876 60.0801 117.636 60.3801 117.34 60.5801Z" fill="#1A1A1A"/>
<path d="M167.52 59.1281C167.52 59.7361 167.588 60.1761 167.724 60.4481C167.86 60.7121 168.076 60.8441 168.372 60.8441C168.676 60.8441 168.944 60.6201 169.176 60.1721C169.408 59.7161 169.524 59.0801 169.524 58.2641C169.524 57.4401 169.4 56.8081 169.152 56.3681C168.912 55.9281 168.628 55.7081 168.3 55.7081C167.972 55.7081 167.712 55.8961 167.52 56.2721V59.1281ZM170.34 60.5801C170.044 60.7721 169.756 60.9081 169.476 60.9881C169.196 61.0681 168.92 61.1081 168.648 61.1081C168.384 61.1081 168.14 61.0601 167.916 60.9641C167.692 60.8601 167.512 60.7521 167.376 60.6401C167.248 60.5201 167.104 60.4121 166.944 60.3161C166.784 60.2121 166.632 60.1601 166.488 60.1601C166.344 60.1601 166.216 60.2401 166.104 60.4001C166 60.5601 165.948 60.7601 165.948 61.0001H165.72V53.2001H165.12V52.9601H167.52V55.9121C167.648 55.6961 167.856 55.5281 168.144 55.4081C168.44 55.2801 168.748 55.2161 169.068 55.2161C169.676 55.2161 170.204 55.4841 170.652 56.0201C171.108 56.5481 171.336 57.2881 171.336 58.2401C171.336 58.8001 171.244 59.2801 171.06 59.6801C170.876 60.0801 170.636 60.3801 170.34 60.5801Z" fill="#1A1A1A"/>
<path d="M57.3 60.7601C57.22 60.8401 57.068 60.9121 56.844 60.9761C56.62 61.0321 56.36 61.0601 56.064 61.0601C55.408 61.0601 54.996 60.8641 54.828 60.4721C54.428 60.8881 53.816 61.0961 52.992 61.0961C52.552 61.0961 52.188 60.9961 51.9 60.7961C51.62 60.5881 51.48 60.2841 51.48 59.8841C51.48 59.3481 51.688 58.9361 52.104 58.6481C52.52 58.3521 53.248 58.1441 54.288 58.0241L54.768 57.9641V57.3761C54.768 56.6801 54.716 56.2121 54.612 55.9721C54.508 55.7321 54.3 55.6121 53.988 55.6121C53.684 55.6121 53.488 55.6561 53.4 55.7441C53.312 55.8241 53.28 55.9201 53.304 56.0321C53.328 56.1361 53.368 56.2761 53.424 56.4521C53.48 56.6281 53.508 56.7681 53.508 56.8721C53.508 57.1201 53.42 57.3321 53.244 57.5081C53.076 57.6761 52.868 57.7601 52.62 57.7601C52.38 57.7601 52.172 57.6761 51.996 57.5081C51.82 57.3321 51.732 57.1201 51.732 56.8721C51.732 56.4641 51.94 56.1161 52.356 55.8281C52.78 55.5321 53.408 55.3841 54.24 55.3841C55.08 55.3841 55.676 55.5481 56.028 55.8761C56.388 56.2041 56.568 56.7841 56.568 57.6161V59.7761C56.568 60.2001 56.62 60.4681 56.724 60.5801C56.828 60.6841 57.02 60.7041 57.3 60.6401V60.7601ZM53.148 59.6441C53.188 59.9481 53.3 60.1841 53.484 60.3521C53.668 60.5121 53.88 60.5921 54.12 60.5921C54.368 60.5921 54.584 60.4721 54.768 60.2321V58.1921L54.336 58.2521C53.968 58.3001 53.668 58.4401 53.436 58.6721C53.212 58.9041 53.116 59.2281 53.148 59.6441Z" fill="#1A1A1A"/>
<circle cx="59.5" cy="59.5" r="51" stroke="#1A1A1A"/>
<circle cx="111.5" cy="59.5" r="51" stroke="#1A1A1A"/>
<path d="M60.8258 59L85.5 16.9873L110.174 59H60.8258Z" stroke="#1A1A1A"/>
</svg>
