<svg width="432" height="99" viewBox="0 0 432 99" fill="none" xmlns="http://www.w3.org/2000/svg">
<g clip-path="url(#clip0)">
<path d="M0 72C0 72 40.8 72 97.33 72C98.53 72 99.74 72 100.96 72C177 70 252 68 328.2 69.9C329.78 69.91 331.35 69.92 332.93 69.93C336.08 69.95 339.24 69.99 342.39 70.03C343.96 70.08 345.54 70.13 347.11 70.18C362.84 70.69 378.59 71.32 394.35 72C395.81 72 397.24 72 398.62 72C419.44 72 432 72 432 72V74C432 74 419.45 74 398.62 74C397.23 74 395.81 74 394.35 74C378.59 73.32 362.85 72.69 347.11 72.18C345.54 72.13 343.96 72.08 342.39 72.03C340.81 72.01 339.24 71.99 337.66 71.97C336.08 71.95 334.51 71.94 332.93 71.93C256 70 178 72 100.96 74C99.74 74 98.53 74 97.33 74C40.8 74 0 74 0 74V72Z" fill="#1D1D1D"/>
<path d="M0 97C0 97 34.38 97 83.74 97C84.89 97 86.04 97 87.21 97C169 95 251 91 333.5 94.44C335.07 94.46 336.63 94.48 338.2 94.51C339.77 94.54 341.33 94.57 342.9 94.61C344.47 94.66 346.03 94.71 347.6 94.76C361.7 95.25 375.79 95.98 389.87 97C391.4 97 392.9 97 394.36 97C417.73 97 432.01 97 432.01 97V99C432.01 99 417.73 99 394.36 99C392.9 99 391.4 99 389.87 99C375.78 97.98 361.69 97.25 347.6 96.76C346.03 96.71 344.47 96.65 342.9 96.61C341.33 96.57 339.77 96.54 338.2 96.51C254 92 171 97 87.2 99C86.04 99 84.88 99 83.73 99C34.38 99 0 99 0 99V97Z" fill="#1D1D1D"/>
<path d="M0 57C0 57 50.26 57 116.49 57C117.35 57 118.21 57 119.08 57C187 57 256 54 323.58 54.91C325.15 54.92 326.72 54.93 328.28 54.94C331.41 54.96 334.54 55 337.67 55.05C339.24 55.09 340.82 55.13 342.39 55.17C359.7 55.62 377.01 56.25 394.35 57C395.81 57 397.24 57 398.62 57C419.44 57 432 57 432 57V59C432 59 419.45 59 398.62 59C397.23 59 395.81 59 394.35 59C377.01 58.25 359.7 57.63 342.39 57.17C340.82 57.13 339.24 57.09 337.67 57.05C334.54 57 331.41 56.96 328.28 56.94C326.71 56.93 325.15 56.92 323.58 56.91C255 56 185 58 116.49 59C115.63 59 114.77 59 113.92 59C48.96 59 0 59 0 59V57Z" fill="#1D1D1D"/>
<path d="M0 42C0 42 60.41 42 136.04 42C137.2 42 138.37 42 139.54 42C141.13 42.05 142.71 42.1 144.3 42.14C199 42 255 41 310.37 40.17C311.95 40.15 313.53 40.14 315.12 40.13C319.87 40.09 324.62 40.08 329.37 40.08C330.93 40.11 332.48 40.14 334.04 40.17C352.71 40.54 371.33 41.15 389.87 42.01C391.4 42.01 392.9 42.01 394.36 42.01C417.73 42.01 432.01 42.01 432.01 42.01V44.01C432.01 44.01 417.73 44.01 394.36 44.01C392.9 44.01 391.4 44.01 389.87 44.01C371.34 43.15 352.71 42.54 334.04 42.17C332.48 42.14 330.93 42.11 329.37 42.08C326.2 42.08 323.03 42.08 319.87 42.1C318.29 42.11 316.7 42.12 315.12 42.13C257 43 198 44 139.54 44C138.37 44 137.2 44 136.04 44C60.41 44 0 44 0 44V42Z" fill="#1D1D1D"/>
<path d="M0 32C0 32 64.83 32 144.26 32C145.41 32 146.57 32 147.72 32C208 34 267 31 327.04 30.7C328.66 30.72 330.28 30.74 331.89 30.76C349.69 31 367.46 31.42 385.17 31.99C386.77 31.99 388.33 31.99 389.86 31.99C415.87 31.99 432 31.99 432 31.99V33.99C432 33.99 415.88 33.99 389.86 33.99C388.33 33.99 386.77 33.99 385.17 33.99C367.46 33.41 349.69 33 331.89 32.76C330.27 32.74 328.65 32.72 327.04 32.7C265 33 203 35 140.81 34C139.67 34 138.52 34 137.39 34C61.12 34 0 34 0 34V32Z" fill="#1D1D1D"/>
<path d="M0 22C0 22 64.1 22 142.93 22C144.11 22 145.29 22 146.47 22C203 23 261 22 318.31 21.31C319.9 21.32 321.49 21.33 323.07 21.34C342.13 21.45 361.19 21.67 380.28 22.01C381.94 22.01 383.57 22.01 385.17 22.01C413.92 22.01 432 22.01 432 22.01V24.01C432 24.01 413.93 24.01 385.17 24.01C383.57 24.01 381.94 24.01 380.28 24.01C362.78 23.7 345.3 23.49 327.83 23.37C326.24 23.36 324.65 23.35 323.07 23.34C264 24 205 25 146.46 24C145.28 24 144.1 24 142.92 24C64.1 24 0 24 0 24V22Z" fill="#1D1D1D"/>
<path d="M0 12C0 12 68.71 12 151.33 12C152.49 12 153.66 12 154.83 12C207 12 258 12 309.57 11.27C311.13 11.27 312.69 11.28 314.25 11.29C334.54 11.38 354.86 11.62 375.2 12C376.06 12 376.92 12 377.76 12C410.78 12 432 12 432 12V14C432 14 410.79 14 377.76 14C376.91 14 376.06 14 375.2 14C356.07 13.65 336.84 13.42 317.61 13.31C316.01 13.3 314.4 13.29 312.8 13.29C262 14 210 14 158.87 14C157.71 14 156.55 14 155.39 14C70.98 14 0 14 0 14V12Z" fill="#1D1D1D"/>
<path d="M0 5C0 5 75.65 5 163.64 5C164.78 5 165.93 5 167.07 5C213 5 258 5 304.34 5C305.9 5 307.47 5 309.03 5C329.35 5 349.65 5 369.94 5C370.83 5 371.72 5 372.59 5C408.56 5 432 5 432 5V7C432 7 408.56 7 372.59 7C371.71 7 370.83 7 369.94 7C349.65 7 329.36 6.83 309.03 6.71C307.47 6.7 305.9 6.69 304.34 6.68C256 7 208 7 160.22 7C159.08 7 157.95 7 156.81 7C71.77 7 0 7 0 7V5Z" fill="#1D1D1D"/>
<path d="M131 17.5C135.694 17.5 139.5 13.6944 139.5 9C139.5 4.30558 135.694 0.5 131 0.5C126.306 0.5 122.5 4.30558 122.5 9C122.5 13.6944 126.306 17.5 131 17.5Z" stroke="#1D1D1D"/>
<rect x="396" y="60" width="6" height="6" fill="#1D1D1D"/>
</g>
<defs>
<clipPath id="clip0">
<rect width="432" height="99" fill="white"/>
</clipPath>
</defs>
</svg>
