<svg width="79" height="79" viewBox="0 0 79 79" fill="none" xmlns="http://www.w3.org/2000/svg">
<g clip-path="url(#clip0)">
<path d="M44.9306 79C63.7465 79 78.9998 63.7467 78.9998 44.9308C78.9998 26.1149 63.7465 10.8616 44.9306 10.8616C26.1146 10.8616 10.8613 26.1149 10.8613 44.9308C10.8613 63.7467 26.1146 79 44.9306 79Z" fill="black"/>
<path d="M1.86621 32.0915L5.42398 33.1493C6.40224 29.8567 7.79141 26.6966 9.55439 23.7565L6.37042 21.8477C4.44838 25.0555 2.93195 28.502 1.86621 32.0915Z" fill="black"/>
<path d="M0.444934 38.6027C-0.0799829 42.3062 -0.140958 46.0708 0.259357 49.7903L3.94968 49.3926C3.58118 45.978 3.63685 42.5236 4.11935 39.1249L0.444934 38.6027Z" fill="black"/>
<path d="M13.6903 12.6378C12.4655 13.8228 11.299 15.0847 10.2227 16.3917L13.0858 18.7512C14.0747 17.5529 15.1457 16.3917 16.2698 15.3048C16.5694 15.0132 16.8796 14.7215 17.195 14.4352L14.6977 11.6913C14.3557 12.0042 14.0164 12.3223 13.6903 12.6378Z" fill="black"/>
<path d="M19.4424 7.92149L21.5527 10.9756C22.2446 10.4984 22.9577 10.0371 23.6762 9.60493L21.7594 6.42627C20.9747 6.89816 20.1953 7.39922 19.4424 7.92149Z" fill="black"/>
<path d="M27.1523 3.65328L28.6211 7.06259C29.3925 6.73121 30.1852 6.41838 30.9752 6.13471L29.7213 2.64056C28.8597 2.95074 27.9954 3.29273 27.1523 3.65328Z" fill="black"/>
<path d="M67.3398 10.3234C68.0424 10.7794 68.7423 11.2646 69.4156 11.763L71.624 8.78047C70.8897 8.237 70.1261 7.70678 69.36 7.20837L67.3398 10.3234Z" fill="black"/>
<path d="M60.1689 6.61982C60.9484 6.93 61.7278 7.26669 62.486 7.62193L64.0661 4.26299C63.2389 3.87328 62.3906 3.50478 61.5396 3.16809L60.1689 6.61982Z" fill="black"/>
<path d="M35.5508 0.983582L36.3222 4.61293C37.1441 4.43796 37.9818 4.28685 38.8116 4.16225L38.2629 0.490479C37.3588 0.628335 36.4469 0.792703 35.5508 0.983582Z" fill="black"/>
<path d="M77.8042 14.3C77.6134 14.0959 77.4225 13.8944 77.2263 13.6929C76.9055 13.3615 76.5741 13.0302 76.2427 12.7067L73.6553 15.3684C73.9601 15.6654 74.265 15.9702 74.5593 16.2751C74.7396 16.4607 74.9145 16.6463 75.0895 16.8345C75.1982 16.9511 75.3069 17.0704 75.4156 17.1871L78.1595 14.6871C78.0402 14.5545 77.9235 14.4273 77.8042 14.3Z" fill="black"/>
<path d="M52.4062 4.39287C53.2281 4.54398 54.0605 4.72161 54.8771 4.92574L55.7678 1.3229C54.8797 1.10286 53.9731 0.909329 53.077 0.74231L52.4062 4.39287Z" fill="black"/>
<path d="M44.3551 3.71423C45.1902 3.70362 46.0412 3.71688 46.8842 3.75664L47.0592 0.0504126C46.1419 0.00799508 45.2167 -0.00791149 44.3047 0.00534398L44.3551 3.71423Z" fill="black"/>
<path d="M46.7205 17.7094H43.5869V30.1059H46.7205V17.7094Z" fill="white"/>
<path d="M55.0607 66.2694L56.0972 65.779L56.7308 66.8156L56.4525 66.9852L55.9832 66.2164L55.4901 66.4444C55.5273 66.4656 55.5697 66.4948 55.6174 66.5372C55.6651 66.5796 55.7102 66.6326 55.7526 66.6989C55.8083 66.7891 55.8427 66.8819 55.8586 66.972C55.8719 67.0621 55.8666 67.1496 55.8401 67.2344C55.8136 67.3193 55.7685 67.3988 55.7049 67.473C55.6413 67.5499 55.5591 67.6162 55.4583 67.6798C55.3682 67.7355 55.2781 67.7726 55.1826 67.7938C55.0872 67.815 54.997 67.8177 54.9069 67.8018C54.8168 67.7859 54.7319 67.7461 54.6497 67.6878C54.5676 67.6295 54.4933 67.5446 54.4271 67.4386C54.3767 67.3591 54.3422 67.2742 54.321 67.1867C54.2998 67.0992 54.2945 67.0118 54.3051 66.9269C54.3157 66.8421 54.3449 66.7599 54.3926 66.683C54.4377 66.6061 54.5039 66.5372 54.5914 66.4762L54.7823 66.7891C54.6948 66.858 54.6444 66.9349 54.6285 67.0224C54.6126 67.1072 54.6312 67.1947 54.6842 67.2822C54.716 67.3352 54.7531 67.375 54.7982 67.4015C54.8406 67.428 54.8883 67.4439 54.9387 67.4492C54.9891 67.4545 55.0421 67.4492 55.1004 67.4333C55.1561 67.4174 55.2144 67.3909 55.2728 67.3564C55.3284 67.3219 55.3735 67.2848 55.4106 67.2424C55.4477 67.2 55.4769 67.1523 55.4928 67.1019C55.5087 67.0515 55.514 67.0012 55.506 66.9455C55.4981 66.8898 55.4769 66.8368 55.4424 66.7785C55.4186 66.7413 55.3974 66.7095 55.3735 66.6857C55.3496 66.6618 55.3284 66.6433 55.3046 66.6273C55.2807 66.6141 55.2568 66.6008 55.233 66.5929C55.2091 66.5823 55.1826 66.5743 55.1561 66.569L55.0607 66.2694Z" fill="white"/>
<path d="M56.3329 68.0032L56.4496 68.1941C56.484 68.2498 56.5211 68.2949 56.5609 68.324C56.6007 68.3558 56.6404 68.377 56.6829 68.3903C56.7253 68.4009 56.7677 68.4036 56.8128 68.3956C56.8578 68.3877 56.9002 68.3691 56.9453 68.3426C57.0381 68.2869 57.0938 68.218 57.115 68.1384C57.1362 68.0589 57.1176 67.9714 57.0567 67.8707C57.0301 67.8283 57.001 67.7938 56.9665 67.7646C56.9321 67.7355 56.8949 67.7169 56.8552 67.7037C56.8154 67.6904 56.7756 67.6878 56.7332 67.6931C56.6908 67.6984 56.6484 67.7143 56.606 67.7381L56.4098 67.4147C56.4867 67.3696 56.5662 67.3405 56.6484 67.3325C56.7306 67.3246 56.8128 67.3325 56.8949 67.3564C56.9745 67.3829 57.0514 67.4253 57.1256 67.4836C57.1972 67.542 57.2608 67.6162 57.3165 67.7063C57.3721 67.7991 57.4119 67.8892 57.4358 67.9794C57.4596 68.0695 57.4649 68.157 57.4517 68.2392C57.4384 68.3214 57.4066 68.3983 57.3562 68.4698C57.3059 68.5414 57.2369 68.605 57.1468 68.6607C57.107 68.6846 57.0646 68.7031 57.0169 68.7137C56.9692 68.7243 56.9188 68.7296 56.8684 68.727C56.8181 68.7243 56.7624 68.7164 56.7094 68.6978C56.6537 68.6793 56.6007 68.6528 56.5477 68.6183C56.5636 68.6899 56.5689 68.7562 56.5609 68.8171C56.5556 68.8781 56.5397 68.9311 56.5158 68.9815C56.492 69.0319 56.4602 69.0769 56.4231 69.1141C56.3859 69.1512 56.3435 69.1883 56.2958 69.2174C56.2057 69.2731 56.1155 69.3049 56.0254 69.3155C55.9352 69.3261 55.8478 69.3182 55.7629 69.289C55.6807 69.2599 55.6012 69.2148 55.527 69.1512C55.4527 69.0875 55.3891 69.0107 55.3335 68.9179C55.2831 68.833 55.246 68.7482 55.2221 68.6554C55.1982 68.5653 55.1903 68.4778 55.2009 68.3903C55.2115 68.3028 55.238 68.2233 55.2857 68.1464C55.3334 68.0695 55.3997 68.0059 55.4899 67.9502L55.686 68.271C55.6436 68.2975 55.6092 68.3293 55.5827 68.3664C55.5561 68.4036 55.5376 68.4433 55.5296 68.4857C55.5217 68.5282 55.5217 68.5732 55.5323 68.6209C55.5429 68.6687 55.5614 68.7164 55.5906 68.7641C55.6516 68.8649 55.7258 68.9258 55.8133 68.9523C55.9008 68.9788 55.9962 68.9603 56.097 68.8967C56.1526 68.8649 56.1951 68.8251 56.2242 68.7853C56.2534 68.7429 56.2719 68.7005 56.2799 68.6528C56.2878 68.605 56.2825 68.5573 56.2693 68.5043C56.256 68.4539 56.2322 68.4009 56.1977 68.3452L56.0811 68.1544L56.3329 68.0032Z" fill="white"/>
<path d="M57.5178 70.6146C57.364 70.7074 57.2261 70.7737 57.1015 70.8081C56.9769 70.8426 56.8656 70.8532 56.7649 70.8399C56.6641 70.8267 56.5766 70.7896 56.4997 70.7312C56.4229 70.6729 56.3539 70.596 56.2956 70.5006C56.2373 70.4052 56.2002 70.3097 56.1816 70.2143C56.1631 70.1188 56.171 70.0234 56.2055 69.9253C56.2373 69.8299 56.2983 69.7344 56.3858 69.6363C56.4732 69.5409 56.5952 69.4455 56.7463 69.3527L57.0565 69.1618C57.2102 69.069 57.3481 69.0054 57.4727 68.9709C57.5973 68.9364 57.7086 68.9258 57.8094 68.9417C57.9101 68.9576 57.9976 68.9948 58.0745 69.0531C58.1514 69.1141 58.2177 69.1909 58.276 69.2864C58.3343 69.3818 58.3741 69.4773 58.39 69.5727C58.4085 69.6681 58.4006 69.7636 58.3688 69.859C58.337 69.9545 58.276 70.0499 58.1885 70.1453C58.101 70.2408 57.9817 70.3336 57.8279 70.4264L57.5178 70.6146ZM57.6795 70.0738C57.7776 70.0154 57.8571 69.9571 57.9128 69.9014C57.9711 69.8458 58.0135 69.7928 58.0374 69.7424C58.0612 69.6894 58.0718 69.639 58.0665 69.5913C58.0612 69.5409 58.0427 69.4932 58.0135 69.4428C57.9844 69.3924 57.9472 69.3553 57.9048 69.3288C57.8624 69.3023 57.8147 69.2864 57.7564 69.2864C57.698 69.2837 57.6318 69.297 57.5575 69.3235C57.4833 69.35 57.3958 69.3951 57.2977 69.4534L56.8895 69.7026C56.7914 69.7609 56.7145 69.8193 56.6535 69.8749C56.5952 69.9306 56.5501 69.9836 56.5263 70.0366C56.4997 70.0897 56.4891 70.14 56.4944 70.1904C56.4998 70.2408 56.5157 70.2912 56.5475 70.3415C56.5793 70.3919 56.6137 70.429 56.6588 70.4555C56.7012 70.482 56.7516 70.4953 56.8099 70.4953C56.8682 70.4953 56.9345 70.482 57.0114 70.4529C57.0883 70.4237 57.1731 70.3813 57.2712 70.3203L57.6795 70.0738Z" fill="white"/>
<path d="M68.3857 55.0632L66.6465 56.4789L66.2939 56.2987L67.9906 54.9652L66.9488 54.4323L67.0866 54.1619L68.4811 54.875L68.3857 55.0632Z" fill="white"/>
<path d="M69.4673 56.8527C69.3851 57.0118 69.3003 57.139 69.2128 57.2345C69.1253 57.3299 69.0352 57.3962 68.9424 57.4386C68.8496 57.4784 68.7541 57.4943 68.6587 57.4837C68.5633 57.4731 68.4652 57.4439 68.3644 57.3936C68.2663 57.3432 68.1841 57.2822 68.1179 57.208C68.0516 57.1364 68.0092 57.0489 67.9853 56.9508C67.9641 56.8527 67.9641 56.7387 67.988 56.6115C68.0118 56.4842 68.0675 56.3411 68.147 56.182L68.3141 55.8559C68.3962 55.6968 68.4811 55.5696 68.5686 55.4742C68.656 55.3787 68.7462 55.3124 68.839 55.2727C68.9318 55.2329 69.0272 55.2196 69.1226 55.2303C69.2181 55.2409 69.3162 55.2727 69.4143 55.323C69.515 55.3734 69.5972 55.4344 69.6608 55.5086C69.7271 55.5802 69.7695 55.665 69.7934 55.7631C69.8146 55.8612 69.8146 55.9726 69.7881 56.0998C69.7616 56.2271 69.7085 56.3702 69.629 56.5293L69.4673 56.8527ZM69.3215 56.3039C69.3745 56.2006 69.4116 56.1131 69.4328 56.0362C69.454 55.9593 69.462 55.893 69.4567 55.8347C69.4514 55.7764 69.4328 55.7287 69.4037 55.6889C69.3718 55.6491 69.3321 55.6173 69.2817 55.5908C69.2313 55.5643 69.1783 55.551 69.1306 55.5484C69.0802 55.5457 69.0299 55.559 68.9821 55.5881C68.9318 55.6173 68.884 55.6624 68.8337 55.7234C68.7833 55.787 68.7329 55.8692 68.6799 55.9699L68.4625 56.3941C68.4095 56.4948 68.375 56.585 68.3512 56.6645C68.33 56.744 68.322 56.8103 68.3273 56.8686C68.3326 56.927 68.3512 56.9773 68.3803 57.0171C68.4095 57.0595 68.4519 57.0913 68.5023 57.1178C68.5553 57.1443 68.6057 57.1576 68.656 57.1576C68.7064 57.1576 68.7568 57.1417 68.8045 57.1125C68.8522 57.0834 68.9053 57.0357 68.9556 56.972C69.006 56.9084 69.0564 56.8262 69.1094 56.7228L69.3215 56.3039Z" fill="white"/>
<path d="M71.0764 57.6772C70.9942 57.8363 70.9094 57.9636 70.8219 58.059C70.7344 58.1544 70.6442 58.2207 70.5515 58.2631C70.4587 58.3029 70.3632 58.3188 70.2678 58.3082C70.1723 58.2976 70.0743 58.2684 69.9735 58.2181C69.8754 58.1677 69.7932 58.1067 69.727 58.0325C69.6607 57.9583 69.6183 57.8734 69.5944 57.7753C69.5732 57.6772 69.5732 57.5633 69.5997 57.436C69.6236 57.3087 69.6792 57.1656 69.7588 57.0065L69.9258 56.6804C70.008 56.5214 70.0928 56.3941 70.1803 56.2987C70.2678 56.2032 70.3579 56.137 70.4507 56.0972C70.5435 56.0574 70.6389 56.0442 70.7344 56.0548C70.8298 56.0654 70.9279 56.0972 71.026 56.1476C71.1267 56.1979 71.2089 56.2589 71.2726 56.3331C71.3388 56.4047 71.3812 56.4896 71.4051 56.5876C71.4263 56.6857 71.4263 56.7971 71.3998 56.9243C71.3733 57.0516 71.3203 57.1947 71.2407 57.3538L71.0764 57.6772ZM70.9332 57.1285C70.9862 57.0251 71.0234 56.9376 71.0446 56.8607C71.0658 56.7838 71.0737 56.7176 71.0684 56.6592C71.0631 56.6009 71.0446 56.5532 71.0154 56.5161C70.9836 56.4763 70.9438 56.4445 70.8934 56.418C70.8431 56.3915 70.7901 56.3782 70.7423 56.3756C70.692 56.3729 70.6416 56.3862 70.5939 56.4153C70.5435 56.4445 70.4931 56.4896 70.4454 56.5505C70.395 56.6142 70.3447 56.6963 70.2916 56.7971L70.0743 57.2213C70.0212 57.322 69.9868 57.4121 69.9629 57.4917C69.9417 57.5712 69.9337 57.6375 69.939 57.6958C69.9443 57.7541 69.9629 57.8045 69.9921 57.8443C70.0212 57.8867 70.0636 57.9185 70.114 57.945C70.167 57.9715 70.2174 57.9848 70.2678 57.9848C70.3182 57.9848 70.3685 57.9689 70.4189 57.9397C70.4693 57.9079 70.5196 57.8628 70.57 57.7992C70.6204 57.7356 70.6707 57.6534 70.7238 57.55L70.9332 57.1285Z" fill="white"/>
<path d="M70.8531 46.5188C70.8372 46.6275 70.7921 46.7229 70.7232 46.7998C70.6543 46.8767 70.5668 46.9323 70.4607 46.9668C70.5111 47.0013 70.5588 47.0384 70.596 47.0835C70.6331 47.1285 70.6675 47.1736 70.6914 47.224C70.7153 47.2743 70.7338 47.33 70.7418 47.3857C70.7497 47.444 70.7497 47.5023 70.7418 47.5633C70.7259 47.6667 70.694 47.7568 70.6437 47.8311C70.596 47.9053 70.5323 47.9636 70.4607 48.0087C70.3865 48.0538 70.3043 48.0829 70.2089 48.0962C70.1134 48.1094 70.018 48.1094 69.912 48.0935C69.8086 48.0776 69.7131 48.0485 69.6283 48.0087C69.5435 47.9663 69.4719 47.9159 69.4136 47.8496C69.3552 47.786 69.3155 47.7118 69.2889 47.6269C69.2651 47.5421 69.2598 47.4467 69.2757 47.3433C69.2863 47.2823 69.3022 47.224 69.3287 47.1736C69.3552 47.1232 69.3844 47.0755 69.4242 47.0331C69.4639 46.9907 69.5063 46.9562 69.5567 46.927C69.6071 46.8979 69.6628 46.874 69.7211 46.8581C69.6336 46.7945 69.5673 46.715 69.5249 46.6222C69.4825 46.5294 69.4692 46.426 69.4851 46.3173C69.501 46.2166 69.5302 46.1317 69.5753 46.0601C69.6203 45.9886 69.6787 45.9302 69.7476 45.8878C69.8165 45.8454 69.8934 45.8162 69.9809 45.8003C70.0684 45.7844 70.1612 45.7871 70.2619 45.8003C70.36 45.8162 70.4501 45.8427 70.5297 45.8825C70.6092 45.9223 70.6755 45.9726 70.7285 46.0363C70.7815 46.0972 70.8186 46.1715 70.8399 46.2537C70.8637 46.3279 70.869 46.418 70.8531 46.5188ZM70.3733 47.4864C70.3812 47.4308 70.3812 47.3804 70.3706 47.3327C70.36 47.2849 70.3414 47.2425 70.3149 47.2054C70.2884 47.1683 70.254 47.1365 70.2115 47.1126C70.1691 47.0888 70.1214 47.0729 70.0684 47.0623C70.0127 47.0543 69.9623 47.0543 69.9146 47.0649C69.8669 47.0755 69.8271 47.0967 69.79 47.1232C69.7555 47.1497 69.7237 47.1869 69.6999 47.2293C69.676 47.2717 69.6601 47.3221 69.6522 47.3777C69.6442 47.4334 69.6442 47.4864 69.6548 47.5315C69.6654 47.5766 69.684 47.619 69.7105 47.6561C69.737 47.6932 69.7715 47.7224 69.8139 47.7436C69.8563 47.7674 69.904 47.7834 69.9597 47.7913C70.071 47.8099 70.1638 47.7913 70.2381 47.7356C70.3123 47.6853 70.3574 47.6004 70.3733 47.4864ZM70.4793 46.4764C70.4873 46.426 70.4873 46.3809 70.4767 46.3385C70.4687 46.2961 70.4528 46.2563 70.4316 46.2219C70.4104 46.1874 70.3812 46.1609 70.3441 46.137C70.307 46.1158 70.2646 46.0999 70.2195 46.0919C70.1241 46.0787 70.0445 46.0946 69.9809 46.1476C69.9173 46.198 69.8775 46.2775 69.8616 46.3809C69.8536 46.4313 69.8536 46.479 69.8616 46.5214C69.8695 46.5638 69.8855 46.6036 69.9067 46.6354C69.9279 46.6672 69.957 46.6964 69.9941 46.7176C70.0313 46.7388 70.071 46.7547 70.1214 46.76C70.1691 46.768 70.2142 46.7653 70.254 46.7574C70.2937 46.7468 70.3308 46.7309 70.3627 46.7044C70.3945 46.6805 70.4183 46.646 70.4395 46.6089C70.4581 46.5718 70.4714 46.5267 70.4793 46.4764Z" fill="white"/>
<path d="M72.4831 46.1529L72.4354 46.4605L72.4089 46.4578C72.2869 46.4393 72.1782 46.4393 72.0854 46.4605C71.9927 46.4817 71.9105 46.5162 71.8415 46.5639C71.7726 46.6142 71.7169 46.6752 71.6719 46.7468C71.6268 46.821 71.5923 46.9006 71.5685 46.9854C71.6348 46.9324 71.709 46.8979 71.7912 46.8767C71.8734 46.8555 71.9608 46.8528 72.0563 46.8687C72.165 46.8847 72.2551 46.9191 72.3293 46.9748C72.4036 47.0278 72.4619 47.0941 72.5017 47.171C72.5441 47.2479 72.5706 47.3353 72.5812 47.4281C72.5918 47.5209 72.5918 47.6164 72.5759 47.7144C72.56 47.8231 72.5282 47.9186 72.4831 48.0061C72.438 48.0936 72.3771 48.1678 72.3055 48.2261C72.2339 48.2844 72.1491 48.3269 72.0536 48.3534C71.9582 48.3799 71.8521 48.3825 71.7382 48.3666C71.6162 48.3481 71.5128 48.3083 71.4253 48.2473C71.3405 48.1863 71.2716 48.1095 71.2185 48.0193C71.1682 47.9292 71.1337 47.8284 71.1151 47.7171C71.0992 47.6058 71.0992 47.4944 71.1178 47.3751L71.139 47.2293C71.1549 47.118 71.1814 47.0119 71.2132 46.9112C71.245 46.8078 71.2875 46.715 71.3378 46.6275C71.3882 46.54 71.4492 46.4631 71.5208 46.3942C71.5897 46.3253 71.6719 46.2696 71.762 46.2245C71.8521 46.1795 71.9529 46.1503 72.0642 46.137C72.1756 46.1211 72.3002 46.1264 72.4354 46.145L72.4831 46.1529ZM71.9184 47.1577C71.876 47.1498 71.8336 47.1524 71.7912 47.1577C71.7487 47.1657 71.7116 47.1763 71.6745 47.1948C71.6374 47.2134 71.6056 47.2346 71.5791 47.2611C71.5499 47.2876 71.5261 47.3168 71.5075 47.3512L71.4889 47.4652C71.4757 47.5554 71.473 47.6349 71.4836 47.7065C71.4942 47.7781 71.5102 47.8391 71.5393 47.8894C71.5685 47.9398 71.6003 47.9796 71.6427 48.0087C71.6851 48.0379 71.7302 48.0564 71.7806 48.0644C71.8362 48.0724 71.8893 48.0697 71.937 48.0538C71.9847 48.0379 72.0271 48.014 72.0642 47.9769C72.1014 47.9424 72.1332 47.8974 72.157 47.8444C72.1809 47.7913 72.1994 47.733 72.2101 47.6667C72.2207 47.6031 72.2207 47.5448 72.2127 47.4865C72.2048 47.4281 72.1915 47.3778 72.1676 47.33C72.1438 47.285 72.112 47.2452 72.0695 47.2134C72.0298 47.1869 71.9794 47.1683 71.9184 47.1577Z" fill="white"/>
<path d="M74.3681 47.7754C74.3416 47.953 74.3019 48.0988 74.2462 48.2181C74.1905 48.3374 74.1269 48.4302 74.0527 48.4965C73.9784 48.5628 73.8936 48.6078 73.7982 48.629C73.7027 48.6503 73.5993 48.6529 73.4906 48.637C73.3819 48.6211 73.2838 48.5866 73.199 48.5389C73.1142 48.4912 73.0452 48.4223 72.9922 48.3348C72.9392 48.2473 72.9047 48.1386 72.8888 48.0113C72.8729 47.8814 72.8782 47.7303 72.9047 47.5527L72.9604 47.1921C72.9869 47.0145 73.0267 46.8687 73.0824 46.7494C73.1354 46.6328 73.2017 46.54 73.2759 46.4737C73.3501 46.4074 73.4376 46.365 73.533 46.3438C73.6285 46.3226 73.7319 46.3226 73.8406 46.3385C73.9519 46.3544 74.05 46.3862 74.1349 46.4339C74.2197 46.4816 74.2886 46.5479 74.3416 46.6328C74.3947 46.7202 74.4291 46.8263 74.445 46.9535C74.4609 47.0808 74.4556 47.2346 74.4291 47.4122L74.3681 47.7754ZM74.058 47.3008C74.0765 47.1868 74.0818 47.0914 74.0765 47.0119C74.0712 46.9323 74.058 46.8661 74.0341 46.813C74.0102 46.76 73.9784 46.7202 73.936 46.6937C73.8936 46.6672 73.8459 46.6487 73.7875 46.6381C73.7292 46.6275 73.6789 46.6328 73.6311 46.646C73.5834 46.6593 73.541 46.6884 73.5039 46.7309C73.4668 46.7733 73.4323 46.8316 73.4058 46.9085C73.3793 46.9827 73.3554 47.0781 73.3395 47.1921L73.2679 47.664C73.252 47.7754 73.2441 47.8735 73.2494 47.9557C73.2547 48.0379 73.2679 48.1041 73.2918 48.1571C73.3157 48.2102 73.3475 48.2526 73.3899 48.2818C73.4323 48.3109 73.48 48.3295 73.5384 48.3374C73.5967 48.3454 73.6497 48.3427 73.6974 48.3268C73.7451 48.3109 73.7876 48.2818 73.8247 48.2367C73.8618 48.1916 73.8936 48.1306 73.9228 48.0564C73.9493 47.9795 73.9731 47.8841 73.989 47.7727L74.058 47.3008Z" fill="white"/>
<path d="M69.9459 41.7972C70.0785 41.7813 70.1898 41.7521 70.2773 41.7097C70.3648 41.6673 70.4337 41.6143 70.4841 41.5506C70.5345 41.487 70.5689 41.4154 70.5848 41.3332C70.6007 41.2511 70.6087 41.1662 70.606 41.0734C70.5557 41.1397 70.4974 41.1954 70.4258 41.2404C70.3542 41.2855 70.2773 41.312 70.1898 41.3226C70.0785 41.3359 69.983 41.3253 69.8956 41.2935C69.8107 41.2617 69.7365 41.2139 69.6755 41.1503C69.6145 41.0867 69.5642 41.0125 69.5271 40.9223C69.4899 40.8348 69.4661 40.742 69.4555 40.6413C69.4422 40.5326 69.4475 40.4292 69.4687 40.3311C69.4899 40.233 69.527 40.1429 69.5801 40.066C69.6331 39.9891 69.702 39.9228 69.7869 39.8725C69.8717 39.8221 69.9724 39.7876 70.0891 39.7744C70.2137 39.7611 70.3224 39.7717 70.4205 39.8089C70.5186 39.846 70.6034 39.9043 70.6723 39.9812C70.7439 40.0581 70.7996 40.1482 70.8446 40.2569C70.8897 40.3629 70.9189 40.4796 70.9321 40.6015L70.9454 40.7235C70.9586 40.8322 70.9639 40.9382 70.9613 41.0443C70.9586 41.1503 70.9454 41.2511 70.9242 41.3465C70.9003 41.4419 70.8659 41.5347 70.8208 41.6196C70.7731 41.7044 70.7121 41.7786 70.6379 41.8449C70.5636 41.9112 70.4708 41.9668 70.3648 42.0119C70.2588 42.057 70.1315 42.0888 69.9857 42.1047L69.9539 42.1074L69.9168 41.7972H69.9459ZM70.2322 41.0204C70.272 41.0151 70.3091 41.0045 70.3462 40.9886C70.3807 40.9727 70.4152 40.9515 70.4443 40.925C70.4735 40.8985 70.4974 40.8693 70.5186 40.8375C70.5398 40.8057 70.5557 40.7712 70.5689 40.7341L70.553 40.5883C70.5424 40.4981 70.5239 40.4213 70.4974 40.355C70.4708 40.2887 70.4364 40.233 70.3966 40.1906C70.3568 40.1482 70.3144 40.119 70.2667 40.1005C70.219 40.0819 70.1713 40.0766 70.1235 40.0819C70.0679 40.0872 70.0175 40.1058 69.9777 40.1376C69.9353 40.1667 69.9035 40.2065 69.8796 40.2516C69.8558 40.2967 69.8372 40.3497 69.8293 40.408C69.8213 40.4663 69.8187 40.53 69.8266 40.5936C69.8346 40.6546 69.8478 40.7129 69.869 40.7686C69.8902 40.8242 69.9168 40.8719 69.9512 40.9117C69.9857 40.9515 70.0255 40.9806 70.0732 41.0018C70.1182 41.0204 70.1739 41.0284 70.2322 41.0204Z" fill="white"/>
<path d="M72.8009 40.811C72.8221 40.9886 72.8221 41.1424 72.8009 41.2696C72.7797 41.3969 72.7426 41.5029 72.6869 41.5904C72.6312 41.6752 72.5623 41.7415 72.4748 41.7866C72.3873 41.8316 72.2892 41.8608 72.1779 41.874C72.0665 41.8873 71.9658 41.882 71.8704 41.8555C71.7749 41.8316 71.6927 41.7839 71.6185 41.7123C71.5443 41.6434 71.4833 41.548 71.4329 41.426C71.3826 41.3067 71.3481 41.1583 71.3269 40.9806L71.2845 40.6174C71.2633 40.4398 71.2633 40.286 71.2845 40.1588C71.3057 40.0315 71.3428 39.9255 71.3985 39.8407C71.4541 39.7558 71.5257 39.6922 71.6105 39.6471C71.698 39.6021 71.7961 39.5729 71.9048 39.5597C72.0162 39.5464 72.1196 39.5517 72.2123 39.5756C72.3078 39.5994 72.39 39.6445 72.4642 39.7134C72.5384 39.7823 72.5994 39.8778 72.6471 39.9971C72.6975 40.1164 72.732 40.2648 72.7532 40.4425L72.8009 40.811ZM72.3767 40.4345C72.3635 40.3205 72.3449 40.2251 72.3184 40.1508C72.2945 40.074 72.2627 40.0156 72.2256 39.9706C72.1885 39.9255 72.1487 39.8963 72.101 39.8804C72.0533 39.8645 72.0003 39.8592 71.9446 39.8672C71.8863 39.8751 71.8359 39.891 71.7961 39.9176C71.7537 39.9441 71.7192 39.9838 71.6954 40.0342C71.6715 40.0846 71.653 40.1508 71.6477 40.2304C71.6397 40.3099 71.645 40.408 71.6583 40.522L71.7139 40.9965C71.7272 41.1105 71.7458 41.206 71.7723 41.2829C71.7988 41.3597 71.8279 41.4207 71.865 41.4684C71.9022 41.5135 71.9446 41.5453 71.9923 41.5639C72.04 41.5824 72.093 41.5877 72.1514 41.5798C72.2097 41.5718 72.2601 41.5559 72.3025 41.5268C72.3449 41.4976 72.3767 41.4578 72.4032 41.4048C72.4297 41.3518 72.443 41.2855 72.4483 41.2033C72.4536 41.1211 72.4509 41.0257 72.4377 40.9117L72.3767 40.4345Z" fill="white"/>
<path d="M74.5987 40.6015C74.6199 40.7792 74.6199 40.9329 74.5987 41.0602C74.5775 41.1874 74.5404 41.2935 74.4847 41.381C74.4291 41.4684 74.3601 41.5321 74.2727 41.5771C74.1878 41.6222 74.0871 41.6514 73.9757 41.6646C73.8644 41.6779 73.7636 41.6726 73.6682 41.6461C73.5728 41.6222 73.4906 41.5745 73.4163 41.5029C73.3421 41.4313 73.2811 41.3385 73.2308 41.2192C73.1804 41.0999 73.1459 40.9515 73.1247 40.7712L73.0823 40.408C73.0611 40.2304 73.0611 40.0766 73.0823 39.9494C73.1035 39.8221 73.1406 39.7161 73.1963 39.6312C73.252 39.5464 73.3236 39.4828 73.4084 39.4377C73.4959 39.3926 73.594 39.3635 73.7027 39.3529C73.814 39.3396 73.9174 39.3449 74.0102 39.3688C74.1056 39.3926 74.1878 39.4377 74.262 39.5066C74.3363 39.5756 74.3973 39.671 74.445 39.7903C74.4953 39.9096 74.5298 40.0581 74.551 40.2357L74.5987 40.6015ZM74.1746 40.2251C74.1613 40.1111 74.1427 40.0156 74.1162 39.9414C74.0897 39.8672 74.0606 39.8062 74.0234 39.7611C73.9863 39.7161 73.9466 39.6869 73.8988 39.671C73.8511 39.6551 73.7981 39.6498 73.7424 39.6577C73.6841 39.663 73.6337 39.6816 73.5913 39.7081C73.5489 39.7346 73.5144 39.7744 73.4906 39.8248C73.4641 39.8751 73.4482 39.9414 73.4429 40.0209C73.4349 40.1005 73.4402 40.1986 73.4535 40.3126L73.5091 40.7871C73.5224 40.9011 73.5409 40.9965 73.5675 41.0734C73.594 41.1503 73.6231 41.2113 73.6602 41.259C73.6974 41.3041 73.7398 41.3359 73.7875 41.3544C73.8352 41.3704 73.8882 41.3757 73.9466 41.3704C74.0049 41.3624 74.0553 41.3465 74.0977 41.3173C74.1401 41.2882 74.1719 41.2484 74.1984 41.1954C74.2223 41.1424 74.2382 41.0761 74.2435 40.9939C74.2488 40.9117 74.2461 40.8163 74.2329 40.7023L74.1746 40.2251Z" fill="white"/>
</g>
<defs>
<clipPath id="clip0">
<rect width="79" height="79" fill="white"/>
</clipPath>
</defs>
</svg>
