<svg width="456" height="359" viewBox="0 0 456 359" fill="none" xmlns="http://www.w3.org/2000/svg">
<path d="M3.48 145H0.48V144.76H1.08V139.72H0.48V139.48H2.88V140.908C2.952 140.516 3.08 140.196 3.264 139.948C3.456 139.7 3.664 139.536 3.888 139.456C4.12 139.376 4.34 139.336 4.548 139.336C4.764 139.336 4.968 139.376 5.16 139.456C5.36 139.528 5.508 139.68 5.604 139.912C5.7 140.136 5.704 140.364 5.616 140.596C5.528 140.82 5.372 140.98 5.148 141.076C4.932 141.172 4.732 141.184 4.548 141.112C4.364 141.04 4.232 140.944 4.152 140.824C4.072 140.696 4.016 140.576 3.984 140.464C3.904 140.168 3.796 140.02 3.66 140.02C3.508 140.02 3.34 140.284 3.156 140.812C2.972 141.332 2.88 141.884 2.88 142.468V144.76H3.48V145Z" fill="white"/>
<path d="M3 173V357H345" stroke="white" stroke-dasharray="2 4"/>
<path d="M346.48 353H343.48V352.76H344.08V347.72H343.48V347.48H345.88V348.908C345.952 348.516 346.08 348.196 346.264 347.948C346.456 347.7 346.664 347.536 346.888 347.456C347.12 347.376 347.34 347.336 347.548 347.336C347.764 347.336 347.968 347.376 348.16 347.456C348.36 347.528 348.508 347.68 348.604 347.912C348.7 348.136 348.704 348.364 348.616 348.596C348.528 348.82 348.372 348.98 348.148 349.076C347.932 349.172 347.732 349.184 347.548 349.112C347.364 349.04 347.232 348.944 347.152 348.824C347.072 348.696 347.016 348.576 346.984 348.464C346.904 348.168 346.796 348.02 346.66 348.02C346.508 348.02 346.34 348.284 346.156 348.812C345.972 349.332 345.88 349.884 345.88 350.468V352.76H346.48V353Z" fill="white"/>
<path d="M451.169 196.471L451.64 196.301L451.301 195.36L450.831 195.529L451.169 196.471ZM3.1691 357.471L4.11425 357.131L3.77605 356.19L2.8309 356.529L3.1691 357.471ZM7.89484 355.772L9.78513 355.093L9.44693 354.152L7.55664 354.831L7.89484 355.772ZM13.5657 353.734L15.456 353.055L15.1178 352.114L13.2275 352.793L13.5657 353.734ZM19.2366 351.696L21.1269 351.017L20.7887 350.076L18.8984 350.755L19.2366 351.696ZM24.9075 349.658L26.7978 348.979L26.4596 348.038L24.5693 348.717L24.9075 349.658ZM30.5784 347.62L32.4687 346.941L32.1305 346L30.2402 346.679L30.5784 347.62ZM36.2493 345.582L38.1396 344.903L37.8014 343.962L35.9111 344.641L36.2493 345.582ZM41.9201 343.544L43.8104 342.865L43.4722 341.924L41.582 342.603L41.9201 343.544ZM47.591 341.506L49.4813 340.827L49.1431 339.886L47.2528 340.565L47.591 341.506ZM53.2619 339.468L55.1522 338.789L54.814 337.848L52.9237 338.527L53.2619 339.468ZM58.9328 337.43L60.8231 336.751L60.4849 335.81L58.5946 336.489L58.9328 337.43ZM64.6037 335.392L66.494 334.713L66.1558 333.772L64.2655 334.451L64.6037 335.392ZM70.2746 333.355L72.1649 332.675L71.8267 331.734L69.9364 332.413L70.2746 333.355ZM75.9455 331.317L77.8358 330.637L77.4976 329.696L75.6073 330.375L75.9455 331.317ZM81.6164 329.279L83.5067 328.599L83.1685 327.658L81.2782 328.337L81.6164 329.279ZM87.2872 327.241L89.1775 326.561L88.8393 325.62L86.949 326.3L87.2872 327.241ZM92.9581 325.203L94.8484 324.523L94.5102 323.582L92.6199 324.262L92.9581 325.203ZM98.629 323.165L100.519 322.485L100.181 321.544L98.2908 322.224L98.629 323.165ZM104.3 321.127L106.19 320.447L105.852 319.506L103.962 320.186L104.3 321.127ZM109.971 319.089L111.861 318.409L111.523 317.468L109.633 318.148L109.971 319.089ZM115.642 317.051L117.532 316.371L117.194 315.43L115.303 316.11L115.642 317.051ZM121.313 315.013L123.203 314.333L122.865 313.392L120.974 314.072L121.313 315.013ZM126.983 312.975L128.874 312.295L128.536 311.354L126.645 312.034L126.983 312.975ZM132.654 310.937L134.545 310.257L134.206 309.316L132.316 309.996L132.654 310.937ZM138.325 308.899L140.216 308.219L139.877 307.278L137.987 307.958L138.325 308.899ZM143.996 306.861L145.886 306.181L145.548 305.24L143.658 305.92L143.996 306.861ZM149.667 304.823L151.557 304.144L151.219 303.202L149.329 303.882L149.667 304.823ZM155.338 302.785L157.228 302.106L156.89 301.164L155 301.844L155.338 302.785ZM161.009 300.747L162.899 300.068L162.561 299.126L160.671 299.806L161.009 300.747ZM166.68 298.709L168.57 298.03L168.232 297.089L166.341 297.768L166.68 298.709ZM172.351 296.671L174.241 295.992L173.903 295.051L172.012 295.73L172.351 296.671ZM178.021 294.633L179.912 293.954L179.574 293.013L177.683 293.692L178.021 294.633ZM183.692 292.595L185.583 291.916L185.244 290.975L183.354 291.654L183.692 292.595ZM189.363 290.557L191.254 289.878L190.915 288.937L189.025 289.616L189.363 290.557ZM195.034 288.519L196.924 287.84L196.586 286.899L194.696 287.578L195.034 288.519ZM200.705 286.481L202.595 285.802L202.257 284.861L200.367 285.54L200.705 286.481ZM206.376 284.443L208.266 283.764L207.928 282.823L206.038 283.502L206.376 284.443ZM212.047 282.405L213.937 281.726L213.599 280.785L211.709 281.464L212.047 282.405ZM217.718 280.367L219.608 279.688L219.27 278.747L217.379 279.426L217.718 280.367ZM223.389 278.329L225.279 277.65L224.941 276.709L223.05 277.388L223.389 278.329ZM229.059 276.291L230.95 275.612L230.612 274.671L228.721 275.35L229.059 276.291ZM234.73 274.253L236.621 273.574L236.282 272.633L234.392 273.312L234.73 274.253ZM240.401 272.215L242.292 271.536L241.953 270.595L240.063 271.274L240.401 272.215ZM246.072 270.177L247.962 269.498L247.624 268.557L245.734 269.236L246.072 270.177ZM251.743 268.139L253.633 267.46L253.295 266.519L251.405 267.198L251.743 268.139ZM257.414 266.101L259.304 265.422L258.966 264.481L257.076 265.16L257.414 266.101ZM263.085 264.063L264.975 263.384L264.637 262.443L262.747 263.122L263.085 264.063ZM268.756 262.025L270.646 261.346L270.308 260.405L268.417 261.084L268.756 262.025ZM274.427 259.987L276.317 259.308L275.979 258.367L274.088 259.046L274.427 259.987ZM280.097 257.949L281.988 257.27L281.65 256.329L279.759 257.008L280.097 257.949ZM285.768 255.911L287.659 255.232L287.32 254.291L285.43 254.97L285.768 255.911ZM291.439 253.873L293.33 253.194L292.991 252.253L291.101 252.932L291.439 253.873ZM297.11 251.835L299 251.156L298.662 250.215L296.772 250.894L297.11 251.835ZM302.781 249.798L304.671 249.118L304.333 248.177L302.443 248.856L302.781 249.798ZM308.452 247.76L310.342 247.08L310.004 246.139L308.114 246.818L308.452 247.76ZM314.123 245.722L316.013 245.042L315.675 244.101L313.785 244.78L314.123 245.722ZM319.794 243.684L321.684 243.004L321.346 242.063L319.455 242.743L319.794 243.684ZM325.465 241.646L327.355 240.966L327.017 240.025L325.126 240.705L325.465 241.646ZM331.135 239.608L333.026 238.928L332.688 237.987L330.797 238.667L331.135 239.608ZM336.806 237.57L338.697 236.89L338.358 235.949L336.468 236.629L336.806 237.57ZM342.477 235.532L344.368 234.852L344.029 233.911L342.139 234.591L342.477 235.532ZM348.148 233.494L350.038 232.814L349.7 231.873L347.81 232.553L348.148 233.494ZM353.819 231.456L355.709 230.776L355.371 229.835L353.481 230.515L353.819 231.456ZM359.49 229.418L361.38 228.738L361.042 227.797L359.152 228.477L359.49 229.418ZM365.161 227.38L367.051 226.7L366.713 225.759L364.823 226.439L365.161 227.38ZM370.832 225.342L372.722 224.662L372.384 223.721L370.493 224.401L370.832 225.342ZM376.503 223.304L378.393 222.624L378.055 221.683L376.164 222.363L376.503 223.304ZM382.173 221.266L384.064 220.587L383.726 219.645L381.835 220.325L382.173 221.266ZM387.844 219.228L389.735 218.549L389.396 217.607L387.506 218.287L387.844 219.228ZM393.515 217.19L395.406 216.511L395.067 215.569L393.177 216.249L393.515 217.19ZM399.186 215.152L401.076 214.473L400.738 213.532L398.848 214.211L399.186 215.152ZM404.857 213.114L406.747 212.435L406.409 211.494L404.519 212.173L404.857 213.114ZM410.528 211.076L412.418 210.397L412.08 209.456L410.19 210.135L410.528 211.076ZM416.199 209.038L418.089 208.359L417.751 207.418L415.861 208.097L416.199 209.038ZM421.87 207L423.76 206.321L423.422 205.38L421.531 206.059L421.87 207ZM427.541 204.962L429.431 204.283L429.093 203.342L427.202 204.021L427.541 204.962ZM433.211 202.924L435.102 202.245L434.764 201.304L432.873 201.983L433.211 202.924ZM438.882 200.886L440.773 200.207L440.434 199.266L438.544 199.945L438.882 200.886ZM444.553 198.848L446.444 198.169L446.105 197.228L444.215 197.907L444.553 198.848ZM450.224 196.81L451.169 196.471L450.831 195.529L449.886 195.869L450.224 196.81Z" fill="white"/>
<g clip-path="url(#clip0)">
<path d="M184.58 1C150.6 1 118.84 10.68 91.9102 27.42C90.6302 28.22 89.3602 29.03 88.1002 29.86C25.7202 67.06 -6.27978 145.06 12.5802 214.79C12.9102 216.31 13.2702 217.82 13.6402 219.33C21.4502 250.93 37.8202 279.19 60.1402 301.51C65.4502 306.82 71.1002 311.8 77.0602 316.4C78.2502 317.32 79.4502 318.23 80.6702 319.12C136.73 360.07 217.73 362.07 277.26 326.72C278.54 325.92 279.81 325.11 281.07 324.28C291.15 317.65 300.52 310.01 309.02 301.51C340.9 269.63 360.65 225.61 360.65 177.07C360.65 172.22 360.45 167.41 360.07 162.65C359.94 161.06 359.79 159.48 359.61 157.9C354.72 73.06 291.72 3.06 203.74 2.04C202.16 1.87 200.58 1.71 199 1.59C194.24 1.2 189.43 1 184.58 1ZM185.69 353.02C147.73 353.06 110.73 341.06 80.0802 319.92C78.8602 319.02 77.6502 318.11 76.4502 317.19C70.4602 312.56 64.7802 307.56 59.4402 302.21C37.0002 279.77 20.5302 251.34 12.6802 219.56C12.3102 218.05 11.9502 216.53 11.6202 215C-7.27978 146.06 22.7202 69.06 83.7702 31.57C85.0202 30.71 86.2702 29.86 87.5402 29.02C115.43 10.68 148.78 0 184.58 0C189.46 0 194.3 0.2 199.08 0.59C200.68 0.72 202.26 0.87 203.85 1.05C292.72 1.07 355.72 72.07 360.6 157.8C360.78 159.39 360.93 160.98 361.06 162.57C361.45 167.35 361.65 172.19 361.65 177.07C361.65 225.89 341.79 270.15 309.73 302.21C301.18 310.76 291.76 318.44 281.62 325.11C280.35 325.94 279.07 326.76 277.78 327.56C251.72 344.06 221.72 352.06 190.52 352.98C188.92 353.02 187.31 353.03 185.69 353.02Z" fill="white"/>
<path d="M65.0803 54.75C19.7203 96.06 3.72027 162.06 21.0203 219.65C21.3903 220.92 21.7803 222.19 22.1803 223.44C23.3903 227.21 24.7403 230.91 26.2303 234.53C28.1603 239.21 30.2403 243.86 32.4403 248.47C32.8703 249.32 33.3003 250.19 33.7203 251.05C40.3803 264.93 48.3803 278.13 57.5003 290.21C60.2003 293.79 63.1503 297.18 66.3203 300.36C69.4303 303.48 72.6703 306.47 76.0103 309.34C77.1303 310.3 78.2503 311.24 79.3903 312.17C134.72 357.06 219.72 363.06 280.13 324.2C281.4 323.41 282.67 322.61 283.92 321.79C293.95 315.23 303.29 307.68 311.8 299.29C343.46 267.93 362.99 224.85 362.96 177.48C362.95 172.38 362.56 167.38 361.92 162.44C361.76 161.21 361.59 159.98 361.4 158.75C354.72 126.05 344.72 93.05 328.72 63.05C304.72 17.05 246.72 14.05 202.19 5.25997C201.09 5.13997 199.99 5.02997 198.87 4.93997C197.76 4.84997 196.64 4.76997 195.51 4.69997C193.07 4.54997 190.6 4.47997 188.12 4.49997C179.52 4.52997 171.08 5.22997 162.89 6.53997C155.09 7.80997 147.44 9.54997 139.97 11.74C124.05 16.41 108.97 23.15 95.1603 31.78C94.4403 32.23 93.7203 32.69 93.0103 33.15C83.7103 39.04 75.7103 46.04 67.8603 52.2C66.9303 53.05 66.0003 53.9 65.0803 54.75ZM64.4203 54.07C73.7303 46.07 82.7303 39.07 92.5503 32.28C93.2603 31.82 93.9703 31.36 94.6903 30.91C95.4103 30.46 96.1303 30.02 96.8503 29.58C110.1 21.57 124.46 15.28 139.57 10.84C146.29 8.85997 153.15 7.23997 160.14 5.98997C169.2 4.39997 178.56 3.57997 188.12 3.51997C190.92 3.49997 193.72 3.57997 196.47 3.75997C197.67 3.83997 198.87 3.92997 200.05 4.03997C245.72 12.06 305.72 16.06 329.72 63.06C345.72 93.06 354.72 125.06 362.28 157.69C362.49 158.99 362.68 160.28 362.85 161.58C363.54 166.79 363.94 172.07 363.96 177.47C364 225.16 344.19 268.54 312.5 300C303.98 308.43 294.61 316 284.56 322.59C283.3 323.41 282.03 324.22 280.76 325.01C219.73 364.06 136.73 357.06 79.6903 313.63C78.8703 312.98 78.0503 312.32 77.2403 311.65C73.1903 308.31 69.3103 304.78 65.6103 301.08C62.1803 297.63 59.0203 293.98 56.1403 290.13C47.2803 278.32 39.5503 265.42 33.0503 251.97C30.5803 246.85 28.1903 241.66 25.9103 236.51C23.7703 231.67 21.9303 226.66 20.3703 221.53C19.9803 220.25 19.6103 218.95 19.2503 217.65C2.72027 162.06 19.7203 97.06 61.7003 56.67C62.5903 55.79 63.5003 54.92 64.4203 54.07Z" fill="white"/>
<path d="M70.6 57.11C27.72 98.06 7.71999 166.06 29.57 223.01C30.01 224.21 30.47 225.41 30.95 226.59C31.9 228.96 32.93 231.28 34.02 233.57C36.15 238 38.33 242.46 40.58 246.94C41.04 247.77 41.49 248.62 41.92 249.49C48.58 263.13 56 276.54 64.18 288.95C66.62 292.66 69.43 296.1 72.54 299.24C74.71 301.41 76.94 303.53 79.23 305.58C80.38 306.61 81.54 307.61 82.71 308.61C137.72 354.07 218.72 359.07 279.23 324C280.52 323.25 281.79 322.49 283.06 321.71C294.47 314.69 305.06 306.42 314.64 297.09C346.07 266.25 365.49 224.12 365.34 177.91C365.32 171.64 364.46 165.59 363.26 159.65C363.02 158.46 362.76 157.28 362.49 156.09C348.72 120.07 345.72 77.07 318.72 48.07C287.72 15.07 239.72 17.07 199.15 8.28004C197.94 8.18004 196.71 8.11004 195.47 8.07004C194.23 8.03004 192.99 8.02004 191.74 8.04004C183.28 8.10004 175.01 8.84004 167.03 10.24C159.43 11.57 151.95 13.37 144.63 15.54C130.33 19.76 116.65 25.54 103.94 32.89C102.78 33.56 101.64 34.24 100.5 34.94C90.73 41.07 80.73 46.07 73.38 54.65C72.44 55.46 71.51 56.28 70.6 57.11ZM69.94 56.43C79.72 49.06 88.72 41.06 98.95 34.68C100 34.02 101.07 33.37 102.14 32.74C115.26 25.01 129.42 18.99 144.22 14.61C150.81 12.66 157.51 10.99 164.32 9.68004C173.15 7.99004 182.32 7.17004 191.72 7.03004C193.13 7.01004 194.53 7.02004 195.93 7.07004C197.33 7.12004 198.71 7.20004 200.08 7.32004C243.71 17.05 300.71 14.05 326.71 57.05C346.71 89.05 353.71 124.05 364.12 158.57C364.38 159.82 364.63 161.08 364.85 162.35C365.75 167.41 366.3 172.56 366.32 177.88C366.5 224.43 346.7 266.98 315.31 297.79C305.77 307.15 295.2 315.45 283.79 322.48C282.52 323.26 281.24 324.03 279.96 324.78C217.71 360.06 134.71 354.06 80.88 308.3C80.09 307.63 79.31 306.96 78.54 306.28C76.23 304.23 73.98 302.12 71.81 299.94C68.42 296.51 65.41 292.81 62.81 288.84C54.8 276.68 47.64 263.6 41.22 250.39C38.78 245.36 36.26 240.34 33.7 235.51C31.9 232.11 30.3 228.58 28.88 224.95C28.41 223.74 27.96 222.52 27.53 221.28C7.71999 166.06 25.72 99.06 67.23 59.02C68.12 58.14 69.02 57.28 69.94 56.43Z" fill="white"/>
<path d="M76.14 59.4799C34.72 102.06 11.72 170.06 38.48 225.98C39 227.11 39.54 228.22 40.1 229.32C40.66 230.42 41.24 231.51 41.83 232.59C44.15 236.76 46.45 241.04 48.74 245.4C49.23 246.21 49.7 247.05 50.13 247.92C56.75 261.34 63.62 274.96 70.87 287.68C73.06 291.53 75.71 295.02 78.78 298.11C79.84 299.17 80.91 300.22 81.99 301.25C83.08 302.28 84.18 303.3 85.3 304.3C137.72 351.06 219.72 356.06 279.48 323.06C280.86 322.29 282.24 321.5 283.6 320.7C295.87 313.45 307.24 304.76 317.48 294.87C348.77 264.64 367.94 223.36 367.72 178.33C367.69 172.16 366.57 166.29 365.12 160.53C364.83 159.38 364.52 158.23 364.21 157.08C350.72 122.07 346.72 83.07 323.72 53.07C294.72 16.07 241.72 21.07 199.11 11.59C197.87 11.54 196.62 11.53 195.37 11.57C187.05 11.66 178.95 12.45 171.18 13.93C163.77 15.34 156.47 17.17 149.29 19.32C135.29 23.4799 121.81 29.02 109.24 36.11C108.1 36.75 106.96 37.41 105.83 38.08C96.72 44.08 87.72 50.08 78.89 57.09C77.97 57.87 77.05 58.6699 76.14 59.4799ZM75.49 58.7999C83.73 50.07 93.73 44.07 104.3 37.77C105.34 37.13 106.39 36.51 107.44 35.9C120.43 28.44 134.39 22.6899 148.87 18.38C155.33 16.45 161.87 14.75 168.51 13.37C177.1 11.59 186.09 10.75 195.34 10.55C196.75 10.52 198.17 10.53 199.57 10.59C246.72 22.05 315.72 17.05 335.72 69.05C346.72 98.05 355.72 127.05 364.98 155.8C365.34 157.02 365.68 158.23 366 159.45C367.6 165.54 368.69 171.74 368.72 178.29C368.99 223.7 349.21 265.4 318.17 295.58C307.99 305.47 296.66 314.16 284.42 321.41C283.06 322.22 281.69 323 280.31 323.77C218.71 358.06 135.71 351.06 82.41 302.99C81.67 302.31 80.93 301.62 80.21 300.92C79.48 300.22 78.77 299.51 78.06 298.8C74.69 295.39 71.85 291.64 69.54 287.55C62.39 275.04 55.79 261.79 49.45 248.81C47.04 243.87 44.4 239.03 41.55 234.5C40.88 233.44 40.24 232.37 39.63 231.28C39.02 230.19 38.43 229.08 37.86 227.96C11.72 172.06 32.72 104.06 72.78 61.36C73.66 60.49 74.56 59.6299 75.49 58.7999Z" fill="white"/>
<path d="M81.7101 61.8499C40.7201 105.06 15.7201 178.06 49.6501 231.62C50.2801 232.6 50.9001 233.59 51.5101 234.59C53.3601 237.59 55.1501 240.69 56.9001 243.87C57.4301 244.66 57.9201 245.48 58.3501 246.36C64.9401 259.56 71.2601 273.42 77.5701 286.41C79.0201 289.41 80.7901 292.14 82.8601 294.6C83.5501 295.42 84.2701 296.21 85.0301 296.97C134.73 346.06 216.73 355.06 278.34 322.75C279.73 322.02 281.12 321.28 282.49 320.52C296.24 312.9 308.97 303.51 320.35 292.65C351.44 262.97 370.42 222.6 370.13 178.74C370.09 172.67 368.72 166.98 367.01 161.4C366.67 160.28 366.31 159.17 365.95 158.06C356.74 130.07 344.74 102.07 336.74 74.07C319.74 16.07 243.74 26.07 194.95 15.2C193.6 15.26 192.26 15.34 190.93 15.44C185.6 15.84 180.39 16.56 175.35 17.6C168.14 19.09 161.01 20.96 153.97 23.08C140.27 27.18 127 32.4699 114.56 39.2999C113.43 39.9199 112.31 40.55 111.19 41.2C101.75 47.07 92.7501 52.07 84.4501 59.52C83.5101 60.28 82.6101 61.0599 81.7101 61.8499ZM81.0501 61.1699C90.7201 52.0599 101.72 46.06 112.75 39.06C114.04 38.34 115.33 37.6399 116.64 36.9599C128.37 30.7999 140.79 25.98 153.54 22.16C159.87 20.25 166.25 18.52 172.71 17.07C178.98 15.67 185.5 14.83 192.2 14.39C193.32 14.32 194.44 14.25 195.57 14.2C242.72 25.06 308.72 16.0599 333.72 64.0599C348.72 93.0599 353.72 127.06 366.68 156.81C367.1 157.99 367.5 159.17 367.87 160.35C369.75 166.26 371.07 172.26 371.12 178.71C371.47 222.99 351.73 263.83 321.03 293.38C309.77 304.22 297.12 313.59 283.44 321.19C282.07 321.95 280.69 322.69 279.3 323.42C217.72 356.07 135.72 346.07 84.3001 297.67C83.4701 296.82 82.6701 295.95 81.9201 295.05C79.6701 292.35 77.7801 289.42 76.2501 286.27C70.0001 273.4 63.9301 259.98 57.6701 247.24C55.2901 242.39 52.5401 237.74 49.3901 233.51C48.6601 232.53 47.9601 231.53 47.2901 230.51C14.7201 178.06 39.7201 106.06 78.3601 63.7299C79.2301 62.8599 80.1301 61.9999 81.0501 61.1699Z" fill="white"/>
<path d="M87.3104 64.2399C46.7204 108.07 18.7204 185.07 61.3904 236.32C62.0204 237.29 62.6504 238.28 63.2604 239.28C63.8704 240.28 64.4804 241.3 65.0704 242.33C65.6304 243.09 66.1404 243.91 66.5804 244.78C73.1304 257.76 78.8904 271.88 84.2704 285.13C85.1104 287.21 86.1204 289.13 87.2904 290.91C87.8704 291.8 88.5004 292.65 89.1604 293.47C135.72 342.06 216.72 352.06 277.19 322.28C278.59 321.6 279.99 320.9 281.37 320.18C296.59 312.28 310.69 302.23 323.2 290.43C354.09 261.3 372.88 221.84 372.52 179.15C372.46 171.99 370.14 165.48 367.66 159.04C367.2 157.85 366.73 156.66 366.26 155.46C352.73 128.06 346.73 98.0599 336.73 69.0599C322.73 27.0599 270.73 32.0599 232.73 25.0599C225.73 23.0599 220.73 21.0599 213.73 19.0599C207.73 18.0599 200.73 19.0599 194.7 18.9799C193.39 19.0899 192.1 19.2199 190.81 19.3599C186.94 19.8099 183.16 20.4399 179.49 21.2599C172.47 22.8299 165.53 24.7399 158.63 26.8299C146.44 30.5099 134.54 35.0099 123.23 40.7299C122.1 41.2999 120.97 41.8799 119.86 42.4799C109.72 49.0599 99.7204 55.0599 90.0004 61.9599C89.0904 62.6999 88.1904 63.4599 87.3104 64.2399ZM86.6504 63.5499C96.7304 55.0599 107.73 49.0599 118.06 42.2199C119.33 41.5299 120.62 40.8599 121.91 40.1999C133.52 34.2799 145.74 29.6799 158.21 25.9199C164.4 24.0399 170.63 22.2699 176.92 20.7499C181.99 19.5299 187.27 18.7199 192.69 18.2099C193.77 18.1099 194.86 18.0199 195.96 17.9399C244.73 30.0499 323.73 15.0499 339.73 76.0499C346.73 104.05 355.73 129.05 366.93 154.3C367.42 155.47 367.91 156.63 368.39 157.79C371.25 164.66 373.45 171.49 373.53 179.11C373.97 222.25 354.25 262.24 323.89 291.16C311.55 302.92 297.6 312.92 282.48 320.79C281.11 321.51 279.72 322.2 278.33 322.88C216.74 353.06 136.74 342.06 88.2404 293.9C87.5104 293 86.8304 292.06 86.2004 291.1C84.9404 289.17 83.8704 287.13 82.9904 284.97C77.5904 271.75 72.0804 258.15 65.9104 245.66C64.3404 242.49 62.5504 239.45 60.5104 236.61C60.0004 235.9 59.4704 235.2 58.9304 234.52C17.7204 184.06 46.7204 110.06 83.9704 66.1099C84.8304 65.2299 85.7204 64.3699 86.6504 63.5499Z" fill="white"/>
<path d="M92.9503 66.64C61.7303 98.07 48.7303 143.07 45.7303 185.07C44.7303 205.07 58.7303 222.07 71.3903 237.85C72.0203 238.81 72.6403 239.8 73.2403 240.79C73.8303 241.53 74.3603 242.33 74.8103 243.21C81.3203 255.98 86.5203 270.39 90.9803 283.85C91.3403 284.93 91.7403 285.96 92.2003 286.95C134.73 339.06 215.73 348.06 276.07 321.66C277.48 321.02 278.88 320.36 280.27 319.69C296.96 311.58 312.42 300.93 326.07 288.21C356.76 259.62 375.36 221.08 374.92 179.56C374.85 172.53 372.16 166.25 369.39 160.01C368.88 158.86 368.36 157.71 367.83 156.56C352.73 129.06 346.73 99.06 338.73 67.06C332.73 47.06 310.73 39.06 289.73 36.06C264.73 32.06 241.73 31.06 217.73 24.06C210.73 21.06 202.73 21.06 194.67 22.94C193.41 23.1 192.16 23.28 190.92 23.48C188.44 23.88 186.01 24.37 183.64 24.94C176.82 26.59 170.05 28.53 163.29 30.6C151.85 34.08 140.6 38.18 129.84 43.35C128.49 44 127.16 44.66 125.83 45.34C115.73 51.06 104.73 57.06 95.6103 64.41C94.7103 65.14 93.8203 65.88 92.9503 66.64ZM92.2803 65.95C101.72 57.06 112.72 51.06 123.37 45.38C124.63 44.72 125.9 44.07 127.18 43.44C138.66 37.77 150.69 33.39 162.87 29.69C168.93 27.83 175 26.03 181.12 24.44C184.08 23.68 187.11 23.07 190.21 22.59C191.24 22.43 192.29 22.28 193.33 22.15C201.72 20.06 209.72 21.06 218.72 22.06C223.72 23.06 227.72 25.06 232.72 27.06C269.72 37.06 324.72 25.06 338.72 68.06C348.72 97.06 351.72 128.06 368.46 155.43C369 156.55 369.54 157.67 370.08 158.78C373.31 165.45 375.82 172.02 375.91 179.52C376.43 221.53 356.74 260.65 326.73 288.95C313.32 301.59 298.06 312.18 281.52 320.23C280.14 320.9 278.75 321.56 277.36 322.19C217.72 349.06 137.72 340.06 92.5703 289.93C91.9803 288.95 91.4403 287.95 90.9703 286.9C90.4903 285.86 90.0703 284.78 89.7003 283.67C85.1703 270.11 80.2103 256.33 74.1203 244.07C73.3503 242.51 72.5003 241 71.5903 239.54C71.1303 238.81 70.6503 238.1 70.1503 237.39C21.7203 190.06 54.7203 113.06 89.6203 68.49C90.4703 67.61 91.3503 66.76 92.2803 65.95Z" fill="#2C74E0"/>
<path d="M98.6301 69.05C67.7301 101.07 52.7301 147.07 53.7301 191.07C53.7301 210.07 68.7301 225.07 81.4101 239.25C82.0301 239.97 82.5801 240.76 83.0301 241.64C88.8501 252.93 93.1701 265.99 96.5801 278.45C96.9601 279.83 97.3301 281.21 97.6801 282.58C114.72 315.07 153.72 327.07 188.72 333.07C219.72 337.07 250.72 332.07 279.17 319.06C280.56 318.43 281.95 317.77 283.33 317.11C299.88 309.08 315.27 298.56 328.92 286C359.41 257.96 377.81 220.33 377.31 179.98C377.22 173.07 374.18 167.03 371.1 161C370.53 159.89 369.96 158.78 369.38 157.68C368.8 156.57 368.22 155.46 367.63 154.35C354.71 130.08 344.71 104.08 343.71 76.08C342.71 59.08 325.71 47.08 309.71 42.08C278.71 34.08 247.71 37.08 217.71 27.08C210.71 25.08 202.71 25.08 194.86 27.1C193.65 27.31 192.45 27.54 191.27 27.8C190.09 28.06 188.92 28.33 187.77 28.63C181.14 30.36 174.55 32.34 167.94 34.38C156.76 37.81 145.71 41.72 135.07 46.66C133.74 47.28 132.42 47.91 131.1 48.56C120.7 54.07 110.7 59.07 101.22 66.89C100.36 67.59 99.4901 68.31 98.6301 69.05ZM97.9501 68.36C106.72 60.06 118.72 55.06 128.67 48.54C129.92 47.9 131.18 47.29 132.44 46.68C143.79 41.25 155.63 37.1 167.53 33.46C173.46 31.62 179.37 29.79 185.31 28.13C186.58 27.78 187.88 27.45 189.18 27.16C190.49 26.87 191.81 26.6 193.15 26.37C201.72 25.07 210.72 23.07 218.72 26.07C244.72 34.07 269.72 35.07 296.72 38.07C317.72 41.07 340.72 51.07 343.72 73.07C347.72 102.07 352.72 129.07 368.23 153.3C368.82 154.39 369.41 155.48 370 156.55C370.59 157.62 371.18 158.7 371.78 159.76C375.39 166.25 378.2 172.54 378.31 179.92C378.91 220.79 359.25 259.06 329.58 286.73C315.11 300.23 298.55 311.34 280.61 319.51C279.23 320.14 277.84 320.75 276.45 321.34C218.72 346.05 131.72 338.05 96.4101 282.38C96.0401 280.99 95.6701 279.6 95.2901 278.21C91.8501 265.7 87.7401 253.31 82.3301 242.49C81.9501 241.73 81.5501 240.98 81.1201 240.24C27.7201 195.06 59.7201 117.06 95.3101 70.9C96.1501 70.02 97.0201 69.17 97.9501 68.36Z" fill="white"/>
<path d="M104.35 71.4799C69.7201 117.07 33.7201 197.07 91.2501 240.06C91.8901 241.29 92.5101 242.55 93.1101 243.84C96.8601 251.93 99.6901 260.94 101.89 269.9C102.2 271.18 102.5 272.46 102.79 273.73C129.72 335.07 221.72 343.07 278.11 318.27C279.51 317.68 280.9 317.07 282.28 316.44C300.25 308.28 316.99 297.2 331.79 283.77C362.07 256.27 380.29 219.56 379.72 180.38C379.62 173.59 376.23 167.79 372.84 161.97C372.22 160.9 371.59 159.84 370.96 158.77C370.33 157.7 369.7 156.63 369.07 155.56C355.73 133.07 346.73 108.07 345.73 82.0699C343.73 35.0699 283.73 42.0699 247.73 38.0699C239.73 37.0699 233.73 32.0699 225.73 30.0699C213.73 28.0699 202.73 30.0699 191.95 32.2899C190.88 32.5899 189.81 32.8999 188.73 33.2099C183.37 34.7699 178.02 36.4499 172.63 38.1399C161.71 41.5199 150.85 45.2399 140.35 49.9499C139.04 50.5399 137.73 51.1399 136.43 51.7699C125.73 56.0799 116.73 63.0799 106.93 69.3799C106.05 70.0499 105.2 70.7599 104.35 71.4799ZM103.67 70.7899C113.72 62.0699 125.72 56.0699 137.71 49.9099C138.96 49.3299 140.21 48.7699 141.47 48.2299C151.53 43.8599 161.87 40.3999 172.2 37.2199C178 35.4099 183.74 33.5399 189.52 31.8099C190.75 31.4399 192.01 31.1099 193.28 30.7999C201.73 28.0599 210.73 26.0599 218.73 29.0599C245.73 37.0599 271.73 39.0599 299.73 41.0599C320.73 43.0599 346.73 56.0599 346.73 79.0599C346.73 106.06 354.73 132.06 369.64 154.54C370.27 155.59 370.91 156.63 371.55 157.66C372.19 158.69 372.84 159.72 373.48 160.74C377.47 167.04 380.58 173.06 380.71 180.32C381.39 220.06 361.76 257.46 332.44 284.51C318.03 297.81 301.61 308.76 283.87 316.83C282.51 317.45 281.13 318.05 279.76 318.64C261.73 326.06 242.73 331.06 223.73 331.06C179.73 332.06 115.73 321.06 101.52 273.41C101.23 272.14 100.93 270.87 100.62 269.61C98.4501 260.77 95.7601 252.22 92.2801 244.51C91.7301 243.29 91.1601 242.08 90.5601 240.91C32.7201 198.06 67.7201 121.06 101.06 73.3199C101.88 72.4399 102.74 71.5899 103.67 70.7899Z" fill="white"/>
<path d="M110.13 73.93C76.73 121.07 38.73 198.07 99.49 238.48C100.13 239.69 100.74 240.94 101.32 242.21C104.45 249.08 106.75 256.78 108.44 264.56C108.72 265.86 108.99 267.16 109.24 268.45C108.73 297.06 139.73 311.06 162.73 319.06C199.73 333.06 240.73 333.06 277.09 317.34C278.49 316.79 279.88 316.22 281.26 315.63C300.62 307.4 318.72 295.82 334.65 281.54C364.72 254.59 382.75 218.79 382.12 180.78C382.01 174.12 378.26 168.55 374.56 162.93C373.21 160.88 371.84 158.83 370.49 156.77C369.81 155.74 369.13 154.7 368.46 153.65C353.73 132.06 345.73 107.06 348.73 80.06C350.73 65.06 335.73 55.06 322.73 50.06C290.73 39.06 257.73 47.06 225.73 34.06C214.73 30.06 200.73 33.06 189.86 37.88C188.82 38.21 187.78 38.54 186.73 38.87C183.6 39.87 180.46 40.88 177.3 41.88C167.97 44.79 158.64 47.86 149.51 51.59C148.21 52.12 146.9 52.67 145.61 53.23C134.74 59.06 122.74 64.06 112.66 71.86C111.79 72.53 110.95 73.22 110.13 73.93ZM109.44 73.23C120.73 66.06 130.73 59.06 142.99 53.14C144.22 52.59 145.46 52.06 146.7 51.54C156.63 47.38 166.79 44.1 176.86 40.97C180.64 39.78 184.38 38.53 188.11 37.3C189.04 36.99 189.98 36.69 190.91 36.38C207.72 32.05 226.72 31.05 243.72 37.05C277.72 51.05 339.72 29.05 346.72 77.05C350.72 104.05 353.72 130.05 369.02 152.7C369.69 153.73 370.36 154.75 371.04 155.76C372.4 157.78 373.79 159.76 375.18 161.71C379.56 167.83 382.96 173.57 383.1 180.71C383.86 219.31 364.25 255.85 335.29 282.28C319.83 296.38 302.13 307.81 283.06 315.93C281.59 316.55 280.12 317.16 278.63 317.74C238.72 334.05 193.72 333.05 154.72 317.05C133.72 307.05 107.72 295.05 107.96 268.06C107.71 266.78 107.45 265.5 107.17 264.23C105.51 256.63 103.34 249.37 100.45 242.85C99.92 241.64 99.36 240.46 98.77 239.31C36.71 200.05 77.71 124.05 106.84 75.75C107.66 74.88 108.51 74.03 109.44 73.23Z" fill="white"/>
<path d="M115.94 76.3899C85.7204 123.07 43.7204 199.07 107.7 236.89C108.34 238.08 108.93 239.31 109.5 240.57C112.04 246.25 113.88 252.6 115.2 259.13C115.46 260.44 115.71 261.75 115.93 263.06C113.72 299.07 152.72 313.07 181.72 321.07C212.72 330.07 245.72 327.07 276.11 316.29C277.5 315.78 278.89 315.24 280.27 314.7C300.99 306.47 320.43 294.42 337.5 279.32C367.36 252.91 385.2 218.03 384.51 181.19C384.39 174.65 380.29 169.32 376.28 163.91C374.83 161.95 373.36 159.98 371.9 157.99C371.17 157 370.45 156 369.74 154.99C352.72 133.07 348.72 106.07 349.72 79.0699C350.72 62.0699 330.72 51.0699 314.72 50.0699C284.72 47.0699 254.72 47.0699 225.72 37.0699C213.72 33.0699 201.72 40.0699 191.15 42.6299C190.14 42.9699 189.12 43.3099 188.1 43.6399C186.06 44.3099 184.02 44.9799 181.95 45.6399C171.56 48.9299 161.08 52.2599 150.85 56.5199C149.57 57.0499 148.29 57.5999 147.02 58.1599C137.72 63.0599 127.72 67.0599 118.41 74.3799C117.58 75.0299 116.75 75.6999 115.94 76.3899ZM115.24 75.6899C123.72 66.0599 137.72 62.0599 148.25 56.3699C149.47 55.8499 150.69 55.3399 151.92 54.8499C161.73 50.9099 171.71 47.8299 181.52 44.7299C184.29 43.8499 187.03 42.9299 189.76 41.9899C190.67 41.6799 191.58 41.3599 192.48 41.0499C203.72 36.0699 214.72 35.0699 226.72 35.0699C236.72 35.0699 244.72 43.0699 254.72 45.0699C286.72 50.0699 327.72 36.0699 347.72 69.0699C356.72 83.0699 348.72 98.0699 350.72 113.07C353.72 129.07 361.72 142.07 370.3 154.07C371 155.06 371.72 156.04 372.45 157.01C373.9 158.95 375.39 160.85 376.89 162.7C381.67 168.63 385.35 174.09 385.51 181.12C386.35 218.59 366.77 254.26 338.15 280.07C321.57 295.03 302.49 306.93 282 315.03C280.54 315.61 279.06 316.17 277.59 316.71C225.74 335.07 164.74 329.07 121.74 291.07C113.74 284.07 117.74 273.07 114.72 262.65C114.5 261.37 114.26 260.09 114.01 258.83C112.73 252.53 110.99 246.58 108.66 241.21C108.14 240.02 107.6 238.86 107.02 237.72C42.7404 201.05 85.7404 127.05 112.71 78.2099C113.49 77.3299 114.33 76.4799 115.24 75.6899Z" fill="white"/>
<path d="M121.8 78.86C116.72 83.06 112.72 88.0599 111.72 93.0599C105.72 113.06 96.7203 131.06 86.7203 150.06C67.7203 186.06 83.7203 217.06 115.93 235.3C116.56 236.47 117.15 237.68 117.69 238.93C119.66 243.43 121.11 248.43 122.15 253.64C122.41 254.94 122.65 256.25 122.86 257.58C125.71 268.07 120.71 281.07 128.71 289.07C168.71 327.07 228.71 333.07 278.7 313.85C280.18 313.31 281.66 312.74 283.14 312.16C303.76 304 323.2 292.06 340.36 277.08C370.01 251.21 387.66 217.25 386.9 181.58C386.76 175.16 382.31 170.07 377.99 164.87C375.66 162.06 373.28 159.22 371.01 156.31C370.25 155.34 369.51 154.36 368.78 153.36C353.72 133.07 351.72 109.07 351.72 85.07C350.72 37.07 283.72 61.07 251.72 46.07C231.72 38.07 211.72 40.07 192.62 47.4C191.63 47.74 190.63 48.07 189.63 48.41C188.63 48.74 187.63 49.07 186.62 49.39C176.49 52.63 166.21 55.77 156.1 59.8C154.84 60.3 153.58 60.82 152.32 61.36C142.71 66.07 132.71 71.07 124.2 76.9C123.4 77.53 122.59 78.19 121.8 78.86ZM121.1 78.1699C129.73 72.0699 139.73 66.07 149.92 61.13C151.12 60.61 152.33 60.1 153.53 59.6C164.39 55.16 175.44 51.92 186.2 48.48C187.1 48.19 188 47.9 188.89 47.6C189.78 47.3 190.67 46.99 191.56 46.68C209.72 40.06 231.72 36.06 250.72 45.06C282.72 60.06 347.72 35.0599 351.72 82.0599C354.72 106.06 351.72 133.06 369.38 152.48C370.1 153.47 370.83 154.44 371.58 155.39C373.82 158.26 376.2 161.02 378.58 163.66C383.77 169.41 387.72 174.59 387.9 181.5C388.81 217.83 369.26 252.64 341 277.83C323.3 293.6 302.87 305.94 280.99 313.95C279.53 314.48 278.07 315 276.6 315.49C225.72 333.05 164.72 327.05 126.72 286.05C119.72 279.05 123.72 267.05 121.67 257.17C121.46 255.9 121.24 254.64 120.99 253.4C119.99 248.45 118.63 243.78 116.83 239.55C116.33 238.37 115.8 237.23 115.23 236.12C46.7203 204.05 95.7203 129.05 118.59 80.68C119.36 79.8 120.19 78.9499 121.1 78.1699Z" fill="white"/>
<path d="M127.7 81.33C123.73 84.06 120.73 89.06 119.73 93.06C112.73 115.06 104.73 136.06 93.7302 156.06C78.7302 182.06 82.7302 215.06 114.73 226.06C118.73 227.06 122.73 229.06 124.17 233.69C124.8 234.84 125.37 236.03 125.9 237.27C127.33 240.62 128.43 244.28 129.24 248.13C129.51 249.41 129.76 250.71 129.97 252.02C127.73 276.06 137.73 297.06 161.73 307.06C198.73 324.06 239.73 325.06 277.53 312.7C279.01 312.2 280.48 311.68 281.95 311.14C303.97 303.05 324.84 290.64 343.23 274.81C372.67 249.48 390.13 216.44 389.31 181.95C389.16 175.66 384.36 170.8 379.73 165.8C377.24 163.11 374.71 160.4 372.3 157.59C371.5 156.65 370.71 155.71 369.95 154.75C356.72 137.05 350.72 114.05 353.72 91.05C359.72 39.05 285.72 66.05 254.72 50.05C233.72 40.05 210.72 46.05 191.29 53.1C190.06 53.5 188.82 53.89 187.58 54.29C178.9 57.05 170.09 59.72 161.36 63.05C160.11 63.53 158.87 64.02 157.63 64.52C147.72 68.05 138.72 74.05 130.04 79.4C129.25 80.03 128.46 80.67 127.7 81.33ZM126.98 80.63C134.72 73.06 145.72 69.06 155.22 64.24C156.41 63.74 157.6 63.26 158.8 62.8C168.2 59.13 177.68 56.36 186.92 53.46C188.24 53.05 189.55 52.63 190.86 52.21C213.72 41.06 237.72 43.06 262.72 50.06C292.72 60.06 356.72 43.06 354.72 88.06C353.72 111.06 355.72 135.06 370.54 153.9C371.29 154.85 372.07 155.79 372.86 156.71C375.23 159.47 377.75 162.11 380.28 164.62C385.89 170.18 390.1 175.09 390.29 181.88C391.27 217.08 371.75 251.02 343.85 275.59C325.04 292.15 303.27 304.86 280.07 312.72C278.62 313.21 277.16 313.68 275.7 314.14C226.71 329.07 165.71 325.07 131.71 282.07C126.71 275.07 129.71 264.07 129.35 255.52C129.19 254.24 129.01 252.97 128.8 251.72C127.97 246.73 126.73 242.07 125 237.89C124.52 236.73 124 235.61 123.44 234.52C108.71 222.07 85.7102 216.07 84.7102 196.07C83.7102 167.07 100.71 142.07 111.71 115.07C113.71 109.07 115.71 103.07 116.71 97.07C117.71 92.07 121.71 88.07 124.52 83.17C125.28 82.27 126.09 81.41 126.98 80.63Z" fill="white"/>
<path d="M133.62 83.78C128.73 87.06 125.73 93.06 124.73 98.06C121.73 121.06 110.73 141.06 98.7302 161.06C78.7302 196.06 103.73 218.06 132.39 232.06C133.01 233.19 133.57 234.37 134.09 235.6C135.47 238.92 136.48 242.59 137.17 246.46C137.4 247.75 137.6 249.06 137.77 250.39C140.73 261.07 133.73 274.07 140.73 283.07C173.73 323.07 230.73 326.07 276.43 311.42C277.9 310.96 279.36 310.48 280.82 309.98C304.18 302.02 326.46 289.2 346.09 272.55C375.31 247.75 392.58 215.64 391.71 182.32C391.55 176.15 386.41 171.53 381.45 166.74C377.92 163.33 374.33 159.85 371.11 156.15C370.31 155.23 369.52 154.29 368.77 153.33C351.72 134.08 352.72 110.08 357.72 86.08C361.72 71.08 344.72 62.08 330.72 60.08C306.72 55.08 281.72 66.08 260.72 55.08C236.72 42.08 213.72 51.08 191.89 58.14C190.53 58.57 189.16 58.99 187.79 59.42C179.57 61.97 171.22 64.49 162.93 67.7C161.7 68.18 160.47 68.67 159.25 69.17C151.71 73.08 142.71 76.08 135.89 81.92C135.12 82.51 134.36 83.14 133.62 83.78ZM132.9 83.08C140.73 76.06 150.73 72.06 160.54 67.34C161.72 66.87 162.9 66.42 164.08 65.98C172.04 63.02 180.02 60.71 187.81 58.33C189.11 57.93 190.4 57.54 191.69 57.14C213.73 49.06 238.73 43.06 261.73 53.06C290.73 67.06 334.73 43.06 356.73 76.06C364.73 88.06 356.73 99.06 354.73 111.06C351.73 127.06 361.73 140.06 369.42 152.48C370.16 153.44 370.92 154.37 371.71 155.29C374.87 158.96 378.43 162.38 381.99 165.54C388.03 170.91 392.49 175.55 392.7 182.22C393.75 216.28 374.26 249.36 346.71 273.31C326.8 290.62 303.71 303.66 279.25 311.31C277.81 311.76 276.37 312.19 274.92 312.6C228.72 325.06 176.72 320.06 141.72 286.06C131.72 277.06 139.72 262.06 136.63 249.98C136.47 248.72 136.27 247.49 136.05 246.28C135.38 242.66 134.44 239.27 133.19 236.17C132.73 235.02 132.22 233.92 131.67 232.86C129.72 230.05 128.72 227.05 125.72 226.05C108.72 222.05 90.7202 210.05 90.7202 194.05C91.7202 161.05 117.72 133.05 122.72 99.05C123.72 95.05 125.72 89.05 130.5 85.61C131.22 84.72 132.01 83.86 132.9 83.08Z" fill="white"/>
<path d="M139.55 86.24C132.72 93.06 131.72 102.06 129.72 112.06C124.72 143.06 96.7204 165.06 98.7204 196.06C99.7204 215.06 123.72 218.06 138.59 228.26C139.43 228.82 140.12 229.53 140.62 230.42C142.46 233.73 143.75 237.6 144.59 241.79C144.87 243.19 145.1 244.62 145.28 246.08C146.73 258.05 140.73 273.05 147.73 282.05C176.73 321.05 231.73 323.05 275.42 309.97C276.88 309.55 278.33 309.11 279.78 308.65C304.41 300.87 328.1 287.69 348.96 270.24C377.97 245.98 395.04 214.79 394.12 182.64C393.95 176.59 388.46 172.21 383.19 167.63C379.46 164.38 375.66 161.07 372.28 157.5C371.44 156.61 370.62 155.7 369.84 154.78C351.73 136.05 354.73 112.05 360.73 88.05C363.73 73.05 344.73 63.05 329.73 61.05C306.73 59.05 282.73 70.05 263.73 59.05C239.73 43.05 215.73 56.05 192.68 63.02C191.34 63.43 190 63.83 188.65 64.24C181.92 66.27 175.08 68.31 168.25 70.82C167.04 71.27 165.82 71.73 164.61 72.21C156.73 76.06 148.73 79.06 141.76 84.4C141 84.99 140.26 85.6 139.55 86.24ZM138.83 85.54C146.73 79.07 155.73 76.07 163.23 71.52C164.09 71.14 164.96 70.77 165.85 70.44C174.02 67.35 182.19 65.06 190.13 62.73C191.26 62.4 192.39 62.06 193.52 61.72C215.73 54.07 240.73 43.07 264.73 58.07C280.73 68.07 301.73 59.07 320.73 59.07C338.73 59.07 367.73 70.07 361.73 92.07C354.73 114.07 354.73 137.07 370.48 153.97C371.25 154.89 372.05 155.79 372.88 156.68C376.2 160.22 379.96 163.48 383.7 166.47C390.17 171.64 394.88 176.02 395.11 182.56C396.23 215.48 376.77 247.69 349.58 271.03C328.58 289.06 304.2 302.39 278.54 309.77C277.11 310.18 275.69 310.57 274.25 310.94C230.73 322.06 180.73 317.06 147.73 285.06C137.73 275.06 147.73 259.06 144.18 245.76C144 244.39 143.78 243.06 143.51 241.77C142.71 237.89 141.53 234.34 139.9 231.23C139.21 229.91 138.38 228.72 137.34 227.67C120.72 221.06 96.7204 214.06 98.7204 195.06C100.72 166.06 121.72 143.06 128.72 113.06C130.72 104.06 130.72 96.06 136.49 88.09C137.19 87.18 137.96 86.32 138.83 85.54Z" fill="white"/>
<path d="M145.48 88.69C136.72 97.07 138.72 107.07 136.72 118.07C130.72 144.07 112.72 163.07 105.72 189.07C98.7204 212.07 129.72 217.07 144.49 224.65C145.3 225.27 146.06 225.94 146.75 226.66C147.62 227.2 148.33 227.9 148.83 228.79C150.66 232.04 151.87 235.9 152.58 240.11C152.82 241.51 153 242.96 153.14 244.43C155.71 257.08 145.71 271.08 153.71 281.08C182.71 317.08 233.71 319.08 274.49 308.44C275.93 308.06 277.37 307.66 278.8 307.24C304.64 299.71 329.7 286.19 351.8 267.98C380.59 244.25 397.48 213.99 396.5 183.01C396.31 177.09 390.49 172.94 384.9 168.56C379.98 164.71 374.95 160.74 370.88 156.26C370.07 155.37 369.29 154.45 368.55 153.51C354.72 138.07 356.72 116.07 360.72 96.07C369.72 46.07 294.72 78.07 267.72 62.07C240.72 47.07 215.72 62.07 191.41 68.47C190.23 68.81 189.05 69.15 187.87 69.5C181.95 71.23 175.95 73.04 169.95 75.28C169.09 75.6 168.24 75.96 167.4 76.33C160.73 80.07 153.73 81.07 147.61 86.9C146.88 87.47 146.17 88.06 145.48 88.69ZM144.75 87.99C150.72 82.07 157.72 79.07 166.06 75.67C166.9 75.28 167.74 74.9 168.59 74.54C169.44 74.18 170.29 73.84 171.16 73.53C176.94 71.47 182.7 69.8 188.34 68.21C189.47 67.89 190.59 67.58 191.71 67.26C213.73 64.06 240.73 42.06 264.73 60.06C281.73 73.06 306.73 62.06 327.73 63.06C342.73 64.06 365.73 70.06 363.73 87.06C362.73 110.06 349.73 134.06 369.26 152.69C369.98 153.63 370.74 154.54 371.54 155.43C375.54 159.89 380.5 163.86 385.4 167.38C392.3 172.34 397.26 176.46 397.5 182.89C398.68 214.68 379.25 246.02 352.42 268.74C330.34 287.45 304.69 301.02 277.92 308.09C276.51 308.46 275.1 308.82 273.68 309.15C232.73 318.05 181.73 316.05 152.73 281.05C144.73 271.05 155.73 257.05 152.09 244C151.95 242.63 151.77 241.29 151.54 240C150.85 236.12 149.73 232.61 148.13 229.57C147.45 228.28 146.63 227.12 145.57 226.12C144.51 225.12 143.22 224.27 141.6 223.6C125.73 221.05 104.73 214.05 104.73 198.05C104.73 168.05 133.73 145.05 135.73 115.05C136.73 106.05 136.73 98.05 142.5 90.54C143.16 89.63 143.9 88.76 144.75 87.99Z" fill="white"/>
<path d="M151.4 91.13C146.73 95.07 143.73 101.07 144.73 106.07C148.73 140.07 112.73 164.07 111.73 196.07C111.73 213.07 134.73 217.07 149.95 221.58C150.9 222.04 151.79 222.56 152.62 223.13C153.45 223.7 154.22 224.35 154.93 225.04C155.83 225.56 156.56 226.24 157.07 227.13C158.88 230.31 160.01 234.16 160.61 238.39C160.81 239.8 160.95 241.25 161.03 242.73C162.73 255.06 153.73 268.06 159.73 277.06C181.73 315.06 234.73 316.06 273.71 306.75C275.13 306.41 276.55 306.04 277.97 305.66C304.93 298.42 331.34 284.62 354.68 265.67C383.25 242.48 399.94 213.14 398.92 183.33C398.72 177.53 392.55 173.61 386.64 169.45C381.47 165.81 376.18 162.03 371.95 157.71C371.1 156.85 370.3 155.96 369.54 155.05C355.74 140.06 352.74 118.06 365.74 98.06C375.74 81.06 350.74 68.06 334.74 67.06C311.74 66.06 283.74 80.06 266.74 65.06C244.74 46.06 217.74 69.06 196.45 71.99C195.3 72.31 194.14 72.63 192.98 72.95C187.18 74.56 181.27 76.23 175.32 78.32C174.47 78.62 173.64 78.95 172.82 79.3C171.99 79.65 171.18 80.02 170.36 80.39C164.76 83.06 158.76 85.06 153.48 89.36C152.74 89.93 152.06 90.51 151.4 91.13ZM150.67 90.43C156.72 85.07 163.72 81.07 171.47 78.62C172.29 78.26 173.12 77.9 173.95 77.56C174.78 77.22 175.62 76.9 176.47 76.62C180.77 75.18 185.03 73.96 189.23 72.82C190.63 72.44 192.02 72.07 193.41 71.7C216.73 69.08 244.73 44.08 267.73 64.08C283.73 78.08 308.73 65.08 330.73 65.08C346.73 66.08 371.73 74.08 366.73 93.08C360.73 114.08 352.73 136.08 370.23 154.26C370.97 155.16 371.76 156.05 372.59 156.91C376.75 161.22 381.98 165 387.1 168.31C394.44 173.06 399.64 176.93 399.9 183.24C401.14 213.89 381.74 244.36 355.28 266.47C332.7 285.34 306.59 298.91 279.52 305.8C278.02 306.18 276.51 306.55 275 306.89C234.73 316.07 186.73 314.07 159.73 280.07C151.73 270.07 161.73 255.07 160 242.26C159.91 240.88 159.76 239.55 159.57 238.25C158.99 234.37 157.94 230.89 156.36 227.93C155.69 226.67 154.87 225.55 153.8 224.59C152.73 223.63 151.41 222.84 149.72 222.25C132.73 221.07 109.73 214.07 111.73 196.07C114.73 169.07 140.73 147.07 143.73 118.07C144.73 109.07 142.73 101.07 148.49 93.01C149.12 92.08 149.83 91.2 150.67 90.43Z" fill="white"/>
<path d="M157.28 93.55C153.72 97.07 149.72 103.07 150.72 108.07C152.72 117.07 152.72 127.07 149.72 135.07C139.72 157.07 118.72 175.07 118.72 198.07C118.72 210.07 137.72 218.07 151.3 218.5C152.55 218.65 153.73 218.87 154.85 219.16C158.19 220.01 160.93 221.44 163.1 223.44C164.03 223.93 164.78 224.61 165.3 225.5C167.1 228.62 168.15 232.45 168.62 236.69C168.78 238.1 168.87 239.56 168.91 241.06C170.74 254.07 159.74 268.07 166.74 278.07C189.74 312.07 235.74 313.07 273.05 304.98C274.45 304.67 275.85 304.34 277.25 304C305.24 297.1 332.97 283.04 357.55 263.39C385.9 240.73 402.4 212.32 401.32 183.68C401.11 178 394.6 174.31 388.37 170.37C381.86 166.25 375.18 161.91 370.51 156.6C369.73 155.71 369.01 154.8 368.35 153.85C353.74 138.07 358.74 116.07 368.74 97.07C376.74 82.07 355.74 72.07 341.74 71.07C317.74 68.07 291.74 84.07 273.74 70.07C246.74 48.07 220.74 76.07 194.63 77.32C193.48 77.62 192.33 77.93 191.17 78.25C187.7 79.2 184.19 80.21 180.65 81.38C179.82 81.65 179 81.96 178.19 82.29C177.38 82.62 176.58 82.96 175.77 83.31C169.73 86.07 164.73 88.07 159.25 91.84C158.57 92.37 157.91 92.94 157.28 93.55ZM156.55 92.85C160.72 87.07 167.72 85.07 174.44 82.59C175.25 82.25 176.06 81.9 176.86 81.56C178.48 80.88 180.1 80.22 181.76 79.7C184.6 78.81 187.41 78.02 190.2 77.28C191.59 76.91 192.98 76.55 194.35 76.2C217.7 74.07 234.7 56.07 258.7 59.07C263.7 60.07 266.7 67.07 269.7 69.07C288.7 81.07 312.7 68.07 333.7 68.07C350.7 68.07 377.7 79.07 368.7 98.07C360.7 117.07 354.7 137.07 369.05 153.09C369.7 154.02 370.4 154.92 371.17 155.8C375.75 161.07 382.37 165.49 388.77 169.22C396.55 173.75 401.99 177.38 402.27 183.57C403.57 213.08 384.21 242.68 358.11 264.18C334.36 283.75 306.93 297.54 278.76 304.04C277.28 304.38 275.79 304.7 274.31 305.01C237.7 313.08 194.7 309.08 166.7 281.08C156.7 271.08 170.7 254.08 167.87 240.52C167.82 239.14 167.72 237.8 167.56 236.51C167.08 232.63 166.1 229.19 164.55 226.3C162.9 223.23 160.29 221.02 154.89 220.29C153.81 220.14 152.62 220.06 151.3 220.04C136.71 220.09 115.71 212.09 117.71 197.09C121.71 167.09 156.71 143.09 149.71 109.09C148.71 105.09 151.71 99.09 154.43 95.47C155.05 94.5 155.74 93.62 156.55 92.85Z" fill="white"/>
<path d="M163.13 95.94C159.72 100.06 155.72 106.06 157.72 111.06C168.72 145.06 127.72 168.06 125.72 198.06C124.72 210.06 142.72 215.06 154.36 216.92C155.94 217.15 157.53 217.32 159.12 217.44C164.31 217.8 168.34 219.27 171.26 221.81C172.23 222.28 173 222.95 173.52 223.84C175.5 227.24 176.47 231.57 176.71 236.41C176.77 237.62 176.78 238.86 176.75 240.13C176.72 252.07 167.72 265.07 172.72 274.07C189.72 309.07 238.72 309.07 273.87 302.81C275.36 302.5 276.85 302.17 278.35 301.81C306.7 295.12 335.09 281 360.4 261.09C388.53 238.96 404.83 211.48 403.71 184.01C403.48 178.46 396.64 175 390.08 171.26C383.26 167.38 376.28 163.28 371.46 158.13C370.66 157.27 369.92 156.38 369.24 155.46C351.72 139.06 362.72 117.06 371.72 99.06C379.72 84.06 358.72 75.06 344.72 73.06C320.72 71.06 295.72 86.06 274.72 75.06C265.72 70.06 258.72 60.06 246.72 64.06C229.72 71.06 212.72 79.06 194.65 81.98C193.22 82.35 191.78 82.73 190.34 83.14C188.89 83.54 187.44 83.96 185.98 84.41C183.54 85.16 181.21 86.21 178.84 87.19C178.05 87.52 177.26 87.83 176.45 88.13C172.72 89.06 168.72 91.06 165.02 94.27C164.36 94.8 163.74 95.35 163.13 95.94ZM162.4 95.25C167.72 91.07 171.72 88.07 177.49 86.37C178.3 86.08 179.1 85.77 179.89 85.46C182.28 84.51 184.63 83.49 187.08 82.78C188.49 82.37 189.88 81.98 191.28 81.62C192.67 81.25 194.05 80.9 195.42 80.57C203.72 80.08 211.72 77.08 219.72 75.08C233.72 69.08 252.72 55.08 263.72 66.08C283.72 86.08 312.72 71.08 335.72 72.08C350.72 72.08 374.72 76.08 372.72 94.08C370.72 115.08 350.72 135.08 369.98 154.71C370.63 155.61 371.36 156.49 372.15 157.34C376.88 162.45 383.83 166.64 390.49 170.13C398.72 174.44 404.39 177.83 404.68 183.9C406.04 212.28 386.71 241 360.97 261.89C336.06 282.12 307.35 296.08 278.19 302.16C276.73 302.46 275.27 302.75 273.81 303.01C238.71 310.08 198.71 306.08 172.71 280.08C163.71 270.08 176.71 253.08 175.79 238.76C175.78 237.37 175.72 236.03 175.6 234.74C175.23 230.87 174.32 227.45 172.79 224.63C170.83 221.03 167.44 218.7 159.15 218.94C157.47 218.99 155.81 218.95 154.17 218.82C140.71 217.08 122.71 211.08 124.71 198.08C127.71 169.08 167.71 144.08 155.71 112.08C154.71 108.08 157.71 102.08 160.36 97.88C160.94 96.91 161.61 96.02 162.4 95.25Z" fill="white"/>
<path d="M168.94 98.32C164.72 102.06 162.72 109.06 163.72 112.06C176.72 144.06 139.72 168.06 131.72 195.06C127.72 208.06 145.72 213.06 157.16 215.46C158.75 215.72 160.37 215.93 162 216.09C163.63 216.25 165.29 216.34 166.94 216.38C172.32 216.49 176.46 217.77 179.43 220.19C180.43 220.64 181.22 221.29 181.74 222.19C183.7 225.52 184.58 229.84 184.67 234.7C184.69 235.92 184.67 237.16 184.59 238.44C184.72 251.08 174.72 264.08 178.72 273.08C193.72 306.08 239.72 306.08 273.12 300.93C274.58 300.66 276.05 300.36 277.51 300.05C306.83 293.78 336.59 279.43 363.25 258.79C391.15 237.19 407.26 210.64 406.1 184.34C405.86 178.91 398.68 175.67 391.8 172.16C383.5 167.92 374.94 163.37 370.15 157.07C369.47 156.17 368.86 155.24 368.33 154.26C353.72 141.07 359.72 118.07 374.72 106.07C378.72 102.07 378.72 95.07 375.72 90.07C369.72 80.07 358.72 78.07 347.72 76.07C320.72 72.07 285.72 98.07 266.72 68.07C265.72 65.07 260.72 65.07 256.72 66.07C236.72 72.07 219.72 82.07 199.89 85.25C198.48 85.58 197.06 85.93 195.63 86.3C194.2 86.67 192.76 87.05 191.32 87.46C188.14 88.36 185.13 89.81 181.97 90.88C181.12 91.17 180.28 91.47 179.47 91.8C177.72 93.07 174.72 94.07 172.73 95.25C171.36 96.15 170.1 97.17 168.94 98.32ZM168.22 97.63C170.73 96.07 173.73 93.07 177.48 91.32C178.35 90.91 179.25 90.53 180.17 90.17C181.09 89.81 182.03 89.47 182.99 89.16C186.16 88.11 189.2 86.71 192.4 85.85C193.79 85.48 195.18 85.13 196.55 84.79C197.92 84.46 199.29 84.14 200.65 83.84C226.73 84.07 255.73 52.07 280.73 77.07C292.73 89.07 318.73 76.07 338.73 75.07C352.73 73.07 368.73 77.07 376.73 90.07C378.73 96.07 377.73 102.07 373.73 106.07C361.73 120.07 355.73 139.07 369.14 153.57C369.64 154.51 370.23 155.42 370.9 156.3C375.58 162.46 384.13 167.22 392.2 171.01C400.87 175.08 406.78 178.24 407.09 184.2C408.5 211.44 389.2 239.28 363.84 259.58C337.77 280.44 307.83 294.53 277.79 300.15C276.36 300.42 274.93 300.67 273.5 300.89C240.73 305.06 203.73 304.06 179.73 279.06C169.73 269.06 183.73 254.06 183.42 241.3C183.58 239.81 183.68 238.37 183.71 236.97C183.86 231.39 183.03 226.61 181.02 222.94C179.1 219.43 175.66 217.21 167 217.83C164.4 218.02 161.83 217.99 159.33 217.79C158.5 217.72 157.67 217.63 156.85 217.52C145.72 217.06 134.72 210.06 129.72 200.06C128.72 197.06 129.72 195.06 131.72 192.06C145.72 170.06 174.72 142.06 162.72 115.06C160.72 111.06 162.72 104.06 166.25 100.25C166.8 99.29 167.44 98.4 168.22 97.63Z" fill="white"/>
<path d="M174.72 100.68C170.72 105.06 168.72 112.06 170.72 116.06C186.72 148.06 142.72 171.06 138.72 199.06C137.72 208.06 149.72 213.06 159.78 214.07C161.35 214.38 162.97 214.63 164.62 214.83C167.92 215.22 171.33 215.38 174.76 215.31C180.33 215.16 184.59 216.25 187.6 218.56C188.63 218.99 189.44 219.63 189.97 220.52C192.4 224.59 193 230.31 192.43 236.73C192.32 238.01 192.15 239.33 191.95 240.66C191.72 253.06 178.72 265.06 185.72 275.06C203.72 303.06 241.72 304.06 272.53 298.93C273.96 298.69 275.4 298.44 276.83 298.16C306.99 292.34 338.1 277.81 366.11 256.48C393.79 235.4 409.7 209.79 408.5 184.66C408.25 179.35 400.73 176.34 393.52 173.04C384.86 169.08 375.94 164.81 371.05 158.66C370.35 157.78 369.73 156.87 369.21 155.91C354.71 140.06 361.71 120.06 377.71 108.06C380.71 105.06 381.71 101.06 380.71 97.06C373.71 79.06 352.71 78.06 336.71 79.06C315.71 81.06 285.71 96.06 269.71 73.06C260.71 61.06 243.71 78.06 229.71 83.06C220.71 86.06 210.71 88.06 200.92 89.44C199.51 89.77 198.09 90.11 196.65 90.48C193.54 91.28 190.58 92.65 187.48 93.61C186.21 94.01 184.98 94.43 183.81 94.91C182.63 95.38 181.51 95.9 180.44 96.47C179.37 97.04 178.36 97.67 177.4 98.37C176.44 99.07 175.56 99.84 174.72 100.68ZM174 99.99C175.72 98.07 177.72 95.07 180.53 95.16C181.34 94.72 182.17 94.31 183.03 93.93C184.75 93.17 186.57 92.51 188.48 91.93C190.04 91.46 191.56 90.89 193.09 90.35C194.62 89.81 196.14 89.29 197.71 88.91C218.73 87.06 236.73 76.06 256.73 70.06C260.73 68.06 266.73 66.06 268.73 69.06C285.73 97.06 315.73 80.06 340.73 78.06C356.73 76.06 385.73 83.06 378.73 101.06C372.73 119.06 352.73 137.06 370.02 155.23C370.52 156.15 371.12 157.04 371.8 157.9C376.58 163.91 385.52 168.38 393.9 171.91C403.02 175.74 409.16 178.68 409.49 184.52C410.95 210.62 391.69 237.59 366.7 257.28C339.49 278.72 308.36 292.91 277.55 298.06C276.15 298.29 274.75 298.51 273.35 298.71C242.73 302.08 203.73 303.08 184.73 275.08C177.73 265.08 191.73 252.08 191.18 239.57C191.35 238.32 191.48 237.1 191.57 235.92C192 230.01 191.3 225.01 189.25 221.29C187.36 217.87 183.87 215.75 174.85 216.75C169.48 217.35 164.22 217.1 159.39 216.18C157.78 215.88 156.22 215.5 154.72 215.05C146.74 212.07 134.74 207.07 137.74 199.07C144.74 173.07 184.74 147.07 168.74 116.07C167.74 114.07 169.74 107.07 172.12 102.63C172.61 101.66 173.24 100.76 174 99.99Z" fill="white"/>
<path d="M180.48 103.03C176.72 107.07 174.72 114.07 176.72 117.07C195.72 150.07 148.72 173.07 145.72 201.07C144.72 208.07 155.72 211.07 162.32 212.74C163.85 213.1 165.44 213.4 167.07 213.65C171.97 214.38 177.26 214.6 182.58 214.24C188.35 213.84 192.72 214.74 195.77 216.92C196.83 217.32 197.66 217.96 198.2 218.85C201.08 223.63 201.17 230.91 199.66 238.99C199.41 240.34 199.11 241.71 198.78 243.09C197.73 253.07 187.73 263.07 191.73 271.07C203.73 300.07 242.73 300.07 272.14 296.85C273.54 296.65 274.94 296.42 276.34 296.18C307.22 290.84 339.61 276.15 368.98 254.16C396.43 233.6 412.14 208.93 410.91 184.98C410.64 179.79 402.79 177.01 395.26 173.93C384.96 169.72 374.3 165.11 370.11 157.57C369.53 156.53 368.91 155.57 368.28 154.65C354.73 141.07 364.73 122.07 378.73 112.07C383.73 108.07 386.73 100.07 381.73 95.07C361.73 72.07 329.73 86.07 303.73 89.07C295.73 90.07 283.73 94.07 279.73 86.07C276.73 82.07 277.73 75.07 272.73 73.07C265.73 70.07 258.73 73.07 252.73 77.07C236.73 87.07 219.73 92.0699 202.02 93.5199C200.5 93.8799 199.01 94.3699 197.52 94.8799C196.03 95.3899 194.54 95.93 193.02 96.36C190.49 97.07 188.16 97.92 186.06 99C185.01 99.54 184.02 100.14 183.09 100.81C182.16 101.47 181.29 102.21 180.48 103.03ZM179.76 102.34C181.72 101.07 182.72 100.07 183.82 99.03C184.56 98.55 185.32 98.11 186.12 97.69C188.5 96.45 191.13 95.49 193.97 94.71C195.5 94.29 197 93.77 198.5 93.28C200 92.79 201.49 92.31 203.02 91.98C210.73 90.07 218.73 89.07 226.73 88.07C243.73 85.07 260.73 63.07 270.73 75.07C293.73 102.07 325.73 78.07 352.73 80.07C365.73 82.07 388.73 87.07 382.73 104.07C376.73 120.07 352.73 136.07 369.04 153.9C369.68 154.84 370.32 155.83 370.9 156.89C374.91 164.13 385.68 169.08 395.6 172.8C405.16 176.39 411.54 179.11 411.88 184.83C413.38 209.79 394.16 235.88 369.54 254.97C339.95 277.91 306.13 292.43 273.38 296.43C271.74 296.65 270.11 296.85 268.49 297.02C240.71 300.08 206.71 299.08 190.71 274.08C184.71 265.08 196.71 254.08 198.14 241.7C198.45 240.37 198.71 239.08 198.93 237.82C200.23 230.26 199.89 223.96 197.46 219.62C195.6 216.29 192.06 214.27 182.68 215.65C175.29 216.74 168.07 216.3 161.84 214.76C160.28 214.37 158.79 213.92 157.37 213.4C149.72 212.08 138.72 204.08 143.72 196.08C157.72 174.08 194.72 146.08 174.72 118.08C173.72 116.08 175.72 109.08 177.91 104.99C178.4 104 179.01 103.11 179.76 102.34Z" fill="white"/>
<path d="M186.22 105.36C182.72 110.06 179.72 117.06 182.72 120.06C204.72 150.06 158.72 175.06 150.72 200.06C149.72 204.06 155.72 208.06 160.76 210C162.05 210.52 163.42 210.99 164.87 211.41C172.12 213.48 181.24 214.14 190.4 213.16C196.36 212.51 200.84 213.22 203.94 215.28C205.03 215.66 205.88 216.28 206.42 217.18C209.27 221.86 209.15 229.16 207.35 237.31C207.05 238.67 206.7 240.05 206.32 241.45C203.72 251.07 194.72 262.07 197.72 270.07C207.72 296.07 243.72 297.07 269.23 295C270.13 294.9 271.03 294.8 271.93 294.68C304.55 290.55 339.77 275.44 371.83 251.84C399.05 231.81 414.56 208.06 413.29 185.29C413.01 180.23 404.82 177.66 396.97 174.81C386.27 170.92 375.19 166.63 370.98 159.22C370.39 158.18 369.75 157.21 369.11 156.3C368.47 155.38 367.82 154.52 367.19 153.68C351.72 132.08 384.72 120.08 385.72 102.08C386.72 85.0801 361.72 84.0801 346.72 85.0801C325.72 87.0801 297.72 106.08 283.72 88.0801C278.72 81.0801 271.72 72.0801 261.72 78.0801C244.72 88.0801 227.72 95.0801 207.36 96.5501C205.87 96.8501 204.41 97.3001 202.95 97.7701C201.49 98.2401 200.03 98.7201 198.53 99.1001C194.77 100.05 191.46 101.32 188.74 103.24C187.84 103.86 187 104.57 186.22 105.36ZM185.5 104.67C186.1 104.06 186.72 103.49 187.38 102.96C190.68 100.3 194.76 98.6301 199.45 97.4801C200.95 97.1101 202.42 96.6401 203.89 96.2001C226.71 95.0701 246.71 84.0701 267.71 75.0701C276.71 72.0701 280.71 83.0701 284.71 87.0701C301.71 106.07 331.71 81.0701 355.71 83.0701C367.71 85.0701 388.71 87.0701 386.71 103.07C385.71 114.07 374.71 120.07 367.71 129.07C361.71 137.07 361.71 148.07 369.86 155.55C370.52 156.48 371.16 157.47 371.77 158.54C375.79 165.64 387.02 170.26 397.29 173.69C407.29 177.03 413.91 179.54 414.27 185.14C415.81 208.97 396.63 234.17 372.39 252.66C342.9 275.15 309.59 289.43 277.61 293.62C275.8 293.88 274.01 294.11 272.23 294.31C271.34 294.41 270.46 294.5 269.58 294.58C243.71 296.08 215.71 295.08 197.71 275.08C189.71 267.08 202.71 255.08 204.56 244.09C205.01 242.69 205.41 241.31 205.76 239.97C208.24 230.59 208.46 222.85 205.67 217.92C203.84 214.68 200.25 212.76 190.51 214.53C180.99 216.26 171.68 215.57 164.33 213.26C162.86 212.8 161.47 212.27 160.16 211.69C154.71 209.06 148.71 204.06 149.71 201.06C159.71 177.06 203.71 150.06 181.71 121.06C179.71 118.06 181.71 112.06 183.69 107.31C184.17 106.34 184.76 105.44 185.5 104.67Z" fill="white"/>
<path d="M191.96 107.69C190.18 109.52 189.33 112.28 188.85 115.1C188.69 116.04 188.57 116.99 188.46 117.92C187.72 120.06 187.72 121.06 187.88 122.96C189.19 123.65 190.36 124.39 191.39 125.19C196.55 129.2 198.29 134.69 196.93 141.65C196.28 144.95 194.79 148.48 192.75 152.15C192.07 153.37 191.33 154.61 190.54 155.86C184.73 173.04 146.73 192.04 163.87 208.46C165 209.05 166.24 209.58 167.58 210.05C175.58 212.89 186.89 213.7 198.24 212.05C204.39 211.14 208.99 211.67 212.13 213.61C213.25 213.97 214.12 214.58 214.67 215.48C217.96 220.82 216.96 229.89 213.89 239.78C213.45 241.19 212.97 242.62 212.46 244.06C209.74 253.05 199.74 263.05 203.74 271.05C215.74 293.05 244.74 294.05 268.08 292.79C268.94 292.72 269.8 292.64 270.67 292.55C272.4 292.38 274.16 292.17 275.93 291.93C307.83 287.61 342.63 272.69 374.72 249.49C401.71 229.97 417.01 207.17 415.72 185.57C415.42 180.63 406.9 178.29 398.72 175.65C387.61 172.08 376.11 168.1 371.89 160.83C371.29 159.79 370.64 158.82 369.98 157.91C369.32 157 368.66 156.13 368.02 155.3C352.74 135.04 382.74 122.04 389.74 106.04C394.74 91.04 370.74 88.04 358.74 88.04C332.74 86.04 290.74 117.04 278.74 80.04C278.74 79.04 274.74 78.04 271.74 79.04C250.74 89.04 231.74 99.04 208.41 100.61C206.98 101.02 205.54 101.46 204.08 101.78C199.08 102.91 194.96 104.6 191.96 107.69ZM191.24 107C194.7 103.43 199.36 101.45 204.95 100.24C206.42 99.92 207.87 99.5 209.31 99.11C232.72 98.07 250.72 86.07 271.72 79.07C283.72 74.07 281.72 91.07 288.72 94.07C304.72 103.07 323.72 93.07 341.72 88.07C358.72 84.07 381.72 83.07 388.72 99.07C396.72 114.07 373.72 122.07 366.72 135.07C363.72 141.07 362.72 150.07 368.71 154.54C369.36 155.38 370.04 156.26 370.71 157.19C371.38 158.12 372.04 159.11 372.66 160.18C376.68 167.14 388.37 171.43 399 174.56C409.45 177.64 416.3 179.94 416.68 185.43C418.26 208.12 399.12 232.43 375.25 250.33C345.86 272.37 313.07 286.41 281.85 290.79C278.3 291.34 274.82 291.76 271.42 292.06C270.57 292.13 269.72 292.2 268.88 292.26C245.72 294.07 219.72 291.07 203.72 274.07C196.72 266.07 207.72 256.07 210.41 246.75C211 245.27 211.55 243.82 212.04 242.4C216.03 231.04 217.03 221.71 213.91 216.23C212.11 213.08 208.46 211.25 198.36 213.41C186.9 215.86 175.72 214.95 167.67 211.98C166.52 211.55 165.44 211.09 164.42 210.58C142.71 193.06 185.71 176.06 189.88 155.98C190.58 154.74 191.23 153.51 191.83 152.31C193.63 148.7 194.98 145.27 195.71 142.18C196.82 137.48 197.03 132.83 193.98 129.07C193.22 128.13 192.25 127.25 191.05 126.43C184.71 125.06 187.71 118.06 188.44 112.78C188.69 111.69 189.01 110.62 189.46 109.64C189.91 108.66 190.5 107.76 191.24 107Z" fill="white"/>
<path d="M197.7 110.01C194.18 113.63 194.59 121.07 194.03 125.29C202.58 129.11 205.87 135.1 204.41 143.28C203.07 150.82 196.89 159.68 189.71 168.53C188.68 169.79 187.64 171.06 186.58 172.32C181.73 183.07 157.73 194.07 166.5 206.23C167.21 206.8 168 207.34 168.88 207.83C176.81 212.29 191.43 213.63 206.05 210.98C212.39 209.82 217.11 210.16 220.29 211.98C221.44 212.32 222.33 212.92 222.89 213.81C226.61 219.77 224.41 230.83 219.84 242.46C219.27 243.91 218.66 245.38 218.02 246.84C214.73 255.07 204.73 265.07 210.73 272.07C223.73 290.07 247.73 293.07 268.5 290.43C269.42 290.37 270.35 290.3 271.29 290.22C274.1 289.98 276.97 289.65 279.89 289.22C311.06 284.71 345.45 269.98 377.56 247.18C404.32 228.18 419.42 206.32 418.1 185.89C417.79 181.07 408.92 178.95 400.43 176.54C388.92 173.28 376.99 169.63 372.75 162.49C372.13 161.45 371.47 160.48 370.8 159.56C370.13 158.65 369.45 157.79 368.81 156.97C352.73 135.07 385.73 125.07 393.73 108.07C395.73 102.07 390.73 97.07 385.73 95.07C357.73 82.07 330.73 101.07 302.73 103.07C296.73 103.07 289.73 104.07 286.73 98.07C285.73 95.07 287.73 90.07 286.73 87.07C282.73 79.07 272.73 82.07 267.73 86.07C249.73 99.07 229.73 102.07 209.59 104.52C208.35 104.76 207.17 105.03 206.05 105.36C202.69 106.33 199.87 107.77 197.7 110.01ZM196.98 109.32C199.77 106.43 203.41 104.68 207.76 103.58C208.63 103.36 209.53 103.17 210.45 103C232.73 101.07 251.73 94.07 271.73 83.07C274.73 81.07 279.73 80.07 283.73 82.07C289.73 85.07 286.73 92.07 288.73 97.07C289.73 102.07 297.73 102.07 302.73 102.07C332.73 98.07 364.73 76.07 390.73 98.07C403.73 109.07 381.73 121.07 372.73 131.07C366.73 138.07 361.73 149.07 369.52 156.19C370.18 157.03 370.87 157.9 371.55 158.83C372.23 159.76 372.91 160.75 373.54 161.82C377.57 168.65 389.72 172.59 400.7 175.44C411.59 178.26 418.67 180.36 419.08 185.73C420.69 207.28 401.6 230.71 378.11 248.01C348.81 269.59 316.54 283.4 286.09 287.97C280.88 288.83 275.82 289.41 270.94 289.73C269.31 289.84 267.7 289.91 266.12 289.96C245.72 290.08 219.72 289.08 208.72 269.08C204.72 261.08 214.72 255.08 216.71 247.4C217.06 246.64 217.39 245.88 217.72 245.13C223.55 231.62 225.6 220.53 222.14 214.55C220.37 211.49 216.66 209.76 206.21 212.31C191.03 216.01 176.26 214.08 168.26 209.22C167.37 208.68 166.57 208.1 165.85 207.49C156.73 194.09 182.73 185.09 187.04 172.37C188.03 171.11 188.99 169.85 189.93 168.58C196.49 159.73 201.67 150.84 203.21 143.8C204.7 136.98 204.03 130.23 192.88 126.54C192.91 126.5 192.75 126.46 192.78 126.42C192.81 126.38 192.76 126.16 192.79 126.12C194.4 123.52 192.58 113.86 196.98 109.32Z" fill="white"/>
<path d="M203.44 112.32C199.98 115.89 200.58 123.43 200.18 127.61C209.45 131.14 213.17 136.9 211.89 144.89C209.7 158.6 191.96 178.8 178.67 191.51C177.65 192.49 176.65 193.42 175.69 194.3C173.73 197.07 169.73 199.07 169.88 202.91C170.5 204.29 171.58 205.52 173.04 206.59C180.33 211.97 197.13 213.47 213.87 209.87C220.4 208.45 225.23 208.61 228.46 210.3C229.65 210.61 230.55 211.2 231.12 212.1C235.26 218.65 231.5 231.92 225.25 245.26C224.56 246.74 223.83 248.22 223.08 249.7C220.73 257.06 210.73 264.06 216.73 272.06C228.73 285.06 247.73 289.06 264.83 288.13C265.69 288.12 266.56 288.1 267.43 288.07C272.67 287.88 278.16 287.36 283.87 286.47C314.32 281.77 348.28 267.23 380.43 244.83C406.95 226.35 421.84 205.43 420.51 186.17C420.18 181.47 410.98 179.57 402.16 177.39C390.24 174.44 377.89 171.12 373.64 164.11C372.37 162.01 370.92 160.24 369.61 158.6C368.53 157.25 367.57 156.01 366.85 154.79C364.72 148.07 365.72 141.07 370.72 135.07C379.72 124.07 407.72 114.07 393.72 102.07C364.72 77.0701 330.72 107.07 297.72 107.07C294.72 107.07 290.72 105.07 290.72 102.07C289.72 95.0701 290.72 86.0701 282.72 86.0701C269.72 84.0701 262.72 96.0701 252.72 101.07C239.72 106.07 224.72 104.07 211.6 107.95C210.49 108.24 209.45 108.58 208.47 108.99C206.52 109.8 204.84 110.88 203.44 112.32ZM202.71 111.63C204.33 109.95 206.26 108.69 208.47 107.74C209.58 107.27 210.75 106.87 212 106.54C230.72 103.06 251.72 104.06 267.72 90.0601C270.72 86.0601 276.72 84.0601 282.72 84.0601C293.72 86.0601 286.72 99.0601 293.72 103.06C313.72 113.06 335.72 95.0601 356.72 93.0601C370.72 91.0601 390.72 89.0601 395.72 104.06C401.72 121.06 372.72 127.06 366.72 144.06C365.72 147.06 365.72 151.06 367.73 154.31C368.4 155.4 369.29 156.53 370.31 157.81C371.65 159.47 373.12 161.28 374.41 163.43C378.44 170.12 391.05 173.72 402.39 176.28C413.71 178.84 421.04 180.74 421.46 185.99C423.1 206.4 404.05 228.94 380.95 245.65C351.74 266.77 320 280.36 290.32 285.11C283.52 286.3 277 287.02 270.8 287.29C269.25 287.36 267.72 287.4 266.21 287.41C247.72 287.05 222.72 285.05 214.72 268.05C211.72 262.05 218.72 255.05 222.75 248.11C223.15 247.32 223.54 246.54 223.92 245.76C231.09 231.02 233.94 218.93 230.36 212.81C228.62 209.84 224.85 208.2 214.05 211.14C194.94 216.34 176.39 213 170.49 205.97C169.95 205.33 169.52 204.66 169.2 203.97C168.72 199.05 171.72 197.05 175.06 193.7C176.1 192.74 177.15 191.75 178.22 190.72C192.1 177.32 208.13 158.13 210.71 145.36C212.04 138.77 211.04 132.21 199.09 128.81C199.12 128.77 198.94 128.74 198.97 128.7C199 128.66 198.94 128.44 198.97 128.4C200.45 125.97 198.35 116.14 202.71 111.63Z" fill="white"/>
<path d="M209.17 114.62C205.76 118.15 206.57 125.78 206.32 129.92C216.3 133.17 220.46 138.68 219.37 146.49C217.34 160.94 196.07 182.97 182.38 194.91C177.24 199.39 175.9 200.97 175.9 202.48C175.9 202.68 175.88 203.06 176.33 203.46C180.17 211.37 201.02 213.87 221.69 208.77C228.41 207.1 233.36 207.07 236.62 208.64C237.84 208.93 238.76 209.51 239.33 210.41C244.1 217.87 237.58 234.84 228.89 250.42C228.48 251.16 228.06 251.9 227.64 252.63C224.72 258.07 220.72 263.07 222.72 268.07C228.72 282.07 246.72 285.07 261.96 285.51C263.54 285.57 265.16 285.6 266.8 285.59C273.37 285.56 280.41 284.94 287.85 283.71C317.57 278.82 351.11 264.47 383.29 242.47C409.58 224.5 424.25 204.53 422.91 186.44C422.57 181.87 413.03 180.18 403.89 178.22C391.56 175.58 378.79 172.6 374.53 165.71C373.23 163.61 371.76 161.84 370.42 160.21C369.31 158.86 368.33 157.62 367.6 156.4C364.73 149.06 366.73 142.06 371.73 137.06C380.73 125.06 406.73 120.06 397.73 107.06C379.73 80.0601 343.73 104.06 315.73 110.06C308.73 111.06 301.73 114.06 294.73 109.06C289.73 105.06 293.73 99.0601 292.73 94.0601C291.73 89.0601 285.73 88.0601 281.73 89.0601C272.73 90.0601 267.73 99.0601 260.73 103.06C245.73 110.06 228.73 107.06 214.09 111.45C213.13 111.82 212.24 112.27 211.42 112.79C210.6 113.32 209.85 113.92 209.17 114.62ZM208.45 113.93C209.23 113.12 210.09 112.41 211.03 111.8C211.97 111.19 212.98 110.67 214.07 110.23C228.73 106.06 245.73 110.06 259.73 101.06C268.73 95.0601 281.73 81.0601 292.73 91.0601C296.73 95.0601 290.73 105.06 295.73 107.06C315.73 115.06 334.73 101.06 354.73 97.0601C370.73 94.0601 389.73 89.0601 401.73 105.06C402.73 108.06 400.73 111.06 399.73 114.06C389.73 129.06 363.73 136.06 368.49 155.93C369.16 157.01 370.07 158.15 371.13 159.43C372.49 161.08 373.99 162.89 375.32 165.04C379.36 171.6 392.42 174.85 404.12 177.13C415.88 179.42 423.45 181.13 423.89 186.26C425.55 205.54 406.56 227.18 383.83 243.3C354.71 263.96 323.49 277.32 294.58 282.27C284.6 284.13 275.26 284.96 266.67 284.86C265.24 284.84 263.83 284.8 262.44 284.73C248.73 283.07 232.73 282.07 222.73 271.07C216.73 264.07 224.73 258.07 227.15 251.44C227.63 250.61 228.1 249.79 228.55 248.97C238.14 231.83 242.47 217.67 238.59 211.11C236.88 208.23 233.05 206.69 221.9 210.02C200.44 216.43 179.59 212.52 175.67 204.52C175.02 203.91 174.91 203.22 174.92 202.68C174.99 200.21 177.66 197.9 181.78 194.3C196.63 181.31 215.75 160.38 218.21 146.96C219.38 140.61 218.05 134.24 205.29 131.13C205.32 131.09 205.13 131.06 205.16 131.03C205.19 130.99 205.12 130.77 205.15 130.73C206.51 128.41 204.13 118.41 208.45 113.93Z" fill="white"/>
<path d="M214.91 116.91C211.55 120.39 212.57 128.12 212.47 132.21C223.16 135.17 227.77 140.45 226.85 148.07C225.16 162.21 203 183.95 189.07 195.49C183.66 199.97 182.34 201.55 182.33 203C182.33 203.19 182.31 203.58 182.77 203.98C186.72 211.55 208.24 213.52 229.5 207.63C236.42 205.7 241.48 205.48 244.78 206.94C246.03 207.21 246.97 207.78 247.55 208.67C252.49 216.3 244.44 234.75 234.51 251.13C234.06 251.87 233.6 252.61 233.15 253.35C229.71 257.06 225.71 262.06 228.71 267.06C234.71 279.06 249.71 281.06 262.11 282.8C263.58 282.91 265.09 282.98 266.62 283.02C274.3 283.22 282.74 282.54 291.81 280.95C320.81 275.88 353.92 261.7 386.14 240.11C412.19 222.65 426.65 203.63 425.29 186.71C424.93 182.26 415.05 180.79 405.59 179.06C392.86 176.74 379.65 174.08 375.39 167.32C374.06 165.22 372.56 163.45 371.2 161.82C370.07 160.46 369.06 159.22 368.32 158C367.58 156.78 367.1 155.58 367 154.29C367.7 139.06 382.7 132.06 394.7 124.06C400.7 119.06 410.7 111.06 401.7 105.06C390.7 97.06 377.7 98.06 365.7 99.06C342.7 101.06 313.7 129.06 296.7 108.06C293.7 105.06 294.7 87.06 285.7 93.06C263.7 107.06 243.7 113.06 219.67 113.92C218.73 114.26 217.86 114.67 217.06 115.17C216.29 115.66 215.56 116.24 214.91 116.91ZM214.19 116.22C214.94 115.44 215.78 114.76 216.69 114.18C228.72 109.06 242.72 111.06 255.72 109.06C265.72 107.06 270.72 98.06 279.72 93.06C285.72 90.06 294.72 90.06 296.72 97.06C297.72 101.06 294.72 106.06 296.72 108.06C312.72 124.06 336.72 105.06 355.72 100.06C368.72 97.06 380.72 97.06 393.72 99.06C401.72 101.06 408.72 107.06 402.72 116.06C392.72 131.06 370.72 135.06 368.02 154.36C368.11 155.43 368.55 156.46 369.23 157.54C369.91 158.62 370.84 159.76 371.93 161.05C373.31 162.7 374.84 164.49 376.2 166.65C380.24 173.07 393.75 175.98 405.82 177.98C418.01 180 425.82 181.51 426.29 186.53C427.97 204.67 409.03 225.42 386.69 240.95C357.66 261.14 326.97 274.28 298.82 279.42C287.66 281.62 277.35 282.55 268.06 282.29C266.51 282.25 264.99 282.17 263.5 282.07C250.74 281.07 237.74 279.07 227.74 270.07C224.74 266.07 227.74 259.07 230.87 255.05C231.43 254.18 231.98 253.32 232.51 252.46C244.84 232.78 251.01 216.34 246.83 209.38C245.15 206.59 241.25 205.14 229.75 208.86C207.67 216.01 186.17 212.68 182.14 205.02C181.46 204.41 181.35 203.72 181.37 203.18C181.44 200.74 184.19 198.43 188.51 194.85C203.72 182.24 223.58 161.6 225.73 148.51C226.74 142.39 225.08 136.22 211.52 133.39C211.55 133.36 211.35 133.33 211.38 133.3C211.41 133.27 211.33 133.04 211.36 133.01C212.56 130.84 209.9 120.68 214.19 116.22Z" fill="white"/>
<path d="M220.65 119.19C220.1 119.76 219.67 120.46 219.35 121.23C217.72 125.12 218.58 131.12 218.62 134.49C230.02 137.16 235.07 142.2 234.34 149.64C232.98 163.47 209.94 184.9 195.77 196.06C190.09 200.53 188.79 202.12 188.77 203.51C188.77 203.7 188.75 204.09 189.23 204.49C193.29 211.72 215.49 213.15 237.33 206.49C244.44 204.31 249.61 203.9 252.96 205.24C254.24 205.49 255.2 206.04 255.79 206.94C261.11 215.06 250.27 236.52 238.48 254.1C237.57 255.46 236.81 256.69 236.2 257.82C229.72 271.06 248.72 278.06 258.79 279.48C260.27 279.73 261.79 279.93 263.35 280.09C272.74 281.05 283.68 280.43 295.8 278.17C324.08 272.91 356.76 258.91 389.01 237.73C414.82 220.78 429.06 202.71 427.7 186.96C427.33 182.63 417.11 181.38 407.33 179.88C394.19 177.87 380.56 175.54 376.28 168.9C374.92 166.79 373.39 165.03 372.01 163.41C370.85 162.05 369.82 160.81 369.07 159.59C368.32 158.37 367.84 157.17 367.77 155.88C369.71 138.06 390.71 133.06 402.19 121.27C403.26 120.3 404.14 119.37 404.86 118.5C407.03 115.89 407.8 113.74 407.9 111.96C407.97 110.78 407.75 109.76 407.46 108.89C380.7 89.0501 349.7 111.05 320.7 118.05C312.7 119.05 304.7 122.05 298.7 116.05C294.7 111.05 300.7 105.05 297.7 99.0501C293.7 93.0501 286.7 95.0501 281.7 98.0501C273.7 104.05 267.7 113.05 257.7 114.05C245.7 114.05 233.7 114.05 222.73 117.51C221.97 117.99 221.27 118.54 220.65 119.19ZM219.92 118.5C222.72 116.06 225.72 115.06 228.72 114.06C242.72 112.06 256.72 117.06 268.72 108.06C275.72 102.06 282.72 94.0601 292.72 95.0601C304.72 96.0601 294.72 111.06 301.72 115.06C322.72 125.06 343.72 105.06 365.72 102.06C379.72 99.0601 397.72 96.0601 408.39 108.74C408.7 110.09 408.64 111.54 408.21 113.07C407.56 115.37 406.07 117.85 403.71 120.44C402.92 121.3 402.04 122.18 401.06 123.07C389.72 133.06 371.72 139.06 368.77 155.95C368.84 157.02 369.27 158.04 369.97 159.13C370.66 160.21 371.62 161.35 372.72 162.65C374.12 164.29 375.68 166.08 377.07 168.24C381.11 174.53 395.07 177.08 407.51 178.8C420.13 180.54 428.19 181.87 428.67 186.77C430.36 203.77 411.48 223.62 389.53 238.57C360.58 258.29 330.42 271.21 303.04 276.54C288.5 279.58 275.48 280.45 264.37 279.35C262.98 279.21 261.62 279.04 260.29 278.85C253.73 277.06 246.73 276.06 239.73 273.06C233.73 270.06 229.73 262.06 235.5 256.93C236.09 255.87 236.79 254.76 237.58 253.59C251.85 232.42 259.32 214.66 255.04 207.64C253.39 204.94 249.42 203.58 237.58 207.7C214.88 215.58 193.89 212.03 188.58 205.53C187.99 204.81 187.76 204.22 187.78 203.68C187.86 201.28 190.67 198.97 195.19 195.41C210.76 183.17 231.37 162.82 233.2 150.07C234.05 144.18 232.06 138.2 217.7 135.66C217.72 135.63 217.52 135.61 217.54 135.58C217.56 135.55 217.48 135.32 217.51 135.29C218.43 133.59 216.54 126.14 218.35 121.14C218.71 120.14 219.22 119.24 219.92 118.5Z" fill="white"/>
<path d="M226.39 121.46C225.85 122.02 225.43 122.71 225.12 123.49C223.57 127.38 224.59 133.44 224.76 136.77C236.87 139.15 242.37 143.95 241.82 151.21C240.79 164.73 216.87 185.84 202.46 196.64C196.51 201.09 195.22 202.7 195.21 204.03C195.21 204.21 195.26 204.53 195.68 205.01C200.97 211.07 222.72 212.8 245.15 205.35C252.45 202.92 257.74 202.32 261.13 203.53C262.44 203.75 263.42 204.3 264.02 205.2C269.28 213.12 257.67 234.83 245.19 252.66C244.22 254.04 243.42 255.3 242.76 256.44C242.1 257.58 241.59 258.61 241.2 259.53C237.73 268.06 247.73 273.06 255.93 275.45C257.16 275.83 258.45 276.17 259.78 276.46C270.41 278.82 284.04 278.49 299.79 275.38C327.34 269.93 359.59 256.11 391.89 235.34C417.46 218.89 431.47 201.78 430.12 187.2C429.73 182.99 419.17 181.95 409.08 180.68C395.53 178.98 381.47 176.98 377.19 170.47C375.8 168.36 374.24 166.6 372.84 164.99C370.46 162.25 368.65 160.03 368.55 157.44C368.5 156.06 368.67 154.65 369.14 153.17C374.73 142.04 385.73 136.04 395.75 129.62C396.76 129.02 397.7 128.42 398.59 127.85C411.89 119.22 411.96 113.92 411.01 110.78C410.73 109.86 410.28 109.04 409.25 108.33C408.55 107.85 407.74 107.4 406.85 106.98C378.73 97.0401 350.73 113.04 323.73 122.04C304.73 129.04 304.73 113.04 296.73 102.04C288.73 91.0401 279.73 112.04 268.73 115.04C255.73 120.04 241.73 115.04 228.44 119.86C227.67 120.31 226.99 120.84 226.39 121.46ZM225.67 120.77C227.73 118.06 231.73 117.06 234.73 117.06C257.73 120.06 272.73 111.06 291.73 98.0601C293.73 97.0601 297.73 97.0601 299.73 99.0601C305.73 109.06 297.73 127.06 316.73 122.06C347.73 115.06 375.73 94.0601 407.19 105.99C408.11 106.41 408.93 106.87 409.65 107.36C410.97 108.27 411.68 109.38 411.94 110.66C413.03 116 407.94 123 396.4 130.36C395.33 131.04 394.3 131.71 393.31 132.35C384.74 138.05 375.74 144.05 370.16 153.5C369.66 154.9 369.48 156.22 369.54 157.53C369.64 159.67 371.27 161.64 373.54 164.24C374.96 165.87 376.55 167.66 377.97 169.82C382.01 175.98 396.42 178.18 409.23 179.62C422.28 181.09 430.58 182.23 431.09 187.01C432.78 202.87 413.96 221.82 392.4 236.19C363.53 255.43 333.91 268.14 307.29 273.66C287.76 278 271.13 278.39 258.36 275.32C257.2 275.04 256.07 274.73 254.97 274.4C247.73 272.06 235.73 268.06 240.51 258.57C240.93 257.61 241.46 256.6 242.09 255.53C242.72 254.46 243.46 253.33 244.3 252.14C259.43 230.63 267.46 212.69 263.26 205.9C261.64 203.29 257.6 202.03 245.42 206.53C222.1 215.15 200.34 212.22 195.04 206.03C194.42 205.31 194.2 204.71 194.22 204.18C194.31 201.81 197.18 199.49 201.9 195.97C217.83 184.08 239.19 164.05 240.7 151.63C241.39 145.98 239.07 140.19 223.91 137.93C223.93 137.9 223.72 137.88 223.74 137.85C223.76 137.82 223.68 137.58 223.7 137.56C224.52 135.98 222.42 128.43 224.13 123.41C224.47 122.4 224.96 121.5 225.67 120.77Z" fill="white"/>
<path d="M232.14 123.72C231.6 124.27 231.2 124.96 230.9 125.73C230.61 126.5 230.42 127.37 230.31 128.29C229.87 131.95 230.67 136.4 230.91 139.04C243.73 141.14 249.67 145.7 249.3 152.77C248.61 165.98 223.82 186.76 209.15 197.2C202.93 201.63 201.66 203.26 201.64 204.53C201.64 204.71 201.69 205.03 202.13 205.51C207.4 211.28 229.96 212.43 252.98 204.19C260.47 201.5 265.88 200.72 269.31 201.81C270.65 202.01 271.65 202.55 272.25 203.45C277.44 211.16 265.07 233.12 251.9 251.2C247.8 256.84 246.45 260.36 246.52 262.67C246.56 263.82 246.95 264.67 247.53 265.33C248.73 266.06 250.73 268.06 252.12 269.29C252.99 269.87 253.92 270.41 254.9 270.91C265.66 276.4 282.69 277.01 303.77 272.58C330.6 266.94 362.42 253.29 394.75 232.94C420.08 217 433.86 200.83 432.52 187.44C432.11 183.35 421.22 182.53 410.8 181.49C396.84 180.09 382.36 178.44 378.07 172.05C376.65 169.93 375.06 168.18 373.64 166.58C371.21 163.84 369.35 161.62 369.3 159.02C369.27 157.68 369.48 156.32 370.02 154.88C370.29 154.16 370.64 153.42 371.08 152.66C375.74 145.07 383.74 140.07 391.68 135.34C392.67 134.73 393.71 134.1 394.79 133.45C395.87 132.81 396.99 132.15 398.15 131.48C415.02 121.72 415.42 115.9 414.54 112.69C414.29 111.76 413.83 110.93 412.79 110.23C412.1 109.76 411.31 109.33 410.42 108.94C409.54 108.55 408.56 108.2 407.5 107.89C395.73 104.07 384.73 106.07 372.73 108.07C350.73 113.07 322.73 139.07 304.73 121.07C300.73 117.07 308.73 105.07 298.73 103.07C287.73 100.07 284.73 112.07 277.73 116.07C263.73 125.07 247.73 118.07 234.13 122.22C233.38 122.63 232.72 123.12 232.14 123.72ZM231.42 123.03C243.73 114.06 258.73 123.06 271.73 119.06C282.73 115.06 294.73 91.0599 303.73 106.06C307.73 114.06 302.73 130.06 318.73 126.06C349.73 119.06 375.73 97.0599 407.78 106.85C408.86 107.17 409.86 107.52 410.77 107.92C411.67 108.32 412.48 108.76 413.19 109.24C414.53 110.15 415.24 111.27 415.47 112.56C416.41 117.84 410.87 124.83 398.77 132.21C396.53 133.58 394.45 134.88 392.52 136.11C391.56 136.73 390.63 137.33 389.74 137.92C382.73 142.05 376.73 147.05 372.12 153.08C371.67 153.8 371.3 154.5 371.03 155.18C370.48 156.54 370.26 157.82 370.3 159.09C370.37 161.23 372.02 163.19 374.35 165.81C375.79 167.43 377.41 169.22 378.86 171.38C382.89 177.41 397.76 179.25 410.94 180.41C424.42 181.6 432.96 182.55 433.5 187.21C435.19 201.94 416.44 219.98 395.27 233.77C366.48 252.53 337.39 265.03 311.54 270.74C287.28 276.45 267.75 276.06 254.86 270.42C253.97 270.19 253.13 269.92 252.34 269.62C248.75 269.03 245.75 266.03 245.58 262.25C245.6 261.52 245.73 260.73 245.97 259.88C246.68 257.33 248.38 254.25 251.05 250.62C267.04 228.76 275.63 210.64 271.52 204.09C269.93 201.57 265.81 200.4 253.3 205.29C229.35 214.65 206.83 212.34 201.54 206.46C200.89 205.74 200.67 205.14 200.69 204.6C200.79 202.26 203.72 199.93 208.65 196.45C224.95 184.91 247.05 165.2 248.24 153.11C248.77 147.69 246.12 142.09 230.15 140.13C230.17 140.11 229.94 140.09 229.96 140.06C229.98 140.04 229.89 139.79 229.91 139.77C230.48 138.6 229.12 133.47 229.38 128.89C229.45 127.74 229.61 126.63 229.94 125.63C230.23 124.65 230.71 123.75 231.42 123.03Z" fill="white"/>
<path d="M237.89 125.95C236.83 127.05 236.33 128.68 236.15 130.51C236.06 131.43 236.05 132.4 236.1 133.37C236.23 136.3 236.81 139.31 237.07 141.27C240.45 141.72 243.39 142.33 245.89 143.1C247.14 143.48 248.28 143.91 249.31 144.37C251.73 146.07 253.73 148.07 255.7 149.61C256.48 151.01 256.85 152.58 256.8 154.3C256.44 167.2 230.79 187.64 215.86 197.74C209.37 202.13 208.12 203.79 208.09 205.02C208.09 205.19 208.13 205.52 208.59 206C213.85 211.48 237.2 212.05 260.81 203.03C268.49 200.09 274.01 199.12 277.49 200.09C278.87 200.27 279.88 200.79 280.49 201.69C285.61 209.2 272.48 231.4 258.61 249.74C252.11 258.34 252.1 262.08 253.78 264.01C262.19 273.64 281.63 275.61 307.74 269.78C333.85 263.95 365.23 250.47 397.61 230.53C422.7 215.08 436.24 199.88 434.92 187.66C434.49 183.69 423.26 183.09 412.53 182.28C398.15 181.19 383.25 179.87 378.96 173.61C377.51 171.49 375.89 169.74 374.45 168.15C371.96 165.4 370.06 163.18 370.06 160.57C370.06 157.98 371.05 155.27 373.79 152.08C374.48 151.28 375.27 150.46 376.19 149.59C378.74 148.07 380.74 146.07 383.25 143.95C383.98 143.44 384.74 142.91 385.54 142.38C389.54 139.7 394.48 136.7 400.56 133.31C418.18 123.48 418.83 117.64 418.08 114.57C417.85 113.62 417.39 112.79 416.34 112.09C414.98 111.18 413.21 110.43 411.09 109.86C410.03 109.57 408.89 109.33 407.67 109.14C397.74 107.08 387.74 109.08 376.74 111.08C352.74 116.08 328.74 142.08 307.74 126.08C303.74 123.08 309.74 100.08 298.74 108.08C279.74 122.08 263.74 125.08 242.18 123.63C240.42 124.05 239 124.8 237.89 125.95ZM237.17 125.27C257.73 118.07 279.73 130.07 294.73 107.07C296.73 104.07 302.73 103.07 304.73 106.07C312.73 116.07 302.73 134.07 321.73 130.07C351.73 124.07 375.73 102.07 406.23 107.86C407.36 108 408.42 108.17 409.43 108.38C412.45 109 414.94 109.93 416.73 111.12C418.08 112.02 418.8 113.15 419 114.46C419.79 119.68 413.81 126.66 401.14 134.06C377.67 147.77 370.97 154.57 371.04 160.66C371.07 162.8 372.76 164.76 375.14 167.39C376.6 169 378.25 170.78 379.73 172.96C383.76 178.86 399.08 180.34 412.63 181.23C426.53 182.14 435.32 182.91 435.88 187.45C437.56 201.04 418.88 218.17 398.1 231.39C369.38 249.67 340.84 261.96 315.75 267.86C292.08 273.76 273.18 273.85 260.87 268.84C257.35 268.02 254.67 266.65 252.99 264.63C250.53 261.67 252.12 256.56 257.74 249.18C274.58 226.97 283.74 208.67 279.71 202.36C278.15 199.93 273.96 198.86 261.1 204.14C236.51 214.24 213.24 212.55 207.95 206.98C207.27 206.26 207.05 205.65 207.08 205.12C207.19 202.81 210.18 200.47 215.31 197.02C231.98 185.81 254.83 166.44 255.69 154.68C255.78 153.38 255.67 152.07 255.18 150.81C254.69 149.55 253.83 148.33 252.43 147.23C251.73 146.68 250.9 146.15 249.91 145.66C248.92 145.17 247.78 144.72 246.46 144.3C243.83 143.48 240.5 142.82 236.3 142.4C236.32 142.38 236.08 142.36 236.1 142.34C236.12 142.32 236.02 142.07 236.04 142.05C236.41 141.24 235.65 138.13 235.31 134.68C235.2 133.53 235.13 132.34 235.17 131.19C235.21 130.04 235.36 128.92 235.67 127.91C235.99 126.89 236.47 125.99 237.17 125.27Z" fill="white"/>
<path d="M243.62 128.16C241.73 131.07 240.73 135.07 242.34 138.54C242.48 139.5 242.65 140.42 242.8 141.26C242.96 142.1 243.1 142.87 243.21 143.51C244.1 143.61 244.96 143.71 245.79 143.83C246.62 143.95 247.43 144.07 248.2 144.21C254.71 145.07 263.71 148.07 264.27 155.83C264.27 156.73 264.13 157.67 263.87 158.64C260.51 171.24 236.65 189.21 222.54 198.28C215.77 202.63 214.54 204.33 214.51 205.5C214.51 205.67 214.54 206 215.03 206.48C220.28 211.67 244.43 211.65 268.62 201.85C276.49 198.65 282.13 197.5 285.65 198.34C287.06 198.5 288.09 199.01 288.71 199.91C293.76 207.22 279.87 229.65 265.31 248.26C258.47 257 258.39 260.78 260.03 262.67C267.71 271.55 286.33 272.98 311.72 266.96C337.1 260.95 368.05 247.62 400.47 228.11C425.31 213.16 438.61 198.92 437.31 187.87C436.86 184.03 425.29 183.64 414.24 183.05C399.45 182.27 384.12 181.29 379.83 175.15C378.34 173.03 376.7 171.28 375.24 169.69C372.7 166.93 370.75 164.72 370.8 162.09C370.91 155.83 377.59 148.76 402.93 135.11C421.3 125.21 422.21 119.35 421.58 116.42C421.37 115.46 420.91 114.62 419.85 113.92C417.85 112.6 414.88 111.66 411.22 111.15C410 110.98 408.7 110.86 407.34 110.79C377.72 108.07 353.72 128.07 324.72 135.07C307.72 139.07 310.72 124.07 309.72 113.07C309.72 109.07 300.72 107.07 298.72 110.07C286.72 131.07 266.72 127.07 247.74 125.98C246.04 126.35 244.67 127.05 243.62 128.16ZM242.89 127.48C255.72 120.07 269.72 130.07 283.72 124.07C289.72 121.07 289.72 115.07 294.72 111.07C299.72 107.07 308.72 106.07 311.72 112.07C313.72 119.07 307.72 129.07 313.72 132.07C333.72 140.07 354.72 121.07 374.72 114.07C384.72 111.07 395.72 109.07 406.27 109.7C407.5 109.74 408.68 109.82 409.8 109.94C414.29 110.4 417.92 111.45 420.27 112.99C421.64 113.89 422.35 115.03 422.52 116.36C423.17 121.52 416.74 128.49 403.5 135.91C378.98 149.66 371.83 156.35 371.79 162.22C371.78 164.37 373.5 166.32 375.94 168.96C377.43 170.57 379.1 172.34 380.61 174.52C384.64 180.29 400.4 181.41 414.33 182.02C428.65 182.65 437.69 183.24 438.28 187.66C439.94 200.12 421.35 216.33 400.96 228.98C372.31 246.76 344.31 258.87 319.99 264.96C296.9 271.05 278.64 271.61 266.92 267.23C263.45 266.51 260.84 265.23 259.25 263.29C256.82 260.34 258.57 255.18 264.48 247.69C282.18 225.14 291.9 206.66 287.95 200.59C286.42 198.25 282.15 197.27 268.96 202.94C243.74 213.78 219.71 212.73 214.43 207.44C213.72 206.73 213.51 206.1 213.53 205.57C213.64 203.29 216.7 200.94 222.04 197.53C237.87 187.43 259.34 170.3 262.75 158.75C263.01 157.86 263.17 157.01 263.2 156.19C263.72 148.08 253.72 147.08 248.47 145.33C247.58 145.19 246.65 145.06 245.66 144.94C244.67 144.82 243.63 144.72 242.53 144.64C242.54 144.62 242.3 144.61 242.31 144.59C242.32 144.57 242.22 144.32 242.24 144.3C242.44 143.81 242.13 142.25 241.77 140.25C241.59 139.25 241.4 138.13 241.26 136.97C240.73 135.09 240.73 132.09 241.46 130.15C241.75 129.1 242.21 128.2 242.89 127.48Z" fill="white"/>
<path d="M249.32 130.88C244.72 135.06 249.72 140.06 248.87 144.03C249.05 144.87 249.23 145.64 249.36 146.27C250.29 146.35 251.2 146.43 252.07 146.53C259.72 149.05 273.72 149.05 271.41 160.61C271.16 161.56 270.79 162.53 270.31 163.54C264.49 175.58 242.5 191.22 229.24 199.32C222.19 203.62 220.99 205.37 220.95 206.48C220.94 206.64 220.97 206.98 221.48 207.46C226.72 212.38 251.66 211.76 276.44 201.18C284.51 197.73 290.26 196.39 293.82 197.11C295.26 197.24 296.31 197.75 296.94 198.65C301.92 205.76 287.27 228.43 272.02 247.29C264.84 256.17 264.7 259.98 266.28 261.83C273.23 269.97 291.03 270.85 315.69 264.64C340.35 258.44 370.86 245.27 403.33 226.19C427.93 211.74 440.98 198.46 439.71 188.58C439.23 184.86 427.34 184.68 415.97 184.33C400.77 183.86 385.02 183.22 380.71 177.2C379.19 175.08 377.52 173.33 376.04 171.75C373.44 168.98 371.45 166.77 371.55 164.14C371.77 158.09 378.95 151.19 405.32 137.44C424.44 127.47 425.61 121.59 425.09 118.8C424.91 117.83 424.45 116.99 423.37 116.29C420.57 114.47 415.73 113.44 409.69 113.38C408.48 113.37 407.22 113.39 405.93 113.46C398.72 114.05 390.72 115.05 383.72 117.05C360.72 123.05 337.72 149.05 314.72 136.05C308.72 133.05 317.72 124.05 313.72 117.05C310.72 113.05 304.72 111.05 302.72 114.05C289.72 134.05 272.72 131.05 253.29 128.84C251.64 129.17 250.32 129.82 249.32 130.88ZM248.6 130.21C258.72 124.07 271.72 130.07 282.72 130.07C291.72 130.07 292.72 121.07 297.72 115.07C301.72 112.07 307.72 110.07 312.72 114.07C314.72 116.07 314.72 118.07 315.72 120.07C316.72 126.07 309.72 132.07 315.72 137.07C321.72 142.07 328.72 138.07 334.72 137.07C359.72 130.07 379.72 113.07 405.99 112.44C407.32 112.38 408.6 112.35 409.83 112.37C415.99 112.45 420.94 113.52 423.82 115.38C425.21 116.28 425.92 117.43 426.06 118.77C426.57 123.87 419.68 130.83 405.88 138.27C380.32 152.06 372.7 158.65 372.55 164.29C372.49 166.44 374.26 168.39 376.75 171.04C378.26 172.64 379.95 174.41 381.5 176.59C385.52 182.24 401.73 182.99 416.04 183.33C430.78 183.68 440.06 184.08 440.69 188.39C442.33 199.71 423.82 215 403.83 227.09C375.25 244.38 347.8 256.29 324.24 262.57C301.74 268.85 284.12 269.89 272.97 266.13C269.55 265.51 267.01 264.32 265.5 262.47C263.11 259.53 265.01 254.33 271.2 246.72C289.76 223.82 300.04 205.16 296.17 199.33C294.67 197.08 290.33 196.2 276.8 202.26C250.94 213.84 226.16 213.43 220.89 208.43C220.15 207.72 219.94 207.09 219.97 206.56C220.09 204.31 223.21 201.94 228.75 198.58C244.94 188.77 267.08 171.97 270.31 160.73C270.56 159.87 270.69 159.03 270.7 158.24C268.73 150.09 258.73 148.09 252.01 147.65C250.97 147.55 249.88 147.47 248.73 147.4C248.74 147.38 248.49 147.37 248.5 147.36C248.51 147.34 248.4 147.09 248.42 147.07C248.58 146.62 248.21 145.08 247.79 143.07C245.73 140.09 246.73 136.09 247.21 132.89C247.48 131.84 247.92 130.93 248.6 130.21Z" fill="white"/>
<path d="M255.02 133.59C248.73 149.06 261.73 149.06 272.73 152.06C276.73 153.06 281.73 158.06 278.97 162.61C278.74 163.53 278.37 164.49 277.89 165.47C272.11 177.23 249.46 192.56 235.95 200.39C228.63 204.63 227.45 206.44 227.4 207.49C227.39 207.65 227.41 208 227.95 208.47C233.18 213.12 258.92 211.9 284.28 200.53C292.54 196.83 298.4 195.29 302.01 195.9C303.48 196.01 304.55 196.51 305.18 197.41C310.09 204.32 294.68 227.22 278.74 246.35C271.22 255.37 271.02 259.22 272.55 261.03C278.77 268.42 295.75 268.76 319.69 262.37C343.63 255.98 373.7 242.97 406.21 224.32C430.56 210.36 443.35 198.06 442.13 189.34C441.63 185.74 429.4 185.78 417.71 185.66C402.09 185.5 385.92 185.2 381.61 179.3C380.06 177.17 378.36 175.43 376.86 173.86C374.2 171.08 372.17 168.88 372.32 166.23C372.65 160.39 380.33 153.66 407.73 139.81C427.59 129.77 429.03 123.88 428.63 121.22C428.48 120.23 428.01 119.39 426.92 118.69C423.62 116.58 417.31 115.65 409.46 116.2C408.15 116.29 406.8 116.43 405.41 116.6C381.73 118.07 363.73 134.07 341.73 141.07C333.73 143.07 323.73 148.07 318.73 142.07C311.73 135.07 318.73 108.07 306.73 120.07C292.73 135.07 276.73 134.07 258.85 131.72C257.23 131.97 255.96 132.58 255.02 133.59ZM254.29 132.92C255.72 130.07 259.72 130.07 261.72 131.07C276.72 132.07 295.72 139.07 302.72 119.07C303.72 115.07 311.72 114.07 315.72 118.07C317.72 120.07 317.72 122.07 318.72 124.07C320.72 130.07 312.72 137.07 318.72 142.07C325.72 147.07 333.72 142.07 341.72 140.07C363.72 132.07 382.72 118.07 405.39 115.56C406.8 115.38 408.18 115.25 409.51 115.16C417.51 114.62 423.97 115.59 427.35 117.76C428.75 118.66 429.47 119.81 429.58 121.17C429.96 126.21 422.61 133.15 408.24 140.62C381.63 154.45 373.55 160.93 373.29 166.35C373.19 168.5 374.99 170.45 377.54 173.1C379.07 174.69 380.79 176.46 382.37 178.64C386.39 184.16 403.04 184.98 417.73 184.61C432.89 184.24 442.42 184.9 443.07 189.09C444.67 199.28 426.25 213.64 406.66 225.17C378.15 241.95 351.24 253.68 328.45 260.15C306.54 266.62 289.55 268.14 278.99 265C275.61 264.48 273.15 263.39 271.73 261.62C269.38 258.69 271.43 253.45 277.91 245.72C297.32 222.47 308.17 203.63 304.38 198.04C302.91 195.87 298.49 195.1 284.63 201.54C258.13 213.87 232.6 214.1 227.33 209.38C226.55 208.68 226.35 208.03 226.38 207.5C226.51 205.28 229.69 202.88 235.44 199.58C250.72 190.79 271.33 176.08 276.8 165.27C277.26 164.37 277.61 163.5 277.84 162.65C278.7 151.04 263.7 150.04 254.92 150.1C254.93 150.09 254.66 150.08 254.67 150.07C254.68 150.06 254.57 149.8 254.58 149.78C254.7 149.38 254.27 147.85 253.78 145.83C252.7 143.04 252.7 139.04 252.93 135.56C253.2 134.55 253.63 133.64 254.29 132.92Z" fill="white"/>
<path d="M260.71 136.29C257.73 141.07 259.73 149.07 262.73 151.07C269.73 155.07 286.73 153.07 286.51 164.58C286.29 165.48 285.94 166.42 285.46 167.37C279.71 178.84 256.42 193.86 242.65 201.43C235.05 205.61 233.89 207.48 233.85 208.47C233.84 208.63 233.85 208.98 234.41 209.45C239.63 213.84 266.16 212.01 292.12 199.85C300.57 195.89 306.55 194.17 310.2 194.66C311.7 194.75 312.78 195.23 313.43 196.13C318.26 202.84 302.1 225.97 285.47 245.36C277.61 254.52 277.35 258.4 278.82 260.18C284.32 266.82 300.47 266.61 323.69 260.04C346.9 253.46 376.53 240.6 409.1 222.39C433.21 208.91 445.72 197.59 444.56 190.04C444.02 186.56 431.47 186.82 419.47 186.92C403.44 187.06 386.84 187.11 382.53 181.33C380.94 179.2 379.22 177.46 377.7 175.9C374.99 173.12 372.9 170.91 373.11 168.26C373.55 162.63 381.73 156.07 410.16 142.11C430.77 132 432.48 126.1 432.19 123.57C432.08 122.57 431.59 121.72 430.49 121.03C426.18 118.32 416.36 117.77 404.64 120.1C403.18 120.39 401.68 120.73 400.16 121.11C372.77 127.06 348.77 157.06 321.77 146.06C313.77 143.06 324.77 115.06 312.77 124.06C296.77 136.06 283.77 140.06 264.44 134.56C262.82 134.76 261.59 135.32 260.71 136.29ZM259.98 135.61C260.72 134.07 262.72 133.07 264.72 133.07C282.72 137.07 299.72 143.07 308.72 121.07C309.72 118.07 316.72 119.07 319.72 122.07C323.72 127.07 321.72 134.07 319.72 140.07C317.72 152.07 331.72 148.07 337.72 147.07C359.72 140.07 377.72 126.07 399.94 120.1C401.49 119.72 403.02 119.38 404.51 119.09C416.45 116.75 426.48 117.34 430.91 120.13C432.33 121.02 433.06 122.19 433.12 123.57C433.36 128.56 425.56 135.48 410.62 142.97C382.97 156.84 374.42 163.21 374.05 168.41C373.9 170.56 375.74 172.51 378.35 175.17C379.9 176.75 381.65 178.52 383.27 180.7C387.28 186.09 404.37 186.11 419.45 185.91C435.03 185.7 444.79 185.74 445.49 189.81C447.05 198.87 428.73 212.3 409.54 223.27C381.09 239.54 354.74 251.09 332.71 257.75C311.39 264.41 295.03 266.4 285.05 263.9C281.72 263.49 279.33 262.48 278 260.8C275.69 257.88 277.89 252.6 284.65 244.75C304.92 221.16 316.33 202.14 312.63 196.78C311.19 194.7 306.69 194.02 292.5 200.86C265.36 213.93 239.09 214.82 233.82 210.37C233.01 209.68 232.82 209.01 232.85 208.49C232.99 206.3 236.23 203.88 242.18 200.62C257.8 192.08 279.01 177.68 284.42 167.17C284.87 166.29 285.21 165.44 285.43 164.63C285.73 153.08 268.73 155.08 261.73 152.08C258.73 150.08 257.73 143.08 258.69 138.3C258.92 137.25 259.33 136.33 259.98 135.61Z" fill="white"/>
<path d="M266.4 138.93C262.73 144.07 265.73 151.07 268.73 153.07C273.73 157.07 282.73 155.07 289.73 158.07C292.73 160.07 293.73 163.07 294.05 166.5C293.85 167.38 293.5 168.29 293.02 169.22C287.31 180.41 263.38 195.1 249.34 202.43C241.46 206.54 240.33 208.48 240.28 209.41C240.27 209.56 240.27 209.93 240.86 210.39C246.09 214.53 273.39 212.07 299.94 199.14C308.58 194.93 314.68 193.02 318.37 193.38C319.9 193.45 321 193.92 321.66 194.82C326.42 201.33 309.51 224.68 292.17 244.35C283.97 253.65 283.65 257.57 285.07 259.3C289.86 265.18 305.18 264.44 327.66 257.68C350.14 250.92 379.33 238.19 411.95 220.43C435.81 207.44 448.04 197.1 446.95 190.71C446.38 187.36 433.5 187.82 421.18 188.16C404.73 188.61 387.71 189 383.4 183.34C381.78 181.21 380.03 179.47 378.49 177.92C375.72 175.13 373.58 172.92 373.85 170.26C374.4 164.83 383.1 158.49 412.55 144.39C433.93 134.24 435.89 128.3 435.71 125.9C435.63 124.88 435.14 124.03 434.02 123.34C429.26 120.4 417.35 120.29 403.56 124.02C402.03 124.43 400.47 124.9 398.9 125.41C373.76 131.07 343.76 167.07 322.76 147.07C320.76 144.07 326.76 135.07 323.76 129.07C321.76 125.07 313.76 123.07 312.76 126.07C304.76 148.07 286.76 141.07 269.98 137.37C268.41 137.5 267.22 138.01 266.4 138.93ZM265.67 138.25C281.73 133.07 303.73 154.07 309.73 127.07C310.73 123.07 318.73 122.07 322.73 126.07C329.73 133.07 319.73 146.07 325.73 149.07C349.73 160.07 374.73 132.07 398.62 124.42C400.22 123.91 401.8 123.44 403.36 123.02C417.4 119.26 429.57 119.42 434.46 122.44C435.9 123.33 436.63 124.51 436.66 125.9C436.77 130.83 428.51 137.74 413 145.25C384.31 159.16 375.29 165.41 374.81 170.41C374.61 172.56 376.5 174.51 379.16 177.18C380.73 178.76 382.5 180.52 384.16 182.7C388.17 187.97 405.7 187.62 421.16 187.14C437.15 186.65 447.15 186.51 447.9 190.46C449.4 198.39 431.2 210.88 412.41 221.3C384.02 237.04 358.22 248.43 336.96 255.28C316.23 262.13 300.51 264.6 291.11 262.72C287.83 262.41 285.51 261.49 284.26 259.9C281.99 256.99 284.34 251.66 291.38 243.7C312.51 219.76 324.48 200.56 320.86 195.44C319.45 193.45 314.87 192.87 300.34 200.09C272.55 213.9 245.55 215.46 240.27 211.27C239.42 210.59 239.24 209.91 239.27 209.38C239.41 207.22 242.72 204.77 248.87 201.57C263.51 193.97 283.05 181.5 290.33 171.6C290.99 170.7 291.55 169.82 292 168.97C295.72 154.05 274.72 159.05 267.72 154.05C264.72 152.05 263.72 146.05 264.42 140.92C264.63 139.89 265.02 138.97 265.67 138.25Z" fill="white"/>
<path d="M272.09 141.47C269.73 147.07 270.73 154.07 274.73 156.07C281.73 160.07 299.73 155.07 301.6 168.31C301.41 169.17 301.07 170.05 300.6 170.96C294.93 181.86 270.36 196.23 256.04 203.31C247.89 207.34 246.77 209.36 246.72 210.23C246.71 210.38 246.7 210.76 247.31 211.22C252.55 215.12 280.63 212.03 307.76 198.31C316.59 193.84 322.8 191.75 326.53 191.99C328.09 192.03 329.21 192.5 329.88 193.4C334.57 199.72 316.91 223.29 298.87 243.23C290.33 252.67 289.96 256.62 291.31 258.32C295.38 263.45 309.87 262.17 331.63 255.22C353.39 248.27 382.13 235.68 414.81 218.37C438.42 205.86 450.36 196.51 449.34 191.28C448.71 188.06 435.53 188.71 422.9 189.3C406.04 190.03 388.59 190.79 384.27 185.25C382.61 183.12 380.84 181.38 379.28 179.83C376.45 177.03 374.26 174.83 374.59 172.16C375.24 166.94 384.43 160.76 414.93 146.57C437.05 136.34 439.29 130.41 439.21 128.13C439.17 127.1 438.66 126.24 437.53 125.55C431.84 122.09 415.17 123 397.43 130.09C396.62 130.41 395.82 130.75 395.01 131.09C372.73 139.08 348.73 168.08 326.73 153.08C321.73 149.08 334.73 133.08 322.73 129.08C312.73 126.08 313.73 141.08 306.73 145.08C297.73 151.08 286.73 141.08 275.51 140.08C274 140.14 272.86 140.6 272.09 141.47ZM271.36 140.79C283.73 135.07 294.73 150.07 306.73 144.07C313.73 140.07 311.73 124.07 322.73 128.07C336.73 132.07 321.73 151.07 328.73 154.07C351.73 164.07 373.73 138.07 397.11 129.12C397.93 128.79 398.75 128.48 399.56 128.18C416.66 121.89 432.42 121.26 438.01 124.66C439.47 125.55 440.2 126.74 440.2 128.14C440.18 133.03 431.46 139.9 415.39 147.44C385.65 161.39 376.16 167.53 375.59 172.31C375.33 174.46 377.27 176.41 379.99 179.09C381.58 180.66 383.38 182.42 385.07 184.6C389.07 189.75 407.04 189.03 422.89 188.28C439.3 187.51 449.52 187.2 450.32 191.02C451.76 197.83 433.67 209.37 415.28 219.25C386.94 234.46 361.71 245.69 341.21 252.73C321.07 259.77 305.98 262.71 297.17 261.46C293.94 261.25 291.69 260.42 290.53 258.91C288.3 256.01 290.8 250.64 298.13 242.56C320.11 218.27 332.65 198.89 329.11 194.01C327.73 192.11 323.07 191.63 308.21 199.24C279.77 213.8 252.04 216.03 246.76 212.08C245.87 211.42 245.7 210.71 245.74 210.19C245.89 208.06 249.27 205.57 255.62 202.44C271.94 194.39 294.35 180.62 299.63 170.7C300.51 169.05 300.91 167.5 300.72 166.09C294.75 156.07 280.75 161.07 273.75 157.07C270.75 155.07 268.75 148.07 270.2 143.49C270.35 142.43 270.73 141.5 271.36 140.79Z" fill="white"/>
<path d="M277.79 143.96C270.72 164.06 292.72 158.06 304.72 162.06C307.72 163.06 308.72 167.06 309.13 170.05C308.95 170.88 308.62 171.74 308.15 172.63C302.52 183.24 277.32 197.28 262.73 204.12C254.31 208.07 253.21 210.17 253.15 210.98C253.14 211.12 253.12 211.52 253.76 211.97C259.01 215.64 287.86 211.91 315.58 197.4C324.6 192.68 330.93 190.4 334.7 190.52C336.3 190.54 337.43 191 338.1 191.89C342.71 198.01 324.3 221.8 305.57 242.01C296.69 251.59 296.26 255.56 297.56 257.24C300.93 261.6 314.57 259.8 335.61 252.66C356.65 245.52 384.91 233 417.67 216.21C441.01 204.13 452.66 195.82 451.74 191.75C451.04 188.66 437.57 189.52 424.63 190.33C407.35 191.38 389.47 192.47 385.16 187.04C383.47 184.91 381.67 183.18 380.09 181.63C377.2 178.83 374.95 176.62 375.35 173.94C376.1 168.92 385.79 162.9 417.33 148.63C440.19 138.31 442.72 132.4 442.74 130.24C442.75 129.2 442.22 128.33 441.06 127.65C434.47 123.71 412.18 126.13 390.93 137.68C390.11 138.12 389.3 138.58 388.48 139.05C369.73 147.03 351.73 168.03 330.73 160.03C325.73 158.03 329.73 151.03 331.73 146.03C333.73 139.03 329.73 129.03 321.73 132.03C314.73 135.03 317.73 146.03 312.73 149.03C301.73 154.03 291.73 143.03 281.08 142.69C279.61 142.73 278.51 143.14 277.79 143.96ZM277.06 143.28C291.73 140.07 313.73 161.07 317.73 135.07C318.73 130.07 326.73 129.07 330.73 134.07C336.73 142.07 326.73 154.07 330.73 157.07C350.73 169.07 371.73 145.07 390.46 136.82C391.29 136.37 392.12 135.93 392.95 135.51C413.74 124.94 435.03 122.91 441.56 126.81C443.04 127.69 443.78 128.9 443.73 130.32C443.58 135.16 434.39 141.99 417.76 149.57C386.96 163.51 377.01 169.58 376.34 174.15C376.02 176.3 378.01 178.25 380.79 180.94C382.39 182.5 384.22 184.26 385.95 186.44C389.94 191.47 408.35 190.37 424.59 189.35C441.41 188.29 451.84 187.82 452.72 191.51C454.08 197.2 436.13 207.78 418.14 217.12C389.86 231.79 365.18 242.87 345.45 250.11C325.9 257.34 311.44 260.76 303.21 260.13C300.02 260.03 297.85 259.28 296.78 257.86C294.59 254.97 297.25 249.56 304.85 241.36C327.69 216.73 340.79 197.17 337.33 192.52C335.99 190.71 331.24 190.33 316.05 198.32C286.97 213.63 258.52 216.54 253.22 212.83C252.3 212.18 252.13 211.45 252.17 210.93C252.33 208.83 255.77 206.31 262.32 203.24C279 195.43 302.02 181.96 307.22 172.35C308.09 170.75 308.46 169.25 308.21 167.9C301.73 158.07 287.73 164.07 279.73 160.07C276.73 158.07 275.73 151.07 275.93 145.99C276.08 144.92 276.43 143.99 277.06 143.28Z" fill="white"/>
<path d="M342.88 189.01C344.51 189.01 345.66 189.46 346.34 190.35C350.88 196.28 331.72 220.28 312.29 240.77C303.08 250.48 302.6 254.49 303.82 256.14C306.49 259.74 319.28 257.41 339.59 250.08C359.9 242.75 387.75 230.42 420.54 214.03C443.65 202.47 454.96 195.13 454.15 192.21C453.33 189.27 439.62 190.33 426.36 191.36C408.66 192.73 390.36 194.16 386.05 188.84C384.32 186.71 382.5 184.97 380.9 183.44C377.96 180.63 375.64 178.41 376.11 175.74C376.96 170.91 387.15 165.06 419.73 150.71C443.33 140.31 446.15 134.42 446.27 132.37C446.33 131.32 445.77 130.44 444.6 129.76C437.65 125.69 412.02 129.19 389.22 143.74C372.69 154.29 358.83 161.44 348.91 164.69C347.67 165.1 346.49 165.44 345.38 165.73C340.73 167.07 332.73 168.07 331.73 161.07C331.73 153.07 339.73 145.07 333.73 138.07C331.73 136.07 328.73 135.07 325.73 136.07C316.73 139.07 322.73 151.07 316.73 153.07C304.73 157.07 294.73 142.07 284.73 147.07C279.73 149.07 282.73 159.07 286.73 161.07C295.73 165.07 309.73 160.07 316.69 169.42C317.03 170.91 316.66 172.54 315.73 174.26C310.14 184.58 284.33 198.28 269.44 204.9C260.74 208.77 259.66 210.94 259.6 211.7C259.59 211.84 259.56 212.25 260.22 212.69C265.5 216.13 295.11 211.76 323.41 196.47C332.62 191.48 339.06 189.01 342.88 189.01ZM309.24 258.73C306.1 258.73 304 258.07 303.01 256.74C300.87 253.85 303.67 248.41 311.56 240.09C335.26 215.11 348.92 195.37 345.54 190.97C344.23 189.25 339.4 188.96 323.88 197.35C294.15 213.4 264.99 217 259.66 213.53C258.7 212.9 258.55 212.15 258.59 211.62C258.76 209.56 262.26 206.99 269.02 203.98C286.07 196.4 309.7 183.24 314.81 173.93C315.66 172.38 316 170.93 315.71 169.64C308.73 160.06 294.73 166.06 286.73 162.06C281.73 160.06 277.73 145.06 286.73 145.06C296.73 145.06 306.73 156.06 315.73 152.06C321.73 149.06 317.73 138.06 324.73 135.06C328.73 134.06 334.73 135.06 336.73 142.06C337.73 148.06 331.73 155.06 333.73 160.06C339.73 175.06 360.73 157.06 371.7 153.06C372.58 152.57 373.47 152.07 374.37 151.56C378.88 148.99 383.66 146.09 388.68 142.89C411.79 128.14 437.94 124.69 445.1 128.89C446.59 129.77 447.34 130.99 447.26 132.42C446.98 137.21 437.35 144.03 420.13 151.62C388.31 165.64 377.86 171.54 377.09 175.91C376.71 178.06 378.76 180.01 381.59 182.71C383.22 184.26 385.06 186.03 386.83 188.2C390.82 193.11 409.66 191.64 426.29 190.35C443.52 189.01 454.13 188.37 455.12 191.93C456.39 196.51 438.58 206.12 420.99 214.92C392.76 229.04 368.65 239.99 349.68 247.41C330.71 254.83 316.89 258.73 309.24 258.73Z" fill="white"/>
</g>
<defs>
<clipPath id="clip0">
<rect width="449.17" height="353.02" fill="white" transform="translate(6)"/>
</clipPath>
</defs>
</svg>
