<svg width="324" height="152" viewBox="0 0 324 152" fill="none"
  xmlns="http://www.w3.org/2000/svg">
  <path d="M-0.000399232 152H1.97729L1.97729 0.00038147H-0.000399232L-0.000399232 152Z" fill="white"/>
  <path d="M109.457 152H111.435C111.435 152 111.435 150.531 111.435 147.884C111.435 147.507 111.435 147.104 111.435 146.678C115.073 128.391 114.267 110.606 111.747 92.2775C111.791 91.7667 111.845 91.2559 111.903 90.7451C112.611 84.6125 114.267 78.4554 119.091 72.2996C119.091 72.0262 116.679 72.0262 115.878 71.7527C114.267 66.8269 114.267 61.9027 114.267 56.9769C113.461 55.3345 118.286 53.4201 116.679 51.7777C113.466 48.2209 111.054 44.9376 111.435 41.2114C111.435 40.9148 111.435 40.6196 111.435 40.3244C111.435 17.3483 111.435 -0.00170898 111.435 -0.00170898H109.457C109.457 -0.00170898 109.457 17.5784 109.457 40.7802C109.457 41.074 109.457 41.3692 109.457 41.6644C108.641 44.9361 111.855 47.6725 112.66 50.6823C115.873 57.796 113.466 65.7315 113.466 72.2982C114.067 78.2499 111.508 84.3549 110.194 90.5323C110.087 91.0475 109.984 91.5626 109.896 92.0778C111.859 110.331 113.471 128.39 109.462 146.663C109.462 147.09 109.462 147.492 109.462 147.871C109.457 150.528 109.457 152 109.457 152Z" fill="white"/>
  <path d="M190.2 151.999H192.178C192.178 151.999 192.178 146.803 192.178 138.332C192.178 137.979 192.178 137.62 192.178 137.255C191.421 128.117 196.246 118.814 193.834 109.785C192.227 105.681 193.028 101.576 192.212 97.5759C192.212 97.0883 192.212 96.6006 192.212 96.1115C192.212 93.1841 192.198 90.2655 192.173 87.4379C192.173 86.9431 192.173 86.4467 192.173 85.9504C192.173 85.454 192.173 84.9563 192.173 84.4585C193.028 78.5907 193.028 73.118 194.634 67.6453C196.241 62.4461 193.028 56.9734 193.272 51.3676C193.379 50.8828 193.506 50.3981 193.658 49.9147C195.167 45.086 199.02 40.3816 206.696 35.9045C187.407 33.4416 193.838 25.781 192.183 20.2432C192.183 19.8597 192.183 19.4806 192.183 19.1044C192.183 7.47016 192.183 -0.00524902 192.183 -0.00524902H190.205C190.205 -0.00524902 190.205 7.64525 190.205 19.5139C190.205 19.8973 190.205 20.2837 190.205 20.6758C192.232 26.6015 185.801 33.4416 204.288 36.725C196.695 40.7883 193.003 45.2394 191.563 49.8598C191.402 50.3735 191.27 50.8886 191.162 51.4052C189.019 56.6985 193.838 61.8977 193.038 67.0969C190.625 73.1166 191.431 79.1363 190.205 85.279C190.205 85.7796 190.205 86.2789 190.205 86.7781C190.205 87.2773 190.205 87.7766 190.205 88.2743C190.205 88.7721 190.205 89.2699 190.205 89.7662C190.015 91.9759 189.917 94.1754 189.917 96.3647C189.917 96.8032 189.922 97.2402 189.927 97.6772C189.82 102.94 193.033 108.413 192.232 113.612C191.426 121.821 192.232 129.755 190.205 138.099C190.205 138.443 190.205 138.782 190.205 139.116C190.2 147.124 190.2 151.999 190.2 151.999Z" fill="white"/>
  <path d="M242.236 151.999H244.214C244.214 151.999 244.214 141.08 244.214 125.093C244.214 124.683 244.214 124.27 244.214 123.853C242.861 115.257 251.704 107.048 249.292 99.1128C245.273 88.9893 247.686 78.0439 243.935 67.3025C244.101 66.9031 244.36 66.511 244.677 66.1246C246.919 63.4129 252.266 60.9428 251.699 58.069C250.894 48.4924 254.913 38.9159 251.699 29.6115C250.093 24.6857 243.662 18.9395 244.214 13.0935C244.214 12.7057 244.214 12.3266 244.214 11.9532C244.214 4.49808 244.214 -0.00366211 244.214 -0.00366211H242.236C242.236 -0.00366211 242.236 4.49808 242.236 11.9532C242.236 12.3266 242.236 12.7057 242.236 13.0935C240.449 19.2145 247.681 24.4122 250.093 30.4319C253.306 38.641 242.861 46.8486 250.899 55.0577C254.112 58.0675 248.486 61.0773 243.667 63.8137C242.461 64.6342 241.86 65.7296 241.679 66.9031C241.621 67.2953 241.606 67.6947 241.635 68.0969C246.079 78.8629 244.468 89.8069 246.88 99.9318C249.292 107.319 241.254 115.528 242.236 123.85C242.236 124.267 242.236 124.679 242.236 125.09C242.236 141.08 242.236 151.999 242.236 151.999Z" fill="white"/>
  <path d="M276.33 152H278.308C278.308 152 278.308 140.525 278.308 123.881C278.308 123.493 278.308 123.104 278.308 122.71C278.225 112.248 282.244 102.125 281.438 91.9996C279.831 83.2436 279.026 74.4876 278.523 65.6693C278.596 65.2077 278.674 64.7461 278.752 64.2845C279.377 60.5887 280.149 56.867 281.438 53.1452C284.651 44.6626 278.225 36.4536 285.457 28.246C287.869 26.3301 283.85 24.4156 280.632 22.7733C275.808 20.3104 279.026 17.3005 278.303 14.6669C278.303 14.1011 278.303 13.5484 278.303 13.0086C278.303 4.92691 278.303 -0.00170898 278.303 -0.00170898H276.325C276.325 -0.00170898 276.325 4.87916 276.325 12.8929C276.325 13.2575 276.325 13.628 276.325 14.0042C276.613 18.3945 280.632 23.0453 281.438 26.3286C282.922 38.7052 280.984 51.3147 277.287 63.9025C277.131 64.4263 276.975 64.9516 276.818 65.4754C278.225 84.6096 279.03 103.489 276.33 122.707C276.33 123.101 276.33 123.49 276.33 123.878C276.33 140.526 276.33 152 276.33 152Z" fill="white"/>
  <path d="M287.996 152H289.974C289.974 152 289.974 140.555 289.974 123.946C289.974 123.551 289.974 123.152 289.974 122.751C291.087 111.975 292.694 101.303 292.694 90.9057C291.888 83.2436 291.087 75.036 289.974 67.0628C289.974 66.6012 289.974 66.141 289.974 65.6809C289.974 65.144 289.974 64.6072 289.974 64.0718C290.286 59.9868 290.286 55.883 294.305 52.0512C299.931 46.0315 288.68 40.0118 291.893 33.9922C294.305 29.0664 297.518 24.1422 291.087 19.4899C289.481 18.6694 290.282 17.574 289.974 16.4063C289.974 15.9678 289.974 15.5366 289.974 15.1126C289.974 5.78935 289.974 -0.00170898 289.974 -0.00170898H287.996C287.996 -0.00170898 287.996 5.79079 287.996 15.1126C287.996 15.5366 287.996 15.9678 287.996 16.4048C287.874 17.5726 287.068 18.668 288.675 19.4885C295.106 23.8658 295.106 29.3385 290.282 33.9907C287.869 36.1801 290.282 38.6429 290.282 40.8309C291.087 43.8407 295.106 47.124 292.694 50.4074C289.481 55.0596 287.869 59.4369 287.996 64.0689C287.991 64.6057 287.991 65.1411 287.991 65.6794C287.991 66.1396 287.991 66.6012 287.991 67.0614C288.67 75.3066 291.082 83.7891 290.282 91.9982C289.476 102.122 290.282 112.52 287.991 122.749C287.991 123.15 287.991 123.549 287.991 123.944C287.996 140.555 287.996 152 287.996 152Z" fill="white"/>
  <path d="M294.276 152H296.254C296.254 152 296.254 140.302 296.254 123.398C296.254 123.021 296.254 122.644 296.254 122.263C297.519 103.767 299.125 85.7079 296.254 66.9644C296.254 66.4753 296.254 65.9862 296.254 65.4971C296.254 65.008 296.254 64.5204 296.254 64.0341C296.254 63.5479 296.254 63.0603 296.254 62.5741C295.106 58.0709 299.931 53.9671 300.732 49.5884C302.338 46.5785 299.926 43.8422 298.319 40.8323C294.3 33.1702 302.338 25.5096 296.293 18.0226C296.283 17.7245 296.268 17.4308 296.254 17.1385C296.254 6.63731 296.254 -0.00170898 296.254 -0.00170898H294.276C294.276 -0.00170898 294.276 6.3754 294.276 16.5177C294.276 16.9084 294.276 17.3034 294.276 17.7043C298.319 25.2347 293.5 32.8967 295.912 40.8323C296.718 43.8422 300.737 46.5785 299.931 49.5884C297.519 53.9656 292.699 58.0709 294.281 62.5726C294.281 63.0588 294.281 63.5451 294.281 64.0327C294.281 64.5204 294.281 65.008 294.281 65.4957C294.281 65.9848 294.281 66.4724 294.281 66.963C295.917 74.7611 295.111 82.9701 296.718 90.3573C297.523 100.754 295.111 111.153 294.281 121.537C294.281 121.945 294.281 122.348 294.281 122.751C294.276 140.004 294.276 152 294.276 152Z" fill="white"/>
  <path d="M298.983 152H300.961C300.961 152 300.961 139.629 300.961 121.946C300.961 121.553 300.961 121.158 300.961 120.758C303.139 102.945 302.338 85.1598 300.961 67.5117C300.961 67.0197 300.961 66.5291 300.961 66.0371C300.961 64.564 300.961 63.0967 300.961 61.6367C300.961 61.1505 300.961 60.6643 300.966 60.1781C303.945 50.9561 302.338 41.653 301.537 32.35C301.537 29.6137 307.969 26.8773 307.163 24.141C307.163 22.4986 302.338 21.4046 301.259 19.4034C301.015 19.0156 300.907 18.6292 300.966 18.2515C300.966 17.6655 300.966 17.0895 300.966 16.5266C300.966 6.38 300.966 0 300.966 0H298.988C298.988 0 298.988 6.71282 298.988 17.3153C298.988 17.6177 298.988 17.9245 298.988 18.2342C299.13 18.6697 299.13 19.4916 299.13 20.0386C300.737 21.1326 303.955 22.5015 303.149 23.5954C301.542 30.4356 298.324 37.2772 301.542 44.3909C304.755 50.137 297.523 55.6098 298.993 61.2243C298.993 61.7524 298.993 62.2806 298.993 62.8102C298.993 63.7363 298.993 64.6653 298.993 65.5958C298.993 66.0617 298.993 66.5277 298.993 66.9936C300.741 85.4347 299.936 103.769 298.993 122.055C298.993 122.438 298.993 122.819 298.993 123.197C298.983 140.21 298.983 152 298.983 152Z" fill="white"/>
  <path d="M303.696 152H305.673C305.673 152 305.673 139.527 305.673 121.728C305.673 121.333 305.673 120.933 305.673 120.533C307.163 102.945 308.769 85.9817 305.673 68.5637C305.673 68.0977 305.673 67.6318 305.673 67.1658C305.673 64.8375 305.673 62.5208 305.673 60.2244C305.673 59.7338 305.673 59.2447 305.673 58.7571C304.75 55.3363 308.769 51.7794 307.963 48.2212C307.158 40.834 301.532 32.625 313.589 25.5099C314.395 24.9629 313.589 24.1424 313.589 23.3205C313.32 23.0007 312.939 22.7055 312.49 22.4233C310.244 21.0139 306.245 19.9677 305.698 18.2486C305.668 17.6655 305.668 17.0895 305.668 16.5266C305.668 6.38 305.668 0 305.668 0H303.691C303.691 0 303.691 6.39013 303.691 16.5512C303.691 17.1156 303.691 17.6915 303.691 18.279C303.598 18.7551 303.832 19.1892 304.277 19.5958C304.716 20.0024 305.366 20.3801 306.098 20.7433C309.565 21.681 311.977 23.0485 311.172 23.8689C303.134 32.078 306.347 40.2856 306.347 48.7681C306.347 52.5985 303.134 56.4302 303.686 60.3068C303.686 60.8075 303.686 61.3082 303.686 61.8103C303.686 63.3167 303.686 64.8303 303.686 66.3497C303.686 66.8561 303.686 67.3626 303.686 67.8705C306.347 86.2552 304.741 104.314 303.686 122.572C303.686 122.965 303.686 123.357 303.686 123.747C303.696 140.463 303.696 152 303.696 152Z" fill="white"/>
  <path d="M307.51 152H309.487C309.487 152 309.487 139.139 309.487 120.899C309.487 120.511 309.487 120.121 309.487 119.727C308.769 109.512 313.594 99.3873 312.788 89.5373C311.182 82.6972 309.575 75.5821 309.487 68.5726C309.487 68.1067 309.487 67.6422 309.487 67.1777C309.487 64.3892 309.487 61.6167 309.487 58.876C309.487 58.4187 309.487 57.9629 309.487 57.5085C309.575 54.7881 310.376 52.0518 311.182 49.5903C311.987 41.3813 305.556 32.6252 317.173 24.9632C317.422 24.5204 317.549 24.0703 317.53 23.6217C317.476 22.2774 316.133 20.9577 313.047 19.9607C311.817 19.4991 310.63 19.0144 309.902 18.4587C309.175 17.903 308.906 17.2823 309.487 16.5443C309.487 15.4156 309.487 14.3346 309.487 13.3029C309.487 5.04899 309.487 0.00170898 309.487 0.00170898H307.51C307.51 0.00170898 307.51 6.38171 307.51 16.5284C307.51 17.0927 307.514 17.6672 307.607 18.2431C307.964 18.6714 307.964 19.4919 308.769 19.7654C312.788 20.5859 314.595 21.9548 314.883 23.425C314.956 23.7925 314.932 24.1673 314.825 24.5406C313.594 27.1525 308.769 29.3419 307.969 32.0783C307.163 41.1078 311.182 49.8638 307.51 58.795C307.51 59.2898 307.51 59.7847 307.51 60.2811C307.51 62.5848 307.51 64.9087 307.51 67.2428C307.51 67.7102 307.51 68.1776 307.51 68.645C309.575 75.585 309.575 82.7001 310.376 89.2667C311.983 99.3902 307.964 109.789 307.51 120.287C307.51 120.691 307.51 121.091 307.51 121.491C307.51 139.417 307.51 152 307.51 152Z" fill="white"/>
  <path d="M311.318 152H313.296C313.296 152 313.296 138.967 313.296 120.533C313.296 120.132 313.296 119.728 313.296 119.323C313.589 109.239 316.802 99.115 316.001 88.9915C316.001 82.6983 313.589 75.8582 313.296 69.3697C313.296 68.9081 313.296 68.4464 313.296 67.9848C313.296 64.2949 313.296 60.6295 313.296 57.025C313.296 56.5402 313.296 56.0554 313.296 55.5721C314.39 53.4204 315.196 50.9575 315.196 49.3151C316.001 41.653 309.57 33.4454 319.19 25.9888C319.454 25.6097 319.649 25.2277 319.781 24.8428C320.562 22.5319 318.96 20.1168 314.961 17.7754C314.038 17.0201 313.359 16.2474 313.042 15.4399C312.725 14.631 312.769 13.7874 313.301 12.8888C313.301 12.2217 313.301 11.5749 313.301 10.9526C313.301 4.09946 313.301 0 313.301 0H311.323C311.323 0 311.323 4.92862 311.323 13.0103C311.323 14.0204 311.323 15.0796 311.323 16.1851C310.849 17.4267 312.021 18.3904 313.692 19.2717C317.837 20.8721 320.684 23.2727 318.833 25.4607C318.526 25.8253 318.086 26.1842 317.5 26.5315C305.556 32.897 314.395 41.3796 312.788 48.4932C312.788 51.5031 311.182 54.7864 311.323 57.6718C311.323 58.1696 311.323 58.6688 311.323 59.1695C311.323 62.1692 311.323 65.2065 311.323 68.2612C311.323 68.7706 311.323 69.2799 311.323 69.7893C311.182 73.9409 311.182 78.0447 311.987 82.1499C311.987 85.4333 317.613 88.4431 316.006 91.9999C311.182 101.576 311.987 110.879 311.323 120.172C311.323 120.578 311.323 120.98 311.323 121.379C311.318 139.364 311.318 152 311.318 152Z" fill="white"/>
  <path d="M317.3 152H319.278C319.278 152 319.278 138.537 319.278 119.624C319.278 119.222 319.278 118.816 319.278 118.41C318.414 107.598 323.233 96.6536 321.627 85.7082C320.821 81.056 319.215 76.1317 319.278 71.4216C319.278 70.9035 319.278 70.3869 319.278 69.8689C319.278 64.1806 319.278 58.54 319.278 53.0731C319.278 52.762 319.278 52.4509 319.278 52.1398C318.414 50.137 322.433 48.2226 320.02 46.5802C316.807 44.1174 320.02 41.381 319.249 38.7098C319.273 37.8531 319.278 37.0081 319.283 36.1731C319.283 35.3382 319.283 34.5119 319.283 33.6943C319.283 32.8782 319.283 32.0708 319.283 31.2734C319.81 30.3126 320.626 29.3793 321.524 28.4416C325.651 24.6908 324.039 20.8605 320.919 16.9738C320.025 15.848 319.405 14.8191 319.146 13.7353C318.887 12.6515 318.99 11.5127 319.278 10.2595C319.278 9.61413 319.278 8.99625 319.283 8.40586C319.283 3.09667 319.283 0 319.283 0H317.305C317.305 0 317.305 3.09811 317.305 8.4102C317.305 9.00059 317.305 9.61848 317.305 10.2624C317.056 12.1407 316.329 14.0377 317.071 15.8075C317.32 16.3979 317.73 16.9738 318.243 17.5642C325.646 21.4075 323.238 25.5113 317.75 29.3199C317.291 29.9479 317.09 30.5991 317.305 31.2879C317.305 32.0867 317.3 32.8941 317.3 33.7117C317.3 34.5293 317.3 35.3555 317.3 36.1905C317.3 37.0254 317.3 37.8705 317.3 38.7242C314.395 42.7499 320.02 46.8537 317.291 51.0617C317.3 51.8344 317.3 52.6129 317.3 53.3958C317.3 58.4257 317.3 63.6018 317.3 68.8227C317.3 69.3451 317.3 69.8674 317.3 70.3898C318.414 76.1302 318.414 81.8764 319.215 87.3477C320.821 97.7447 316.802 108.143 317.3 118.408C317.3 118.815 317.3 119.22 317.3 119.622C317.3 138.537 317.3 152 317.3 152Z" fill="white"/>
</svg>
