<svg width="337" height="122" viewBox="0 0 337 122" fill="none" xmlns="http://www.w3.org/2000/svg">
<g clip-path="url(#clip0)">
<path d="M12.9996 122H14.9773L14.9773 0.000259399H12.9996L12.9996 122Z" fill="white"/>
<path d="M122.457 121.999H124.435C124.435 121.999 124.435 120.821 124.435 118.696C124.435 118.393 124.435 118.07 124.435 117.728C128.073 103.051 127.267 88.7753 124.747 74.0645C124.791 73.6545 124.845 73.2445 124.903 72.8345C125.611 67.9123 127.267 62.9704 132.091 58.0296C132.091 57.8101 129.679 57.8101 128.878 57.5906C127.267 53.6371 127.267 49.6847 127.267 45.7312C126.461 44.4129 131.286 42.8763 129.679 41.5581C126.466 38.7033 124.054 36.068 124.435 33.0773C124.435 32.8392 124.435 32.6022 124.435 32.3653C124.435 13.924 124.435 -0.00170898 124.435 -0.00170898H122.457C122.457 -0.00170898 122.457 14.1086 122.457 32.7312C122.457 32.9669 122.457 33.2039 122.457 33.4408C121.641 36.0668 124.855 38.2631 125.66 40.6789C128.873 46.3885 126.466 52.7579 126.466 58.0285C127.067 62.8055 124.508 67.7056 123.194 72.6638C123.087 73.0773 122.984 73.4907 122.896 73.9042C124.859 88.5546 126.471 103.049 122.462 117.716C122.462 118.059 122.462 118.382 122.462 118.686C122.457 120.818 122.457 121.999 122.457 121.999Z" fill="white"/>
<path d="M203.2 121.999H205.178C205.178 121.999 205.178 117.828 205.178 111.029C205.178 110.746 205.178 110.458 205.178 110.165C204.421 102.831 209.246 95.3639 206.834 88.1165C205.227 84.8227 206.028 81.5277 205.212 78.3174C205.212 77.926 205.212 77.5346 205.212 77.1421C205.212 74.7925 205.198 72.4499 205.173 70.1804C205.173 69.7832 205.173 69.3848 205.173 68.9864C205.173 68.5881 205.173 68.1885 205.173 67.789C206.028 63.0794 206.028 58.6868 207.634 54.2942C209.241 50.1212 206.028 45.7286 206.272 41.2292C206.379 40.8401 206.506 40.451 206.658 40.0631C208.167 36.1874 212.02 32.4115 219.696 28.818C200.407 26.8413 206.838 20.6926 205.183 16.2478C205.183 15.94 205.183 15.6357 205.183 15.3337C205.183 5.99573 205.183 -0.00427246 205.183 -0.00427246H203.205C203.205 -0.00427246 203.205 6.13626 203.205 15.6624C203.205 15.9702 203.205 16.2803 203.205 16.595C205.232 21.3511 198.801 26.8413 217.288 29.4766C209.695 32.7379 206.003 36.3105 204.563 40.019C204.402 40.4313 204.27 40.8447 204.162 41.2594C202.019 45.5079 206.838 49.681 206.038 53.854C203.625 58.6856 204.431 63.5172 203.205 68.4475C203.205 68.8494 203.205 69.2501 203.205 69.6508C203.205 70.0515 203.205 70.4522 203.205 70.8517C203.205 71.2512 203.205 71.6508 203.205 72.0492C203.015 73.8227 202.917 75.5881 202.917 77.3453C202.917 77.6972 202.922 78.048 202.927 78.3988C202.82 82.6229 206.033 87.0155 205.232 91.1885C204.426 97.7774 205.232 104.146 203.205 110.842C203.205 111.119 203.205 111.391 203.205 111.659C203.2 118.086 203.2 121.999 203.2 121.999Z" fill="white"/>
<path d="M255.236 121.999H257.214C257.214 121.999 257.214 113.234 257.214 100.403C257.214 100.074 257.214 99.742 257.214 99.4075C255.861 92.5085 264.704 85.9197 262.292 79.5503C258.273 71.4249 260.686 62.6398 256.935 54.0184C257.101 53.6978 257.36 53.3831 257.677 53.073C259.919 50.8965 265.266 48.9139 264.699 46.6073C263.894 38.9208 267.913 31.2344 264.699 23.7664C263.093 19.8128 256.662 15.2008 257.214 10.5085C257.214 10.1973 257.214 9.89297 257.214 9.59332C257.214 3.60958 257.214 -0.00366211 257.214 -0.00366211H255.236C255.236 -0.00366211 255.236 3.60958 255.236 9.59332C255.236 9.89297 255.236 10.1973 255.236 10.5085C253.449 15.4214 260.681 19.5933 263.093 24.4249C266.306 31.0138 255.861 37.6014 263.899 44.1903C267.112 46.6061 261.486 49.0219 256.667 51.2182C255.461 51.8767 254.86 52.7559 254.679 53.6978C254.621 54.0126 254.606 54.3332 254.635 54.656C259.079 63.2971 257.468 72.0811 259.88 80.2077C262.292 86.1369 254.254 92.7257 255.236 99.4052C255.236 99.7397 255.236 100.071 255.236 100.401C255.236 113.234 255.236 121.999 255.236 121.999Z" fill="white"/>
<path d="M289.33 121.999H291.308C291.308 121.999 291.308 112.789 291.308 99.4303C291.308 99.1191 291.308 98.8066 291.308 98.4907C291.225 90.0935 295.244 81.9681 294.438 73.8415C292.831 66.8136 292.026 59.7857 291.523 52.7079C291.596 52.3374 291.674 51.9669 291.752 51.5964C292.377 48.6301 293.149 45.6429 294.438 42.6557C297.651 35.8473 291.225 29.2584 298.457 22.6708C300.869 21.133 296.85 19.5964 293.632 18.2782C288.808 16.3014 292.026 13.8856 291.303 11.7718C291.303 11.3177 291.303 10.874 291.303 10.4408C291.303 3.95416 291.303 -0.00170898 291.303 -0.00170898H289.325C289.325 -0.00170898 289.325 3.91583 289.325 10.3479C289.325 10.6406 289.325 10.9379 289.325 11.2399C289.613 14.7637 293.632 18.4965 294.438 21.1319C295.922 31.0656 293.984 41.1864 290.287 51.2898C290.131 51.7102 289.975 52.1318 289.818 52.5523C291.225 67.91 292.03 83.0633 289.33 98.4884C289.33 98.8043 289.33 99.1167 289.33 99.428C289.33 112.79 289.33 121.999 289.33 121.999Z" fill="#2C74E0"/>
<path d="M300.996 121.999H302.974C302.974 121.999 302.974 112.814 302.974 99.4826C302.974 99.1655 302.974 98.845 302.974 98.5232C304.087 89.874 305.694 81.3084 305.694 72.9634C304.888 66.8136 304.087 60.2259 302.974 53.8264C302.974 53.4559 302.974 53.0865 302.974 52.7172C302.974 52.2863 302.974 51.8554 302.974 51.4257C303.286 48.1469 303.286 44.8531 307.305 41.7776C312.931 36.946 301.68 32.1144 304.893 27.2828C307.305 23.3293 310.518 19.3769 304.087 15.6429C302.481 14.9844 303.282 14.1051 302.974 13.1679C302.974 12.8159 302.974 12.4698 302.974 12.1295C302.974 4.64637 302.974 -0.00170898 302.974 -0.00170898H300.996C300.996 -0.00170898 300.996 4.64754 300.996 12.1295C300.996 12.4698 300.996 12.8159 300.996 13.1667C300.874 14.104 300.068 14.9832 301.675 15.6417C308.106 19.1551 308.106 23.5476 303.282 27.2817C300.869 29.0389 303.282 31.0157 303.282 32.7718C304.087 35.1876 308.106 37.8229 305.694 40.4582C302.481 44.1922 300.869 47.7056 300.996 51.4234C300.991 51.8543 300.991 52.284 300.991 52.7161C300.991 53.0854 300.991 53.4559 300.991 53.8252C301.67 60.4431 304.082 67.2515 303.282 73.8403C302.476 81.9658 303.282 90.3119 300.991 98.5221C300.991 98.8438 300.991 99.1644 300.991 99.4814C300.996 112.814 300.996 121.999 300.996 121.999Z" fill="white"/>
<path d="M307.276 121.999H309.254C309.254 121.999 309.254 112.61 309.254 99.0424C309.254 98.7404 309.254 98.4373 309.254 98.1318C310.519 83.2863 312.125 68.7915 309.254 53.7474C309.254 53.3548 309.254 52.9623 309.254 52.5697C309.254 52.1771 309.254 51.7857 309.254 51.3955C309.254 51.0052 309.254 50.6138 309.254 50.2236C308.106 46.6092 312.931 43.3154 313.732 39.8008C315.338 37.385 312.926 35.1888 311.319 32.773C307.3 26.6231 315.338 20.4745 309.293 14.4652C309.283 14.2259 309.268 13.9902 309.254 13.7555C309.254 5.32698 309.254 -0.00170898 309.254 -0.00170898H307.276C307.276 -0.00170898 307.276 5.11676 307.276 13.2573C307.276 13.5709 307.276 13.888 307.276 14.2097C311.319 20.2538 306.5 26.4036 308.912 32.773C309.718 35.1888 313.737 37.385 312.931 39.8008C310.519 43.3142 305.699 46.6092 307.281 50.2224C307.281 50.6127 307.281 51.0029 307.281 51.3943C307.281 51.7857 307.281 52.1771 307.281 52.5685C307.281 52.9611 307.281 53.3525 307.281 53.7462C308.917 60.0052 308.111 66.5941 309.718 72.5232C310.523 80.8682 308.111 89.2143 307.281 97.5488C307.281 97.8763 307.281 98.2004 307.281 98.5232C307.276 112.371 307.276 121.999 307.276 121.999Z" fill="white"/>
<path d="M311.983 122H313.961C313.961 122 313.961 112.071 313.961 97.878C313.961 97.5621 313.961 97.2451 313.961 96.9245C316.139 82.6272 315.338 68.3519 313.961 54.187C313.961 53.7921 313.961 53.3984 313.961 53.0035C313.961 51.8211 313.961 50.6434 313.961 49.4715C313.961 49.0813 313.961 48.6911 313.966 48.3008C316.945 40.899 315.338 33.4321 314.537 25.9652C314.537 23.7689 320.969 21.5726 320.163 19.3763C320.163 18.0581 315.338 17.18 314.259 15.5738C314.015 15.2625 313.907 14.9524 313.966 14.6492C313.966 14.1789 313.966 13.7166 313.966 13.2648C313.966 5.12079 313.966 0 313.966 0H311.988C311.988 0 311.988 5.38792 311.988 13.8978C311.988 14.1405 311.988 14.3868 311.988 14.6353C312.13 14.9849 312.13 15.6446 312.13 16.0836C313.737 16.9617 316.955 18.0604 316.149 18.9384C314.542 24.4286 311.324 29.9199 314.542 35.6295C317.755 40.2416 310.523 44.6341 311.993 49.1405C311.993 49.5645 311.993 49.9884 311.993 50.4135C311.993 51.1568 311.993 51.9024 311.993 52.6492C311.993 53.0232 311.993 53.3972 311.993 53.7712C313.741 68.5726 312.936 83.288 311.993 97.9652C311.993 98.2729 311.993 98.5784 311.993 98.8815C311.983 112.537 311.983 122 311.983 122Z" fill="white"/>
<path d="M316.696 122H318.673C318.673 122 318.673 111.988 318.673 97.7027C318.673 97.3856 318.673 97.065 318.673 96.7433C320.163 82.6272 321.769 69.0116 318.673 55.0314C318.673 54.6574 318.673 54.2834 318.673 53.9094C318.673 52.0406 318.673 50.1812 318.673 48.338C318.673 47.9443 318.673 47.5517 318.673 47.1603C317.75 44.4146 321.769 41.5598 320.963 38.7038C320.158 32.7747 314.532 26.1858 326.589 20.475C327.395 20.036 326.589 19.3775 326.589 18.7178C326.32 18.4611 325.939 18.2242 325.49 17.9977C323.244 16.8664 319.245 16.0267 318.698 14.6469C318.668 14.1789 318.668 13.7166 318.668 13.2648C318.668 5.12079 318.668 0 318.668 0H316.691C316.691 0 316.691 5.12892 316.691 13.2846C316.691 13.7375 316.691 14.1998 316.691 14.6713C316.598 15.0534 316.832 15.4019 317.277 15.7282C317.716 16.0546 318.366 16.3577 319.098 16.6492C322.565 17.4019 324.977 18.4994 324.172 19.158C316.134 25.7468 319.347 32.3345 319.347 39.1429C319.347 42.2172 316.134 45.2927 316.686 48.4042C316.686 48.806 316.686 49.2079 316.686 49.6109C316.686 50.82 316.686 52.0348 316.686 53.2544C316.686 53.6609 316.686 54.0674 316.686 54.475C319.347 69.2311 317.741 83.7259 316.686 98.3798C316.686 98.6957 316.686 99.0104 316.686 99.3229C316.696 112.74 316.696 122 316.696 122Z" fill="white"/>
<path d="M320.51 122.001H322.487C322.487 122.001 322.487 111.678 322.487 97.0377C322.487 96.7265 322.487 96.4129 322.487 96.097C321.769 87.8984 326.594 79.7718 325.788 71.8658C324.182 66.3757 322.575 60.6649 322.487 55.0389C322.487 54.6649 322.487 54.2921 322.487 53.9193C322.487 51.6812 322.487 49.4558 322.487 47.2561C322.487 46.8891 322.487 46.5232 322.487 46.1585C322.575 43.975 323.376 41.7787 324.182 39.8031C324.987 33.2143 318.556 26.1864 330.173 20.0366C330.422 19.6812 330.549 19.3199 330.53 18.9599C330.476 17.8809 329.133 16.8217 326.047 16.0215C324.817 15.651 323.63 15.2619 322.902 14.8159C322.175 14.3699 321.906 13.8716 322.487 13.2793C322.487 12.3734 322.487 11.5058 322.487 10.6777C322.487 4.05281 322.487 0.00170898 322.487 0.00170898H320.51C320.51 0.00170898 320.51 5.1225 320.51 13.2665C320.51 13.7195 320.514 14.1806 320.607 14.6428C320.964 14.9866 320.964 15.6451 321.769 15.8647C325.788 16.5232 327.595 17.6219 327.883 18.8019C327.956 19.097 327.932 19.3978 327.825 19.6974C326.594 21.7938 321.769 23.5511 320.969 25.7474C320.163 32.9947 324.182 40.0226 320.51 47.191C320.51 47.5882 320.51 47.9855 320.51 48.3838C320.51 50.2328 320.51 52.0981 320.51 53.9715C320.51 54.3467 320.51 54.7218 320.51 55.097C322.575 60.6672 322.575 66.378 323.376 71.6486C324.983 79.7741 320.964 88.1202 320.51 96.5464C320.51 96.8705 320.51 97.1922 320.51 97.5128C320.51 111.901 320.51 122.001 320.51 122.001Z" fill="white"/>
<path d="M324.318 122H326.296C326.296 122 326.296 111.539 326.296 96.7433C326.296 96.4216 326.296 96.0976 326.296 95.7724C326.589 87.6783 329.802 79.5528 329.001 71.4274C329.001 66.3763 326.589 60.8862 326.296 55.6783C326.296 55.3078 326.296 54.9373 326.296 54.5668C326.296 51.6051 326.296 48.6632 326.296 45.77C326.296 45.3809 326.296 44.9919 326.296 44.6039C327.39 42.8769 328.196 40.9001 328.196 39.5819C329.001 33.4321 322.57 26.8444 332.19 20.8595C332.454 20.5552 332.649 20.2485 332.781 19.9396C333.562 18.0848 331.96 16.1463 327.961 14.2671C327.038 13.6609 326.359 13.0406 326.042 12.3926C325.725 11.7433 325.769 11.0662 326.301 10.3449C326.301 9.80952 326.301 9.29036 326.301 8.79094C326.301 3.29036 326.301 0 326.301 0H324.323C324.323 0 324.323 3.95587 324.323 10.4425C324.323 11.2532 324.323 12.1034 324.323 12.9907C323.849 13.9872 325.021 14.7607 326.692 15.4681C330.837 16.7526 333.684 18.6794 331.833 20.4355C331.526 20.7282 331.086 21.0163 330.5 21.295C318.556 26.4042 327.395 33.2125 325.788 38.9222C325.788 41.338 324.182 43.9733 324.323 46.2892C324.323 46.6887 324.323 47.0894 324.323 47.4913C324.323 49.899 324.323 52.3368 324.323 54.7886C324.323 55.1974 324.323 55.6063 324.323 56.0151C324.182 59.3473 324.182 62.6411 324.987 65.9361C324.987 68.5714 330.613 70.9872 329.006 73.842C324.182 81.5285 324.987 88.9953 324.323 96.4541C324.323 96.7793 324.323 97.1022 324.323 97.4228C324.318 111.858 324.318 122 324.318 122Z" fill="white"/>
<path d="M327.312 122H329.289C329.289 122 329.289 111.079 329.289 95.7724C329.289 95.446 329.289 95.1185 329.289 94.7886C330.608 87.0197 329.807 79.5528 333.02 71.8653C334.627 66.8142 327.395 61.7631 329.289 56.5412C329.289 56.1208 329.289 55.7015 329.289 55.2822C329.289 51.928 329.289 48.5958 329.289 45.3298C329.289 44.921 329.289 44.5145 329.289 44.108C332.219 36.7271 323.376 28.8211 333.831 21.7305C334.261 21.3891 334.612 21.0453 334.89 20.6992C336.814 18.2764 334.974 15.7596 330.144 13.4669C329.509 12.9001 329.158 12.3101 329.031 11.7062C328.904 11.1022 329.006 10.4855 329.28 9.86411C329.289 9.29965 329.289 8.76074 329.289 8.2439C329.289 3.07317 329.289 0 329.289 0H327.312C327.312 0 327.312 3.29036 327.312 8.79094C327.312 9.29152 327.312 9.80952 327.312 10.3449C327.356 11.0174 326.97 11.7387 326.882 12.4553C326.794 13.1731 326.994 13.8862 328.196 14.5447C333.22 16.0546 334.48 18.0801 333.416 20.0825C333.201 20.4832 332.898 20.8827 332.507 21.2776C321.769 28.8211 329.807 37.1661 327.312 45.1243C327.312 45.5238 327.312 45.9245 327.312 46.3264C327.312 49.1382 327.312 51.9954 327.312 54.8699C327.312 55.2811 327.312 55.6911 327.312 56.1034C329.001 60.6667 329.001 65.4983 330.608 69.6701C333.02 77.7956 326.589 86.3612 327.312 94.7886C327.312 95.1185 327.312 95.446 327.312 95.7724C327.312 111.079 327.312 122 327.312 122Z" fill="white"/>
<path d="M329.29 122H331.267C331.267 122 331.267 111.194 331.267 96.0139C331.267 95.6911 331.267 95.3658 331.267 95.0395C331.414 87.0209 333.02 79.1138 333.826 70.9884C334.632 66.3763 330.613 61.9837 331.267 57.3252C331.267 56.9094 331.267 56.4948 331.267 56.079C331.267 51.5134 331.267 46.9861 331.267 42.5981C331.267 42.3484 331.267 42.0987 331.267 41.849C330.613 40.2416 334.632 38.705 332.219 37.3868C329.807 35.41 331.414 33.2137 331.267 31.0662C331.267 30.3821 331.267 29.7038 331.267 29.0337C331.267 28.3635 331.267 27.7003 331.267 27.0441C331.267 26.3891 331.267 25.741 331.267 25.101C331.829 24.3298 332.63 23.5888 333.489 22.849C337.845 19.3786 335.433 15.8641 332.298 12.6597C331.79 12.1951 331.38 11.7282 331.101 11.252C330.545 10.3008 330.51 9.31243 331.267 8.23229C331.267 7.71545 331.267 7.22067 331.267 6.74681C331.267 2.48548 331.267 0 331.267 0H329.29C329.29 0 329.29 3.06969 329.29 8.23577C329.29 8.75261 329.29 9.29036 329.28 9.85482C328.118 10.9791 328.323 11.9245 329.25 12.7898C329.714 13.2218 330.354 13.6365 330.984 14.0662C337.044 17.1812 337.044 20.6957 330.657 23.705C330.046 24.1731 329.563 24.6423 329.299 25.1115C329.294 25.7526 329.29 26.4007 329.29 27.0569C329.29 27.7131 329.29 28.3763 329.29 29.0465C329.29 29.7166 329.29 30.3949 329.29 31.0801C329.807 33.2125 328.201 35.4088 329.807 37.3856C331.414 38.4832 329.807 39.8014 329.285 40.9826C329.29 41.6039 329.29 42.2288 329.29 42.8571C329.29 46.8943 329.29 51.0488 329.29 55.2393C329.29 55.6585 329.29 56.0778 329.29 56.4971C328.201 61.5436 333.02 66.3751 332.219 71.2067C330.613 79.1127 330.613 87.2393 329.29 95.0383C329.29 95.3647 329.29 95.6899 329.29 96.0128C329.29 111.194 329.29 122 329.29 122Z" fill="white"/>
<path d="M330.3 122H332.278C332.278 122 332.278 111.194 332.278 96.0139C332.278 95.6911 332.278 95.3658 332.278 95.0395C331.414 86.3612 336.233 77.5772 334.627 68.7921C333.821 65.0581 332.215 61.1057 332.278 57.3252C332.278 56.9094 332.278 56.4948 332.278 56.079C332.278 51.5134 332.278 46.9861 332.278 42.5981C332.278 42.3484 332.278 42.0987 332.278 41.849C331.414 40.2416 335.433 38.705 333.02 37.3868C329.807 35.41 333.02 33.2137 332.249 31.0697C332.273 30.3821 332.278 29.7038 332.283 29.0337C332.283 28.3635 332.283 27.7003 332.283 27.0441C332.283 26.3891 332.283 25.741 332.283 25.101C332.81 24.3298 333.626 23.5807 334.524 22.8281C338.651 19.8177 337.039 16.7433 333.919 13.6237C333.025 12.7201 332.405 11.8943 332.146 11.0244C331.887 10.1545 331.99 9.24042 332.278 8.23461C332.278 7.71661 332.278 7.22067 332.283 6.74681C332.283 2.48548 332.283 0 332.283 0H330.305C330.305 0 330.305 2.48664 330.305 6.75029C330.305 7.22416 330.305 7.72009 330.305 8.23693C330.056 9.74448 329.329 11.2671 330.071 12.6876C330.32 13.1614 330.73 13.6237 331.243 14.0976C338.646 17.1823 336.238 20.4762 330.75 23.5331C330.291 24.0372 330.09 24.5598 330.305 25.1127C330.305 25.7538 330.3 26.4019 330.3 27.0581C330.3 27.7143 330.3 28.3775 330.3 29.0476C330.3 29.7178 330.3 30.396 330.3 31.0813C327.395 34.3124 333.02 37.6063 330.291 40.9837C330.3 41.6039 330.3 42.2288 330.3 42.8571C330.3 46.8943 330.3 51.0488 330.3 55.2393C330.3 55.6585 330.3 56.0778 330.3 56.4971C331.414 61.1045 331.414 65.7166 332.215 70.108C333.821 78.453 329.802 86.7991 330.3 95.0383C330.3 95.3647 330.3 95.6899 330.3 96.0128C330.3 111.194 330.3 122 330.3 122Z" fill="white"/>
<path d="M336 89.5H336.5V88.5H336V89.5ZM14 89.5H14.9938V88.5H14V89.5ZM18.9691 89.5H20.9568V88.5H18.9691V89.5ZM24.9321 89.5H26.9198V88.5H24.9321V89.5ZM30.8951 89.5H32.8827V88.5H30.8951V89.5ZM36.858 89.5H38.8457V88.5H36.858V89.5ZM42.821 89.5H44.8086V88.5H42.821V89.5ZM48.784 89.5H50.7716V88.5H48.784V89.5ZM54.7469 89.5H56.7346V88.5H54.7469V89.5ZM60.7099 89.5H62.6975V88.5H60.7099V89.5ZM66.6728 89.5H68.6605V88.5H66.6728V89.5ZM72.6358 89.5H74.6235V88.5H72.6358V89.5ZM78.5988 89.5H80.5864V88.5H78.5988V89.5ZM84.5617 89.5H86.5494V88.5H84.5617V89.5ZM90.5247 89.5H92.5124V88.5H90.5247V89.5ZM96.4877 89.5H98.4753V88.5H96.4877V89.5ZM102.451 89.5H104.438V88.5H102.451V89.5ZM108.414 89.5H110.401V88.5H108.414V89.5ZM114.377 89.5H116.364V88.5H114.377V89.5ZM120.34 89.5H122.327V88.5H120.34V89.5ZM126.303 89.5H128.29V88.5H126.303V89.5ZM132.265 89.5H134.253V88.5H132.265V89.5ZM138.228 89.5H140.216V88.5H138.228V89.5ZM144.191 89.5H146.179V88.5H144.191V89.5ZM150.154 89.5H152.142V88.5H150.154V89.5ZM156.117 89.5H158.105V88.5H156.117V89.5ZM162.08 89.5H164.068V88.5H162.08V89.5ZM168.043 89.5H170.031V88.5H168.043V89.5ZM174.006 89.5H175.994V88.5H174.006V89.5ZM179.969 89.5H181.957V88.5H179.969V89.5ZM185.932 89.5H187.92V88.5H185.932V89.5ZM191.895 89.5H193.883V88.5H191.895V89.5ZM197.858 89.5H199.846V88.5H197.858V89.5ZM203.821 89.5H205.809V88.5H203.821V89.5ZM209.784 89.5H211.772V88.5H209.784V89.5ZM215.747 89.5H217.735V88.5H215.747V89.5ZM221.71 89.5H223.698V88.5H221.71V89.5ZM227.673 89.5H229.661V88.5H227.673V89.5ZM233.636 89.5H235.624V88.5H233.636V89.5ZM239.599 89.5H241.587V88.5H239.599V89.5ZM245.562 89.5H247.55V88.5H245.562V89.5ZM251.525 89.5H253.512V88.5H251.525V89.5ZM257.488 89.5H259.475V88.5H257.488V89.5ZM263.451 89.5H265.438V88.5H263.451V89.5ZM269.414 89.5H271.401V88.5H269.414V89.5ZM275.377 89.5H277.364V88.5H275.377V89.5ZM281.34 89.5H283.327V88.5H281.34V89.5ZM287.303 89.5H289.29V88.5H287.303V89.5ZM293.266 89.5H295.253V88.5H293.266V89.5ZM299.228 89.5H301.216V88.5H299.228V89.5ZM305.191 89.5H307.179V88.5H305.191V89.5ZM311.154 89.5H313.142V88.5H311.154V89.5ZM317.117 89.5H319.105V88.5H317.117V89.5ZM323.08 89.5H325.068V88.5H323.08V89.5ZM329.043 89.5H331.031V88.5H329.043V89.5ZM335.006 89.5H336V88.5H335.006V89.5Z" fill="white"/>
<path d="M336 107.5H336.5V106.5H336V107.5ZM14 107.5H14.9938V106.5H14V107.5ZM18.9691 107.5H20.9568V106.5H18.9691V107.5ZM24.9321 107.5H26.9198V106.5H24.9321V107.5ZM30.8951 107.5H32.8827V106.5H30.8951V107.5ZM36.858 107.5H38.8457V106.5H36.858V107.5ZM42.821 107.5H44.8086V106.5H42.821V107.5ZM48.784 107.5H50.7716V106.5H48.784V107.5ZM54.7469 107.5H56.7346V106.5H54.7469V107.5ZM60.7099 107.5H62.6975V106.5H60.7099V107.5ZM66.6728 107.5H68.6605V106.5H66.6728V107.5ZM72.6358 107.5H74.6235V106.5H72.6358V107.5ZM78.5988 107.5H80.5864V106.5H78.5988V107.5ZM84.5617 107.5H86.5494V106.5H84.5617V107.5ZM90.5247 107.5H92.5124V106.5H90.5247V107.5ZM96.4877 107.5H98.4753V106.5H96.4877V107.5ZM102.451 107.5H104.438V106.5H102.451V107.5ZM108.414 107.5H110.401V106.5H108.414V107.5ZM114.377 107.5H116.364V106.5H114.377V107.5ZM120.34 107.5H122.327V106.5H120.34V107.5ZM126.303 107.5H128.29V106.5H126.303V107.5ZM132.265 107.5H134.253V106.5H132.265V107.5ZM138.228 107.5H140.216V106.5H138.228V107.5ZM144.191 107.5H146.179V106.5H144.191V107.5ZM150.154 107.5H152.142V106.5H150.154V107.5ZM156.117 107.5H158.105V106.5H156.117V107.5ZM162.08 107.5H164.068V106.5H162.08V107.5ZM168.043 107.5H170.031V106.5H168.043V107.5ZM174.006 107.5H175.994V106.5H174.006V107.5ZM179.969 107.5H181.957V106.5H179.969V107.5ZM185.932 107.5H187.92V106.5H185.932V107.5ZM191.895 107.5H193.883V106.5H191.895V107.5ZM197.858 107.5H199.846V106.5H197.858V107.5ZM203.821 107.5H205.809V106.5H203.821V107.5ZM209.784 107.5H211.772V106.5H209.784V107.5ZM215.747 107.5H217.735V106.5H215.747V107.5ZM221.71 107.5H223.698V106.5H221.71V107.5ZM227.673 107.5H229.661V106.5H227.673V107.5ZM233.636 107.5H235.624V106.5H233.636V107.5ZM239.599 107.5H241.587V106.5H239.599V107.5ZM245.562 107.5H247.55V106.5H245.562V107.5ZM251.525 107.5H253.512V106.5H251.525V107.5ZM257.488 107.5H259.475V106.5H257.488V107.5ZM263.451 107.5H265.438V106.5H263.451V107.5ZM269.414 107.5H271.401V106.5H269.414V107.5ZM275.377 107.5H277.364V106.5H275.377V107.5ZM281.34 107.5H283.327V106.5H281.34V107.5ZM287.303 107.5H289.29V106.5H287.303V107.5ZM293.266 107.5H295.253V106.5H293.266V107.5ZM299.228 107.5H301.216V106.5H299.228V107.5ZM305.191 107.5H307.179V106.5H305.191V107.5ZM311.154 107.5H313.142V106.5H311.154V107.5ZM317.117 107.5H319.105V106.5H317.117V107.5ZM323.08 107.5H325.068V106.5H323.08V107.5ZM329.043 107.5H331.031V106.5H329.043V107.5ZM335.006 107.5H336V106.5H335.006V107.5Z" fill="white"/>
<path d="M336 30.5H336.5V29.5H336V30.5ZM14 30.5H14.9938V29.5H14V30.5ZM18.9691 30.5H20.9568V29.5H18.9691V30.5ZM24.9321 30.5H26.9198V29.5H24.9321V30.5ZM30.8951 30.5H32.8827V29.5H30.8951V30.5ZM36.858 30.5H38.8457V29.5H36.858V30.5ZM42.821 30.5H44.8086V29.5H42.821V30.5ZM48.784 30.5H50.7716V29.5H48.784V30.5ZM54.7469 30.5H56.7346V29.5H54.7469V30.5ZM60.7099 30.5H62.6975V29.5H60.7099V30.5ZM66.6728 30.5H68.6605V29.5H66.6728V30.5ZM72.6358 30.5H74.6235V29.5H72.6358V30.5ZM78.5988 30.5H80.5864V29.5H78.5988V30.5ZM84.5617 30.5H86.5494V29.5H84.5617V30.5ZM90.5247 30.5H92.5124V29.5H90.5247V30.5ZM96.4877 30.5H98.4753V29.5H96.4877V30.5ZM102.451 30.5H104.438V29.5H102.451V30.5ZM108.414 30.5H110.401V29.5H108.414V30.5ZM114.377 30.5H116.364V29.5H114.377V30.5ZM120.34 30.5H122.327V29.5H120.34V30.5ZM126.303 30.5H128.29V29.5H126.303V30.5ZM132.265 30.5H134.253V29.5H132.265V30.5ZM138.228 30.5H140.216V29.5H138.228V30.5ZM144.191 30.5H146.179V29.5H144.191V30.5ZM150.154 30.5H152.142V29.5H150.154V30.5ZM156.117 30.5H158.105V29.5H156.117V30.5ZM162.08 30.5H164.068V29.5H162.08V30.5ZM168.043 30.5H170.031V29.5H168.043V30.5ZM174.006 30.5H175.994V29.5H174.006V30.5ZM179.969 30.5H181.957V29.5H179.969V30.5ZM185.932 30.5H187.92V29.5H185.932V30.5ZM191.895 30.5H193.883V29.5H191.895V30.5ZM197.858 30.5H199.846V29.5H197.858V30.5ZM203.821 30.5H205.809V29.5H203.821V30.5ZM209.784 30.5H211.772V29.5H209.784V30.5ZM215.747 30.5H217.735V29.5H215.747V30.5ZM221.71 30.5H223.698V29.5H221.71V30.5ZM227.673 30.5H229.661V29.5H227.673V30.5ZM233.636 30.5H235.624V29.5H233.636V30.5ZM239.599 30.5H241.587V29.5H239.599V30.5ZM245.562 30.5H247.55V29.5H245.562V30.5ZM251.525 30.5H253.512V29.5H251.525V30.5ZM257.488 30.5H259.475V29.5H257.488V30.5ZM263.451 30.5H265.438V29.5H263.451V30.5ZM269.414 30.5H271.401V29.5H269.414V30.5ZM275.377 30.5H277.364V29.5H275.377V30.5ZM281.34 30.5H283.327V29.5H281.34V30.5ZM287.303 30.5H289.29V29.5H287.303V30.5ZM293.266 30.5H295.253V29.5H293.266V30.5ZM299.228 30.5H301.216V29.5H299.228V30.5ZM305.191 30.5H307.179V29.5H305.191V30.5ZM311.154 30.5H313.142V29.5H311.154V30.5ZM317.117 30.5H319.105V29.5H317.117V30.5ZM323.08 30.5H325.068V29.5H323.08V30.5ZM329.043 30.5H331.031V29.5H329.043V30.5ZM335.006 30.5H336V29.5H335.006V30.5Z" fill="#2C74E0"/>
</g>
<path d="M2.184 33H0.156V32.76H0.876L2.568 30.516L0.48 27.72H0V27.48H3.156V27.72H2.556L3.924 29.556L5.388 27.72H4.428V27.48H6.444V27.72H5.724L4.068 29.76L6.312 32.76H6.792V33H3.648V32.76H4.248L2.736 30.744L1.212 32.76H2.184V33Z" fill="white"/>
<defs>
<clipPath id="clip0">
<rect width="324" height="122" fill="white" transform="translate(13)"/>
</clipPath>
</defs>
</svg>
