<svg width="328" height="266" viewBox="0 0 328 266" fill="none" xmlns="http://www.w3.org/2000/svg">
<path d="M9.5 58L87 125" stroke="#FFE924" stroke-width="0.5"/>
<path d="M3.024 60.332C2.808 60.796 2.58 61.128 2.34 61.328C2.1 61.536 1.78 61.64 1.38 61.64C0.98 61.64 0.668 61.552 0.444 61.376C0.22 61.208 0.108 60.98 0.108 60.692C0.108 60.412 0.188 60.188 0.348 60.02C0.516 59.852 0.716 59.768 0.948 59.768C1.18 59.768 1.376 59.812 1.536 59.9C1.696 59.988 1.808 60.084 1.872 60.188C2.048 60.468 2.212 60.608 2.364 60.608C2.524 60.608 2.664 60.472 2.784 60.2L3.288 59.012L0.48 53.72H0V53.48H3.228V53.72H2.628L4.236 56.888L5.616 53.72H4.656V53.48H6.624V53.72H5.904L3.024 60.332Z" fill="#FFE924"/>
<path d="M112.466 41.9852H68V86.502H112.466V41.9852Z" stroke="white" stroke-miterlimit="10"/>
<path d="M167.841 41.9852H123.375V86.502H167.841V41.9852Z" stroke="white" stroke-miterlimit="10"/>
<path d="M223.216 41.9852H178.75V86.502H223.216V41.9852Z" stroke="white" stroke-miterlimit="10"/>
<path d="M278.591 41.9852H234.125V86.502H278.591V41.9852Z" stroke="white" stroke-miterlimit="10"/>
<path d="M112.466 101.622H68V146.139H112.466V101.622Z" stroke="#FFE924" stroke-miterlimit="10"/>
<path d="M167.841 101.622H123.375V146.139H167.841V101.622Z" stroke="white" stroke-miterlimit="10"/>
<path d="M223.216 101.622H178.75V146.139H223.216V101.622Z" stroke="white" stroke-miterlimit="10"/>
<path d="M278.591 101.622H234.125V146.139H278.591V101.622Z" stroke="white" stroke-miterlimit="10"/>
<path d="M112.466 161.263H68V205.78H112.466V161.263Z" stroke="white" stroke-miterlimit="10"/>
<path d="M167.841 161.263H123.375V205.78H167.841V161.263Z" stroke="white" stroke-miterlimit="10"/>
<path d="M223.216 161.263H178.75V205.78H223.216V161.263Z" stroke="white" stroke-miterlimit="10"/>
<path d="M278.591 161.263H234.125V205.78H278.591V161.263Z" stroke="white" stroke-miterlimit="10"/>
<path d="M112.466 220.9H68V265.417H112.466V220.9Z" stroke="white" stroke-miterlimit="10"/>
<path d="M167.841 220.9H123.375V265.417H167.841V220.9Z" stroke="white" stroke-miterlimit="10"/>
<path d="M223.216 220.9H178.75V265.417H223.216V220.9Z" stroke="white" stroke-miterlimit="10"/>
<path d="M278.591 220.9H234.125V265.417H278.591V220.9Z" stroke="white" stroke-miterlimit="10"/>
<path d="M156.762 35.0522H95.8503V96.0333H156.762V35.0522Z" stroke="white" stroke-miterlimit="10"/>
<path d="M185.069 37.5806H149.491V73.198H185.069V37.5806Z" stroke="white" stroke-miterlimit="10"/>
<path d="M236.029 37.5806H200.452V73.198H236.029V37.5806Z" stroke="white" stroke-miterlimit="10"/>
<path d="M286.995 37.5806H251.417V73.198H286.995V37.5806Z" stroke="white" stroke-miterlimit="10"/>
<path d="M134.103 92.0603H98.5261V127.678H134.103V92.0603Z" stroke="white" stroke-miterlimit="10"/>
<path d="M185.069 92.0603H149.491V127.678H185.069V92.0603Z" stroke="white" stroke-miterlimit="10"/>
<path d="M236.029 92.0603H200.452V127.678H236.029V92.0603Z" stroke="white" stroke-miterlimit="10"/>
<path d="M286.995 92.0603H251.417V127.678H286.995V92.0603Z" stroke="white" stroke-miterlimit="10"/>
<path d="M134.103 146.54H98.5261V182.157H134.103V146.54Z" stroke="white" stroke-miterlimit="10"/>
<path d="M185.069 146.54H149.491V182.157H185.069V146.54Z" stroke="white" stroke-miterlimit="10"/>
<path d="M236.029 146.54H200.452V182.157H236.029V146.54Z" stroke="white" stroke-miterlimit="10"/>
<path d="M286.995 146.54H251.417V182.157H286.995V146.54Z" stroke="white" stroke-miterlimit="10"/>
<path d="M134.103 201.025H98.5261V236.642H134.103V201.025Z" stroke="white" stroke-miterlimit="10"/>
<path d="M185.069 201.025H149.491V236.642H185.069V201.025Z" stroke="white" stroke-miterlimit="10"/>
<path d="M236.029 201.025H200.452V236.642H236.029V201.025Z" stroke="white" stroke-miterlimit="10"/>
<path d="M286.995 201.025H251.417V236.642H286.995V201.025Z" stroke="white" stroke-miterlimit="10"/>
<path d="M201.058 28.1194H123.701V105.565H201.058V28.1194Z" stroke="white" stroke-miterlimit="10"/>
<path d="M202.286 33.171H175.603V59.8841H202.286V33.171Z" stroke="white" stroke-miterlimit="10"/>
<path d="M248.837 33.171H222.154V59.8841H248.837V33.171Z" stroke="white" stroke-miterlimit="10"/>
<path d="M295.388 33.171H268.705V59.8841H295.388V33.171Z" stroke="white" stroke-miterlimit="10"/>
<path d="M155.735 82.4987H129.052V109.212H155.735V82.4987Z" stroke="white" stroke-miterlimit="10"/>
<path d="M202.286 82.4987H175.603V109.212H202.286V82.4987Z" stroke="white" stroke-miterlimit="10"/>
<path d="M248.837 82.4987H222.154V109.212H248.837V82.4987Z" stroke="white" stroke-miterlimit="10"/>
<path d="M295.388 82.4987H268.705V109.212H295.388V82.4987Z" stroke="white" stroke-miterlimit="10"/>
<path d="M155.735 131.821H129.052V158.534H155.735V131.821Z" stroke="white" stroke-miterlimit="10"/>
<path d="M202.286 131.821H175.603V158.534H202.286V131.821Z" stroke="white" stroke-miterlimit="10"/>
<path d="M248.837 131.821H222.154V158.534H248.837V131.821Z" stroke="white" stroke-miterlimit="10"/>
<path d="M295.388 131.821H268.705V158.534H295.388V131.821Z" stroke="white" stroke-miterlimit="10"/>
<path d="M155.735 181.149H129.052V207.862H155.735V181.149Z" stroke="white" stroke-miterlimit="10"/>
<path d="M202.286 181.149H175.603V207.862H202.286V181.149Z" stroke="white" stroke-miterlimit="10"/>
<path d="M248.837 181.149H222.154V207.862H248.837V181.149Z" stroke="white" stroke-miterlimit="10"/>
<path d="M295.388 181.149H268.705V207.862H295.388V181.149Z" stroke="white" stroke-miterlimit="10"/>
<path d="M245.354 21.1865H151.551V115.096H245.354V21.1865Z" stroke="white" stroke-miterlimit="10"/>
<path d="M219.503 28.7665H201.715V46.5752H219.503V28.7665Z" stroke="white" stroke-miterlimit="10"/>
<path d="M261.644 28.7665H243.856V46.5752H261.644V28.7665Z" stroke="white" stroke-miterlimit="10"/>
<path d="M303.781 28.7665H285.992V46.5752H303.781V28.7665Z" stroke="white" stroke-miterlimit="10"/>
<path d="M177.367 72.9321H159.578V90.7408H177.367V72.9321Z" stroke="white" stroke-miterlimit="10"/>
<path d="M219.503 72.9321H201.715V90.7408H219.503V72.9321Z" stroke="white" stroke-miterlimit="10"/>
<path d="M261.644 72.9321H243.856V90.7408H261.644V72.9321Z" stroke="white" stroke-miterlimit="10"/>
<path d="M303.781 72.9321H285.992V90.7408H303.781V72.9321Z" stroke="white" stroke-miterlimit="10"/>
<path d="M177.367 117.103H159.578V134.911H177.367V117.103Z" stroke="white" stroke-miterlimit="10"/>
<path d="M219.503 117.103H201.715V134.911H219.503V117.103Z" stroke="white" stroke-miterlimit="10"/>
<path d="M261.644 117.103H243.856V134.911H261.644V117.103Z" stroke="white" stroke-miterlimit="10"/>
<path d="M303.781 117.103H285.992V134.911H303.781V117.103Z" stroke="white" stroke-miterlimit="10"/>
<path d="M177.367 161.268H159.578V179.077H177.367V161.268Z" stroke="white" stroke-miterlimit="10"/>
<path d="M219.503 161.268H201.715V179.077H219.503V161.268Z" stroke="white" stroke-miterlimit="10"/>
<path d="M261.644 161.268H243.856V179.077H261.644V161.268Z" stroke="white" stroke-miterlimit="10"/>
<path d="M303.781 161.268H285.992V179.077H303.781V161.268Z" stroke="white" stroke-miterlimit="10"/>
<path d="M289.65 14.2537H179.401V124.628H289.65V14.2537Z" stroke="white" stroke-miterlimit="10"/>
<path d="M236.725 24.3621H227.831V33.2664H236.725V24.3621Z" stroke="white" stroke-miterlimit="10"/>
<path d="M274.452 24.3621H265.558V33.2664H274.452V24.3621Z" stroke="white" stroke-miterlimit="10"/>
<path d="M312.174 24.3621H303.28V33.2664H312.174V24.3621Z" stroke="white" stroke-miterlimit="10"/>
<path d="M198.999 63.3706H190.104V72.275H198.999V63.3706Z" stroke="white" stroke-miterlimit="10"/>
<path d="M236.725 63.3706H227.831V72.275H236.725V63.3706Z" stroke="white" stroke-miterlimit="10"/>
<path d="M274.452 63.3706H265.558V72.275H274.452V63.3706Z" stroke="white" stroke-miterlimit="10"/>
<path d="M312.174 63.3706H303.28V72.275H312.174V63.3706Z" stroke="white" stroke-miterlimit="10"/>
<path d="M198.999 102.384H190.104V111.289H198.999V102.384Z" stroke="white" stroke-miterlimit="10"/>
<path d="M236.725 102.384H227.831V111.289H236.725V102.384Z" stroke="white" stroke-miterlimit="10"/>
<path d="M274.452 102.384H265.558V111.289H274.452V102.384Z" stroke="white" stroke-miterlimit="10"/>
<path d="M312.174 102.384H303.28V111.289H312.174V102.384Z" stroke="white" stroke-miterlimit="10"/>
<path d="M198.999 141.393H190.104V150.297H198.999V141.393Z" stroke="white" stroke-miterlimit="10"/>
<path d="M236.725 141.393H227.831V150.297H236.725V141.393Z" stroke="white" stroke-miterlimit="10"/>
<path d="M274.452 141.393H265.558V150.297H274.452V141.393Z" stroke="white" stroke-miterlimit="10"/>
<path d="M312.174 141.393H303.28V150.297H312.174V141.393Z" stroke="white" stroke-miterlimit="10"/>
<path d="M327.262 1H200.567V127.838H327.262V1Z" stroke="white" stroke-miterlimit="10"/>
</svg>
