<svg width="593" height="136" viewBox="0 0 593 136" fill="none" xmlns="http://www.w3.org/2000/svg">
<g clip-path="url(#clip0)">
<path d="M3.22681 18.41V135.773H592.955L3.22681 18.41Z" stroke="white" stroke-width="0.453543" stroke-miterlimit="10"/>
<path d="M9.42676 20.4827L584.578 135.773H296.193H7.80762L8.34733 96.7096L8.88705 57.6596L9.42676 20.4827Z" stroke="white" stroke-width="0.453543" stroke-miterlimit="10"/>
<path d="M15.6312 22.5554L576.196 135.773H294.292H12.3838L13.4678 96.7777L14.5472 57.7911L15.6312 22.5554Z" stroke="white" stroke-width="0.453543" stroke-miterlimit="10"/>
<path d="M21.8311 24.6281L567.819 135.773H292.392H16.9646L18.5883 96.8411L20.2074 57.9226L21.8311 24.6281Z" stroke="white" stroke-width="0.453543" stroke-miterlimit="10"/>
<path d="M28.0355 26.6962L559.442 135.773H290.492H21.5408L23.7042 96.9091L25.8721 58.0541L28.0355 26.6962Z" stroke="white" stroke-width="0.453543" stroke-miterlimit="10"/>
<path d="M34.2355 28.7689L551.061 135.773H288.591H26.1216L28.8247 96.9772L31.5323 58.1857L34.2355 28.7689Z" stroke="white" stroke-width="0.453543" stroke-miterlimit="10"/>
<path d="M40.44 30.8416L542.684 135.773H286.691H30.6979L33.9452 97.0406L37.1926 58.3217L40.44 30.8416Z" stroke="white" stroke-width="0.453543" stroke-miterlimit="10"/>
<path d="M46.6399 32.9143L534.307 135.773H284.791H35.2787L39.0658 97.1087L42.8529 58.4533L46.6399 32.9143Z" stroke="white" stroke-width="0.453543" stroke-miterlimit="10"/>
<path d="M52.8443 34.9869L525.926 135.773H282.895H39.8594L44.1862 97.1722L48.513 58.5848L52.8443 34.9869Z" stroke="white" stroke-width="0.453543" stroke-miterlimit="10"/>
<path d="M59.0443 37.0597L517.549 135.773H280.994H44.4357L49.3067 97.2403L54.1732 58.7164L59.0443 37.0597Z" stroke="white" stroke-width="0.453543" stroke-miterlimit="10"/>
<path d="M65.2441 39.1323L509.172 135.773H279.094H49.0164L54.4271 97.3082L59.8379 58.8478L65.2441 39.1323Z" stroke="white" stroke-width="0.453543" stroke-miterlimit="10"/>
<path d="M71.4487 41.2051L500.795 135.773H277.194H53.5928L59.5433 97.3718L65.4983 58.9794L71.4487 41.2051Z" stroke="white" stroke-width="0.453543" stroke-miterlimit="10"/>
<path d="M77.6486 43.2777L492.413 135.773H275.293H58.1735L64.6637 97.4398L71.1584 59.1109L77.6486 43.2777Z" stroke="white" stroke-width="0.453543" stroke-miterlimit="10"/>
<path d="M83.8531 45.3458L484.036 135.773H273.393H62.7498L69.7842 97.5032L76.8186 59.2424L83.8531 45.3458Z" stroke="white" stroke-width="0.453543" stroke-miterlimit="10"/>
<path d="M90.0529 47.4186L475.659 135.773H271.493H67.3304L74.9046 97.5713L82.4788 59.3785L90.0529 47.4186Z" stroke="white" stroke-width="0.453543" stroke-miterlimit="10"/>
<path d="M96.2574 49.4912L467.278 135.773H269.597H71.9113L80.0251 97.6348L88.139 59.51L96.2574 49.4912Z" stroke="white" stroke-width="0.453543" stroke-miterlimit="10"/>
<path d="M102.457 51.564L458.901 135.773H267.696H76.4874L85.1456 97.7029L93.7991 59.6416L102.457 51.564Z" stroke="white" stroke-width="0.453543" stroke-miterlimit="10"/>
<path d="M108.657 53.6367L450.524 135.773H265.796H81.0682L90.2661 97.7709L99.4639 59.7731L108.657 53.6367Z" stroke="white" stroke-width="0.453543" stroke-miterlimit="10"/>
<path d="M114.862 55.7094L442.147 135.773H263.896H85.6445L95.3866 97.8344L105.124 59.9046L114.862 55.7094Z" stroke="white" stroke-width="0.453543" stroke-miterlimit="10"/>
<path d="M121.062 57.782L433.766 135.773H261.996H90.2253L100.503 97.9024L110.784 60.0361L121.062 57.782Z" stroke="white" stroke-width="0.453543" stroke-miterlimit="10"/>
<path d="M127.266 59.8547L425.389 135.773H260.095H94.8015L105.623 97.9659L116.445 60.1677L127.266 59.8547Z" stroke="white" stroke-width="0.453543" stroke-miterlimit="10"/>
<path d="M133.466 61.9274L417.012 135.773H258.195H99.3823L110.744 98.0339L122.105 60.2992L133.466 61.9274Z" stroke="white" stroke-width="0.453543" stroke-miterlimit="10"/>
<path d="M139.671 64.0001L408.63 135.773H256.294H103.963L115.864 98.102L127.765 60.4353L139.671 64.0001Z" stroke="white" stroke-width="0.453543" stroke-miterlimit="10"/>
<path d="M145.87 66.0682L400.253 135.773H254.399H108.539L120.985 98.1655L133.425 60.5668L145.87 66.0682Z" stroke="white" stroke-width="0.453543" stroke-miterlimit="10"/>
<path d="M152.075 68.1409L391.877 135.773H252.498H113.12L126.105 98.2334L139.09 60.6982L152.075 68.1409Z" stroke="white" stroke-width="0.453543" stroke-miterlimit="10"/>
<path d="M158.275 70.2136L383.495 135.773H250.598H117.696L131.226 98.297L144.75 60.8298L158.275 70.2136Z" stroke="white" stroke-width="0.453543" stroke-miterlimit="10"/>
<path d="M164.475 72.2863L375.118 135.773H248.698H122.277L136.342 98.365L150.41 60.9613L164.475 72.2863Z" stroke="white" stroke-width="0.453543" stroke-miterlimit="10"/>
<path d="M170.679 74.359L366.741 135.773H246.797H126.853L141.462 98.4331L156.071 61.0929L170.679 74.359Z" stroke="white" stroke-width="0.453543" stroke-miterlimit="10"/>
<path d="M176.879 76.4316L358.364 135.773H244.897H131.434L146.583 98.4965L161.731 61.2244L176.879 76.4316Z" stroke="white" stroke-width="0.453543" stroke-miterlimit="10"/>
<path d="M183.084 78.5044L349.983 135.773H242.997H136.015L151.703 98.5646L167.391 61.356L183.084 78.5044Z" stroke="white" stroke-width="0.453543" stroke-miterlimit="10"/>
<path d="M189.284 80.577L341.606 135.773H241.101H140.591L156.823 98.628L173.056 61.4919L189.284 80.577Z" stroke="white" stroke-width="0.453543" stroke-miterlimit="10"/>
<path d="M195.488 82.6498L333.229 135.773H239.2H145.172L161.944 98.6961L178.716 61.6235L195.488 82.6498Z" stroke="white" stroke-width="0.453543" stroke-miterlimit="10"/>
<path d="M201.688 84.7179L324.847 135.773H237.3H149.748L167.065 98.7641L184.376 61.755L201.688 84.7179Z" stroke="white" stroke-width="0.453543" stroke-miterlimit="10"/>
<path d="M207.888 86.7906L316.471 135.773H235.4H154.329L172.181 98.8276L190.037 61.8866L207.888 86.7906Z" stroke="white" stroke-width="0.453543" stroke-miterlimit="10"/>
<path d="M214.092 88.8634L308.094 135.773H233.499H158.91L177.301 98.8957L195.697 62.0182L214.092 88.8634Z" stroke="white" stroke-width="0.453543" stroke-miterlimit="10"/>
<path d="M220.292 90.936L299.717 135.773H231.599H163.486L182.421 98.9592L201.357 62.1497L220.292 90.936Z" stroke="white" stroke-width="0.453543" stroke-miterlimit="10"/>
<path d="M226.497 93.0086L291.335 135.773H229.699H168.067L187.542 99.0272L207.017 62.2811L226.497 93.0086Z" stroke="white" stroke-width="0.453543" stroke-miterlimit="10"/>
<path d="M232.697 95.0814L282.958 135.773H227.803H172.643L192.663 99.0907L212.682 62.4127L232.697 95.0814Z" stroke="white" stroke-width="0.453543" stroke-miterlimit="10"/>
<path d="M238.901 97.154L274.581 135.773H225.903H177.224L197.783 99.1587L218.342 62.5487L238.901 97.154Z" stroke="white" stroke-width="0.453543" stroke-miterlimit="10"/>
<path d="M224.002 62.6803L245.101 99.2268L266.2 135.773H224.002H181.8L202.904 99.2268L224.002 62.6803Z" stroke="white" stroke-width="0.453543" stroke-miterlimit="10"/>
<rect x="199" y="98.7072" width="1" height="8" transform="rotate(-45 199 98.7072)" fill="#FFE924"/>
<rect x="249.975" y="97.818" width="1" height="8" transform="rotate(45 249.975 97.818)" fill="#FFE924"/>
</g>
<path d="M0.36 9.24C0.36 8.296 0.636 7.58 1.188 7.092C1.74 6.604 2.44 6.36 3.288 6.36C4.144 6.36 4.78 6.576 5.196 7.008C5.612 7.432 5.76 7.872 5.64 8.328C5.576 8.576 5.44 8.76 5.232 8.88C5.032 8.992 4.812 9.02 4.572 8.964C4.068 8.844 3.816 8.552 3.816 8.088C3.816 7.968 3.828 7.788 3.852 7.548C3.884 7.3 3.896 7.12 3.888 7.008C3.88 6.896 3.856 6.808 3.816 6.744C3.736 6.608 3.548 6.556 3.252 6.588C2.532 6.7 2.172 7.584 2.172 9.24C2.172 10.888 2.76 11.712 3.936 11.712C4.208 11.712 4.484 11.64 4.764 11.496C5.044 11.352 5.252 11.18 5.388 10.98L5.556 11.1C5.372 11.404 5.096 11.648 4.728 11.832C4.36 12.016 3.948 12.108 3.492 12.108C1.404 12.108 0.36 11.152 0.36 9.24Z" fill="white"/>
<path d="M229.3 53.76C229.22 53.84 229.068 53.912 228.844 53.976C228.62 54.032 228.36 54.06 228.064 54.06C227.408 54.06 226.996 53.864 226.828 53.472C226.428 53.888 225.816 54.096 224.992 54.096C224.552 54.096 224.188 53.996 223.9 53.796C223.62 53.588 223.48 53.284 223.48 52.884C223.48 52.348 223.688 51.936 224.104 51.648C224.52 51.352 225.248 51.144 226.288 51.024L226.768 50.964V50.376C226.768 49.68 226.716 49.212 226.612 48.972C226.508 48.732 226.3 48.612 225.988 48.612C225.684 48.612 225.488 48.656 225.4 48.744C225.312 48.824 225.28 48.92 225.304 49.032C225.328 49.136 225.368 49.276 225.424 49.452C225.48 49.628 225.508 49.768 225.508 49.872C225.508 50.12 225.42 50.332 225.244 50.508C225.076 50.676 224.868 50.76 224.62 50.76C224.38 50.76 224.172 50.676 223.996 50.508C223.82 50.332 223.732 50.12 223.732 49.872C223.732 49.464 223.94 49.116 224.356 48.828C224.78 48.532 225.408 48.384 226.24 48.384C227.08 48.384 227.676 48.548 228.028 48.876C228.388 49.204 228.568 49.784 228.568 50.616V52.776C228.568 53.2 228.62 53.468 228.724 53.58C228.828 53.684 229.02 53.704 229.3 53.64V53.76ZM225.148 52.644C225.188 52.948 225.3 53.184 225.484 53.352C225.668 53.512 225.88 53.592 226.12 53.592C226.368 53.592 226.584 53.472 226.768 53.232V51.192L226.336 51.252C225.968 51.3 225.668 51.44 225.436 51.672C225.212 51.904 225.116 52.228 225.148 52.644Z" fill="white"/>
<defs>
<clipPath id="clip0">
<rect width="590" height="117.867" fill="white" transform="translate(3 18.1333)"/>
</clipPath>
</defs>
</svg>
