<svg width="23" height="33" viewBox="0 0 23 33" fill="none"
  xmlns="http://www.w3.org/2000/svg">
  <mask id="path-1-inside-1" fill="white">
    <path fill-rule="evenodd" clip-rule="evenodd" d="M7.48724 18.0353L3.62354 17L4.13941e-05 30.5231L5.62419 24.9888L7.72757 32.5932L11.3509 19.0706L7.48724 18.0353Z"/>
  </mask>
  <path fill-rule="evenodd" clip-rule="evenodd" d="M7.48724 18.0353L3.62354 17L4.13941e-05 30.5231L5.62419 24.9888L7.72757 32.5932L11.3509 19.0706L7.48724 18.0353Z" fill="white"/>
  <path d="M3.62354 17L3.88235 16.0341L2.91643 15.7753L2.65761 16.7412L3.62354 17ZM4.13941e-05 30.5231L-0.965884 30.2642L-1.91648 33.8119L0.70143 31.2358L4.13941e-05 30.5231ZM5.62419 24.9888L6.588 24.7222L6.13473 23.0835L4.92281 24.276L5.62419 24.9888ZM7.72757 32.5932L6.76376 32.8597L7.7429 36.3996L8.6935 32.852L7.72757 32.5932ZM11.3509 19.0706L12.3169 19.3294L12.5757 18.3634L11.6098 18.1046L11.3509 19.0706ZM3.36472 17.9659L7.22842 19.0012L7.74606 17.0694L3.88235 16.0341L3.36472 17.9659ZM0.965967 30.7819L4.58946 17.2588L2.65761 16.7412L-0.965884 30.2642L0.965967 30.7819ZM0.70143 31.2358L6.32558 25.7016L4.92281 24.276L-0.701347 29.8103L0.70143 31.2358ZM4.66038 25.2554L6.76376 32.8597L8.69138 32.3266L6.588 24.7222L4.66038 25.2554ZM10.385 18.8117L6.76164 32.3343L8.6935 32.852L12.3169 19.3294L10.385 18.8117ZM7.22842 19.0012L11.0921 20.0365L11.6098 18.1046L7.74606 17.0694L7.22842 19.0012Z" fill="#1D1D1D" mask="url(#path-1-inside-1)"/>
  <mask id="path-3-inside-2" fill="white">
    <path fill-rule="evenodd" clip-rule="evenodd" d="M14.8637 18.0353L11 19.0706L14.6235 32.5935L16.727 24.9888L22.3508 30.5227L18.7274 17L14.8637 18.0353Z"/>
  </mask>
  <path fill-rule="evenodd" clip-rule="evenodd" d="M14.8637 18.0353L11 19.0706L14.6235 32.5935L16.727 24.9888L22.3508 30.5227L18.7274 17L14.8637 18.0353Z" fill="white"/>
  <path d="M11 19.0706L10.7412 18.1046L9.77526 18.3634L10.0341 19.3294L11 19.0706ZM14.6235 32.5935L13.6575 32.8523L14.6081 36.4L15.5873 32.8601L14.6235 32.5935ZM16.727 24.9888L17.4283 24.276L16.2164 23.0834L15.7631 24.7222L16.727 24.9888ZM22.3508 30.5227L21.6494 31.2355L24.2673 33.8116L23.3167 30.2639L22.3508 30.5227ZM18.7274 17L19.6933 16.7412L19.4345 15.7753L18.4686 16.0341L18.7274 17ZM11.2588 20.0365L15.1225 19.0012L14.6049 17.0694L10.7412 18.1046L11.2588 20.0365ZM15.5894 32.3347L11.9659 18.8117L10.0341 19.3294L13.6575 32.8523L15.5894 32.3347ZM15.5873 32.8601L17.6908 25.2554L15.7631 24.7222L13.6597 32.3269L15.5873 32.8601ZM16.0256 25.7016L21.6494 31.2355L23.0522 29.81L17.4283 24.276L16.0256 25.7016ZM17.7615 17.2588L21.3849 30.7816L23.3167 30.2639L19.6933 16.7412L17.7615 17.2588ZM15.1225 19.0012L18.9862 17.9659L18.4686 16.0341L14.6049 17.0694L15.1225 19.0012Z" fill="#1D1D1D" mask="url(#path-3-inside-2)"/>
  <circle cx="11" cy="11" r="10.5" fill="white" stroke="#1D1D1D"/>
  <circle cx="11" cy="11" r="6.5" fill="#E4E8EB" stroke="#1D1D1D"/>
  <path d="M11 7.61803L11.647 9.60942L11.7593 9.95492H12.1226H14.2164L12.5225 11.1857L12.2286 11.3992L12.3408 11.7447L12.9879 13.7361L11.2939 12.5053L11 12.2918L10.7061 12.5053L9.01213 13.7361L9.65917 11.7447L9.77143 11.3992L9.47754 11.1857L7.78356 9.95492H9.87743H10.2407L10.353 9.60942L11 7.61803Z" fill="white" stroke="#1D1D1D"/>
</svg>
