<svg width="50" height="50" viewBox="0 0 50 50" fill="none" xmlns="http://www.w3.org/2000/svg">
<path d="M46.9528 13.9063C46.432 11.9271 44.8695 10.3646 42.8903 9.81773C39.3226 8.85419 24.9997 8.85419 24.9997 8.85419C24.9997 8.85419 10.6768 8.85419 7.08301 9.81773C5.10384 10.3386 3.56738 11.9011 3.02051 13.9063C2.08301 17.5 2.08301 25 2.08301 25C2.08301 25 2.08301 32.5 3.04655 36.0938C3.56738 38.0729 5.12988 39.6354 7.10905 40.1823C10.6768 41.1459 24.9997 41.1459 24.9997 41.1459C24.9997 41.1459 39.3226 41.1459 42.9163 40.1823C44.8955 39.6615 46.432 38.099 46.9788 36.0938C47.9163 32.5 47.9163 25 47.9163 25C47.9163 25 47.9163 17.5 46.9528 13.9063Z" fill="black"/>
<path d="M20.3125 31.823V18.1771L32.2917 25L20.3125 31.823Z" fill="white"/>
</svg>
