<?xml version="1.0" encoding="utf-8"?>
<!-- Generator: Adobe Illustrator 25.2.0, SVG Export Plug-In . SVG Version: 6.00 Build 0)  -->
<svg version="1.1" id="레이어_1" xmlns="http://www.w3.org/2000/svg" xmlns:xlink="http://www.w3.org/1999/xlink" x="0px"
	 y="0px" viewBox="0 0 400 400" style="enable-background:new 0 0 400 400;" xml:space="preserve">
<style type="text/css">
	.st0{fill:#ffffff;}
</style>
<g>
	<g>
		<path class="st0" d="M35,165.7c2.9-1.4,6.1-2.4,8.8-4.1c64-39.8,128-79.7,192-119.5c2.3-1.4,4.6-2.8,7-4.1
			c0.8,0.8,1.5,1.6,2.3,2.4c-1.4,0.5-3,0.7-4.3,1.5c-67.1,41.7-134.1,83.5-201.2,125.3c-1.4,0.9-3,1.3-4.5,2
			C35,168,35,166.9,35,165.7z"/>
	</g>
	<g>
		<path class="st0" d="M156.9,360.1c69-43,137.9-86,206.9-129c0.4,0.7,0.8,1.3,1.3,2c-69,43-137.9,85.9-206.9,128.9
			C157.7,361.4,157.3,360.8,156.9,360.1z"/>
	</g>
	<g>
		<path class="st0" d="M144.7,340.8c68.9-42.9,137.7-85.9,206.6-128.8c0.4,0.7,0.8,1.3,1.3,2c-68.8,42.9-137.6,85.8-206.4,128.6
			C145.6,342.1,145.2,341.5,144.7,340.8z"/>
	</g>
	<g>
		<path class="st0" d="M132.4,321.6c69-43,138-86,206.9-129c0.4,0.7,0.8,1.3,1.2,2c-69,43-138,86-207,129
			C133.2,322.9,132.8,322.2,132.4,321.6z"/>
	</g>
	<g>
		<path class="st0" d="M120.4,302.2c69.1-43.1,138.1-86.1,207.2-129.2c0.4,0.7,0.8,1.3,1.2,2c-69,43-138,86-207,129
			C121.4,303.4,120.9,302.8,120.4,302.2z"/>
	</g>
	<g>
		<path class="st0" d="M47.8,186c69-43,138-86,206.9-129c0.4,0.7,0.8,1.3,1.2,2c-69,43-138,86-207,129
			C48.6,187.4,48.2,186.7,47.8,186z"/>
	</g>
	<g>
		<path class="st0" d="M280.3,97.6c-69.1,43.1-138.1,86.1-207.2,129.2c-0.4-0.7-0.8-1.3-1.2-2C141,181.8,210,138.7,279.1,95.7
			C279.5,96.3,279.9,97,280.3,97.6z"/>
	</g>
	<g>
		<path class="st0" d="M292.4,117c-69.1,43.1-138.2,86.1-207.3,129.2c-0.4-0.7-0.8-1.3-1.2-2C153,201.2,222.1,158.1,291.2,115
			C291.6,115.7,292,116.3,292.4,117z"/>
	</g>
	<g>
		<path class="st0" d="M267.7,78.6c-68.8,42.9-137.5,85.7-206.3,128.6c-0.4-0.7-0.8-1.3-1.2-2c68.8-42.9,137.6-85.8,206.4-128.7
			C266.9,77.3,267.3,78,267.7,78.6z"/>
	</g>
	<g>
		<path class="st0" d="M96.6,263.3c68.8-42.9,137.6-85.8,206.5-128.7c0.4,0.7,0.8,1.3,1.2,2C235.5,179.4,166.8,222.2,98,265.1
			C97.5,264.5,97.1,263.9,96.6,263.3z"/>
	</g>
	<g>
		<path class="st0" d="M108.7,282.6c68.8-42.9,137.7-85.8,206.5-128.7c0.4,0.7,0.8,1.3,1.2,2c-68.9,42.9-137.7,85.9-206.6,128.8
			C109.5,283.9,109.1,283.2,108.7,282.6z"/>
	</g>
	<g>
		<path class="st0" d="M158.3,184.4c23.7-14.8,47.4-29.5,71.2-44.3c0.4,0.6,0.8,1.3,1.2,1.9c-23.7,14.8-47.4,29.5-71.2,44.3
			C159.1,185.7,158.7,185.1,158.3,184.4z"/>
	</g>
	<g>
		<path class="st0" d="M159.5,264.3c23.6-14.7,47.2-29.4,70.8-44.1c0.4,0.6,0.8,1.3,1.2,1.9c-23.6,14.7-47.3,29.4-70.9,44.2
			C160.2,265.7,159.9,265,159.5,264.3z"/>
	</g>
	<g>
		<path class="st0" d="M201.4,184.5c23.7-14.7,47.4-29.5,71-44.2c0.4,0.6,0.8,1.3,1.2,1.9c-23.7,14.7-47.4,29.5-71,44.2
			C202.1,185.8,201.7,185.1,201.4,184.5z"/>
	</g>
	<g>
		<path class="st0" d="M274.7,222.2c-23.6,14.7-47.2,29.4-70.9,44.1c-0.4-0.6-0.8-1.3-1.2-1.9c23.6-14.7,47.2-29.4,70.8-44.1
			C273.9,220.9,274.3,221.6,274.7,222.2z"/>
	</g>
	<g>
		<path class="st0" d="M123.9,259.7c21.1-13.1,42.1-26.2,63.2-39.3c0.4,0.6,0.8,1.3,1.2,1.9c-21.1,13.2-42.2,26.3-63.3,39.5
			C124.6,261,124.2,260.4,123.9,259.7z"/>
	</g>
	<g>
		<path class="st0" d="M187.3,142.2c-20.7,12.9-41.4,25.8-62.1,38.7c-0.4-0.6-0.8-1.3-1.2-1.9c20.7-12.9,41.4-25.8,62.1-38.7
			C186.5,140.9,186.9,141.5,187.3,142.2z"/>
	</g>
	<g>
		<path class="st0" d="M277.3,166.8c-10.5,6.6-21.1,13.1-31.6,19.7c-0.4-0.6-0.8-1.3-1.2-1.9c10.6-6.6,21.1-13.2,31.7-19.8
			C276.6,165.4,277,166.1,277.3,166.8z"/>
	</g>
	<g>
		<path class="st0" d="M245.5,264.6c10.2-6.4,20.4-12.7,30.6-19.1c0.4,0.7,0.8,1.3,1.2,2c-10.2,6.3-20.4,12.7-30.6,19
			C246.3,265.9,245.9,265.2,245.5,264.6z"/>
	</g>
</g>
</svg>
