<?xml version="1.0" encoding="utf-8"?>
<!-- Generator: Adobe Illustrator 25.2.0, SVG Export Plug-In . SVG Version: 6.00 Build 0)  -->
<svg version="1.1" id="레이어_1" xmlns="http://www.w3.org/2000/svg" xmlns:xlink="http://www.w3.org/1999/xlink" x="0px"
	 y="0px" viewBox="0 0 400 400" style="enable-background:new 0 0 400 400;" xml:space="preserve">
<style type="text/css">
	.st0{fill:#000000;}
	.st1{fill:none;}
	.st2{opacity:6.000000e-02;fill:#000000;enable-background:new    ;}
	.st3{opacity:0.15;fill:#000000;enable-background:new    ;}
	.st4{opacity:0.21;fill:#000000;enable-background:new    ;}
	.st5{opacity:0.1;fill:none;enable-background:new    ;}
	.st6{opacity:0.1;fill:#000000;enable-background:new    ;}
	.st7{opacity:0.3;}
</style>
<g id="Group_13465">
	<path id="Path_7142" class="st0" d="M325.7,139.3c-1.3-69.7-58.9-125.1-128.5-123.7c-67.8,1.3-122.4,56-123.7,123.7
		c0,0.3,0,0.6,0,1v1.9l0,0v228.1c0,7.7,6.2,14.1,14.1,14.1c7.7,0,14.1-6.2,14.1-14.1v-40.8c0-7.7,6.2-14.1,14.1-14.1
		s14.1,6.2,14.1,14.1l0,0v19.3c0.2,7.7,6.6,13.9,14.3,13.7c7.5-0.2,13.5-6.2,13.7-13.7l0,0v-19.3c0-7.7,6.2-14.1,14.1-14.1l0,0
		c7.7,0,14.1,6.2,14.1,14.1v5.3c0,7.7,6.3,14.1,14.1,14.1c7.7,0,14.1-6.2,14.1-14.1v-5.2c0.2-7.7,6.6-13.9,14.3-13.7
		c7.5,0.2,13.5,6.2,13.7,13.7v19.3c0,7.7,6.2,14.1,14.1,14.1c7.7,0,14.1-6.2,14.1-14.1l0,0l0,0v-19.3c0-7.7,6.2-14.1,14.1-14.1l0,0
		c7.7,0,14.1,6.2,14.1,14.1v40.8c0,7.7,6.2,14.1,14.1,14.1c7.7,0,14.1-6.2,14.1-14.1l0,0V140.2C325.8,139.9,325.8,139.6,325.7,139.3
		z M153,159.5c-12.4,0-22.4-11.5-22.4-25.8s10.1-25.8,22.4-25.8c12.4,0,22.4,11.5,22.4,25.8S165.5,159.5,153,159.5L153,159.5z
		 M200.6,195.8c-11.3,0-20.4-6.7-20.4-15c0-8.3,9.1-3.3,20.4-3.3c11.3,0,20.4-4.9,20.4,3.3C221,189.1,211.9,195.8,200.6,195.8
		L200.6,195.8z M246.1,159.5c-12.4,0-22.4-11.5-22.4-25.8s10.1-25.8,22.4-25.8s22.4,11.5,22.4,25.8S258.5,159.5,246.1,159.5
		L246.1,159.5z"/>
	<g id="Group_13464">
		<ellipse id="Ellipse_598" class="st1" cx="153" cy="133.7" rx="22.4" ry="25.8"/>
		<path id="Path_7143" class="st1" d="M200.6,177.5c-11.3,0-20.4-4.9-20.4,3.3c0,8.3,9.1,14.9,20.4,14.9c11.3,0,20.4-6.7,20.4-14.9
			S211.9,177.5,200.6,177.5z"/>
		<ellipse id="Ellipse_599" class="st1" cx="246.1" cy="133.7" rx="22.4" ry="25.8"/>
	</g>
	<path id="Path_7146" class="st2" d="M75.3,120.4c0,0,24.4-77.5,125.8-76.8c125.7,1.5,124.7,142.3,124.7,142.3s11.4-98.7-47.6-142.5
		S169.2,19,146.3,27.6S80.2,72.7,75.3,120.4z"/>
	<path id="Path_7147" class="st3" d="M91.3,77.3c0,0,41-44.6,97.8-45.2c56.8-0.6,96.7,18,115.3,56.4c11.8,26.2,19.1,54.3,21.3,83
		c0,0,11.4-84.2-47.6-128S169.3,19,146.5,27.6C123.6,36.2,107.4,55.2,91.3,77.3z"/>
	<path id="Path_7148" class="st4" d="M130.6,133.7c0,0,1.6-27.5,22.4-27.6c20.8,0,22.4,27.6,22.4,27.6s-4.4-25.8-22.4-25.8
		C140.1,107.9,130,127.9,130.6,133.7z"/>
	<path id="Path_7149" class="st4" d="M223.7,133.7c0,0,1.6-27.5,22.4-27.6c20.8,0,22.4,27.6,22.4,27.6s-4.3-25.8-22.4-25.8
		C233.2,107.9,223,127.9,223.7,133.7z"/>
	<path id="Path_7150" class="st5" d="M153,102.8c-10,0-25.3,11.2-25.3,30.9c-0.8,14.8,10.5,27.5,25.3,28.5c9.7,0,24.2-8.7,24.2-28.5
		S163,102.8,153,102.8z M153.3,159c-14.1,0.4-22.4-15.4-22.4-26.7c-0.3-12.5,9.6-22.9,22-23.2l0,0h0.4c14,0,20,11.7,20,23.2
		C173.3,143.8,167.5,158.6,153.3,159z"/>
	<path id="Path_7151" class="st5" d="M247,102.8c-10,0-25.3,11.2-25.3,30.9c-0.8,14.8,10.5,27.5,25.3,28.5c9.7,0,24.2-8.7,24.2-28.5
		S256.9,102.8,247,102.8z M247.3,159c-14.1,0.4-22.4-15.4-22.4-26.7c-0.3-12.5,9.6-22.9,22-23.2h0.4c14,0,20.1,11.7,20.1,23.2
		C267.4,143.8,261.4,158.6,247.3,159z"/>
	<path id="Path_7152" class="st6" d="M180.6,183.9c0,0,3.3,11.9,20.2,11.9c14.6-0.3,19-9.7,19.5-11c-1.1,9.8-9.6,17-19.4,16.4
		C190.6,201.7,181.8,194.1,180.6,183.9z"/>
	<g class="st7">
		<path class="st0" d="M314.3,218.6c-1.1,0-2,0.9-2,2v60.5c0,1.1,0.9,2,2,2s2-0.9,2-2v-60.5C316.3,219.5,315.5,218.6,314.3,218.6z"
			/>
		<path class="st0" d="M314.3,187.4c-1.1,0-2,0.9-2,2v12.2c0,1.1,0.9,2,2,2s2-0.9,2-2v-12.2C316.3,188.3,315.5,187.4,314.3,187.4z"
			/>
		<path class="st0" d="M85,172c-1.1,0-2,0.9-2,2v36.3c0,1.1,0.9,2,2,2c1.2,0,2-0.9,2-2V174C87.1,172.9,86.1,172,85,172z"/>
	</g>
</g>
</svg>
