<?xml version="1.0" encoding="utf-8"?>
<!-- Generator: Adobe Illustrator 25.2.1, SVG Export Plug-In . SVG Version: 6.00 Build 0)  -->
<svg version="1.1" id="레이어_1" xmlns="http://www.w3.org/2000/svg" xmlns:xlink="http://www.w3.org/1999/xlink" x="0px"
	 y="0px" viewBox="0 0 1000 1000" style="enable-background:new 0 0 1000 1000;" xml:space="preserve">
<style type="text/css">
	.st0{clip-path:url(#SVGID_2_);}
	.st1{fill:none;}
	.st2{fill:#636463;}
	.st3{fill:#616261;}
	.st4{fill:#5E5F5E;}
	.st5{fill:#5B5C5B;}
	.st6{fill:#5A5B5A;}
	.st7{fill:#404140;}
	.st8{fill:#575857;}
	.st9{fill:#535453;}
	.st10{fill:#414342;}
	.st11{fill:#4F504F;}
	.st12{fill:#4B4C4B;}
	.st13{fill:#3F4140;}
	.st14{fill:#474847;}
	.st15{fill:#313231;}
	.st16{fill:#444444;}
	.st17{fill:#444544;}
	.st18{fill:#5E5E5D;}
	.st19{fill:#4A4B4A;}
	.st20{fill:#464746;}
	.st21{fill:#424342;}
	.st22{fill:#303131;}
	.st23{fill:#343534;}
	.st24{fill:#282928;}
	.st25{fill:#353635;}
	.st26{fill:#272827;}
	.st27{fill:#555655;}
	.st28{fill:#515251;}
	.st29{fill:#4D4E4D;}
	.st30{fill:#454645;}
	.st31{fill:#494A49;}
	.st32{fill:#3F403F;}
	.st33{fill:#414241;}
	.st34{fill:#3D3E3D;}
	.st35{fill:#383938;}
	.st36{fill:#393A3A;}
	.st37{fill:#262726;}
	.st38{fill:#545554;}
	.st39{fill:#2D2E2D;}
	.st40{fill:#262727;}
	.st41{fill:#454545;}
	.st42{fill:#3F3F3F;}
	.st43{fill:#393A39;}
	.st44{fill:#2E2E2E;}
	.st45{fill:#232323;}
	.st46{fill:#252525;}
	.st47{fill:#484948;}
	.st48{fill:#373737;}
	.st49{fill:#3B3B3B;}
	.st50{fill:#434443;}
	.st51{fill:#313232;}
	.st52{fill:#363736;}
	.st53{fill:#1E1F1E;}
	.st54{fill:#363636;}
	.st55{fill:#3C3D3C;}
	.st56{fill:#414141;}
	.st57{fill:#1F201F;}
	.st58{fill:#1B1C1B;}
	.st59{fill:#3A3B3A;}
	.st60{fill:#333333;}
	.st61{fill:#303130;}
	.st62{fill:#2E2F2E;}
	.st63{fill:#373837;}
	.st64{fill:#333433;}
	.st65{fill:#2C2D2C;}
	.st66{fill:#222322;}
</style>
<g>
	<defs>
		<path id="SVGID_1_" d="M500,180.19L130.72,819.81l738.56,0L500,180.19z M428.91,587.4l125.64-29.54l-37.24,123.58L428.91,587.4z"
			/>
	</defs>
	<clipPath id="SVGID_2_">
		<use xlink:href="#SVGID_1_"  style="overflow:visible;"/>
	</clipPath>
	<g class="st0">
		<path class="st1" d="M292.7,788.84C292.7,788.84,292.7,788.84,292.7,788.84C292.7,788.84,292.7,788.84,292.7,788.84
			c0-0.04,0-0.08,0-0.12c-0.02,0.03-0.03,0.06-0.05,0.1c-0.13,0.02-0.25,0.04-0.37,0.05c0.1,0.09,0.2,0.19,0.29,0.28
			c0.03-0.11,0.06-0.22,0.08-0.33C292.65,788.81,292.7,788.84,292.7,788.84z"/>
		<path class="st1" d="M389.42,778.19c0-0.04,0-0.08,0-0.12c-0.03,0.01-0.06,0.02-0.09,0.03
			C389.36,778.12,389.39,778.15,389.42,778.19z"/>
		<path class="st1" d="M546.59,583.44c0.23-4.24-0.07-8.62,2.35-12.28c-0.16-0.27-0.32-0.55-0.47-0.85
			c-0.26-2.59,0.23-4.88,2.17-6.6c-2.32-0.88-4.33-2.3-6.39-3.65c-3.13,2.9-7.6,2.87-12.27,2.43c-1.68-0.39-3.37-0.68-5.06-0.92
			c-12,4.4-24.13,8.27-37.12,8.82c-12.15,2.72-22.97,10.14-35.9,10.1c-7.35,1.48-13.66,6.24-21.07,7.55
			c4.47,4.66,9.14,9.2,9.47,16.41c-0.09,0.97-0.06,1.9,0.04,2.81c18.53,11.1,37.47,21.77,45.88,43.44
			c8.06,4.31,17.31,7.46,19.34,17.82c0.01,0,0.01,0,0.02-0.01c3.68,0.74,6.59,2.15,7.37,5.35c2.41-5.54,2.48-12.62,9.96-14.86
			c0.26,0.13,0.48,0.28,0.69,0.44c0.83-8.76,2.77-17.21,7.06-25.01C534.63,616.71,540.1,599.93,546.59,583.44z"/>
		<path class="st1" d="M389.4,742.23c0-0.03,0-0.07,0-0.1c-0.04,0.01-0.09,0.03-0.13,0.04C389.32,742.19,389.36,742.21,389.4,742.23
			c0.02,0.02,0.03,0.04,0.05,0.06c0-0.02,0-0.04,0-0.06C389.46,742.24,389.4,742.23,389.4,742.23z"/>
		<path class="st2" d="M858.93,817.55c-4.78-0.02-9.55-0.04-14.33-0.06c-4.78,0-9.56,0-14.33,0c-8.36-0.01-16.72-0.03-25.08-0.04
			c-8.36-0.01-16.72-0.02-25.08-0.03c0,0,0,0,0,0c0,0,0,0,0,0c-8.37,0-16.73,0-25.1,0.01c-11.94-0.01-23.88-0.02-35.82-0.03
			c-11.94,0-23.89,0-35.83,0.01c-16.73,0-33.45,0.01-50.18,0.01c0,0,0,0,0,0c-1.19,0.01-2.38,0.03-3.56,0.03
			c-20.79-0.08-43.46,5.01-61.83-1.69c-18.45-6.74-22.69-32.51-36.52-47.45c-2.77-3-6.13-5.45-9.22-8.15
			c-35.36,8.78-70.7,17.61-106.09,26.27c-5.1,1.25-10.39,1.67-15.59,2.48c0,0,0,0,0,0c0,0,0,0,0,0c-3.64,1.18-7.28,2.36-10.92,3.53
			c-3.85,4.86-9.33,3.23-14.32,3.59c-27.93,9.74-56.54,16.85-85.67,21.93c-0.13,0.88-0.29,1.75-0.48,2.62
			c188.64,0.23,377.28,0.47,565.92,0.62c3.86,0,8.63,1.53,10.73-3.83C863.39,817.42,861.16,817.49,858.93,817.55
			C858.93,817.55,858.93,817.55,858.93,817.55z"/>
		<path class="st2" d="M622.4,512.91C622.4,512.91,622.4,512.91,622.4,512.91C622.4,512.91,622.4,512.91,622.4,512.91
			c22.81,23.4,45.68,46.75,68.39,70.25c4.91,5.08,9.27,10.69,13.89,16.05c0,0,0,0,0,0c3.74,3.37,7.47,6.73,11.21,10.1
			c3.6,3.6,7.2,7.2,10.8,10.8c0,0,0,0,0.01,0c23.28,18.51,40.74,43.21,64.81,60.87c-45.13-82.07-92.24-162.99-140.46-243.28
			c-7.69,18.97-15.26,37.99-23.15,56.88C625.42,500.54,621.67,506.02,622.4,512.91z"/>
		<path class="st2" d="M353.6,548.75L353.6,548.75c13.35-39.59,23.28-80.09,32.3-120.83c0.61-2.74,2.04-5.3,3.09-7.95c0,0,0,0,0,0
			c8.32-33.78,16.64-67.56,24.96-101.34l0,0c-44.75,74.47-87.05,150.34-129.23,226.28c0,0,0,0,0,0l0,0
			C306.76,562.78,330.73,545.89,353.6,548.75z"/>
		<path class="st3" d="M599.27,423.48c-4.86,15.7-16.53,29.43-19.88,46.43c0,0,0,0,0,0c0,0,0,0,0,0c1.2,2.38,2.4,4.76,3.6,7.14
			c13.13,11.95,26.27,23.9,39.4,35.85c0,0,0,0,0,0c-0.73-6.89,3.02-12.37,5.51-18.33c7.89-18.89,15.46-37.91,23.15-56.88
			c-8.06-17.53-17.85-34.06-28.77-49.93C610.14,396.83,603.91,408.46,599.27,423.48z"/>
		<path class="st4" d="M288.87,647.97c7.32,0.08,14.7-2.99,22,0.73c6.71,3.41,12.33,1.06,17.62-3.22c0,0,0,0,0,0v0
			c3.39-17.12,12.73-32.53,14.39-50.14l-0.05-0.01c-30.68,5.34-61.58,8.85-92.66,10.76l0,0c-8.85,15.41-17.7,30.83-26.55,46.24
			C246.03,662.55,266.92,647.74,288.87,647.97z"/>
		<path class="st4" d="M547.13,437.68c0,1.19,0.01,2.38,0.03,3.57c10.75,9.56,21.49,19.11,32.24,28.67c0,0,0,0,0,0
			c3.35-17.01,15.02-30.73,19.88-46.43c4.64-15.02,10.86-26.65,23.01-35.71c-8.1-16.74-16.94-33.07-27.98-48.1
			C572.09,369.21,559.95,403.61,547.13,437.68L547.13,437.68z"/>
		<path class="st3" d="M353.6,548.75c-22.87-2.86-46.84,14.03-68.88-3.84l0,0c-11.52,20.39-23.04,40.79-34.56,61.18h0
			c31.08-1.91,61.98-5.42,92.66-10.76C346.42,579.8,350.01,564.28,353.6,548.75z"/>
		<path class="st5" d="M235.94,688.35c28.29-5.01,57.8-0.14,85.38-10.62c0,0,0,0,0,0c0,0,0,0,0,0c2.4-9.55,4.8-19.09,7.21-28.64
			c-0.01-1.2-0.02-2.4-0.04-3.6c0,0,0,0,0,0c-5.29,4.28-10.91,6.63-17.62,3.22c-7.3-3.72-14.68-0.65-22-0.73
			c-21.95-0.23-42.84,14.58-65.25,4.37c-6.74,12.06-13.47,24.12-20.21,36.18C214.26,694.44,225.25,690.24,235.94,688.35z"/>
		<path class="st6" d="M554.65,346.35c-10.61,22.83-19.44,46.49-29.01,69.8c0,0,0,0,0,0c0,0,0,0,0,0
			c5.74,8.59,12.92,15.75,21.49,21.52c12.82-34.07,24.96-68.46,47.18-98.01c-4.47-11.28-10.39-21.73-17.97-31.21
			C562.97,317.53,560.74,333.23,554.65,346.35z"/>
		<path class="st7" d="M439.6,330.19C439.6,330.19,439.6,330.19,439.6,330.19c11.9-17.51,15.08-38.8,25.62-57.22
			c14.43-25.21,22.35-53.79,36.96-79.15c1.65-2.86,1.3-6.87,1.88-10.34c-6.81-8.46-11.76-4.78-15.89,2.58
			c-23.52,41.99-46.98,84.02-70.45,126.03C425.01,318.12,432.31,324.15,439.6,330.19C439.6,330.19,439.6,330.19,439.6,330.19z"/>
		<path class="st8" d="M504.13,394.67L504.13,394.67c5.98,7.16,11.95,14.33,17.93,21.49c1.19,0,2.38,0,3.58,0c0,0,0,0,0,0
			c9.58-23.31,18.4-46.97,29.01-69.8c6.09-13.12,8.32-28.83,21.69-37.9c-4.84-11.21-10.09-22.17-18.5-31.26
			C539.93,316.34,522.03,355.5,504.13,394.67C504.13,394.66,504.13,394.66,504.13,394.67z"/>
		<path class="st9" d="M486.21,376.75c1.21,2.39,2.41,4.77,3.62,7.16c0,0,0,0,0,0c4.82,2.35,8.38,5.94,10.73,10.75c0,0,0,0,0,0
			c0,0,0,0,0,0c1.19,0,2.38,0,3.57,0c0,0,0,0,0,0c17.9-39.16,35.81-78.32,53.71-117.48c-3.99-9-7.44-18.3-14.34-25.67
			c-16.08,34.72-32.13,69.45-48.27,104.14C492,362.6,487.03,368.78,486.21,376.75z"/>
		<path class="st10" d="M289.09,803.15L289.09,803.15C289.09,803.15,289.09,803.15,289.09,803.15c1.16-4.67,2.32-9.34,3.47-14.01
			c-0.09-0.09-0.19-0.19-0.29-0.28c-23.13,3.04-45.25,10.49-69.56,9.61c-14.07-0.51-30.29,0.37-45.19,6.88
			c-12.71,5.55-27.79-2.41-41.71,1.41c-6.59,12.28,0.16,14.29,10.59,14.24c47.52-0.25,95.05-0.3,142.57-0.42
			c0.19-0.87,0.35-1.74,0.48-2.62C282.61,813.18,287.05,808.14,289.09,803.15z"/>
		<path class="st8" d="M314.18,706.46c0-0.02,0.01-0.03,0.01-0.05c0,0-0.05,0-0.05,0c0.01-9.04,3.85-16.99,7.2-25.07
			c-0.01-1.2-0.02-2.4-0.03-3.6c0,0,0,0,0,0c-27.58,10.49-57.09,5.61-85.38,10.62c-10.69,1.89-21.68,6.09-32.53,0.16
			c-7.35,10.03-13.72,20.61-18.3,32.22c43.01-4.77,86.03-9.55,129.04-14.32C314.16,706.42,314.17,706.44,314.18,706.46z"/>
		<path class="st11" d="M468.29,358.82C468.29,358.82,468.29,358.82,468.29,358.82c1.21,2.39,2.41,4.78,3.62,7.17
			c4.76,3.59,9.53,7.18,14.29,10.77c0.82-7.97,5.79-14.16,9.02-21.1c16.13-34.69,32.19-69.42,48.27-104.14
			c-3.36-9.12-8.17-17.4-14.4-24.86C508.56,270.59,493.17,316.88,468.29,358.82C468.29,358.82,468.29,358.82,468.29,358.82z"/>
		<path class="st9" d="M219.7,738.86c29.04-2.99,58.18-4.97,87.28-7.37c0.01,0.02,0.02,0.03,0.04,0.05c0-0.02,0.01-0.04,0.01-0.05
			c0,0-0.05,0.01-0.05,0.01c2.4-8.34,4.8-16.69,7.2-25.03c-0.01-0.02-0.02-0.03-0.04-0.05c-43.01,4.77-86.03,9.55-129.04,14.32
			c-4.86,5.19-8.26,11.22-10.37,17.99C189.72,746.09,204.62,740.41,219.7,738.86z"/>
		<path class="st11" d="M210.34,759.42c18.44,0.09,35.52-8.84,54.95-4.65c10.54,2.28,25.52-1.84,38.09-5.39c0,0,0,0,0,0c0,0,0,0,0,0
			c0.02-1.18,0.05-2.37,0.07-3.55c1.19-4.77,2.38-9.53,3.56-14.3c-0.01-0.02-0.02-0.03-0.04-0.05c-29.1,2.4-58.24,4.38-87.28,7.37
			c-15.08,1.55-29.97,7.23-44.96-0.14c-4.03,7.03-8.06,14.06-12.08,21.08C178.7,761.54,195.06,759.35,210.34,759.42z"/>
		<path class="st12" d="M296.28,767.33C296.28,767.33,296.28,767.33,296.28,767.33c1.19-1.2,2.37-2.4,3.56-3.6
			c1.18-4.78,2.37-9.57,3.55-14.35c0,0,0,0,0,0c-12.57,3.54-27.55,7.66-38.09,5.39c-19.43-4.2-36.51,4.73-54.95,4.65
			c-15.28-0.07-31.64,2.12-47.69,0.38c-5.93,7.73-10.69,16.1-14.07,25.25c22.79-3.47,45.47-8.34,68.4-10.05
			C243.49,773.04,270.18,773.47,296.28,767.33z"/>
		<path class="st13" d="M865.42,809.17c-22.28-40.9-44.58-81.78-69.62-121.09c-8.71,2.06-17.25,5.24-26.46,4.03c0,0,0,0,0,0
			c0,1.18-0.01,2.36-0.03,3.54c17.56,12.1,24.89,32.43,38.25,48.03c17.64,20.59,32.46,43.61,48.32,65.72
			c1.63,2.27,2.05,5.42,3.04,8.16c0,0,0,0,0,0c0,0,0,0,0,0c2.23-0.06,4.46-0.13,6.69-0.19
			C867.39,814.58,867.03,812.11,865.42,809.17z"/>
		<path class="st12" d="M508.8,239.69c-12.01,23.04-23.83,45.62-32.37,70.54c-4.66,13.6-18.26,24.36-15.3,41.44l0,0h0
			c1.37,3.41,3.74,5.81,7.17,7.15c0,0,0,0,0,0c24.87-41.94,40.27-88.24,60.81-132.17c-2.29-6.87-5.53-13.18-10.59-18.46v0l0,0
			C520.44,220.22,513.61,230.46,508.8,239.69z"/>
		<path class="st14" d="M169.74,796.62c40.89-4.46,81.64-10.98,122.91-11.39c0,0,0,0,0,0c0,0,0,0,0,0c1.2-2.39,2.4-4.77,3.6-7.16
			c0.01-3.58,0.01-7.16,0.02-10.73c-26.1,6.13-52.78,5.71-79.3,7.67c-22.92,1.7-45.61,6.57-68.4,10.05
			c-3.49,2.86-5.53,6.55-6.33,10.96C151.39,799.13,160.2,797.67,169.74,796.62z"/>
		<path class="st14" d="M494.62,230.51c-13.27,34.3-31.25,66.46-43.99,100.92c-0.8,2.15-2.55,3.96-3.86,5.92
			c0,1.19,0.02,2.37,0.05,3.55c4.82,2.35,8.37,5.96,10.72,10.76c1.19,0,2.38,0,3.57,0.01l0,0c-2.96-17.09,10.64-27.84,15.3-41.44
			c8.55-24.92,20.37-47.5,32.37-70.54c4.81-9.23,11.65-19.47,9.72-31.49l0,0c-0.74-1.3-1.49-2.6-2.23-3.9c0,0,0,0,0,0c0,0,0,0,0,0
			C499.07,204.52,498.31,220.96,494.62,230.51z"/>
		<path class="st15" d="M388.99,419.97C388.99,419.97,388.99,419.97,388.99,419.97c0,0,0.93-0.16,0.95-0.16c0,0,0,0,0,0c0,0,0,0,0,0
			c0,0,0,0,0,0c0,0,0,0,0,0c2.23,1.16,4.45,2.32,6.68,3.48c7.61-27.34,23.72-51.15,32.46-78.01c1.77-5.45,5.6-9,10.56-11.53
			c0,0,0,0,0,0c0,0,0,0,0,0c-0.01-1.19-0.02-2.37-0.04-3.56c0,0,0,0,0,0c-7.3-6.03-14.59-12.07-21.89-18.1
			c-1.25,2.18-2.5,4.37-3.76,6.55v0C405.63,352.41,397.31,386.19,388.99,419.97C388.99,419.97,388.99,419.97,388.99,419.97z"/>
		<path class="st16" d="M465.22,272.97c-10.54,18.42-13.71,39.71-25.62,57.22c0,0,0,0,0,0c0.02,1.19,0.03,2.37,0.04,3.56
			c0,0,0,0,0,0c2.38,1.2,4.75,2.4,7.13,3.6v0c1.31-1.97,3.06-3.77,3.86-5.92c12.73-34.46,30.72-66.62,43.99-100.92
			c3.7-9.55,4.46-25.99,21.67-26.21c0,0,0,0,0,0c-3.03-7.56-6.52-14.85-12.23-20.83c-0.58,3.48-0.23,7.48-1.88,10.34
			C487.57,219.18,479.65,247.76,465.22,272.97z"/>
		<path class="st15" d="M726.7,620.11C726.7,620.11,726.7,620.11,726.7,620.11C726.7,620.11,726.7,620.11,726.7,620.11
			c-7.06,5.68-2.15,9.88,1.43,14.77c13.89,18.97,27.5,38.14,41.22,57.23c0,0,0,0,0,0c0,0,0,0,0,0c9.21,1.21,17.75-1.96,26.46-4.03
			c-1.43-2.37-2.86-4.74-4.29-7.1C767.44,663.31,749.98,638.62,726.7,620.11z"/>
		<path class="st17" d="M177.53,805.35c14.9-6.51,31.12-7.39,45.19-6.88c24.31,0.88,46.42-6.56,69.56-9.61
			c0.13-0.02,0.25-0.04,0.37-0.05c0.02-0.03,0.03-0.06,0.05-0.1c-0.02-1.16-0.03-2.32-0.05-3.48c0,0,0,0,0,0
			c-41.27,0.41-82.02,6.93-122.91,11.39c-9.54,1.04-18.35,2.51-27.48-0.61c-2.15,3.58-4.29,7.16-6.44,10.74
			C149.73,802.93,164.81,810.9,177.53,805.35z"/>
		<path class="st3" d="M579.39,745.82c-19.67,2.56-38.65,7.86-57.34,14.33c3.09,2.7,6.45,5.16,9.22,8.15
			c13.82,14.94,18.06,40.72,36.52,47.45c18.37,6.7,41.04,1.61,61.83,1.69c1.19,0,2.38-0.02,3.56-0.03
			C620.57,789.56,597.42,769.61,579.39,745.82z"/>
		<path class="st8" d="M579.39,745.82c0.01-1.19,0.01-2.38,0.01-3.57l0,0c0,0,0,0,0,0c-9.98-3.54-19.45-6.49-18.82-20.87
			c0.3-6.75-7.33-11.35-13.46-14.98c-18.01,9.6-35.96,19.32-54.07,28.73c-5.65,2.94-10.99,6.98-17.85,6.93c0,0,0,0,0,0
			c-6.35,3.01-9.58,10.83-17.54,11.35c-4.21,6.5-10.75,9.03-17.91,10.51c0,0,0,0,0,0c-13.13,8.33-26.26,16.66-39.38,24.98
			c0,0,0,0,0,0c5.2-0.81,10.5-1.23,15.59-2.48c35.39-8.66,70.73-17.49,106.09-26.27C540.74,753.68,559.72,748.38,579.39,745.82z"/>
		<path class="st18" d="M665.25,786.25c-14.69-17.66-23.07-41.39-46.44-51.18c-13.5,0.4-25.68,8.05-39.42,7.17l0,0
			c0,1.19-0.01,2.38-0.01,3.57c18.03,23.79,41.18,43.74,53.79,71.61c0,0,0,0,0,0c16.73,0,33.45-0.01,50.18-0.01
			C683.65,803.45,672.67,795.18,665.25,786.25z"/>
		<path class="st6" d="M660.48,732.12c-3.46-4-8.16-4.36-13-4.21c-8.36,1.19-16.72,2.39-25.08,3.58c-1.2,1.2-2.39,2.39-3.59,3.59
			c23.37,9.79,31.75,33.52,46.44,51.18c7.42,8.93,18.4,17.2,18.11,31.17c11.94,0,23.89,0,35.83-0.01
			C703.88,786.05,683.22,758.36,660.48,732.12z"/>
		<path class="st11" d="M792.95,794.26c-24.08-22.07-34.43-54.01-57.01-76.99c-2.8-2.85-4.06-7.2-6.04-10.85c0,0,0,0,0,0
			c-8.36,1.19-16.72,2.38-25.07,3.57c0,1.19-0.01,2.38,0,3.57c13.68,17.65,27.79,34.98,40.91,53.04
			c12.01,16.54,22.95,33.85,34.37,50.83c0,0,0,0,0,0c8.36,0.01,16.72,0.02,25.08,0.03C804.64,807.87,799.02,799.82,792.95,794.26z"
			/>
		<path class="st8" d="M683.32,717.17C683.32,717.17,683.32,717.17,683.32,717.17C683.32,717.17,683.32,717.17,683.32,717.17
			c-1.19-0.01-2.39-0.02-3.58-0.02c0,0,0,0,0,0c0,0,0,0,0,0c-9.16,3.97-18.79,6.06-28.66,7.17l0,0c-1.2,1.2-2.4,2.39-3.6,3.59
			c4.84-0.14,9.53,0.22,13,4.21c22.74,26.25,43.4,53.93,58.71,85.29c11.94,0.01,23.88,0.02,35.82,0.03
			C731.46,783.77,702.38,754.05,683.32,717.17z"/>
		<path class="st9" d="M745.74,766.6c-13.12-18.06-27.23-35.39-40.91-53.04c0,0,0,0,0,0c-7.58-1.23-14.34,2.38-21.51,3.61
			c0,0,0,0,0,0c19.06,36.88,48.14,66.6,71.69,100.27c8.37,0,16.73,0,25.1-0.01c0,0,0,0,0,0
			C768.69,800.45,757.75,783.14,745.74,766.6z"/>
		<path class="st19" d="M744.24,702.81c-3.58,0.01-7.15,0.01-10.73,0.02c-1.2,1.2-2.4,2.39-3.6,3.59h0c0,0,0,0,0,0
			c1.98,3.65,3.24,8,6.04,10.85c22.58,22.98,32.93,54.92,57.01,76.99c6.07,5.56,11.69,13.61,12.23,23.19
			c8.36,0.01,16.72,0.03,25.08,0.04C800.31,780.23,776.08,738.67,744.24,702.81z"/>
		<path class="st20" d="M843.94,810.53c-28-38.61-53.92-78.78-85.36-114.83c0,0,0,0,0,0c0,0,0,0,0,0c-1.19-0.03-2.38-0.03-3.57-0.03
			c-2.58,4.22-6.82,3.44-10.75,3.57c0,1.19-0.01,2.38-0.01,3.57c0,0,0,0,0,0c31.84,35.85,56.07,77.42,86.03,114.68
			c4.78,0,9.56,0,14.33,0C844.42,815.14,845.12,812.15,843.94,810.53z"/>
		<path class="st21" d="M758.57,695.69C758.57,695.69,758.57,695.69,758.57,695.69c31.44,36.06,57.36,76.22,85.36,114.84
			c1.18,1.63,0.49,4.61,0.66,6.97c4.78,0.02,9.55,0.04,14.33,0.06c0,0,0,0,0,0c-0.98-2.74-1.41-5.88-3.04-8.16
			c-15.86-22.1-30.67-45.12-48.32-65.72c-13.36-15.6-20.69-35.92-38.25-48.03C765.74,695.66,762.16,695.68,758.57,695.69z"/>
		<path class="st22" d="M289.09,803.15L289.09,803.15c-2.05,4.99-6.48,10.03,0.36,14.8c29.13-5.07,57.74-12.18,85.67-21.93
			C345.54,787.48,317.38,796.1,289.09,803.15z"/>
		<path class="st23" d="M389.42,778.19c-0.03-0.03-0.06-0.06-0.09-0.1c-14.71,4.79-30.01,6.35-45.27,6.96
			c-17.18,0.69-34.47-0.68-51.36,3.78c0,0,0,0,0,0c0,0-0.05-0.03-0.05-0.03c-0.03,0.11-0.06,0.22-0.08,0.33
			c-1.16,4.67-2.32,9.34-3.47,14.01c0,0,0,0,0,0c28.29-7.05,56.45-15.67,86.03-7.13c4.98-0.36,10.46,1.27,14.32-3.59
			C389.44,787.68,389.43,782.93,389.42,778.19z"/>
		<path class="st24" d="M439.75,763.91C439.75,763.91,439.75,763.91,439.75,763.91C439.75,763.91,439.75,763.91,439.75,763.91
			c-18.95-3.05-34.97,4.34-50.29,14.16c0,0-0.04-0.01-0.04-0.01c0,0,0,0,0,0c0,0.04,0,0.08,0,0.12c0.01,4.75,0.02,9.5,0.02,14.25
			c3.64-1.18,7.28-2.36,10.92-3.53c0,0,0,0,0,0C413.49,780.57,426.62,772.24,439.75,763.91z"/>
		<path class="st8" d="M572.21,523.68C572.21,523.68,572.21,523.68,572.21,523.68c18.77,15.52,42.91,22.73,60.94,39.39l0,0h0
			c4.81,2.34,9.63,4.68,14.44,7.02c7.29,1.41,13.8,4.14,18.15,10.59c0,0,0,0,0.01,0c14.38,3.24,24.22,15.99,38.93,18.53
			c-4.61-5.36-8.98-10.97-13.89-16.05c-22.71-23.5-45.58-46.85-68.39-70.25c0,0,0,0,0,0c-13.13-11.95-26.27-23.9-39.4-35.85
			C571.71,490.82,568.32,506.41,572.21,523.68z"/>
		<path class="st25" d="M728.13,634.88c-3.58-4.89-8.49-9.1-1.43-14.77c0,0,0,0,0,0c-3.6-3.6-7.2-7.2-10.8-10.8
			c-3.66,4.88-8.8,6.88-14.64,7.53c0,0,0,0,0,0c-0.01,1.19-0.02,2.37-0.03,3.56c9.43,7.06,16.66,15.55,23.28,25.67
			c7.06,10.8,11.82,23.72,23.76,31.68c4.5,3,11.39,9.42,6.74,17.92c0,0,0,0,0,0c1.19-0.01,2.38,0,3.57,0.03c0,0,0,0,0,0
			c3.58-0.01,7.17-0.03,10.75-0.04c0.02-1.18,0.02-2.36,0.03-3.54c0,0,0,0,0,0C755.64,673.01,742.02,653.84,728.13,634.88z"/>
		<path class="st26" d="M665.75,580.68C665.75,580.68,665.74,580.68,665.75,580.68C665.74,580.68,665.74,580.68,665.75,580.68
			c-4.45,6.01,0.43,10.27,3.88,13.06c10.14,8.19,18.55,18.91,31.63,23.1c0,0,0,0,0,0c0,0,0,0,0,0c5.83-0.66,10.98-2.65,14.64-7.53
			c-3.74-3.36-7.48-6.73-11.21-10.1c0,0,0,0,0,0C689.97,596.67,680.12,583.91,665.75,580.68z"/>
		<path class="st8" d="M389.66,473.55c0.31,0.45,0.62,0.9,0.94,1.36C390.38,474.4,390.09,473.93,389.66,473.55z"/>
		<path class="st8" d="M389.42,595.32C389.42,595.32,389.42,595.32,389.42,595.32C389.42,595.32,389.42,595.32,389.42,595.32
			c0.06-29.92,0.11-59.84,0.17-89.77c0,0,0,0,0,0c0.06-2.3,0.12-4.59,0.18-6.88c-0.04-8.38-0.07-16.75-0.11-25.13
			c0.09-17.91,0.19-35.83,0.28-53.74c-0.02,0-0.95,0.16-0.95,0.16c0,0,0,0,0,0c-1.05,2.64-2.48,5.2-3.09,7.95
			c-9.02,40.75-18.95,81.25-32.3,120.83v0c-3.59,15.53-7.18,31.05-10.78,46.58l0.05,0.01C358.39,602.82,373.9,591.47,389.42,595.32z
			"/>
		<polygon class="st8" points="389.95,419.81 389.94,419.81 389.95,419.81 		"/>
		<path class="st27" d="M522.04,495c16.87,9.3,31.37,22.75,50.17,28.68c-3.9-17.27-0.5-32.86,10.78-46.63
			c-1.2-2.38-2.4-4.76-3.6-7.14c0,0,0,0,0,0c-10.74-9.56-21.49-19.11-32.24-28.67C538.68,459.11,527.5,475.72,522.04,495z"/>
		<path class="st27" d="M389.42,645.48C389.42,645.48,389.42,645.48,389.42,645.48C389.42,645.48,389.42,645.48,389.42,645.48
			c0-16.72,0-33.44,0.01-50.16c0,0,0,0,0,0c-15.52-3.85-31.03,7.49-46.54,0.01c-1.66,17.61-10.99,33.03-14.39,50.14v0
			c0.01,1.2,0.02,2.4,0.04,3.6C348.89,649,368.91,643.21,389.42,645.48z"/>
		<path class="st28" d="M496.96,480.67c7.17,4.78,14.33,9.56,21.5,14.34c1.19,0,2.39,0,3.58,0l0,0
			c5.46-19.28,16.64-35.89,25.11-53.76c-0.02-1.19-0.03-2.38-0.03-3.57l0,0c-8.57-5.76-15.75-12.93-21.49-21.52c0,0,0,0,0,0
			c-1.19,0-2.38,0-3.58,0C511.47,436.8,495.43,455.32,496.96,480.67z"/>
		<path class="st28" d="M376.36,677.54c5.09-1.53,8.7-2.08,13.06,0.19c0,0,0,0,0,0v0c0.01-7.16,0.02-14.32,0.03-21.48
			c-0.01-3.59-0.02-7.18-0.04-10.76c0,0,0,0,0,0c-20.5-2.27-40.53,3.52-60.89,3.61c-2.4,9.55-4.8,19.09-7.21,28.64c0,0,0,0,0,0
			c0.01,1.2,0.02,2.4,0.03,3.6C339.78,680.98,358.51,682.9,376.36,677.54z"/>
		<path class="st29" d="M471.88,466.33C471.88,466.33,471.88,466.33,471.88,466.33c5.97,3.59,11.93,7.19,17.9,10.78
			c2.4,1.19,4.79,2.37,7.19,3.56c-1.53-25.35,14.51-43.87,25.1-64.51c-5.98-7.16-11.95-14.33-17.93-21.49h0c-1.19,0-2.38,0-3.57,0
			c0,0,0,0,0,0C489.81,418.08,475.57,440.09,471.88,466.33z"/>
		<path class="st30" d="M436.01,444.85L436.01,444.85c0.02,1.18,0.03,2.36,0.04,3.54c0,0,0,0,0,0c6.21-0.47,9.36,5.16,14.31,7.2
			c1.2,0,2.39-0.01,3.59-0.01l0,0c0,0,0,0,0,0c8.23-25.76,17.45-51.01,35.87-71.67c0,0,0,0,0,0c0,0,0,0,0,0
			c-1.21-2.39-2.41-4.77-3.62-7.16c-4.76-3.59-9.53-7.18-14.29-10.77C456.59,390.75,448.89,418.98,436.01,444.85z"/>
		<path class="st31" d="M453.95,455.58C453.95,455.58,453.95,455.58,453.95,455.58c3.58,2.39,7.16,4.79,10.74,7.18
			c2.39,1.19,4.79,2.38,7.18,3.56l0,0c0,0,0,0,0,0c3.69-26.23,17.93-48.25,28.68-71.66c0,0,0,0,0,0c-2.35-4.81-5.91-8.4-10.73-10.75
			c0,0,0,0,0,0C471.41,404.57,462.18,429.82,453.95,455.58z"/>
		<path class="st29" d="M389.42,702.81C389.42,702.81,389.42,702.81,389.42,702.81L389.42,702.81c0.01-4.77,0.02-9.54,0.03-14.31
			c-0.01-3.59-0.02-7.18-0.04-10.77c0,0,0,0,0,0c-4.35-2.27-7.97-1.72-13.06-0.19c-17.85,5.36-36.58,3.44-55.01,3.8
			c-3.35,8.09-7.19,16.03-7.2,25.07c0,0,0.05,0,0.05,0C339.49,709.84,364.47,706.48,389.42,702.81z"/>
		<path class="st32" d="M421.68,437.68C421.68,437.68,421.68,437.68,421.68,437.68c1.54,2.88,4.22,3.5,7.15,3.62
			c2.39,1.18,4.79,2.37,7.18,3.55c12.87-25.87,20.57-54.1,35.9-78.86c-1.21-2.39-2.41-4.78-3.62-7.16c0,0,0,0,0,0
			c-3.43-1.34-5.8-3.75-7.17-7.15h0c-1.19,0-2.38,0-3.57-0.01C443.65,379.53,424.24,405.09,421.68,437.68z"/>
		<path class="st31" d="M389.42,724.31C389.42,724.31,389.42,724.31,389.42,724.31C389.42,724.31,389.42,724.31,389.42,724.31
			c0.01-2.38,0.02-4.77,0.04-7.15c-0.01-4.78-0.02-9.57-0.03-14.35c0,0,0,0,0,0c-24.96,3.66-49.93,7.02-75.23,3.59
			c0,0.02-0.01,0.03-0.01,0.05c-2.4,8.34-4.8,16.69-7.2,25.03c0,0,0.05-0.01,0.05-0.01C334.28,726.6,361.78,724.71,389.42,724.31z"
			/>
		<path class="st30" d="M374.03,739.32c5.7-0.62,10.45,0.43,15.24,2.85c0.04-0.01,0.09-0.03,0.13-0.04c0-5.94,0.01-11.88,0.02-17.82
			c0,0,0,0,0,0c-27.64,0.4-55.14,2.29-82.39,7.17c0,0.02-0.01,0.04-0.01,0.05c-1.19,4.77-2.38,9.53-3.56,14.3
			C326.99,743.72,350.55,741.88,374.03,739.32z"/>
		<path class="st33" d="M353.75,758.57c12.56,1.44,22.84-9.91,35.67-5.59c0,0,0,0,0,0c0,0,0,0,0,0c0.01-3.56,0.03-7.12,0.04-10.68
			c-0.02-0.02-0.03-0.04-0.05-0.06c-0.04-0.02-0.08-0.04-0.13-0.06c-4.8-2.42-9.55-3.47-15.24-2.85
			c-23.49,2.55-47.05,4.4-70.58,6.51c-0.02,1.18-0.04,2.37-0.07,3.55c0,0,0,0,0,0c-1.18,4.78-2.36,9.57-3.55,14.35
			C317.55,759.34,335.5,756.48,353.75,758.57z"/>
		<path class="st34" d="M354.22,771.25c11.29-2.99,23.44-2.74,35.2-3.94c0,0,0,0,0,0v0c0,0,0.03,0.02,0.04,0.02
			c0-3.58,0-7.16,0.01-10.74c-0.01-1.2-0.03-2.4-0.04-3.61c0,0,0,0,0,0c-12.83-4.32-23.11,7.03-35.67,5.59
			c-18.25-2.09-36.2,0.78-53.91,5.17c-1.19,1.2-2.37,2.4-3.56,3.6c0,0,0,0,0,0c-0.01,3.58-0.02,7.16-0.02,10.73
			C314.94,770.77,335.09,776.31,354.22,771.25z"/>
		<polygon class="st34" points="389.45,767.32 389.45,767.32 389.45,767.32 		"/>
		<path class="st35" d="M292.7,788.84c16.89-4.46,34.18-3.09,51.36-3.78c15.27-0.62,30.56-2.18,45.27-6.96
			c0.03-0.01,0.06-0.02,0.09-0.03c0,0,0,0,0,0c0,0,0.04,0.01,0.04,0.01c-0.01-3.59-0.03-7.18-0.04-10.77c0,0,0,0,0,0
			c-11.76,1.21-23.91,0.95-35.2,3.94c-19.13,5.07-39.28-0.47-57.96,6.82c-1.2,2.39-2.4,4.77-3.6,7.16c0,0,0,0,0,0
			c0.02,1.16,0.03,2.32,0.05,3.48C292.7,788.75,292.7,788.8,292.7,788.84C292.7,788.84,292.7,788.84,292.7,788.84z"/>
		<path class="st36" d="M403.76,426.94c1.19,1.2,2.38,2.39,3.57,3.59c0,0,0,0,0,0c0,0,0,0,0,0c2.4,1.19,4.79,2.38,7.19,3.57
			c0,0,0,0,0,0c0,0,0,0,0,0c2.39,1.2,4.77,2.39,7.16,3.59c2.56-32.59,21.97-58.15,35.86-86.02c-2.36-4.8-5.91-8.41-10.72-10.76
			C429.78,368.24,418.89,398.65,403.76,426.94z"/>
		<path class="st25" d="M403.76,426.94L403.76,426.94c15.13-28.29,26.01-58.7,43.06-86.03c-0.03-1.18-0.04-2.37-0.05-3.55v0
			c-2.38-1.2-4.75-2.4-7.13-3.6c0,0,0,0,0,0c-4.96,2.53-8.79,6.07-10.56,11.53c-8.74,26.87-24.85,50.67-32.46,78.01
			C399,424.51,401.38,425.72,403.76,426.94z"/>
		<path class="st37" d="M389.66,473.55c0.43,0.39,0.72,0.85,0.94,1.36c1.3,1.9,2.69,3.91,4.5,6.54
			c4.18-17.39,8.21-34.16,12.24-50.92c0,0,0,0,0,0c-1.19-1.2-2.38-2.39-3.57-3.59l0,0c-2.38-1.22-4.76-2.43-7.14-3.65
			c-2.22-1.16-4.45-2.32-6.68-3.48c0,0,0,0,0,0c0,0,0,0,0,0c0,0,0,0,0,0C389.84,437.72,389.75,455.63,389.66,473.55z"/>
		<path class="st19" d="M586.55,684.89C586.55,684.89,586.55,684.89,586.55,684.89c3.59-3.57,7.18-7.14,10.78-10.72c0,0,0,0,0,0
			c0,0,0,0,0,0c-9.56-8.37-19.13-16.74-28.69-25.11l0,0c-19.71,16.07-35.97,36.11-57.52,50.06c0,0,0,0,0,0
			c-3.59,4.77-7.19,9.54-10.78,14.31c0,0,0,0,0,0c0,0,0,0,0,0c-8.37,9.54-16.75,19.08-25.12,28.62c6.86,0.04,12.2-4,17.85-6.93
			c18.11-9.41,36.06-19.13,54.07-28.73C559.56,697.94,571.4,688.38,586.55,684.89z"/>
		<path class="st38" d="M586.55,684.89C586.55,684.89,586.55,684.89,586.55,684.89C586.55,684.89,586.55,684.89,586.55,684.89
			c-15.15,3.49-26.99,13.04-39.43,21.5c6.13,3.63,13.76,8.23,13.46,14.98c-0.63,14.38,8.83,17.33,18.82,20.87c0,0,0,0,0,0
			c13.73,0.87,25.91-6.78,39.42-7.17c1.2-1.2,2.39-2.39,3.59-3.59C613.75,713.41,603.42,696.63,586.55,684.89z"/>
		<path class="st39" d="M478.77,718.08c5.21-1.2,11.97-4.99,14.6-11.67h0c-2.38-5.97-4.77-11.95-7.15-17.92c0,0,0,0,0,0c0,0,0,0,0,0
			c-1.19,0-2.39-0.01-3.58-0.01c-0.16,6.81-5.74,8.74-10.5,10.5c-17.45,6.47-26.06,17.01-18.21,36.07c0,0,0,0,0,0c0,0,0,0,0,0
			c-5.67,11.66-15.7,15.99-27.91,18.13c-12.97,2.27-26.04,5.16-36.56,14.14c0,0,0,0,0,0l0,0l0,0v0c0,0-0.04-0.02-0.04-0.02v0
			c0.01,3.59,0.03,7.18,0.04,10.77c15.33-9.82,31.34-17.22,50.29-14.17c0,0,0,0,0,0c7.16-1.48,13.7-4.01,17.91-10.51
			C455.1,735.93,458.53,722.72,478.77,718.08z"/>
		<path class="st40" d="M500.32,713.44C500.32,713.44,500.32,713.44,500.32,713.44c-2.32-2.34-4.64-4.69-6.96-7.03l0,0h0
			c-2.63,6.67-9.39,10.47-14.6,11.67c-20.23,4.65-23.67,17.85-21.11,35.33c7.96-0.51,11.19-8.34,17.54-11.35c0,0,0,0,0,0
			C483.58,732.52,491.95,722.98,500.32,713.44z"/>
		<path class="st28" d="M651.65,722.71c-16.46-15.77-14.19-47.21-43.59-52.14c-3.58,1.2-7.16,2.4-10.74,3.6c0,0,0,0,0,0
			c-3.59,3.57-7.18,7.14-10.78,10.72c0,0,0,0,0,0c16.88,11.74,27.2,28.52,35.86,46.59c8.36-1.19,16.72-2.39,25.08-3.58
			c1.2-1.2,2.4-2.39,3.6-3.59C651.28,723.76,651.81,722.87,651.65,722.71z"/>
		<path class="st41" d="M717.87,693.76c-11.33-17.89-23.61-35.16-35.24-52.86c-2.55-3.88-5.56-5.95-10.05-6.15
			c-1.19,0.01-2.38,0.01-3.57,0.02c0,0,0,0,0,0c-3.59,2.38-7.17,4.77-10.76,7.15l0,0c0,1.19-0.01,2.38,0,3.57
			c14.06,22.56,29.25,44.32,46.6,64.51c8.36-1.19,16.72-2.38,25.07-3.57h0c1.2-1.2,2.4-2.39,3.6-3.59
			C726.08,703.59,721.83,700.01,717.87,693.76z"/>
		<path class="st19" d="M658.24,645.49C658.24,645.49,658.24,645.49,658.24,645.49c-8.19,1.54-15.52,4.8-21.52,10.75h0
			c14.18,20.42,31.66,38.51,43.02,60.91c0,0,0,0,0,0c1.19,0,2.39,0.01,3.58,0.02c0,0,0,0,0,0c7.17-1.22,13.93-4.84,21.51-3.61
			c0,0,0,0,0,0c0-1.19,0-2.38,0-3.57C687.49,689.8,672.3,668.05,658.24,645.49z"/>
		<path class="st29" d="M636.72,656.23c-2.38,0.01-4.77,0.01-7.15,0.02c0,0,0,0,0,0c-3.86,9.74-16.64,6.1-21.51,14.32
			c29.4,4.93,27.12,36.37,43.59,52.14c0.17,0.16-0.36,1.05-0.57,1.6l0,0c9.87-1.11,19.5-3.2,28.66-7.17c0,0,0,0,0,0
			C668.38,694.74,650.9,676.65,636.72,656.23z"/>
		<path class="st42" d="M686.91,627.58c-4.78,2.39-9.56,4.78-14.33,7.17c4.49,0.2,7.5,2.27,10.05,6.15
			c11.63,17.7,23.92,34.97,35.24,52.86c3.96,6.26,8.22,9.84,15.64,9.08c3.58-0.01,7.15-0.01,10.73-0.02c0,0,0,0,0,0
			c0.01-1.19,0.01-2.38,0.01-3.57C729.71,671.7,713.03,645.86,686.91,627.58z"/>
		<path class="st43" d="M686.92,624.02L686.92,624.02c0,1.19-0.01,2.37-0.01,3.56c26.12,18.29,42.8,44.12,57.34,71.66
			c3.94-0.14,8.17,0.65,10.75-3.57c0,0,0,0,0,0c4.64-8.5-2.25-14.92-6.74-17.92c-11.93-7.97-16.69-20.88-23.76-31.68
			c-6.61-10.12-13.85-18.61-23.28-25.67v0C696.45,621.6,691.68,622.81,686.92,624.02z"/>
		<path class="st12" d="M518.47,534.39C518.47,534.39,518.47,534.39,518.47,534.39C518.47,534.39,518.47,534.39,518.47,534.39
			c20.34,5.85,41.3,9.63,60.91,17.96c0,0,0,0,0,0c4.94,0.63,10.5-1.38,14.45,3.43c0,0,0,0,0,0c4.94,0.51,10.49-1.3,14.28,3.68
			c0,0,0,0,0,0c7.78,5.12,16.57,3.27,25.04,3.62l0,0c-18.03-16.66-42.17-23.88-60.94-39.39c0,0,0,0,0,0
			c-18.8-5.93-33.3-19.38-50.17-28.68l0,0c-1.19,0-2.39,0-3.58,0C523.88,508.13,510.84,521.27,518.47,534.39z"/>
		<path class="st44" d="M669.63,593.74c-3.45-2.79-8.33-7.05-3.89-13.06c0,0,0,0,0,0c-4.35-6.45-10.86-9.18-18.15-10.59
			c-2.03,4.78-5.6,7.29-10.84,7.36c0,0,0,0,0,0c-1.2,2.38-2.41,4.75-3.61,7.13c14.6,3.57,20.55,18.21,32.4,25.33
			c7.32,4.39,11.76,13.15,21.37,14.11c0,0,0,0,0,0l0,0c4.77-1.21,9.54-2.42,14.31-3.62v0c0.01-1.19,0.02-2.37,0.03-3.56c0,0,0,0,0,0
			C688.18,612.65,679.77,601.93,669.63,593.74z"/>
		<path class="st45" d="M608.11,559.45C608.11,559.45,608.11,559.45,608.11,559.45C608.11,559.45,608.11,559.45,608.11,559.45
			c6.45,10.92,16.69,15.83,28.65,17.99c0,0,0,0,0,0c0,0,0,0,0,0c5.24-0.06,8.81-2.58,10.84-7.36c-4.81-2.34-9.63-4.68-14.44-7.02h0
			C624.68,562.73,615.89,564.58,608.11,559.45z"/>
		<path class="st12" d="M422.09,638.63c1.03,0.01,2.12-4.87,3.19-7.47c-3.11-21.85-13.49-42.08-14.37-64.43c0,0,0,0,0,0c0,0,0,0,0,0
			c-1.25-3.53-2.5-7.06-3.75-10.59c-4.82-6.45-6.69-13.84-6.94-21.74c0,0,0,0,0,0h0c-3.54-9.61-7.08-19.23-10.62-28.84
			c-0.06,29.92-0.11,59.84-0.17,89.77c0,0,0,0,0,0c0,16.72,0,33.44-0.01,50.16c0,0,0,0,0,0c0.01,3.59,0.02,7.18,0.04,10.76
			C399.9,649.68,407.79,638.45,422.09,638.63z"/>
		<path class="st39" d="M403.77,502.18C403.77,502.18,403.77,502.18,403.77,502.18C403.77,502.18,403.77,502.18,403.77,502.18
			c-0.66-9.64,1.2-18.31,6.72-26.74c8.37-12.76,2.42-27.55,4.03-41.34c0,0,0,0,0,0c-2.4-1.19-4.79-2.38-7.19-3.57c0,0,0,0,0,0
			c-4.03,16.76-8.06,33.53-12.24,50.92c-1.81-2.64-3.2-4.65-4.5-6.54c-0.31-0.46-0.63-0.91-0.94-1.36
			c0.04,8.38,0.07,16.75,0.11,25.13C394.43,499.84,399.1,501.01,403.77,502.18z"/>
		<path class="st46" d="M400.21,534.4L400.21,534.4c7.63-8.03,5.43-19.73,10.72-28.63c-2.94-0.1-5.62-0.7-7.16-3.59c0,0,0,0,0,0
			c-4.67-1.17-9.33-2.34-14-3.51c-0.06,2.29-0.12,4.59-0.18,6.88c0,0,0,0,0,0C393.13,515.17,396.67,524.79,400.21,534.4z"/>
		<path class="st47" d="M482.63,523.66C482.63,523.66,482.63,523.66,482.63,523.66L482.63,523.66c11.95,3.58,23.89,7.16,35.84,10.74
			c0,0,0,0,0,0c-7.63-13.13,5.41-26.26-0.01-39.39c-7.17-4.78-14.33-9.56-21.5-14.34c-2.4-1.19-4.79-2.37-7.19-3.56
			C488.51,492.8,481.68,507.63,482.63,523.66z"/>
		<path class="st14" d="M436.03,670.57c-2.07-8.24-4.7-16.39-3.59-25.08c-5.79-3.08-1.37-11.26-7.16-14.33
			c-1.06,2.61-2.16,7.49-3.19,7.47c-14.3-0.18-22.19,11.05-32.64,17.61c-0.01,7.16-0.02,14.32-0.03,21.48v0
			c0.01,3.59,0.02,7.18,0.04,10.77C403.53,678.77,421.64,679.49,436.03,670.57z"/>
		<path class="st17" d="M457.54,516.49C457.54,516.49,457.54,516.49,457.54,516.49L457.54,516.49c7.16,2.4,14.32,4.79,21.49,7.19
			c1.2-0.01,2.4-0.01,3.6-0.02c0,0,0,0,0,0c-0.95-16.03,5.88-30.86,7.14-46.55c-5.97-3.59-11.93-7.19-17.9-10.78l0,0
			c-2.39-1.19-4.79-2.38-7.18-3.56C470.56,481.77,458.12,498.34,457.54,516.49z"/>
		<path class="st32" d="M436.02,509.34L436.02,509.34c1.55,2.87,4.23,3.5,7.17,3.57c4.78,1.19,9.57,2.38,14.35,3.57c0,0,0,0,0,0
			c0.57-18.15,13.01-34.72,7.15-53.73c-3.58-2.39-7.16-4.79-10.74-7.18l0,0c-1.2,0-2.39,0.01-3.59,0.01l0,0
			C445.58,473.51,440.8,491.43,436.02,509.34z"/>
		<path class="st48" d="M414.54,505.73C414.54,505.73,414.54,505.73,414.54,505.73C414.54,505.73,414.54,505.73,414.54,505.73
			c0,0-0.02,0.02-0.02,0.02c0,0,0,0,0,0c0,0,0,0,0,0c4.78,1.2,9.55,2.4,14.33,3.6c0,0,0.01-0.04,0.01-0.04c0,0,0,0,0,0c0,0,0,0,0,0
			c-4.61-21.14,10.76-39.92,7.19-60.93c0,0,0,0,0,0c0,0,0,0,0,0c-0.01-1.18-0.02-2.36-0.04-3.53l0,0c-2.39-1.18-4.79-2.37-7.18-3.55
			C424.36,462.85,414.19,483.12,414.54,505.73z"/>
		<path class="st49" d="M428.86,509.32C428.86,509.32,428.86,509.32,428.86,509.32c2.39,0.01,4.77,0.02,7.16,0.03
			c4.78-17.92,9.56-35.84,14.34-53.76l0,0c-4.95-2.04-8.1-7.67-14.31-7.2c0,0,0,0,0,0C439.63,469.4,424.25,488.18,428.86,509.32z"/>
		<path class="st50" d="M443.21,699.24L443.21,699.24c-0.01-3.58-0.01-7.17-0.02-10.75c-6.82-4.2-0.36-13.71-7.17-17.92
			c-14.39,8.91-32.5,8.2-46.57,17.93c-0.01,4.77-0.02,9.54-0.03,14.31v0c0.01,4.78,0.02,9.57,0.03,14.35
			C404.76,703.35,424.37,702.45,443.21,699.24z"/>
		<path class="st51" d="M410.49,475.44c-5.53,8.43-7.38,17.1-6.72,26.74c0,0,0,0,0,0c1.54,2.89,4.22,3.49,7.16,3.59
			c1.2-0.01,2.4-0.02,3.61-0.03c0,0,0,0,0,0c-0.35-22.61,9.83-42.89,14.3-64.43c-2.93-0.12-5.62-0.74-7.15-3.62c0,0,0,0,0,0
			c-2.39-1.2-4.77-2.39-7.16-3.59c0,0,0,0,0,0C412.91,447.88,418.86,462.68,410.49,475.44z"/>
		<path class="st34" d="M389.46,742.24c7.72-9.34,17.84-13.17,29.74-14.5c23-2.58,30.12-11.48,24.02-28.49
			c-18.84,3.21-38.46,4.1-53.76,17.92c-0.01,2.38-0.02,4.77-0.04,7.15c0,0,0,0,0,0c-0.01,5.94-0.01,11.88-0.02,17.82
			c0,0.03,0,0.07,0,0.1C389.4,742.23,389.46,742.24,389.46,742.24z"/>
		<path class="st52" d="M453.93,735.05C453.93,735.05,453.93,735.05,453.93,735.05c-7.85-19.06,0.76-29.6,18.21-36.07
			c4.76-1.76,10.34-3.7,10.5-10.5c0,0,0,0,0,0c-2.4-5.97-4.79-11.93-7.19-17.9c0,0,0,0,0,0c-2.39-2.39-4.77-4.78-7.16-7.17
			c-0.74,8.04-5.65,12.23-12.98,14.49c-5.51,1.7-11.53,3.12-12.11,10.59c0.01,3.58,0.01,7.17,0.02,10.75v0
			c6.1,17.01-1.02,25.92-24.02,28.49c-11.9,1.33-22.02,5.16-29.74,14.5c0,0.02,0,0.04,0,0.06c-0.01,3.56-0.03,7.12-0.04,10.68
			c0,0,0,0,0,0c0.02,1.2,0.03,2.4,0.04,3.61C409.81,745.99,431.12,738.3,453.93,735.05z"/>
		<path class="st15" d="M389.45,767.32C389.45,767.32,389.45,767.32,389.45,767.32c10.52-8.99,23.59-11.87,36.56-14.14
			c12.21-2.14,22.25-6.47,27.91-18.13c0,0,0,0,0,0c-22.8,3.25-44.12,10.94-64.46,21.53C389.46,760.16,389.46,763.74,389.45,767.32
			L389.45,767.32L389.45,767.32z"/>
		<path class="st30" d="M590.12,627.56C590.12,627.56,590.12,627.56,590.12,627.56c-3.59,2.39-7.17,4.77-10.76,7.16c0,0,0,0,0,0
			c-3.58,4.78-7.16,9.57-10.74,14.35c9.56,8.37,19.13,16.74,28.69,25.11c0,0,0,0,0,0c3.58-1.2,7.16-2.4,10.74-3.6
			c4.87-8.22,17.64-4.58,21.51-14.32c0,0,0,0,0,0l0,0C618.55,643.76,609.95,627.95,590.12,627.56z"/>
		<path class="st32" d="M579.36,634.72c-7.76-8.34-17.87-10.4-28.64-10.71c0,0,0,0,0,0c0,0,0,0,0,0
			c-2.18,7.86-10.04,12.86-10.8,21.44c0,0,0,0,0,0c0,0,0,0,0,0c-3.65,5.97-6.58,12.58-11.21,17.66c-2.74,3.01,2.39-14.69,1.48-16.11
			c0.01-0.09-4.6,12.56-4.59,12.47c-0.21-0.16,4.19-13.04,3.94-13.17c-7.47,2.23-12.17,22.04-14.58,27.59
			c0.24,0.97,0.29,2.09,0.1,3.42c4.77,8.38-3.83,14.34-3.97,21.83c21.55-13.96,37.81-33.99,57.52-50.06l0,0
			C572.21,644.28,575.79,639.5,579.36,634.72z"/>
		<path class="st53" d="M515.07,677.3c0.19-1.33,0.14-2.46-0.1-3.42c-0.79-3.21-3.29-5.3-6.96-6.04c-0.01,0-0.42,0.69-0.43,0.7
			c0.13,0.64,0.23,1.3,0.3,1.99c-7.22,5.99-14.44,11.98-21.66,17.97c0,0,0,0,0,0c2.38,5.97,4.77,11.95,7.15,17.92l0,0
			c2.32,2.34,4.64,4.68,6.96,7.03c0,0,0,0,0,0c3.59-4.77,7.19-9.54,10.78-14.31c0,0,0,0,0,0
			C511.25,691.64,519.84,685.68,515.07,677.3z"/>
		<path class="st37" d="M507.88,670.52c-0.07-0.7,1.99-1.36,1.86-2c-2.03-10.36-13.44-13.5-21.5-17.82c0.26,0.66,0.5,1.32,0.74,2
			c-9.89,1.88-13.93,8.2-13.53,17.87c0,0,0,0,0,0c0,0,0,0,0,0c2.4,5.97,4.79,11.93,7.19,17.9c0,0,0,0,0,0
			c1.19,0.01,2.39,0.01,3.58,0.01c0,0,0,0,0,0C493.44,682.5,500.66,676.51,507.88,670.52z"/>
		<path class="st54" d="M629.61,584.63C629.6,584.63,629.6,584.63,629.61,584.63c-2.39,4.79-5.98,8.37-10.79,10.71
			c0,1.19,0,2.39,0,3.58l0,0h0c17.81,0.93,24.55,16.49,34.51,27.18c4.77,5.11,8.41,9.36,15.68,8.67c0,0,0,0,0,0c0,0,0,0,0,0
			c1.19-0.01,2.38-0.01,3.57-0.02c4.78-2.39,9.56-4.78,14.33-7.17c0-1.19,0.01-2.37,0.01-3.56c0,0,0,0,0,0
			c-9.61-0.96-14.05-9.72-21.37-14.11c-11.86-7.12-17.8-21.76-32.4-25.33v0C631.97,584.6,630.79,584.62,629.61,584.63z"/>
		<path class="st55" d="M653.33,626.1c-9.97-10.69-16.7-26.25-34.51-27.18h0c-4.78,3.58-9.56,7.16-14.34,10.75c0,1.19,0,2.39,0,3.58
			c14.38-0.96,19.98,11.43,27.85,19.43c7.64,7.75,14.98,12.51,25.91,9.25v0l0,0c3.59-2.38,7.17-4.77,10.76-7.15c0,0,0,0,0,0
			C661.73,635.45,658.09,631.21,653.33,626.1z"/>
		<path class="st56" d="M632.33,632.67c-7.88-7.99-13.47-20.39-27.85-19.43c-6.11,3.44-10.9,8.21-14.35,14.31
			c19.82,0.4,28.43,16.21,39.44,28.7l0,0c2.38-0.01,4.77-0.02,7.15-0.02h0c5.99-5.94,13.32-9.21,21.52-10.75c0,0,0,0,0,0
			c0-1.19,0-2.38,0-3.57v0C647.3,645.18,639.97,640.42,632.33,632.67z"/>
		<path class="st32" d="M521.45,552.5c8.55,0.11,17.76-3.14,25.67,3.06c-0.73,1.99-1.71,3.44-2.86,4.5
			c2.06,1.35,4.06,2.77,6.39,3.65c0.21-0.18,0.41-0.36,0.65-0.53c5-14.91,17.64-10.04,28.09-10.83
			c-19.61-8.33-40.57-12.11-60.91-17.96c0,0,0,0,0,0c-11.95-3.58-23.89-7.16-35.84-10.74l0,0c-1.2,0.01-2.4,0.01-3.6,0.02
			C489.16,552.33,489.17,552.07,521.45,552.5z"/>
		<path class="st57" d="M551.29,563.18c-0.24,0.17-0.45,0.35-0.65,0.53c-1.94,1.72-2.43,4.01-2.17,6.6
			c0.15,0.29,0.31,0.57,0.47,0.85c0.39-0.58,0.83-1.15,1.37-1.69c7.1,6.9,18.91,3.37,25.46,11.5c2.39-2.39,4.78-4.78,7.17-7.16
			c0,0,0,0,0,0c2.4-3.57,4.8-7.15,7.2-10.72c1.23-2.43,2.46-4.87,3.68-7.3c0,0,0,0,0,0c0,0,0,0,0,0c-3.95-4.81-9.51-2.79-14.45-3.43
			c0,0,0,0,0,0C568.93,553.14,556.29,548.27,551.29,563.18z"/>
		<path class="st26" d="M608.11,559.45C608.11,559.45,608.11,559.45,608.11,559.45c-3.79-4.98-9.34-3.16-14.28-3.68c0,0,0,0,0,0
			c-1.23,2.44-2.46,4.87-3.68,7.3c14.86,4.06,23.69,19.16,39.46,21.54c0,0,0,0,0,0c0,0,0,0,0,0c1.18-0.01,2.36-0.02,3.54-0.05v0
			c1.2-2.38,2.41-4.75,3.61-7.13c0,0,0,0,0,0C624.79,575.28,614.56,570.38,608.11,559.45z"/>
		<path class="st7" d="M450.41,634.74C450.41,634.74,450.41,634.74,450.41,634.74c-0.05-10.83-15.02-16.32-10.32-28.85
			c0.76,0.46,4.45-4.13,5.21-3.67c-0.1-0.91-0.09,3.57,0,2.6c-0.32-7.21-7.97-12.12-12.44-16.78c-0.98,0.17-1.98,0.28-3,0.32
			c-0.18,0.03-0.37,0.07-0.55,0.11c-0.07-0.02-0.12-0.06-0.19-0.08c-0.05,0-0.1,0.01-0.15,0.01c0.01-0.02,0.02-0.04,0.03-0.06
			c-9.99-3.85-10.83-15.43-18.08-21.59c0,0,0,0,0,0c0.88,22.35,11.26,42.58,14.37,64.43c5.79,3.08,1.37,11.26,7.16,14.33
			C440.79,645.86,443.77,637.23,450.41,634.74z"/>
		<path class="st26" d="M410.92,552.36C410.92,552.36,410.92,552.36,410.92,552.36C410.92,552.36,410.92,552.36,410.92,552.36
			c1.21-0.01,2.41-0.03,3.62-0.04c0,0,0,0,0,0c0,0,0,0,0,0c-0.01-15.52-0.01-31.04-0.02-46.56c0,0,0,0,0,0c0,0,0.02-0.02,0.02-0.02
			c0,0,0,0,0,0c-1.2,0.01-2.4,0.02-3.61,0.03c-5.28,8.9-3.08,20.61-10.72,28.63c0,0,0,0,0,0c0.25,7.91,2.12,15.3,6.94,21.74
			C408.41,554.88,409.67,553.62,410.92,552.36z"/>
		<path class="st58" d="M429.3,588.47c0.18-0.03,0.37-0.07,0.55-0.11c-0.25,0.01-0.49,0.02-0.74,0.02
			C429.18,588.41,429.23,588.44,429.3,588.47z"/>
		<path class="st58" d="M428.98,588.33c6.66-14.4-0.37-28.41-18.06-35.97c0,0,0,0,0,0c-1.26,1.26-2.51,2.53-3.77,3.79
			c1.25,3.53,2.5,7.06,3.75,10.59c0,0,0,0,0,0C418.16,572.9,419,584.48,428.98,588.33z"/>
		<path class="st55" d="M450.41,634.74c-6.64,2.49-9.61,11.12-17.97,10.75c-1.11,8.69,1.52,16.85,3.59,25.08
			c6.81,4.2,0.35,13.71,7.17,17.92c0.58-7.47,6.61-8.89,12.11-10.59c7.33-2.27,12.24-6.45,12.98-14.49
			C463.3,653.25,458.62,642.89,450.41,634.74z"/>
		<path class="st59" d="M446.79,552.32L446.79,552.32c1.19,0,2.38,0.01,3.58,0.01c9.52,1.55,19.86-3.55,28.68,3.57c0,0,0,0,0,0
			c2.39,0,4.77,0.01,7.16,0.01l0,0c0,0,0,0,0,0c15.46,1.96,31.53-4.16,46.57,3.48c-1.95,0.73-3.89,1.46-5.84,2.17
			c1.69,0.24,3.38,0.53,5.06,0.92c4.66,0.44,9.13,0.46,12.27-2.43c1.15-1.07,2.13-2.51,2.86-4.5c-7.91-6.2-17.12-2.94-25.67-3.06
			c-32.28-0.43-32.29-0.18-42.42-28.83c-7.16-2.4-14.32-4.79-21.49-7.19h0c-4.78-1.19-9.57-2.38-14.35-3.57
			C450.82,525.47,450.61,538.73,446.79,552.32z"/>
		<path class="st60" d="M428.84,552.35C428.84,552.35,428.84,552.35,428.84,552.35C428.84,552.35,428.85,552.35,428.84,552.35
			C428.85,552.35,428.85,552.35,428.84,552.35C428.85,552.35,428.85,552.35,428.84,552.35c5.99-0.01,11.97-0.02,17.94-0.03h0l0,0
			c3.83-13.59,4.03-26.86-3.59-39.41c-2.95-0.08-5.62-0.7-7.17-3.57h0c-2.39-0.01-4.77-0.02-7.16-0.03c0,0,0,0,0,0
			c0,0-0.01,0.04-0.01,0.04C428.85,523.69,428.85,538.02,428.84,552.35z"/>
		<path class="st39" d="M414.54,552.32C414.54,552.32,414.54,552.32,414.54,552.32c4.77,0.01,9.54,0.02,14.3,0.03
			c0-14.33,0.01-28.66,0.01-42.99c-4.78-1.2-9.55-2.4-14.33-3.6c0,0,0,0,0,0C414.53,521.27,414.53,536.79,414.54,552.32z"/>
		<path class="st61" d="M488.98,652.71c-0.24-0.68-0.48-1.35-0.74-2c-8.4-21.67-24.41-37.39-42.95-48.48
			c-0.76-0.46-4.45,4.13-5.21,3.67c-4.7,12.53,10.28,18.02,10.32,28.85c0,0,0,0,0,0c8.21,8.15,12.89,18.51,17.88,28.66
			c2.39,2.39,4.77,4.78,7.16,7.17c0,0,0,0,0,0C475.05,660.91,479.09,654.59,488.98,652.71z"/>
		<path class="st59" d="M572.2,591.73L572.2,591.73c-2.38,2.39-4.77,4.79-7.15,7.18c0,0,0,0,0,0c-1.6,10.17-9.98,16.48-14.32,25.09
			c0,0,0,0,0,0c10.76,0.32,20.87,2.38,28.64,10.71c0,0,0,0,0,0c3.59-2.39,7.17-4.77,10.76-7.16c0,0,0,0,0,0
			c3.45-6.1,8.24-10.87,14.35-14.31c0-1.19,0-2.39,0-3.58C593.72,603.68,582.96,597.7,572.2,591.73z"/>
		<path class="st62" d="M565.05,598.91c-10.46-0.02-18.49-2.94-18.45-15.47c-6.5,16.5-14.76,39.24-16.71,56.97
			c0.35,5.03,5.04,3.08,10.05,5.03c0,0,0,0,0,0c0.76-8.58,8.61-13.58,10.8-21.44c0,0,0,0,0,0
			C555.06,615.39,563.44,609.08,565.05,598.91z"/>
		<path class="st63" d="M532.68,634.45c-4.29,7.79-6.23,16.24-7.06,25.01c-0.01,0.09-0.02,0.18-0.03,0.26
			c0.9,1.43,0.4,6.39,3.14,3.38c4.62-5.08,7.56-11.69,11.21-17.66c0,0,0,0,0,0C534.92,643.49,533.03,639.47,532.68,634.45z"/>
		<path class="st64" d="M582.94,573.8C582.94,573.8,582.94,573.8,582.94,573.8C582.94,573.8,582.94,573.8,582.94,573.8
			c-2.39,2.39-4.78,4.78-7.17,7.16c-1.19,3.59-2.38,7.17-3.58,10.76c10.76,5.98,21.52,11.96,32.28,17.93
			c4.78-3.58,9.56-7.16,14.34-10.75l0,0c0-1.19,0-2.39,0-3.58C606.58,588.62,596.75,577.9,582.94,573.8z"/>
		<path class="st65" d="M582.94,573.8c13.81,4.1,23.64,14.82,35.88,21.54c4.81-2.35,8.4-5.92,10.79-10.71c0,0,0,0,0,0
			c-15.78-2.38-24.61-17.48-39.46-21.54C587.74,566.65,585.34,570.23,582.94,573.8C582.94,573.8,582.94,573.8,582.94,573.8z"/>
		<path class="st26" d="M565.05,598.91C565.05,598.91,565.05,598.91,565.05,598.91c2.38-2.39,4.77-4.79,7.15-7.18v0
			c1.19-3.59,2.38-7.17,3.58-10.76c-6.55-8.13-18.36-4.6-25.46-11.5c-0.54,0.54-0.99,1.11-1.37,1.69
			c-2.42,3.66-2.13,8.04-2.35,12.28C546.56,595.97,554.59,598.88,565.05,598.91z"/>
		<path class="st66" d="M453.92,555.93C453.92,555.93,453.92,555.93,453.92,555.93C453.93,555.93,453.92,555.93,453.92,555.93
			c-1.19,0-2.38-0.01-3.56-0.01c0,0,0,0,0,0c-7.18-1.13-15.21,2.87-21.51-3.57c0,0,0,0,0,0c0,0-0.01,0-0.01,0c0,0,0,0,0,0
			c-4.77-0.01-9.53-0.02-14.3-0.03c0,0,0,0,0,0c-1.21,0.01-2.41,0.03-3.62,0.04c0,0,0,0,0,0c17.69,7.56,24.72,21.57,18.06,35.97
			c-0.01,0.02-0.02,0.04-0.03,0.06c0.05,0,0.1-0.01,0.15-0.01c0.25,0,0.49-0.02,0.74-0.02c1.02-0.04,2.02-0.14,3-0.32
			c7.4-1.31,13.74-3.37,21.09-4.85C453.94,575.01,453.92,564.12,453.92,555.93z"/>
		<path class="st39" d="M453.93,555.93C453.92,555.93,453.92,555.93,453.93,555.93c0,8.19,0.02,19.07,0.02,27.26
			c12.92,0.04,25.65-4.73,37.79-7.45c-2.39-4.53-6.1-14.56-5.53-19.83l0,0c-2.39,0-4.77-0.01-7.16-0.01c0,0,0,0,0,0c0,0,0,0,0,0
			C470.67,555.92,462.3,555.92,453.93,555.93z"/>
		<path class="st60" d="M489.46,574.15c12.98-0.56,33.76-3.85,45.76-8.25c1.95-0.71-4.39-5.77-2.45-6.5
			c-15.04-7.64-31.11-1.53-46.57-3.48c0,0,0,0,0,0C485.63,561.19,487.07,569.62,489.46,574.15z"/>
		<path class="st60" d="M450.36,555.92C450.36,555.92,450.36,555.92,450.36,555.92C450.36,555.92,450.36,555.92,450.36,555.92
			c1.19,0.01,2.38,0.01,3.56,0.01c0,0,0,0,0,0c8.37-0.01,16.74-0.02,25.12-0.03c0,0,0,0,0,0c-8.82-7.13-19.16-2.03-28.68-3.57
			C450.36,553.53,450.36,554.72,450.36,555.92z"/>
		<path class="st39" d="M450.36,555.92C450.36,555.92,450.36,555.92,450.36,555.92c0-1.2,0-2.39,0-3.59c-1.19,0-2.38-0.01-3.58-0.01
			h0c-5.98,0.01-11.96,0.02-17.94,0.02c0,0,0,0,0,0C435.15,558.79,443.18,554.79,450.36,555.92z"/>
	</g>
</g>
</svg>
