<?xml version="1.0" encoding="utf-8"?>
<!-- Generator: Adobe Illustrator 25.2.0, SVG Export Plug-In . SVG Version: 6.00 Build 0)  -->
<svg version="1.1" id="레이어_1" xmlns="http://www.w3.org/2000/svg" xmlns:xlink="http://www.w3.org/1999/xlink" x="0px"
	 y="0px" viewBox="0 0 400 400" style="enable-background:new 0 0 400 400;" xml:space="preserve">
<style type="text/css">
	.st0{fill:#000000;}
</style>
<g>
	<path class="st0" d="M157,176.2c11.5,0,23,0.1,34.4,0C180,176.3,168.5,176.3,157,176.2c-11.5,0-23,0-34.4,0
		C134.1,176.2,145.6,176.2,157,176.2z"/>
	<path class="st0" d="M199.3,45.5c-85.2,0.2-154.2,69.7-154,155.2c0.1,84.9,69.9,154.1,155.1,153.8c86.8-0.3,154.9-70.7,154.5-154.6
		C354.9,114.3,285.1,45.3,199.3,45.5z M309.6,265.4c-15.1,24.7-35.9,42.5-62.9,53.4c-20.9,8.4-42.6,10.9-64.8,7.9
		c-24.4-3.3-46.2-13-65-29c-19.5-16.5-33-36.9-40.2-61.4c-6.2-21-7-42.3-2.2-63.7c7.1-32,24.1-57.6,50.7-76.7
		c18.9-13.6,40-21.7,63.3-23.2c52-3.2,92,17.5,120.5,60.7c0.5,0.8,1,1.6,1.4,2.4c1.6,3,0.7,6.3-2,7.9c-2.6,1.5-5.8,0.8-7.6-2
		c-2.9-4.4-5.7-8.8-8.9-13c-18-23-41.3-38.1-70-43c-48.7-8.3-88.6,7.7-117.8,47.6c-18.2,24.9-24.4,53.5-19.6,84.1
		c6.5,40.5,28.9,69.6,65.4,87.7c18.3,9.1,38.1,12.4,58.6,10.6c34.2-3,61.9-18,83.2-44.7c0.3-0.4,0.7-0.7,0.9-1.1
		c0.4-1,2.1-1.6,1.3-3c-0.6-1-1.9-0.5-2.9-0.5c-14.3,0-28.6,0-42.9,0c-18.2,0-36.3,0-54.5,0c-1.6,0-3.3,0.4-4.8-0.7
		c-2-1.5-3.4-3.4-2.7-6c0.7-2.6,2.5-4.5,5.5-4.6c3-0.1,6.1,0,9.1,0c15.9,0,31.9,0,47.8,0c18.4,0,36.8,0,55.2,0
		C310.6,255.4,313.2,259.6,309.6,265.4z M300.1,232.7c-27.7,13.3-60.9-2.3-68.8-32c-1.8-7-1.9-14.1-1.6-21.2
		c0.1-2.6-0.7-3.5-3.3-3.4c-5.6,0.2-11.2,0.2-16.9,0c-2.5-0.1-3.2,0.9-3.2,3.3c0.1,7.7,0.2,15.4-1.9,22.9
		c-5.6,19.4-24.2,33.9-44.4,35c-23.1,1.3-42.2-12.8-49.2-31.6c-2.3-6.2-3.4-12.6-3.4-19.2c0-4.7,0-9.4,0-14c0-5.6,2.1-7.6,7.6-7.6
		c34.4,0,68.9,0,103.3,0c0,0,0,0,0,0c34,0,68,0,101.9,0c7.1,0,8.5,1.3,8.3,8.5c-0.1,7.1,0.5,14.2-0.5,21.4
		C325.5,212.3,316,225.1,300.1,232.7z"/>
	<path class="st0" d="M191.5,176.2c-11.5,0.1-23,0-34.4,0c-11.5,0-23,0-34.4,0c-1.5,0-3.6-0.6-3.6,2c0.1,7.3-0.7,14.7,1.9,21.9
		c5.4,14.8,16,23.4,31.3,25.5c15.5,2.2,30.3-5.8,37.8-19c4.8-8.5,4.9-17.8,5-27.2C195,176.8,194,176.2,191.5,176.2z"/>
	<path class="st0" d="M313.7,176.2c-5.7,0.1-11.5,0.1-17.2,0.1c-5.7,0-11.5,0-17.2,0c-5.7,0-11.5,0-17.2,0c-5.9,0-11.7,0-17.6,0
		c-1.7,0-3.3-0.1-3.2,2.4c0.3,5.6-0.3,11.2,0.8,16.8c3.1,15.7,15.8,27.8,31.9,30.3c15.2,2.3,31.1-5.8,38.6-19.3
		c4.6-8.4,4.7-17.4,4.8-26.5C317.3,177.1,316.6,176.2,313.7,176.2z"/>
	<path class="st0" d="M296.5,176.3c-5.7,0-11.5,0-17.2,0c-5.7,0-11.5,0-17.2,0c5.7,0,11.5,0,17.2,0
		C285,176.3,290.7,176.3,296.5,176.3z"/>
</g>
</svg>
