<?xml version="1.0" encoding="utf-8"?>
<!-- Generator: Adobe Illustrator 25.2.0, SVG Export Plug-In . SVG Version: 6.00 Build 0)  -->
<svg version="1.1" xmlns="http://www.w3.org/2000/svg" xmlns:xlink="http://www.w3.org/1999/xlink" x="0px" y="0px"
	 viewBox="0 0 400 400" style="enable-background:new 0 0 400 400;" xml:space="preserve">
<style type="text/css">
	.st0{fill:#FFFFFF;}
</style>
<g id="레이어_2">
</g>
<g id="레이어_1">
	<path class="st0" d="M207.1,375.5c-80.7,0-143.3-38.8-163.6-101.1l-4.5-14l13.3-6.3c1.4-0.7,36.2-18.2,34-52.5
		c-2.3-36.3-31.7-53.3-33-54l-12.9-7.3l5.6-13.8c26.5-63.9,86.7-102,161.1-102c58.5,0,109.7,22.9,140.6,62.7l7.8,10.1L294,180
		l-13.7-13.3c-0.3-0.2-29.5-27.8-63.4-28c-32.7-0.2-45.6,12.1-46.1,12.7l-24.2-23.2c2.2-2.4,23-23.3,70.5-23
		c30.3,0.1,56.4,14.6,71.8,25.5l24.1-32.4C287.9,72.6,250.1,58,207.1,58c-55.5,0-101.1,25.7-124.5,69.4c14.1,11.8,34.9,35.3,37.2,72
		c2.5,39.7-23,64.7-39.5,76.6c19.6,41,66.9,65.9,126.8,65.9c41.5,0,84-16.1,110.3-41.1L290,266.5c-14.6,10.3-39.6,23.7-72.2,25.4
		c-46.3,2.4-73.7-18.9-74.9-19.8l20.8-26.3c0.6,0.5,19.2,14.3,52.3,12.6c39.1-2,64.2-27.1,64.4-27.3l13.3-13.5l11.9,14.7l55.4,69.4
		l-8.5,10.5C321.4,350.7,264.3,375.5,207.1,375.5z"/>
</g>
</svg>
