<?xml version="1.0" encoding="utf-8"?>
<!-- Generator: Adobe Illustrator 25.2.0, SVG Export Plug-In . SVG Version: 6.00 Build 0)  -->
<svg version="1.1" id="레이어_1" xmlns="http://www.w3.org/2000/svg" xmlns:xlink="http://www.w3.org/1999/xlink" x="0px"
	 y="0px" viewBox="0 0 400 400" style="enable-background:new 0 0 400 400;" xml:space="preserve">
<style type="text/css">
	.st0{fill:#000000;}
</style>
<g>
	<path class="st0" d="M185.3,364.1c-0.2,0-0.5,0.2-0.5,0.5s0.2,0.5,0.5,0.5c0.2,0,0.5-0.2,0.5-0.5
		C185.7,364.3,185.5,364.1,185.3,364.1"/>
	<path class="st0" d="M169.6,358.7c-0.7,0-1.2,0.5-1.2,1.2s0.5,1.2,1.2,1.2c0.7,0,1.2-0.5,1.2-1.2S170.4,358.7,169.6,358.7"/>
	<path class="st0" d="M154.5,351.6c-1,0-1.7,0.7-1.7,1.7c0,1,0.7,1.7,1.7,1.7c1,0,1.7-0.7,1.7-1.7S155.5,351.6,154.5,351.6"/>
	<path class="st0" d="M140.4,343.1c-1.2,0-2.2,1-2.2,2.2s1,2.2,2.2,2.2c1.2,0,2.2-1,2.2-2.2S141.6,343.1,140.4,343.1"/>
	<path class="st0" d="M127,332.9c-1.5,0-2.9,1.2-2.9,2.9c0,1.5,1.2,2.9,2.9,2.9c1.5,0,2.9-1.2,2.9-2.9
		C129.9,334.3,128.7,332.9,127,332.9"/>
	<path class="st0" d="M114.8,321.7c-2,0-3.4,1.5-3.4,3.4s1.5,3.4,3.4,3.4s3.4-1.5,3.4-3.4S116.7,321.7,114.8,321.7"/>
	<path class="st0" d="M103.7,309c-2.2,0-4,1.7-4,3.9c0,2.2,1.7,3.9,4,3.9c2.2,0,4-1.7,4-3.9C107.9,310.7,105.9,309,103.7,309"/>
	<path class="st0" d="M94.1,295.1c-2.4,0-4.6,2-4.6,4.6c0,2.4,2,4.6,4.6,4.6c2.4,0,4.6-2,4.6-4.6C98.5,297.3,96.5,295.1,94.1,295.1"
		/>
	<path class="st0" d="M91.1,285.3c0-2.7-2.2-5.1-5.1-5.1c-2.9,0-5.1,2.2-5.1,5.1c0,2.7,2.2,5.1,5.1,5.1
		C89,290.4,91.1,288.3,91.1,285.3"/>
	<path class="st0" d="M85.5,270.2c0-3.2-2.4-5.6-5.6-5.6s-5.6,2.4-5.6,5.6s2.4,5.6,5.6,5.6S85.5,273.4,85.5,270.2"/>
	<path class="st0" d="M82.1,254.4c0-3.4-2.7-6.1-6.1-6.1c-3.4,0-6.1,2.7-6.1,6.1s2.7,6.1,6.1,6.1C79.4,260.5,82.1,257.8,82.1,254.4"
		/>
	<path class="st0" d="M80.9,238c0-3.7-2.9-6.8-6.8-6.8c-3.7,0-6.8,2.9-6.8,6.8c0,3.7,2.9,6.8,6.8,6.8S80.9,241.7,80.9,238"/>
	<path class="st0" d="M74.6,229c4.1,0,7.3-3.2,7.3-7.3c0-4.1-3.2-7.3-7.3-7.3s-7.3,3.2-7.3,7.3C67.3,225.6,70.4,229,74.6,229"/>
	<path class="st0" d="M69,205.4c0,4.4,3.4,7.8,7.8,7.8s7.8-3.4,7.8-7.8c0-4.4-3.4-7.8-7.8-7.8C72.6,197.6,69,201,69,205.4"/>
	<path class="st0" d="M305.9,326.3c-0.2,0-0.5,0.2-0.5,0.5s0.2,0.5,0.5,0.5c0.2,0,0.5-0.2,0.5-0.5
		C306.4,326.5,306.2,326.3,305.9,326.3"/>
	<path class="st0" d="M291.5,333.4c-0.5,0-1,0.5-1,1c0,0.5,0.5,1,1,1c0.5,0,1-0.5,1-1C292.5,333.8,292,333.4,291.5,333.4"/>
	<path class="st0" d="M276.2,339c-0.7,0-1.5,0.7-1.5,1.5c0,0.7,0.7,1.5,1.5,1.5c0.7,0,1.5-0.7,1.5-1.5
		C277.6,339.7,277.2,339,276.2,339"/>
	<path class="st0" d="M260.6,342.9c-1.2,0-2,1-2,2c0,1,1,2,2,2s2-1,2-2C262.5,343.8,261.6,342.9,260.6,342.9"/>
	<path class="st0" d="M244.2,345.1c-1.5,0-2.4,1.2-2.4,2.4c0,1.5,1.2,2.4,2.4,2.4c1.5,0,2.4-1.2,2.4-2.4
		C246.9,346.3,245.7,345.1,244.2,345.1"/>
	<path class="st0" d="M227.9,345.8c-1.7,0-2.9,1.2-2.9,2.9c0,1.7,1.2,2.9,2.9,2.9s2.9-1.5,2.9-2.9
		C231.1,347,229.6,345.8,227.9,345.8"/>
	<path class="st0" d="M211.6,344.6c-2,0-3.4,1.5-3.4,3.4s1.5,3.4,3.4,3.4s3.4-1.5,3.4-3.4C215.2,346,213.5,344.6,211.6,344.6"/>
	<path class="st0" d="M195.5,341.6c-2.2,0-3.9,1.7-3.9,3.9s1.7,3.9,3.9,3.9s3.9-1.7,3.9-3.9C199.4,343.3,197.7,341.6,195.5,341.6"/>
	<path class="st0" d="M179.6,336.5c-2.4,0-4.4,2-4.4,4.4c0,2.4,2,4.4,4.4,4.4c2.4,0,4.4-2,4.4-4.4
		C184.3,338.5,182.1,336.5,179.6,336.5"/>
	<path class="st0" d="M164.8,329.5c-2.7,0-4.9,2.2-4.9,4.9c0,2.7,2.2,4.9,4.9,4.9s4.9-2.2,4.9-4.9
		C169.6,331.9,167.5,329.5,164.8,329.5"/>
	<path class="st0" d="M156.2,326c0-2.9-2.4-5.4-5.4-5.4c-2.9,0-5.6,2.4-5.6,5.4c0,2.9,2.4,5.4,5.6,5.4
		C153.8,331.6,156.2,329.2,156.2,326"/>
	<path class="st0" d="M138,309.9c-3.4,0-6.1,2.7-6.1,6.1s2.7,6.1,6.1,6.1c3.2,0,6.1-2.7,6.1-6.1S141.1,309.9,138,309.9"/>
	<path class="st0" d="M126.5,297.5c-3.7,0-6.6,2.9-6.6,6.6s2.9,6.6,6.6,6.6s6.6-2.9,6.6-6.6S130.2,297.5,126.5,297.5"/>
	<path class="st0" d="M116.7,298c3.9,0,7.1-3.2,7.1-7.1c0-3.9-3.2-7.1-7.1-7.1c-3.9,0-7.1,3.2-7.1,7.1
		C109.9,294.8,112.8,298,116.7,298"/>
	<path class="st0" d="M116.3,276.5c0-4.1-3.4-7.6-7.6-7.6c-4.1,0-7.6,3.4-7.6,7.6s3.4,7.6,7.6,7.6
		C113.1,284.1,116.3,280.7,116.3,276.5"/>
	<path class="st0" d="M364.7,214.4c-0.2,0-0.5,0.2-0.5,0.5s0.2,0.5,0.5,0.5c0.2,0,0.5-0.2,0.5-0.5
		C364.9,214.6,364.9,214.4,364.7,214.4"/>
	<path class="st0" d="M359.8,229.5c-0.5,0-1,0.5-1,1s0.5,1,1,1s1-0.5,1-1S360.3,229.5,359.8,229.5"/>
	<path class="st0" d="M353.2,244.1c-0.7,0-1.2,0.5-1.2,1.2c0,0.7,0.5,1.5,1.2,1.5c0.7,0,1.5-0.5,1.5-1.5
		C354.4,244.9,354,244.1,353.2,244.1"/>
	<path class="st0" d="M345.2,258c-1,0-1.7,0.7-1.7,1.7c0,1,0.7,1.7,1.7,1.7s1.7-0.7,1.7-1.7S346.2,258,345.2,258"/>
	<path class="st0" d="M335.7,270.9c-1.2,0-2.2,1-2.2,2.2s1,2.2,2.2,2.2s2.2-1,2.2-2.2C337.9,271.9,336.9,270.9,335.7,270.9"/>
	<path class="st0" d="M324.9,282.6c-1.5,0-2.7,1.2-2.7,2.7c0,1.5,1.2,2.7,2.7,2.7s2.7-1.2,2.7-2.7
		C327.6,283.9,326.4,282.6,324.9,282.6"/>
	<path class="st0" d="M312.8,293.4c-1.7,0-3.2,1.5-3.2,3.2c0,1.7,1.5,3.2,3.2,3.2s3.2-1.5,3.2-3.2
		C315.9,294.8,314.5,293.4,312.8,293.4"/>
	<path class="st0" d="M299.6,302.6c-2,0-3.7,1.7-3.7,3.7s1.7,3.7,3.7,3.7s3.7-1.7,3.7-3.7S301.5,302.6,299.6,302.6"/>
	<path class="st0" d="M285.4,310.2c-2.2,0-4.1,1.7-4.1,3.9c0,2.2,1.7,4.1,4.1,4.1c2.2,0,3.9-1.7,3.9-4.1
		C289.3,311.9,287.6,310.2,285.4,310.2"/>
	<path class="st0" d="M270.1,315.6c-2.4,0-4.4,2-4.4,4.4s2,4.4,4.4,4.4c2.4,0,4.4-2,4.4-4.4C274.5,317.7,272.5,315.6,270.1,315.6"/>
	<path class="st0" d="M254.2,319.2c-2.7,0-4.9,2.2-4.9,4.9c0,2.7,2.2,4.9,4.9,4.9c2.7,0,4.9-2.2,4.9-4.9
		C259.1,321.4,256.9,319.2,254.2,319.2"/>
	<path class="st0" d="M237.9,320.7c-2.9,0-5.4,2.4-5.4,5.4c0,2.9,2.4,5.4,5.4,5.4s5.4-2.4,5.4-5.4
		C243.3,323.1,240.8,320.7,237.9,320.7"/>
	<path class="st0" d="M227.4,325.6c0-3.2-2.7-5.9-5.9-5.9c-3.2,0-5.9,2.7-5.9,5.9s2.7,5.9,5.9,5.9
		C224.7,331.4,227.4,328.7,227.4,325.6"/>
	<path class="st0" d="M211.6,323.1c0-3.4-2.7-6.3-6.3-6.3c-3.4,0-6.3,2.7-6.3,6.3c0,3.4,2.7,6.3,6.3,6.3
		C208.9,329.5,211.6,326.8,211.6,323.1"/>
	<path class="st0" d="M196.5,318.7c0-3.7-2.9-6.6-6.8-6.6c-3.7,0-6.6,2.9-6.6,6.6s2.9,6.8,6.6,6.8
		C193.3,325.3,196.5,322.4,196.5,318.7"/>
	<path class="st0" d="M181.8,312.1c0-3.9-3.2-7.1-7.1-7.1s-7.1,3.2-7.1,7.1c0,3.9,3.2,7.1,7.1,7.1
		C178.7,319.2,181.8,316,181.8,312.1"/>
	<path class="st0" d="M326.9,94.7c0.2,0,0.5-0.2,0.5-0.5c0-0.2-0.2-0.5-0.5-0.5c-0.2,0-0.5,0.2-0.5,0.5
		C326.4,94.4,326.6,94.7,326.9,94.7"/>
	<path class="st0" d="M334.4,109.6c0.5,0,1-0.5,1-1c0-0.5-0.5-1-1-1c-0.5,0-1,0.5-1,1C333.5,109.1,334,109.6,334.4,109.6"/>
	<path class="st0" d="M340.5,125.2c0.7,0,1.2-0.5,1.2-1.2s-0.5-1.2-1.2-1.2c-0.7,0-1.2,0.5-1.2,1.2
		C339.1,124.7,339.8,125.2,340.5,125.2"/>
	<path class="st0" d="M344.9,141.5c1,0,1.7-0.7,1.7-1.7c0-1-0.7-1.7-1.7-1.7s-1.7,0.7-1.7,1.7C343,140.8,344,141.5,344.9,141.5"/>
	<path class="st0" d="M345.4,155.9c0,1.2,1,2.2,2.2,2.2c1.2,0,2.2-1,2.2-2.2c0-1.2-1-2.2-2.2-2.2
		C346.4,153.4,345.4,154.7,345.4,155.9"/>
	<path class="st0" d="M348.6,169.5c-1.5,0-2.7,1.2-2.7,2.7c0,1.5,1.2,2.7,2.7,2.7s2.7-1.2,2.7-2.7
		C351.3,170.7,350.1,169.5,348.6,169.5"/>
	<path class="st0" d="M347.9,185.4c-1.7,0-3.2,1.5-3.2,3.2c0,1.7,1.5,3.2,3.2,3.2s3.2-1.5,3.2-3.2S349.6,185.4,347.9,185.4"/>
	<path class="st0" d="M345.4,201.2c-2,0-3.7,1.7-3.7,3.7c0,2,1.7,3.7,3.7,3.7s3.7-1.5,3.7-3.7C349.1,202.7,347.4,201.2,345.4,201.2"
		/>
	<path class="st0" d="M344.9,220.5c0-2.2-1.7-3.9-3.9-3.9c-2.2,0-4.1,1.7-4.1,3.9c0,2.2,1.7,3.9,4.1,3.9
		C343.2,224.4,344.9,222.7,344.9,220.5"/>
	<path class="st0" d="M334.4,231c-2.4,0-4.4,2-4.4,4.4c0,2.4,2,4.4,4.4,4.4c2.4,0,4.4-2,4.4-4.4C338.8,232.9,336.9,231,334.4,231"/>
	<path class="st0" d="M326.2,244.6c-2.7,0-4.9,2.2-4.9,4.9s2.2,4.9,4.9,4.9c2.7,0,4.9-2.2,4.9-4.9S328.8,244.6,326.2,244.6"/>
	<path class="st0" d="M315.9,256.8c-2.9,0-5.4,2.4-5.4,5.4c0,2.9,2.4,5.4,5.4,5.4c2.9,0,5.4-2.4,5.4-5.4
		C321.3,259.2,318.8,256.8,315.9,256.8"/>
	<path class="st0" d="M304,267.8c-3.2,0-5.9,2.7-5.9,5.9s2.7,5.9,5.9,5.9c3.2,0,5.9-2.7,5.9-5.9C309.8,270.5,307.1,267.8,304,267.8"
		/>
	<path class="st0" d="M290.8,277c-3.4,0-6.3,2.7-6.3,6.3c0,3.4,2.7,6.3,6.3,6.3c3.4,0,6.3-2.7,6.3-6.3
		C297.1,280,294.2,277,290.8,277"/>
	<path class="st0" d="M276.7,284.6c-3.7,0-6.6,2.9-6.6,6.8c0,3.7,2.9,6.6,6.6,6.6s6.6-2.9,6.6-6.6
		C283.3,287.5,280.3,284.6,276.7,284.6"/>
	<path class="st0" d="M261.3,290.2c-3.9,0-7.1,3.2-7.1,7.1s3.2,7.1,7.1,7.1c3.9,0,7.1-3.2,7.1-7.1
		C268.4,293.4,265.2,290.2,261.3,290.2"/>
	<path class="st0" d="M214.7,35.9c0.2,0,0.5-0.2,0.5-0.5c0-0.2-0.2-0.5-0.5-0.5c-0.2,0-0.5,0.2-0.5,0.5
		C214.3,35.7,214.5,35.9,214.7,35.9"/>
	<path class="st0" d="M230.4,41.3c0.5,0,1-0.5,1-1c0-0.5-0.5-1-1-1c-0.5,0-1,0.5-1,1C229.6,41,229.9,41.3,230.4,41.3"/>
	<path class="st0" d="M245.5,48.4c0.7,0,1.2-0.5,1.2-1.2c0-0.7-0.5-1.5-1.2-1.5c-0.7,0-1.5,0.5-1.5,1.5
		C244,47.6,244.7,48.4,245.5,48.4"/>
	<path class="st0" d="M259.6,56.7c1,0,1.7-0.7,1.7-1.7c0-1-0.7-1.7-1.7-1.7s-1.7,0.7-1.7,1.7C257.9,55.9,258.6,56.7,259.6,56.7"/>
	<path class="st0" d="M273,66.6c1.2,0,2.2-1,2.2-2.2c0-1.2-1-2.2-2.2-2.2s-2.2,1-2.2,2.2C270.8,65.7,271.8,66.6,273,66.6"/>
	<path class="st0" d="M285.4,77.9c1.5,0,2.7-1.2,2.7-2.7s-1.2-2.7-2.7-2.7s-2.7,1.2-2.7,2.7S283.7,77.9,285.4,77.9"/>
	<path class="st0" d="M296.4,90.5c1.7,0,3.2-1.5,3.2-3.2c0-1.7-1.5-3.2-3.2-3.2s-3.2,1.5-3.2,3.2C293.2,89.1,294.7,90.5,296.4,90.5"
		/>
	<path class="st0" d="M306.2,103.9c2,0,3.7-1.7,3.7-3.7s-1.7-3.7-3.7-3.7s-3.7,1.7-3.7,3.7S304.2,103.9,306.2,103.9"/>
	<path class="st0" d="M314,118.8c2.2,0,3.9-1.7,3.9-3.9c0-2.2-1.7-3.9-3.9-3.9c-2.2,0-4.1,1.7-4.1,3.9
		C310.1,117.1,311.8,118.8,314,118.8"/>
	<path class="st0" d="M315.7,130c0,2.4,2,4.4,4.4,4.4s4.4-2,4.4-4.4c0-2.4-2-4.4-4.4-4.4C317.6,125.6,315.7,127.6,315.7,130"/>
	<path class="st0" d="M319.1,145.9c0,2.7,2.2,4.9,4.9,4.9c2.7,0,4.9-2.2,4.9-4.9s-2.2-4.9-4.9-4.9S319.1,143.2,319.1,145.9"/>
	<path class="st0" d="M320.6,162.2c0,2.9,2.4,5.4,5.4,5.4c2.9,0,5.4-2.4,5.4-5.4c0-2.9-2.4-5.4-5.4-5.4
		C323,156.8,320.6,159.3,320.6,162.2"/>
	<path class="st0" d="M331.3,178.5c0-3.2-2.7-5.9-5.9-5.9c-3.2,0-5.9,2.7-5.9,5.9s2.7,5.9,5.9,5.9
		C328.8,184.4,331.3,181.7,331.3,178.5"/>
	<path class="st0" d="M329.3,194.6c0-3.4-2.7-6.3-6.3-6.3c-3.4,0-6.3,2.7-6.3,6.3c0,3.4,2.9,6.3,6.3,6.3
		C326.6,201,329.3,198,329.3,194.6"/>
	<path class="st0" d="M325.4,210.5c0-3.7-2.9-6.8-6.6-6.8s-6.6,2.9-6.6,6.8c0,3.7,2.9,6.6,6.6,6.6
		C322.3,217.1,325.4,214.1,325.4,210.5"/>
	<path class="st0" d="M312,218.3c-3.9,0-7.1,3.2-7.1,7.1s3.2,7.1,7.1,7.1c3.9,0,7.1-3.2,7.1-7.1C319.3,221.5,316.2,218.3,312,218.3"
		/>
	<path class="st0" d="M94.1,73.7c0.2,0,0.5-0.2,0.5-0.5s-0.2-0.5-0.5-0.5c-0.2,0-0.5,0.2-0.5,0.5S93.8,73.7,94.1,73.7"/>
	<path class="st0" d="M108.7,66.6c0.5,0,1-0.5,1-1s-0.5-1-1-1s-1,0.5-1,1S108.2,66.6,108.7,66.6"/>
	<path class="st0" d="M123.8,61c0.7,0,1.5-0.5,1.5-1.2s-0.5-1.5-1.5-1.5c-0.7,0-1.2,0.7-1.2,1.5C122.6,60.3,123.1,61,123.8,61"/>
	<path class="st0" d="M139.7,57.1c1,0,1.7-0.7,1.7-1.7c0-1-0.7-1.7-1.7-1.7c-1,0-1.7,0.7-1.7,1.7C137.7,56.2,138.7,57.1,139.7,57.1"
		/>
	<path class="st0" d="M155.8,54.7c1.2,0,2.2-1,2.2-2.2c0-1.2-1-2.2-2.2-2.2c-1.2,0-2.2,1-2.2,2.2C153.6,53.7,154.5,54.7,155.8,54.7"
		/>
	<path class="st0" d="M172.1,54.2c1.5,0,2.7-1.2,2.7-2.7c0-1.5-1.2-2.7-2.7-2.7s-2.7,1.2-2.7,2.7C169.4,53,170.6,54.2,172.1,54.2"/>
	<path class="st0" d="M188.4,55.4c1.7,0,3.2-1.5,3.2-3.2c0-1.7-1.5-3.2-3.2-3.2c-1.7,0-3.2,1.5-3.2,3.2
		C185.3,54,186.7,55.4,188.4,55.4"/>
	<path class="st0" d="M204.5,58.1c2,0,3.7-1.5,3.7-3.7c0-2-1.7-3.7-3.7-3.7s-3.7,1.7-3.7,3.7C201.1,56.7,202.6,58.1,204.5,58.1"/>
	<path class="st0" d="M220.4,63.2c2.2,0,4.1-1.7,4.1-3.9c0-2.2-1.7-3.9-4.1-3.9c-2.2,0-3.9,1.7-3.9,3.9
		C216.5,61.3,218.2,63.2,220.4,63.2"/>
	<path class="st0" d="M235.5,70.1c2.4,0,4.4-2,4.4-4.4c0-2.4-2-4.4-4.4-4.4c-2.4,0-4.4,2-4.4,4.4C230.8,68.1,233,70.1,235.5,70.1"/>
	<path class="st0" d="M244.5,74c0,2.7,2.2,4.9,4.9,4.9s4.9-2.2,4.9-4.9c0-2.7-2.2-4.9-4.9-4.9C246.7,69.1,244.5,71.3,244.5,74"/>
	<path class="st0" d="M262.3,89.6c2.9,0,5.4-2.4,5.4-5.4c0-2.9-2.4-5.4-5.4-5.4c-2.9,0-5.4,2.4-5.4,5.4
		C256.9,87.4,259.4,89.6,262.3,89.6"/>
	<path class="st0" d="M273.5,102c3.2,0,5.9-2.7,5.9-5.9c0-3.2-2.7-5.9-5.9-5.9c-3.2,0-5.9,2.7-5.9,5.9
		C267.7,99.3,270.3,102,273.5,102"/>
	<path class="st0" d="M283.3,103c-3.4,0-6.3,2.7-6.3,6.3c0,3.4,2.7,6.3,6.3,6.3c3.4,0,6.3-2.7,6.3-6.3
		C289.6,105.9,286.7,103,283.3,103"/>
	<path class="st0" d="M284.5,123.5c0,3.7,2.9,6.6,6.6,6.6s6.6-2.9,6.6-6.6c0-3.7-2.9-6.6-6.6-6.6
		C287.6,116.9,284.5,119.8,284.5,123.5"/>
	<path class="st0" d="M290.1,138.8c0,3.9,3.2,7.1,7.1,7.1c3.9,0,7.1-3.2,7.1-7.1c0-3.9-3.2-7.1-7.1-7.1
		C293.2,131.7,290.1,134.9,290.1,138.8"/>
	<path class="st0" d="M301.1,147.1c-4.1,0-7.6,3.4-7.6,7.6c0,4.1,3.4,7.6,7.6,7.6s7.6-3.4,7.6-7.6
		C308.9,150.5,305.4,147.1,301.1,147.1"/>
	<path class="st0" d="M35.6,184.4c-0.5,0-0.7,0.5-0.7,0.7c0,0.5,0.5,0.7,0.7,0.7c0.5,0,0.7-0.5,0.7-0.7S36.1,184.4,35.6,184.4"/>
	<path class="st0" d="M40.4,168.1c-1,0-1.7,0.7-1.7,1.7c0,1,0.7,1.7,1.7,1.7c1,0,1.7-0.7,1.7-1.7C42.1,168.8,41.4,168.1,40.4,168.1"
		/>
	<path class="st0" d="M49.5,154.7c0-1.5-1.2-2.4-2.4-2.4c-1.5,0-2.4,1.2-2.4,2.4c0,1.5,1.2,2.4,2.4,2.4S49.5,156.1,49.5,154.7"/>
	<path class="st0" d="M54.8,143.7c2,0,3.4-1.5,3.4-3.4c0-2-1.5-3.4-3.4-3.4c-2,0-3.4,1.5-3.4,3.4C51.4,142.2,53.1,143.7,54.8,143.7"
		/>
	<path class="st0" d="M64.3,131.3c2.4,0,4.1-2,4.1-4.1c0-2.2-2-4.1-4.1-4.1c-2.4,0-4.1,2-4.1,4.1C60.2,129.3,62.1,131.3,64.3,131.3"
		/>
	<path class="st0" d="M75.3,119.8c2.7,0,5.1-2.2,5.1-5.1c0-2.7-2.2-5.1-5.1-5.1c-2.7,0-5.1,2.2-5.1,5.1
		C70.2,117.6,72.4,119.8,75.3,119.8"/>
	<path class="st0" d="M87.2,109.6c3.2,0,5.9-2.7,5.9-5.9s-2.7-5.9-5.9-5.9c-3.2,0-5.9,2.7-5.9,5.9C81.4,106.9,84.1,109.6,87.2,109.6
		"/>
	<path class="st0" d="M100.4,100.8c3.7,0,6.8-2.9,6.8-6.8c0-3.7-2.9-6.8-6.8-6.8c-3.7,0-6.8,2.9-6.8,6.8
		C93.6,97.6,96.8,100.8,100.4,100.8"/>
	<path class="st0" d="M114.6,93.5c4.1,0,7.6-3.4,7.6-7.6c0-4.1-3.4-7.6-7.6-7.6c-4.1,0-7.6,3.4-7.6,7.6
		C107,90.1,110.4,93.5,114.6,93.5"/>
	<path class="st0" d="M129.9,88.1c4.1,0,7.6-3.2,8.3-7.1c1.7,2.4,4.4,3.9,7.6,3.9c3.7,0,6.6-2,8.3-5.1c2,2.4,4.9,4.1,8,4.1
		c2.9,0,5.6-1.2,7.6-3.4c2,2.7,5.1,4.6,9,4.6c2.2,0,4.4-0.7,6.3-2c0.5,0.7,1,1.2,1.5,1.7c-2.7,0.2-5.4,1.5-7.1,3.4
		c-2.2-2-4.9-3.2-7.8-3.2c-3.9,0-7.3,2-9.5,4.9c-2-1.5-4.1-2.4-6.8-2.4c-4.4,0-8.3,2.7-10,6.3c-1.7-1.2-3.7-1.7-5.9-1.7
		c-4.9,0-9,3.4-10.2,8c-1.5-1-3.2-1.5-5.1-1.5c-5.4,0-9.8,4.4-9.8,9.8l0,0c-1.5-0.7-2.9-1.2-4.6-1.2c-5.1,0-9,4.1-9,9
		c0,1,0.2,1.7,0.5,2.4c-1.2-0.7-2.7-1.2-4.4-1.2c-4.6,0-8.5,3.9-8.5,8.5s3.9,8.5,8.5,8.5c4.6,0,8.5-3.9,8.5-8.5c0-0.7,0-1.5-0.2-2.2
		c1.5,1,3.2,1.5,4.9,1.5c4.9,0,9-3.9,9-8.8c1.5,1,3.4,1.5,5.1,1.5c0.2,0,0.2,0,0.5,0c-2,2-3.4,4.4-3.7,7.3c-0.7,0-1.2-0.2-2-0.2
		c-5.9,0-10.7,4.9-10.7,10.7c0,0.5,0,0.7,0,1.2c-0.5,0-0.7,0-1.2,0c-5.6,0-10.2,4.6-10.2,10.2c0,1.2,0.2,2.2,0.5,3.2
		c-0.2,0-0.5,0-0.5,0c-5.4,0-9.5,4.4-9.5,9.5c0,2,0.5,3.7,1.5,5.1h-0.2c-4.9,0-9,4.1-9,9c0,2.7,1.2,4.9,2.9,6.6c-0.2,0-0.2,0-0.5,0
		c-4.6,0-8.5,3.9-8.5,8.5c0,4.6,3.9,8.5,8.5,8.5s8.5-3.7,8.5-8.5c0-2.4-1-4.4-2.4-6.1c0.2,0,0.5,0,0.5,0c2.7,0,4.9-1.2,6.6-2.9v0.2
		c0,2.4,0.7,4.4,2,6.1c-3.9,1.5-6.6,5.1-6.6,9.3c0,2.9,1.5,5.6,3.4,7.6c-3.2,1.5-5.6,4.9-5.6,8.5s2,6.8,5.1,8.3
		c-2.9,1.5-4.9,4.4-4.9,8c0,4.1,2.9,7.8,7.1,8.8c-2.7,1.5-4.6,4.1-4.6,7.6c0,4.6,3.9,8.5,8.5,8.5c0.5,0,1,0,1.5-0.2
		c-3.2,1-5.6,3.9-5.6,7.6c0,4.4,3.7,8,8,8c4.4,0,8-3.7,8-8s-3.7-8-8-8c-0.5,0-1,0-1.5,0.2c3.4-1,6.1-4.1,6.1-8c0-0.2,0-0.5,0-0.5
		c1.2,1.5,2.9,2.4,5.1,2.9c-1.5,1.7-2.2,3.7-2.2,6.1c0,5.1,4.1,9.3,9.5,9.3h0.2c-1,1.5-1.7,3.2-1.7,5.1c0,4.9,3.9,9,9,9
		c1,0,1.7-0.2,2.7-0.5c-1,1.5-1.5,2.9-1.5,4.6c0,4.6,3.9,8.5,8.5,8.5c2,0,3.9-0.7,5.4-2c-1.2,1.5-2,3.2-2,5.1c0,4.4,3.7,8,8,8
		s8-3.7,8-8c0-2.2-1-4.1-2.2-5.6c1,0,2.2-0.2,3.2-0.5l0,0c0,3.9,2.2,7.1,5.4,8.8c-0.5,0-1-0.2-1.5-0.2c-4.1,0-7.6,3.4-7.6,7.6
		s3.4,7.6,7.6,7.6s7.6-3.4,7.6-7.6c0-2.9-1.7-5.4-3.9-6.6c0.7,0.2,1.5,0.2,2.4,0.2c2,0,3.7-0.5,5.1-1.5c0.5,4.9,4.4,8.5,9.3,8.5
		c2.7,0,5.1-1.2,6.8-2.9c0.7,4.1,4.4,7.6,8.8,7.6c3.4,0,6.3-2,7.8-4.6c0.7,3.9,4.1,6.8,8.3,6.8c4.4,0,8-3.4,8.3-7.6
		c0.2,4.1,3.7,7.6,8,7.6s8-3.7,8-8c0-4.4-3.4-7.8-7.8-8c0.7-0.7,1.2-1.7,1.7-2.7c1.7,2,4.4,2.9,7.1,2.9c1,0,2-0.2,2.9-0.5
		c-2,1.5-3.4,3.7-3.4,6.3c0,4.1,3.4,7.6,7.6,7.6s7.6-3.4,7.6-7.6c0-4.1-3.4-7.6-7.6-7.6c-0.7,0-1.5,0.2-2.2,0.2
		c2.2-1.5,3.9-3.7,4.4-6.1c1.7,1.5,3.7,2.2,6.1,2.2c5.1,0,9.5-4.1,9.5-9.3v-0.2c1.5,1,3.2,1.7,5.1,1.7c4.9,0,9-3.9,9-9
		c0-1,0-1.7-0.5-2.7c1.5,1,2.9,1.5,4.6,1.5c4.6,0,8.5-3.9,8.5-8.5c0-2-0.7-3.9-2-5.4c1.5,1.2,3.2,2,5.1,2c4.4,0,8-3.7,8-8
		c0-4.4-3.7-8-8-8c-2.2,0-4.1,0.7-5.6,2.2c0-1-0.2-2.2-0.5-3.2l0,0c3.9,0,7.1-2.2,8.8-5.4c0,0.5-0.2,1-0.2,1.5
		c0,4.1,3.4,7.6,7.6,7.6c4.1,0,7.6-3.4,7.6-7.6s-3.4-7.6-7.6-7.6c-2.9,0-5.4,1.7-6.6,3.9c0.2-0.7,0.2-1.5,0.2-2.4
		c0-2-0.5-3.7-1.5-5.1c4.9-0.5,8.5-4.4,8.5-9.3c0-2.7-1.2-5.1-2.9-6.8c4.1-0.7,7.6-4.4,7.6-8.8c0-3.4-2-6.3-4.6-7.8
		c3.9-0.7,6.8-4.1,6.8-8.3c0-4.4-3.4-8-7.6-8.3c4.1-0.2,7.6-3.7,7.6-8s-3.7-8-8-8c-4.4,0-8,3.7-8,8c0,4.1,3.2,7.6,7.1,8
		c-4.4,0.2-7.8,3.9-7.8,8.5c0,3.2,1.7,5.9,4.4,7.3c-4.1,0.7-7.3,4.4-7.3,8.8c0,2.4,1,4.6,2.7,6.3c-4.6,0.7-8,4.6-8,9.3
		c0,1.7,0.5,3.4,1.2,4.6c-5.1,0.2-9.3,4.6-9.3,9.8c0,1,0.2,2,0.5,2.9c-0.2,0-0.2,0-0.5,0c-5.6,0-10.2,4.6-10.2,10.2
		c0,0.2,0,0.5,0,0.7c-0.5,0-1-0.2-1.7-0.2c-5.4,0-9.8,3.9-10.5,9.3c-1-0.2-2-0.5-2.9-0.5c-4.4,0-8.3,2.7-10,6.3
		c-2.2-1.7-5.1-2.7-8-2c-3.2,0.7-5.9,2.7-7.1,5.6c-2.2-2.2-5.4-3.4-8.5-3.2c-3.2,0.5-5.9,2.4-7.3,5.1c-1.7-2.2-4.6-3.7-7.6-3.7
		c-2.9,0-5.4,1.2-7.3,3.2c-1.2-2.4-3.4-4.6-6.1-5.4c-2.9-1-6.1-0.2-8.5,1.5c-0.7-2.9-2.4-5.4-5.4-6.8c-2.7-1.2-5.9-1.2-8.3,0
		c0-2.7-1.2-5.6-3.7-7.3c-2.2-1.7-5.1-2.4-7.8-2c0.7-2.7,0-5.6-1.7-8c-2-2.4-4.9-3.9-7.8-3.9c1.2-2.7,1.2-5.9-0.2-8.5
		c-1.2-2.4-3.7-4.1-6.1-4.9c1.7-2,2.4-4.9,2-7.6c-0.5-2.9-2.4-5.6-4.9-7.1c2.4-2,3.9-4.6,3.9-8c0-2.9-1.2-5.6-3.4-7.3
		c2.4-1.2,4.4-3.4,5.1-6.3s0-5.9-1.5-8c2.7-0.5,4.9-2.2,6.3-4.6c1.5-2.7,1.7-5.6,0.7-8.3c2.9,0.2,5.9-1,7.8-3.2c2-2.2,2.9-5.1,2.4-8
		c2.7,0.7,5.6,0.2,8-1.5c2.4-1.7,3.9-4.4,4.1-7.1c2.4,1.2,5.6,1.5,8.3,0.5c2.7-1.2,4.6-3.2,5.4-5.6c2,1.7,4.6,2.7,7.6,2.4l0,0
		c3.2-0.2,5.9-2,7.3-4.6c1.7,2.4,4.1,3.9,7.3,4.1c2.9,0.2,5.6-1,7.6-2.7c1,2.7,3.2,4.6,6.1,5.6c2.9,1,6.1,0.5,8.5-1.2
		c0.5,2.9,2.2,5.4,4.9,6.8l0,0c2.2,1.2,4.6,1.5,7.1,1c0.2,0.5,0.5,0.7,0.7,1c0.2,2.2,1,4.1,2.4,5.9l0.2,0.2
		c5.1,5.4,16.6,18,14.4,35.1c-0.5,4.1,2,6.3,4.9,3.2c18.5-20,15.6-44.4,15.1-47.3c0-2-0.5-3.7-1.2-5.4c0.2-1,0.2-2.2,0.2-3.2
		c0-5.1-2.4-9.8-6.3-12.7c0.2-1,0.2-2,0.2-2.9c0-6.3-3.9-11.7-9.5-14.1c-0.2-7.1-5.4-12.9-12.2-14.1c-1.2-6.3-6.8-11.2-13.7-11.2
		c-0.2,0-0.5,0-0.7,0c-1.7-5.1-6.6-9-12.4-9c-1.2,0-2.2,0.2-3.2,0.5c-2-4.4-6.3-7.3-11.2-7.3c-2,0-3.9,0.5-5.4,1.2
		c-2-3.4-5.9-5.9-10-5.9c-2.7,0-5.4,1-7.3,2.4c-2-2.7-5.1-4.6-8.8-4.6c-3.4,0-6.6,1.7-8.5,4.1c-2-2.2-4.6-3.7-7.8-3.7
		c-4.1,0-7.6,2.4-9.3,5.9c-1.7-2-4.1-3.2-7.1-3.2c-4.9,0-8.8,3.7-9.3,8.3c-1.5-2-3.9-3.4-6.6-3.4c-4.6,0-8.3,3.7-8.3,8.3
		C121.4,84.4,125.3,88.1,129.9,88.1"/>
	<path class="st0" d="M73.4,305.3c-0.2,0-0.7,0.2-0.7,0.7c0,0.2,0.2,0.7,0.7,0.7s0.7-0.2,0.7-0.7C73.8,305.6,73.6,305.3,73.4,305.3"
		/>
	<path class="st0" d="M65.8,290.2c-0.7,0-1.2,0.5-1.2,1.2s0.5,1.2,1.2,1.2c0.7,0,1.2-0.5,1.2-1.2S66.3,290.2,65.8,290.2"/>
	<path class="st0" d="M59.7,274.4c-1,0-2,1-2,2c0,1,1,2,2,2c1,0,2-1,2-2C61.6,275.3,60.7,274.4,59.7,274.4"/>
	<path class="st0" d="M55.3,258c-1.5,0-2.7,1.2-2.7,2.7c0,1.5,1.2,2.7,2.7,2.7c1.5,0,2.7-1.2,2.7-2.7C57.7,259,56.5,258,55.3,258"/>
	<path class="st0" d="M55.8,244.4c0-1.7-1.5-3.2-3.2-3.2c-1.7,0-3.2,1.5-3.2,3.2c0,1.7,1.5,3.2,3.2,3.2
		C54.3,247.5,55.8,246.1,55.8,244.4"/>
	<path class="st0" d="M55.3,228c0-2.2-1.7-3.9-3.9-3.9c-2.2,0-3.9,1.7-3.9,3.9c0,2.2,1.7,3.9,3.9,3.9
		C53.6,231.9,55.3,230.2,55.3,228"/>
	<path class="st0" d="M47.5,211.7c0,2.4,2,4.6,4.6,4.6c2.4,0,4.6-2,4.6-4.6c0-2.4-2-4.6-4.6-4.6C49.7,207.1,47.5,209.3,47.5,211.7"
		/>
	<path class="st0" d="M54.6,200.7c2.9,0,5.1-2.4,5.1-5.1c0-2.9-2.4-5.1-5.1-5.1c-2.9,0-5.1,2.4-5.1,5.1
		C49.5,198.3,51.7,200.7,54.6,200.7"/>
	<path class="st0" d="M59.2,173.9c-3.2,0-5.9,2.7-5.9,5.9c0,3.2,2.7,5.9,5.9,5.9c3.2,0,5.9-2.7,5.9-5.9
		C65.1,176.6,62.4,173.9,59.2,173.9"/>
	<path class="st0" d="M65.6,171.2c3.7,0,6.6-2.9,6.6-6.6s-2.9-6.6-6.6-6.6S59,161,59,164.7C59.2,168.3,62.1,171.2,65.6,171.2"/>
	<path class="st0" d="M74.1,157.8c3.9,0,7.1-3.2,7.1-7.1s-3.2-7.1-7.1-7.1c-3.9,0-7.1,3.2-7.1,7.1S70.2,157.8,74.1,157.8"/>
	<path class="st0" d="M92.1,137.8c0-4.4-3.4-7.8-7.8-7.8s-7.8,3.4-7.8,7.8c0,4.4,3.4,7.8,7.8,7.8C88.5,145.6,92.1,142.2,92.1,137.8"
		/>
</g>
</svg>
