<?xml version="1.0" encoding="utf-8"?>
<!-- Generator: Adobe Illustrator 25.2.1, SVG Export Plug-In . SVG Version: 6.00 Build 0)  -->
<svg version="1.1" id="레이어_1" xmlns="http://www.w3.org/2000/svg" xmlns:xlink="http://www.w3.org/1999/xlink" x="0px"
	 y="0px" viewBox="0 0 1000 1000" style="enable-background:new 0 0 1000 1000;" xml:space="preserve">
<g>
	<path d="M469.3,872.06c-31.79-1.38-63.26-10.16-86.46-18.09c-44.2-15.09-84.26-36.9-120.12-66.37
		c-61.88-50.85-103.34-115.53-123.76-192.63c-15.43-58.26-16.18-117.35-2.83-176.74c19.87-88.34,66.36-159.76,137.29-214.44
		c58.23-44.88,124.76-69.84,199.13-74.89c71.27-4.84,138.02,8.82,200.96,41.23c30.12,15.51,57.46,35.59,82.21,59.04
		c5.37,5.09,6.05,8.65,0.79,13.83c-28.86,28.41-57.86,56.69-86.19,85.61c-5.46,5.57-7.86,5.46-13.14,0.43
		c-28.94-27.54-63.18-45.89-101.9-55.1c-52.62-12.51-104.07-8.35-153.33,14.73c-52.39,24.54-90.87,63.28-114.74,115.97
		c-18.98,41.89-24.81,85.66-17.37,131.29c11.98,73.51,50.81,128.52,114.43,166.02c44.05,25.96,91.84,34.49,142.85,28.8
		c50.1-5.58,92.79-25.99,129.63-59.52c5.78-5.26,9.01-4.3,13.92,0.67c27.97,28.33,56.09,56.53,84.46,84.46
		c5.47,5.38,6.52,8.58,0.25,14.44c-50.65,47.33-109.18,79.17-177.45,93.06c-10.23,2.08-40.4,6.5-59.99,8.19
		C486.64,872.06,500.6,872.06,469.3,872.06z"/>
	<path d="M870.67,537.32c-2.07,23.96-7,49.4-13.85,69.87c-9.88,29.51-21.19,58.22-37.84,84.4
		c-63.92-64.25-128.05-128.72-192.46-193.46c60.59-60.57,123.28-123.1,185.72-185.9c5.77-5.81,6.97-3.25,10.24,2.14
		c24.98,41.27,39.01,86.26,46.3,133.61c0.35,2.25,4.17,38.32,4.17,43.07C872.94,521.4,874.6,506.96,870.67,537.32z"/>
</g>
</svg>
