<?xml version="1.0" encoding="utf-8"?>
<!-- Generator: Adobe Illustrator 25.2.0, SVG Export Plug-In . SVG Version: 6.00 Build 0)  -->
<svg version="1.1" id="레이어_1" xmlns="http://www.w3.org/2000/svg" xmlns:xlink="http://www.w3.org/1999/xlink" x="0px"
	 y="0px" viewBox="0 0 400 400" style="enable-background:new 0 0 400 400;" xml:space="preserve">
<style type="text/css">
	.st0{fill:#FFFFFF;}
	.st1{fill:#F4F4F4;}
</style>
<g>
	<path class="st0" d="M239,108c-1.3,0-2.2,0.7-2.9,1.7c-0.8,1.1-0.8,2.5,0.2,3.2c3.7,2.9,7.6,5.6,11.5,8.3c1.1,0.8,2.3,0.2,3.2-0.6
		c0.9-0.8,1.4-1.8,1-3.2C251.4,115.9,240.6,108,239,108z M146.7,123.8c3.5-1.2,6.1-4.3,9.5-6.5c1.4-0.9,1.9-2.4,1.1-3.9
		c-1-1.8-2.9-2.2-4.3-1.3c-3.2,2-6.2,4.4-9.2,6.8c-1,0.8-1,2.1-0.4,3.2C143.8,123.3,144.9,123.8,146.7,123.8z M143.5,80.8
		c1.5-0.6,2.9-1.5,2.9-3.5c0-2.1-1.3-3-3.3-3c-2,0-3.2,1.1-3.1,3.2C140.2,79.3,141.4,80.4,143.5,80.8z M261.8,77
		c-0.5-1.8-1.6-2.9-3.6-2.7c-1.8,0.1-2.7,1.3-2.7,3c0.1,1.9,1.3,3.2,3.2,3.1C260.6,80.4,261.7,79,261.8,77z"/>
	<path class="st0" d="M247.3,49.8c-2.6,1.6-5.1,3.2-7.7,4.8c-1.9,1.2-3.8,2.9-5.8,0.5c-1.8-2.2-0.3-4.1,1.3-5.7
		c5.3-3.3,10.6-6.6,15.8-9.9c2-1.3,4-2.3,5.6,0.3c1.6,2.6-0.2,4-2.2,5.2C252,46.5,249.7,48.2,247.3,49.8z"/>
	<path class="st0" d="M156.2,48.3c0.9,1.8,0.3,3.3-1.2,4.4c-1.8,1.3-3.1,0.2-4.5-0.8c-1.4-1-2.7-1.9-4.1-2.9
		c-2.6-1.9-5.1-3.8-7.7-5.7c-1.9-1.4-2.6-3.2-1.1-5.2c1.5-1.9,3.3-1.3,4.9-0.1C147,41.4,151.6,44.9,156.2,48.3z"/>
	<path class="st0" d="M239,108c1.6,0,12.4,7.9,12.9,9.4c0.5,1.3-0.1,2.3-1,3.2c-0.9,0.9-2.1,1.4-3.2,0.6c-3.9-2.7-7.7-5.4-11.5-8.3
		c-1-0.8-1-2.1-0.2-3.2C236.8,108.7,237.7,108,239,108z"/>
	<path class="st0" d="M146.7,123.8c-1.8,0-2.8-0.5-3.4-1.6c-0.6-1.1-0.6-2.5,0.4-3.2c3-2.4,6-4.8,9.2-6.8c1.5-0.9,3.4-0.5,4.3,1.3
		c0.8,1.6,0.3,3-1.1,3.9C152.8,119.5,150.1,122.6,146.7,123.8z"/>
	<path class="st0" d="M143.5,80.8c-2.1-0.3-3.3-1.4-3.4-3.3c-0.1-2,1.1-3.1,3.1-3.2c1.9,0,3.3,1,3.3,3
		C146.4,79.3,145,80.2,143.5,80.8z"/>
	<path class="st0" d="M261.8,77c-0.1,2-1.2,3.3-3.1,3.5c-1.9,0.1-3.1-1.2-3.2-3.1c-0.1-1.7,0.9-2.9,2.7-3
		C260.2,74.2,261.3,75.3,261.8,77z"/>
	<path class="st0" d="M167.5,79.9c10.3-16.1,19.9-30.9,29.4-45.7c0.3,0.1,0.6,0.2,0.9,0.3c0,10.6,0,21.1,0,31.7c0,1.9-1,2.6-2.6,3.2
		C186.5,72.6,177.7,76,167.5,79.9z"/>
	<path class="st0" d="M231,79.3c-8.8-3.4-17.6-6.8-26.5-10c-2.2-0.8-2.2-2.2-2.2-3.9c0-10.1,0-20.3,1-31
		c9.4,14.8,18.7,29.7,28.1,44.5C231.3,79,231.1,79.1,231,79.3z"/>
	<path class="st0" d="M197.8,95.4c-9.8-3.7-19-7.2-29.3-11.1c9.7-3.8,18.7-7.2,27.6-10.6c1.6-0.6,1.6,0.6,1.6,1.6
		C197.8,81.8,197.8,88.3,197.8,95.4z"/>
	<path class="st0" d="M169.2,89.3c9.7,3.7,18,6.9,26.3,9.9c1.7,0.6,2.4,1.6,2.4,3.3c0,6.5,0,13,0,20.9
		C188.1,111.8,179.1,101.1,169.2,89.3z"/>
	<path class="st0" d="M229.8,90.9c-8.8,10.4-17.7,20.9-27.5,32.5c0-8.1,0-15,0-21.9c0-1.4,1.2-1.8,2.4-2.2c8.2-3,16.4-6.1,24.6-9.1
		C229.5,90.4,229.6,90.6,229.8,90.9z"/>
	<path class="st0" d="M202.6,95.3c0-7.5,0-14.5,0-22.1c9.6,3.7,18.9,7.4,29.1,11.4C221.4,88.4,212.2,91.8,202.6,95.3z"/>
	<path class="st0" d="M231.4,78.8c0.4,0.3,0.5,0.6,0.1,1c-0.2-0.2-0.3-0.4-0.5-0.6C231.1,79.1,231.3,79,231.4,78.8z"/>
	<path class="st0" d="M138.7,272c0.8-1.6,2.6-1.3,3.9-1.8c16.9-6.3,27.5-22.6,26.5-40.8c-1-17.4-13.5-32.7-30.6-36.7
		c-6.7-1.6-13.6-2-21.3,0.1c7.3-11.3,15.7-20.4,26-27.9c28.8-20.8,85.6-19,112.3,0.2c0.3,1,1.1,1.3,2,1.4c0,0-0.1-0.1-0.1-0.1
		c0.4,0.4,0.8,0.7,1.1,1.1c0,0,0-0.1,0-0.1c-0.2,1.6,1.1,2.3,1.9,3.4c4.8,6.9,11.3,12.5,14.2,20.6c-21.5-0.5-39.2,13.5-42.5,33.5
		c-3.4,21.3,8.5,39.9,29.9,46.5c-0.3,0.4-0.6,0.8-0.9,1.2c-2.2-0.3-4.3-0.7-6.5-0.9c-8.4-1-16.8-0.8-25.2,0.4
		c-1.7,0.2-3.2,0.8-3.1,2.6c0.2,2.1,1.9,2.5,3.8,2c0.5-0.1,1-0.2,1.5-0.3c20.8-3.4,40.7-1.5,58.6,10.8c0.5,0.4,1.1,0.8,1.7,0.1
		l-0.1-0.1c-0.1,2.1,1.7,2.5,3.1,3.1l-0.1-0.1c0.4,0.7,0.8,1.3,1.2,2c-2.7,8.9-6.3,17.4-11.3,25.3c-12.3,19.4-30.3,31.7-50.8,40.9
		c-3,1.4-6.6,1.6-9,4.2c0,0,0-0.2,0-0.2c-1.5,0.2-3.1-0.4-4.2,1.2c0,0,0.1-0.2,0.1-0.2c-0.9,0.3-1.9,0.6-2.8,0.8
		c-27.3,4.5-52.8-0.8-76.8-13.9c-19-10.3-34.8-24.5-47.4-42c-1.9-2.7-3.7-3.7-7.1-3.1c-4.8,0.9-9.7,0.9-15.1-0.8
		c4.2-4.9,8.9-8.9,12.3-14.1c1-1.5,2.8-2.8,1.3-4.9c-1.5-2.1-3.4-0.7-5-0.1c-6.9,2.3-13.6,1.9-21.6-0.7c16.7-6.9,26.7-19,32.3-35.9
		c5.8,11.3,14,18.4,25.2,22.1C123.7,273.3,131.2,272.6,138.7,272c-0.5,2.1-2.6,1.5-4,1.9c-6.9,1.8-13.4,4.7-19.5,8.4
		c-2.2,1.4-2.2,1.4-4.4,4.7c19.1-12.4,39.1-14.3,60.1-10.3c1.9,0.4,3.7,0.2,3.9-2c0.2-2.2-1.7-2.5-3.5-2.7
		c-8.9-1.2-17.9-1.3-26.8-0.1C142.5,272.1,140.6,273.4,138.7,272z M102,293.3c0.9,0.6,1.2,0,1.4-0.7c0.4-0.2,0.9-0.4,1.3-0.7
		c0.5-0.5,1-1,1.6-1.5c0.4-0.3,0.7-0.6,1.1-0.9c0.8-0.6,1.6-1.2,2.4-1.7c0.4-0.4,1.1-0.8,0.4-1.4c-0.6-0.6-1,0.1-1.4,0.5
		c-0.8,0.6-1.5,1.2-2.3,1.8c-0.3,0.3-0.6,0.6-1,0.9c-0.5,0.6-1,1.1-1.5,1.7c-0.3,0.3-0.7,0.7-1,1C102.5,292.4,102.1,292.7,102,293.3
		c-0.3,0.4-0.6,0.8-0.9,1.1c-1,0.5-1.7,1.2-2,2.9c1.4-1.1,2.6-1.5,1.9-3C102,294.7,102.3,294.3,102,293.3z M232,301.4
		c8,0.2,15.5-1.3,22.1-5.9c1.2-0.8,3.9-1.5,2.4-3.6c-1.2-1.7-2.6,0.5-3.8,1.1c-13.2,7.7-34.4,4.8-44.7-6.1c-2.3-2.5-4.9-5.4-3.9-8.9
		c1.1-3.9,4.9-5.5,8.8-5.8c3-0.3,5.3-1.3,6.1-4.3c0.9-3.5-1.7-5.4-4.2-6.8c-9.4-4.9-18.9-4.6-28.1,0.4c-2.5,1.3-5.2,3.1-4.5,6.6
		c0.7,3.6,3.5,4.5,6.8,5c3.2,0.4,6.8,1.3,8,4.5c1.3,3.5-1.3,6.4-3.5,9c-9.7,11-30.7,14-43,6.3c-1-0.6-2.1-2.6-3.3-0.8
		c-1,1.5,1,2.3,1.9,3c6.8,5.3,14.7,6.7,23,5.9c3.4-0.3,4.6,0.4,4.5,3.7c0,1.2,0.4,2.3,0.7,3.5c2.9,11.4,12.4,19.7,22.8,20.1
		c10.2,0.3,20.1-7.6,23.6-19c0.5-1.6,1-3.3,1-4.9c0-2.8,0.8-4,3.8-3.2C229.6,301.5,230.9,301.4,232,301.4z M271,308.6
		c-0.4-3.2-1.2-7-2.9-10.5c-6.1-12.6-24.4-21.8-39-19.7c-1.5,0.2-2.8,0.8-2.8,2.4c0,1.9,1.5,2.4,3.2,2.4c4.7-0.1,9.4,0,14.2,0.7
		c12.4,1.9,21.2,8.2,25.5,20.3C269.8,305.9,270.5,307.6,271,308.6z M132.7,300.1c10.4-13,16.9-16.5,32.4-16.9c1.9-0.1,3.7,0,5.6,0
		c1.9,0.1,4.1,0.1,4.1-2.5c-0.1-2.1-2.1-2.3-3.9-2.2c-7.3,0.5-14.5,1.3-21.3,4.1C141.5,286,135.6,291.6,132.7,300.1z M130.8,306
		c0.8-1.6,2.1-2.6,1.4-4.4C131.1,302.6,130.7,303.8,130.8,306z M130.2,308.6c0,0.3,0,0.6,0,1c0,0-0.2,0-0.3,0c0-0.3,0-0.6,0.1-1
		C129.9,308.6,130.1,308.6,130.2,308.6z"/>
	<path class="st0" d="M128.3,196c19.9-0.1,36.2,16.2,36.2,36c0,19.8-16.3,36.1-36.2,36.1c-19.7-0.1-35.7-16.1-35.9-35.8
		C92.3,212.4,108.4,196,128.3,196z M117.2,208c-0.1-2.8,1.3-5.3,2.4-8.2c-11.6,3.7-18.6,16.4-16.2,28.5c2.7,13.4,14.8,22,28.9,20.4
		c12.3-1.3,22.3-12.8,22.3-25.5c0-11.2-8.7-22.7-17.9-23.6c1.8,2.4,2.8,5.1,3,8c-1.8,7.1-5.6,10.7-11.4,10.6
		C122.6,218.3,119,215,117.2,208z"/>
	<path class="st0" d="M308.3,231.8c0.1,19.9-16.1,36.2-36,36.3c-19.8,0.1-36.1-16.2-36.1-36.1c0-19.6,16.1-35.8,35.7-36
		C291.9,195.8,308.2,211.9,308.3,231.8z M263.3,199.8c-1.8-0.2-3.2,0.9-4.6,1.8c-11.9,7.5-15.5,23.2-8.3,35.2
		c7.1,11.8,22.5,15.8,34.6,9.1c9.3-5.2,14.4-15.8,12.9-26.6c-1.2-8.5-8.9-18.6-17.5-19.8c1.9,2.6,2.6,5.2,3,8
		c-1.6,7.1-5.5,10.8-11.2,10.8c-5.6,0-9.6-3.7-11.1-10.3c0-2.9,1-5.5,2.4-8c0.2-0.2,0.3-0.4,0.5-0.6
		C263.8,199.5,263.6,199.7,263.3,199.8z"/>
	<path class="st0" d="M225,362.7c2.4-2.6,6-2.9,9-4.2c20.5-9.2,38.5-21.5,50.8-40.9c5-7.9,8.6-16.4,11.3-25.3c0.7,0,1.4,1.2,2.1,0
		c-0.9,2.6,2.1,2.7,2.7,4.4c0.3,0.1,0.5,0.2,0.8,0.3c0-0.1,0.1-0.2,0.1-0.3c-0.3-0.5-0.7-0.3-1,0.1c0.6-2.4-1.4-3.2-2.7-4.5
		c-0.4-0.6-0.9-1.3-1.3-1.9c1-9.2,3.1-18.2,2.3-27.5c3.7-3.9,7.5-7.8,10.1-14.2c6.1,16.7,15.6,29.3,32,35.6
		c-7.3,3.3-13.4,3.6-21.7,1c-1.6-0.5-3.2-1.5-4.5,0.3c-1.4,1.9,0.2,3.2,1.2,4.5c1.9,2.6,4,5.1,6.1,7.5c2,2.3,4.1,4.4,6.5,6.8
		c-5.2,2-10.3,1.9-15.2,1c-3.4-0.6-5.1,0.5-7.1,3.1c-18.4,24.9-41.8,43-71.7,52.2C231.6,361.7,228.5,363.1,225,362.7z"/>
	<path class="st0" d="M296.4,198.6c-3.7-1.5-6-3.6-7.9-6.6c-6.1-9.9-13.6-18.5-22.9-25.6c-1.9-1.5-2.4-2.2-0.1-3.9
		c9.5-7.1,18.8-14.3,28.2-21.5c0.8-0.6,1.7-1.2,2.6-1.6c7.5-4,12.4-1,12,7.4c-0.2,5.1-2.1,9.9-3.2,14.8
		C302.4,173.8,299.4,186,296.4,198.6z"/>
	<path class="st0" d="M136.2,164c-10.9,8.6-19.2,19-26,30.5c-0.3,0.6-0.8,1.1-1.3,1.5c-1.4,1-2.8,1.8-4.6,3
		c-3.5-14.2-6.9-28.1-10.2-42.1c-0.9-3.6-2.3-7-2.1-10.8c0.3-7.3,4.4-10,11.2-6.9c3.9,1.8,7,4.7,10.3,7.3
		C120.9,152.2,128.3,158,136.2,164z"/>
	<path class="st0" d="M299.1,262.9c0.8,9.3-1.4,18.4-2.3,27.5c-0.6,0-1.2-1-1.9-0.1c0,0,0.1,0.1,0.1,0.1c0-2.1-1.5-2.7-3.1-3.1
		c0,0,0.1,0.1,0.1,0.1c-0.5-1.8-2.3-2.4-3.6-3.3c-8.2-5.9-17.5-9.2-27.3-11.4c0.3-0.4,0.6-0.8,0.9-1.2
		C275.8,274.8,288.1,271.4,299.1,262.9z"/>
	<path class="st0" d="M274.6,191.4c-3-8.1-9.5-13.7-14.2-20.6c-0.8-1.1-2-1.8-1.9-3.4c10.1,6.1,17.3,15,24.7,24.9
		C279.9,192,277.3,191.7,274.6,191.4z"/>
	<path class="st0" d="M220.9,363.7c1-1.6,2.7-1,4.2-1.2C224,364.2,222.4,363.8,220.9,363.7z"/>
	<path class="st0" d="M218.2,364.3c0.9-0.3,1.9-0.6,2.8-0.8C220.4,364.7,219.2,364.2,218.2,364.3z"/>
	<path class="st0" d="M257.5,166.5c-0.9-0.1-1.7-0.4-2-1.4C256.2,165.6,256.8,166,257.5,166.5z"/>
	<path class="st0" d="M258.5,167.5c-0.4-0.4-0.8-0.7-1.1-1.1C258,166.5,258.5,166.7,258.5,167.5z"/>
	<path class="st1" d="M291.9,287.2c1.6,0.5,3.1,1,3.1,3.1C293.6,289.7,291.9,289.4,291.9,287.2z"/>
	<path class="st1" d="M130.8,306c-0.1-2.2,0.3-3.4,1.4-4.4C132.9,303.4,131.6,304.4,130.8,306z"/>
	<path class="st1" d="M109.8,287.8c-0.8,0.6-1.6,1.2-2.4,1.7c-0.3-0.3-0.6-0.5-0.8-0.8c0.8-0.6,1.5-1.2,2.3-1.8
		C109.2,287.2,109.5,287.5,109.8,287.8z"/>
	<path class="st1" d="M101,294.3c0.7,1.5-0.6,1.9-1.9,3C99.4,295.6,100.1,294.9,101,294.3C101.1,294.4,101,294.3,101,294.3z"/>
	<path class="st1" d="M295,290.3c0.7-0.9,1.2,0.1,1.9,0.1c0.4,0.6,0.9,1.3,1.3,1.9c0,0,0.1-0.1,0.1-0.1c-0.7,1.2-1.4,0-2.1,0
		C295.8,291.6,295.4,291,295,290.3z"/>
	<path class="st1" d="M130.2,308.6c-0.1,0-0.2,0-0.2,0c0,0.3,0,0.6-0.1,1c0.1,0,0.3,0,0.3,0C130.2,309.3,130.2,308.9,130.2,308.6z"
		/>
	<path class="st1" d="M106.3,290.4c-0.5,0.5-1,1-1.6,1.5c-0.2-0.2-0.4-0.4-0.6-0.6c0.5-0.6,1-1.1,1.5-1.7
		C105.8,289.9,106,290.2,106.3,290.4z"/>
	<path class="st1" d="M108.9,287c0.4-0.4,0.7-1.1,1.4-0.5c0.7,0.6-0.1,1-0.4,1.4C109.5,287.5,109.2,287.2,108.9,287z"/>
	<path class="st1" d="M103.1,292.3c0.3-0.3,0.7-0.7,1-1c0.2,0.2,0.4,0.4,0.6,0.6c-0.4,0.2-0.9,0.5-1.3,0.7
		C103.4,292.6,103.1,292.3,103.1,292.3z"/>
	<path class="st1" d="M102.1,293.4c0-0.6,0.4-1,1-1c0,0,0.3,0.2,0.3,0.2C103.2,293.3,103,293.9,102.1,293.4L102.1,293.4z"/>
	<path class="st1" d="M102,293.3c0.3,1,0,1.4-1,1c0,0,0.1,0.1,0.1,0.1C101.4,294.1,101.8,293.7,102,293.3
		C102.1,293.4,102,293.3,102,293.3z"/>
	<path class="st1" d="M105.6,289.6c0.3-0.3,0.6-0.6,1-0.9c0.3,0.3,0.6,0.5,0.8,0.8c-0.4,0.3-0.7,0.6-1.1,0.9
		C106,290.2,105.8,289.9,105.6,289.6z"/>
	<path class="st0" d="M117.2,208c-7.2,5.7-9.7,13.7-6.7,21.9c2.9,7.9,10.5,13.1,18.7,12.8c8.3-0.3,15.5-5.7,18-13.8
		c2.5-8-0.3-16-7.5-21.2c-0.2-2.9-1.2-5.6-3-8c9.2,0.9,17.9,12.4,17.9,23.6c0,12.7-10,24.1-22.3,25.5c-14.1,1.5-26.2-7.1-28.9-20.4
		c-2.4-12.2,4.5-24.8,16.2-28.5C118.5,202.7,117.1,205.2,117.2,208z"/>
	<path class="st0" d="M261.1,208.1c-6.9,4.9-9.7,13-7.2,20.9c2.5,8,9.8,13.6,18.1,13.8c8.6,0.2,16.2-5.2,18.9-13.4
		c2.7-8.2,0-16.2-7.4-21.8c-0.4-2.8-1.2-5.5-3-8c8.6,1.2,16.4,11.3,17.5,19.8c1.5,10.8-3.6,21.4-12.9,26.6
		c-12.1,6.7-27.5,2.7-34.6-9.1c-7.3-12-3.6-27.7,8.3-35.2c1.4-0.9,2.8-2,4.6-1.8l0.2,0.2C262.2,202.5,261.1,205.1,261.1,208.1z"/>
	<path class="st0" d="M263.3,199.8c0.2-0.1,0.5-0.3,0.7-0.4c-0.2,0.2-0.3,0.4-0.5,0.6C263.6,200,263.3,199.8,263.3,199.8z"/>
	<path class="st1" d="M300.9,296.7c-0.6-1.7-3.6-1.8-2.7-4.4c0,0-0.1,0.1-0.1,0.1c1.3,1.2,3.4,2,2.7,4.5L300.9,296.7z"/>
	<path class="st1" d="M300.8,296.8c0.3-0.3,0.6-0.5,1-0.1c0,0-0.1,0.2-0.1,0.3c-0.3-0.1-0.5-0.2-0.8-0.3
		C300.9,296.7,300.8,296.8,300.8,296.8z"/>
	<path class="st0" d="M213.5,316.3c-7.3,8.9-17.3,9-25.5,0.4C194.4,310.2,205.5,310.1,213.5,316.3z"/>
	<path class="st0" d="M200.7,298.4c-3.1,0.2-7.1-1-6.7-3.5c0.4-2.6,4.2-6.4,6.6-6.4c2.3-0.1,5,3.8,6.9,6.3
		C208.4,296,204.3,298.4,200.7,298.4z"/>
</g>
</svg>
