<?xml version="1.0" encoding="utf-8"?>
<!-- Generator: Adobe Illustrator 25.2.0, SVG Export Plug-In . SVG Version: 6.00 Build 0)  -->
<svg version="1.1" xmlns="http://www.w3.org/2000/svg" xmlns:xlink="http://www.w3.org/1999/xlink" x="0px" y="0px"
	 viewBox="0 0 400 400" style="enable-background:new 0 0 400 400;" xml:space="preserve">
<style type="text/css">
	.st0{fill:#000000;}
</style>
<g id="레이어_2">
</g>
<g id="레이어_1">
	<g>
		<g>
			<path class="st0" d="M257.8,48.7H122l-11.2,62.9l122.5,0.2c60.3,0,78.2,21.9,77.6,58.3c-0.2,18.6-8.4,50.1-11.8,60.3
				c-9.3,27.2-28.4,58.3-100,58.2L80,288.4l-11.2,62.9h135.5c47.8,0,68.1-5.6,89.6-15.5c47.7-22,76.1-69.1,87.5-130.6
				C398.2,113.8,377.1,48.7,257.8,48.7L257.8,48.7z"/>
		</g>
		<g>
			<path class="st0" d="M63.4,168.4c-35.5,0-40.6,23.1-44,37.2c-4.4,18.4-5.8,25.8-5.8,25.8h139c35.5,0,40.6-23.1,44-37.2
				c4.4-18.4,5.8-25.8,5.8-25.8H63.4z"/>
		</g>
	</g>
</g>
</svg>
