<?xml version="1.0" encoding="utf-8"?>
<!-- Generator: Adobe Illustrator 25.2.0, SVG Export Plug-In . SVG Version: 6.00 Build 0)  -->
<svg version="1.1" xmlns="http://www.w3.org/2000/svg" xmlns:xlink="http://www.w3.org/1999/xlink" x="0px" y="0px"
	 viewBox="0 0 400 400" style="enable-background:new 0 0 400 400;" xml:space="preserve">
<style type="text/css">
	.st0{fill:#FFFFFF;}
</style>
<g id="레이어_2">
</g>
<g id="레이어_1">
	<g>
		<path class="st0" d="M232.2,13.1c0,2,0,3.7,0,5.4c0,96.3,0,192.6,0.1,288.9c0,4.1-1.1,5.9-5,7.4c-18.2,7-36.4,14.4-54.5,21.8
			c-3.4,1.4-5,1.9-5-3c0.1-96.1,0.1-192.3,0.1-288.4c0-2.6,0.2-4.4,3-5.7c19.7-8.5,39.3-17.2,58.9-25.8
			C230.5,13.4,231.2,13.4,232.2,13.1z"/>
		<path class="st0" d="M346.3,362.6c-20.5-10.8-40.4-21.3-60.3-31.7c-2.4-1.3-2.2-3.1-2.2-5.2c0-11.5,0-23,0-34.5c0-48,0-96,0-144
			c0-1.9,0-3.7,0-5.4c1.4-0.7,2.3-0.1,3.2,0.3c18.6,8.9,37.2,17.8,55.8,26.5c2.6,1.2,3.8,2.6,3.8,5.8c-0.1,61.7-0.1,123.4-0.1,185.2
			C346.5,360.3,346.4,361,346.3,362.6z"/>
		<path class="st0" d="M116.4,197.7c0,2.6,0,4.3,0,5.9c0,50.2,0,100.5,0.1,150.7c0,3.7-0.9,5.8-4.5,7.4c-18.1,7.9-36.1,16.1-54,24.3
			c-3.5,1.6-4.6,1.4-4.6-2.8c0.1-50.6,0.1-101.1,0.1-151.7c0-2.1-0.1-3.9,2.4-5C75.7,217.1,95.5,207.6,116.4,197.7z"/>
	</g>
</g>
</svg>
