<?xml version="1.0" encoding="utf-8"?>
<!-- Generator: Adobe Illustrator 25.2.1, SVG Export Plug-In . SVG Version: 6.00 Build 0)  -->
<svg version="1.1" id="레이어_1" xmlns="http://www.w3.org/2000/svg" xmlns:xlink="http://www.w3.org/1999/xlink" x="0px"
	 y="0px" viewBox="0 0 1000 1000" style="enable-background:new 0 0 1000 1000;" xml:space="preserve">
<style type="text/css">
	.st0{fill:#494949;}
	.st1{fill:#070303;}
	.st2{fill:#FEFDFD;}
	.st3{fill:none;}
</style>
<g>
	<g>
		<path class="st0" d="M616.32,240.48c0,0-27.49-2.63-28.38-29.12c0,0-1.88-13.23,11.65-12.69c13.54,0.54,8.56,13.15,8.56,13.15
			s-1.03,10.82,18.4,9.16c0,0,9.43,3.32,5.67,7.9C628.46,233.46,629.66,236.35,616.32,240.48z"/>
		<g>
			<path class="st0" d="M168.04,604.84c14-28.83,19.56-60.35,28.53-90.75c11.54-39.12,21.16-78.81,32.69-117.93
				c7.36-24.98,33.49-33.65,53.96-17.96c57.97,44.45,115.44,89.56,173.11,134.4c23.31,18.12,46.45,36.47,70,54.27
				c19.12,14.46,24.44,25.71,16.98,48.53c-15.87,48.51-32.99,96.6-49.67,144.84c-10.88,31.47-21.33,63.11-33.02,94.28
				c-11.06,29.49-34.28,36.08-58.29,16.3c-57.67-47.5-114.78-95.67-172.16-143.51c-20.63-17.2-41.42-34.22-62.13-51.32
				C145.03,656.67,168.04,628.56,168.04,604.84z M409.97,641.42c0.46-49.25-32.59-99.68-74.74-117.73
				c-9.25-3.96-29,4.83-31.48,14.66c-9.61,37.98-18.9,76.03-28.24,114.08c-1.49,6.06-1.4,11.81,4.68,15.72
				c20.28,13.06,38.56,29.28,60.96,38.99c19.3,8.37,37.29,4.06,50.71-12.01C405.75,678.5,408.43,658.3,409.97,641.42z"/>
			<path class="st0" d="M479.76,280.07l7.58,11.37c0,0,7.74,5.46,19.84,4.77c12.11-0.69,24.32,19.91,24.32,19.91
				s18.58,7.84,23.89-10.89c0,0,4.48-6.35-13.27-13.78c-17.75-7.44,2.12-26.55,9.03-23.18c6.9,3.36,27.24,6.97,28.75,34.1
				c0,0-5.63,25.93,17.58,15.38c23.2-10.55,21.44-0.3,25.19-25.14l6.59,29.98l-67.49,16.46l-53.65-7.43l-28.35-26.39V280.07z"/>
			<path class="st1" d="M819.85,465.83c6.69,12.62,13.63,25.12,19.98,37.91c5.9,11.87,6.13,23.72-2.3,34.82
				c-18.36,12.37-36.56,13.58-54.8-0.42c-2.88-2.21-6.52-3.41-9.81-5.08c-4.29-10.37-14.58-15.01-21.71-22.67
				c-7.77-12.54-19.81-20.82-30.47-30.48c-4.83-4.38-10.79-5.51-16.6-3.45c-21.43,7.58-43.67,11.1-66.03,14.3
				c-2.8,0.4-7.11-0.74-8.02,3.42c-0.79,3.57,2.31,5.74,4.73,7.85c13.79,12.02,26.85,24.77,38.61,38.8c2.1,9,7.15,17.63,3.43,27.36
				c-10.65,15.55-26.95,14.69-42.93,14.77c-13.32-4.18-26.64-8.37-39.94-12.55c-0.55-0.88-0.9-2.15-1.7-2.59
				c-59.07-32.25-108.49-74.06-136.37-137.27c-8.61-25.33-13.7-51.55-19.71-77.54c-3.43-26.1-6.86-52.19-10.29-78.29
				c-1.99-30.78-12.9-59.6-19.81-89.29c-4.4-18.88-8.03-37.83-9.47-57.14c-0.59-7.95-1.98-16.87,5.71-22.29
				c8.64-6.09,17.16-0.14,23.87,3.98c17.8,10.94,34.9,23.08,51.74,35.47c7.51,5.53,13.68,7.24,23.3,4.07
				c39.9-13.16,80.13-16.04,119.45,2.44c7.52,3.53,11.89,0.18,17.33-3.5c18.2-12.32,36.07-25.26,55.05-36.28
				c24.69-14.34,31.68-10.23,31.33,17.7c-0.44,35.8-7.82,71.09-20.46,103.89c-12.24,31.74-6.74,60.89,0.15,91.17
				c1.99,8.75,3.35,17.98,9.77,25.11c0.58,5.95,3.14,10.71,7.67,14.78c13.95,12.53,27.59,25.42,41.5,38
				C784.15,421.88,800.29,445.39,819.85,465.83z M616.6,316.14l0.57,0.63l-0.46-0.72c2.4,0.32,3.51-0.63,3.09-3.11l0.96,0.78
				l-0.93-0.82c8.32-2.72,6.16-9.93,6.81-15.92c0.55-5,2.3-8.89,7.44-4.05c13.19,12.41,21.91,4.8,30.19-6.06
				c0,0,0.73-0.91,0.73-0.91c12.3-10.6,7.37-23.83,5.05-36.35c-0.75-4.02-5.63-5.2-9.37-4.06c-12.09,3.7-8.58-3.15-7.56-9.84
				c1.84-11.99,3.99-24.5-9.31-32.3l0.02,0.03c-6.9-11.86-19.39-6.58-29.19-9.52l-0.1-0.14c-8.76-10.76-18.68-11.95-29.24-2.94
				c-5.18,4.42-9.07,10.63-16.99,10.52c-2.86-17.48-16.34-14.14-27.58-13.25c-12.64,1.01-18.76,11.07-19.51,21.79
				c-0.76,10.78,6.36,18.92,17.57,21.77c3.61,0.92,7.43,1.04,11.15,1.53c2.77,0.37,5.85,1.16,6.13,4.17
				c0.37,3.93-2.85,5.1-6.24,5.91c-8.29,1.99-15.63-3.06-23.63-2.94l0.82-0.31l-0.82,0.36c-0.2-4.29-2.47-6.41-6.74-6.44l0.95-0.5
				l-1,0.39c-1.18-3.95-2.48-7.86-3.5-11.85c-4.36-17.02-9.7-18.07-24.78-4.8l-1.18,0.79c-4.03-0.15-5.3,1.99-4.7,5.68l0.16-0.29
				c-11.14,14.38-9.61,27.81,4.24,37.16c1.63,0.59,3.26,1.17,4.89,1.76c5.53,4.25,21.45-4.76,16.46,12.91
				c-6.46,4.99-11.09-2.7-17.07-2.51c-5.63,0.18-11.73-9.14-16.73-1.27c-4.03,6.34-2.78,14.14,4.23,19.4l0.63,0.64
				c1.74,5.11,4.92,7.75,10.57,6.15c2.68,0.4,5.36,0.8,8.04,1.2c3.72,3.61,8.22,4.05,13.03,3.18c0.71,1.08,1.41,2.16,2.12,3.24
				c-0.67,3.27,0.41,5.44,3.85,6.1c-0.4,2.52,0.68,3.8,3.23,3.86c6.03,3.71,10.24,10.37,19.69,7.29c8.83-2.87,16.49-6.26,18.34-15.7
				c1.64-8.34-3.36-14.03-10.81-17.74c-4.7-2.35-8.33-6.21-4.93-11.51c2.98-4.66,7.92-2.35,11.65-0.47
				c12.02,6.06,19.69,15.17,17.25,29.52c-2.54,14.96,0.89,19.31,16.38,17.82c7.92-0.76,16.04-1.66,23.19-5.88
				C616.14,319.57,616.71,318.28,616.6,316.14z"/>
			<path class="st0" d="M772.94,533.06c3.29,1.67,6.93,2.88,9.81,5.08c18.23,13.99,36.43,12.78,54.8,0.42
				c-3.38,27.48-15.76,52.25-24.1,78.19c-16.97,52.74-35.83,104.86-53.23,157.46c-6.7,20.27-18.77,35.05-38.49,42.72
				c-66.19,25.74-132.53,51.13-198.85,76.52c-11.95,4.58-24.67,3.19-36.8,1.9c-11.77-1.26-7.57-11.07-5.52-17.59
				c7.1-22.53,14.84-44.87,22.51-67.22c18.68-54.44,38.23-108.59,55.85-163.36c8.76-27.21,22.48-46.83,52.09-53.02
				c8.01-1.68,16.65-4.71,22.94-11.2c15.98-0.09,32.28,0.77,42.93-14.77c9-3.36,17.89-7.08,27.03-10.01
				C727.23,550.68,748.45,537.37,772.94,533.06z M721.52,679.96c-12.64,3.98-23.15,7.49-33.78,10.57
				c-5.35,1.55-13.32,8.51-15.54,3.11c-2.89-7.02-0.8-17.21,6.02-23.38c3.82-3.46,9.27-5.37,14.25-7.28
				c10.52-4.02,21.05-8.23,31.9-11.13c12.59-3.37,16.07-13.08,18.67-23.71c2.35-9.59-1.84-11.73-10.33-8.48
				c-17.05,6.53-33.97,13.41-51.22,19.38c-17.63,6.1-30.23,19.64-35.83,34.96c-15.09,41.28-26.57,83.87-39.49,125.94
				c-2.39,7.8,1.02,9.81,8.15,8.32c16.28-3.39,26.57-11.97,29.16-29.55c4.84-32.91,18.36-58.29,55.92-63.15
				C719.45,712.97,717.08,695.15,721.52,679.96z"/>
			<path class="st0" d="M425.92,274.72c3.43,26.1,6.86,52.19,10.29,78.29c-21.48,24.4-12.27,60.63,19.71,77.54
				c27.89,63.22,77.31,105.02,136.37,137.27c0.8,0.44,1.15,1.71,1.7,2.59c-13.81,7.2-25.73,0.07-35.46-7.41
				c-53.97-41.5-107.26-83.87-160.74-126c-34.16-26.91-68.55-53.56-102.25-81.04c-19.63-16.01-15.63-46.09,8.2-52.98
				C343.88,291.4,384.56,281.36,425.92,274.72z"/>
			<path class="st0" d="M819.85,465.83c-19.56-20.44-35.7-43.95-56.81-63.02c-13.92-12.57-27.55-25.46-41.5-38
				c-4.53-4.07-7.09-8.83-7.67-14.78c35.45,20.07,66.56,46.3,98.79,70.84C825.97,431.02,827.69,450.77,819.85,465.83z"/>
			<path class="st2" d="M409.97,641.42c-1.54,16.89-4.22,37.08-18.1,53.71c-13.43,16.08-31.41,20.38-50.71,12.01
				c-22.41-9.71-40.68-25.93-60.96-38.99c-6.08-3.91-6.17-9.66-4.68-15.72c9.34-38.04,18.63-76.1,28.24-114.08
				c2.49-9.83,22.23-18.63,31.48-14.66C377.38,541.74,410.43,592.16,409.97,641.42z M375.67,619.5c1.25-20.1-9.08-37.32-26.52-51.22
				c-9.66-7.7-15.47-7.45-18.37,6.2c-4.67,22.04-9.07,44.27-15.97,65.64c-5.95,18.42,7.94,22.49,17.93,28.92
				c10.55,6.79,21.55,5.81,30.38-4.41C373.65,652.45,375.59,637.7,375.67,619.5z"/>
			<path class="st3" d="M500.67,298.8c-2.68-0.4-5.36-0.8-8.05-1.21c-1.92-4.81-5.74-6.33-10.55-6.14c0,0-0.63-0.64-0.63-0.63
				c0.25-3.7,0.26-7.02-1.67-10.75c-1.95-3.76,1.93-8.67,5.09-5.43c5.75,5.91,16.19,1.01,20.14,11.15
				c2.39,6.14,10.74,8.87,16.25,3.14c6.59-6.86,3.05-12.7-5.21-15.89c-0.98-4.71-1.48-9.01,2.44-13.18
				c3.93-4.18,5.57-10.38-0.04-13.73c-6.12-3.65-12.52-1.32-15.92,5.41c-2.08,4.12-2.33,9.36-7.98,10.76
				c-1.63-0.59-3.26-1.17-4.89-1.76c-6.81-11.77-8.06-24.18-4.23-37.16c0,0-0.16,0.29-0.16,0.29c3.5-0.3,4.69-2.5,4.7-5.68
				c0,0,1.18-0.79,1.19-0.8c12.31-5.41,21.52-4.93,22.93,11.56c0.22,2.57,2.39,4.62,5.34,5.09l1-0.39c0,0-0.95,0.5-0.94,0.51
				c-0.18,4.69,1.89,7.02,6.74,6.44l0.82-0.36c0,0-0.82,0.31-0.82,0.31c8.18,10.81,19.4,5.97,29.57,5.37
				c3.9-0.23,6.67-3.79,6.42-8.05c-0.24-4.15-2.99-6.95-7.04-7.77c-3.67-0.74-7.53-0.52-11.19-1.3
				c-7.88-1.68-14.11-6.06-16.29-13.97c-2.34-8.47,3.15-14.12,8.83-19.39c13.44-12.48,21.88,0.61,31.82,6.12
				c3.5,7.73,7.81,4.38,12.4,1.08c3.79-2.73,5.85-7.7,11.09-8.51c0.19,2.46,0.37,4.93,0.56,7.39l0.12-0.17
				c-7.13,5.21-5.61,10.86-0.84,16.68c2.42,6.7,6.3,12.24,12.78,15.57c11.93,6.13,21.9,2.93,25.79-8.18
				c-4.9-9.74-13.69-3.05-20.47-4.86c-1.39-1.93-2.78-3.85-4.16-5.78c2.4-2.1,1.76-3.9-0.55-5.54c-0.1-2.41-0.19-4.83-0.29-7.24
				c0.23-10.5-9.43-3.99-13.17-7.66c7.52-9.07,15.31-0.3,22.97-0.37c0,0,0.1,0.14,0.1,0.14c7,11.53,20.23,4,29.19,9.52
				c0,0-0.02-0.03-0.02-0.03c1.23,11.52,7.76,21.66,3.4,34.85c-3.8,11.49-16.99,9.21-20.25,18.91c-2.02-0.09-4.03-0.18-6.05-0.26
				c-6.51-2.77-7.26,2.24-7.68,6.3c-0.53,5.11,2.9,7.85,7.59,8.65c13.99,2.4,24.57-3.08,32.59-14.4c2.39-3.37,4.47-8.47,9.44-7.16
				c5.68,1.5,5.8,7.5,5.51,12.05c-0.51,7.91-2.18,15.75-3.36,23.61c0,0-0.73,0.91-0.73,0.91c-8.61,0.82-16.85,15.21-25.76,0.99
				c-2.48-3.96-4.57-7.45-9.71-5.51c-4.51,1.7-5.67,5.76-6.16,10.25c-0.74,6.79-1.86,13.53-2.82,20.3l0.93,0.82
				c0,0-0.96-0.78-0.97-0.78c-2.23-0.15-3.25,0.89-3.09,3.11l0.46,0.72c0,0-0.57-0.63-0.58-0.62c-2.04-0.52-2.92,0.38-2.93,2.36
				c-7.15,4.22-15.27,5.12-23.19,5.88c-15.49,1.49-18.92-2.87-16.38-17.82c2.44-14.36-5.23-23.46-17.25-29.52
				c-3.73-1.88-8.67-4.18-11.65,0.47c-3.4,5.31,0.23,9.17,4.93,11.51c7.44,3.71,12.44,9.4,10.81,17.74
				c-1.85,9.43-9.51,12.82-18.34,15.7c-9.45,3.08-13.66-3.58-19.7-7.3c0.47-2.59-0.56-3.9-3.22-3.85c1-3.48-0.45-5.4-3.85-6.1
				c-0.71-1.08-1.41-2.16-2.13-3.25C510.79,294.99,506.22,294.88,500.67,298.8z M597.47,257.62c-0.79-5.28-1-9.65-2.16-13.74
				c-1.29-4.55-2.96-10.82-8.95-9.34c-7.65,1.89-5.15,7.73-2.7,12.96c2.95,6.29,1.45,12.57-0.51,18.87
				c-1.09,3.47-6.8,7.74,0.12,10.57c5.42,2.22,9.61-1.24,11.45-6.14C596.37,266.38,596.72,261.46,597.47,257.62z"/>
			<path class="st0" d="M673.44,540.83c-11.76-14.03-24.82-26.78-38.61-38.8c-2.42-2.11-5.51-4.27-4.73-7.85
				c0.91-4.15,5.23-3.02,8.02-3.42c22.36-3.2,44.6-6.72,66.03-14.3c5.82-2.06,11.77-0.93,16.6,3.45
				c10.65,9.66,22.7,17.93,30.46,30.47C726.06,522.48,700.06,532.45,673.44,540.83z"/>
			<path class="st2" d="M673.44,540.83c26.62-8.38,52.61-18.35,77.78-30.44c7.13,7.66,17.42,12.3,21.71,22.67
				c-24.49,4.31-45.7,17.61-69.04,25.11c-9.14,2.94-18.02,6.65-27.03,10.01C680.59,558.46,675.54,549.83,673.44,540.83z"/>
			<path class="st2" d="M455.93,430.55c-31.98-16.91-41.19-53.14-19.71-77.54C442.23,379,447.32,405.22,455.93,430.55z"/>
			<path class="st0" d="M626.97,257.18c3.26-9.71,16.45-7.42,20.25-18.91c4.36-13.19-2.17-23.34-3.4-34.85
				c13.3,7.8,11.14,20.32,9.31,32.3c-1.02,6.68-4.54,13.53,7.56,9.84c3.74-1.14,8.62,0.04,9.37,4.06
				c2.32,12.52,7.25,25.75-5.05,36.35c1.18-7.87,2.85-15.7,3.36-23.61c0.29-4.55,0.16-10.55-5.51-12.05
				c-4.97-1.31-7.06,3.79-9.44,7.16c-8.02,11.33-18.6,16.8-32.59,14.4c-4.7-0.8-8.12-3.55-7.59-8.65c0.42-4.06,1.17-9.06,7.68-6.29
				c-4.43,6.8-2.76,11.15,5.48,10.86c7.9-0.28,15.59-2.24,19.5-10.51c1.16-1.55,3.06-3.18,0.82-5.06c-2.24-1.89-3.49,0.36-4.86,1.69
				C636.9,254.99,631.94,256.08,626.97,257.18z"/>
			<path class="st0" d="M568.33,201.35c-9.93-5.51-18.38-18.61-31.82-6.12c-5.68,5.28-11.17,10.93-8.83,19.39
				c2.19,7.91,8.41,12.29,16.29,13.97c3.66,0.78,7.52,0.56,11.19,1.3c4.05,0.82,6.81,3.61,7.04,7.77c0.24,4.26-2.52,7.82-6.42,8.05
				c-10.18,0.6-21.39,5.44-29.57-5.37c8-0.12,15.34,4.92,23.63,2.94c3.39-0.81,6.61-1.98,6.24-5.91c-0.28-3-3.36-3.8-6.13-4.17
				c-3.72-0.49-7.54-0.61-11.15-1.53c-11.22-2.86-18.34-10.99-17.57-21.77c0.76-10.72,6.87-20.78,19.51-21.79
				C551.98,187.21,565.46,183.88,568.33,201.35z"/>
			<path class="st0" d="M516.03,273.03c8.26,3.2,11.8,9.04,5.21,15.9c-5.51,5.73-13.86,3-16.25-3.14
				c-3.95-10.14-14.39-5.24-20.14-11.15c-3.16-3.24-7.03,1.67-5.09,5.43c1.93,3.74,1.92,7.06,1.67,10.75
				c-7.01-5.27-8.26-13.06-4.24-19.4c5-7.87,11.1,1.45,16.73,1.27c5.98-0.19,10.61,7.5,17.07,2.51c0,0-0.2-0.27-0.2-0.27
				c-5.84,4.35-0.72,7.06,1.71,9.82c1.52,1.73,4.12,1.68,5.37-0.45c2.62-4.47-2.03-6.43-3.75-9.39
				C514.86,274.36,515.49,273.74,516.03,273.03z"/>
			<path class="st0" d="M619.84,312.9c0.96-6.76,2.08-13.51,2.82-20.3c0.49-4.49,1.65-8.55,6.16-10.25
				c5.14-1.94,7.23,1.55,9.71,5.51c8.91,14.22,17.15-0.17,25.76-0.99c-8.27,10.86-17,18.46-30.18,6.06
				c-5.14-4.84-6.9-0.95-7.44,4.05C626,302.97,628.16,310.18,619.84,312.9z"/>
			<path class="st0" d="M494.54,262.29c5.65-1.4,5.9-6.63,7.98-10.76c3.4-6.73,9.8-9.06,15.92-5.41c5.6,3.35,3.96,9.55,0.04,13.73
				c-3.92,4.17-3.43,8.47-2.44,13.18c-0.54,0.7-1.17,1.32-1.89,1.85c-1.11,0.01-2.22,0.02-3.34,0.03c0,0,0.2,0.27,0.2,0.27
				C515.99,257.53,500.07,266.54,494.54,262.29z"/>
			<path class="st0" d="M614.56,193.77c-7.66,0.07-15.46-8.71-22.97,0.37c0,0,0.23-0.22,0.23-0.22c-5.24,0.81-7.3,5.79-11.09,8.51
				c-4.59,3.3-8.89,6.65-12.4-1.08c7.92,0.11,11.8-6.1,16.99-10.52C595.87,181.83,605.8,183.01,614.56,193.77z"/>
			<path class="st0" d="M485.41,223.37c-3.83,12.98-2.58,25.38,4.23,37.16C475.8,251.18,474.27,237.75,485.41,223.37z"/>
			<path class="st0" d="M519.42,233.84c-2.95-0.48-5.12-2.52-5.34-5.09c-1.41-16.49-10.62-16.97-22.93-11.56
				c15.07-13.26,20.41-12.21,24.77,4.81C516.94,225.98,518.24,229.89,519.42,233.84z"/>
			<path class="st0" d="M643.85,203.43c-8.96-5.52-22.19,2.01-29.19-9.52C624.47,196.85,636.95,191.57,643.85,203.43z"/>
			<path class="st0" d="M482.06,291.45c4.81-0.19,8.63,1.33,10.55,6.14C486.98,299.2,483.81,296.56,482.06,291.45z"/>
			<path class="st0" d="M500.67,298.8c5.55-3.92,10.12-3.81,13.03,3.17C508.89,302.85,504.39,302.41,500.67,298.8z"/>
			<path class="st0" d="M526.21,240.39c-4.85,0.58-6.92-1.74-6.74-6.44C523.74,233.98,526.01,236.1,526.21,240.39z"/>
			<path class="st0" d="M515.83,305.22c3.4,0.7,4.85,2.63,3.86,6.1C516.23,310.66,515.16,308.49,515.83,305.22z"/>
			<path class="st0" d="M489.96,217.98c0,3.18-1.2,5.38-4.7,5.68C484.65,219.97,485.92,217.83,489.96,217.98z"/>
			<path class="st0" d="M616.72,316.05c-0.16-2.22,0.86-3.26,3.09-3.11C620.23,315.42,619.12,316.37,616.72,316.05z"/>
			<path class="st0" d="M519.68,311.32c2.67-0.05,3.7,1.26,3.22,3.85C520.36,315.12,519.28,313.84,519.68,311.32z"/>
			<path class="st0" d="M613.67,318.5c0.01-1.98,0.89-2.88,2.93-2.36C616.71,318.28,616.14,319.57,613.67,318.5z"/>
			<path class="st2" d="M721.52,679.96c-4.44,15.18-2.07,33.01-22.11,35.6c-37.56,4.85-51.08,30.24-55.92,63.15
				c-2.59,17.58-12.88,26.16-29.16,29.55c-7.13,1.48-10.54-0.52-8.15-8.32c12.92-42.07,24.39-84.67,39.49-125.94
				c5.6-15.32,18.2-28.85,35.83-34.96c17.24-5.97,34.17-12.85,51.22-19.38c8.5-3.25,12.68-1.12,10.33,8.48
				c-2.61,10.63-6.08,20.34-18.67,23.71c-10.85,2.9-21.37,7.12-31.9,11.13c-4.98,1.9-10.42,3.81-14.25,7.28
				c-6.82,6.18-8.92,16.36-6.02,23.38c2.23,5.4,10.2-1.56,15.54-3.11C698.37,687.45,708.88,683.95,721.52,679.96z"/>
			<path class="st0" d="M375.67,619.5c-0.08,18.2-2.02,32.95-12.54,45.13c-8.83,10.22-19.84,11.2-30.38,4.41
				c-10-6.44-23.88-10.5-17.93-28.92c6.9-21.38,11.31-43.61,15.97-65.64c2.89-13.65,8.71-13.9,18.37-6.2
				C366.59,582.18,376.92,599.4,375.67,619.5z"/>
			<path class="st1" d="M604.76,201.8c0.1,2.41,0.19,4.83,0.29,7.25c-1.33,2-1.15,3.84,0.55,5.53c1.39,1.93,2.78,3.85,4.17,5.78
				c5.36,7.83,13.57,3.56,20.46,4.85c-3.89,11.11-13.86,14.3-25.79,8.18c-6.48-3.33-10.37-8.87-12.79-15.58
				c0.28-5.56,0.56-11.11,0.84-16.67c0,0-0.12,0.17-0.12,0.17C596.5,201.47,600.63,201.64,604.76,201.8z"/>
			<path class="st0" d="M602.53,258.03c-1.11,4.8-1.62,10.96-4.06,16.49c-2.7,6.13-11.71,10.46-19.67,7.68
				c-10.16-3.55-1.77-8.88-0.17-13.23c2.89-7.88,5.08-15.74,0.76-23.6c-3.6-6.54-7.27-13.85,3.97-16.21
				c8.8-1.86,14.12,5.99,16.01,11.68C601.06,245.96,601.38,251.42,602.53,258.03z"/>
			<path class="st1" d="M597.47,257.62c-0.76,3.84-1.1,8.76-2.77,13.19c-1.84,4.9-6.03,8.36-11.45,6.14
				c-6.91-2.84-1.2-7.1-0.12-10.57c1.97-6.3,3.46-12.59,0.51-18.87c-2.45-5.23-4.95-11.07,2.7-12.96c5.99-1.48,7.67,4.79,8.95,9.34
				C596.47,247.97,596.69,252.33,597.47,257.62z"/>
			<path class="st1" d="M626.97,257.18c4.97-1.09,9.93-2.19,14.9-3.28c1.35,1.12,2.7,2.24,4.05,3.37
				c-3.93,8.27-11.62,10.23-19.51,10.51c-8.24,0.29-9.92-4.06-5.48-10.86C622.94,257,624.96,257.09,626.97,257.18z"/>
			<path class="st0" d="M630.23,225.21c-6.89-1.3-15.11,2.97-20.46-4.85C616.54,222.16,625.33,215.47,630.23,225.21z"/>
			<path class="st0" d="M592.49,201.14c-0.28,5.55-0.56,11.1-0.84,16.67C586.88,212.01,585.36,206.36,592.49,201.14z"/>
			<path class="st0" d="M605.59,214.58c-1.69-1.69-1.88-3.53-0.55-5.53C607.35,210.68,607.99,212.48,605.59,214.58z"/>
			<path class="st1" d="M641.87,253.89c1.37-1.33,2.62-3.58,4.86-1.69c2.24,1.88,0.34,3.5-0.82,5.06
				C644.57,256.14,643.22,255.01,641.87,253.89z"/>
			<path class="st1" d="M510.8,274.92c1.11-0.01,2.22-0.02,3.34-0.03c1.72,2.97,6.37,4.92,3.75,9.39c-1.25,2.13-3.85,2.19-5.37,0.45
				C510.09,281.98,504.96,279.27,510.8,274.92z"/>
		</g>
	</g>
	<path class="st1" d="M516.31,250.74l-0.85-0.6c-1.31-0.93-6.75,0.98-7.68,2.29l-2.24,6.73c-8.47,7.43-2,5.73-0.69,6.65l0.85,0.6
		c1.31,0.93,4.52-1.99,5.45-3.3l5.86-8.32C517.94,253.49,517.62,251.67,516.31,250.74z"/>
</g>
</svg>
