<svg width="40" height="40" viewBox="0 0 40 40" fill="none" xmlns="http://www.w3.org/2000/svg">
<path fill-rule="evenodd" clip-rule="evenodd" d="M24.271 17.1858L28.8387 14.5486L24.2706 11.9113L19.7304 9.28999L19.7032 9.27444L15.1355 11.9113L10.5813 14.5406L10.5674 14.5486V25.0974L10.5711 25.1001L15.1355 27.7347L19.7032 30.3719L19.7108 30.3672L24.2706 27.7347L28.8387 25.0974L24.271 22.4602L21.9871 23.779L19.7158 25.0902L19.7032 25.0974L17.419 23.779L15.1418 22.4639L15.1355 22.4602L19.7028 19.8232L15.1356 17.1858L15.1469 17.1795L17.4195 15.8674L19.703 14.5486L19.7255 14.5615L21.9872 15.8674L24.271 17.1858ZM19.7032 4L19.735 4.0182L26.5548 7.95534L33.4068 11.9113V27.7347L26.5548 31.6907L19.7055 35.6447L19.7032 35.646L12.8516 31.6907L6.00132 27.7353L6 27.735V11.9113L6.01654 11.9017L12.8516 7.95534L19.7032 4Z" fill="black"/>
</svg>
