<?xml version="1.0" encoding="UTF-8"?>
<svg width="134px" height="32px" viewBox="0 0 134 32" version="1.1" xmlns="http://www.w3.org/2000/svg" xmlns:xlink="http://www.w3.org/1999/xlink">
    <!-- Generator: Sketch 57.1 (83088) - https://sketch.com -->
    <title>Logo</title>
    <desc>Created with Sketch.</desc>
    <g id="Symbols" stroke="none" stroke-width="1" fill="none" fill-rule="evenodd">
        <g id="Header-/-Step-1" transform="translate(-135.000000, -14.000000)" fill="#000">
            <g id="Logo" transform="translate(135.000000, 14.000000)">
                <path d="M18.2710053,13.1856855 L22.8387097,10.5484864 L18.2706369,7.91126551 L13.7303557,5.28992556 L13.7032258,5.27437552 L9.13548387,7.91126551 L4.58130687,10.5405459 L4.56741108,10.5484864 L4.56741108,21.0973697 L4.57105045,21.1000165 L9.13548387,23.7345906 L13.7032258,26.3718114 L13.7108354,26.3671795 L18.2706369,23.7345906 L22.8387097,21.0973697 L18.2709677,18.4601489 L15.9870968,19.7789247 L13.7157982,21.090091 L13.7032258,21.0973697 L11.419024,19.7789247 L9.14177006,18.4637883 L9.13548387,18.4601489 L13.7028114,15.8231673 L9.13561621,13.1857403 L9.14686518,13.1794541 L11.4194872,11.8672953 L13.7030273,10.5485194 L13.7255252,10.5614227 L15.9872291,11.8672953 L18.2710053,13.1856855 L18.2710053,13.1856855 Z M13.7032258,-6.61703888e-05 L13.7349876,0.0181306865 L20.5548387,3.95526882 L27.4067825,7.91126551 L27.4067825,23.7345906 L20.5548387,27.6905873 L13.7055418,31.6445988 L13.7032258,31.6459222 L6.8516129,27.6905873 L0.00132340778,23.7352523 L-7.10542736e-15,23.7349214 L-7.10542736e-15,7.91126551 L0.0165425972,7.9016708 L6.8516129,3.95526882 L13.7032258,-6.61703888e-05 Z" id="Shape"></path>
                <path d="M79.0418859,7.78349049 C83.4822498,7.78349049 87.0815881,11.3831596 87.0815881,15.8231927 C87.0815881,20.2632258 83.4822498,23.8625641 79.0418859,23.8625641 C74.6018528,23.8625641 71.0021836,20.2632258 71.0021836,15.8231927 C71.0021836,11.3831596 74.6018528,7.78349049 79.0418859,7.78349049 Z M109.94263,7.78358974 C112.539487,7.78358974 114.846849,9.01568238 116.316824,10.9260215 L116.316824,10.9260215 L113.219388,13.4352026 C112.481588,12.4241191 111.290521,11.7644003 109.94263,11.7644003 C107.701439,11.7644003 105.884069,13.5817701 105.884069,15.823292 C105.884069,18.0648139 107.701439,19.8818528 109.94263,19.8818528 C111.290521,19.8818528 112.481588,19.222134 113.219388,18.2107196 L113.219388,18.2107196 L116.316824,20.7202316 C114.846849,22.6302399 112.539487,23.8626634 109.94263,23.8626634 C105.502597,23.8626634 101.902928,20.2633251 101.902928,15.823292 C101.902928,11.382928 105.502597,7.78358974 109.94263,7.78358974 Z M45.0261042,8.08158809 L45.0261042,11.7742266 L38.7475269,11.7742266 L38.7475269,14.1047477 L43.6639868,14.1047477 L43.6639868,17.7014392 L38.7475269,17.7014392 L38.7475269,19.8827461 L45.4836725,19.8827461 L45.4836725,23.5647974 L34.7356162,23.5647974 L34.7359471,8.08158809 L45.0261042,8.08158809 Z M57.9132175,8.081555 L57.9132175,11.7741935 L51.2941935,11.7741935 L51.2941935,14.6899917 L56.7102399,14.6899917 L56.7102399,18.3614557 L51.2941935,18.3614557 L51.2941935,23.5647643 L47.2716956,23.5647643 L47.2716956,8.081555 L57.9132175,8.081555 Z M70.2042349,8.08148883 L70.2042349,11.7741274 L63.5852109,11.7741274 L63.5852109,14.6899256 L69.0012572,14.6899256 L69.0012572,18.3613896 L63.5852109,18.3613896 L63.5852109,23.5646981 L59.562713,23.5646981 L59.562713,8.08148883 L70.2042349,8.08148883 Z M95.0844003,8.08148883 C98.9686022,8.08148883 100.724433,10.4120099 100.724433,13.5832258 C100.724433,15.7589082 99.8316477,17.2582932 98.3013252,18.0807954 L98.1067328,18.1800827 L98.0958147,18.2118445 L101.596559,23.5646981 L96.7763772,23.5646981 L93.8609098,18.8398015 L92.9027626,18.8398015 L92.9027626,23.5646981 L88.8802647,23.5646981 L88.8802647,8.08148883 L95.0844003,8.08148883 Z M128.06273,8.08148883 L128.06273,11.7741274 L121.783821,11.7741274 L121.783821,14.1046485 L126.700281,14.1046485 L126.700281,17.70134 L121.783821,17.70134 L121.783821,19.8826468 L128.520298,19.8826468 L128.520298,23.5646981 L117.771911,23.5646981 L117.772242,8.08148883 L128.06273,8.08148883 Z M79.0418859,11.7643011 C76.8006948,11.7643011 74.9833251,13.5816708 74.9833251,15.8231927 C74.9833251,18.0647146 76.8006948,19.8817535 79.0418859,19.8817535 C81.2834078,19.8817535 83.1007775,18.0647146 83.1007775,15.8231927 C83.1007775,13.5816708 81.2834078,11.7643011 79.0418859,11.7643011 Z M94.1586766,11.7208602 L92.9027626,11.7208602 L92.9027626,15.2540281 L94.1586766,15.2540281 C95.4781141,15.2540281 96.4253433,14.6472457 96.4253433,13.4872787 C96.4253433,12.5403805 95.6696774,11.7208602 94.1586766,11.7208602 Z" id="Combined-Shape"></path>
                <path d="M131.45727,8.09793218 C132.493168,8.09793218 133.287874,8.92671629 133.287874,9.93813069 C133.287874,10.9740281 132.464053,11.77866 131.447676,11.77866 C130.421704,11.77866 129.607477,10.9789909 129.607477,9.93813069 C129.607477,8.936311 130.39292,8.09793218 131.452639,8.09793218 L131.452639,8.09793218 Z M131.452639,8.30537634 C130.517982,8.30537634 129.828486,9.0471464 129.828486,9.93813069 C129.828486,10.8489661 130.542134,11.5715467 131.447676,11.5715467 C132.343954,11.5715467 133.061902,10.8585608 133.061902,9.93813069 C133.061902,9.05177833 132.382333,8.30537634 131.452639,8.30537634 L131.452639,8.30537634 Z M131.539123,8.88797353 C131.756162,8.88797353 132.281224,8.94124069 132.281224,9.4616708 C132.281224,9.67341605 132.184946,9.86597188 131.895782,9.97680728 C132.141605,10.048933 132.223325,10.2034409 132.237883,10.4588586 C132.266667,10.8631596 132.266667,10.9068321 132.310008,10.9935153 L132.310008,10.9935153 L132.050289,10.9935153 C132.016212,10.9356162 132.006617,10.7959967 131.986766,10.5068321 C131.972539,10.2709347 131.944086,10.0830108 131.438213,10.0830108 L131.438213,10.0830108 L130.917783,10.0830108 L130.917783,10.9935153 L130.657734,10.9935153 L130.657734,8.88797353 Z M131.539562,9.08589732 L130.917783,9.08549214 L130.917783,9.89012407 L131.447808,9.89012407 C131.587428,9.87589744 132.021175,9.88549214 132.021175,9.47589744 C132.021175,9.09045492 131.635732,9.08549214 131.495782,9.08549214 Z" id="Combined-Shape"></path>
            </g>
        </g>
    </g>
</svg>