<?xml version="1.0" encoding="iso-8859-1"?>
<!-- Generator: Adobe Illustrator 25.4.1, SVG Export Plug-In . SVG Version: 6.00 Build 0)  -->
<svg version="1.1" id="&#xB808;&#xC774;&#xC5B4;_1" xmlns="http://www.w3.org/2000/svg" xmlns:xlink="http://www.w3.org/1999/xlink"
	 x="0px" y="0px" viewBox="0 0 1000 1000" style="enable-background:new 0 0 1000 1000;" xml:space="preserve">
<g id="KRglFW.tif">
	<g>
		<path d="M509.115,164.01c0,0.295,0.014,0.589,0.041,0.882c1.619,1.955,1.572,4.317,1.575,6.643
			c0.029,22.937,0.038,45.874-0.013,68.811c-0.005,2.29,0.246,4.712-1.617,6.578c-5.039-0.144-10.079-0.287-15.118-0.431
			c-2.595,0.081-4.029-1.134-4.271-3.748c-0.092-0.992-0.183-1.982-0.185-2.977c-0.037-23.217-0.037-46.435,0.004-69.652
			c0.004-2.156-0.002-4.346,1.587-6.106C497.117,164.01,503.116,164.01,509.115,164.01z"/>
		<path d="M491.118,164.01c0,25.699,0.017,51.398-0.028,77.096c-0.004,2.418-0.079,4.662,2.894,5.388
			c-4.95,0.476-9.9,0.952-14.849,1.428c-1.86-1.862-1.609-4.279-1.614-6.566c-0.05-22.896-0.046-45.793-0.006-68.689
			c0.004-2.304-0.156-4.695,1.607-6.593c1.54-0.994,3.797-0.257,4.999-2.065C486.453,164.01,488.785,164.01,491.118,164.01z"/>
		<path d="M984.175,580.23c0.284-0.023,0.566-0.008,0.846,0.044c0,1.664,0,3.328,0,4.991l-0.421,0.051l-0.424-0.006
			C982.557,583.617,982.557,581.924,984.175,580.23z"/>
		<path d="M126.939,651.303c-15.51-7.986-31.037-15.939-46.526-23.965c-17.427-9.03-34.807-18.15-52.232-27.182
			c-7.343-3.806-11.984-9.321-12.104-17.967c-0.121-8.771,4.072-14.689,11.716-18.679c33.168-17.315,66.288-34.721,99.425-52.094
			c1.577-0.065,1.855,1.155,2.177,2.262c0.47,1.616,0.419,3.293,0.42,4.954c0.019,41.741,0.05,83.481-0.077,125.221
			C129.73,646.459,131.168,650.08,126.939,651.303z"/>
		<path d="M14.979,416.563c0.818-7.665,4.526-13.283,11.45-16.929c31.442-16.553,62.837-33.195,94.26-49.782
			c0.409-0.216,0.975-0.135,1.467-0.193c3.471,1.195,2.573,4.258,2.59,6.661c0.13,17.943,0.062,35.888,0.067,53.832
			c0.001,4.818,0.012,9.637-0.009,14.455c-0.01,2.343-0.068,4.673-1.619,6.641c-11.732,6.246-23.296,12.838-35.245,18.639
			c-11.573,5.619-23.502,5.364-35.075-0.474c-8.308-4.191-16.408-8.797-24.758-12.899C19.697,432.384,14.968,426.093,14.979,416.563
			z"/>
		<path d="M126.939,651.303c1.861-1.329,1.226-3.314,1.227-5.055c0.031-43.382,0.03-86.765,0.002-130.147
			c-0.001-1.593,0.556-3.368-0.95-4.686c8.818-4.997,17.713-9.846,26.923-14.099c2.399,1.125,2.458,3.381,2.582,5.531
			c0.201,3.487,0.086,6.982,0.087,10.473c0.005,46.889,0.004,93.778,0,140.666c0,2.327,0.151,4.669-0.204,6.974
			c-0.304,1.97-0.597,4.097-3.364,4.134C144.322,660.786,135.401,656.48,126.939,651.303z"/>
		<path d="M684.096,586.298c-5.493,3.362-11.135,6.441-17.089,8.924c-2.669,1.357-3.648-0.247-4.17-2.45
			c-0.463-1.954-0.345-3.967-0.346-5.96c-0.01-20.109-0.013-40.218,0.003-60.327c0.003-3.493-0.091-6.978-0.408-10.446
			c-0.13-2.519,1.516-4.284,2.69-6.265c4.897-8.268,3.432-16.937-3.845-23.273c-1.817-1.582-4.391-2.614-4.468-5.612
			c0.05-24.191-0.06-48.372,0.112-72.552c0.017-2.431-1.278-5.871,2.764-6.896c8.465,3.953,16.844,8.071,24.851,12.904
			c0.62,1.412,0.608,2.9,0.603,4.407c-0.174,54.22-0.091,108.439-0.05,162.659C684.745,583.07,684.911,584.748,684.096,586.298z"/>
		<path d="M153.241,665.094c2.095-0.966,1.948-2.847,1.948-4.692c-0.005-52.767-0.009-105.534,0.014-158.301
			c0.001-1.703-0.236-3.294-1.062-4.785c6.479-3.935,13.171-7.47,20.044-10.667c2.074,2.198,1.563,4.975,1.565,7.565
			c0.014,24.871,0.103,49.742-0.029,74.613c-0.003,0.513,0.148,0.977,0.272,1.455c-3.754,7.343-4.124,14.68,0.037,22.009
			c-1.019,1.926-0.184,3.932-0.193,5.888c-0.107,23.427-0.022,46.855-0.086,70.283c-0.007,2.6,0.492,5.377-1.558,7.59
			C167.051,672.701,159.984,669.206,153.241,665.094z"/>
		<path d="M335.188,597.23c-5.245-2.22-10.248-4.895-15.033-7.979c-1.702-1.923-1.618-4.3-1.619-6.623
			c-0.028-55.398-0.028-110.796-0.009-166.194c0.001-2.353,0.119-4.672,1.628-6.655c5.863-3.261,11.479-6.995,17.853-9.275
			c3.247,0.624,3.257,3.364,3.531,5.721c0.459,3.959,0.201,7.957,0.205,11.938c0.016,18.419,0.014,36.839,0,55.258
			c-0.002,2.485,0.137,4.982-0.377,7.432c-0.421,2.118-2.103,3.251-3.589,4.563c-8.909,7.864-9.723,17.864-2.298,27.219
			c1.309,1.65,3.237,2.926,3.493,5.297c-0.507,23.458-0.084,46.909-0.226,70.358c-0.013,2.16,0.176,4.352-0.363,6.459
			C337.988,596.286,337.68,598.247,335.188,597.23z"/>
		<path d="M684.096,586.298c-1.111-1.795-1.023-3.79-1.023-5.789c0.01-53.299,0.01-106.598-0.001-159.896
			c0-2.167-0.093-4.327,1.118-6.268c5.471,2.372,10.768,5.076,15.824,8.242c0.629,2.089,0.704,4.231,0.703,6.397
			c-0.018,47.101-0.003,94.202-0.027,141.303c-0.001,2.792,0.355,5.689-1.565,8.129C694.357,581.5,689.369,584.171,684.096,586.298z
			"/>
		<path d="M289.211,573.067c-6.206-2.893-12.278-6.034-18.075-9.687c-1.508-1.789-1.573-3.958-1.578-6.126
			c-0.076-39.145,0.045-78.291-0.073-117.436c-0.004-1.176,0.274-2.301,0.432-3.448c6.034-4,12.558-7.074,19.111-10.096
			c2.973,1.528,2.668,4.402,2.703,6.996c0.131,9.648,0.052,19.298,0.053,28.947c0.003,34.105,0.035,68.21-0.051,102.315
			C291.725,567.522,292.699,571.012,289.211,573.067z"/>
		<path d="M320.155,409.779c0,59.824,0,119.648,0,179.472c-5.912-2.546-11.559-5.595-17.043-8.953
			c0.95-52.027,0.214-104.059,0.385-156.088c0.007-1.987-0.31-3.996,0.532-5.905C309.165,415.012,314.602,412.286,320.155,409.779z"
			/>
		<path d="M495.119,328.803c9.913-0.509,19.617,0.516,28.993,3.941c1.403,2.011,1.615,4.3,1.616,6.661
			c0.006,23.082,0.024,46.165-0.018,69.247c-0.003,1.826-0.029,3.663-0.857,5.362c-1.715,2.353-4.107,1.633-6.303,1.212
			c-5.644-1.08-11.32-1.927-17.018-2.68c-7.943-1.676-8.012-1.717-8.021-10.096c-0.024-22.024-0.027-44.049,0.014-66.073
			C493.529,333.77,493.127,331.019,495.119,328.803z"/>
		<path d="M304.028,418.304c1.211,1.94,1.137,4.099,1.137,6.27c-0.013,49.861-0.003,99.721-0.033,149.582
			c-0.001,2.212,0.794,4.801-2.02,6.141c-4.634-2.41-9.267-4.82-13.901-7.23c1.217-1.787,0.944-3.82,0.945-5.802
			c0.004-44.905,0-89.811,0.013-134.716c0.001-2.174,0.065-4.332-1.141-6.276C293.724,423.048,298.862,420.649,304.028,418.304z"/>
		<path d="M728.252,437.421c6.313,3.252,12.997,5.792,18.914,9.805c1.215,1.707,1.508,3.657,1.512,5.686
			c0.049,31.421,0.035,62.842,0.013,94.264c-0.002,2.214-0.399,4.294-1.612,6.178c-6,3.94-12.539,6.856-18.973,9.972
			c-2.124-0.062-2.114-1.799-2.415-3.191c-0.352-1.63-0.249-3.311-0.249-4.972c-0.008-36.575-0.047-73.15,0.074-109.724
			C725.525,442.643,724.072,438.96,728.252,437.421z"/>
		<path d="M728.252,437.421c-1.807,1.369-1.153,3.347-1.154,5.087c-0.034,38.554-0.035,77.108,0.002,115.662
			c0.002,1.744-0.664,3.702,1.006,5.156c-5.201,3.908-11.645,5.451-17.067,8.94c-1.86,0.002-1.983-1.513-2.282-2.747
			c-0.393-1.62-0.31-3.301-0.311-4.961c-0.009-42.848-0.044-85.696,0.079-128.544c0.008-2.629-1.409-6.196,2.688-7.554
			C716.776,431.669,723.01,433.605,728.252,437.421z"/>
		<path d="M567.758,353.706c9.04,4.117,17.916,8.552,26.438,13.668c0.941,1.973,1.509,4.011,1.509,6.236
			c0.007,23.61,0.051,47.22-0.037,70.83c-0.004,1.165-0.106,2.326-0.424,3.446c-0.627,2.208-2.216,2.251-3.904,1.507
			c-8.647-3.812-16.68-8.805-25.072-13.111c-1.214-0.623-1.925-1.794-2.115-3.211c0.781-23.378,0.158-46.757,0.359-70.131
			c0.018-2.154-0.19-4.34,0.299-6.445C565.148,355.04,565.135,352.89,567.758,353.706z"/>
		<path d="M417.144,720.998c9.537,4.725,19.177,9.254,28.281,14.803c0.608,2.79,0.314,5.616,0.316,8.427
			c0.009,21.553,0.033,43.106-0.025,64.659c-0.007,2.751,0.581,5.7-1.608,8.051c-9.274-4.15-18.175-9.011-26.972-14.071
			c-2.32-1.426-2.558-3.759-2.566-6.118c-0.079-23.24-0.096-46.48,0.021-69.719C414.602,724.749,414.547,722.268,417.144,720.998z"
			/>
		<path d="M656.071,685.151c8.464-4.997,17.154-9.571,26.015-13.823c2.075,2.203,1.553,4.983,1.579,7.582
			c0.23,23.428-0.354,46.86,0.334,70.286c0.04,1.374-0.173,2.641-0.908,3.808c-8.719,5.077-17.604,9.839-26.756,14.096
			c-3.445-0.795-2.755-3.705-2.794-5.956c-0.181-10.477-0.073-20.958-0.078-31.438c-0.005-12.309-0.04-24.619,0.026-36.928
			C653.506,689.991,653.179,687.005,656.071,685.151z"/>
		<path d="M445.129,343.904c8.223-4.76,16.5-9.397,25.955-11.346c2.212,2.346,1.604,5.303,1.612,8.054
			c0.074,24.234-0.009,48.468,0.079,72.696c0.101,2.221-1.323,3.321-3.16,3.898c-6.687,2.102-12.693,5.698-19.063,8.484
			c-2.031,0.888-4.53,2.862-6.442-0.458c-0.651-1.935-0.581-3.939-0.583-5.928c-0.021-22.586-0.017-45.171-0.004-67.757
			C443.525,348.893,443.368,346.194,445.129,343.904z"/>
		<path d="M470.18,666.867c-9.354-2.557-17.639-7.419-26.035-12.04c-0.798-1.172-0.754-2.499-0.738-3.833
			c0.287-23.376,0.04-46.754,0.135-70.131c0.009-2.149-0.116-4.319,0.576-6.404c0.992-2.315,2.86-2.04,4.551-1.218
			c7.105,3.455,14.073,7.192,21.443,10.095c1.305,0.514,1.937,1.728,2.253,3.082c0.779,10.079,0.269,20.169,0.336,30.25
			c0.095,14.223,0.078,28.447-0.019,42.67C472.664,662.042,473.279,665.114,470.18,666.867z"/>
		<path d="M524.072,414.717c0.013-27.324,0.027-54.648,0.04-81.972c9.47,2.321,18.052,6.615,26.238,11.786
			c0.635,2.625,0.352,5.292,0.353,7.943c0.006,21.27,0.014,42.539-0.006,63.809c-0.003,2.65,0.218,5.324-0.517,7.922
			c-0.706,2.051-2.319,2.347-3.98,1.59c-7.194-3.278-14.309-6.73-21.611-9.773C524.124,415.827,524.099,415.214,524.072,414.717z"/>
		<path d="M489.122,834.68c-8.414-0.889-16.404-3.236-23.997-6.949c-1.751-1.902-1.607-4.289-1.611-6.596
			c-0.037-22.902-0.044-45.805,0.008-68.707c0.005-2.286-0.248-4.706,1.628-6.56c8.106,3.143,16.549,5.087,24.997,7.015
			c1.515,1.784,1.561,3.953,1.564,6.112c0.033,22.837,0.055,45.674-0.014,68.511C491.691,830.176,491.569,832.859,489.122,834.68z"
			/>
		<path d="M472.323,414.654c-1.954-1.516-1.161-3.672-1.166-5.552c-0.064-25.514-0.06-51.029-0.072-76.544
			c7.769-2.798,15.784-4.028,24.035-3.755c0,24.207-0.001,48.414-0.001,72.621c0,7.951,0,7.951,7.001,9.968
			c-1.285,1.671-3.189,1.637-4.972,1.613c-6.647-0.091-13.164,0.831-19.639,2.217C475.74,415.6,473.918,416.041,472.323,414.654z"/>
		<path d="M596.106,203.905c9.176,4.276,18.16,8.916,26.894,14.036c-1.119,3.345-1.349,6.788-1.343,10.296
			c0.038,20.888,0.045,41.776-0.01,62.664c-0.007,2.59,0.516,5.365-1.55,7.567c-8.097-4.048-16.247-7.995-23.984-12.721
			c-1.73-1.905-1.623-4.281-1.626-6.594c-0.035-22.893-0.041-45.787,0.009-68.68C594.502,208.186,594.252,205.77,596.106,203.905z"
			/>
		<path d="M656.071,685.151c-1.021,1.633-0.996,3.448-0.995,5.286c0.015,23.874-0.002,47.747,0.034,71.621
			c0.003,1.737-0.629,3.716,1.225,5.042c-7.803,4.817-16.058,8.78-24.284,12.797c-3.631-1.419-2.494-4.689-2.51-7.218
			c-0.137-21.603-0.09-43.208-0.057-64.812c0.005-3.282-0.553-6.701,1.609-9.643C639.26,693.563,647.512,689.064,656.071,685.151z"
			/>
		<path d="M375.109,618.229c-8.317-3.705-16.242-8.152-24.123-12.682c-1.129-3.076-0.407-6.247-0.415-9.367
			c-0.053-21.035-0.037-42.071-0.018-63.106c0.002-2.476-0.187-4.976,0.534-7.398c0.615-1.763,1.996-2.306,3.564-1.661
			c7.696,3.167,15.028,7.027,21.768,11.937c0.522,0.38,0.673,1.128,0.872,1.774c0.65,2.796,0.451,5.635,0.453,8.457
			c0.013,21.626,0.073,43.253-0.07,64.878C377.658,613.574,378.84,616.886,375.109,618.229z"/>
		<path d="M350.177,686.068c7.941,3.449,15.501,7.626,22.976,11.965c1.466,2.181,1.601,4.647,1.601,7.165
			c-0.002,22.067,0.033,44.134-0.041,66.201c-0.01,2.908,0.466,6.103-2.559,8.123c-7.997-4.21-15.993-8.419-23.99-12.629
			c-0.785-0.981-0.818-2.137-0.799-3.315c0.392-23.613,0.014-47.229,0.235-70.842C347.623,690.334,346.698,687.267,350.177,686.068z
			"/>
		<path d="M596.106,203.905c0.003,27.281,0.005,54.561,0.008,81.842c-8.568-3.871-16.85-8.294-24.995-12.978
			c-0.794-1.141-0.955-2.412-0.917-3.775c0.644-23.312,0.063-46.631,0.365-69.944c0.032-2.501-1.148-5.794,2.573-7.113
			C580.716,196.078,588.868,199.117,596.106,203.905z"/>
		<path d="M573.14,191.937c-1.77,1.625-0.997,3.756-1.002,5.655c-0.057,20.117-0.031,40.234-0.039,60.35
			c-0.002,4.962,0.314,9.948-0.98,14.827c-7.86-3.649-15.533-7.655-23.012-12.032c-1.572-2.148-1.626-4.636-1.627-7.144
			c-0.009-22.565-0.025-45.131,0.025-67.696c0.005-2.441-0.36-5.041,1.639-7.052C556.658,182.863,565.058,187.097,573.14,191.937z"
			/>
		<path d="M269.917,436.37c1.847,1.332,1.22,3.311,1.221,5.05c0.022,40.653,0.006,81.306-0.002,121.959
			c-5.64-2.146-10.712-5.385-15.968-8.269c-1.637-2.13-1.608-4.637-1.611-7.134c-0.032-32.839,0.028-65.677-0.037-98.516
			c-0.003-1.671,0.096-3.314,0.67-4.9C259.195,441.379,264.444,438.659,269.917,436.37z"/>
		<path d="M375.109,618.229c1.664-1.447,1.001-3.398,1.004-5.135c0.039-25.491,0.024-50.981,0.021-76.472
			c1.511-1.159,2.91-0.239,4.127,0.445c6.344,3.569,12.845,6.832,19.316,10.157c1.769,0.909,3.676,1.971,2.285,4.571
			c-1.368,2.817-1.138,5.84-1.141,8.818c-0.019,20.929,0.017,41.858-0.039,62.787c-0.007,2.593,0.533,5.375-1.539,7.583
			C390.917,627.135,382.893,622.908,375.109,618.229z"/>
		<path d="M192.024,477.372c7.82-4.692,15.897-8.897,24.155-12.761c3.101,2.225,2.527,5.596,2.538,8.667
			c0.076,21.27,0.049,42.54,0.022,63.81c-0.004,3.185,0.19,6.302,1.481,9.264c-9.338,2.547-17.27,8.158-26.054,11.913
			c-2.053-2.214-1.553-4.993-1.561-7.595c-0.056-18.291-0.032-36.582-0.026-54.873C192.582,489.649,192.694,483.499,192.024,477.372
			z"/>
		<path d="M594.106,449.295c0.03-27.306,0.059-54.613,0.089-81.92c8.494,4.127,17.076,8.088,25.081,13.146
			c-1.31,23.823-0.261,47.666-0.604,71.497c-0.038,2.643,0.199,5.305-0.458,7.904c-0.529,1.874-1.862,2.262-3.464,1.568
			c-7.004-3.033-13.822-6.425-20.067-10.859C594.277,450.342,594.193,449.787,594.106,449.295z"/>
		<path d="M349.17,229.965c6.783-4.113,13.828-7.729,21.039-11.027c2.501-1.01,2.767,0.977,3.181,2.498
			c0.483,1.772,0.348,3.632,0.355,5.46c0.089,22.942-0.157,45.885,0.132,68.826c0.017,1.34,0.044,2.667-0.745,3.845
			c-7.166,3.943-14.219,8.105-21.792,11.264c-2.343,1.002-2.94-0.681-3.402-2.32c-0.544-1.927-0.419-3.939-0.42-5.922
			c-0.011-21.506-0.01-43.012-0.001-64.518C347.52,235.261,347.351,232.409,349.17,229.965z"/>
		<path d="M803.067,607.514c7.213-3.998,14.336-8.167,21.942-11.411c2.091,1.321,2.491,3.477,2.514,5.641
			c0.258,24.15,0.128,48.302,0.077,72.453c-0.002,0.992-0.432,1.935-0.504,2.929c-7.354,4.628-15.264,8.2-23.003,12.099
			c-2.498-2.039-2.564-4.953-2.58-7.757c-0.131-22.769-0.08-45.539-0.043-68.308C801.473,611.128,801.763,609.178,803.067,607.514z"
			/>
		<path d="M254.189,444.562c1.232,1.961,0.975,4.154,0.975,6.304c0.003,34.749,0.003,69.498,0.004,104.246
			c-6.406-2.865-12.384-6.676-19.197-8.638c-0.509-1.951-0.405-3.94-0.413-5.929c-0.124-28.67,0.347-57.342-0.254-86.011
			C241.323,450.689,247.767,447.646,254.189,444.562z"/>
		<path d="M489.122,834.68c0.855-2.533,1.028-5.131,1.024-7.8c-0.037-24.666-0.008-49.332,0.002-73.998
			c7.323,0.083,14.645,0.167,21.968,0.251c2.039,2.211,1.566,4.98,1.573,7.581c0.05,20.077,0.039,40.155,0.016,60.232
			c-0.005,4.648,0.03,9.29,0.504,13.919C505.833,836.587,497.474,836.177,489.122,834.68z"/>
		<path d="M372.154,779.522c0.822-2.201,1.018-4.467,1.015-6.817c-0.04-24.891-0.019-49.781-0.015-74.672
			c8.471,4.025,16.877,8.174,24.91,13.034c-1.085,3.343-1.375,6.77-1.367,10.279c0.048,20.876,0.05,41.752-0.005,62.628
			c-0.007,2.589,0.513,5.362-1.547,7.565C387.481,787.533,379.818,783.528,372.154,779.522z"/>
		<path d="M174.195,322.018c7.291-3.779,14.582-7.558,21.874-11.338c3.536,1.106,2.628,4.182,2.652,6.568
			c0.146,14.247,0.015,28.496,0.087,42.744c0.047,9.275-0.323,18.555,0.273,27.825c0.087,1.349-0.004,2.655-0.914,3.763
			c-6.749,4.117-13.717,7.819-20.948,11.023c-2.442,1.011-2.839-0.857-3.27-2.433c-0.485-1.775-0.365-3.632-0.372-5.46
			c-0.089-22.949,0.156-45.898-0.131-68.846C173.429,324.524,173.411,323.197,174.195,322.018z"/>
		<path d="M198.167,391.581c-1.633-6.841-0.933-13.799-0.964-20.71c-0.08-18.198-0.004-36.397-0.062-54.596
			c-0.006-1.886,0.766-4.02-1.073-5.595c7.452-4.482,15.135-8.531,23.029-12.181c1.925,1.821,1.655,4.242,1.665,6.517
			c0.102,23.498-0.064,46.997,0.104,70.495c0.011,1.504-0.29,2.958-0.539,4.425C213.176,384.263,205.775,388.117,198.167,391.581z"
			/>
		<path d="M373.134,299.567c-0.78-2.371-1.028-4.786-1.022-7.295c0.052-22.821,0.055-45.642-0.018-68.463
			c-0.006-1.73,1.146-4.191-1.883-4.871c7.427-4.413,14.975-8.596,22.915-12.034c2.205,0.988,2.482,3.039,2.498,5.018
			c0.195,24.655,0.176,49.31,0.019,73.965c-0.004,0.65-0.283,1.289-0.469,1.925C387.826,291.73,380.48,295.649,373.134,299.567z"/>
		<path d="M581.025,640.145c-8.036,4.854-16.434,9.02-24.912,13.031c-2.173-2.371-1.556-5.326-1.577-8.085
			c-0.187-23.773,0.25-47.548-0.264-71.313c-0.07-2.708,1.783-4.109,3.808-5.262c5.13-2.918,10.526-5.329,15.726-8.119
			c1.534-0.823,3.112-1.096,4.479,0.424c1.726,2.529,1.368,5.422,1.373,8.216c0.037,20.604,0.037,41.208,0,61.812
			C579.652,634.036,579.879,637.148,581.025,640.145z"/>
		<path d="M581.025,640.145c-3.985,0.156-2.885-2.844-2.889-4.902c-0.055-22.84-0.03-45.679-0.042-68.519
			c-0.001-2.128,0.36-4.331-0.987-6.255c0.353-2.324,2.28-3.139,4.018-4.06c4.844-2.567,9.841-4.835,14.602-7.575
			c1.832-1.054,4.006-2.274,5.403,0.781c0.725,2.439,0.539,4.942,0.541,7.422c0.018,19.242,0.06,38.485-0.026,57.727
			c-0.022,4.812,0.438,9.599,0.412,14.404C595.276,633.267,588.252,636.899,581.025,640.145z"/>
		<path d="M659.339,401.44c-1.989,1.486-1.217,3.645-1.222,5.525c-0.05,23.005-0.026,46.011-0.043,69.016
			c-0.002,2.122,0.408,4.333-0.982,6.248c-1.304,0.952-2.527,0.249-3.695-0.264c-5.418-2.381-10.369-5.636-15.597-8.377
			c-1.5-0.786-2.557-2.038-2.921-3.778c-0.815-6.278-0.361-12.577-0.384-18.86c-0.068-18.049-0.055-36.099,0.006-54.149
			c0.009-2.585-0.493-5.368,1.676-7.508C644.076,393.005,651.921,396.817,659.339,401.44z"/>
		<path d="M235.303,454.534c2.478,0.435,1.843,2.407,1.844,3.935c0.029,27.978,0.024,55.956,0.013,83.934
			c-0.001,1.454,0.31,3.035-1.189,4.07c-5.251-0.04-10.501-0.081-15.751-0.121c-3.874,0.186-3.026-2.673-3.029-4.833
			c-0.03-23.033-0.04-46.067,0.01-69.1c0.006-2.673-0.181-5.271-1.021-7.809C222.386,460.934,228.707,457.474,235.303,454.534z"/>
		<path d="M470.18,666.867c1.33-1.939,0.929-4.148,0.931-6.274c0.035-25.184,0.048-50.367,0.067-75.551
			c1.641-1.266,3.449-0.839,5.216-0.453c5.159,1.127,10.336,2.027,15.627,2.35c1.61,0.098,4.333-0.512,3.959,2.782
			c-2.306,2.379-2.284,5.372-2.283,8.388c0.007,21.75,0.029,43.5-0.021,65.25c-0.006,2.603,0.473,5.372-1.558,7.59
			C484.56,670.909,477.318,669.169,470.18,666.867z"/>
		<path d="M465.152,745.868c-0.009,27.288-0.017,54.576-0.026,81.864c-7.414-2.806-14.212-6.808-21.018-10.794
			c0.007-25.205-0.002-50.41,0.051-75.614c0.004-1.887-0.747-4.051,1.266-5.522C452,739.156,458.576,742.512,465.152,745.868z"/>
		<path d="M270.026,271.736c6.766-4.167,13.784-7.857,21.037-11.104c2.593,1.241,2.632,3.704,2.645,5.995
			c0.136,23.407,0.107,46.815,0.037,70.223c-0.006,1.872-0.437,3.616-1.466,5.196c-6.446,4.02-13.249,7.361-20.121,10.573
			c-2.09-1.342-2.464-3.503-2.483-5.682c-0.214-24.417-0.124-48.834-0.05-73.251C269.627,273.033,269.887,272.385,270.026,271.736z"
			/>
		<path d="M395.144,791.539c-0.002-24.893-0.022-49.786,0.021-74.679c0.004-2.315-0.927-5.297,2.898-5.793
			c6.615,2.822,12.907,6.263,19.08,9.931c-0.985,1.642-1.025,3.447-1.024,5.296c0.02,23.759,0.019,47.518,0.002,71.277
			c-0.001,1.845,0.004,3.658,1.014,5.295C409.805,799.091,402.475,795.315,395.144,791.539z"/>
		<path d="M548.144,178.845c-0.012,27.298-0.025,54.595-0.037,81.893c-7.02-3.236-14.04-6.471-21.06-9.707
			c-1.319-1.66-1.535-3.629-1.539-5.639c-0.052-23.188-0.055-46.376,0.003-69.564c0.004-1.493,0.051-3.004,0.644-4.398
			c0.56-1.316,1.358-2.351,3.032-1.461C536.048,171.773,542.121,175.256,548.144,178.845z"/>
		<path d="M762.987,455.521c6.565,2.921,12.956,6.171,19.066,9.96c0.473,1.939,0.642,3.899,0.638,5.899
			c-0.034,18.869-0.007,37.739-0.026,56.608c-0.003,2.642,0.173,5.332-1.505,7.651c-6.075,3.685-12.334,7.016-18.888,9.779
			c-1.955,0.91-2.735-0.301-3.283-1.849c-0.507-1.431-0.531-2.938-0.534-4.431c-0.044-25.737-0.037-51.473-0.004-77.21
			c0.002-1.493,0.021-2.997,0.468-4.443C759.567,455.395,760.732,454.32,762.987,455.521z"/>
		<path d="M711.213,428.46c-1.768,1.392-1.11,3.364-1.112,5.103c-0.034,44.673-0.032,89.345-0.004,134.018
			c0.001,1.592-0.555,3.365,0.942,4.685c-3.748,2.481-7.7,4.566-11.914,6.147c-0.016-50.541-0.035-101.081-0.033-151.622
			c0-1.445-0.431-3.035,0.921-4.206C703.747,424.544,707.48,426.502,711.213,428.46z"/>
		<path d="M139.174,340.669c6.871-3.924,13.597-8.122,20.973-11.096c1.771,1.694,1.599,3.938,1.612,6.069
			c0.15,24.091-0.143,48.184,0.167,72.275c0.015,1.182-0.089,2.324-0.763,3.343c-6.994,3.666-13.988,7.332-20.981,10.998
			c-1.618-1.551-1.551-3.608-1.561-5.577c-0.121-24.21,0.052-48.421-0.103-72.632C138.511,342.877,138.619,341.731,139.174,340.669z
			"/>
		<path d="M192.024,477.372c2.848,1.276,2.132,3.851,2.135,6.083c0.025,24.937,0.011,49.874,0.008,74.81
			c-5.913,4.224-13.434,6.023-18.173,12.018c-2.923-0.83-1.757-3.258-1.762-5.002c-0.072-26.211-0.048-52.421-0.047-78.632
			C180.06,483.421,185.755,479.845,192.024,477.372z"/>
		<path d="M766.053,627.161c6.444-3.983,13.165-7.448,20.014-10.672c1.738,1.712,1.56,3.953,1.568,6.08
			c0.099,23.735-0.045,47.47,0.092,71.205c0.009,1.51-0.235,2.972-0.602,4.424c-6.613,4.419-14.057,7.257-21.017,11.017
			c-1.897-1.849-1.642-4.277-1.647-6.567c-0.053-22.952-0.043-45.904-0.013-68.857C764.451,631.467,764.383,629.097,766.053,627.161
			z"/>
		<path d="M291.15,737.031c-7.356-3.017-14.227-6.962-21.067-10.966c-0.524-1.604-0.57-3.256-0.566-4.926
			c0.052-22.932-0.012-45.863,0.055-68.794c0.008-2.593-0.502-5.388,1.692-7.528c7.316,3.568,14.78,6.855,21.572,11.409
			c-0.176,24.576-0.022,49.151-0.111,73.727C292.717,732.394,293.119,734.995,291.15,737.031z"/>
		<path d="M408.119,198.942c6.825-4.003,13.682-7.947,21.003-11.008c2.098,1.338,2.469,3.508,2.489,5.682
			c0.232,24.096,0.122,48.192,0.066,72.288c-0.002,0.997-0.432,1.944-0.507,2.942c-6.701,3.562-13.402,7.125-20.102,10.687
			c-3.159-1.729-2.458-4.833-2.471-7.51c-0.096-19.558-0.06-39.117-0.039-58.676C408.562,208.538,408.519,203.736,408.119,198.942z"
			/>
		<path d="M514.208,834.865c-3.298-0.73-2.035-3.404-2.041-5.277c-0.079-25.485-0.052-50.97-0.052-76.455
			c6.665-1.375,13.331-2.751,19.996-4.126c2.084,2.191,1.558,4.967,1.565,7.552c0.057,21.201,0.044,42.403,0.014,63.604
			c-0.005,3.337,0.151,6.614,1.536,9.716C528.555,832.948,521.537,834.56,514.208,834.865z"/>
		<path d="M728.078,647.19c5.721-3.732,11.912-6.592,17.998-9.645c2.41,2.298,2.514,5.365,2.532,8.327
			c0.139,22.574,0.08,45.149,0.049,67.724c-0.003,2.022-0.25,3.98-1.505,5.671c-6.058,3.709-12.331,7.01-18.822,9.9
			c-3.444-0.766-2.756-3.668-2.8-5.905c-0.191-9.594-0.077-19.193-0.08-28.79c-0.004-13.237-0.041-26.475,0.027-39.712
			C725.491,651.986,725.18,649.015,728.078,647.19z"/>
		<path d="M479.121,166.075c0.005,27.282,0.009,54.565,0.014,81.847c-6.334,1.988-12.668,3.975-19.002,5.962
			c-2.348-1.896-2.519-4.62-2.538-7.263c-0.159-22.919-0.084-45.838-0.057-68.758c0.002-2.033,0.324-3.972,1.592-5.648
			C465.499,169.213,472.052,166.808,479.121,166.075z"/>
		<path d="M745.072,363.599c-6.498-3.002-12.918-6.153-18.982-9.979c-1.731-1.9-1.619-4.272-1.622-6.58
			c-0.034-22.514-0.101-45.029,0.096-67.542c0.021-2.386-1.6-6.304,3.238-6.662c6.446,3.294,13.309,5.779,19.306,9.941
			c0.561,1.596,0.584,3.25,0.58,4.917c-0.044,22.413,0.024,44.826-0.056,67.239C747.62,358.012,748.137,361.366,745.072,363.599z"/>
		<path d="M747.151,719.267c-0.028-20.506-0.048-41.012-0.088-61.518c-0.013-6.749,0.391-13.521-0.988-20.204
			c6.572-3.629,13.041-7.454,19.977-10.383c0.018,27.351,0.037,54.702,0.055,82.054C760.07,713.094,753.664,716.281,747.151,719.267
			z"/>
		<path d="M569.153,812.997c-6.428,4.031-13.174,7.467-20.051,10.656c-1.745-1.708-1.563-3.949-1.569-6.074
			c-0.07-23.721-0.017-47.443-0.042-71.164c-0.002-1.503,0.092-2.985,0.676-4.395c6.779-4.053,13.738-7.764,20.935-11.027
			c0.964,1.702,0.619,3.561,0.622,5.37c0.042,24.091-0.214,48.183,0.145,72.273C569.892,810.147,569.913,811.628,569.153,812.997z"
			/>
		<path d="M653.189,602.507c-6.139,3.619-12.356,7.086-18.966,9.796c-3.57-1.069-2.632-4.155-2.66-6.528
			c-0.154-13.237-0.03-26.476-0.083-39.714c-0.045-11.082,0.281-22.168-0.356-33.239c0.234-1.807,1.413-2.931,2.894-3.772
			c4.451-2.529,8.789-5.279,13.508-7.298c1.904-0.815,4.041-2.12,5.535,0.742c0.688,1.926,0.607,3.93,0.62,5.917
			c0.145,23.404-0.246,46.809,0.212,70.212C653.919,599.976,653.748,601.272,653.189,602.507z"/>
		<path d="M569.153,812.997c-0.857-2.714-1.089-5.481-1.082-8.334c0.058-22.455,0.033-44.911,0.031-67.366
			c0-2.155-0.217-4.342,1-6.304c6.001-3.223,12.002-6.446,18.003-9.669c1.74,1.713,1.556,3.954,1.572,6.084
			c0.184,24.081-0.22,48.163,0.225,72.243c0.022,1.187-0.195,2.311-0.752,3.364C582.071,806.823,575.678,810.035,569.153,812.997z"
			/>
		<path d="M620.357,786.051c-6.072,3.834-12.453,7.081-19.008,9.999c-3.45-0.776-2.746-3.684-2.786-5.92
			c-0.184-10.438-0.07-20.879-0.08-31.319c-0.011-12.594,0.013-25.188-0.014-37.783c-0.004-1.992-0.068-3.983,0.655-5.891
			c6.079-3.813,12.511-6.96,18.979-10.041c2.055,1.607,2.447,3.955,2.454,6.275C620.635,736.265,621.064,761.16,620.357,786.051z"/>
		<path d="M174.193,676.053c-0.004-26.005-0.016-52.01,0.005-78.016c0.002-2.072-0.637-4.425,1.832-5.746
			c1.09,3.624,4.337,4.675,7.258,6.199c3.37,1.757,6.632,3.723,9.94,5.599c1.572,1.961,1.558,4.302,1.56,6.624
			c0.02,22.178,0.054,44.356-0.03,66.534c-0.011,2.929,0.241,6.068-2.657,8.111C185.921,682.661,179.927,679.606,174.193,676.053z"
			/>
		<path d="M779.98,381.884c-6.348-3.328-12.697-6.656-19.045-9.985c-0.516-1.255-0.616-2.564-0.601-3.909
			c0.252-23.427,0.021-46.854,0.139-70.281c0.012-2.443-0.376-5.048,1.628-7.064c6.401,3.187,13.038,5.92,19.058,9.841
			c1.153,2.265,1.539,4.668,1.536,7.204c-0.019,22.027,0.031,44.054-0.053,66.081C782.632,376.702,782.888,379.845,779.98,381.884z"
			/>
		<path d="M271.265,644.817c-0.034,25.209-0.051,50.418-0.137,75.627c-0.006,1.892,0.77,4.026-1.044,5.622
			c-6.292-2.461-12.042-5.969-17.915-9.24c-1.381-1.831-1.614-3.958-1.617-6.155c-0.031-22.785-0.034-45.569,0.008-68.354
			c0.003-1.496,0.034-3.002,0.546-4.436c0.566-1.585,1.425-2.679,3.339-1.817C260.25,638.603,265.929,641.381,271.265,644.817z"/>
		<path d="M602.057,629.169c-2.194-1.849-1.964-4.381-1.964-6.862c0.008-24.649,0.008-49.297,0.011-73.946
			c-0.369-1.759,1.042-2.32,2.143-2.917c4.382-2.378,8.872-4.553,13.296-6.854c1.694-0.881,3.489-1.511,4.555,0.966
			c0.765,2.436,0.569,4.944,0.572,7.427c0.019,18.607,0.03,37.213-0.002,55.82c-0.009,5.48,0.054,10.954,0.459,16.421
			C615.005,622.987,608.597,626.205,602.057,629.169z"/>
		<path d="M636.178,389.293c-0.027,27.32-0.053,54.64-0.08,81.959c-1.332,1.012-2.605,0.278-3.707-0.333
			c-5.275-2.927-11.276-4.725-15.292-9.643c-0.002-24.503-0.006-49.006-0.005-73.51c0-2.63-0.353-5.373,2.181-7.246
			C625.163,382.958,630.781,385.915,636.178,389.293z"/>
		<path d="M856.055,339.664c6.615,2.831,12.935,6.225,19.071,9.97c0.522,1.605,0.566,3.258,0.562,4.93
			c-0.053,22.945,0.012,45.889-0.056,68.834c-0.008,2.593,0.507,5.392-1.708,7.524c-6.098-2.87-12.169-5.792-17.869-9.416
			c-2.375-1.388-2.56-3.74-2.568-6.085c-0.076-23.034-0.105-46.068,0.021-69.102C853.521,343.842,853.63,341.278,856.055,339.664z"
			/>
		<path d="M827.056,406.447c-6.333-3.322-12.665-6.645-18.998-9.967c-1.338-1.842-1.614-3.954-1.616-6.153
			c-0.022-22.923-0.105-45.847,0.11-68.769c0.021-2.267-1.184-6.14,3.6-5.855c5.813,2.649,11.621,5.311,16.949,8.883
			c1.578,1.963,1.564,4.31,1.567,6.636c0.025,22.886,0.035,45.773-0.016,68.659C828.646,402.164,828.918,404.583,827.056,406.447z"
			/>
		<path d="M321.293,671.03c5.998,2.97,12.238,5.471,17.851,9.186c0.675,1.013,0.778,2.148,0.761,3.327
			c-0.333,23.659-0.001,47.32-0.213,70.978c-0.021,2.377,0.881,5.459-2.684,6.523c-6.391-2.235-11.973-6.029-17.854-9.246
			c-1.496-1.977-1.608-4.286-1.61-6.628c-0.013-22.023-0.082-44.047,0.076-66.069C317.642,676.077,316.708,672.177,321.293,671.03z"
			/>
		<path d="M918.979,452.701c-7.14-0.842-12.972-4.677-18.923-8.24c-1.345-1.446-1.578-3.254-1.584-5.099
			c-0.074-23.374-0.138-46.749,0.056-70.122c0.02-2.387-0.048-5.212,3.494-5.575c5.927,2.497,11.597,5.485,17.03,8.923
			c1.643,1.93,1.597,4.282,1.6,6.597c0.03,22.331,0.041,44.662-0.014,66.993C920.631,448.456,920.877,450.87,918.979,452.701z"/>
		<path d="M410.073,362.536c6.078-3.839,12.44-7.146,18.985-10.11c2.152,2.158,1.638,4.944,1.645,7.534
			c0.058,20.073,0.039,40.146,0.023,60.219c-0.004,4.314,0.041,8.624,0.376,12.922c-0.044,1.182-0.309,2.404-1.313,3.047
			c-5.102,3.266-10.232,6.51-15.922,8.691c-1.489,0.571-2.937,0.367-3.686-1.384c-0.843-2.415-0.633-4.921-0.64-7.398
			c-0.062-23.045,0.08-46.091-0.083-69.136C409.449,365.424,409.395,363.932,410.073,362.536z"/>
		<path d="M236.102,289.604c5.754-3.707,11.867-6.743,18.068-9.612c2.077,2.205,1.554,4.987,1.563,7.584
			c0.059,16.953,0.031,33.907,0.029,50.86c-0.001,7.472-0.171,14.949,0.721,22.393c-6.458,4.184-13.389,7.48-20.327,10.762
			c-1.834-1.878-1.586-4.294-1.591-6.584c-0.049-22.916-0.038-45.831-0.016-68.747C234.552,293.926,234.561,291.584,236.102,289.604
			z"/>
		<path d="M529.187,169.968c-3.31,0.75-2.013,3.437-2.02,5.311c-0.104,25.25-0.098,50.501-0.119,75.751
			c-5.982-1.369-11.964-2.738-17.946-4.107c0.018-27.344,0.036-54.688,0.055-82.031C516.043,165.76,522.868,166.867,529.187,169.968
			z"/>
		<path d="M427.143,645.868c-6.007-3.228-12.014-6.456-18.021-9.684c-0.584-1.59-0.602-3.244-0.6-4.909
			c0.037-23.227,0-46.453,0.027-69.68c0.002-1.986-0.079-3.988,0.538-5.917c0.425-1.232,1.29-2.067,2.582-1.561
			c6.247,2.445,12.295,5.27,17.22,9.992c0.342,0.328,0.349,0.907,0.483,1.386c0.776,10.121,0.265,20.253,0.334,30.377
			c0.095,13.95,0.076,27.902-0.016,41.853C429.671,640.638,430.142,643.829,427.143,645.868z"/>
		<path d="M856.055,339.664c-0.746,2.556-1.051,5.139-1.044,7.825c0.061,22.578,0.033,45.157,0.037,67.735
			c0,2.145-0.275,4.339,1.007,6.281c-6.587-2.825-12.869-6.235-19.017-9.901c-1.145-1.327-1.533-2.925-1.54-4.612
			c-0.102-23.99-0.197-47.981,0.099-71.97c0.022-1.77-0.51-4.734,3.093-4.282C844.664,333.356,850.593,336.058,856.055,339.664z"/>
		<path d="M319.14,245.831c5.325-3.615,11.282-6.037,16.966-8.974c2.44-0.053,2.983,1.713,3.372,3.568
			c0.343,1.635,0.284,3.306,0.285,4.966c0.013,21.593,0.018,43.187-0.008,64.78c-0.003,2.634,0.292,5.366-1.585,7.627
			c-5.451,3.38-11.039,6.499-16.982,8.947c-3.468-1.181-2.561-4.234-2.58-6.625c-0.134-16.546-0.043-33.093-0.077-49.64
			c-0.014-6.783,0.159-13.568-0.14-20.35C318.325,248.643,318.175,247.14,319.14,245.831z"/>
		<path d="M208.153,612.31c6.379,2.069,12.184,5.265,17.712,9.004c0.673,2.416,0.924,4.869,0.921,7.383
			c-0.024,21.458,0.023,42.917-0.052,64.375c-0.011,3.237,0.598,6.782-2.614,9.166c-5.664-3.011-11.327-6.021-16.991-9.032
			c-1.34-1.657-1.543-3.631-1.547-5.646c-0.04-23.073-0.081-46.145,0.039-69.218C205.632,616.068,205.532,613.573,208.153,612.31z"
			/>
		<path d="M526.112,667.054c-4.793,1.779-9.678,3.123-14.848,3.114c-2.459,1.073-3.812,0.042-4.387-2.349
			c-0.432-1.794-0.375-3.636-0.376-5.464c-0.012-21.959-0.025-43.917,0.014-65.876c0.005-2.797-0.304-5.709,1.68-8.118
			c4.781-2.948,10.295-3.062,15.607-3.933c1.151-0.189,2.296,0.185,2.987,1.32c1.165,2.34,0.927,4.868,0.93,7.345
			c0.024,21.935,0.018,43.87,0.009,65.804C527.729,661.719,527.9,664.582,526.112,667.054z"/>
		<path d="M349.083,394.433c5.688-2.935,11.377-5.869,17.065-8.804c3.298,1.897,2.517,5.181,2.53,8.03
			c0.092,20.91,0.046,41.821,0.047,62.732c0,2.988-0.049,5.978,0.623,8.913c0.609,2.198-0.813,3.394-2.349,4.396
			c-4.433,2.892-9.326,4.851-14.246,6.724c-1.473,0.561-2.94,0.672-3.615-1.27c-0.812-2.591-0.58-5.259-0.583-7.9
			c-0.025-20.543-0.078-41.086,0.05-61.629C348.629,401.908,346.853,398.065,349.083,394.433z"/>
		<path d="M369.42,466.6c-3.297-0.61-2.233-3.248-2.238-5.173c-0.061-23.175-0.04-46.351-0.039-69.526
			c0-2.143,0.231-4.323-0.996-6.272c5.44-3.413,11.086-6.436,17.005-8.941c2.601,1.771,2.518,4.548,2.524,7.174
			c0.055,24.4,0.131,48.801-0.013,73.192c0.076,0.829,0.214,1.896-0.424,2.364C380.478,462.907,375.741,466.515,369.42,466.6z"/>
		<path d="M728.078,647.19c-0.893,1.478-1.023,3.094-1.022,4.785c0.023,24.216,0.009,48.433,0.031,72.649
			c0.002,1.596-0.473,3.385,1.241,4.542c-5.448,3.427-11.128,6.413-17.04,8.959c-3.414-0.83-2.717-3.726-2.753-5.972
			c-0.175-11.119-0.009-22.241-0.093-33.362c-0.095-12.612,0.348-25.228-0.271-37.836c-0.066-1.351-0.006-2.662,0.918-3.768
			C715.185,653.411,721.523,650.094,728.078,647.19z"/>
		<path d="M872.144,653.431c-5.378,3.549-11.271,6.123-17.029,8.951c-1.798-1.665-1.632-3.903-1.646-6.024
			c-0.155-24.154,0.143-48.309-0.17-72.462c-0.015-1.178,0.096-2.313,0.762-3.329c5.683-2.991,11.367-5.983,17.05-8.974
			c2.683,1.235,2.472,3.769,2.483,6.012c0.117,23.203,0.07,46.405,0.058,69.608C873.652,649.434,873.06,651.459,872.144,653.431z"/>
		<path d="M902.061,555.392c5.619-3.439,11.27-6.804,17.937-7.861c0.968,1.871,0.6,3.89,0.6,5.853
			c-0.001,21.34,0.029,42.68-0.019,64.019c-0.007,3.342,0.303,6.597,1.378,9.767c-5.463,3.392-11.163,6.335-17.025,8.971
			c-2.273,1.234-3.414,0.108-4.041-1.973c-0.534-1.772-0.471-3.613-0.472-5.435c-0.02-21.902-0.013-43.804-0.007-65.707
			C900.413,560.362,900.35,557.686,902.061,555.392z"/>
		<path d="M787.125,698.198c-1.215-1.939-1.072-4.102-1.071-6.255c0.011-25.152,0.01-50.303,0.013-75.455
			c5.667-2.992,11.333-5.983,17-8.975c-0.003,22.125-0.008,44.25-0.009,66.376c0,5.134-0.291,10.288,1.036,15.334
			C798.872,693.034,792.659,694.976,787.125,698.198z"/>
		<path d="M854.062,580.567c0.843,2.365,1.014,4.797,1.012,7.303c-0.022,24.837,0.019,49.674,0.042,74.512
			c-5.466,3.363-11.096,6.413-17.018,8.908c-1.901-1.847-1.646-4.276-1.651-6.566c-0.053-22.955-0.043-45.911-0.013-68.867
			c0.003-2.326-0.064-4.696,1.605-6.632C843.122,585.866,848.61,583.25,854.062,580.567z"/>
		<path d="M427.143,645.868c0.853-2.375,1.018-4.82,1.015-7.337c-0.032-24.787-0.003-49.575,0.009-74.362
			c6.892,0.68,12.501,3.78,16.998,8.979c-0.013,24.781-0.042,49.562-0.012,74.344c0.003,2.515-0.148,4.962-1.008,7.335
			C438.478,651.84,432.81,648.854,427.143,645.868z"/>
		<path d="M139.174,340.669c1.229,1.955,1.016,4.14,1.015,6.294c-0.004,25.099-0.005,50.197-0.006,75.296
			c-5.666,2.997-11.331,5.994-16.997,8.991c0.002-25.32,0.021-50.641-0.03-75.96c-0.004-1.891,0.761-4.012-0.999-5.63
			C127.586,346.202,133.278,343.244,139.174,340.669z"/>
		<path d="M236.102,289.604c0.018,27.329,0.036,54.658,0.055,81.987c-4.924,3.448-10.52,5.625-15.828,8.345
			c-1.33-2.088-1.161-4.427-1.163-6.751c-0.015-24.894-0.043-49.789-0.068-74.684C224.573,295.166,230.184,292.092,236.102,289.604z
			"/>
		<path d="M548.167,742.021c1.565,1.499,0.909,3.434,0.911,5.176c0.041,25.486,0.026,50.971,0.024,76.457
			c-4.386,2.606-8.813,5.124-13.876,6.225c-3.791,0.185-3.106-2.57-3.107-4.796c-0.014-25.359-0.009-50.717-0.008-76.076
			C537.463,746.678,542.815,744.349,548.167,742.021z"/>
		<path d="M549.068,425.687c0.013-25.203,0.01-50.407,0.071-75.61c0.005-1.886-0.759-4.045,1.212-5.546
			c6.023,2.642,11.94,5.483,17.408,9.175c-2.791,0.983-1.592,3.368-1.599,5.116c-0.086,21.044-0.065,42.088-0.047,63.132
			c0.003,4.127,0.152,8.257-0.998,12.287c-0.226,0.272-0.554,0.587-0.794,0.488C558.802,432.448,552.97,430.685,549.068,425.687z"/>
		<path d="M256.483,360.829c-2.425-2.295-2.319-5.297-2.319-8.271c0.002-24.189,0.004-48.378,0.006-72.566
			c5.152-3.008,10.271-6.076,15.856-8.255c1.871,1.557,1.097,3.696,1.102,5.58c0.053,22.501,0.058,45.003,0.003,67.504
			c-0.007,2.673,0.239,5.257,1.028,7.798C267.377,356.199,261.613,357.91,256.483,360.829z"/>
		<path d="M653.09,315.606c-5.682-2.908-11.365-5.816-17.047-8.725c-1.346-2.214-1.577-4.654-1.576-7.179
			c0.01-21.879-0.067-43.758,0.084-65.636c0.021-3.043-0.925-6.913,3.572-8.186c5.505,3.369,11.874,5.087,17.128,8.936
			c-1.234,19.579-0.262,39.179-0.553,58.766c-0.079,5.313,0.045,10.629-0.045,15.943
			C654.617,311.652,654.845,313.898,653.09,315.606z"/>
		<path d="M384.786,458.481c-1.093-1.672-0.623-3.55-0.625-5.335c-0.032-22.88-0.045-45.761,0.011-68.641
			c0.007-2.678-0.247-5.267-1.019-7.816c5.4-3.496,11.14-6.351,16.995-8.988c2.044,2.202,1.545,4.966,1.551,7.553
			c0.052,21.332,0.031,42.665,0.023,63.997c-0.001,2.979,0.037,5.953,0.459,8.899c0.702,1.694,0.006,2.967-1.437,3.752
			C395.666,454.665,390.6,457.488,384.786,458.481z"/>
		<path d="M430.165,434.668c-0.815-2.705-1.072-5.453-1.068-8.292c0.034-24.65-0.014-49.299-0.039-73.95
			c5.148-3.234,10.534-6.022,16.071-8.524c0.011,27.593,0.023,55.186,0.034,82.779C441.557,431.953,435.863,433.314,430.165,434.668
			z"/>
		<path d="M408.119,198.942c3.283,0.787,1.949,3.464,1.956,5.321c0.091,23.001,0.053,46.002,0.07,69.002
			c0.002,2.123-0.404,4.329,0.922,6.268c-5.225,2.899-10.302,6.083-15.895,8.279c-1.763-1.616-0.996-3.738-1-5.629
			c-0.054-23.004-0.036-46.008-0.033-69.012c0-2.146,0.206-4.32-1.015-6.267C397.882,203.797,402.9,201.181,408.119,198.942z"/>
		<path d="M683.092,753.004c-1.428-5.711-0.998-11.533-1.003-17.323c-0.019-21.451-0.004-42.902-0.002-64.353
			c5.018-2.649,10.035-5.297,15.053-7.946c3.159,1.729,2.464,4.833,2.477,7.512c0.096,19.566,0.059,39.133,0.04,58.7
			c-0.005,4.81,0.02,9.615,0.466,14.409C694.717,747.515,688.936,750.318,683.092,753.004z"/>
		<path d="M762.102,290.646c-0.012,24.837-0.027,49.674-0.033,74.511c0,2.316,0.192,4.653-1.134,6.742
			c-5.465-2.429-10.79-5.126-15.864-8.3c0.797-2.553,1.034-5.152,1.027-7.836c-0.055-22.444-0.051-44.888,0.004-67.331
			c0.005-1.899-0.768-4.031,1.004-5.654C752.351,284.934,757.362,287.532,762.102,290.646z"/>
		<path d="M509.116,588.466c-1.171,1.596-1.004,3.443-1.004,5.266c0.004,23.886-0.001,47.773,0.009,71.659
			c0.001,2.253-0.626,4.97,3.143,4.777c-6.32,1.747-12.741,1.061-19.144,0.781c0-25.663,0.043-51.326-0.057-76.989
			c-0.012-3.185,0.532-5.213,4.245-4.785C500.469,586.995,504.669,585.5,509.116,588.466z"/>
		<path d="M638.124,225.881c-2.26,1.813-2.037,4.354-2.038,6.844c-0.009,24.719-0.028,49.438-0.043,74.157
			c-5.315-2.804-10.63-5.609-15.945-8.413c-0.002-24.905-0.021-49.811,0.025-74.716c0.004-2.31-0.948-5.299,2.878-5.812
			C628.215,220.257,633.352,222.722,638.124,225.881z"/>
		<path d="M810.152,315.703c-3.304,0.727-2.037,3.404-2.043,5.277c-0.079,25.167-0.052,50.333-0.051,75.5
			c-5.182-2.274-10.234-4.794-15.002-7.856c-2.304-1.438-2.561-3.765-2.57-6.131c-0.082-23.097-0.139-46.194,0.085-69.289
			c0.024-2.438-1.041-6.881,4.404-5.421C800.292,309.932,805.307,312.656,810.152,315.703z"/>
		<path d="M762.987,455.521c-2.606-0.241-2.944,1.321-2.941,3.431c0.032,27.577,0.022,55.154,0.02,82.73
			c0,1.684-0.163,3.452,2.207,3.736c-4.748,3.249-9.937,5.656-15.193,7.935c0.029-35.376,0.058-70.752,0.088-106.128
			C752.609,449.669,757.98,452.248,762.987,455.521z"/>
		<path d="M781.16,535.64c-0.033-22.166-0.069-44.332-0.092-66.498c-0.001-1.295-0.259-2.687,0.985-3.661
			c7.23,3.217,14.224,6.887,21.015,10.945c1.07,1.677,0.624,3.523,0.638,5.332c0.112,13.924-0.796,27.863,0.621,41.767
			C796.828,527.99,789.08,531.979,781.16,535.64z"/>
		<path d="M459.13,172.216c-0.002,22.28,0.005,44.561-0.011,66.841c-0.004,4.969-0.206,9.945,1.014,14.828
			c-5.323,2.697-10.645,5.395-15.968,8.092c-1.886-1.849-1.603-4.268-1.611-6.547c-0.092-23.52,0.048-47.041-0.081-70.562
			c-0.01-1.805-0.232-3.715,1.654-4.897C448.871,176.892,453.88,174.321,459.13,172.216z"/>
		<path d="M902.061,555.392c-0.008,25.267-0.037,50.535,0.015,75.802c0.004,2.036-1.179,5.089,2.856,4.947
			c-5.697,3.574-11.706,6.559-17.783,9.416c-1.974-1.809-1.676-4.247-1.685-6.527c-0.096-23.588,0.038-47.176-0.076-70.764
			c-0.009-1.795-0.293-3.734,1.642-4.904C891.837,560.322,896.837,557.646,902.061,555.392z"/>
		<path d="M254.445,636.065c-3.317,0.6-2.235,3.249-2.24,5.171c-0.059,25.197-0.038,50.394-0.038,75.591
			c-5.532-2.547-11.03-5.157-16.126-8.526c-0.517-1.25-0.613-2.555-0.599-3.895c0.252-23.347,0.022-46.696,0.14-70.043
			c0.012-2.433-0.393-5.029,1.584-7.053C243.384,629.326,248.89,632.745,254.445,636.065z"/>
		<path d="M887.031,563.362c0.04,27.398,0.08,54.796,0.12,82.194c-4.595,3.398-10.172,4.93-15.006,7.875
			c-0.034-25.188-0.06-50.376-0.114-75.564c-0.005-2.123,0.432-4.337-0.919-6.274C876.418,568.85,881.724,566.106,887.031,563.362z"
			/>
		<path d="M653.09,315.606c-0.001-25.183-0.027-50.366,0.045-75.549c0.005-1.89-1.196-4.56,2.116-5.241
			c5.25,2.266,10.434,4.659,15.147,7.946c-0.7,3.269-0.711,6.588-0.711,9.907c-0.004,21.079,0.024,42.158-0.031,63.237
			c-0.007,2.594,0.505,5.372-1.566,7.574C663.09,320.856,658.09,318.231,653.09,315.606z"/>
		<path d="M319.14,245.831c0.852,2.701,1.049,5.459,1.042,8.292c-0.054,22.332-0.049,44.664,0.005,66.996
			c0.005,1.89-0.76,4.011,1,5.627c-5.346,2.89-10.691,5.78-16.037,8.671c-1.739-1.709-1.563-3.947-1.57-6.073
			c-0.084-23.877,0.013-47.754-0.068-71.631c-0.005-1.341,0.186-2.641,0.534-3.927C308.908,250.812,313.809,247.914,319.14,245.831z
			"/>
		<path d="M526.112,667.054c-0.01-27.301-0.02-54.602-0.03-81.904c3.721-4.393,9.081-5.165,14.234-6.323
			c0.817-0.184,1.384,0.736,1.748,1.516c0.751,2.087,0.633,4.26,0.638,6.41c0.056,22.9-0.071,45.8,0.079,68.7
			c0.011,1.675-0.204,3.306-0.545,4.932C537.333,663.742,531.773,665.52,526.112,667.054z"/>
		<path d="M352.224,524.098c-0.026,24.898-0.056,49.796-0.072,74.694c-0.001,2.325,0.164,4.663-1.166,6.753
			c-5.404-2.511-10.794-5.048-15.798-8.316c3.039-0.66,1.908-3.123,1.913-4.859c0.071-22.841,0.07-45.683,0.015-68.524
			c-0.006-2.513,0.268-4.926,1.031-7.301C343.94,517.018,348.756,519.307,352.224,524.098z"/>
		<path d="M161.164,411.26c-0.856-2.375-1.01-4.821-1.007-7.337c0.031-24.783,0.002-49.566-0.01-74.35
			c4.682-2.519,9.365-5.038,14.047-7.556c0.836,2.364,1.018,4.791,1.013,7.296c-0.047,22.662-0.059,45.324,0.031,67.985
			c0.007,1.86-1.31,4.536,1.98,5.305C171.867,405.489,166.516,408.375,161.164,411.26z"/>
		<path d="M668.09,323.481c-0.002-25.193-0.024-50.386,0.032-75.578c0.004-1.925-1.06-4.576,2.275-5.14
			c4.414,2.67,9.603,3.84,13.726,7.073c0.389,1.953,0.575,3.915,0.574,5.917c-0.008,23.863-0.074,47.727,0.02,71.59
			c0.006,1.484,0.168,2.996-0.635,4.364C678.44,329.568,673.35,326.36,668.09,323.481z"/>
		<path d="M699.228,257.763c4.394,2.109,8.988,3.834,12.956,6.758c1.235,2.428,1.535,5.016,1.532,7.712
			c-0.024,21.879,0.027,43.758-0.06,65.636c-0.011,2.863,0.645,6.129-2.652,7.984c-4.641-2.429-9.283-4.858-13.924-7.286
			c-1.478-1.988-1.614-4.297-1.615-6.647c-0.012-22.244-0.074-44.488,0.073-66.732C695.556,262.334,694.526,258.498,699.228,257.763
			z"/>
		<path d="M542.237,660.385c-1.332-2.091-1.131-4.434-1.133-6.752c-0.019-24.872-0.048-49.743-0.073-74.615
			c3.587-4.449,8.439-6.435,13.947-7.145c1.189,2.118,1.141,4.429,1.139,6.76c-0.017,24.847-0.007,49.695-0.005,74.542
			C552.014,656.59,546.502,657.291,542.237,660.385z"/>
		<path d="M321.293,671.03c-2.505,1.897-2.139,4.64-2.139,7.268c-0.003,24.5-0.001,49,0,73.5
			c-5.568-2.655-11.219-5.155-16.341-8.651c0.784-4.253,0.758-8.551,0.755-12.853c-0.017-19.679-0.057-39.358,0.042-59.037
			c0.014-2.827-0.822-6.117,2.513-7.987C311.598,665.042,316.459,668.009,321.293,671.03z"/>
		<path d="M444.125,179.971c0.001,16.881-0.003,33.762,0.004,50.643c0.004,10.454,0.023,20.908,0.035,31.362
			c-4.141,2.649-8.401,5.074-12.995,6.87c-1.768-1.613-0.999-3.734-1.004-5.624c-0.055-22.332-0.059-44.664-0.005-66.995
			c0.007-2.833-0.193-5.59-1.039-8.293C433.878,184.819,438.906,182.215,444.125,179.971z"/>
		<path d="M208.153,612.31c-1.266,1.948-0.973,4.141-0.975,6.281c-0.02,24.871-0.034,49.743-0.049,74.614
			c-5.394-1.881-10.21-4.865-15.027-7.848c0.897-2.862,1.113-5.783,1.108-8.785c-0.04-24.161,0.002-48.322,0.019-72.483
			C198.651,606.019,203.363,609.236,208.153,612.31z"/>
		<path d="M711.004,345.854c1.311-2.103,1.069-4.451,1.072-6.762c0.034-24.856,0.071-49.712,0.107-74.569
			c4.835,3.466,11.085,4.282,15.617,8.314c-2.859,0.915-1.67,3.325-1.675,5.072c-0.072,25.237-0.042,50.475-0.036,75.712
			C720.784,351.568,715.913,348.674,711.004,345.854z"/>
		<path d="M902.022,363.665c-2.572,1.22-1.968,3.582-1.97,5.663c-0.016,25.045-0.003,50.089,0.003,75.134
			c-4.942-1.852-9.42-4.609-14.01-7.148c-1.522-1.979-1.617-4.303-1.618-6.653c-0.013-22.284-0.084-44.569,0.078-66.853
			c0.021-2.838-0.983-6.725,3.824-7.281C893.11,358.493,897.7,360.822,902.022,363.665z"/>
		<path d="M699.228,257.763c-2.845,1.275-2.129,3.847-2.132,6.076c-0.028,24.909-0.017,49.819-0.016,74.728
			c-4.479-2.012-8.911-4.111-12.999-6.86c-0.993-1.633-1.014-3.435-1.013-5.274c0.018-23.989,0.003-47.978,0.033-71.967
			c0.002-1.585-0.542-3.36,1.021-4.63C688.979,252.817,694.635,254.281,699.228,257.763z"/>
		<path d="M621.126,619.223c-2.807-1.342-2.006-3.928-2.009-6.137c-0.035-24.896-0.017-49.792-0.014-74.688
			c3.002-4.799,7.619-6.53,12.995-6.822c1.219,4.205,0.994,8.52,0.993,12.819c-0.004,20.767-0.022,41.534,0.033,62.301
			c0.005,1.893-0.772,4.039,1.098,5.608C630.08,615.029,625.755,617.413,621.126,619.223z"/>
		<path d="M306.123,663.27c-1.285,1.94-0.962,4.133-0.963,6.264c-0.009,22.825,0.013,45.65-0.038,68.476
			c-0.004,1.953,0.961,4.554-2.308,5.136c-4.138-1.564-8.014-3.626-11.665-6.115c0.003-24.986-0.005-49.971,0.027-74.957
			c0.003-2.068-0.667-4.405,1.66-5.849C297.451,658.224,302.121,660.119,306.123,663.27z"/>
		<path d="M304.047,253.786c1.844,1.576,1.07,3.713,1.074,5.6c0.05,25.344,0.032,50.687,0.03,76.031
			c-4.291,2.209-8.582,4.417-12.872,6.627c-0.04-24.882-0.082-49.764-0.118-74.647c-0.003-2.316,0.22-4.663-1.097-6.765
			C295.238,258.06,299.395,255.456,304.047,253.786z"/>
		<path d="M599.124,715.138c1.263,1.948,0.968,4.14,0.969,6.278c0.006,23.033-0.014,46.066,0.036,69.098
			c0.004,1.883-0.765,4.043,1.22,5.535c-4.399,2.322-8.799,4.643-13.199,6.965c-0.858-2.714-1.089-5.481-1.083-8.334
			c0.057-24.452,0.035-48.904,0.037-73.356C591.111,719.262,595.118,717.2,599.124,715.138z"/>
		<path d="M921.958,627.17c-2.377-0.189-2.929-1.734-2.928-3.796c0.013-24.185-0.005-48.37,0.048-72.556
			c0.002-1.097,0.6-2.192,0.92-3.288c4.681-1.138,9.37-1.803,14.094-0.222c-1.054,22.167-0.217,44.348-0.466,66.522
			c-0.028,2.484,0.013,4.962-0.528,7.404C929.647,623.703,925.853,625.531,921.958,627.17z"/>
		<path d="M918.979,452.701c0.024-26.704,0.049-53.408,0.073-80.113c5.336,2.128,10.362,4.852,15.211,7.914
			c-1.419,21.975-0.37,43.972-0.615,65.957c-0.025,2.233,1.115,4.119,1.675,6.177C929.88,454.235,924.432,454.127,918.979,452.701z"
			/>
		<path d="M838.038,589.226c0.02,27.355,0.04,54.709,0.06,82.064c-3.324,2.589-7.243,4.062-11.002,5.835
			c-1.776-1.612-1.004-3.738-1.009-5.63c-0.055-22.364-0.062-44.727-0.002-67.091c0.008-2.842-0.247-5.594-1.076-8.301
			C829.097,593.328,833.433,591.024,838.038,589.226z"/>
		<path d="M620.357,786.051c-2.012-1.478-1.226-3.644-1.231-5.523c-0.054-20.217-0.031-40.435-0.036-60.653
			c-0.001-4.947,0.3-9.916-0.988-14.778c4.107-2.712,8.509-4.868,12.991-6.873c-0.001,25.336-0.02,50.672,0.032,76.007
			c0.004,1.897-0.749,4.006,0.926,5.666C628.536,782.672,624.248,783.986,620.357,786.051z"/>
		<path d="M888.33,356.526c-2.888,1.191-2.276,3.743-2.278,5.998c-0.017,24.929-0.009,49.859-0.007,74.788
			c-4.04-2.131-8.081-4.262-12.121-6.392c0.039-25.221,0.062-50.443,0.153-75.665c0.007-1.892-0.772-4.029,1.049-5.622
			C879.749,351.509,884.193,353.725,888.33,356.526z"/>
		<path d="M700.123,744.002c-3.295-0.765-1.981-3.444-1.988-5.306c-0.088-23.014-0.051-46.029-0.068-69.043
			c-0.002-2.125,0.394-4.331-0.928-6.271c3.861-2.302,7.727-4.592,11.952-6.193c1.651,7.015,0.921,14.147,0.955,21.229
			c0.087,18.052,0.006,36.106,0.063,54.159c0.006,1.883-0.77,4.037,1.18,5.55C707.757,740.445,704.135,742.593,700.123,744.002z"/>
		<path d="M653.189,602.507c-0.943-2.855-1.139-5.779-1.134-8.782c0.043-24.163,0.005-48.326-0.008-72.49
			c2.78-3.732,6.391-6.089,11.072-6.678c0.816,2.538,0.998,5.132,0.992,7.798c-0.049,22.657-0.049,45.315,0.007,67.972
			c0.005,2.054-1.098,5.056,2.888,4.895C662.789,598.385,657.787,600.064,653.189,602.507z"/>
		<path d="M237.166,627.309c0.001,24.742-0.001,49.485,0.006,74.227c0.001,2.321,0.203,4.667-1.13,6.763
			c-3.975-2.021-7.949-4.042-11.923-6.062c0.825-2.715,1.094-5.473,1.086-8.325c-0.061-22.429-0.047-44.857-0.008-67.286
			c0.003-1.775-0.552-3.671,0.667-5.313C229.632,623.313,233.399,625.311,237.166,627.309z"/>
		<path d="M338.17,317.799c-0.007-24.933,0-49.866-0.045-74.799c-0.004-2.213,0.793-4.801-2.018-6.143
			c4.126-2.729,8.559-4.878,13.064-6.892c-0.008,25.378-0.03,50.756,0.006,76.134c0.003,1.809-0.874,4.221,2.164,4.732
			C347.163,313.553,342.87,316.061,338.17,317.799z"/>
		<path d="M794.977,307.783c-2.601-0.242-2.94,1.316-2.938,3.424c0.034,24.54,0.008,49.081,0.066,73.621
			c0.003,1.266,0.62,2.531,0.952,3.796c-4.619-1.744-8.84-4.257-13.076-6.74c0.916-2.865,1.115-5.793,1.112-8.799
			c-0.023-24.199,0.034-48.398,0.067-72.597C785.553,303.32,790.881,304.389,794.977,307.783z"/>
		<path d="M402.091,449.494c-3.028-0.67-1.903-3.126-1.908-4.864c-0.064-25.643-0.039-51.286-0.036-76.93
			c3.057-2.203,6.368-3.92,9.926-5.164c1.335,2.109,1.058,4.47,1.06,6.786c0.013,25.108,0.024,50.217,0.036,75.325
			C409.352,448.52,405.794,449.142,402.091,449.494z"/>
		<path d="M337.008,761.044c1.881-1.566,1.102-3.717,1.106-5.612c0.054-22.459,0.056-44.918,0.006-67.377
			c-0.006-2.683,0.184-5.291,1.024-7.84c3.829,1.667,7.608,3.427,11.033,5.852c-1.761,1.629-0.991,3.758-0.995,5.658
			c-0.055,22.443-0.06,44.886-0.003,67.328c0.007,2.685-0.248,5.281-1.014,7.839C344.255,765.305,340.536,763.356,337.008,761.044z"
			/>
		<path d="M410.129,554.532c0.002,25.502,0.017,51.004-0.023,76.506c-0.003,1.738,0.662,3.687-0.985,5.146
			c-3.619-1.174-6.758-3.265-9.978-5.2c-0.002-24.933-0.022-49.867,0.023-74.8c0.004-2.31-0.96-5.304,2.867-5.831
			C405.663,549.948,408.347,551.367,410.129,554.532z"/>
		<path d="M933.098,621.234c-1.585-1.256-1.044-3.033-1.046-4.617c-0.031-21.504-0.042-43.007,0.019-64.511
			c0.005-1.763-1.021-4.207,2.021-4.798c3.613-0.015,6.909,1.055,9.975,2.909c1.595,1.945,1.577,4.285,1.581,6.602
			c0.029,17.347,0.024,34.694,0.006,52.041c-0.003,2.33-0.08,4.642-1.525,6.641C940.732,617.948,936.89,619.543,933.098,621.234z"/>
		<path d="M804.327,523.526c-2.052-0.851-2.29-2.563-2.285-4.504c0.031-12.424-0.024-24.849,0.061-37.273
			c0.012-1.776,0.628-3.549,0.965-5.323c4.447,2.239,9.004,4.288,13.322,6.753c13.389,7.643,13.599,26.099,0.365,34.043
			C812.782,519.606,808.479,521.44,804.327,523.526z"/>
		<path d="M349.083,394.433c2.316,24.59,0.471,49.239,1.058,73.853c0.067,2.812,0.06,5.627,0.087,8.44
			c-2.028,4.273-5.649,5.629-10.086,5.489c0.002-24.437,0.001-48.873,0.012-73.31c0.001-2.992,0.076-5.984-2.146-8.401
			C341.452,398.03,345.223,396.15,349.083,394.433z"/>
		<path d="M838.691,330.741c-2.778,1.003-1.58,3.387-1.586,5.14c-0.084,25.241-0.062,50.482-0.066,75.724
			c-3.572-1.247-6.795-3.168-9.982-5.157c0.015-27.287,0.03-54.574,0.045-81.861C831.223,326.152,835.162,328.063,838.691,330.741z"
			/>
		<path d="M944.128,615.5c-0.021-21.761-0.041-43.522-0.062-65.284c5.616,2.081,10.778,5.045,15.883,8.122
			c-0.668,16.283-0.568,32.567-0.061,48.852C954.842,610.35,949.564,613.074,944.128,615.5z"/>
		<path d="M944.067,385.597c4.439,2.09,9.001,3.948,13.019,6.837c1.046,1.367,1.463,2.942,1.474,4.63
			c0.096,14.344,0.12,28.687-0.012,43.031c-0.008,0.833-0.314,1.613-0.581,2.394c-4.391,2.764-8.91,5.28-13.787,7.104
			c-2.875-0.348-2.622-2.744-2.644-4.549c-0.226-18.262-0.208-36.525-0.01-54.787C941.545,388.447,941.243,386.062,944.067,385.597z
			"/>
		<path d="M944.067,385.597c-1.561,1.278-1.014,3.057-1.017,4.647c-0.034,18.251-0.032,36.503-0.002,54.754
			c0.003,1.591-0.516,3.379,1.132,4.594c-2.644,1.911-5.616,2.869-8.858,3.044c-2.83-0.276-3.315-2.136-3.311-4.565
			c0.038-21.017,0.03-42.034,0.007-63.051c-0.002-1.926,0.181-3.662,2.245-4.518C937.748,381.784,941.021,383.474,944.067,385.597z"
			/>
		<path d="M984.175,580.23c0,1.693,0,3.387,0,5.08c-1.415,8.85-6.954,14.05-15.067,16.974c-2.86-0.413-2.538-2.81-2.579-4.62
			c-0.227-9.966-0.238-19.937,0.006-29.902c0.044-1.807-0.245-4.208,2.645-4.544C977.42,566.041,982.775,571.397,984.175,580.23z"/>
		<path d="M968.948,398.624c9.472,3.723,14.227,10.221,14.165,19.358c-0.063,9.232-5.107,15.422-16.049,19.694
			c-1.499-1.365-1.578-3.215-1.598-5.019c-0.106-9.711-0.214-19.426,0.079-29.133C965.607,401.497,964.83,398.16,968.948,398.624z"
			/>
		<path d="M968.948,398.624c-2.764,0.528-1.882,2.747-1.889,4.375c-0.051,11.559-0.008,23.118,0.006,34.677
			c-2.797,2.049-5.84,3.634-9.098,4.814c-1.353-1.168-0.924-2.757-0.925-4.201c-0.005-15.284,0.024-30.569,0.044-45.853
			C961.276,394.047,965.22,396.129,968.948,398.624z"/>
		<path d="M969.18,563.219c-1.129,0.756-1.155,1.919-1.155,3.097c0.002,10.946,0.001,21.892,0,32.838
			c0,1.169-0.026,2.345,1.083,3.131c-2.825,2.1-5.958,3.622-9.219,4.905c-2.463-0.433-1.838-2.392-1.842-3.918
			c-0.036-13.687-0.033-27.374-0.004-41.06c0.003-1.544-0.556-3.484,1.907-3.873C963.246,559.552,966.347,561.132,969.18,563.219z"
			/>
	</g>
</g>
</svg>
