<?xml version="1.0" encoding="utf-8"?>
<!-- Generator: Adobe Illustrator 25.2.0, SVG Export Plug-In . SVG Version: 6.00 Build 0)  -->
<svg version="1.1" xmlns="http://www.w3.org/2000/svg" xmlns:xlink="http://www.w3.org/1999/xlink" x="0px" y="0px"
	 viewBox="0 0 400 400" style="enable-background:new 0 0 400 400;" xml:space="preserve">
<style type="text/css">
	.st0{fill:#FFFFFF;}
</style>
<g id="레이어_2">
</g>
<g id="레이어_1">
	<path class="st0" d="M362.4,199.1c0-0.4,0-0.8,0-1.2c0-0.4,0-0.8,0-1.2c0-0.3,0-0.5,0-0.8c-0.8-33.7-12.2-65.7-31.3-92
		c-0.3-0.4-0.6-0.8-0.9-1.2c0,0,0,0,0-0.1c-25-33.4-62.6-56.9-105.7-63.4c-2-0.2-4.1-0.5-6.1-0.8c-6-0.7-12.2-1-18.4-1
		c-6.2,0-12.2,0.3-18.2,1c-3,0.7-6.1,0.9-9.1,1.3c-1.1,0.2-2.3,0.4-3.4,0.6c-21.3,4.9-40.1,12.4-56.5,22.5
		c-18,11.5-33.7,26.5-45.9,43.9c-11.1,16.4-19.5,35.5-25.3,57.3c-0.2,0.9-0.5,1.8-0.7,2.7c-0.4,2.1-0.8,4.2-1.2,6.4
		c-0.4,2.4-0.7,4.8-1,7.2c-0.1,0.9-0.2,1.8-0.3,2.6l-0.7,25c0.2,3.2,0.4,6.4,0.7,9.6c1,3.1,0.8,6.3,1.3,9.5
		C50.9,292.6,101,345,166,359c10.9,2.3,22.3,3.5,33.9,3.5c9.7,0,19.3-0.9,28.5-2.5c42-7.6,79.7-31.6,104.3-66.4
		c9.3-13.1,16.7-27.7,21.7-43.4c0,0,0,0,0,0c0.1-0.4,0.3-0.9,0.4-1.3c0.1-0.3,0.2-0.6,0.3-0.9c0-0.2,0.1-0.3,0.1-0.5
		c1.2-3.8,2.2-7.7,3.1-11.6c2.6-11.7,3.9-23.4,4-34.9c0-0.3,0-0.5,0-0.8C362.4,199.8,362.4,199.4,362.4,199.1z M121,319.9
		c-5.3,5.3-5.3,5.5-11.3,1c-30.6-23.3-50-53.6-57.9-91.4c-2-9.8-2.6-19.8-3.2-28.5c0.9-38.4,12.5-71.4,37-99.6
		c23.8-27.3,53.4-44.4,89.2-50.2c44.6-7.4,84.5,3.8,120.1,31.4c1.6,1.2,2.2,2.2,0.4,3.8c-2.1,1.9-3.8,5-6.2,5.6
		c-2.2,0.6-4.3-2.6-6.4-4.2c-18.4-13.3-38.9-22-61.3-25c-39.2-5.4-74.9,3.8-106.3,28.1c-27.7,21.5-45.1,49.8-51.4,84.3
		c-7.3,39.9,1.3,76.5,25.3,109.3c8.8,12,19.3,22.2,31.6,30.6C123.4,317,123,318,121,319.9z M128.7,203.7
		c23.3,23.1,46.4,46.3,69.6,69.5c1.5,1.5,2.4,2.8,4.7,0.5c19.1-19.4,38.4-38.5,57.7-57.8c0.4-0.4,1.2-0.8,0.8-2c-4.7,0-9.5,0-14.3,0
		c-11.8,0-23.6,0.2-35.3-0.1c-3.9-0.1-4.8,1.2-4.6,4.8c0.3,4.5,0.1,9.1,0.1,13.6c-0.3,0.2-0.7,0.4-1,0.6c-1.7-1.8-3.3-3.8-5.1-5.5
		c-7.9-8-15.9-15.9-23.9-23.8c-1.7-1.7-2.4-2.7-0.2-4.8c9.9-9.6,19.6-19.5,30.2-30.1c0,5.8,0.2,10.6-0.1,15.5
		c-0.2,3.1,0.7,3.8,3.8,3.8c23.7-0.1,47.4,0.1,71.1-0.1c8.2-0.1,14.2,3,17.3,10.6c3.2,7.7,0.9,14.5-4.8,20.3
		c-12.7,12.8-25.5,25.5-38.2,38.2c-14.8,14.8-29.7,29.7-44.5,44.5c-7.5,7.5-14.7,7.6-22.1,0.1c-29.9-29.9-59.7-59.8-89.7-89.5
		c-6.9-6.8-6.3-15.5,0.1-21.9c30.2-29.7,60-59.8,90-89.8c7.1-7.1,13.9-7,21,0c15.6,15.6,31.2,31.2,46.8,46.8
		c3.6,3.6,5.3,7.6,3.9,12.8c-1.5,5.5-5,8.7-10.6,9.7c-5,0.9-8.9-1.3-12.2-4.7c-12-12-24-23.9-35.9-36c-2-2-3-2-5,0
		c-23.1,23.2-46.3,46.4-69.5,69.5C126.6,200.5,126.5,201.5,128.7,203.7z M350.2,215.6c-3.2,28.1-13.1,53.7-30.5,76.1
		c-21.6,27.9-49.5,46.4-83.9,54.8c-37.6,9.1-73.4,4.2-107.6-13.7c-2.3-1.2-2.1-1.9-0.5-3.6c5.6-5.8,5.5-5.8,12.8-2.3
		c23.8,11.4,48.7,15.6,75,13c26.8-2.7,50.9-12.4,71.9-29.2c27-21.5,44.1-49.3,50.8-83.4c1.7-8.6,2.7-17.3,2.5-26.2
		c-0.3-38-13.8-70.6-40-97.9c-2.3-2.4-2.5-3.7,0-6c5.2-4.8,5.2-5.1,9.8,0c19.1,20.9,31.9,45.1,37.5,73
		C350.9,185.2,351.9,200.4,350.2,215.6z"/>
</g>
</svg>
