<?xml version="1.0" encoding="iso-8859-1"?>
<!-- Generator: Adobe Illustrator 25.4.1, SVG Export Plug-In . SVG Version: 6.00 Build 0)  -->
<svg version="1.1" id="&#xB808;&#xC774;&#xC5B4;_1" xmlns="http://www.w3.org/2000/svg" xmlns:xlink="http://www.w3.org/1999/xlink"
	 x="0px" y="0px" viewBox="0 0 1000 1000" style="enable-background:new 0 0 1000 1000;" xml:space="preserve">
<g id="llKDjq.tif">
	<g>
		<path d="M980.234,535.509c-3.456,12.688-3.153,25.876-5.208,38.769c-18.091,113.507-70.646,208.241-155.411,285.336
			c-15.819,14.387-32.76,27.529-50.789,39.14c-2.265,1.459-4.557,4.497-7.587,2.46c-2.304-1.549-1.436-4.685-1.528-7.179
			c-0.106-2.871-0.033-5.749-0.033-8.623c0-104.45,0.409-208.901-0.198-313.347c-0.251-43.161-4.196-86.171-17.314-127.648
			c-24.069-76.106-72.46-124.654-154.287-135.331c-61.652-8.045-115.171,11.921-164.543,46.548
			c-29.58,20.746-54.293,46.4-74.511,76.366c-1.216,1.803-2.673,3.444-4.028,5.174c-4.059-1.826-2.622-5.13-2.624-7.625
			c-0.082-123.615-0.006-247.229-0.211-370.844c-0.014-8.261,3.341-11.733,10.834-14.143
			c57.223-18.405,115.98-26.095,175.759-22.379c106.593,6.626,201.543,43.81,282.909,113.542
			c91.508,78.424,145.955,177.67,164.351,296.727c1.748,11.311,1.384,22.9,4.417,34.047
			C980.234,489.502,980.234,512.505,980.234,535.509z"/>
		<path d="M458.818,980.238c-14.303-5.01-29.544-4.375-44.224-7.348c-21.01-4.255-41.665-9.676-62.227-15.635
			c-7.158-2.074-10.403-5.599-10.389-13.482c0.197-114.045-1.058-228.107,0.535-342.131
			c1.209-86.484,42.797-149.352,120.798-187.025c27.371-13.22,56.782-19.809,87.468-16.385
			c47.021,5.247,76.145,32.953,92.232,75.881c9.95,26.551,14.304,54.296,15.156,82.547c3.862,128.053,0.588,256.14,1.931,384.204
			c0.108,10.339-3.693,14.545-13.164,17.342c-31.946,9.432-64.301,16.535-97.445,19.958c-2.852,0.295-5.775,0.264-8.24,2.074
			C513.771,980.238,486.294,980.238,458.818,980.238z"/>
		<path d="M242.304,501.1c0.001,129.362,0.023,258.724-0.097,388.085c-0.004,4.185,2.416,10.078-2.338,12.213
			c-3.776,1.696-7.348-2.969-10.628-5.294C118.576,817.681,50.062,712.117,27.828,578.087
			C11.15,477.552,25.534,380.693,70.56,289.117c37.25-75.761,91.395-137.319,161.215-184.937c2.531-1.726,5.16-5.165,8.324-3.631
			c3.802,1.843,2.134,6.293,2.136,9.591C242.315,240.459,242.303,370.78,242.304,501.1z"/>
	</g>
</g>
</svg>
