<?xml version="1.0" encoding="utf-8"?>
<!-- Generator: Adobe Illustrator 25.2.0, SVG Export Plug-In . SVG Version: 6.00 Build 0)  -->
<svg version="1.1" xmlns="http://www.w3.org/2000/svg" xmlns:xlink="http://www.w3.org/1999/xlink" x="0px" y="0px"
	 viewBox="0 0 400 400" style="enable-background:new 0 0 400 400;" xml:space="preserve">
<style type="text/css">
	.st0{fill:#000000;}
</style>
<g id="레이어_2">
</g>
<g id="레이어_1">
	<path class="st0" d="M291.8,39.8c-37.9,0-68.9,30.9-69.9,68.9v76.8c-7,0-14,1-22,1c-8,0-15,0-22,1v-78.8
		c0-37.9-31.9-68.9-70.8-67.9c-36.9,0-66.9,30.9-67.9,67.9v183.6c1,37.9,31.9,68.9,70.8,67.9c37.9-1,67.9-30.9,67.9-67.9v-76.8
		c7,0,14-1,22-1c8,0,15,0,22-1v77.8c1,37.9,31.9,68.9,70.8,67.9c37.9-1,67.9-30.9,67.9-67.9V108.7C360.7,70.8,329.7,39.8,291.8,39.8
		z M109.2,67.8c23,0,40.9,18,40.9,40.9v80.8c-20,3-39.9,9-58.9,17c-8,4-16,8-23,14V108.7C68.3,86.7,86.2,67.8,109.2,67.8z
		 M150.1,292.3c0,23-18,40.9-40.9,40.9s-40.9-18-40.9-40.9v-18c0-16,13-31.9,34.9-40.9c15-7,30.9-11,47.9-14L150.1,292.3z
		 M291.8,333.2c-23,0-40.9-18-40.9-40.9v-80.8c20-3,39.9-9,58.9-17c8-4,16-8,23-14v111.8C332.7,315.2,313.8,333.2,291.8,333.2z
		 M297.8,168.6c-15,7-30.9,11-47.9,14v-73.8c0-23,18-40.9,40.9-40.9s40.9,18,40.9,40.9v18C332.7,143.6,319.7,158.6,297.8,168.6z"/>
</g>
</svg>
