<?xml version="1.0" encoding="iso-8859-1"?>
<!-- Generator: Adobe Illustrator 25.4.1, SVG Export Plug-In . SVG Version: 6.00 Build 0)  -->
<svg version="1.1" id="&#xB808;&#xC774;&#xC5B4;_1" xmlns="http://www.w3.org/2000/svg" xmlns:xlink="http://www.w3.org/1999/xlink"
	 x="0px" y="0px" viewBox="0 0 1000 1000" style="enable-background:new 0 0 1000 1000;" xml:space="preserve">
<g id="siWfHh_00000146473404709259054760000014051317149053300661_">
	<g>
		<path d="M469.619,32.599c20.254,0,40.508,0,60.762,0c2.973,0.693,5.917,1.807,8.924,2.015
			c48.944,3.399,96.114,14.65,140.907,34.38c145.613,64.137,237.874,173.569,275.377,328.35
			c5.732,23.657,7.962,48.162,11.812,72.275c0,20.254,0,40.508,0,60.762c-0.671,2.584-1.777,5.139-1.949,7.756
			c-3.25,49.365-14.571,96.91-34.451,142.08c-63.917,145.226-173.029,237.362-327.237,275.16
			c-24.001,5.883-48.899,8.108-73.383,12.025c-20.254,0-40.508,0-60.762,0c-2.976-0.695-5.921-1.806-8.931-2.022
			c-56.518-4.066-110.408-18.386-161.109-43.432C164.845,855.389,79.362,748.943,44.404,602.664
			c-5.66-23.682-7.955-48.169-11.805-72.283c0-20.254,0-40.508,0-60.762c0.668-2.576,1.768-5.122,1.941-7.731
			c3.277-49.361,14.564-96.915,34.449-142.09C132.914,174.571,242.018,82.424,396.234,44.628
			C420.237,38.746,445.135,36.517,469.619,32.599z M370.844,279.599c-29.64,0-58.515,0-87.283,0c0,29.586,0,58.176,0,86.863
			c29.498,0,58.107,0,87.283,0C370.844,337.194,370.844,308.659,370.844,279.599z M283.345,711.45c29.759,0,58.294,0,87.288,0
			c0-29.608,0-58.419,0-87.415c-29.521,0-58.084,0-87.288,0C283.345,653.282,283.345,681.842,283.345,711.45z M602.513,624.371
			c-30.053,0-58.867,0-87.637,0c0,29.543,0,58.054,0,86.782c29.664,0,58.466,0,87.637,0
			C602.513,681.821,602.513,653.574,602.513,624.371z M833.475,711.449c0-29.979,0-58.606,0-87.31c-29.393,0-57.982,0-87.13,0
			c0,29.384,0,57.954,0,87.31C775.649,711.449,804.229,711.449,833.475,711.449z M718.599,366.693
			c0-28.019,0.168-55.121-0.342-82.212c-0.038-2.009-4.911-5.581-7.587-5.628c-24.066-0.427-48.146-0.064-72.217-0.319
			c-6.78-0.072-8.724,2.767-8.572,9.052c0.291,12.03,0.07,24.072,0.068,36.109c-0.003,14.187-0.001,28.374-0.001,42.997
			C660.064,366.693,688.3,366.693,718.599,366.693z M718.003,624.385c-29.606,0-58.475,0-87.996,0
			c0,27.455,0.106,53.873-0.075,80.289c-0.045,6.515,3.29,7.661,8.794,7.601c16.33-0.18,32.663-0.045,48.995-0.038
			c9.935,0.005,19.87,0.001,30.283,0.001C718.003,681.708,718.003,653.126,718.003,624.385z M718.049,393.747
			c-19.974,0-38.954,0-57.934,0c-30.166,0-30.166-0.001-30.166,30.381c0,18.869,0,37.737,0,56.908c30.347,0,58.899,0,88.1,0
			C718.049,452.127,718.049,423.909,718.049,393.747z M168.343,710.83c29.312,0,57.988,0,86.766,0c0-29.684,0-57.956,0-86.747
			c-29.107,0-57.64,0-86.766,0C168.343,653.442,168.343,682.036,168.343,710.83z M487.11,624.352c-30.176,0-59.023,0-88.515,0
			c0,27.416,0.098,53.832-0.071,80.246c-0.041,6.379,3.088,7.728,8.692,7.686c23.712-0.177,47.427-0.225,71.137,0.029
			c6.576,0.071,8.894-2.397,8.842-8.867C486.988,677.415,487.11,651.381,487.11,624.352z M283.479,394.49
			c0,29.259,0,57.772,0,86.165c29.695,0,58.576,0,87.249,0c0-29.301,0-57.517,0-86.165
			C341.266,394.49,312.673,394.49,283.479,394.49z M514.932,394.591c0,28.659,0,57.18,0,86.31c29.232,0,58.115,0,87.366,0
			c0-29.046,0-57.258,0-86.31C573.422,394.591,545.186,394.591,514.932,394.591z M370.833,509.255c-29.565,0-58.161,0-87.365,0
			c0,29.256,0,57.796,0,86.705c29.395,0,58.005,0,87.365,0C370.833,567.032,370.833,538.822,370.833,509.255z M718.074,596.11
			c0-29.69,0-57.911,0-86.597c-29.532,0-58.376,0-87.025,0c0,29.466,0,57.944,0,86.597
			C660.428,596.11,688.703,596.11,718.074,596.11z M486.347,394.561c-29.342,0-57.887,0-86.855,0c0,29.31,0,57.798,0,86.29
			c29.571,0,58.169,0,86.855,0C486.347,451.716,486.347,423.467,486.347,394.561z M514.771,509.247c0,29.189,0,57.652,0,86.466
			c13.654,0,26.548,0,39.571,0c0-29.388,0-57.809,0-86.466C540.694,509.247,528.063,509.247,514.771,509.247z M438.661,596.002
			c0-29.23,0-57.769,0-86.754c-13.408,0-26.042,0-39.282,0c0,29.216,0,57.721,0,86.754
			C412.859,596.002,425.483,596.002,438.661,596.002z M602.108,366.719c0-24.659,0-47.985,0-66.257
			c-21.579,21.143-45.253,44.338-67.625,66.257C554.871,366.719,578.037,366.719,602.108,366.719z M399.245,366.103
			c24.349,0,47.985,0,68.324,0c-22.025-22.562-45.125-46.226-68.324-69.991C399.245,319.001,399.245,342.419,399.245,366.103z"/>
	</g>
</g>
</svg>
