<?xml version="1.0" encoding="utf-8"?>
<!-- Generator: Adobe Illustrator 25.2.0, SVG Export Plug-In . SVG Version: 6.00 Build 0)  -->
<svg version="1.1" xmlns="http://www.w3.org/2000/svg" xmlns:xlink="http://www.w3.org/1999/xlink" x="0px" y="0px"
	 viewBox="0 0 400 400" style="enable-background:new 0 0 400 400;" xml:space="preserve">
<style type="text/css">
	.st0{filter:url(#Adobe_OpacityMaskFilter);}
	.st1{fill-rule:evenodd;clip-rule:evenodd;fill:#000000;}
	.st2{mask:url(#mask-2_2_);fill-rule:evenodd;clip-rule:evenodd;fill:#000000;}
</style>
<g id="레이어_2">
</g>
<g id="레이어_1">
	<g id="Group-12">
		<defs>
			<filter id="Adobe_OpacityMaskFilter" filterUnits="userSpaceOnUse" x="80.2" y="30.4" width="239.6" height="344.1">
				<feColorMatrix  type="matrix" values="1 0 0 0 0  0 1 0 0 0  0 0 1 0 0  0 0 0 1 0"/>
			</filter>
		</defs>
		<mask maskUnits="userSpaceOnUse" x="80.2" y="30.4" width="239.6" height="344.1" id="mask-2_2_">
			<g class="st0">
				<polygon id="path-1_2_" class="st1" points="80.2,30.4 319.8,30.4 319.8,374.5 80.2,374.5 				"/>
			</g>
		</mask>
		<path id="Fill-10" class="st2" d="M285.4,38.9c-7.8-2.5-15.5-5.2-23.2-7.8c-9.6-3.4-18.7,6.2-18.4,19.1c0.9,24,1.7,48.1,2.6,72.1
			c0.3,8-3.6,15.2-9.7,18.2c-12.1,5.8-24.3,11.5-36.7,17c-12.4-5.5-24.6-11.2-36.7-17c-6.2-3-10-10.3-9.7-18.2
			c0.9-24,1.7-48.1,2.6-72.1c0.4-12.9-8.8-22.4-18.4-19.1c-7.7,2.7-15.4,5.3-23.2,7.8c-6.3,2.1-11.1,9.1-11.7,17.4
			c-2.2,28.4-4.5,56.8-6.7,85.2c-0.6,7.9,3,15.4,9.1,18.6c13.5,7.1,12.4,30.5-2.5,35.7c-6.7,2.3-11.6,9.1-12.2,17
			c-3.4,43.4-6.8,86.8-10.2,130.2c-0.6,8.3,4,16.1,11.6,19.2c9.3,3.7,18.8,7.4,28.2,11c11.9,4.5,24.6-4.3,25.1-17.2
			c1.4-39.1,2.8-78.2,4.2-117.2c0.3-8,4.9-14.9,11.6-17.5c13.1-5.1,26.1-10.5,39-16c12.8,5.5,25.8,10.8,39,16
			c6.7,2.6,11.3,9.6,11.6,17.5c1.4,39.1,2.8,78.1,4.2,117.2c0.4,12.9,13.1,21.7,25.1,17.2c9.5-3.6,18.9-7.2,28.2-11
			c7.6-3.1,12.3-10.8,11.6-19.2c-3.4-43.4-6.8-86.8-10.2-130.2c-0.7-7.9-5.5-14.7-12.2-17c-14.9-5.2-16.1-28.6-2.5-35.7
			c6.2-3.2,9.7-10.7,9.1-18.6c-2.2-28.4-4.5-56.8-6.7-85.2C296.4,48,291.7,41,285.4,38.9"/>
	</g>
</g>
</svg>
