<svg width="400" height="400" viewBox="0 0 400 400" fill="none" xmlns="http://www.w3.org/2000/svg">
<mask id="mask0" mask-type="alpha" maskUnits="userSpaceOnUse" x="80" y="30" width="240" height="345">
<path fill-rule="evenodd" clip-rule="evenodd" d="M80.2 30.4H319.8V374.5H80.2V30.4Z" fill="white"/>
</mask>
<g mask="url(#mask0)">
<path fill-rule="evenodd" clip-rule="evenodd" d="M285.4 38.9C277.6 36.4 269.9 33.7 262.2 31.1C252.6 27.7 243.5 37.3 243.8 50.2C244.7 74.2 245.5 98.3 246.4 122.3C246.7 130.3 242.8 137.5 236.7 140.5C224.6 146.3 212.4 152 200 157.5C187.6 152 175.4 146.3 163.3 140.5C157.1 137.5 153.3 130.2 153.6 122.3C154.5 98.3 155.3 74.2 156.2 50.2C156.6 37.3 147.4 27.8 137.8 31.1C130.1 33.8 122.4 36.4 114.6 38.9C108.3 41 103.5 48 102.9 56.3C100.7 84.7 98.4 113.1 96.2 141.5C95.6 149.4 99.2 156.9 105.3 160.1C118.8 167.2 117.7 190.6 102.8 195.8C96.1 198.1 91.2 204.9 90.6 212.8C87.2 256.2 83.8 299.6 80.4 343C79.8 351.3 84.4 359.1 92 362.2C101.3 365.9 110.8 369.6 120.2 373.2C132.1 377.7 144.8 368.9 145.3 356C146.7 316.9 148.1 277.8 149.5 238.8C149.8 230.8 154.4 223.9 161.1 221.3C174.2 216.2 187.2 210.8 200.1 205.3C212.9 210.8 225.9 216.1 239.1 221.3C245.8 223.9 250.4 230.9 250.7 238.8C252.1 277.9 253.5 316.9 254.9 356C255.3 368.9 268 377.7 280 373.2C289.5 369.6 298.9 366 308.2 362.2C315.8 359.1 320.5 351.4 319.8 343C316.4 299.6 313 256.2 309.6 212.8C308.9 204.9 304.1 198.1 297.4 195.8C282.5 190.6 281.3 167.2 294.9 160.1C301.1 156.9 304.6 149.4 304 141.5C301.8 113.1 299.5 84.7 297.3 56.3C296.4 48 291.7 41 285.4 38.9Z" fill="black"/>
</g>
</svg>
