<?xml version="1.0" encoding="utf-8"?>
<!-- Generator: Adobe Illustrator 25.2.0, SVG Export Plug-In . SVG Version: 6.00 Build 0)  -->
<svg version="1.1" xmlns="http://www.w3.org/2000/svg" xmlns:xlink="http://www.w3.org/1999/xlink" x="0px" y="0px"
	 viewBox="0 0 400 400" style="enable-background:new 0 0 400 400;" xml:space="preserve">
<style type="text/css">
	.st0{fill:#000000;}
</style>
<g id="레이어_2">
</g>
<g id="레이어_1">
	<g>
		<g>
			<path class="st0" d="M246.6,361.2c-0.8-0.8-1.6-1.6-2.4-1.6c-20.7-4.8-39.8-11.9-56.5-21.5c-36.6-21.5-59.7-52.5-60.5-89.2
				c0-13.5,2.4-27.1,8.8-40.6c4-8,23.1-37.4,27.1-43c13.5-21.5,8.8-19.9-9.6-46.2l-28.7-39.8l-18.3-27.1l0,0l0,0l0,0
				c-11.1,7.2-20.7,15.1-30.3,23.9c-31.8,31.8-51,74.8-51,123.4c0,66.1,36.6,123.4,90,152.9C54.7,307.9,26.8,241,49.9,173.3
				c6.4-18.3,15.9-35,27.9-50.2l19.9,29.5c2.4,3.2,2.4,8-0.8,11.1c-9.6,11.9-17.5,25.5-22.3,39c-25.5,75.6,43.8,152.1,117,164.8
				c14.3,2.4,39.8,4.8,52.5,1.6C247.4,368.4,248.2,363.6,246.6,361.2z"/>
		</g>
		<g>
			<path class="st0" d="M154.2,38c0,0.8,0.8,1.6,2.4,1.6c20.7,4.8,39.8,11.9,56.5,21.5c36.6,21.5,59.7,52.5,60.5,89.2
				c0,13.5-2.4,27.1-8.8,40.6c-4,8-23.1,37.4-27.1,43c-13.5,21.5-8.8,19.9,9.6,46.2l27.9,40.6l18.3,27.1l0,0l0,0l0,0
				c11.1-7.2,20.7-15.1,30.3-23.9c31.8-31.8,51-75.6,51-123.4c0.8-66.1-35.8-123.4-89.2-152.9c60.5,44.6,88.4,111.5,65.3,179.1
				c-6.4,18.3-15.9,35-27.9,50.2l-19.9-30.3c-2.4-3.2-2.4-8,0.8-11.1c9.6-11.9,17.5-25.5,22.3-39c25.5-74-43.8-151.3-116.2-164
				c-14.3-2.4-39.8-4.8-52.5-1.6C152.6,31.6,151.8,35.6,154.2,38z"/>
		</g>
	</g>
</g>
</svg>
