<?xml version="1.0" encoding="utf-8"?>
<!-- Generator: Adobe Illustrator 25.2.1, SVG Export Plug-In . SVG Version: 6.00 Build 0)  -->
<svg version="1.1" id="레이어_1" xmlns="http://www.w3.org/2000/svg" xmlns:xlink="http://www.w3.org/1999/xlink" x="0px"
	 y="0px" viewBox="0 0 1000 1000" style="enable-background:new 0 0 1000 1000;" xml:space="preserve">
<path d="M617.01,787.86c-21.01,2.07-35.94-8.84-46.22-24.85c-10.4-16.19-12.19-34.47-2.96-52.67c0.92-1.82,1.02-4.89,0.11-6.66
	c-5.38-10.48-12.01-20.18-21.5-27.37c-5.18-3.92-10.97-7.09-16.72-10.16c-1.32-0.7-3.79,0.02-5.42,0.77
	c-10.36,4.75-20.86,8.27-32.41,4.8c-5.44-1.64-10.76-3.93-16.31-4.86c-2.89-0.48-6.44,0.81-9.23,2.21
	c-14.4,7.21-24.68,18.82-32.38,32.59c-1.61,2.88-1.34,7.95,0.03,11.18c6.04,14.25,5.65,27.83,0.08,42.37
	c-6,15.66-17.64,24.87-31.74,31.31c-5.85,2.67-13.26,2.76-19.94,2.66c-23.11-0.35-39.76-12.41-49.53-32.25
	c-5.31-10.79-6.92-23.64-2.48-36.03c1.43-4,3.43-8.07,3.57-12.16c0.12-3.54-1.41-7.53-3.29-10.67
	c-8.35-13.93-19.67-24.67-34.83-31.15c-4.6-1.96-7.47,1.77-11.18,2.63c-8.19,1.89-15.98,4.5-24.87,2.82
	c-8.42-1.59-15.91-4.47-23.1-8.86c-7.87-4.81-13.6-11.44-18.14-19.35c-4.16-7.23-6.55-15.04-7.27-23.21
	c-0.74-8.39,0.34-16.9,4.57-24.21c3.19-5.5,1.24-9.56-1.17-14.03c-7.63-14.15-19.22-24.34-33.05-32c-2.44-1.35-6.79-1.5-9.23-0.23
	c-9.13,4.75-18.73,5.9-28.58,4.74c-5.3-0.63-10.44-2.71-15.59-4.34c-15.1-4.79-23.07-16.82-30.03-29.84
	c-0.23-0.42-0.66-0.8-0.73-1.24c-1.2-7.67-4.12-15.57-3.18-22.98c2.65-20.75,12.73-37.49,32.54-46.21
	c10.62-4.68,21.99-7.79,33.9-3.35c4.42,1.65,9.08,2.91,13.74,3.6c6.88,1.01,12.45-2.83,17.42-6.72
	c10.75-8.41,20.14-18.17,25.28-31.16c0.63-1.58,0.16-3.97-0.55-5.66c-6.74-16-7.69-31.64,0.73-47.58
	c3.57-6.76,7.6-12.85,13.32-17.78c7.35-6.34,16-10.73,25.4-12.25c11.44-1.85,23.02-1.69,33.72,4.43c1.77,1.01,4.97,0.91,6.91,0.02
	c14.33-6.58,25.55-16.92,33.53-30.38c2.68-4.52,5.12-9.19,2.03-15.92c-4.09-8.91-5.02-19.23-3.45-29.25
	c2.42-15.45,10.51-27.11,22.98-36.71c14.55-11.21,30.74-9.5,46.99-8.1c3.87,0.33,7.5,3.38,11.26,5.14
	c9.81,4.61,17.67,12.23,21.89,21.48c5.4,11.85,10.25,24.77,4.89,38.46c-1.21,3.09-2.31,6.22-3.24,9.4
	c-1.79,6.14,0.06,11.56,3.43,16.71c8.3,12.67,19.14,22.5,32.76,29.06c1.85,0.89,4.93,0.76,6.82-0.16
	c15.92-7.78,31.69-8.02,47.62-0.08c1.56,0.78,4.1,1.26,5.47,0.53c11.51-6.12,22.42-13.13,30.04-24.07
	c3.02-4.33,5.84-8.85,8.16-13.57c0.9-1.83,0.92-4.85,0.02-6.68c-7.83-15.97-7.07-31.62,0.12-47.66
	c6.17-13.78,17.63-21.37,30.09-28.15c0.14-0.08,0.29-0.16,0.44-0.19c6.09-1.14,12.36-3.81,18.22-3.09
	c11.05,1.36,22.13,2.84,31.81,10.21c9.76,7.43,17.43,16.23,21.28,27.44c2.31,6.73,1.96,14.64,1.57,21.95
	c-0.32,6.04,0.22,12.33-3.29,18.15c-2.39,3.97-1.35,8.46,1.81,12.43c3.41,4.29,6.2,9.06,9.36,13.56
	c6.37,9.06,15.78,14.21,25.22,19.23c1.45,0.77,3.98,0.81,5.44,0.07c14.99-7.62,30.25-7.71,45.57-1.58
	c9.81,3.93,18.58,10.34,23.93,19.15c9.88,16.29,14.67,33.86,5.29,52.48c-3.33,6.6-0.25,12.32,3.29,17.49
	c6.62,9.67,14.51,18.24,24.53,24.53c3.06,1.92,6.46,3.35,9.84,4.66c1.2,0.46,2.97,0.25,4.2-0.3c10.01-4.47,20.57-6.78,31.29-4.88
	c9.09,1.62,17.95,3.91,25.82,10.19c10.17,8.12,16.12,18.59,21.4,29.84c0.51,1.09,0.38,2.53,0.4,3.81c0.05,4.19-0.36,8.42,0.12,12.55
	c1.35,11.67-4.27,20.81-9.88,30.21c-4.18,7.01-10.36,12.3-16.89,15.69c-11.74,6.08-24.62,10.15-38.33,6.28
	c-4.29-1.21-8.39-3.15-12.71-4.23c-7.39-1.86-12.9,2.57-18.39,6.37c-8.36,5.79-15.11,13.17-20.76,21.64
	c-4.49,6.73-6.56,12.8-2.66,21.32c6.61,14.42,4.45,29.34-3.32,42.92c-3.83,6.69-8.5,13.51-14.43,18.21
	c-6.72,5.33-14.65,10.08-23.67,10.85c-7.18,0.61-14.49,0.39-21.69-0.08c-3.24-0.21-6.85-1.26-9.47-3.11
	c-5.54-3.92-10.15-1.34-14.69,1.27c-10.77,6.19-19.97,14.2-26.63,24.82c-1.66,2.65-3.26,5.47-4.11,8.44
	c-0.7,2.44-1.17,5.68-0.14,7.76c4.28,8.63,3.48,17.81,3.73,26.88c0.59,21.81-12.63,35.08-29.11,46.04
	C634.83,788.29,625.69,787.61,617.01,787.86z M671.32,497.75c0.11,17.81-0.02,19.1-6.45,30.15c-10.31,17.75-26,26.7-46.4,27.6
	c-8.47,0.37-16.43-1.2-24.15-5.01c-2.47-1.22-6.78-1.06-9.19,0.31c-14.71,8.39-27.15,19.13-34.39,35.07
	c-1.6,3.51-1.67,6.04-0.09,9.41c5.96,12.79,6.11,25.96,1.87,39.3c-1.1,3.44-3.77,7.54-2.77,10.26c2.33,6.31,5.83,12.43,9.98,17.76
	c7.27,9.34,16.92,15.97,27.4,21.47c2.62,1.38,4.43,1.35,7.06,0.01c13.4-6.84,27.19-7.91,41.35-2.17c3.29,1.33,7.64,3.86,10.11,2.75
	c15.17-6.8,27.72-17.07,36.05-31.73c1.8-3.16,3.11-7.11,3.04-10.67c-0.07-3.8-1.72-7.69-3.21-11.32
	c-5.07-12.36-2.39-24.75,1.9-36.09c3.65-9.65,10.57-17.91,20.07-23.7c10.39-6.32,21.04-11.24,33.37-9.82
	c6.53,0.75,12.84,3.26,19.3,4.76c2.56,0.59,5.73,1.65,7.79,0.7c5.71-2.65,11.7-5.46,16.26-9.65c6.37-5.85,11.89-12.74,17.1-19.69
	c3.78-5.05,5.88-10.49,2.23-17.4c-2.65-5.01-3.24-11.26-4.01-17.06c-1.17-8.82,1.39-17.05,4.78-25.17c1.12-2.67,1.04-6.43,0.11-9.23
	c-1.33-3.99-3.31-8.14-6.14-11.16c-6.43-6.87-13.09-13.71-20.58-19.34c-4.15-3.12-9.73-7.45-15.44-4.6
	c-6.08,3.04-12.33,3.22-18.64,3.73c-9.75,0.79-19.76,1.1-28.53-3.8c-6.29-3.52-12.2-8.13-17.36-13.19
	c-6.53-6.41-10.79-14.24-12.82-23.6c-1.85-8.55-2.28-16.79-0.32-25.16c1.08-4.59,2.95-8.98,4.32-13.51c0.31-1.02,0.4-2.42-0.07-3.3
	c-2.72-5.19-5.14-10.65-8.58-15.34c-6.18-8.43-13.87-15.48-23.26-20.26c-3.38-1.72-8-4.12-10.9-3.05
	c-6.51,2.4-12.83,4.66-19.81,5.26c-9.82,0.84-19.15-0.29-27.98-4.93c-1.57-0.82-4.08-1.57-5.38-0.89
	c-6.05,3.18-12.26,6.31-17.59,10.51c-9.15,7.2-15.87,16.6-20.92,27.07c-0.89,1.85-0.92,4.86-0.03,6.7
	c7.56,15.67,6.73,31.22,0.3,46.95c-0.88,2.16-1.47,5.2-0.64,7.17c5.95,14.12,16.15,24.83,28.84,32.98
	c3.79,2.44,8.89,3.77,13.42,3.86c4.36,0.08,8.87-1.8,13.13-3.34c13.44-4.87,26.76-1.91,37.83,4.65
	C660.96,462.49,673.29,477.73,671.32,497.75z M328.58,496.84c0.84-4.14,0.68-12.39,4.16-18.6c8.17-14.61,18.7-26.6,36.66-31.22
	c12.67-3.26,24.6-2.13,35.64,2.03c6.96,2.62,11.55,0.26,15.78-2.2c10.56-6.14,19.52-14.46,25.71-25.31
	c3.31-5.8,5.76-11.21,1.93-18.37c-2.66-4.97-3.06-11.32-3.75-17.14c-1.06-8.99,1.61-17.35,5.26-25.51c0.89-1.99,1.04-5.01,0.17-6.94
	c-2.14-4.74-4.52-9.58-7.78-13.57c-6.77-8.28-14.19-16.04-24-20.91c-4.33-2.15-8.08-4.35-13.71-1.45
	c-13.55,6.99-27.76,7.07-41.69,0.42c-4.48-2.14-8.75-2.47-13.04,0.17c-3.95,2.44-8.19,4.55-11.7,7.53
	c-3.98,3.37-7.57,7.31-10.81,11.41c-3.69,4.66-7.21,9.56-9.97,14.8c-1.23,2.34-1.5,6.37-0.28,8.57c3.89,7.06,3.36,14.68,3.56,22.06
	c0.25,9.22,0.33,18.78-5.08,26.97c-5.37,8.13-11.03,15.99-19.89,21.01c-5.15,2.92-9.85,6.45-16.18,6.22
	c-1.55-0.06-3.18,0.5-4.7,0.99c-5.68,1.85-11.19,1.86-16.95-0.16c-5.32-1.86-10.91-2.97-16.44-4.18c-1.5-0.33-3.32-0.22-4.74,0.34
	c-3.22,1.25-6.69,2.4-9.35,4.49c-8.75,6.87-17.46,13.62-23.35,23.67c-4.2,7.17-5.77,13.16-2.35,21.17
	c4.81,11.27,4.04,23.13,0.35,34.78c-1.17,3.71-4.11,8.23-2.96,11.03c2.92,7.1,6.97,14.04,11.92,19.92
	c6.23,7.4,14.17,13.17,22.93,17.59c3.74,1.89,7.13,2.19,11.24,0.22c7.38-3.54,15.34-5.72,23.64-5.16c3.78,0.25,7.5,1.52,11.23,2.41
	c10.4,2.46,19.62,7.54,26.67,15.29c9.21,10.12,15.26,22.05,14.1,36.4c-0.65,8.02,0.7,16.28-3.45,23.95
	c-1.18,2.18-0.98,5.61-0.3,8.16c0.93,3.46,2.62,6.82,4.54,9.88c6.6,10.53,16.31,17.89,26.49,24.53c4.26,2.78,9.01,5.56,14.47,1.12
	c2.21-1.8,5.58-2.6,8.53-2.98c12.53-1.59,24.96-1.97,36.5,4.73c1.31,0.76,3.77,0.89,5.04,0.16c6.76-3.88,14.07-7.29,19.71-12.48
	c5.77-5.3,10.04-12.32,14.55-18.88c3.66-5.34,5.7-10.88,1.29-17.33c-2.05-3-2.97-7.17-3.28-10.9c-0.9-10.77-0.74-21.45,4.97-31.31
	c1.09-1.88,1.55-4.97,0.78-6.89c-2-4.97-4.22-10.1-7.5-14.26c-6.89-8.72-15.16-16.27-25.08-21.36c-3.49-1.79-8.27-1.62-12.41-1.4
	c-3.05,0.16-6.03,1.81-9.01,2.91c-13.97,5.13-27.44,1.68-39.38-4.93C338.82,538.15,328.93,521.72,328.58,496.84z M432.61,527.13
	c0.68,1.97,1.06,4.23,2.15,6.08c7.11,12.05,15.43,23,28.11,29.83c5.95,3.2,11.4,6.35,18.77,2.03c4.58-2.69,10.71-3.11,16.24-3.73
	c9.54-1.07,18.17,2.66,26.78,6.16c1.12,0.46,2.67,1.15,3.53,0.73c5.74-2.82,11.85-5.25,16.87-9.08c7.86-6.01,13.95-13.9,19.15-22.34
	c2.98-4.84,6.38-9.65,1.95-15.6c-1.29-1.73-1.87-4.07-2.49-6.21c-3.41-11.7-2.71-23.14,2.21-34.33c1.78-4.05,3.54-8.12,0.41-12.48
	c-4.55-6.34-8.02-13.77-13.59-18.97c-6-5.6-11.71-12.51-20.61-14.14c-3.12-0.57-6.46-1.24-9.51-0.73
	c-7.47,1.25-14.84,4.46-22.25,4.44c-7.58-0.03-15.14-3.02-22.72-4.61c-2.17-0.46-4.78-1.45-6.54-0.69
	c-5.19,2.25-10.36,4.82-14.96,8.07c-8.07,5.7-13.85,13.66-19.39,21.73c-2.8,4.09-4.77,8.48-3.26,13.54
	c1.05,3.5,2.65,6.83,3.71,10.33c2.57,8.49,2.68,17.03,0.01,25.54C435.74,517.39,434.23,522.06,432.61,527.13z"/>
</svg>
