<?xml version="1.0" encoding="utf-8"?>
<!-- Generator: Adobe Illustrator 25.2.0, SVG Export Plug-In . SVG Version: 6.00 Build 0)  -->
<svg version="1.1" xmlns="http://www.w3.org/2000/svg" xmlns:xlink="http://www.w3.org/1999/xlink" x="0px" y="0px"
	 viewBox="0 0 400 400" style="enable-background:new 0 0 400 400;" xml:space="preserve">
<style type="text/css">
	.st0{fill:#FFFFFF;}
</style>
<g id="레이어_2">
</g>
<g id="레이어_1">
	<g>
		<g>
			<path class="st0" d="M275.1,49.5c0.6,0.3,1.3,0.6,1.9,0.9c8.3,2.8,13.6,11.2,12.2,19.6c-1.5,9.1-8.8,15.5-17.9,15.5
				c-9,0-16.5-6.4-17.9-15.2c-1.4-8.7,3.6-17.1,12-20c0.7-0.3,1.5-0.6,2.2-0.9C270.2,49.5,272.6,49.5,275.1,49.5z"/>
		</g>
		<g>
			<path class="st0" d="M42.5,209.4c1.6-5.6,4.4-10.2,9.8-12.9c9.1-4.6,20.5-0.7,24.6,8.5c4.3,9.5-0.2,20.7-9.9,24.5
				c-9.5,3.7-20.2-1.3-23.6-11c-0.3-0.8-0.6-1.5-0.9-2.2C42.5,214,42.5,211.7,42.5,209.4z"/>
		</g>
		<g>
			<path class="st0" d="M309.7,322.5c0,10-8.1,18-18,18c-10,0-18-8-18.1-18c0-10.1,8-18,18.2-18
				C301.9,304.5,309.8,312.4,309.7,322.5z"/>
		</g>
		<g>
			<path class="st0" d="M261,115.4c0-8.7,6.8-15.5,15.5-15.5c8.5,0,15.4,6.9,15.4,15.4c0,8.5-7.1,15.6-15.6,15.5
				C267.8,130.8,261,124,261,115.4z"/>
		</g>
		<g>
			<path class="st0" d="M247.6,318.4c-8.5-0.1-15.5-7.2-15.4-15.7c0.2-8.5,7.2-15.4,15.6-15.3c8.4,0.1,15.4,7.1,15.4,15.5
				C263.2,311.4,256.1,318.5,247.6,318.4z"/>
		</g>
		<g>
			<path class="st0" d="M84.1,161.9c-8.5,0-15.4-6.8-15.4-15.3c0-8.6,7-15.6,15.5-15.6c8.5,0,15.5,7.1,15.4,15.6
				C99.5,155.1,92.6,161.9,84.1,161.9z"/>
		</g>
		<g>
			<path class="st0" d="M99.5,168.9c8.5,0,15.5,7,15.5,15.4c0,8.5-7.1,15.6-15.6,15.5c-8.6-0.1-15.5-7.1-15.4-15.6
				C84.1,175.6,91,168.9,99.5,168.9z"/>
		</g>
		<g>
			<path class="st0" d="M222.5,350.5c-8.6,0-15.3-6.7-15.3-15.3c0-8.6,6.9-15.5,15.5-15.5c8.5,0,15.4,7,15.4,15.4
				C238.1,343.7,231.2,350.5,222.5,350.5z"/>
		</g>
		<g>
			<path class="st0" d="M316.7,136.4c-8.5,0-15.4-6.9-15.4-15.3c0-8.6,7-15.6,15.6-15.5c8.5,0.1,15.4,7,15.4,15.4
				C332.3,129.6,325.4,136.4,316.7,136.4z"/>
		</g>
		<g>
			<path class="st0" d="M176.8,310.6c0-7.4,5.7-13.2,13-13.3c7.3-0.1,13.4,6,13.3,13.3c0,7.3-5.9,13.1-13.2,13.2
				C182.6,323.8,176.8,317.9,176.8,310.6z"/>
		</g>
		<g>
			<path class="st0" d="M228.2,278.3c0,7.3-5.8,13.1-13.1,13.2c-7.4,0.1-13.2-5.7-13.3-13c-0.1-7.4,5.8-13.4,13.2-13.4
				C222.2,265.1,228.2,271.1,228.2,278.3z"/>
		</g>
		<g>
			<path class="st0" d="M134.9,130.4c0,7.5-5.7,13.3-13.2,13.3c-7.3,0-13.1-5.9-13.1-13.2c0-7.4,5.7-13.1,13.1-13.1
				C129.2,117.4,134.9,123,134.9,130.4z"/>
		</g>
		<g>
			<path class="st0" d="M325,161.6c0,7.3-5.8,13.1-13.1,13.2c-7.2,0.1-13.2-5.8-13.2-13.1c0-7.5,5.8-13.4,13.2-13.4
				C319.1,148.3,325,154.3,325,161.6z"/>
		</g>
		<g>
			<path class="st0" d="M258.3,155.9c0-7.3,5.9-13.2,13.2-13.2c7.2,0,13.2,5.9,13.2,13.2c0.1,7.3-6,13.3-13.4,13.2
				C264,169.1,258.3,163.3,258.3,155.9z"/>
		</g>
		<g>
			<path class="st0" d="M129.5,96.2c0,7.3-5.7,13.2-13.1,13.2c-7.4,0.1-13.3-5.8-13.3-13.2c0-7.3,5.9-13.2,13.2-13.2
				C123.6,83.1,129.5,89,129.5,96.2z"/>
		</g>
		<g>
			<path class="st0" d="M344.3,187.2c-7.2,0-13.2-5.8-13.3-13.1c-0.1-7.2,6-13.3,13.3-13.3c7.2,0,13.2,5.9,13.1,13.2
				C357.5,181.2,351.6,187.1,344.3,187.2z"/>
		</g>
		<g>
			<path class="st0" d="M150.3,168.6c-0.1,7.3-6.1,13.1-13.4,12.9c-7.5-0.2-13-6.1-12.9-13.6c0.1-7.3,6.1-12.9,13.7-12.8
				C144.8,155.3,150.4,161.3,150.3,168.6z"/>
		</g>
		<g>
			<path class="st0" d="M176.1,332.3c0,7.4-5.7,13.2-13,13.2c-7.4,0-13.4-5.9-13.3-13.3c0-7.3,5.9-13.1,13.2-13.1
				C170.3,319.1,176.1,324.9,176.1,332.3z"/>
		</g>
		<g>
			<path class="st0" d="M167.8,272.6c6.2,0.1,11.2,5.3,11,11.5c-0.1,6.3-5.2,11.2-11.5,11c-6.4-0.1-11.3-5.2-11.2-11.6
				C156.3,277.3,161.5,272.5,167.8,272.6z"/>
		</g>
		<g>
			<path class="st0" d="M181.3,251.5c0.1-6.3,5-11.1,11.4-11.1c6.2,0,11.3,5.1,11.3,11.3c0,6.3-5,11.2-11.3,11.2
				C186,262.9,181.2,258,181.3,251.5z"/>
		</g>
		<g>
			<path class="st0" d="M156.2,113.2c6.3,0,11.2,5,11.1,11.3c0,6.2-5.1,11.3-11.3,11.3c-6.3,0-11.4-5.2-11.3-11.5
				C144.8,118.2,150.1,113.1,156.2,113.2z"/>
		</g>
		<g>
			<path class="st0" d="M140.5,317c-6.3-0.1-11.3-5.1-11.3-11.3c0-6.4,5.2-11.3,11.6-11.2c6.3,0.1,11.2,5.2,11.1,11.4
				C151.8,312.2,146.8,317.1,140.5,317z"/>
		</g>
		<g>
			<path class="st0" d="M299.9,205.5c-6.3,0-11.2-4.9-11.3-11.2c0-6.3,5.2-11.4,11.5-11.3c6.3,0.1,11.1,5,11.1,11.4
				C311.2,200.7,306.4,205.5,299.9,205.5z"/>
		</g>
		<g>
			<path class="st0" d="M332.4,218c-6.2,0-11.2-5.1-11.3-11.3c0-6.3,5.2-11.5,11.5-11.3c6.3,0.1,11.1,5.1,11.1,11.4
				C343.7,213,338.6,218,332.4,218z"/>
		</g>
		<g>
			<path class="st0" d="M171.4,173.4c-6.3,0-11.2-4.9-11.2-11.2c0-6.1,5.1-11.3,11.3-11.3c6.3,0,11.4,5.1,11.4,11.4
				C182.7,168.6,177.7,173.5,171.4,173.4z"/>
		</g>
		<g>
			<path class="st0" d="M150.4,101.4c-6.3-0.1-11.1-5-11.1-11.4c0-6.1,5.2-11.2,11.4-11.2c6.2,0,11.2,5.2,11.2,11.4
				C161.9,96.6,156.8,101.5,150.4,101.4z"/>
		</g>
		<g>
			<path class="st0" d="M270.7,188.8c0,6.3-4.8,11.2-11.2,11.2c-6.3,0-11.2-4.9-11.2-11.2c0-6.3,4.8-11.3,11.1-11.4
				C265.8,177.3,270.7,182.2,270.7,188.8z"/>
		</g>
		<g>
			<path class="st0" d="M243.6,203.9c5.5,0,9.6,4.2,9.5,9.8c-0.1,5.5-4.4,9.7-9.8,9.6c-5.3-0.1-9.7-4.6-9.6-9.8
				C233.9,207.9,238.1,203.8,243.6,203.9z"/>
		</g>
		<g>
			<path class="st0" d="M200.8,173.4c-5.4,0-9.6-4.3-9.6-9.8c0.1-5.3,4.4-9.5,9.9-9.5c5.4,0,9.6,4.3,9.5,9.8
				C210.6,169.3,206.3,173.4,200.8,173.4z"/>
		</g>
		<g>
			<path class="st0" d="M325.9,231.5c0,5.3-4.5,10-9.5,10c-5,0-9.7-4.9-9.7-10.2c0-5.4,4.3-9.6,9.7-9.6
				C321.9,221.8,325.9,226,325.9,231.5z"/>
		</g>
		<g>
			<path class="st0" d="M117.5,279.5c0-5.5,4.2-9.8,9.5-9.8c5.3-0.1,9.8,4.4,9.8,9.6c0,5.4-4.3,9.8-9.6,9.8
				C121.8,289,117.5,284.8,117.5,279.5z"/>
		</g>
		<g>
			<path class="st0" d="M293.4,219.3c-0.1,5.5-4.4,9.7-9.8,9.6c-5.2-0.1-9.6-4.7-9.5-10c0.1-5.3,4.6-9.6,9.9-9.5
				C289.5,209.5,293.5,213.8,293.4,219.3z"/>
		</g>
		<g>
			<path class="st0" d="M189.8,91.9c0,5.5-4.2,9.5-9.7,9.5c-5.3,0-9.6-4.4-9.6-9.8c0-5.3,4.6-9.6,10.1-9.5
				C185.7,82.2,189.8,86.5,189.8,91.9z"/>
		</g>
		<g>
			<path class="st0" d="M154.2,267.2c-5.4,0-9.8-4.2-9.8-9.5c0-5.3,4.2-9.7,9.6-9.8c5.3-0.1,9.8,4.3,9.8,9.6
				C163.8,262.9,159.6,267.2,154.2,267.2z"/>
		</g>
		<g>
			<path class="st0" d="M185.6,135.6c-5.4,0-9.7-4.3-9.6-9.8c0-5.2,4.6-9.7,9.9-9.6c5.2,0.1,9.5,4.5,9.5,9.7
				C195.3,131.3,191,135.6,185.6,135.6z"/>
		</g>
		<g>
			<path class="st0" d="M179.1,215.7c5.4,0,9.6,4.3,9.6,9.7c0,5.5-4.2,9.7-9.6,9.6c-5.4,0-9.7-4.3-9.7-9.7
				C169.4,220,173.7,215.7,179.1,215.7z"/>
		</g>
		<g>
			<path class="st0" d="M156.2,233.3c0,4.5-3.9,8.5-8.3,8.4c-4.4,0-8.4-4.3-8.3-8.7c0.1-4.6,3.8-8.2,8.5-8.1
				C152.8,225,156.2,228.5,156.2,233.3z"/>
		</g>
		<g>
			<path class="st0" d="M181.3,201c0,4.5-3.8,8.4-8.2,8.5c-4.4,0-8.6-4.3-8.5-8.6c0.1-4.5,3.9-8.3,8.5-8.2
				C177.7,192.7,181.3,196.4,181.3,201z"/>
		</g>
		<g>
			<path class="st0" d="M225.3,162.4c4.6,0,8.3,3.7,8.2,8.3c-0.1,4.6-3.8,8.1-8.4,8.1c-4.7,0-8.3-3.6-8.3-8.2
				C216.8,165.9,220.4,162.4,225.3,162.4z"/>
		</g>
		<g>
			<path class="st0" d="M210,124.6c4.6,0,8.1,3.7,8,8.4c-0.1,4.6-3.8,8.3-8.4,8.2c-4.7-0.1-8.2-3.8-8.2-8.6
				C201.6,128,205.3,124.6,210,124.6z"/>
		</g>
		<g>
			<path class="st0" d="M233.7,230.7c0.1,4.9-3.5,8.5-8.3,8.5c-4.7,0-8.3-3.5-8.3-8.2c0-4.6,3.7-8.3,8.3-8.3
				C230,222.7,233.6,226.1,233.7,230.7z"/>
		</g>
		<g>
			<path class="st0" d="M274.1,236.4c0,4.8-3.7,8.5-8.4,8.5c-4.6,0-8.2-3.8-8.2-8.4c0-4.7,3.6-8.3,8.2-8.3
				C270.4,228.2,274.1,231.8,274.1,236.4z"/>
		</g>
		<g>
			<path class="st0" d="M121,246.8c4.6,0,8.3,3.6,8.3,8.2c0,4.5-3.8,8.5-8.2,8.5c-4.5,0-8.5-4.1-8.5-8.5
				C112.7,250.4,116.3,246.8,121,246.8z"/>
		</g>
		<g>
			<path class="st0" d="M306.5,248.7c0.1,4.9-3.5,8.6-8.2,8.6c-4.6,0-8.3-3.6-8.4-8.2c-0.1-4.7,3.8-8.5,8.4-8.5
				C302.8,240.6,306.4,244.2,306.5,248.7z"/>
		</g>
		<g>
			<path class="st0" d="M196,98.7c0-4.6,3.5-8.2,8.3-8.3c4.7-0.1,8.3,3.5,8.3,8.2c0,4.6-3.7,8.3-8.3,8.3
				C199.7,107,196,103.3,196,98.7z"/>
		</g>
		<g>
			<path class="st0" d="M223,116.1c-4,0-7.2-3.2-7.2-7.2c0-4,3.2-7.1,7.3-7.1c3.9,0,7,3.1,7.1,7C230.2,112.9,227.1,116.1,223,116.1z
				"/>
		</g>
		<g>
			<path class="st0" d="M120.5,226.6c4,0,7.3,3.1,7.3,7.1c0,4-3.2,7.2-7.2,7.2c-4,0-7.1-3.2-7.1-7.2
				C113.5,229.6,116.5,226.6,120.5,226.6z"/>
		</g>
		<g>
			<path class="st0" d="M147.6,219c-3.9,0-7.2-3.3-7.2-7.2c0-3.8,3.2-7.1,7-7.1c4.1,0,7.2,3.1,7.3,7.1
				C154.7,215.7,151.5,219,147.6,219z"/>
		</g>
		<g>
			<path class="st0" d="M280.1,252.8c3.9,0.1,6.9,3.2,6.9,7.2c-0.1,4-3.3,7.2-7.2,7.1c-4-0.1-7.2-3.5-7.1-7.4
				C272.8,255.7,276.1,252.7,280.1,252.8z"/>
		</g>
		<g>
			<path class="st0" d="M235.6,143.2c0,4.1-3,7-7.2,7c-4.1,0-7.1-3.1-7.1-7.2c0.1-3.9,3.1-6.9,7.1-6.9
				C232.6,136.1,235.6,139.2,235.6,143.2z"/>
		</g>
		<g>
			<path class="st0" d="M240.4,247.6c0-4.1,3-7.1,7.1-7.1c4,0,7,3,7,7c0,4-3.1,7.3-7,7.3C243.6,254.8,240.4,251.6,240.4,247.6z"/>
		</g>
		<g>
			<path class="st0" d="M130.5,216c0,3.5-2.9,6.2-6.3,6.1c-3.3-0.1-6-3-6-6.3c0-3.4,2.9-6.1,6.4-6C128,209.9,130.5,212.6,130.5,216z
				"/>
		</g>
		<g>
			<path class="st0" d="M268.8,265.5c0,3.5-2.7,6.2-6.2,6.2c-3.3,0-6.1-2.8-6.2-6.1c0-3.4,2.8-6.2,6.3-6.2
				C266.2,259.5,268.7,262,268.8,265.5z"/>
		</g>
		<g>
			<path class="st0" d="M236.4,115.1c3.7,0,6.4,2.5,6.3,6.1c0,3.4-2.7,6.1-6.1,6.1c-3.5,0-6.1-2.5-6.2-6
				C230.4,117.7,232.9,115.1,236.4,115.1z"/>
		</g>
	</g>
</g>
</svg>
