<?xml version="1.0" encoding="utf-8"?>
<!-- Generator: Adobe Illustrator 25.2.0, SVG Export Plug-In . SVG Version: 6.00 Build 0)  -->
<svg version="1.1" xmlns="http://www.w3.org/2000/svg" xmlns:xlink="http://www.w3.org/1999/xlink" x="0px" y="0px"
	 viewBox="0 0 400 400" style="enable-background:new 0 0 400 400;" xml:space="preserve">
<style type="text/css">
	.st0{fill:#000000;}
</style>
<g id="레이어_2">
</g>
<g id="레이어_1">
	<g>
		<g>
			<path class="st0" d="M250.8,308.7l131.9-97.2l-104.4-106L250.8,308.7z M363.3,211.1l-99.2,73.5l20.7-153.2L363.3,211.1z"/>
			<path class="st0" d="M88.5,187.6l162.3,121.1l27.5-203.1L88.5,187.6z M239.6,279.2l-113.3-87.6l132.6-57.9L239.6,279.2z"/>
			<path class="st0" d="M278.2,105.5L124.1,38.6l-35.6,149L278.2,105.5z M137.5,58.9l106,45.6l-128.1,50.3L137.5,58.9z"/>
			<path class="st0" d="M88.5,187.6l3.6,162.5l158.7-41.4L88.5,187.6z M101.5,218.9l115.1,82.3l-112.4,29.2L101.5,218.9z"/>
			<path class="st0" d="M307.4,46.8l-183.3-8.2l154.1,67L307.4,46.8z M179.2,49.2l107.9,4.4l-18.9,34.6L179.2,49.2z"/>
			<path class="st0" d="M382.7,211.5L307.4,46.8l-29.2,58.7L382.7,211.5z M307.8,69.8l44.9,96.4l-61.5-62.5L307.8,69.8z"/>
			<path class="st0" d="M250.8,308.7l26.5,52.6l105.4-149.9L250.8,308.7z M263,310.6l85-63.4l-68.2,96.4L263,310.6z"/>
			<path class="st0" d="M92.1,350.2l185.1,11.2l-26.5-52.6L92.1,350.2z M146.5,344.5l97.2-25.4l17.1,32.7L146.5,344.5z"/>
			<path class="st0" d="M124.1,38.6L17.3,171.9l71.2,15.7L124.1,38.6z M33.3,164.8l75.6-95.6l-25,106.2L33.3,164.8z"/>
			<path class="st0" d="M17.3,171.9l74.8,178.2l-3.6-162.5L17.3,171.9z M30,183.4l50.8,10.8L83,308.3L30,183.4z"/>
		</g>
	</g>
</g>
</svg>
