<?xml version="1.0" encoding="iso-8859-1"?>
<!-- Generator: Adobe Illustrator 25.4.1, SVG Export Plug-In . SVG Version: 6.00 Build 0)  -->
<svg version="1.1" id="&#xB808;&#xC774;&#xC5B4;_1" xmlns="http://www.w3.org/2000/svg" xmlns:xlink="http://www.w3.org/1999/xlink"
	 x="0px" y="0px" viewBox="0 0 1000 1000" style="enable-background:new 0 0 1000 1000;" xml:space="preserve">
<g id="_x31_wjlRI.tif">
	<g>
		<path d="M557.01,750.961c-61.363-42.445-122.188-84.516-183.012-126.588c0.797-1.391,1.594-2.781,2.392-4.172
			c3.782,1.752,7.601,3.429,11.342,5.267c79.274,38.939,158.152,78.714,237.98,116.482c36.18,17.118,74.732,28.184,115.153,31.499
			c64.743,5.311,103.571-24.525,113.703-88.756c13.128-83.227-12.084-157.108-57.077-225.53
			c-22.477-34.181-51.297-62.63-85.292-85.623c-80.63-54.536-164.842-53.403-244.107,3.111
			c-42.768,30.492-76.924,69.504-102.573,114.447c-32.782,57.441-61.23,117.355-91.552,176.201
			c-12.735,24.714-23.209,50.969-38.738,73.784c-25.829,37.948-58.275,41.556-94.33,12.837
			c-41.449-33.015-61.113-79.508-75.717-128.438c-9.42-31.562-13.223-63.885-6.299-96.693c7.156-33.906,29.805-50.851,63.939-46.323
			c45.914,6.091,84.278,29.65,121.833,54.697c-19.623-5.286-39.031-11.634-58.91-15.662c-65.392-13.25-93.896,10.838-85.407,76.464
			c3.894,30.103,16.716,59.208,26.989,88.235c3.191,9.017,10.576,16.971,17.306,24.241c26.324,28.435,51.39,26.647,71.832-5.991
			c9.137-14.588,15.96-30.77,22.638-46.728c19.49-46.572,37.773-93.654,57.643-140.059
			c30.331-70.837,64.916-139.279,117.253-194.888c-7.455-14.319-16.778-26.891-20.586-40.956
			c-4.29-15.847,7.187-26.522,26.561-29.292c-6.022-28.84,2.79-40.787,27.193-43.367c8.047-13.328,12.483-25.947,21.206-33.809
			c11.317-10.2,24.705-4.341,36.286,3.428c22.284,14.95,44.398,30.17,67.047,44.547c5.327,3.381,12.71,5.951,18.795,5.347
			c97.467-9.67,176.638,27.642,240.974,97.402C911.348,412.68,952.592,514.992,943.4,634.237
			c-1.831,23.748-7.953,47.996-16.646,70.236c-32.976,84.364-109.601,124.239-204.749,107.607
			c-21.657-3.786-42.97-10.145-63.969-16.809c-9.132-2.898-15.483-2.152-22.876,3.645c-11.993,9.404-24.645,18.004-37.324,26.488
			c-12.962,8.674-19.54,5.057-26.776-8.612c-5.443-10.283-14.303-19.161-22.996-27.199c-7.75-7.166-8.702-13.92-3.315-22.07
			C548.761,761.456,553.397,755.802,557.01,750.961z"/>
		<path d="M710.229,568.21c-25.482-0.193-45.851-20.61-45.948-46.058c-0.1-26.192,20.86-47.165,46.813-46.841
			c25.94,0.323,46.688,21.856,46.052,47.794C756.524,548.492,735.813,568.404,710.229,568.21z"/>
	</g>
</g>
</svg>
