<?xml version="1.0" encoding="utf-8"?>
<!-- Generator: Adobe Illustrator 25.2.0, SVG Export Plug-In . SVG Version: 6.00 Build 0)  -->
<svg version="1.1" xmlns="http://www.w3.org/2000/svg" xmlns:xlink="http://www.w3.org/1999/xlink" x="0px" y="0px"
	 viewBox="0 0 400 400" style="enable-background:new 0 0 400 400;" xml:space="preserve">
<style type="text/css">
	.st0{fill:#000000;}
</style>
<g id="레이어_2">
</g>
<g id="레이어_1">
	<g>
		<path class="st0" d="M155.3,140.4l0.3,0.9c3.7,10.8,15.5,16.5,26.3,12.9c5.4-1.9,9.8-5.9,12.2-11.2l37.7-85c3.5-7.9,1.8-17-4.3-23
			l0,0c-8.1-8.1-21.2-8.1-29.3,0c-1.8,1.8-3.2,3.8-4.2,6.1l-37.9,84.2C153.9,129.9,153.6,135.4,155.3,140.4z"/>
		<path class="st0" d="M218.6,121.9L218.6,121.9c2.1-4.9,6.2-8.7,11.3-10.4l46.9-16.1c6.9-2.4,14.6-0.6,19.8,4.6l0.6,0.6
			c7.5,7.5,7.5,19.6,0,27.1c-2.1,2.1-4.8,3.7-7.6,4.7L242,147.9c-10.1,3.3-20.9-2.2-24.2-12.3C216.4,131.1,216.7,126.3,218.6,121.9z
			"/>
		<path class="st0" d="M259.6,154.8l-0.9,0.3c-10.8,3.7-16.5,15.6-12.8,26.4c1.9,5.4,5.9,9.8,11.2,12.1l85,37.7
			c7.8,3.5,17,1.8,23-4.3l0,0c8.1-8.1,8.1-21.2,0.1-29.2c-1.8-1.8-3.9-3.2-6.2-4.3l-84.2-37.9C270,153.3,264.6,153.1,259.6,154.8z"
			/>
		<path class="st0" d="M278.5,218.6L278.5,218.6c4.9,2.1,8.7,6.2,10.4,11.3l16.1,46.9c2.4,6.9,0.6,14.6-4.6,19.8l-0.6,0.6
			c-7.5,7.5-19.7,7.5-27.2-0.1c-2.1-2.1-3.7-4.7-4.6-7.5l-15.6-47.6c-3.2-10.1,2.3-20.9,12.3-24.2
			C269.3,216.5,274.2,216.7,278.5,218.6z"/>
		<path class="st0" d="M244.7,259.5l-0.3-0.8c-3.7-10.8-15.6-16.5-26.4-12.7c-5.4,1.9-9.8,5.9-12,11.1l-37.7,85
			c-3.5,7.8-1.8,17,4.3,23.1l0,0c8.1,8.1,21.2,8.1,29.3,0c1.8-1.8,3.2-3.8,4.2-6.1l37.9-84.2C246.2,269.9,246.5,264.5,244.7,259.5z"
			/>
		<path class="st0" d="M180.9,278.4L180.9,278.4c-2.1,4.9-6.2,8.7-11.3,10.4l-46.9,16.1c-7,2.4-14.7,0.7-19.9-4.6l-0.6-0.6
			c-7.4-7.6-7.4-19.7,0.1-27.1c2.1-2.1,4.7-3.7,7.6-4.6l47.6-15.5c10.1-3.2,20.9,2.3,24.2,12.4C183,269.3,182.8,274.1,180.9,278.4z"
			/>
		<path class="st0" d="M140.4,245.2l0.9-0.3c10.8-3.7,16.5-15.5,12.9-26.3c-1.9-5.4-5.9-9.8-11.2-12.2l-85-37.7
			c-7.9-3.5-17-1.8-23,4.3l0,0c-8.1,8.1-8.1,21.2,0,29.3c1.8,1.8,3.8,3.2,6.1,4.2l84.2,37.9C130,246.7,135.4,246.9,140.4,245.2z"/>
		<path class="st0" d="M121.1,182.1L121.1,182.1c-4.8-2.2-8.6-6.2-10.3-11.3l-16.2-46.9c-2.4-7-0.7-14.7,4.6-19.9l0.6-0.6
			c7.5-7.5,19.7-7.5,27.2,0.1c2.1,2.1,3.7,4.8,4.6,7.6l15.5,47.6c3.4,10.1-2.1,20.9-12.1,24.3C130.5,184.3,125.5,184.1,121.1,182.1z
			"/>
	</g>
</g>
</svg>
