<?xml version="1.0" encoding="utf-8"?>
<!-- Generator: Adobe Illustrator 25.2.0, SVG Export Plug-In . SVG Version: 6.00 Build 0)  -->
<svg version="1.1" xmlns="http://www.w3.org/2000/svg" xmlns:xlink="http://www.w3.org/1999/xlink" x="0px" y="0px"
	 viewBox="0 0 400 400" style="enable-background:new 0 0 400 400;" xml:space="preserve">
<style type="text/css">
	.st0{fill:#F7F7F7;}
	.st1{fill:#FFFFFF;}
	.st2{fill:#F4F4F4;}
</style>
<g id="레이어_2">
</g>
<g id="레이어_1">
	<g>
		<path class="st0" d="M305.8,111.2c-2.4-13.3-9.7-25.4-21.8-35.7L106,253.4c-8.3,8.6-12.4,19.5-12.4,32.8
			c-0.3,13.3,7.7,26,23.3,38.4l177.4-177.4C304.3,136.6,308.1,124.5,305.8,111.2z"/>
	</g>
	<g>
		<path class="st1" d="M242.3,47.7c-2.4-13.3-9.7-25.4-21.8-35.7L42.5,190c-8.3,8.6-12.4,19.5-12.4,32.8c-0.3,13.3,7.7,26,23.3,38.4
			L230.8,83.7C240.8,73.1,244.7,61,242.3,47.7z"/>
	</g>
	<g>
		<path class="st2" d="M369.2,174.6c-2.4-13.3-9.7-25.4-21.8-35.7L169.4,316.9c-8.3,8.6-12.4,19.5-12.4,32.8
			c-0.3,13.3,7.7,26,23.3,38.4l177.4-177.4C367.7,200,371.6,187.9,369.2,174.6z"/>
	</g>
</g>
</svg>
