<?xml version="1.0" encoding="utf-8"?>
<!-- Generator: Adobe Illustrator 25.4.1, SVG Export Plug-In . SVG Version: 6.00 Build 0)  -->
<svg version="1.1" id="레이어_1" xmlns="http://www.w3.org/2000/svg" xmlns:xlink="http://www.w3.org/1999/xlink" x="0px"
	 y="0px" viewBox="0 0 1000 1000" style="enable-background:new 0 0 1000 1000;" xml:space="preserve">
<style type="text/css">
	.st0{fill:#010101;}
	.st1{fill:#9E9E9E;}
</style>
<g>
	<path class="st0" d="M145.8,270.7c3.5-5.1,3-11.2,4.4-16.8c17.1-67.6,77.2-111.4,147.8-107.6c65,3.4,120.1,54.7,130.1,121
		c8.9,58.8-20.3,116.9-73,145.5c-52,28.2-117.7,20.4-161.6-19.1c-25-22.5-40.1-50.5-45.8-83.6c-0.3-1.6,0.7-4-1.9-4.8
		C145.8,293.6,145.8,282.2,145.8,270.7z"/>
	<path class="st0" d="M145.8,695.2c3.6-4.5,2.8-10.1,4-15.2c16.4-66.8,73.7-110.5,143.4-109.4c64.4,1.1,120.9,49.5,134.1,114.8
		c16,79.1-40.1,157.2-120.1,167.1c-1.1,0.1-2.1,0.3-2.3,1.6c-12,0-24,0-36.1,0c-2.2-3-5.9-2.2-8.8-2.8
		c-58.3-13.7-94.7-49.8-110.3-107.3c-1.3-4.8-0.5-10.2-3.8-14.4C145.8,718.1,145.8,706.7,145.8,695.2z"/>
	<path class="st0" d="M693.2,854.2c-2.6-3-6.4-2.3-9.6-3c-65.7-13.5-114-73.2-113-139.7c1-68.9,50.1-127.1,117.2-138.9
		C764.2,559.1,839.2,611,852,686.4c13.5,79.1-37.7,152.5-115.5,165.9c-2.4,0.4-5.5-1.5-7.3,1.8C717.3,854.2,705.2,854.2,693.2,854.2
		z"/>
	<path class="st1" d="M854.1,288.2c0,79.4-63.2,141.2-144.3,141.2c-75.6,0-139.7-64.9-139.1-141.8c0.7-84.6,70.2-143,145.1-141.7
		C791.7,147.2,854.1,210.4,854.1,288.2z"/>
</g>
</svg>
