<?xml version="1.0" encoding="utf-8"?>
<!-- Generator: Adobe Illustrator 25.2.0, SVG Export Plug-In . SVG Version: 6.00 Build 0)  -->
<svg version="1.1" xmlns="http://www.w3.org/2000/svg" xmlns:xlink="http://www.w3.org/1999/xlink" x="0px" y="0px"
	 viewBox="0 0 400 400" style="enable-background:new 0 0 400 400;" xml:space="preserve">
<style type="text/css">
	.st0{fill-rule:evenodd;clip-rule:evenodd;fill:#000000;}
</style>
<g id="레이어_2">
</g>
<g id="레이어_1">
	<path class="st0" d="M200,49.5c63.4,0,117.6,39.2,139.8,94.7l-25.7,8.2c-18.6-44.6-62.7-75.9-114-75.9
		c-68.2,0-123.5,55.3-123.5,123.5c0,0.8,0,1.7,0,2.5l-25.2,20.6c-1.2-7.5-1.8-15.3-1.8-23.1C49.5,116.9,116.9,49.5,200,49.5z
		 M349.4,181.9c0.7,5.9,1.1,11.9,1.1,18.1c0,83.1-67.4,150.5-150.5,150.5c-60.5,0-112.7-35.7-136.6-87.2l24.1-12.1
		C107,293.8,150,323.5,200,323.5c68.2,0,123.5-55.3,123.5-123.5c0-1.3,0-2.5-0.1-3.8L349.4,181.9z"/>
	<path class="st0" d="M32.4,260.2l147.2-120.4l-6.1,50l85.9-48.7l-4.4,47.5l112.7-35.9L214.8,237l11.4-47.9L138,240.8l5.8-36.7
		L32.4,260.2z"/>
</g>
</svg>
