<?xml version="1.0" encoding="iso-8859-1"?>
<!-- Generator: Adobe Illustrator 25.4.1, SVG Export Plug-In . SVG Version: 6.00 Build 0)  -->
<svg version="1.1" id="&#xB808;&#xC774;&#xC5B4;_1" xmlns="http://www.w3.org/2000/svg" xmlns:xlink="http://www.w3.org/1999/xlink"
	 x="0px" y="0px" viewBox="0 0 1000 1000" style="enable-background:new 0 0 1000 1000;" xml:space="preserve">
<g id="LnCoXO_00000001665801009921380210000008378112899800197014_">
	<g>
		<path d="M29.168,920.054c-0.23-1.359-0.621-2.713-0.668-4.078c-0.981-28.584-1.532-57.181-0.762-85.773
			c0.889-33.007,2.84-65.964,6.526-98.79c8.617-76.732,25.115-151.611,53.106-223.741c26.462-68.19,62.329-130.945,108.415-187.846
			c53.88-66.524,120.722-116.082,197.936-152.22c48.918-22.895,100.124-38.565,152.987-49.287
			c30.782-6.243,61.77-10.523,93.095-12.647c27.018-1.832,54.061-2.817,81.123-2.084c33.147,0.898,66.19,3.421,99.168,7.002
			c24.13,2.62,48.308,5.086,72.237,8.955c24.747,4.002,50,23.025,56.428,49.512c4.286,17.661,7.671,35.537,10.268,53.544
			c-0.638,5.294,0.659,10.43,1.505,15.56c1.794,10.878,2.795,21.838,4.045,32.777c1.772,15.506,3.048,31.051,3.505,46.631
			c0.434,14.811,0.532,29.648-0.141,44.468c-0.214,4.71-0.145,9.424-0.077,14.133c0.297,20.496-0.568,40.949-2.628,61.332
			c-0.817,8.083-1.602,16.192-3.045,24.209c-0.292,1.624-0.449,3.294,0.168,4.912c-2.716,21.929-7.324,43.493-12.761,64.881
			c-15.8,62.158-41.293,120.061-76.522,173.664C832.389,767.073,778.481,813.9,712.02,846.448
			c-49.471,24.228-101.783,39.593-155.644,50.167c-27.104,5.321-54.433,9.163-81.864,12.313c-0.96,0.11-1.938,0.067-2.908,0.095
			c-5.421-0.81-10.719,0.567-16.06,0.995c-20.259,1.623-40.504,3.282-60.822,4.195c-26.288,1.181-52.573,1.964-78.884,1.954
			c-1.745-0.001-3.651,0.524-5.102-1.037c-2.108-10.343-2.923-20.861-3.946-31.331c-2.918-29.859-4.18-59.809-3.418-89.805
			c1.868-73.514,14.508-144.86,43.652-212.782c13.862-32.305,30.993-62.737,53.363-89.976c33.638-40.961,73.251-74.624,121.39-97.53
			c34.753-16.536,71.274-27.133,109.58-31.328c13.791-1.51,27.623-2.927,41.503-1.584c14.233,1.378,27.335,13.45,30.161,27.322
			c2.914,14.305-3.63,28.695-16.345,35.77c-4.681,2.604-9.817,3.858-15.095,4.401c-43.279,4.447-82.835,18.866-117.073,45.866
			c-28.955,22.834-52.428,50.782-70.496,82.986c-21.841,38.928-35.014,80.883-42.259,124.803
			c-4.056,24.589-5.558,49.346-5.016,74.246c0.172,7.915,0.984,15.783,1.499,23.672c0.219,3.343,1.582,4.248,4.656,4.148
			c17.613-0.571,35.207-1.307,52.72-3.442c30.556-3.726,60.424-10.389,89.5-20.555c44.785-15.66,84.679-39.29,119.171-72.063
			c29.517-28.046,52.962-60.446,71.368-96.647c21.016-41.334,34.232-85.143,41.709-130.787c3.3-20.147,5.176-40.416,6.114-60.823
			c0.81-17.637,0.9-35.268,0.385-52.876c-0.881-30.108-3.773-60.07-8.319-89.86c-0.466-3.053-1.49-4.816-5.09-5.277
			c-38.632-4.944-77.411-6.722-116.323-5.725c-59.702,1.529-118.391,9.386-175.127,28.84
			c-63.823,21.883-120.731,55.268-169.271,102.451c-39.086,37.992-70.569,81.575-95.784,129.808
			c-31.973,61.161-51.738,126.22-61.924,194.296c-3.985,26.631-6.142,53.44-7.178,80.373c-0.872,22.645-0.645,45.258,0.447,67.853
			c1.098,22.719,3.081,45.39,6.159,67.946c0.186,1.365,0.14,2.762,0.201,4.144c0.059,3.326-1.841,3.748-4.727,3.744
			c-50.603-0.08-101.207-0.057-151.811-0.059c-5.085,0-5.085-0.005-5.464-5.129c-0.041-0.554-0.039,0.156-0.136-0.39
			C29.464,919.551,29.301,919.634,29.168,920.054z"/>
		<path d="M962.359,466.62c-1.839-3.844-0.227-7.671,0.224-11.442c2.087-17.458,3.43-34.942,4.176-52.528
			c1.194-28.134,0.613-56.257,0.533-84.378c-0.057-19.92-2.262-39.758-4.469-59.57c-1.151-10.333-3.054-20.538-4.388-30.833
			c-0.233-1.796-0.37-3.6,0.593-5.271c1.951,14.348,4.276,28.658,5.778,43.053c3.352,32.125,5.417,64.315,3.9,96.663
			c-0.546,11.64-0.341,23.319-0.33,34.981c0.015,14.972-1.544,29.816-3.279,44.654C964.135,450.167,963.268,458.396,962.359,466.62z
			"/>
		<path d="M310.736,915.131c11.905,1.305,23.8-0.038,35.695-0.037c20.26,0.002,40.471-1.093,60.677-2.027
			c18.799-0.869,37.591-2.392,56.303-4.631c2.717-0.325,5.542-0.678,8.194,0.587c-27.431,3.093-54.953,4.863-82.524,6.153
			c-24.42,1.143-48.841,1.598-73.278,1.559C314.039,916.733,311.772,917.686,310.736,915.131z"/>
		<path d="M29.168,920.054c0-1.906,0-3.811,0-5.716c0.306-0.004,0.613-0.007,0.919-0.011c0,2.158,0.023,4.316-0.006,6.474
			c-0.036,2.741,1.247,4.14,4.028,4.104c0.972-0.012,1.944,0.023,2.916,0.023c49.295,0.002,98.59-0.002,147.885,0.011
			c2.809,0.001,5.722,0.349,6.741-3.275c0.91,4.484-2.104,4.179-5.001,4.178c-44.089-0.014-88.178-0.006-132.266-0.003
			c-6.516,0-13.033,0.01-19.549-0.004C29.172,925.823,29.172,925.812,29.168,920.054z"/>
	</g>
</g>
</svg>
