<?xml version="1.0" encoding="iso-8859-1"?>
<!-- Generator: Adobe Illustrator 25.4.1, SVG Export Plug-In . SVG Version: 6.00 Build 0)  -->
<svg version="1.1" id="&#xB808;&#xC774;&#xC5B4;_1" xmlns="http://www.w3.org/2000/svg" xmlns:xlink="http://www.w3.org/1999/xlink"
	 x="0px" y="0px" viewBox="0 0 1000 1000" style="enable-background:new 0 0 1000 1000;" xml:space="preserve">
<g id="_x31_2McRP.tif">
	<g>
		<path style="fill:#DDDDDD;" d="M90.483,500c0-137.959,0.313-275.92-0.418-413.875c-0.086-16.265,3.89-20.059,20.006-19.958
			c120.477,0.758,240.965-0.161,361.443,0.538c217.302,1.262,390.184,144.83,431.058,357.046
			c38.877,201.846-79.712,410.793-272.429,481.575c-52.133,19.148-105.574,28.073-160.792,28.086
			c-119.761,0.028-239.524-0.339-359.28,0.421c-16.115,0.102-20.092-3.691-20.006-19.957C90.797,775.92,90.483,637.959,90.483,500z
			 M198.174,138.297c-37.315-1.794-37.315-1.794-37.315,34.546c0,217.715,0,435.429,0,653.144c0,37.539,0,37.539,38.118,35.521
			c1.999,0.742,4.016,2.177,5.996,2.128c110.632-2.782,221.504,7.002,331.925-7.946c132.983-18.003,256.387-121.286,289.445-268.224
			c19.632-87.26,13.81-172.593-29.874-254.281c-25.24-47.197-58.635-85.762-99.249-118.707
			c-56.014-45.437-121.993-67.439-192.809-73.821c-100.554-9.061-201.451-3.603-302.206-3.852
			C200.862,136.802,199.518,137.778,198.174,138.297z"/>
		<path style="fill:#020202;" d="M198.986,861.51c-38.127,2.016-38.127,2.016-38.127-35.523c0-217.715,0-435.429,0-653.144
			c0-36.34,0-36.34,37.312-34.551c7.536,0.875,15.076,1.754,22.616,2.634c7.224,6.474,16.57,3.362,24.827,5.297
			c191.226,44.814,312.695,225.825,277.575,418.133c-21.051,115.267-85.265,200.707-188.917,256.23
			c-35.822,19.188-74.269,29.761-113.482,38.483C213.521,859.883,206.254,860.697,198.986,861.51z"/>
		<path style="fill:#6D6D6D;" d="M220.787,140.926c-7.54-0.88-15.079-1.759-22.616-2.634c1.347-0.514,2.691-1.49,4.034-1.487
			c100.755,0.249,201.652-5.209,302.206,3.852c70.816,6.382,136.795,28.384,192.809,73.821
			c40.614,32.945,74.01,71.51,99.249,118.707c43.685,81.688,49.506,167.021,29.874,254.281
			C793.285,734.404,669.882,837.687,536.898,855.69c-110.421,14.948-221.293,5.164-331.925,7.946
			c-1.98,0.05-3.996-1.385-5.991-2.127c7.272-0.813,14.54-1.627,21.804-2.438c42.527,0.142,85.077,1.18,127.583,0.233
			c87.2-1.943,163.285-33.915,226.511-92.955c96.233-89.863,130.562-201.1,109.769-331.173
			c-20.725-129.645-128.602-249.372-255.428-282.829C360.166,134.13,290.377,142.312,220.787,140.926z"/>
		<path style="fill:#2A2A2A;" d="M220.787,140.926c69.59,1.386,139.38-6.797,208.435,11.42
			c126.825,33.457,234.703,153.184,255.428,282.829c20.793,130.073-13.536,241.31-109.769,331.173
			c-63.226,59.041-139.311,91.013-226.511,92.955c-42.506,0.947-85.056-0.091-127.583-0.233
			c39.216-8.724,77.664-19.297,113.485-38.485c103.652-55.523,167.866-140.963,188.917-256.23
			c35.121-192.308-86.349-373.319-277.575-418.133C237.356,144.288,228.011,147.4,220.787,140.926z"/>
	</g>
</g>
</svg>
