<?xml version="1.0" encoding="utf-8"?>
<!-- Generator: Adobe Illustrator 25.2.0, SVG Export Plug-In . SVG Version: 6.00 Build 0)  -->
<svg version="1.1" xmlns="http://www.w3.org/2000/svg" xmlns:xlink="http://www.w3.org/1999/xlink" x="0px" y="0px"
	 viewBox="0 0 400 400" style="enable-background:new 0 0 400 400;" xml:space="preserve">
<style type="text/css">
	.st0{fill:#FFFFFF;}
</style>
<g id="레이어_2">
</g>
<g id="레이어_1">
	<path class="st0" d="M199.7,27.7l-35.6,105.2l-0.3,0.2L27.6,200.2l105.2,35.6l67.4,136.5l35.7-105l0.3-0.1L372.4,200l-105.2-35.7
		L199.7,27.7z M132.6,223.4l-74.4-25.2l1.7-0.8l99-48.8l-25.5,75.2L132.6,223.4z M201.8,58.2l53.3,108.1l-108.1,53.3L201.8,58.2z
		 M198.1,341.9l-49.6-100.6l75.1,25.3L198.1,341.9z M340.1,202.7l-109.5,54l-78.4-26.5l1.7-0.8l109.5-54l78.4,26.5L340.1,202.7z"/>
</g>
</svg>
