<?xml version="1.0" encoding="utf-8"?>
<!-- Generator: Adobe Illustrator 25.2.0, SVG Export Plug-In . SVG Version: 6.00 Build 0)  -->
<svg version="1.1" xmlns="http://www.w3.org/2000/svg" xmlns:xlink="http://www.w3.org/1999/xlink" x="0px" y="0px"
	 viewBox="0 0 400 400" style="enable-background:new 0 0 400 400;" xml:space="preserve">
<style type="text/css">
	.st0{fill:#000000;}
</style>
<g id="레이어_2">
</g>
<g id="레이어_1">
	<g>
		<path class="st0" d="M57.9,286.8c0,3.3,2.7,6,6,6c3.3,0,6-2.7,6-6c0-3.3-2.7-6-6-6C60.6,280.8,57.9,283.5,57.9,286.8z"/>
		<path class="st0" d="M194.4,355.5c0,3.3,2.7,6,6,6c3.3,0,6-2.7,6-6c0-3.3-2.7-6-6-6C197.1,349.5,194.4,352.2,194.4,355.5z"/>
		<path class="st0" d="M63.5,153.6c12.8,0,23.2-10.4,23.2-23.2c0-12.8-10.4-23.2-23.2-23.2s-23.2,10.4-23.2,23.2
			C40.3,143.2,50.7,153.6,63.5,153.6z"/>
		
			<ellipse transform="matrix(0.9871 -0.1602 0.1602 0.9871 -13.6691 22.4171)" class="st0" cx="132.2" cy="96" rx="23.2" ry="23.2"/>
		<path class="st0" d="M75.6,246c0-6.4-5.2-11.6-11.6-11.6c-6.4,0-11.6,5.2-11.6,11.6c0,6.4,5.2,11.6,11.6,11.6
			C70.4,257.6,75.6,252.4,75.6,246z"/>
		<path class="st0" d="M212.1,314.7c0-6.4-5.2-11.6-11.6-11.6c-6.4,0-11.6,5.2-11.6,11.6c0,6.4,5.2,11.6,11.6,11.6
			C206.9,326.3,212.1,321.1,212.1,314.7z"/>
		<path class="st0" d="M330.9,286.8c0,3.3,2.7,6,6,6c3.3,0,6-2.7,6-6c0-3.3-2.7-6-6-6C333.6,280.8,330.9,283.5,330.9,286.8z"/>
		<path class="st0" d="M348.6,246c0-6.4-5.2-11.6-11.6-11.6c-6.4,0-11.6,5.2-11.6,11.6c0,6.4,5.2,11.6,11.6,11.6
			C343.4,257.6,348.6,252.4,348.6,246z"/>
		<path class="st0" d="M336.5,153.6c12.8,0,23.2-10.4,23.2-23.2c0-12.8-10.4-23.2-23.2-23.2c-12.8,0-23.2,10.4-23.2,23.2
			C313.3,143.2,323.7,153.6,336.5,153.6z"/>
		<path class="st0" d="M81.1,194c0-9.5-7.7-17.2-17.2-17.2c-9.5,0-17.2,7.7-17.2,17.2s7.7,17.2,17.2,17.2
			C73.4,211.1,81.1,203.4,81.1,194z"/>
		<path class="st0" d="M354.2,194c0-9.5-7.7-17.2-17.2-17.2c-9.5,0-17.2,7.7-17.2,17.2s7.7,17.2,17.2,17.2
			C346.5,211.1,354.2,203.4,354.2,194z"/>
		<path class="st0" d="M200,221.4c12.8,0,23.2-10.4,23.2-23.2c0-12.8-10.4-23.2-23.2-23.2c-12.8,0-23.2,10.4-23.2,23.2
			C176.8,211,187.2,221.4,200,221.4z"/>
		<path class="st0" d="M200,84.8c12.8,0,23.2-10.4,23.2-23.2c0-12.8-10.4-23.2-23.2-23.2c-12.8,0-23.2,10.4-23.2,23.2
			C176.8,74.5,187.2,84.8,200,84.8z"/>
		<path class="st0" d="M200,153.6c12.8,0,23.2-10.4,23.2-23.2c0-12.8-10.4-23.2-23.2-23.2c-12.8,0-23.2,10.4-23.2,23.2
			C176.8,143.2,187.2,153.6,200,153.6z"/>
		<path class="st0" d="M217.6,261.8c0-9.5-7.7-17.2-17.2-17.2c-9.5,0-17.2,7.7-17.2,17.2c0,9.5,7.7,17.2,17.2,17.2
			C210,278.9,217.6,271.2,217.6,261.8z"/>
		<path class="st0" d="M262.2,321.2c0,3.3,2.7,6,6,6c3.3,0,6-2.7,6-6c0-3.3-2.7-6-6-6C264.9,315.2,262.2,317.8,262.2,321.2z"/>
		<path class="st0" d="M279.9,280.3c0-6.4-5.2-11.6-11.6-11.6c-6.4,0-11.6,5.2-11.6,11.6c0,6.4,5.2,11.6,11.6,11.6
			C274.7,291.9,279.9,286.7,279.9,280.3z"/>
		<path class="st0" d="M268.7,140.6c-12.8,0-23.2,10.4-23.2,23.2c0,12.8,10.4,23.2,23.2,23.2c12.8,0,23.2-10.4,23.2-23.2
			C291.9,151,281.5,140.6,268.7,140.6z"/>
		<path class="st0" d="M268.7,72.8c-12.8,0-23.2,10.4-23.2,23.2c0,12.8,10.4,23.2,23.2,23.2c12.8,0,23.2-10.4,23.2-23.2
			C291.9,83.2,281.5,72.8,268.7,72.8z"/>
		<path class="st0" d="M285.4,228.3c0-9.5-7.7-17.2-17.2-17.2c-9.5,0-17.2,7.7-17.2,17.2c0,9.5,7.7,17.2,17.2,17.2
			C277.7,245.5,285.4,237.8,285.4,228.3z"/>
		<path class="st0" d="M125.7,321.2c0,3.3,2.7,6,6,6c3.3,0,6-2.7,6-6c0-3.3-2.7-6-6-6C128.4,315.2,125.7,317.8,125.7,321.2z"/>
		<path class="st0" d="M143.4,280.3c0-6.4-5.2-11.6-11.6-11.6c-6.4,0-11.6,5.2-11.6,11.6c0,6.4,5.2,11.6,11.6,11.6
			C138.2,291.9,143.4,286.7,143.4,280.3z"/>
		<path class="st0" d="M132.2,187c12.8,0,23.2-10.4,23.2-23.2c0-12.8-10.4-23.2-23.2-23.2c-12.8,0-23.2,10.4-23.2,23.2
			C109,176.6,119.4,187,132.2,187z"/>
		<path class="st0" d="M148.9,228.3c0-9.5-7.7-17.2-17.2-17.2c-9.5,0-17.2,7.7-17.2,17.2c0,9.5,7.7,17.2,17.2,17.2
			C141.2,245.5,148.9,237.8,148.9,228.3z"/>
	</g>
</g>
</svg>
