<?xml version="1.0" encoding="utf-8"?>
<!-- Generator: Adobe Illustrator 25.4.1, SVG Export Plug-In . SVG Version: 6.00 Build 0)  -->
<svg version="1.1" id="Layer_1" xmlns="http://www.w3.org/2000/svg" xmlns:xlink="http://www.w3.org/1999/xlink" x="0px" y="0px"
	 viewBox="0 0 1000 1000" style="enable-background:new 0 0 1000 1000;" xml:space="preserve">
<g>
	<g>
		<g>
			<g>
				<path d="M83.4,280.4c2.1-0.8,4.2-1.3,5.2-1.5c65.9-14.3,190.9-38,266.2-30.4c6.1,0.6,11.7-3.6,12.6-9.6
					c2.7-17,9.7-43.9,13.9-47.8c2.9-2.5,7.8-7.8,19.5,0c9.9,6.7,53.3,49.5,66.5,62.7c2.5,2.5,5.7,3.6,9.2,3.2c9.7-1,31-2.3,45.7,0.6
					c19.5,3.8,152.5,78.1,180,109.5c20.8,23.9,21.2,43,20.3,51c-0.4,2.7,0.2,5.3,1.7,7.6l61.5,97.8c1.7,2.7,2.3,5.9,1.3,9
					c-1.9,7.6-6.9,21.8-18,31c-2.7,2.1-4.4,5.3-4.6,8.8c-0.4,10.3-1.9,31.5-7.6,37.4c-6.1,6.1-26,23.7-35,31.5
					c-2.7,2.3-4,5.7-3.8,9.2c0.6,12.6,1.1,43.2-8.2,49.3c-11.7,7.8-78.1,11.7-86,0l-67.4-66.9c-25-14.7-54.1-23.1-85-23.1
					c-50.4,0-95.7,22.2-126.5,57.3c-4.2,4-7.8,8.4-10.5,13c-0.2,0.2-0.2,0.4-0.4,0.6c-19.5,27.5-31,60.9-31,97.1
					c0,92.9,75.3,168.1,168.1,168.1c246.3,0,445.8-199.7,445.8-445.8S717.3,54.2,471.2,54.2C304.8,54.2,159.8,145.3,83.4,280.4
					C83.2,280.4,83.2,280.4,83.4,280.4"/>
			</g>
		</g>
	</g>
	<g>
		<g>
			<g>
				<path d="M83.4,280.4c2.1-0.8,4.2-1.3,5.2-1.5c65.9-14.3,190.9-38,266.2-30.4c6.1,0.6,11.7-3.6,12.6-9.6
					c2.7-17,9.7-43.9,13.9-47.8c2.9-2.5,7.8-7.8,19.5,0c9.9,6.7,53.3,49.5,66.5,62.7c2.5,2.5,5.7,3.6,9.2,3.2c9.7-1,31-2.3,45.7,0.6
					c19.5,3.8,152.5,78.1,180,109.5c20.8,23.9,21.2,43,20.3,51c-0.4,2.7,0.2,5.3,1.7,7.6l61.5,97.8c1.7,2.7,2.3,5.9,1.3,9
					c-1.9,7.6-6.9,21.8-18,31c-2.7,2.1-4.4,5.3-4.6,8.8c-0.4,10.3-1.9,31.5-7.6,37.4c-6.1,6.1-26,23.7-35,31.5
					c-2.7,2.3-4,5.7-3.8,9.2c0.6,12.6,1.1,43.2-8.2,49.3c-11.7,7.8-78.1,11.7-86,0l-67.4-66.9c-25-14.7-54.1-23.1-85-23.1
					c-50.4,0-95.7,22.2-126.5,57.3c-4.2,4-7.8,8.4-10.5,13c-0.2,0.2-0.2,0.4-0.4,0.6c-19.5,27.5-31,60.9-31,97.1
					c0,92.9,75.3,168.1,168.1,168.1c246.3,0,445.8-199.7,445.8-445.8S717.3,54.2,471.2,54.2C304.8,54.2,159.8,145.3,83.4,280.4
					C83.2,280.4,83.2,280.4,83.4,280.4"/>
			</g>
		</g>
	</g>
</g>
</svg>
