<?xml version="1.0" encoding="utf-8"?>
<!-- Generator: Adobe Illustrator 25.4.1, SVG Export Plug-In . SVG Version: 6.00 Build 0)  -->
<svg version="1.1" id="레이어_1" xmlns="http://www.w3.org/2000/svg" xmlns:xlink="http://www.w3.org/1999/xlink" x="0px"
	 y="0px" viewBox="0 0 1000 1000" style="enable-background:new 0 0 1000 1000;" xml:space="preserve">
<style type="text/css">
	.st0{fill:#FFFFFF;}
	.st1{fill:#010101;}
	.st2{fill:#E86036;}
</style>
<g>
	<path d="M-40.4-145.4c-7.1,1-391.8,0.9-397.7-0.2c95.6-181.7,191.1-363.3,286.7-545c3.2,3.3,285.3,540,287,544.9
		c-0.8,1.1-1.9,0.7-2.9,0.7c-41.5,0-83.1,0-124.6,0.1c-3.1,0-4.2-1.4-5.4-3.7c-17.2-32.9-34.4-65.7-51.7-98.6
		c-33.3-63.5-66.7-127.1-100-190.6c-0.8-1.5-1.6-2.9-2.4-4.3c-0.4,0-0.5,0-0.7,0.1s-0.3,0.1-0.4,0.2c-0.1,0.1-0.2,0.2-0.3,0.3
		c-31.4,59.9-62.9,119.7-94.3,179.6c-0.3,0.7-0.6,1.4-1,2.3c1.7,0.9,3.4,0.5,4.9,0.5c46.7,0,93.4,0,140.2,0c0.9,0,1.8,0.1,2.8,0
		c2.9-0.4,4.3,1,5.5,3.5c13.2,26.7,26.6,53.3,39.9,79.9c4.6,9.1,9.1,18.3,13.7,27.4C-40.7-147.5-40-146.7-40.4-145.4z"/>
	<path d="M116-442.6c-15.1,28.7-30,57.1-45.1,85.8c-1.5-0.7-1.8-1.9-2.4-2.9c-20.7-37.9-41.3-75.9-62.1-113.7
		c-1.5-2.7-1.6-4.8-0.1-7.5c36.2-68.6,72.3-137.2,108.4-205.8c0.7-1.3,1-2.9,2.9-3.9C213.2-509,308.7-327.4,404.3-145.8
		c-1.7,1.3-3.2,0.8-4.7,0.8c-40.8,0-81.5,0-122.3,0.1c-3.4,0-5.1-1.1-6.7-4c-15.3-29.5-30.8-59-46.2-88.4
		c-35.2-67-70.4-134.1-105.5-201.1C118.1-439.8,117.6-441.2,116-442.6z"/>
</g>
<g>
	<path d="M-1042.3,669.7c60.4-0.4,120.4-3.9,178,18.5c80.6,31.4,138.9,86.3,171.4,166.2c62.6,154.5-11.4,325.9-166.2,388.5
		c-148,59.9-324.4-15.7-383.1-164.2c-14.8-37.5-22.3-76.1-22.2-116.4c0.3-90,0-179.9,0-269.9c0-7,0-13.9,0-21.9
		c5.4-0.5,9.4-1.2,13.4-1.2c48.7-0.1,97.5,0.3,146.2-0.3c12.1-0.2,14.9,4.1,14.9,15.4c-0.4,91.8-0.5,183.7-0.4,275.5
		c0.1,54.1,23.4,94.9,72.6,118.6c54.8,26.4,122.5,6,154.1-45.1c34-55.1,23.2-122.1-26.1-161.6c-22.8-18.3-48.4-27.7-77.8-27.3
		c-21.5,0.3-43.1-0.1-64.7,0.2c-7.9,0.1-12.5-2.2-12.4-11c0.2-52.9,0.2-105.9,0.4-158.8C-1044.2,673.7-1043.3,672.4-1042.3,669.7z"
		/>
	<path d="M-1262.2,450.2c31.4,0,62.9-1.8,94,0.4c43.3,3.2,75.1,36.9,77.5,80.3c1.5,27.5,0.4,55.2,0.6,82.8c0.1,7.8-3.4,10.8-11,10.7
		c-51-0.1-102,0.1-153-0.5c-3.5,0-9.8-6.1-9.8-9.4c-0.6-52.9-0.3-105.8-0.2-158.6C-1264.1,454.3-1263,452.5-1262.2,450.2z"/>
</g>
<g>
	<path d="M1164.3-911.1c8.2,0.8,16.3,1.7,24.4,2.4c81.4,7.8,153.8,37.6,217.1,89.2c11.3,9.2,22.6,18.9,32,29.9
		c28.8,33.5,22.2,85.8-13.4,112.2c-17,12.6-34.3,24.9-51.6,37.2c-28.6,20.2-65.2,19.7-93.4-1.2c-1.3-1-2.7-2-4.5-3.2
		c-3.8,5.2-7.5,10.4-11.4,15.4c-8.7,11.2-18.5,21.2-31.2,27.9c-11.4,6-23,7-35.2,1.9c-14.2-5.9-28.4-11.8-42.9-16.8
		c-16.6-5.8-25.4-17.8-27.7-34.3c-1.6-11.8-0.8-23.9-1-35.8c0-1.2,0.2-2.5,0.3-5c-50.6,7.2-91.5,30.3-122.7,69.8
		c-35.3,44.8-46.3,95.8-36.5,153c8-7.1,14.8-13.4,21.9-19.4c48.5-40.4,103.3-67.3,166.1-77.2c23.5-3.7,47-4.4,70.2,2.3
		c35.8,10.3,58.1,41.4,55.9,78.6c-0.9,15.2-7.1,28.7-16,40.8c-8.9,12.1-18.4,23.7-27.4,35.7c-16.1,21.5-18.8,46.4-17.1,72.2
		c0,0.3,0.4,0.6,0.9,1.5c1.7-0.6,3.6-1.2,5.4-2.1c17.4-7.8,33.3-18,47.5-30.7c28.1-25,68.5-27.1,99.1-5.1
		c16.1,11.6,32.3,23.2,48.4,34.9c22.7,16.5,34.3,38.9,33.7,66.9c-0.4,20.1-7.9,37.7-22.2,51.9c-34.8,34.6-74.9,61.6-119.8,81.5
		c-37.5,16.5-76.5,27.3-117.3,31.5c-107.9,11.1-205.9-14.6-292.3-80.5c-71.8-54.8-119.7-126.3-144-213.4
		c-11.7-42-16.3-85-13.7-128.5c6.2-102.6,45.2-191,117.6-263.9c59.5-59.9,131.3-97.6,214.7-112.4c17.1-3,34.6-4,51.8-5.9
		c2-0.2,4-0.8,6-1.2C1145.5-911.1,1154.9-911.1,1164.3-911.1z M1149.8-144.6c26.8,0.2,53.2-2.9,79.3-8.8
		c65.6-14.8,122.6-45.7,171.3-92c18.2-17.3,16.6-42.4-3.8-57.2c-15.8-11.4-31.6-22.9-47.5-34.1c-3.5-2.5-7.3-4.7-11.4-6
		c-15-4.7-27,0.9-38.6,10.5c-58.4,48.7-125.3,64.9-199.4,49.4c-50.4-10.6-92.4-36.8-125.4-76.4c-44.1-52.9-61.2-114.1-51.3-182
		c8.5-58.2,36.7-106.1,82.2-143.4c37.2-30.4,80-47.3,128-50.5c3.8-0.3,5.1-2.2,6.2-5.2c7.6-20.3,17.2-39.5,29.9-57.1
		c9.7-13.5,20.6-25.8,35.6-33.8c11.4-6,22.9-7.1,35.1-2.1c15.2,6.3,30.6,12.3,46,18.2c9.9,3.8,16.7,10.5,21,20
		c6.1,13.6,7.5,28.1,4.9,42.4c-3.4,18.9-8.5,37.6-13.1,56.2c-1.9,7.8-0.4,13.9,5.8,19.1c13.6,11.4,29.3,12.1,43.8,1.7
		c15.9-11.3,31.7-22.8,47.5-34.2c21.1-15.4,22.7-39.8,3.8-57.7c-61.2-57.7-133.8-90.6-217.5-98.5c-40.8-3.9-81.2-0.4-121,9.8
		c-180,45.8-300.4,222.6-267.4,413.3c11.5,66.8,39.8,126,85.1,176.4C951.1-186.3,1042-146.5,1149.8-144.6z M1040.1-355
		c0.9-3.4,1.5-5.3,1.9-7.2c7.7-34.8,25.5-62.9,55-83.2c6.8-4.7,14-5.6,21.2-2c13.8,6.8,14.3,24.9,1.1,34c-25.9,18-39,43.1-41.2,74.4
		c-0.3,4,1.1,5.7,4.5,7c24.3,9.2,49.4,13.7,75.4,12.4c13.1-0.7,18.9-7,19.2-20.4c0.2-7.7,0.6-15.3,1-23
		c1.7-29.4,12.5-55.2,30.8-78.1c8.5-10.7,17.3-21.3,24.5-32.9c10.5-16.8,3.1-38.6-15.5-45.5c-8.8-3.3-18.5-5.2-27.9-5.3
		c-30-0.5-58.6,6.7-86.3,17.7c-40.1,15.9-75.6,38.8-106.1,69.2c-9.6,9.6-11.5,23.1-3.7,33.8c7.8,10.7,16.3,21,25.3,30.8
		C1025.2-367,1032.5-361.6,1040.1-355z M1158.4-671.4c0,3.6-0.4,7.2,0.1,10.7c0.9,7,7.7,9.9,13.3,5.6c4.1-3.2,7.9-6.9,11.2-10.9
		c21.8-26.6,35.3-57.2,42.2-90.7c2.3-11.4,2.6-23.3,2.4-35c-0.1-7.5-7.4-10-13.5-5.5c-1.7,1.2-3.1,2.7-4.6,4.1
		c-11.5,11.3-20.1,24.6-27.4,38.9C1168.9-728.2,1159.5-700.9,1158.4-671.4z M1279.7-765c-0.6-3.4-1.4-9.1-2.7-14.8
		c-0.8-3.2-8.4-7.3-11.4-6.5c-4.4,1.3-3.4,5.2-3.7,8.4c-0.7,6.7-1,13.5-2.2,20c-7.8,42.8-24.4,81.5-52.4,115.2
		c-6.1,7.4-5.3,10.6,4,12.7c1.8,0.4,4.3-0.1,5.7-1.2c5.3-4.1,11.4-7.8,15.2-13.1c9.4-13.2,18.8-26.6,26.2-41
		C1270.8-709.4,1278.2-735.3,1279.7-765z"/>
	<path d="M1398.3-428.5c-7.2-1.1-14.5-1.6-21.5-3.4c-11-2.8-19.3-9.3-24.5-19.8c-7-14.3-14.2-28.5-21.9-42.5
		c-7.7-14-6.7-27.7,0.6-41.2c9.2-17.3,23.4-30.2,39-41.5c31.3-22.8,65.7-38.7,104.2-45.2c13.8-2.3,27.6-2.7,41.2,1.8
		c10.1,3.3,17.7,9.4,22.5,19c7.7,15.4,15.8,30.7,23.6,46c5.9,11.6,4.7,23.3-0.5,34.7c-7,15.5-18.5,27.3-31.5,37.7
		c-34.6,27.7-73.4,46.1-117.4,52.9c-4.4,0.7-9,0.5-13.5,0.7C1398.4-429,1398.4-428.8,1398.3-428.5z M1374.8-511c0,0.1,0,0.1,0,0.2
		c3-0.3,6-0.4,8.9-0.8c27.5-4.1,52.5-14.7,76.1-28.9c15.8-9.5,30.6-20.3,41.6-35.5c4.9-6.8,1.6-13.9-6.8-14.2
		c-5.8-0.2-11.6,0.4-17.3,1.5c-35.7,6.8-67.4,22.2-95.5,45c-6.8,5.5-12.6,12.3-18.2,19.1c-1.7,2.1-2.3,6.8-1.1,9.1
		c1.2,2.3,5.2,3.3,8.2,4.5C1372-510.6,1373.4-511,1374.8-511z M1398.5-462.2c0-0.1,0-0.3,0-0.4c2.8,0,5.7,0.4,8.4-0.1
		c42.2-7,79-25,110.2-54.1c5.6-5.2,9.6-12.3,13.8-18.9c1.8-2.8-1.4-11.1-4.6-12c-1.9-0.5-5.1,0.7-6.5,2.2
		c-24.6,25.4-54.3,43-87.2,55c-15.5,5.6-32.1,8.3-48.1,12.7c-2.1,0.6-5.3,3.7-5,4.9c1.1,4.6,3,9.5,9,10.1
		C1391.8-462.6,1395.2-462.5,1398.5-462.2z"/>
	<path class="st0" d="M1149.8-144.6c-107.8-1.9-198.7-41.7-271-122.1c-45.3-50.4-73.5-109.6-85.1-176.4
		c-33-190.7,87.4-367.5,267.4-413.3c39.8-10.1,80.2-13.6,121-9.8c83.7,7.9,156.2,40.9,217.5,98.5c19,17.9,17.4,42.3-3.8,57.7
		c-15.8,11.5-31.6,22.9-47.5,34.2c-14.6,10.4-30.3,9.6-43.8-1.7c-6.2-5.2-7.7-11.3-5.8-19.1c4.7-18.7,9.7-37.3,13.1-56.2
		c2.6-14.3,1.2-28.8-4.9-42.4c-4.2-9.5-11.1-16.2-21-20c-15.4-5.9-30.8-11.8-46-18.2c-12.2-5.1-23.8-4-35.1,2.1
		c-15,8-25.9,20.3-35.6,33.8c-12.7,17.6-22.4,36.8-29.9,57.1c-1.1,3-2.3,5-6.2,5.2c-48,3.3-90.8,20.1-128,50.5
		c-45.6,37.3-73.8,85.2-82.2,143.4c-9.9,67.9,7.2,129.1,51.3,182c33,39.6,75,65.8,125.4,76.4c74,15.6,141-0.7,199.4-49.4
		c11.6-9.7,23.6-15.2,38.6-10.5c4,1.3,7.9,3.5,11.4,6c15.9,11.2,31.7,22.7,47.5,34.1c20.4,14.7,21.9,39.9,3.8,57.2
		c-48.7,46.3-105.7,77.2-171.3,92C1203-147.6,1176.6-144.4,1149.8-144.6z"/>
	<path class="st0" d="M1040.1-355c-7.6-6.6-14.9-12-20.9-18.5c-9-9.8-17.5-20.1-25.3-30.8c-7.8-10.6-5.9-24.2,3.7-33.8
		c30.5-30.5,66.1-53.4,106.1-69.2c27.7-11,56.4-18.1,86.3-17.7c9.3,0.1,19.1,2,27.9,5.3c18.6,7,26,28.7,15.5,45.5
		c-7.2,11.5-16,22.2-24.5,32.9c-18.3,22.9-29.1,48.7-30.8,78.1c-0.4,7.7-0.8,15.3-1,23c-0.3,13.4-6.1,19.8-19.2,20.4
		c-26,1.3-51.1-3.2-75.4-12.4c-3.4-1.3-4.8-2.9-4.5-7c2.2-31.3,15.3-56.3,41.2-74.4c13.2-9.2,12.8-27.2-1.1-34
		c-7.2-3.6-14.5-2.6-21.2,2c-29.5,20.4-47.3,48.5-55,83.2C1041.6-360.3,1041-358.4,1040.1-355z"/>
	<path class="st0" d="M1158.4-671.4c1-29.6,10.5-56.8,23.8-82.8c7.3-14.2,15.9-27.6,27.4-38.9c1.5-1.4,2.9-2.9,4.6-4.1
		c6.1-4.5,13.4-2,13.5,5.5c0.1,11.7-0.1,23.7-2.4,35c-6.8,33.5-20.3,64.1-42.2,90.7c-3.3,4-7.1,7.7-11.2,10.9
		c-5.6,4.3-12.3,1.4-13.3-5.6C1158-664.2,1158.4-667.8,1158.4-671.4z"/>
	<path class="st0" d="M1279.7-765c-1.4,29.8-8.8,55.6-21.3,79.8c-7.4,14.4-16.8,27.8-26.2,41c-3.8,5.3-9.9,9-15.2,13.1
		c-1.4,1.1-3.9,1.5-5.7,1.2c-9.3-2.1-10.2-5.3-4-12.7c27.9-33.6,44.6-72.4,52.4-115.2c1.2-6.6,1.6-13.4,2.2-20
		c0.3-3.2-0.7-7.1,3.7-8.4c3-0.9,10.7,3.2,11.4,6.5C1278.3-774.2,1279.1-768.4,1279.7-765z"/>
	<path class="st0" d="M1374.8-511c-1.3,0-2.8,0.4-3.9-0.1c-2.9-1.2-6.9-2.2-8.2-4.5c-1.2-2.3-0.7-7,1.1-9.1
		c5.5-6.8,11.4-13.6,18.2-19.1c28.1-22.8,59.8-38.2,95.5-45c5.7-1.1,11.5-1.6,17.3-1.5c8.4,0.2,11.7,7.3,6.8,14.2
		c-11,15.2-25.9,26-41.6,35.5c-23.6,14.2-48.6,24.8-76.1,28.9c-3,0.4-6,0.6-8.9,0.8C1374.8-510.8,1374.8-510.9,1374.8-511z"/>
	<path class="st0" d="M1398.5-462.2c-3.4-0.2-6.7-0.4-10.1-0.7c-6-0.6-7.8-5.4-9-10.1c-0.3-1.2,3-4.3,5-4.9c16-4.4,32.6-7,48.1-12.7
		c32.9-12,62.6-29.6,87.2-55c1.5-1.5,4.7-2.7,6.5-2.2c3.2,0.9,6.4,9.2,4.6,12c-4.2,6.6-8.2,13.7-13.8,18.9
		c-31.2,29.1-68.1,47.2-110.2,54.1c-2.7,0.5-5.6,0.1-8.4,0.1C1398.5-462.5,1398.5-462.4,1398.5-462.2z"/>
</g>
<g>
	<path d="M-2152.3-229.2c242.7,0.7,450,192.7,449.9,450.6c-0.2,250.8-199.5,449.7-450.5,449.2c-257.7-0.5-451-208.6-449.1-453.1
		C-2600.2-30.1-2400.5-228.1-2152.3-229.2z M-2240.2-8.3c0,152.9,0,305.3,0,458.2c2.3,0,4.2,0,6.2,0c41.8,0,83.7,0.4,125.5-0.2
		c16.4-0.2,33.1-1.2,49.2-4.3c85.5-16.2,141.6-65.8,164.6-150.2c15-55.2,13.3-110.8-4.7-165.1c-16.1-48.6-46.8-85.9-91.9-110.8
		c-34.2-18.8-71.2-27.2-109.9-27.7c-45-0.6-90-0.2-135-0.2C-2237.5-8.5-2238.6-8.3-2240.2-8.3z M-2407.9,98.3
		c0.1,29.8,22.7,52.2,52.4,52.1c30-0.1,52.1-22.4,52-52.3c-0.1-29.9-22.4-52.2-52.3-52.1C-2385.4,46-2408,68.7-2407.9,98.3z
		 M-2355.6,291.3c-29.9,0-52.2,22.1-52.3,52c-0.1,29.7,22.4,52.2,52.2,52.2c30,0,52.2-22.1,52.2-52.1
		C-2303.5,313.5-2325.5,291.4-2355.6,291.3z"/>
	<path d="M-2176.9,388.8c0-112.2,0-224,0-336c1.1-0.1,2.1-0.3,3-0.3c25,0,50-0.4,75,0.1c64.5,1,114.8,36.4,135.8,97.5
		c18.1,52.6,17,105.4-6.4,156.3c-23.4,50.8-64.3,78.1-119.7,81.9c-28.4,2-56.9,0.7-85.4,0.9C-2175.4,389.2-2176,389-2176.9,388.8z"
		/>
</g>
<g>
	<path d="M-3195,65.8c6.1-4.1,12.2-8.3,19.5-13.3c-158.1-33.8-270.9-187.5-250.4-348.3c7.2,14.6,12,23.1,15.8,32
		c40.7,96,116.8,141.1,217.2,150.7c20.4,2,41.2,0.6,61.7,2.5c52.4,4.8,81.1,33.4,87.2,85.4c4.5,38.6-20.6,71.8-68.7,85.2
		c-26,7.3-53.4,9.1-80.2,13.4C-3193.6,71-3194.3,68.4-3195,65.8z"/>
	<path d="M-2784.3,575.6c-57.8,0.9-100.5-18.1-125.6-67.5c-3.7,0.8-6.6,0.5-8,1.9c-12.9,13-25.9,37.5-38.2,37.1
		c-28.9-0.9-62.9-6.5-84.7-23.4c-32-24.7-55.2-60.9-80.6-90.3c0,23.1,0,52.1,0,80.9c-77.4-23.2-122.8-119.3-106.2-232.6
		c13.8,10.6,25.1,20.5,37.6,28.6c33.4,21.6,65.1,47.7,101.4,62.3c41,16.5,68.6,37.6,66.9,85.8c49.8-29.5,101-24.7,136.3,12.2
		c3.5-12.1,6.8-23.4,12.1-41.5c9.9,7.2,21.8,11.4,25.1,19.3c9.3,22,12.7,46.7,23.1,68.1C-2815.3,536.6-2799.6,553.8-2784.3,575.6z"
		/>
	<path d="M-3260.6,460.2c-70,3.6-132.5-8-189.8-56.6c42.8-52.7,83.9-103.3,125.1-154c2.1,1.7,4.1,3.5,6.2,5.2
		c-7.2,41.2-14.3,82.4-21.5,123.5c2.5,0.5,5.1,1,7.6,1.4c21.7-39.1,43.4-78.3,65-117.4c2.5,1.6,4.9,3.3,7.4,4.9
		C-3260.6,330.5-3260.6,393.7-3260.6,460.2z"/>
	<path d="M-2916.1,281.7c-12.4,6.5-23.8,12.5-35.1,18.4c-1.2-19.3-2.4-38.7-3.9-61.6c-11.7,17.6-24.9,37.4-40.4,60.8
		c-8.6-14.6-17.3-29.3-30.5-51.7c-3.4,26-6.1,46.7-8.8,66.9c-33.2-22.9-44.2-68.2-25.1-104.2c19.3-36.6,59.5-47.4,108.9-27.4
		c-5.6,8.3-10.9,16.1-21.7,32c45.7-26.7,83.5-31.2,117.4,1.1c21.7,20.7,34,45.8,23.1,86.9C-2856.7,270.5-2893.9,314.4-2916.1,281.7z
		"/>
	<path d="M-2900.9,78.8c-5.7-22.1-32.1-26.6-131.1-23.6c20.2-5.3,40.2-11.7,60.7-15.7c21.1-4.1,42.7-6,66.8-9.2
		c-4.5-48.2-21.9-89.5-52.9-124.7c-5.5-6.2-17.2-6.6-25.5-10.9c-21.2-11.1-42-22.8-67.5-36.7c35.1-21.8,77.6-9,94,19
		c7,12,14.8,24,24.2,34.2c55.3,60,76.8,131.8,78.2,208.6c-126.3-4-250.3-7.9-374.4-11.8c-0.2-2.2-0.5-4.4-0.8-6.6
		C-3120.4,93.8-3011.7,86.3-2900.9,78.8z"/>
	<path d="M-3262,227c23.1-13.2,47.2-26.9,71.2-40.6c-0.9-1.3-1.8-2.6-2.6-3.8c-41.4,9-82.8,17.9-133.7,29
		c62.5-73.4,204.4-100.7,268.2-59.4C-3108.1,212.5-3204.7,247.6-3262,227z"/>
	<path d="M-2768.6-175.4c-6.1,60.5-33.3,109.3-85.4,150.1c-12.6-21.1-23.9-40.2-33.6-56.5C-2847.3-113.4-2808.3-144.1-2768.6-175.4z
		"/>
	<path d="M-3017,372.3c37.1-35.7,74.3-72.1,132.3-53.8c12.3,3.9,22.6,14,33.8,21.3c-11.5,8.8-22.9,17.6-34.5,26.3
		c-0.8,0.6-2.5,0.6-3.5,0.2C-2932.5,348.1-2973.5,370.6-3017,372.3z"/>
	<path d="M-3184.9,276c26.8-17.7,53.6-35.3,83.8-55.3c1.2,32.9,4.9,69.2-24.9,86.1c-13.5,7.6-42.4-12-64.4-19.3
		C-3188.6,283.7-3186.7,279.8-3184.9,276z"/>
	<path d="M-2984.2,155.7c55.5-24.4,110.2-18.3,125.5,18.8C-2901.1,168.1-2938.8,162.5-2984.2,155.7z"/>
	<path d="M-2939.8,404.3c30.2-7.9,60.1-17,90.7-22.6c5.7-1.1,14,11.8,21.1,18.2c-7.4,4.7-14.5,13-22.2,13.5
		c-28.5,1.6-57.2,0.6-85.8,0.6C-2937.2,410.7-2938.5,407.5-2939.8,404.3z"/>
</g>
<g>
	<path d="M-3946.3,236.1c0.1-54.6-0.1-109.2,0.3-163.9c0.2-39,16.9-55.1,55.8-55c108.7,0.2,217.4,0.3,326.2,0.5
		c34.6,0.1,52.8,17,53.3,51.6c0.7,40.2,0.6,80.4-0.1,120.6c-0.5,29.3-20.1,47.9-49.3,48c-36.6,0.2-73.2-0.3-109.8,0
		c-38.5,0.3-55.5,17.7-55.6,56c-0.1,37.6,0,75.2-0.3,112.8c-0.3,33.8-17.8,50.9-51.8,51c-39.2,0.1-78.3,0-117.5-0.1
		c-33.8-0.1-51.6-17.9-51.6-51.5C-3946.5,349.5-3946.4,292.8-3946.3,236.1z"/>
	<path d="M-3297.8-194.7c0,25.2,0.2,50.5-0.2,75.7c-0.3,19.6-13,32.8-32.8,33c-51,0.4-102,0.5-153,0c-21.1-0.2-33-12.4-33.9-35.6
		c-1.1-28.3-0.6-56.7-0.7-85c-0.1-20.6-0.5-41.2,0.1-61.8c0.7-22.2,10.6-35.8,31.1-36.8c53.5-2.6,107.1-2.8,160.5,0.7
		c20.5,1.4,28.8,12.9,29,34.1C-3297.4-245.2-3297.7-219.9-3297.8-194.7C-3297.7-194.7-3297.8-194.7-3297.8-194.7z"/>
	<path d="M-3945.7-197c0.2-62,48.9-110,111.5-109.8c61.1,0.2,109.9,49.2,109.6,110.3c-0.2,61.8-49.9,111.9-111.2,110.8
		C-3899.8-86.9-3945.6-137-3945.7-197z"/>
</g>
<g>
	<path class="st1" d="M-1269.8,113.7c3.5-5.1,3-11.2,4.4-16.8c17.1-67.6,77.2-111.4,147.8-107.6c65,3.5,120.1,54.6,130.1,121
		c8.9,58.8-20.3,116.9-73,145.5c-52,28.2-117.7,20.4-161.6-19.1c-25-22.5-40.1-50.5-45.8-83.6c-0.3-1.6,0.7-4-1.9-4.8
		C-1269.8,136.7-1269.8,125.2-1269.8,113.7z"/>
	<path class="st1" d="M-1269.8,538.2c3.6-4.5,2.8-10.1,4-15.2c16.4-66.8,73.7-110.5,143.4-109.4c64.4,1.1,120.9,49.5,134.1,114.8
		c16,79.1-40.1,157.2-120.1,167.1c-1.1,0.1-2.1,0.3-2.3,1.6c-12,0-24,0-36.1,0c-2.2-3-5.9-2.1-8.8-2.8
		c-58.3-13.7-94.7-49.8-110.3-107.3c-1.3-4.8-0.5-10.2-3.8-14.4C-1269.8,561.1-1269.8,549.7-1269.8,538.2z"/>
	<path class="st1" d="M-722.4,697.2c-2.6-3-6.4-2.3-9.6-3c-65.7-13.5-114-73.2-113-139.7c1-68.9,50.1-127.1,117.2-138.9
		c76.4-13.5,151.4,38.5,164.3,113.8c13.5,79.1-37.7,152.5-115.5,165.9c-2.4,0.4-5.5-1.5-7.3,1.8
		C-698.4,697.2-710.4,697.2-722.4,697.2z"/>
	<path class="st2" d="M-561.5,131.2c0,79.4-63.2,141.2-144.3,141.2c-75.6,0-139.7-64.9-139.1-141.8c0.7-84.6,70.2-143,145.1-141.7
		C-624-9.8-561.5,53.4-561.5,131.2z"/>
</g>
<g>
	<path d="M513.6,785c-65.1,0-130.3-0.1-195.4,0.2c-7.3,0-9-2-8.8-9c0.5-24,0.6-48,0-71.9c-0.2-8.7,2.8-10.2,10.6-10.1
		c70.8,0.3,141.7,0.2,212.6,0.2c50.8,0,101.7-0.2,152.6,0.2c7.5,0,9.6-1.9,9.6-9.5c-0.3-121.3-0.2-242.6-0.2-363.9
		c0-13.9-0.3-11.2,11.5-11.3c23.7-0.1,47.4,0.1,71.1-0.2c5.9-0.1,7.8,1.4,7.8,7.6c-0.2,129.9,0.1,259.7-0.2,389.5
		c-0.1,43.7-37.8,78.1-85.1,78.3C637.6,785.2,575.6,785.1,513.6,785C513.6,785.1,513.6,785,513.6,785z"/>
	<path d="M215.3,487.2c0-63.4,0-126.7,0-190.1c0-44,35.2-81.4,79.1-81.6c129.7-0.6,259.4-0.2,389.1-0.3c5.8,0,7.1,2.1,7.1,7.5
		c-0.2,24.5-0.4,49.1,0.1,73.6c0.1,7.8-1.9,10-9.9,10c-118-0.3-236-0.2-354-0.2c-20.9,0-20.9,0-20.9,20.8
		c0,117.9-0.1,235.8,0.2,353.6c0,7.8-2,10.1-9.9,10c-24-0.5-48-0.5-72,0c-7,0.1-9.1-1.7-9.1-8.9C215.4,616.8,215.3,552,215.3,487.2z
		"/>
	<path d="M402.3,499.9c0-29.4,0.2-58.8-0.1-88.1c-0.1-6.9,1.9-9.5,9.2-9.5c59.1,0.2,118.2,0.2,177.3,0c6.5,0,9.1,1.9,9.1,8.8
		c-0.2,59.3-0.2,118.7,0,178c0,6.1-1.8,8.6-8.3,8.5c-59.7-0.2-119.4-0.2-179,0c-6.6,0-8.2-2.7-8.2-8.7
		C402.4,559.3,402.3,529.6,402.3,499.9z"/>
	<path d="M838.5,215.7c-14.9,0-29.7-0.2-44.6,0.1c-6.7,0.2-9.8-1.7-9.7-9c0.3-30.2,0.2-60.5,0-90.8c0-6.3,2.1-8.5,8.4-8.5
		c30.6,0.2,61.1,0.2,91.7,0c6.4,0,8.4,2.3,8.4,8.5c-0.2,30.2-0.2,60.5,0,90.8c0,6.6-2.1,9.2-8.9,9
		C868.8,215.4,853.7,215.7,838.5,215.7z"/>
	<path d="M161.3,892.4c-15.7,0-31.4-0.1-47.1,0.1c-5.1,0.1-7-1.5-7-6.8c0.2-31.4,0.2-62.8,0-94.2c0-5,1.4-7.2,6.8-7.1
		c31.7,0.2,63.4,0.1,95.1,0c4.7,0,6.6,1.6,6.6,6.5c-0.1,31.7-0.1,63.4,0.1,95c0,5.6-2.6,6.6-7.3,6.5
		C192.7,892.3,177,892.4,161.3,892.4z"/>
</g>
<g>
	<path d="M-2767.5,240.9c-36.6,0-73.2,0-111.5,0c0-183.7,0-366,0-551.3c34.3,0,69.3,0,110.5,0c0,183.4,0,368-0.1,552.5
		C-2768.6,242.1-2767.5,240.9-2767.5,240.9z"/>
	<path d="M-2323.3,130.8c-35.6,0-71.2,0-109.4,0c0-147,0-293,0-441.8c34.2,0,69.2,0,108.4,0c0,147.8,0,295.3,0,442.8L-2323.3,130.8z
		"/>
	<path d="M-2324.4,131.9c35.5,0,71,0,109.1,0c0,36.8,0,71.6,0,108.9c-34.8,0-69.7,0-108.1,0c0-37,0-73.4,0-109.9
		C-2323.3,130.8-2324.4,131.9-2324.4,131.9z"/>
	<path d="M-2657.1,353.3c-35.5,0-70.9,0-110.5,0c0-37.6,0-75,0-112.4c0-0.1-1,1.2-1,1.1c35.3-0.1,70.6-0.1,110.4-0.1
		c0,39.8,0,76.1,0,112.3C-2658.1,354.4-2657.1,353.3-2657.1,353.3z"/>
	<path d="M-2545.9,355.1c0-35.5,0-71,0-109.2c35.7,0,70.5,0,108,0c0,34.1,0,68.9,0,108.2c-36.3,0-72.7,0-109,0L-2545.9,355.1z"/>
	<path d="M-2547,354c0,35.6,0,71.1,0,109.2c-36.9,0-71.8,0-110.2,0c0-36.9,0-73.4,0-109.9c0,0-1,1.1-1,1
		c37.4,0.2,74.8,0.5,112.2,0.7C-2545.9,355.1-2547,354-2547,354z"/>
</g>
<g id="eypBKl.tif">
	
		<image style="overflow:visible;enable-background:new    ;" width="619" height="200" id="Layer_0_00000000207073226968855230000016679572948064681098_" xlink:href="FA9227D2248CC164.png"  transform="matrix(1.4342 0 0 1.4342 -2074.302 713.1574)">
	</image>
</g>
</svg>
