<?xml version="1.0" encoding="utf-8"?>
<!-- Generator: Adobe Illustrator 25.2.0, SVG Export Plug-In . SVG Version: 6.00 Build 0)  -->
<svg version="1.1" xmlns="http://www.w3.org/2000/svg" xmlns:xlink="http://www.w3.org/1999/xlink" x="0px" y="0px"
	 viewBox="0 0 400 400" style="enable-background:new 0 0 400 400;" xml:space="preserve">
<style type="text/css">
	.st0{fill:#000000;}
</style>
<g id="레이어_2">
</g>
<g id="레이어_1">
	<g>
		<path class="st0" d="M202.1,30.7c-94.7-1.2-169.7,74.6-171.2,166.3c-1.5,96.3,76.1,172.4,169,172.2c93.5,0,169.2-75.5,169.3-168.7
			C369.3,107.7,295.5,31.9,202.1,30.7 M232.1,353.5c-47.8,9.6-91.4-0.7-129.8-31c-29.7-23.5-48.1-54.3-55.8-91.4
			c-1.6-7.6-2.7-15.3-2.8-23.2c-0.8-4.4-0.2-8.8-0.3-13.2c0-0.9-0.3-1.9,0.3-2.7l0,0c1.7-34.3,13.5-64.6,35.1-91.3
			c10.7-13.2,23.3-24.3,37.8-33.4c0.7-0.4,1.5-0.9,2.2-1.2c1-1.3,2.6-1.7,3.8-2.5l0,0c51.6-27.7,103.4-27.6,155,0
			c1.5,0.9,3.2,1.9,4.7,2.8l0,0l0,0c24.4,15,43.2,35.3,56.6,60.6c9.8,18.6,15.7,38.2,17.4,59.1c3.3,41.5-7.7,78.9-33.6,111.5
			C299.2,327.1,268.9,346.2,232.1,353.5"/>
		<path class="st0" d="M50,212.6c10.1,17.6,20.2,35.3,30.3,52.9c7.3,12.7,14.5,25.4,21.7,38.1c5.3,9.3,10.5,18.6,15.9,27.9
			c1.4,2.3,3.5,3.4,6.2,3.4c50.5,0,100.9,0,151.4,0c3.1,0,5.3-1.1,6.8-3.8c11-19.5,22.1-38.9,33.3-58.4s22.3-39,33.4-58.5
			c2.2-3.8,4.4-7.7,6.6-11.5c1.4-2.3,1.1-4.7-0.2-6.9c-4.8-8.4-9.6-16.8-14.3-25.1c-7.2-12.6-14.4-25.1-21.5-37.7
			c-8.3-14.5-16.7-29.1-25-43.6c-4.1-7.1-8.1-14.3-12.2-21.4c-0.3-0.4-0.8-0.9-0.1-1.5l0,0c-1.5-0.9-3.2-1.9-4.7-2.8
			c-0.7,0.7-1.5,0.3-2.2,0.3c-50.2,0-100.4,0-150.5,0c-0.8,0-1.5,0.3-2.2-0.3l0,0c-1.4,0.8-2.9,1.2-3.8,2.5
			c-4.9,8.4-9.7,16.8-14.5,25.2c-8.4,14.6-16.7,29.2-25.1,43.9c-7.7,13.4-15.3,26.9-23,40.4c-4,7-8,14.1-12.5,21c0-1.5,0-2.9,0-4.4
			l0,0c-0.5,0.9-0.3,1.8-0.3,2.7c0.1,4.4-0.4,8.8,0.3,13.2v-6.7C45.9,205.5,48,209,50,212.6 M57.8,197.6c7.9-13.7,15.6-27.4,23.4-41
			c7.7-13.6,15.5-27.1,23.3-40.7c7.2-12.7,14.5-25.2,21.6-37.9c0.7-1.2,1.5-1.5,2.7-1.5c47.3,0,94.7,0,141.9,0c1.5,0,2.3,0.5,3,1.8
			c7,12.4,14.1,24.8,21.2,37.2c8.6,15,17,29.8,25.6,44.8c7.2,12.6,14.3,25.1,21.5,37.7c0.7,1.1,0.7,2,0,3.1
			c-6,10.3-11.9,20.8-17.9,31.2c-7.2,12.5-14.3,25.1-21.5,37.5c-8.4,14.6-16.7,29.2-25.1,43.9c-1.4,2.4-2.8,4.7-4,7.1
			c-0.7,1.5-1.5,1.9-3.2,1.9c-22.2-0.1-44.6,0-66.8,0h-3.8c-23.3,0-46.7,0-70,0.1c-2.1,0-3.2-0.6-4.4-2.5
			c-8.2-14.5-16.5-29-24.8-43.5c-8.3-14.5-16.5-29-24.8-43.5c-6-10.5-12.1-21-18.1-31.6C57.1,200.1,57,199.1,57.8,197.6"/>
		<path class="st0" d="M157.3,154.6c1.1,0.2,2.2,0.3,3.4,0.4c6.2,0.5,9.7,3.6,10.6,9.2c0.3,1.8,0.4,3.5,0.5,5.3
			c0.9,15.4,0.9,30.8,0.9,46.3c0,6.8-0.3,13.5-1,20.3c-0.5,4.1-2.8,6.2-6.7,6.9c-1.5,0.3-3,0.4-4.4,0.5c-1,0.1-2,0.2-2.9,0.7
			c-1.3,0.7-1.3,2.1,0,2.8c0.7,0.4,1.5,0.5,2.3,0.5c13.1,0,26.1,0,39.2,0c1.1,0,2.3-0.2,3.2-0.8c0.7-0.4,1-1,0.9-1.8
			c-0.1-0.9-0.6-1.3-1.4-1.4c-0.8-0.2-1.5-0.3-2.3-0.4c-8-1.5-8.6-3.8-9.1-9.2c-1.2-16.6-1.4-33.1,0.7-49.6
			c1.1-9.1,6.1-16.2,13.3-21.6c6.6-4.9,12.7-3.3,16.8,3.8c0.8,1.5,1.5,2.9,2.5,4.2c1.9,2.7,4.6,3.6,7.9,3.1c3.2-0.5,5.4-2.2,6.4-5.3
			c1.1-3.2,1.3-6.6,0.2-9.9c-2.7-8.2-11-12.5-20.4-10.4c-7.9,1.8-13.9,6.5-19,12.4c-3.2,3.8-6,8-8.8,12.7c-0.2-0.8-0.3-0.9-0.3-1.1
			c-0.3-7.2-0.8-14.4-1.4-21.5c-0.1-1.6-0.5-2.1-2.1-1.9c-3.5,0.3-7.1,0.3-10.7,0.6c-6.1,0.3-12.1,0.5-18.1,1.3
			c-1.1,0.2-2.2,0.4-2.3,1.7C154.9,153.8,156.1,154.3,157.3,154.6"/>
		<path class="st0" d="M226,226c-6.4,0-11.5,5-11.5,11.5s5,11.5,11.5,11.5s11.5-5.1,11.5-11.5C237.6,231.2,232.5,226,226,226"/>
	</g>
</g>
</svg>
