<?xml version="1.0" encoding="utf-8"?>
<!-- Generator: Adobe Illustrator 25.2.0, SVG Export Plug-In . SVG Version: 6.00 Build 0)  -->
<svg version="1.1" id="레이어_1" xmlns="http://www.w3.org/2000/svg" xmlns:xlink="http://www.w3.org/1999/xlink" x="0px"
	 y="0px" viewBox="0 0 400 400" style="enable-background:new 0 0 400 400;" xml:space="preserve">
<style type="text/css">
	.st0{fill:#FFFFFF;}
	.st1{fill:#F9F9F9;}
	.st2{fill:#F4F4F4;}
</style>
<g>
	<path class="st0" d="M80.3,88.4c3.2-3.4,6.3-6.8,9.6-10.1c2-2.1,4.6-2.9,7.5-2.9c28,0,56,0.1,83.9,0.1c2.2,2,5.1,1.2,7.6,2.4
		c3.9,1.8,8,3.2,11.3,6.2c1.4,1.3,3.2,1.9,5.1,2.2c2.9,0.4,5.5,1.6,8,3.2c3.3,2.1,6.7,4.1,10.8,4c1.9,0,3.2,1.2,4.4,2.6
		c1.3,1.4,2.6,3,4.5,3.3c10.6,1.7,19.2,8.2,29,12c8.9,3.5,17.5,7.5,26.2,11.3c5.7,2.5,11,5.7,16.9,7.9c2.5,0.9,3.4,3.1,1.5,5.6
		c-1.8,0.4-3.7,1-5.5,1c-39.7,0-79.3,0-119-0.1c-5.9-1.3-10.6-5.2-16.3-6.9c-2.4-0.7-3.9-2.9-6.1-4.1c-4.8-2.8-10.4-3.3-15.5-5.6
		c-2.4-1.1-4.8-1.9-6.8-3.7c-1.3-1.2-2.8-2.1-4.5-2.6c-11.1-3.2-21.1-9-31.8-13.3c-6.3-2.5-12.2-5.8-18.3-8.6
		C81.1,91.7,80.1,90.5,80.3,88.4z"/>
	<path class="st1" d="M316.2,229.7c-37.1,0-74.3,0-111.4,0c-0.7-0.7-1.5-1.7-2.4-1.7c-7.3,0.6-12.3-4.3-17.8-7.7
		c-3-1.9-6-3.5-9.6-3.8c-0.4,0-0.9-0.1-1.3-0.3c-6.7-3.9-14.7-5.3-21-10c-0.7-0.5-1.5-1.1-2.3-1.2c-10.6-1.7-18.5-9.3-28.3-12.8
		c-4.9-1.8-9.7-3.8-14.5-5.8c-3.5-1.4-7.1-2.4-9.6-5.6c-0.8-1-2.2-1.8-3.4-1.8c-4.9,0.3-8.2-3.1-12.1-5.1c-1.7-0.9-2.9-2.1-0.9-4
		c37.2-0.1,74.4,0,111.6-0.1c3.4,0,6.1,1.6,8.8,3.2c1.5,0.9,2.9,2,4.5,2.6c10.8,4.1,20.7,10.5,31.6,14.2c8.8,3,16.4,8.6,25.6,10.5
		c2.4,0.5,3.6,2.9,5.7,3.9c11.1,5,21.5,11.1,33,15.3c4.3,1.6,9,2.1,12.7,5.2C316.6,226.3,317.7,227.6,316.2,229.7z"/>
	<path class="st2" d="M321.4,308.9c-4.1,3.1-6.8,7.5-10.4,11.1c-3,3-6.3,4.5-10.4,4.5c-1.3,0-2.6,0-3.9,0c-78.3,0-156.6,0-234.9,0
		c-2.3,0-4.7,0.4-6.9-0.6c1.5-2.9,4.2-2.2,6.6-2.2c14.1-0.2,28.1-0.1,42.2-0.1c12.5,0,24.9,0,37.4,0c4.3,0,8.6,1.8,12.9,0.2
		c2-0.8,4-0.1,6-0.1c28.4,0,56.8,0,85.3,0c0.6,0,1.2,0,2.2-0.3c-5.2-2.4-9.2-6.4-14.8-7.3c-2.1-0.4-4.1-1.5-5.8-2.9
		c-1.3-1.1-2.8-2.2-4.5-2.5c-9.1-1.7-16.6-7-24.7-10.9c-0.3-0.1-0.5-0.3-0.8-0.4c-9.6-2.7-17.7-8.5-26.7-12.3
		c-10.9-4.6-21.5-9.9-32.6-14.2c-1.5-0.6-3-1.1-4.4-1.9c-1.8-1-3.1-2.3-1.5-4.5c11-0.4,22-0.1,33-0.2c21.2-0.1,42.3,0,63.5,0
		c5.3,0,10.3,1.3,15,3.5c6.7,3.1,13.3,6.5,20.1,9.3c4.6,1.8,9.1,3.7,13.6,5.5c3.6,1.4,7.2,3.1,10.3,5.5c3.2,2.5,7.1,3.3,10.8,4.3
		c3.7,1,7.1,2.3,10.2,4.5c3.7,2.6,8.1,3.8,11.9,6.3C322.5,304.7,323.1,306.5,321.4,308.9z"/>
	<path class="st0" d="M306.6,136.2c-0.1-2.4-1.6-3.5-3.7-4.2c-8.8-2.9-16.5-8.2-25.1-11.4c-6.7-2.5-13.1-5.7-19.6-8.7
		c-5.8-2.7-12.1-4.6-17.4-8.4c-1.3-0.9-2.7-1-4.1-1.1c-3.9-0.3-7.4-1.3-9.7-4.9c-0.7-1.1-1.9-2-3.2-1.9c-4.4,0.4-7.7-1.9-11.1-4.1
		c-2.6-1.7-5.3-2.9-8.4-3.2c-1.1-0.1-2.4-0.4-3.2-1.1c-5-4.4-11.1-6.4-17.1-8.9c-1.3-0.5-2.2-1.4-2.6-2.8c15.1,0,30.1-0.1,45.2-0.1
		c37.7,0,75.4,0,113,0c1.6,0,3.2-0.1,4.8,0.1c8,0.8,11.9,9.3,7.1,15.8c-1.9,2.5-4.2,4.8-6.5,7c-11.1,11.3-22.2,22.5-33.4,33.7
		C310,133.6,308.6,135.3,306.6,136.2z"/>
	<path class="st2" d="M131.6,264.6c3.2,4.1,8.3,4.6,12.5,6.4c9.1,3.7,18,7.9,26.9,11.8c5.4,2.4,11.6,4.5,16.2,8.8
		c0.4,0.4,1,0.8,1.5,0.9c7.6,1.2,14.4,4.8,20.7,8.8c6.6,4.2,14.3,5.4,21.1,9.2c6.4,3.5,13.2,7,20,9.9c1.3,0.6,3.4,0.9,3.2,2.4
		c-0.2,2-2.3,1.1-3.6,1.1c-31.7,0-63.4,0-95.1,0c-0.5-0.3-1-0.8-1.5-0.8c-6.5,0.2-11.7-2.8-16.8-6.4c-3.1-2.2-6.9-2.8-10.5-3.8
		c-5.7-1.5-10.4-5.4-15.8-7.7c-1.4-0.6-2.7-1.9-4.3-2c-7.2-0.4-12.7-4.4-18.3-8.1c-3.9-2.5-8.7-3.1-12.6-5.6c-1.7-1-3.3-1.8-3.6-4
		c6.1-6.3,12.2-12.5,18.4-18.7c1.3-1.4,3-2.2,5-2.2C107.2,263.9,119.4,263.7,131.6,264.6z"/>
	<path class="st1" d="M316.2,229.7c-2.2-5.5-7.8-5.7-12.3-7.1c-4.7-1.5-9.5-3-13.6-5.5c-6.8-4.3-15.3-5.4-21.4-10.3
		c-6.9-5.5-15.3-7-22.7-11.1c-6.9-3.8-15.2-5.5-22.2-9.5c-9.3-5.2-20.3-6.9-28.3-14.7c-1.5-1.5-3.6-1-5.4-1c-36.4,0-72.8,0-109.2,0
		c-1.2,1.5-2.8,1.9-4.6,2c-6.1,0.2-12.1,0.2-18.2,0c-1.7-0.1-3.5-0.2-4.4-2.1c1.6-0.9,3.4-0.7,5.1-0.7c80.3,0,160.7,0,241,0
		c4.2,0,7.6,1.4,10.5,4.3c12.8,12.7,25.6,25.3,38.4,37.9c0.7,0.7,1.4,1.4,2.1,2.2c2.4,3.1,3.1,6.5,1.4,10.2
		c-1.7,3.6-4.6,5.6-8.6,5.6C334.7,229.8,325.4,229.7,316.2,229.7z"/>
	<path class="st1" d="M54,170.3c9.1,0,18.1,0.1,27.2,0.1c4.7,1.8,7.8,6.8,13.6,6.3c1.1-0.1,2.8,0.6,3.5,1.4c4,5,10,6.3,15.4,8.3
		c6.9,2.6,13.5,5.7,20.3,8.6c2.7,1.1,4.4,3.7,7.2,4.8c5.3,2.2,11,3.1,16.1,6.2c6.5,4.1,13.8,6.8,21.3,8.8c4.2,1.1,7.8,3.8,11.3,6.3
		c3.4,2.5,7,4.7,11.4,5c2.2,0.2,3.5,1.2,3.6,3.5c-36.1,0-72.1,0.1-108.2,0.1c-2.9,0-5.4-1-7.4-3.1C76.1,213.6,63,200.5,50,187.2
		C43.7,180.6,45.8,172.6,54,170.3z"/>
	<path class="st0" d="M80.3,88.4c8.5,4.8,17.5,8.5,26.4,12.6c6.4,3,13.3,5.1,19.5,8.7c2.4,1.4,5.8,1.2,8.1,2.7
		c7,4.9,15.3,6.6,22.7,10.2c8.6,4.2,18,7.6,25.2,14.4c-41.7,0-83.5,0.1-125.2,0.1c-4.3,0-7.6-1.8-9.4-5.8c-1.8-4-1.3-7.8,1.6-10.9
		C59.4,109.8,69.8,99.1,80.3,88.4z"/>
	<path class="st2" d="M131.6,264.6c-12.2,0-24.4-0.1-36.7-0.1c1.8-0.9,3.7-0.7,5.5-0.7c79.7,0,159.3,0,239,0c4.1,0,8.2,0,11.3,3.4
		c3.3,3.5,4,8.5,0.9,11.9c-9.7,10.3-19.4,20.7-30.3,29.8c0.2-3.4-2.6-4.6-4.9-5.4c-4.6-1.6-8.3-4.7-12.5-6.8
		c-4-1.9-8.4-3.1-12.7-4.1c-2.2-0.5-4.1-1-5.5-2.9c-1.8-2.2-4.5-3.3-7-4.2c-14.5-5.3-28.3-12.2-42.4-18.5c-4.7-2.1-9-2.5-13.7-2.5
		C192.3,264.6,162,264.6,131.6,264.6z"/>
	<path class="st2" d="M71.6,285.4c8.7,4,18,6.8,25.6,13.1c0.5,0.4,1.3,0.8,2,0.8c9.3,1.1,16.8,6.2,24.8,10.5
		c4.3,2.3,9.8,1.9,14.2,4.8c1.5,1,3.3,1.5,4.6,3c1.8,2.2,4.3,3.3,7.2,3.5c2.1,0.1,4,0.6,5.1,2.6c-31.1,0-62.2,0-93.3,0.1
		c-2.3,0-4.6,0.1-6.9,0.1c-8.1-1.6-11.3-9.6-5.8-15.6C56.3,300.4,64,293,71.6,285.4z"/>
</g>
</svg>
