<?xml version="1.0" encoding="utf-8"?>
<!-- Generator: Adobe Illustrator 25.2.0, SVG Export Plug-In . SVG Version: 6.00 Build 0)  -->
<svg version="1.1" id="레이어_1" xmlns="http://www.w3.org/2000/svg" xmlns:xlink="http://www.w3.org/1999/xlink" x="0px"
	 y="0px" viewBox="0 0 400 400" style="enable-background:new 0 0 400 400;" xml:space="preserve">
<style type="text/css">
	.st0{fill-rule:evenodd;clip-rule:evenodd;fill:#000000;}
</style>
<path class="st0" d="M207,187.5c17.2,1.8,34.4,3.6,55.5,2.4c57.2-3.2,91.9-32.6,89.5-76.6c-2.5-44.7-48.6-72.3-94.8-69.7
	C182,47.8,126.6,114,120.4,189.5c10.2-2.4,21-3.8,31.1-4.4C172.6,183.9,189.8,185.7,207,187.5z M59.6,285.3
	c2.4,41,46.1,66.3,89.8,63.9c71.3-3.8,123.7-64.5,129.6-133.7c-9.7,2.2-19.9,3.5-29.5,4c-20,1.1-36.3-0.6-52.6-2.2
	c-16.3-1.6-32.6-3.3-52.6-2.2C90.1,218.1,57.2,245,59.6,285.3z"/>
</svg>
