<?xml version="1.0" encoding="iso-8859-1"?>
<!-- Generator: Adobe Illustrator 25.4.1, SVG Export Plug-In . SVG Version: 6.00 Build 0)  -->
<svg version="1.1" id="&#xB808;&#xC774;&#xC5B4;_1" xmlns="http://www.w3.org/2000/svg" xmlns:xlink="http://www.w3.org/1999/xlink"
	 x="0px" y="0px" viewBox="0 0 1000 1000" style="enable-background:new 0 0 1000 1000;" xml:space="preserve">
<g id="cBSM5H.tif">
	<g>
		<path d="M664.739,817.431c46.062-24.386,85.741-56.748,119.921-95.98c36.936-36.566,71.442-75.15,102.506-116.977
			c19.655-26.465,37.627-53.881,55.225-81.664c4.307-6.8,7.594-17.874,20.141-12.299c0.865,7.975,0.376,15.966,0.344,23.946
			c-18.32,42.819-47.478,78.304-75.934,114.528c-42.979,54.713-91.957,104.147-145.577,147.25
			c-50.527,40.617-104.004,78.745-163.257,107.436c-35.85,17.359-73.533,31.221-106.913,53.546c-3.079,0-6.158,0-9.237,0
			c-7.295-5.478-16.433,0.247-23.942-3.937c-1.396-0.052-2.68-0.458-3.851-1.219c-11.84-10.992,0.286-14.772,6.585-16.876
			c21.106-7.048,41.134-16.68,61.309-25.635C559.209,884.185,614.999,856.047,664.739,817.431z"/>
		<path d="M471.196,957.218c1.39-14.285,13.846-18.206,23.726-22.147c61.092-24.369,118.385-55.173,172.647-92.573
			c43.946-30.29,86.83-61.724,124.476-99.397c35.303-35.329,72.643-69.169,99.546-112.006c5.363-8.54,13.181-15.078,19.913-21.501
			c21.94-20.929,25.236-53.891,49.414-72.72c1.516-2.118,3.001-2.199,4.453,0.065c0,4.618,0,9.237,0,13.855
			c-10.235,13.959-5.569,32.179-13.392,46.828c-8.113-0.739-9.887,6.297-13.003,11.132c-21.731,33.72-49.125,63.045-75.007,93.285
			c-32.38,37.831-69.156,71.802-108.336,102.842c-12.068,9.561-23.245,20.063-34.355,30.689
			c-44.653,28.104-88.808,56.923-134.494,83.46c-26.794,15.564-55.309,25.931-83.259,38.189
			C492.748,957.218,481.972,957.218,471.196,957.218z"/>
		<path d="M503.525,957.218c6.389-13.729,21.416-14.45,32.547-19.549c55.142-25.259,106.698-56.187,155.573-91.903
			c8.617-6.297,17.99-11.698,28.947-13.246c16.598-11.198,30.601-25.492,45.758-38.408c6.917-5.894,12.965-13.872,23.851-8.513
			c2.635,11.788-4.996,19.1-12.562,25.264c-69.919,56.959-143.981,107.426-227.343,143.056c-6.101,2.537-13.345-1.512-19.059,3.299
			C521.999,957.218,512.762,957.218,503.525,957.218z"/>
		<path d="M961.682,453.351c1.324-0.616,2.554-0.464,3.688,0.456c0,3.079,0,6.158,0,9.237c-4.754,5.673-0.894,12.779-3.133,18.877
			c-8.179,29.386-27.945,52.561-44.095,77.134c-23.847,36.282-49.089,72.009-78.648,104.162c-6.202,6.747-11.653,17.155-24.2,11.81
			c7.072-13.73,14.144-27.461,21.216-41.191c8.679-16.344,19.759-30.951,31.89-44.869c31.064-35.639,51.126-78.315,75.476-118.256
			C948.206,463.606,948.996,452.152,961.682,453.351z"/>
		<path d="M960.382,481.723c1.354-6.309-2.318-13.96,4.988-18.679c0,24.632,0,49.263,0,73.895l-2.229,0.052
			c0,0-2.227-0.116-2.225-0.116c-0.178-9.169-0.357-18.337-0.537-27.505C953.418,500.153,959.135,490.938,960.382,481.723z"/>
		<path d="M531.236,957.218c4.8-6.916,12.488-3.722,18.794-5.368c4.941-2.286,9.794-3.598,14.086,1.277
			c-0.536,1.317-0.72,2.68-0.55,4.092C552.788,957.218,542.012,957.218,531.236,957.218z"/>
		<path d="M438.017,953.281c8.277-0.491,16.923-3.222,23.942,3.937c-7.697,0-15.395,0-23.092,0
			C438.676,955.886,438.393,954.573,438.017,953.281z"/>
		<path d="M595.86,148.226c-152.618-46.843-325.977,26.568-409.606,172.151c-35.2,61.277-48.321,127.063-47.074,196.672
			c2.516,24.564-2.937,33.08-25.533,30.394c-23.721-2.82-48.849,2.055-71.122-10.613C29.701,363.933,94.297,224.727,232.272,122.713
			C344.8,39.514,472.156,12.745,609.987,46.97c9.39,11.311,3.568,23.605,1.583,35.234
			C607.762,104.511,610.279,128.429,595.86,148.226z"/>
		<path d="M403.713,373.737c-33.494,12.415-36.075,28.618-10.328,64.833c2.258,12.226-7.423,16.03-15.252,19.995
			c-43.766,22.17-87.545,44.302-135.448,56.771c-28.328,7.374-32.526,4.712-32.311-24.162c0.051-6.841-1.158-13.836,1.668-20.47
			c3.595-84.77,43.711-151.287,107.252-203.497c62.027-50.966,134.683-72.096,215.179-62.894c8.314,0.95,16.435,3.593,24.645,5.45
			c9.494,2.262,15.944,7.252,11.139,17.669c-25.226,54.686-54.725,106.458-102.367,145.419
			C446.491,373.51,425.077,371.821,403.713,373.737z"/>
		<path d="M785.035,435.297c6.394,3.099,3.772,8.701,3.77,13.575c-16.181,8.045-22.75,24.718-32.371,38.076
			c-54.958,76.301-120.556,141.185-198.328,194.32c-50.536,34.526-106.221,58.614-160.784,85.152
			c-10.144-2.164-19.257-6.602-27.686-12.549c-5.714-12.619,5.283-14.258,12.175-16.608c62.056-21.167,117.44-54.853,172.25-89.893
			c12.891-8.241,22.054-21.471,37.073-26.544c18.827-1.286,32.351-9.566,37.718-28.602c9.972-18.34,30.61-26.818,41.161-44.609
			c1.232-1.725,2.658-3.288,4.158-4.778c6.285-5.5,12.162-11.391,17.01-18.258c18.097-24.227,36.39-48.286,54.144-72.758
			c5.133-7.076,10.072-15.354,19.328-18.608C771.463,433.832,778.6,431.139,785.035,435.297z"/>
		<path d="M397.321,766.421c14.002-19.932,37.645-24.166,57.545-33.461c67.685-31.614,127.732-73.577,183.95-122.61
			c48.891-42.642,87.065-93.888,126.76-144.154c4.134-5.235,6.097-12.131,9.544-17.975c4.73-8.019,9.377-5.043,13.685,0.653
			c5.638,23.384,7.833,46.84,1.472,70.476c-5.392-4.034-5.786-10.009-6.263-15.949c0.387-9.067-1.19-18.418,2.985-27.285
			c-37.592,59.482-86.438,109.644-137.26,157.127c-50.948,47.6-109.909,85.239-172.717,116.205
			c-16.354,8.063-32.213,16.992-47.538,26.872C418.764,773.02,408.043,769.72,397.321,766.421z"/>
		<path d="M429.485,776.319c-2.083-4.445-3.576-9.095,2.415-11.487c31.124-12.426,59.346-30.275,88.593-46.305
			c59.168-32.429,109.841-74.962,158.07-121.833c30.868-29.999,55.797-64.618,85.195-95.492c8.829-9.273,9.477-24.666,25.717-31.152
			c0,10.989,0,20.55,0,30.111c-18.871,38.39-49.256,68.012-77.569,98.784c-57.962,62.996-127.221,111.961-200.893,154.924
			c-18.574,10.832-38.672,18.29-58.269,26.867C444.484,781.93,436.914,779.495,429.485,776.319z"/>
		<path d="M452.744,780.735c0.678-7.651,6.982-9.471,12.541-11.873c74.435-32.149,138.8-79.319,199.68-132.115
			c46.949-40.716,83.962-90.204,124.513-136.59c0.263,6.396,0.529,12.79,0.797,19.187c0.477,1.346,0.303,2.599-0.519,3.761
			c-80.852,108.13-178.875,195.86-301.755,254.09c-0.246,0.117-0.158,1.483,0.147,2.072c0.327,0.631,1.095,1.033,1.751,1.602
			c1.02,1.658,0.965,3.18-0.235,4.622C476.975,786.875,464.698,785.058,452.744,780.735z"/>
		<path d="M591.133,620.827c-28.537,36.722-71.496,53.038-109.065,76.95c-31.091,19.788-65.319,32.819-99.799,45.221
			c-5.581,2.007-12.555,2.452-12.634,10.875c-8.169-3.824-17.275-6.094-23.039-13.902c-1.152-9.693,6.849-11.118,12.912-13.258
			c64.9-22.903,125.118-54.795,181.579-93.955c7.01-4.862,14.783-8.149,22.33-11.929
			C572.656,620.828,581.895,620.827,591.133,620.827z"/>
		<path d="M212.041,470.704c1.917,41.71,2.669,44.419,42.731,33.303c49.528-13.743,97.347-33.19,138.613-65.436
			c4.673,4.486,9.346,8.974,14.019,13.462c2.913,8.87-4.138,12.815-9.349,16.453c-51.579,36.011-107.928,60.932-170.156,71.792
			c-5.438,0.949-10.739,0.745-15.081-3.415C208.23,514.861,205.757,492.834,212.041,470.704z"/>
		<path d="M568.542,777.267c-8.286,6.172-18.098,3.634-27.265,4.778c-9.957,1.364-24.28,7.893-27.914-3.421
			c-3.072-9.565,12.671-12.369,20.575-17.848c18.108-12.552,38.982-20.913,55.05-36.483c26.848-7.927,45.734-28.8,65.055-46.127
			c37.398-33.538,78.986-63.443,107.131-106.674c7.519-11.549,11.748-10.728,19.997-1.275c-1.064,11.326-3.316,22.304-9.431,32.149
			c-10.522,1.027-15.254,10.005-21.035,16.598c-51.59,58.838-112.588,106.169-178.451,147.711
			C568.782,768.866,560.086,770.4,568.542,777.267z"/>
		<path d="M762.844,621.381c-30.4,64.541-79.448,109.943-143.508,140.01c-13.321,6.253-27.174,10.345-41.82,11.745
			c-3.675-10.851,6.305-13.017,11.794-16.832c43.993-30.58,86.643-62.734,125.981-99.282c11.881-11.039,21.078-24.271,32.817-35.241
			C755.24,615.116,755.382,615.269,762.844,621.381z"/>
		<path d="M42.525,536.829c22.14,0.505,44.217-0.542,66.276,4.305c18.059,3.969,32.418-0.727,30.378-24.078
			c2.918,18.912,5.835,37.831,8.753,56.751c1.786,2.62,1.425,4.9-1.07,6.853c-33.912,6.23-67.804,11.992-100.024-6.8
			C42.164,561.894,41.285,549.485,42.525,536.829z"/>
		<path d="M212.818,536.863c72.11-11.649,138.236-37.023,194.585-84.828c5.691,2.349,10.065,6.124,12.728,11.753
			c6.103,14.98-7.846,18.738-15.308,23.602c-48.25,31.452-99.902,55.311-157.148,65.454c-11.357-2.175-24.669,6.308-34.103-6.271
			C213.321,543.337,213.07,540.1,212.818,536.863z"/>
		<path d="M489.664,781.72c-4.508,0-9.016,0-13.524,0c34.36-19.501,67.409-39.891,100.056-60.939
			C653.54,670.915,717.24,606.433,774.298,534.96c4.386-5.494,7.177-11.921,15.458-11.853c-0.264,3.151-0.529,6.303-0.793,9.454
			c-2.016,3.75-1.308,8.31-3.556,12.002c-36.172,41.978-71.114,84.685-114.609,120.216c-25.677,20.975-50.249,42.875-79.097,59.453
			c-28.548,25.327-64.279,39.037-95.971,59.278C493.89,784.684,491.388,783.389,489.664,781.72z"/>
		<path d="M785.035,435.297c-7.632,0.192-15.264,0.384-22.896,0.577c-5.843,4.801-12.818,5.402-19.939,5.454
			c-13.185-1.658-20.929,5.485-28.038,15.637c-22.354,31.919-47.142,61.873-75.415,88.798c-5.98,5.695-10.882,13.013-19.909,14.618
			c-5.875-3.482-10.668-8.03-13.914-14.105c20.521-21.505,40.217-43.769,60.392-65.59c8.38-9.063,15.858-18.686,22.259-29.17
			c2.47-4.045,4.666-8.474-2.719-10.096c-5.315-0.432-10.573-0.056-15.842-0.046c-5.731-0.045-11.447,0.131-17.167,0.039
			c-4.731,0.034-9.456,0.13-14.185,0.062c-4.799-0.075-9.595,0.014-14.394,0.034c-4.865-0.064-9.726,0.103-14.591,0.088
			c-8.627-0.201-17.253,0.273-25.879,0.005c-4.986,0.022-9.97,0.158-14.955-0.003c-7.55-0.162-15.098,0.363-22.648,0.035
			c-6.402,0.041-12.8,0.374-19.206,0.196c-10.339-0.604-21.246,1.224-29.868-6.839c2.004-0.95,4.007-2.728,6.012-2.73
			c91.513-0.125,183.026-0.122,274.539,0.049C779.46,432.314,782.247,434.257,785.035,435.297z"/>
		<path d="M563.417,620.828c-34.372,30.74-74.398,52.475-114.847,73.948c-33.013,17.525-69.008,27.854-101.974,45.194
			c-7.622-2.802-14.228-7.1-19.554-13.283c4.831-6.948,12.907-7.806,19.948-10.534c58.718-22.755,117.921-44.543,168.178-84.177
			c7.479-5.898,17.033-6.837,25.15-11.143C548.018,620.832,555.718,620.83,563.417,620.828z"/>
		<path d="M540.319,620.834c-63.259,51.062-135.379,84.273-213.274,105.853c-5.707-1.275-10.314-3.976-12.588-9.703
			c4.83-8.116,13.51-9.862,21.437-12.343c62.843-19.67,119.741-51.814,176.719-83.812
			C521.848,620.83,531.083,620.832,540.319,620.834z"/>
		<path d="M960.382,481.723c0.001,9.214,0.003,18.429,0.001,27.645c-18.357,17.349-27.272,41.089-41.287,61.401
			c-35.927,52.072-77.324,99.468-119.963,145.947c-4.414,4.812-9.135,4.765-14.473,4.735c10.217-15.476,20.434-30.953,30.643-46.427
			c30.452-14.892,44.95-45.199,63.892-70.11C908.894,565.855,933.575,522.981,960.382,481.723z"/>
		<path d="M664.739,817.431c-1.439,7.368-6.932,12.2-12.32,15.979c-46.626,32.699-96.754,59.221-148.795,82.097
			c-21.526,9.463-43.657,17.563-65.605,26.042c-5.774,2.231-6.401,5.605-3.853,10.513c-8.284,1.156-15.631-2.262-23.168-4.751
			c-3.843-2.755-14.925-2.148-5.725-11.109c4.378-4.264,10.752-6.421,16.426-7.783c38.996-9.358,72.904-31.09,110.098-44.53
			c28.408-10.265,51.428-29.328,77.802-42.715C627.98,833.26,646.36,825.345,664.739,817.431z"/>
		<path d="M683.15,182.91c-9.156-4.984-18.312-9.968-27.469-14.953c-5.594-7.879-3.058-16.466-0.786-24.223
			c7.458-25.467,2.582-53.23,14.817-77.718c11.465,2.99,22.494,7.016,32.413,13.671C708.097,116.355,704.395,151.245,683.15,182.91z
			"/>
		<path d="M817.55,159.434c9.019,5.533,16.347,12.726,21.573,21.981c-19.498,62.731-37.481,126.007-66.458,185.311
			c0.003,2.09-0.469,4.082-1.335,5.981c-4.908,0.049-9.817,0.097-14.725,0.146c-3.641-0.008-7.38,0.309-10.005-3.045
			c-1.578-24.378,14.692-42.631,23.021-63.351c17.119-42.587,32.135-85.547,40.874-130.628
			C811.653,169.85,812.41,163.699,817.55,159.434z"/>
		<path d="M817.55,159.434c-3.873,47.488-18.569,91.996-37.197,135.438c-10.772,25.121-21.408,50.299-32.105,75.452
			c-5.002,4.521-10.991,1.995-16.577,2.326c-8.164-7.317-1.581-14.26,1.435-20.308c11.533-23.126,22.142-46.675,33.138-70.046
			l-0.273,0.334c10.595-31.638,20.446-63.476,28.101-95.994c2.901-12.323,2.838-26.262,14.879-34.818
			C811.818,154.355,814.684,156.895,817.55,159.434z"/>
		<path d="M512.613,620.828c-18.504,25.877-49.465,32.837-74.977,47.409c-38.379,21.922-80.398,36.815-123.179,48.747
			c-6.337-3.006-11.248-7.579-14.891-13.546c3.95-5.446,10.264-6.237,16.026-7.938c52.886-15.605,103.223-37.128,150.731-65.127
			c7.353-4.334,15.848-5.44,23.19-9.539C497.213,620.832,504.913,620.83,512.613,620.828z"/>
		<path d="M609.6,841.174c-15.142,17.484-33.789,30.809-54.898,39.173c-47.712,18.905-92.486,45.208-142.584,57.871
			c-13.462,3.403-1.547,6.068-1.12,9.093c-8.189,0.918-15.657-1.724-23.062-4.673c-10.509-9.05-0.921-12.798,4.993-15.856
			c14.16-7.322,29.309-12.454,44.503-17.248c47.258-14.911,90.805-38.134,134.977-59.967
			C584.353,844.763,596.715,841.81,609.6,841.174z"/>
		<path d="M572.409,849.567c-1.056,5.727-4.5,10.558-9.385,12.479c-42.698,16.791-81.664,42.183-126.607,53.964
			c-15.76,4.131-30.502,12.053-45.876,17.796c-5.614,2.097-3.924,5.259-2.605,8.833c-10.649-3.144-21.297-6.288-31.946-9.431
			c-0.215-13.301,10.955-13.063,19.204-15.618c53.678-16.623,106.205-36.082,156.105-62.169
			C545.003,853.469,558.706,851.518,572.409,849.567z"/>
		<path d="M762.844,621.381c-5.283-6.322-7.369-0.494-9.911,2.729c-25.505,32.338-57.082,58.951-88.411,84.682
			c-20.585,16.907-43.602,32.381-66.564,47.025c-7.354,4.69-17.132,7.486-20.442,17.317c-1.687,4.214-5.227,4.4-8.975,4.133
			c-4.54,0.001-9.081,0.001-19.228,0.001c23.797-17.083,42.937-31.85,63.086-45.081c47.907-31.459,90.85-68.445,128.61-111.552
			c7.036-8.032,14.86-15.419,22.722-22.666c6.034-5.562,7.227-0.548,8.009,4.397C768.775,608.704,765.81,615.043,762.844,621.381z"
			/>
		<path d="M489.513,620.834c-37.179,29.773-80.93,47.07-124.56,64.095c-21.007,8.197-41.958,18.18-65.386,18.508
			c-3.092-3.07-6.181-6.141-9.271-9.212c3.628-6.554,10.111-9.743,16.583-11.43c54.27-14.146,103.287-41.312,154.921-61.96
			C471.038,620.835,480.276,620.834,489.513,620.834z"/>
		<path d="M669.712,66.016c0.552,34.7-6.176,68.398-14.029,101.941c-11.153-4.121-23.007-6.61-32.716-14.083
			c7.084-32.292,10.288-65.341,18.99-97.318C652.481,55.974,660.902,61.565,669.712,66.016z"/>
		<path d="M877.284,227.683c4.204,6.235,8.407,12.469,12.611,18.704c-6.91,31.595-18.153,61.776-29.978,91.765
			c-3.273,8.301-8.846,16.113-5.37,25.717c3.571,1.448,7.293,1.142,10.998,1.157c5.306-0.058,10.583-0.158,15.873,0.131
			c5.418,1.025,11.775,0.447,13.579,7.762c-19.984,2.387-39.965,2.222-59.946-0.043c-5.477-0.678-12.028,2.256-15.673-4.649
			c-2.678-8.091,0.549-15.22,4.058-22.065c16.227-31.652,26.981-65.349,37.826-99.056
			C863.904,238.898,864.989,228.376,877.284,227.683z"/>
		<path d="M739.037,435.872c7.701-0.002,15.403-0.005,23.103-0.003c-20.949,32.226-42.502,63.991-69.258,91.833
			c-5.444,6.872-13.933,10.699-18.474,18.475h0.001c-14.717,13.077-25.76,30.734-46.013,36.91c-0.746-1.259-0.883-2.582-0.411-3.968
			c-4.169-7.428-0.686-13.975,4.169-18.581c37.794-35.863,66.678-79.143,99.849-118.842
			C733.913,439.41,736.827,437.988,739.037,435.872z"/>
		<path d="M581.965,214.73c3.115,1.273,6.229,2.546,9.344,3.818c11.833,7.57,7.176,18.883,2.925,26.492
			c-25.16,45.031-46.465,92.873-87.057,127.401c-6.894,0.737-13.791,0.67-20.689,0.066c-6.402-6.46-0.687-11.445,2.729-15.687
			c32.893-40.849,63.876-82.869,83.878-131.894C574.912,220.471,578.419,217.615,581.965,214.73z"/>
		<path d="M771.388,371.097c-11.687-2.334-4.934-9.133-2.577-13.442c27.737-50.709,43.2-105.818,58.436-161.037
			c1.806-6.544,3.43-13.656,11.877-15.203c2.302,2.586,4.605,5.171,6.908,7.756c3.665,13.419-1.635,26.171-5.489,37.997
			c-14.171,43.489-27.238,87.518-48.255,128.439C788.082,363.798,785.359,375.447,771.388,371.097z"/>
		<path d="M961.682,453.351c-20.127,27.606-33.429,59.27-51.841,87.814c-21.397,33.171-45.185,64.712-73.331,92.669
			c4.624-13.818,9.247-27.635,13.871-41.452c38.031-47.539,67.314-100.568,96.442-153.702c4.502-1.06,8.986-1.957,13.066,1.271
			C960.487,444.418,961.084,448.885,961.682,453.351z"/>
		<path d="M249.532,550.743c42.371-15.648,85.767-28.848,125.375-51.172c16.877-9.512,34.906-17.858,45.225-35.783
			c7.46,3.579,11.388,10.391,15.549,16.99c-2.278,7.82-7.518,13.428-14.456,16.969c-38.575,19.689-75.812,42.249-117.54,55.311
			C285.638,551.661,267.388,555.816,249.532,550.743z"/>
		<path d="M877.284,227.683c-13.352,13.407-12.123,32.57-18.943,48.628c-13.117,30.885-24.219,62.626-36.157,94.012
			c-5.651,4.43-11.908,2.43-18.042,1.705c-6.922-7.961-3.164-16.545,0.381-23.646c20.232-40.532,34.912-83.012,46.574-126.662
			c1.359-5.086,3.353-10.249,8.263-13.365C868.104,212.231,872.834,219.828,877.284,227.683z"/>
		<path d="M166.579,813.655c-6.91-4.13-10.439-11.023-14.369-17.588c-1.19-7.464,4.615-9.159,9.553-10.272
			c36.367-8.192,73.016-14.309,110.51-13.16c7.397,6.134,14.794,12.268,22.191,18.401c-2.626,5.217-7.247,8.079-12.651,8.75
			C243.418,804.552,205.891,816.578,166.579,813.655z"/>
		<path d="M739.037,435.872c-27.418,45.066-60.772,85.394-97.836,122.781c-5.802,5.852-13.158,10.839-13.216,20.464
			c-3.05-6.244-6.099-12.49-9.149-18.737c34.305-38.665,71.888-74.576,99.313-119.017
			C723.009,433.488,731.445,435.376,739.037,435.872z"/>
		<path d="M591.275,721.68c64.517-44.426,123.448-94.792,170.419-158.211c6.249-8.438,15.515-14.642,23.383-21.881
			c3.483,4.684,3.101,9.465,0.36,14.306c0.133,5.237-0.104,10.363-4.268,14.32c-7.733-9.853-12.812-1.278-15.762,3.637
			c-20.822,34.698-52.058,59.258-81.735,85.325c-21.611,18.982-43.66,37.465-65.416,56.284c-7.806,6.753-16.304,11.409-26.98,10.837
			c-1.321-1.026-1.76-2.052-1.322-3.078C590.394,722.194,590.833,721.68,591.275,721.68z"/>
		<path d="M166.579,813.655c23.49-11.742,50.071-5.373,74.53-12.938c17.143-5.302,35.526-6.597,53.354-9.68
			c5.999,6.27,16.611,4.889,21.516,12.973c-9.231,11.5-23.322,9.954-35.604,13.276c-31.137,8.421-62.861,12.893-95.06,14.192
			C177.909,826.757,170.941,821.576,166.579,813.655z"/>
		<path d="M803.738,370.302c6.149,0.009,12.298,0.019,18.446,0.025c4.293,0.851,8.585,1.706,12.872,2.555
			c-21.252,2.329-42.492,2.471-63.727-0.169c0-0.006,0.059-1.625,0.058-1.62c23.698-16.827,27.561-44.732,36.86-68.985
			c14.198-37.028,25.341-75.228,37.782-112.934c4.016,2.609,7.409,5.647,7.51,10.943c-1.574,42.098-19.997,79.279-33.647,117.966
			C813.859,335.186,797.384,349.35,803.738,370.302z"/>
		<path d="M581.965,214.73c-19.27,60.042-58.891,107.425-96.911,155.804c-4.608,3.345-9.228,3.294-13.859,0.048
			c0.783-7.907,3.6-15.376,9.694-20.168c41.294-32.476,59.893-80.376,85.045-123.848c5.195-8.978-2.584-12.011-6.816-16.804
			C567.324,208.701,574.668,211.609,581.965,214.73z"/>
		<path d="M461.8,620.835c-20.023,21.039-48.708,26.581-73.308,38.795c-30.851,15.318-65.298,23.393-98.194,34.595
			c-2.979-3.093-5.956-6.186-8.933-9.279c10.329-19.625,32.068-16.202,48.411-22.227c33.931-12.509,67.175-26.241,99.706-41.891
			C440.254,620.83,451.027,620.833,461.8,620.835z"/>
		<path d="M485.044,855.749c9.22,0.065,18.441,0.131,27.661,0.196c1.611,11.849-8.501,13.15-15.534,16.406
			c-42.837,19.83-87.579,34.492-132.771,47.814c-6.602,1.946-13.446,2.853-17.97,8.806c-8.641-0.465-16.147-3.818-22.932-9.007
			c-1.027-13.002,9.696-14.652,17.931-16.858C390.212,890.035,436.735,870.192,485.044,855.749z"/>
		<path d="M415.867,846.152c8.248-1.043,15.846,0.883,22.958,5.028c1.292,11.938-8.337,12.64-15.916,15.625
			c-42.745,16.836-88.098,24.816-131.664,38.853c-8.964-2.227-16.687-6.643-23.216-13.164c0.275-11.907,10.712-12.694,17.88-13.551
			C330.696,873.587,371.762,853.87,415.867,846.152z"/>
		<path d="M637.416,236.897c4.755,2.714,9.51,5.428,14.265,8.142c6.306,8.338,1.888,15.886-1.629,23.587
			c-16.546,36.231-36.531,70.493-58.957,103.369c-7.026,1.606-14.12,0.884-21.201,0.593c-6.85-5.432-2.661-11.437,0.097-16.28
			C592.606,316.582,617.319,278.046,637.416,236.897z"/>
		<path d="M346.429,928.971c-4.676-9.418,0.633-11.473,8.697-13.369c53.12-12.489,104.128-31.1,153.475-54.294
			c1.809-0.85,2.755-3.534,4.103-5.363c6.198-0.174,12.396-0.349,18.595-0.524c-19.156,26.584-51.695,27.813-78.009,40.711
			c-27.465,13.463-56.67,22.741-86.708,29.016c-4.872,1.018-8.203,3.874-10.592,8.06
			C352.804,931.795,349.616,930.383,346.429,928.971z"/>
		<path d="M272.272,772.636c-33.988,13.177-71.125,8.05-105.698,18.1c-4.992,1.451-10.842,0.01-14.364,5.331
			c-8.148-6.309-15.517-13.237-18.689-23.503c11.429-7.951,24.829-6.332,37.453-6.792c28.048-1.023,55.461-8.16,83.582-7.934
			C260.462,762.77,266.367,767.703,272.272,772.636z"/>
		<path d="M429.482,620.827c-23.404,25.104-56.593,30.761-86.39,42.915c-20.112,8.204-41.119,14.212-61.726,21.203
			c-6.069-2.915-9.455-8.071-11.79-14.106c7.354-9.554,18.909-9.571,29.049-12.279c36.882-9.849,71.439-26.232,107.716-37.734
			C414.054,620.827,421.768,620.827,429.482,620.827z"/>
		<path d="M641.956,56.556c6.562,23.197-2.959,44.766-8.087,66.397c-2.439,10.288,7.271,26.028-10.902,30.921
			c-4.91-0.241-9.709-0.805-13.397-4.602c-7.105-23.008,4.54-44.853,4.602-67.583c0.029-10.609-3.484-23.107,4.769-33.054
			C626.614,51.275,634.285,53.916,641.956,56.556z"/>
		<path d="M894.997,372.92c-4.266-0.85-8.531-1.701-12.797-2.551c-6.085-7.272-2.371-14.421,0.223-21.62
			c4.942-13.718,10.659-27.136,15.64-40.849c3.098-8.528,6.852-18.578,19.662-11.068c5.295,8.595,9.812,17.466,9.939,27.902
			c-2.869,4.256,0.583,9.538-1.426,13.363c-9.691,18.449-3.948,28.847,15.896,32.645
			C926.716,377.829,910.785,373.828,894.997,372.92z"/>
		<path d="M669.564,435.857c6.165-0.004,12.331-0.009,18.496-0.013c2.609,7.815-2.279,13.422-6.292,18.761
			c-20.796,27.668-44.143,53.154-68.148,78.033c-4.856,5.033-10.353,9.764-18.021,4.423c-4.745-1.386-7.701-4.64-9.494-9.104
			C613.678,497.033,635.315,460.731,669.564,435.857z"/>
		<path d="M485.044,855.749c-41.367,25.54-88.737,35.207-133.925,50.644c-9.789,3.344-21.573,2.62-27.623,13.571
			c-8.375-1.397-16.328-3.83-23.011-9.379c-0.028-9.51,7.988-10.977,14.145-12.173c48.882-9.496,94.686-29.292,142.573-42.046
			C466.429,853.716,475.717,853.846,485.044,855.749z"/>
		<path d="M595.6,537.062c27.051-12.809,40.484-39.735,60.864-59.454c12.399-11.997,21.191-27.721,31.6-41.766
			c5.939,0.578,18.066-2.092,10.041,9.451c-26.326,37.866-53.695,75.119-93.183,100.984
			C601.815,543.204,598.707,540.133,595.6,537.062z"/>
		<path d="M637.416,236.897c-3.021,31.408-23.513,54.783-37.65,81.002c-9.671,17.937-20.995,34.983-31.58,52.427
			c-5.224,4.495-11.327,2.092-17.109,2.182c-9.568-17.32,10.419-23.059,13.777-35.324c19.497-27.276,38.747-54.697,49.805-86.821
			c2.557-7.428,6.555-13.734,13.527-17.793C631.978,232.483,635.267,233.474,637.416,236.897z"/>
		<path d="M309.555,550.672c6.414-15.789,23.597-15.145,35.501-20.655c31.371-14.52,61.462-30.891,90.624-49.238
			c1.3,1.119,2.598,2.239,3.897,3.359c5.502,15.67-9.617,19.276-16.234,27.877c-27.031,14.418-51.566,33.956-82.437,40.63
			c-4.674,0.6-9.366,0.323-14.056,0.385C321.071,552.319,314.854,554.85,309.555,550.672z"/>
		<path d="M665.031,255.789c6.529-0.135,10.379,4.069,14.003,8.642c6.983,12.509-4.696,19.557-8.578,28.809
			c-8.304,19.789-20.984,37.36-29.352,57.142c-4.368,10.325-11.029,18.387-22.22,21.797c-4.616,0.915-9.217,1.218-13.768-0.358
			c-4.903-5.911-2.095-11.596,0.887-16.941c16.331-29.274,35.667-56.915,47.634-88.562
			C655.559,261.236,659.476,257.397,665.031,255.789z"/>
		<path d="M808.952,151.816c-9.799,39.433-18.114,79.256-32.64,117.415c-2.284,6-3.63,11.391-10.335,13.398
			c0.069-10.31,0.144-20.62,0.218-30.929c4.791-38.614,10.166-77.08,28.401-112.294C799.381,143.543,804.167,147.68,808.952,151.816
			z"/>
		<path d="M946.897,440.082c-4.737,23.339-18.056,42.764-29.396,62.959c-15.967,28.436-34.446,55.3-54.202,81.282
			c-3.47,4.563-7.072,7.827-12.919,8.059c-0.841-6.671,1.125-12.708,4.186-18.497c26.934-45.491,53.76-91.048,82.82-135.248
			C940.778,437.668,944.08,437.289,946.897,440.082z"/>
		<path d="M665.031,255.789c-15.404,40.556-40.757,75.906-59.91,114.5c-4.622,3.692-9.241,3.702-13.858-0.01
			c1.328-24.52,22.595-38.663,31.083-59.718c8.926-22.142,24.919-41.234,29.334-65.522
			C659.128,244.9,659.557,253.477,665.031,255.789z"/>
		<path d="M249.922,882.064c-4.244-1.043-8.096-2.677-10.287-6.818c-1.82-5.917,2.102-9.231,6.478-10.158
			c42.474-9.002,84.001-22.006,126.73-29.892c2.422-0.447,4.451,0.622,6.451,1.76c5.281,0.019,10.684-0.424,14.817,3.925
			c-3.119,14.55-16.62,14.799-26.785,17.827C328.973,870.134,291.056,884.419,249.922,882.064z"/>
		<path d="M457.203,856.366c-16.49,12.304-36.436,16.536-55.326,22.836c-33.554,11.191-67.57,20.998-101.392,31.383
			c-3.08-1.642-6.16-3.284-9.241-4.926c9.644-12.842,24.355-14.947,38.522-17.597c35.393-6.62,68.706-20.248,103.106-30.194
			c2.426-0.701,3.988-4.39,5.952-6.689C444.951,852.909,451.077,854.637,457.203,856.366z"/>
		<path d="M171.436,642.367c5.177,5.048,8.104,11.251,9.397,18.294c1.81,7.584-4.015,10.017-8.973,10.387
			c-28.109,2.099-56.105,6.328-84.395,5.316c-4.65-0.166-8.661-2.788-12.404-5.52c-4.351-5.315-5.682-11.674-6.317-18.274
			c8.546-8.729,19.666-6.458,30.09-6.94C123.033,644.512,147.446,648.188,171.436,642.367z"/>
		<path d="M917.724,296.832c-4.579,0.219-9.771-0.222-11.693,5.187c-8.079,22.737-15.91,45.563-23.832,68.353
			c-6.136-0.012-12.272-0.021-18.407-0.03c-2.056-2.357-4.059-5.251-3.178-8.188c8.682-28.954,19.832-57.032,31.329-84.944
			c2.006-4.871,7.189-8.092,13.065-3.415C912.347,279.764,913.992,288.874,917.724,296.832z"/>
		<path d="M937.662,440.077c-17.419,36.097-34.657,72.184-61.114,103.074c-8.093,9.449-8.494,24.794-21.982,30.735
			c-1.267-9.85,3.023-18.651,5.257-27.841c17.955-38.091,40.521-73.411,64.751-107.74
			C929.086,437.809,933.691,436.609,937.662,440.077z"/>
		<path d="M114.166,745.294c-2.879-4.71-5.758-9.42-8.638-14.131c7.788-8.276,18.253-6.851,27.859-6.869
			c28.207-0.052,56.039-3.677,83.887-7.416c6.183,5.096,12.78,9.857,14.814,18.309c-10.53,15.064-27.458,11.298-41.812,12.928
			C164.952,750.993,139.096,757.099,114.166,745.294z"/>
		<path d="M254.556,757.838c-29.223,14.043-61.187,11.124-92.085,14.18c-9.384,0.928-19.268,5.145-28.949,0.546
			c-5.573-2.83-8.65-7.635-10.574-13.353c40.333-9.269,80.905-15.623,122.455-10.021
			C248.455,752.073,251.506,754.955,254.556,757.838z"/>
		<path d="M591.263,370.279c4.619,0.006,9.239,0.011,13.858,0.014c4.669,0.004,9.339,0.012,14.008,0.02
			c5.08-3.334,10.928-4.149,16.728-5.136c3.467-0.454,6.952-0.469,10.435-0.409c4.542-0.009,9.091,0.057,13.635,0.071
			c3.324-0.098,6.651-0.06,9.969-0.002c4.256-0.018,8.52,0.065,12.766,0.094c13.704,3.252,21.199-7.627,30.837-13.612
			c10.403,2.075,9.543,13.908,16.454,19.021c6.099-0.003,12.197-0.007,18.295-0.014c2.788,0.844,5.578,1.69,8.361,2.532
			c-59.2,0.544-118.393,1.402-177.588,1.555c-58.453,0.15-116.907-0.414-175.335-0.67c22.29-5.982,45.1-0.278,67.508-3.161
			c4.619-0.016,9.239-0.031,13.858-0.047c7.699-0.025,15.398-0.05,23.097-0.075c3.867-3.248,8.289-5.12,13.349-5.458
			c3.668-0.343,7.347-0.372,11.034-0.272c6.341,0.004,12.233,1.406,17.187,5.639c6.155-0.013,12.31-0.025,18.465-0.041
			C575.878,370.31,583.57,370.295,591.263,370.279z"/>
		<path d="M217.274,716.878c-16.007,17.26-38.301,9.111-57.423,13.225c-17.378,3.739-36.158,0.963-54.322,1.059
			c-4.499-3.687-8.042-7.956-8.578-14.06c24.203-12.108,51.077-5.662,76.349-10.84c11.142-2.283,23.014-0.358,34.447-2.252
			C210.922,708.3,214.098,712.589,217.274,716.878z"/>
		<path d="M215.558,856.393c-5.504-1.484-9.82-4.491-12.428-9.689c-0.615-8.767,6.274-9.717,12.013-10.389
			c33.951-3.974,67.308-10.832,100.319-19.56c9.02-2.385,17.963-2.613,26.539,1.858c7.189,0.947,13.258,4.09,18.268,9.312
			C313.288,843.797,265.92,857.706,215.558,856.393z"/>
		<path d="M522.099,370.443c-4.65,0.006-9.299,0.013-13.949,0.018c4.615-19.708,22.842-29.744,33.5-45.305
			c15.935-23.267,25.749-49.85,43.182-72.066c7.57-9.647,9.968-21.965,6.477-34.542c5.113-0.125,10.063,0.268,13.835,4.381
			c4.974,5.311,4.468,11.448,1.541,17.146c-22.106,43.021-44.047,86.166-75.326,123.598
			C528.857,366.667,525.252,368.276,522.099,370.443z"/>
		<path d="M245.404,749.19c-40.728,4.39-81.191,12.014-122.448,10.02c-5.117-3.261-7.305-8.367-8.787-13.918
			c39.541-0.579,79.148-0.446,117.917-10.104C236.527,739.855,240.965,744.523,245.404,749.19z"/>
		<path d="M249.922,882.064c37.516-6.533,74.419-15.665,111.062-25.955c11.888-3.338,23.186-7.74,33.124-15.224
			c7.389,1.2,13.569,7.382,21.759,5.268c-34.55,17.425-71.62,27.047-109.239,34.728c-13.282,2.712-27.251,2.649-38.6,11.613
			C261.992,889.017,255.957,885.541,249.922,882.064z"/>
		<path d="M803.738,370.302c-11.064-0.958-9.771-7.46-6.28-14.525c24.592-49.767,42.576-101.906,56.083-155.662
			c1.939,2.747,3.879,5.495,5.819,8.241c-7.88,39.817-20.014,78.304-36.858,115.224
			C815.519,338.887,806.918,353.488,803.738,370.302z"/>
		<path d="M522.099,370.443c27.364-40.019,53.699-80.65,75.489-124.079c3.784-7.541,8.294-14.56,7.555-23.435
			c1.602,0.36,3.203,0.72,4.805,1.08c14.261,12.334,6.071,25.112-0.96,36.026c-10.683,16.582-20.108,33.732-28.867,51.328
			c-16.154,19.765-26.406,44.421-48.764,59.067C528.27,370.434,525.185,370.439,522.099,370.443z"/>
		<path d="M207.747,704.011c-0.88,6.677-5.317,8.686-11.288,8.361c-33.333-1.812-66.115,7.901-99.508,4.731
			c-2.633-4.644-5.265-9.288-7.897-13.932c7.974-8.108,18.393-6.424,27.967-6.098c27.518,0.937,54.545-2.669,81.534-7.175
			C201.619,694.602,204.683,699.306,207.747,704.011z"/>
		<path d="M342.001,818.613c-46.29,9.363-92.58,18.727-138.871,28.091c-4.388-3.54-8.775-7.08-13.163-10.62
			c7.577-14.316,21.256-6.331,32.044-8.467c25.963-5.141,52.136-9.097,77.709-16.278c7.662-2.151,15.772-6.205,24.239-2.128
			C330.875,810.614,337.353,812.859,342.001,818.613z"/>
		<path d="M683.15,182.91c11.21-33.509,14.458-68.482,18.975-103.222c3.06,1.656,6.119,3.312,9.179,4.968
			c6.016,3.085,9.881,8.186,9.139,14.747c-3.351,29.622-8.818,58.861-18.038,87.285c-0.703,2.168-3.156,3.247-5.083,4.5
			C690.832,191.45,686.657,187.753,683.15,182.91z"/>
		<path d="M171.436,642.367c-4.506,10.679-13.832,10.085-23.083,10.07c-26.536-0.043-53.071,0.077-79.608,0.133
			c-5.889-6.656-8.344-14.494-8.023-23.288c2.197-1.356,4.495-1.558,6.895-0.643c31.67,6.814,63.491,4.274,95.314,1.497
			c1.147-0.294,2.296-0.577,3.445-0.86C170.723,632.612,170.738,637.621,171.436,642.367z"/>
		<path d="M577.419,310.633c2.002-18.754,13.099-33.8,23.615-47.688c9.666-12.766,12.417-24.457,8.914-38.936
			c7.554-0.288,12.831,4.275,18.237,8.561c-10.132,33.016-28.328,61.97-45.789,91.318c-3.624,6.091-7.743,11.336-14.211,14.461
			C561.703,325.925,574.716,319.996,577.419,310.633z"/>
		<path d="M637.562,370.299c-6.146,0.007-12.292,0.013-18.435,0.017c20.898-18.049,26.604-45.416,40.067-67.953
			c7.048-11.797,18.07-22.892,19.84-37.932c3.056,2.024,6.112,4.047,9.168,6.071c2.313,2.392,3.32,5.859,2.24,8.396
			C676.564,311.514,664.388,345.166,637.562,370.299z"/>
		<path d="M669.564,435.857c-27.785,30.731-48.946,67.464-83.458,92.1c-4.479-1.699-7.583-4.708-8.942-9.38
			c22.3-29.721,47.075-57.223,74.113-82.698C657.373,435.872,663.469,435.864,669.564,435.857z"/>
		<path d="M794.596,139.406c-8.681,37.628-13.367,76.266-28.399,112.291c-3.152-4.422-6.302-8.847-9.452-13.272
			c4.276-36.869,7.76-73.949,28.464-106.424C789.485,133.016,792.673,135.41,794.596,139.406z"/>
		<path d="M198.555,689.897c-14.071,17.188-34.644,9.911-52.105,12.642c-18.708,2.927-38.231,0.642-57.397,0.631
			c-3.128-4.093-5.796-8.366-5.411-13.833c1.172-0.978,2.295-2.509,3.63-2.692c35.83-4.9,71.784-4.52,107.773-2.294
			C196.215,686.201,197.385,688.049,198.555,689.897z"/>
		<path d="M715.974,352.208c-7.592,11.626-15.364,22.931-32.204,18.099c-2.486-4.561-1.399-9.264,0.795-13.2
			c11.082-19.882,20.51-40.614,31.477-60.547c6.125,1.853,12.25,3.706,18.376,5.559c7.348,7.786,3.677,15.782,0.51,23.777
			c-0.852,1.857-1.898,3.624-3.041,5.316c-5.117,6.019-8.255,13.429-13.366,19.482C717.68,351.208,716.827,351.708,715.974,352.208z
			"/>
		<path d="M618.942,48.635c3.975,34.207-0.522,67.624-9.37,100.637c-4.571-0.349-9.142-0.697-13.712-1.046
			c4.708-33.752,9.417-67.504,14.126-101.256C612.972,47.525,615.957,48.08,618.942,48.635z"/>
		<path d="M379.294,836.957c-42.178,12.906-84.673,24.566-128.161,32.241c-4.608,0.813-8.968,1.539-11.498,6.047
			c-5.847-1.638-10.407-4.908-13.207-10.411c-1.398-6.478,3.31-8.148,7.812-8.677c40.296-4.742,79.437-14.796,118.545-25.109
			c5.902-1.556,12.135-1.651,17.993,1.054C374.686,831.844,377.751,833.065,379.294,836.957z"/>
		<path d="M406.34,620.827c-41.839,26.927-89.111,38.995-136.767,50.013c-2.095-3.059-4.192-6.118-6.288-9.177
			c4.341-6.11,11.157-8.156,17.775-9.281c35.474-6.034,66.817-25.304,102.184-31.55C390.943,620.83,398.642,620.828,406.34,620.827z
			"/>
		<path d="M370.778,832.101c-48.117,10.911-96.233,21.822-144.35,32.733c-4.935-1.125-8.356-4.196-10.866-8.443
			c48.508-8.092,95.7-22.895,144.708-28.466C363.772,829.317,367.275,830.709,370.778,832.101z"/>
		<path d="M785.209,132.001c-11.527,34.927-13.846,72.316-28.463,106.42c-2.709-2.469-5.416-4.942-8.124-7.414
			c-6.308-6.843-3.394-14.356-1.585-21.79c5.081-20.883,10.407-41.701,13.957-62.938c1.479-8.844,2.152-18.904,14.513-20.221
			C778.741,128.039,781.975,130.02,785.209,132.001z"/>
		<path d="M729.954,370.34c-17.476,3.837-9.568-11.897-13.98-18.132c0,0,0.009-0.012,0.009-0.012
			c6.093-6.807,9.391-15.29,13.841-23.082l0.011-0.012c8.066-7.745,7.412-19.682,13.62-28.32
			c7.599-6.16,15.198-12.319,22.793-18.483C764.327,315.84,741.842,340.906,729.954,370.34z"/>
		<path d="M651.277,435.879c-20.084,31.707-45.23,58.877-74.113,82.698c-3.058-3.087-6.116-6.174-9.174-9.262
			c18.996-28.353,44.763-50.321,69.282-73.465C641.941,435.86,646.609,435.869,651.277,435.879z"/>
		<path d="M383.244,620.831c-37.801,20.031-77.656,34.027-119.959,40.831c-1.995-2.928-3.99-5.856-5.986-8.783
			c28.63-18.213,62.52-21.06,93.622-32.052C361.696,620.829,372.47,620.83,383.244,620.831z"/>
		<path d="M457.169,500.668c4.633,4.838,9.266,9.675,13.9,14.513c5.704,10.735-2.746,15.736-9.33,20.112
			c-9.518,6.326-18.444,13.879-29.572,17.566c-9.299,0.268-18.601,0.295-27.899-0.011c-8.088-10.157,2.147-14.436,7.105-19.097
			C425.148,520.799,441.615,511.313,457.169,500.668z"/>
		<path d="M775.507,126.057c-11.919,9.597-7.424,24.133-10.645,36.294c-6.019,22.725-10.891,45.755-16.239,68.657
			c-5.852-3.025-11.157-6.687-14.593-12.527c5.435-29.841,13.918-59.023,19.181-88.909c1.058-6.008,3.653-11.638,9.595-14.779
			C768.23,117.205,774.34,118.843,775.507,126.057z"/>
		<path d="M905.009,273.796c-5.067,0.314-8.579,2.878-10.237,7.615c-10.367,29.632-20.662,59.289-30.98,88.934
			c-4.625-0.01-9.25-0.016-13.875-0.022c0.666-27.142,17.257-49.029,25.154-73.823c4.426-13.899,0.936-33.302,19.66-40.818
			C899.017,261.232,904.789,265.939,905.009,273.796z"/>
		<path d="M46.839,573.861c33.22,7.717,66.92,4.865,100.504,4.554c5.889,9.828,2.256,17.921-7.866,18.476
			c-30.085,1.649-61.032,8.601-89.319-8.863C46.666,583.865,46.198,578.993,46.839,573.861z"/>
		<path d="M923.811,440.088c1.661,16.604-12.931,25.188-19.573,37.495c-12.875,23.859-25.452,48.366-44.416,68.461
			c-0.115-9.387-1.319-18.898,3.162-27.761c17.751-25.55,28.299-55.395,47.686-79.978
			C915.193,437.863,919.845,436.455,923.811,440.088z"/>
		<path d="M710.584,200.244c-1.511-1.015-3.022-2.031-4.534-3.046c-3.163-5.627-3.18-11.409-2.096-17.739
			c4.246-24.785,12.128-48.872,14.13-74.082c0.441-5.553,2.23-10.485,7.718-13.161c2.961,1.787,5.922,3.574,8.883,5.361
			c5.528,7.248,5.384,15.239,3.962,23.824c-3.344,20.181-6.879,40.342-12.865,59.89C723.383,189.131,723.526,200.32,710.584,200.244
			z"/>
		<path d="M582.005,435.897c9.165-0.006,18.329-0.012,27.494-0.017c-6.917,23.833-41.487,55.28-60.745,55.257
			c-2.836-3.172-5.672-6.344-8.508-9.516C549.801,462.393,567.386,450.5,582.005,435.897z"/>
		<path d="M75.061,670.844c31.366-1.555,62.731-3.139,94.1-4.635c4.745-0.226,8.905-1.324,11.671-5.546
			c1.291,2.005,2.581,4.011,3.871,6.018c4.992,14.74-7.541,13.996-15.177,16.07c-16.281,4.422-33.087,2.386-49.689,1.887
			c-12.833-0.385-25.587,1.149-38.396,0.954C79.314,680.676,77.188,675.76,75.061,670.844z"/>
		<path d="M863.674,499.998c-0.132-7.301-0.264-14.603-0.396-21.904c-4.492-10.787,1.036-22.633-3.529-33.412
			c0.021-1.549,0.042-3.098,0.063-4.648c12.313-4.753,25.112-1.275,37.641-2.22c0.699,0.249,1.959,0.387,2.036,0.766
			C903.059,456.061,881.275,493.328,863.674,499.998z"/>
		<path d="M54.258,611.32c-3.828-2.453-3.344-6.056-2.593-9.729c6.696-7.068,15.204-4.324,23.381-4.907
			c26.001-1.854,52.723,6.219,78.015-5.431c4.413,4.016,4.027,9.429,4.269,14.66c0.052,11.536-8.932,14.161-17.095,14.761
			C111.098,622.818,82.312,619.992,54.258,611.32z"/>
		<path d="M434.205,550.674c4.411-9.464,13.261-13.462,21.851-17.816c7.458-3.78,14.031-8.375,15.013-17.68
			c9.205,9.199,18.411,18.395,27.617,27.591c3.944,7.249-0.367,10.127-6.436,9.971C472.899,552.243,453.392,555.594,434.205,550.674
			z"/>
		<path d="M762.804,114.794c-6.335,27.981-12.865,55.921-18.876,83.972c-1.633,7.622-3.257,14.809-9.899,19.715
			c-3.421-2.853-6.842-5.706-10.263-8.56c7.271-30.416,15.677-60.568,21.331-91.36c0.87-4.74,2.463-8.846,7.643-10.356
			C756.095,110.402,759.45,112.598,762.804,114.794z"/>
		<path d="M323.959,809.212c-43.747,13.536-88.836,20.377-133.993,26.873c-1.55-1.536-3.101-3.071-4.652-4.607
			c12.333-13.008,29.067-6.284,43.576-9.543c28.909-6.494,58.039-12.004,87.083-17.923
			C318.639,805.743,321.299,807.477,323.959,809.212z"/>
		<path d="M81.441,685.592c21.088-10.471,43.659-3.27,65.431-5.537c13.62-1.418,28.938,1.562,37.832-13.375
			c3.446,5.892,6.893,11.783,10.34,17.674c-36.748,10.287-74.233,4.11-111.403,4.985C82.543,688.304,81.81,687.055,81.441,685.592z"
			/>
		<path d="M591.275,721.68c0,1.539,0,3.079,0.001,4.618c-19.053,25.528-50.133,33.437-76.549,52.012
			c9.07,5.9,18.338,2.08,26.546,3.733c-16.821,6.838-34.292,4.001-51.61,3.449c0.002-1.258,0.002-2.516,0-3.773
			C523.265,761.251,559.787,745.725,591.275,721.68z"/>
		<path d="M894.732,255.682c-14.938,38.216-29.876,76.432-44.814,114.645c-10.266-0.517-5.301-6.265-3.704-10.824
			c12.203-34.838,24.32-69.707,36.783-104.453c1.18-3.29,4.549-5.795,6.9-8.663C891.508,249.485,893.12,252.583,894.732,255.682z"/>
		<path d="M153.061,591.253c-1.748,12.177-11.132,10.288-19.288,10.312c-27.369,0.082-54.739,0.028-82.109,0.026
			c-0.502-4.521-1.003-9.042-1.506-13.563c26.514,3.643,53.124,5.249,79.904,4.427c9.73-0.299,19.394,0.37,17.285-14.038
			c0.191-1.536,0.388-3.072,0.584-4.608C152.803,578.694,152.393,585.132,153.061,591.253z"/>
		<path d="M548.754,491.137c26.61-11.431,41.536-35.706,60.748-55.261c4.621-0.006,9.246-0.015,13.87-0.024
			c-2.793,26.747-27.521,36.932-41.915,54.872c-5.183,6.46-11.113,16.25-22.731,9.355
			C555.402,497.097,552.078,494.117,548.754,491.137z"/>
		<path d="M752.741,108.206c-6.098,27.56-12.3,55.097-18.227,82.693c-1.628,7.582-3.807,14.569-10.746,19.021
			c-2.487-1.888-4.972-3.779-7.457-5.669c10.201-27.771,14.578-56.925,20.18-85.774c1.129-5.813-0.175-12.392,7.037-15.261
			C746.599,104.879,749.67,106.542,752.741,108.206z"/>
		<path d="M341.891,550.703c26.166-13.825,52.331-27.651,78.497-41.476c9.601-5.381,16.499-16.191,29.522-14.7
			c1.252-0.001,2.091,0.586,2.517,1.763c0.933,4.135-0.171,7.993-3.599,10.112c-25.864,15.989-49.093,36.433-78.429,46.595
			C360.91,551.943,351.064,555.506,341.891,550.703z"/>
		<path d="M374.203,550.664c17.351-16.338,39.023-26.115,58.645-39.007c6.815-4.478,15.487-7.209,19.579-15.368
			c1.58,1.46,3.16,2.919,4.741,4.379c-3.29,16.787-20.686,17.955-30.537,27.499c-7.998,7.749-16.468,15.01-24.729,22.488
			C392.671,554.401,383.438,554.388,374.203,550.664z"/>
		<path d="M558.726,500.078c28.964-13.95,45.084-40.827,64.649-64.23c4.632,0.001,9.268-0.002,13.9-0.001
			c-18.551,28.779-43.616,51.408-69.285,73.469C564.902,506.236,561.814,503.157,558.726,500.078z"/>
		<path d="M637.562,370.299c15.841-28.966,31.793-57.873,47.389-86.971c2.023-3.774,2.213-8.531,3.252-12.83
			c1.768,2.002,3.536,4.001,5.304,6c1.585,5.821,5.81,11.849,2.65,17.689c-14.423,26.656-24.613,56.127-49.325,76.126
			C643.742,370.309,640.652,370.304,637.562,370.299z"/>
		<path d="M54.258,611.32c25.056-4.064,49.415,4.268,74.262,4.193c10.768-0.033,21.299-0.103,28.811-9.601
			c4.181,3.913,4.625,8.882,3.999,14.152c-20.715,14.251-43.943,9.073-66.168,7.178c-13.311-1.135-30.11,5.393-39.054-11.679
			C55.49,614.149,54.874,612.735,54.258,611.32z"/>
		<path d="M716.042,296.56c0.124,29.347-22.845,48.589-32.274,73.751c-4.619-0.001-9.239,0.001-13.86,0.003
			c7.351-29.201,20.138-55.504,41.254-77.365C712.788,294.152,714.415,295.356,716.042,296.56z"/>
		<path d="M725.803,92.216c-6.584,34.99-13.167,69.981-19.752,104.976c-2.91-1.999-5.82-4.003-8.73-6.006
			c6.027-29.709,12.026-59.424,18.106-89.123c1.332-6.507-1.206-11.973-4.124-17.409C717.366,84.819,722.034,87.655,725.803,92.216z
			"/>
		<path d="M863.674,499.998c17.025-17.08,24.934-39.801,37.068-59.907c3.074-2.784,6.142-2.79,9.204,0.018
			c-10.976,28.868-22.489,57.413-46.96,78.175C863.215,512.189,863.444,506.094,863.674,499.998z"/>
		<path d="M711.161,292.948c-13.752,25.791-27.505,51.581-41.255,77.369c-3.121-0.015-6.244-0.026-9.368-0.037
			c-2.936-3.253-3.208-7.034-1.086-10.553c14.933-24.768,26.252-51.571,42.588-75.543
			C705.081,287.105,708.121,290.026,711.161,292.948z"/>
		<path d="M350.922,620.828c-28.518,18.531-61.45,24.168-93.618,32.051c-3.892-2.119-6.279-5.29-6.832-9.746
			c23.113-11.135,48.591-14.559,72.741-22.312C332.449,620.823,341.686,620.825,350.922,620.828z"/>
		<path d="M702.04,284.183c-10.123,30.49-28.957,56.781-41.502,86.1c-4.57,0.01-9.14,0.023-13.708,0.034
			c12.697-22.203,24.718-44.83,38.412-66.395c5.608-8.831,8.192-17.463,8.264-27.418C696.351,279.06,699.195,281.622,702.04,284.183
			z"/>
		<path d="M374.203,550.664c9.233-0.002,18.467-0.004,27.7-0.008c10.768,0.006,21.535,0.013,32.302,0.019
			c16.041,0.021,32.083,0.176,48.122,0.003c6.531-0.07,14.445,2.004,16.359-7.911c4.065,1.004,7.535,3.645,7.35,7.603
			c-0.336,7.179-6.67,4.627-10.494,4.622c-55.83-0.074-111.66-0.401-167.49-0.668c-1.515-0.73-2.015-1.454-1.509-2.178
			c0.501-0.717,1.006-1.078,1.523-1.078c4.608-0.121,9.215-0.242,13.823-0.365C352.662,550.69,363.432,550.677,374.203,550.664z"/>
		<path d="M323.213,620.821c-21.779,15.485-46.625,20.971-72.742,22.312c-1.114-0.902-1.656-2.07-1.623-3.504
			c2.027-17.359,20.195-10.521,28.249-18.844C292.47,620.797,307.841,620.809,323.213,620.821z"/>
		<path d="M942.134,370.742c-34.358-0.171-34.377-0.179-21.042-31.654c2.052-4.844,4.375-9.573,6.572-14.355
			C931.505,340.379,946.115,352.637,942.134,370.742z"/>
		<path d="M56.107,615.564c34.673,10.878,69.884,9.194,105.223,4.501c1.682,3.07,3.365,6.141,5.047,9.211
			c0,0-0.541,0.432-0.541,0.432c-33.715,6.359-67.416,9.214-101.069-0.392c-1.348-0.008-2.697-0.02-4.045-0.035
			C57.763,625.187,55.341,620.912,56.107,615.564z"/>
		<path d="M545.03,435.922c7.701,0,15.401,0,23.102,0c-1.745,19.274-18.888,36.096-37.154,36.457
			c-5.965-3.278-10.62-7.863-13.847-13.873C524.916,449.107,536.657,444.595,545.03,435.922z"/>
		<path d="M743.528,103.216c-4.589,22.726-9.019,45.486-13.833,68.165c-2.483,11.697-4.283,23.809-13.385,32.871
			c-1.908-1.336-3.816-2.672-5.725-4.008c16.699-32.187,20.094-67.498,24.101-102.666
			C737.634,99.457,740.581,101.336,743.528,103.216z"/>
		<path d="M530.978,472.379c15.898-8.576,27.806-21.217,37.154-36.461c4.624-0.007,9.249-0.018,13.873-0.025
			c-8.159,20.507-26.217,31.968-41.759,45.728C537.157,478.54,534.067,475.459,530.978,472.379z"/>
		<path d="M328.068,551.068c-0.032,1.086-0.038,2.171-0.016,3.257c-33.038,0.29-66.078,0.704-99.118,0.765
			c-6.322,0.012-14.844,2.541-15.363-8.521c11.324,7.116,23.894,3.476,35.96,4.175c20.008-0.023,40.016-0.046,60.024-0.07
			C315.726,550.804,321.897,550.936,328.068,551.068z"/>
		<path d="M628.395,583.088c16.844-10.425,26.262-30.109,46.013-36.91c-7.942,22.516-28.415,32.634-45.557,46.047
			C628.7,589.179,628.547,586.133,628.395,583.088z"/>
		<path d="M277.098,620.785c-4.393,13.811-20.597,9.914-28.248,18.843c-5.259-4.508-10.927-10.463-8.184-16.901
			c2.575-6.042,10.687-2.188,16.289-2.548C263.629,619.751,270.38,620.529,277.098,620.785z"/>
		<path d="M545.03,435.922c-2.825,15.526-14.878,19.653-27.899,22.584c-3.356-2.99-6.712-5.981-10.068-8.972
			c3.97-8.09,12.798-9.286,19.387-13.659C532.643,435.891,538.836,435.906,545.03,435.922z"/>
		<path d="M909.946,440.109c-3.068-0.007-6.137-0.014-9.205-0.02c-13.644-0.018-27.288-0.037-40.931-0.056
			c33.356-7.329,66.715-7.505,100.08-0.08c-4.332,0.04-8.663,0.083-12.993,0.127c-3.078-0.001-6.157-0.004-9.235-0.005
			c-4.617,0.004-9.234,0.007-13.851,0.011C919.189,440.095,914.568,440.102,909.946,440.109z"/>
		<path d="M526.45,435.875c-4.338,7.566-9.982,13.278-19.385,13.659c-4.295-4.361-11.117-6.817-10.953-14.539
			C506.229,435.285,516.339,435.58,526.45,435.875z"/>
		<path d="M449.91,494.526c-10.83,2.912-17.867,13.444-29.522,14.7c3.167-10.83,18.817-12.109,19.189-25.083
			C443.021,487.601,446.466,491.064,449.91,494.526z"/>
		<path d="M743.454,300.782c0.367,11.8-2.771,21.914-13.62,28.321c1.32-9.03,6.298-17.439,4.583-26.985
			C737.43,301.673,740.442,301.227,743.454,300.782z"/>
		<path d="M859.748,444.682c7.705,10.442,2.999,22.197,3.531,33.405C857.98,467.392,859.661,455.953,859.748,444.682z"/>
		<path d="M785.438,555.895c-0.119-4.769-0.237-9.538-0.358-14.306c1.294-3.009,2.59-6.019,3.885-9.029
			C789.283,540.564,791.112,548.796,785.438,555.895z"/>
		<path d="M564.115,953.126c-4.698-0.422-9.395-0.844-14.089-1.271c17.651-10.134,34.827-21.218,53.033-30.217
			c61.74-30.517,116.06-72.049,170.266-113.718c6.943-5.337,11.1-14.3,16.547-21.582c19.123-23.532,44.39-40.764,63.146-65.251
			c18.357-23.965,39.89-45.735,58.971-69.444c7.951-9.879,13.812-24.744,31.219-22.047
			c-20.436,76.17-61.049,140.547-116.811,195.324C753.39,896.64,665.701,939.355,564.115,953.126z"/>
		<path d="M943.209,629.596c-19.78,10.361-28.504,30.942-42.957,46.179c-35.838,37.781-62.766,84.548-110.38,110.563
			c-17.395,2.676-26.856,16.779-38.614,27.328c-9.186,8.241-17.332,17.596-30.667,18.854c10.119-20.79,30.309-31.997,46.986-45.459
			c62.413-50.386,113.122-111.088,161.527-174.205c4.263-5.559,7.013-11.506,10.217-17.507c4.954-9.275,10.195-8.42,12.655,2.275
			C952.303,609.171,947.892,619.421,943.209,629.596z"/>
		<path d="M674.408,546.177c0.12-12.195,10.613-14.019,18.474-18.475C690.342,537.478,684.183,543.636,674.408,546.177z"/>
		<path d="M577.419,310.633c2.836,11.209-9.15,17.48-9.234,27.716c-0.543,13.911-15.571,19.471-18.465,32.024
			c-6.122,0.019-12.245,0.04-18.365,0.059C546.106,350.032,558.281,327.651,577.419,310.633z"/>
		<path d="M64.766,629.317c33.692,0.129,67.385,0.258,101.073,0.389c-0.35,6.861-4.656,8.804-10.713,8.794
			c-26.541-0.041-53.082-0.059-79.622-0.015C69.193,638.496,65.575,635.618,64.766,629.317z"/>
		<path d="M729.823,329.114c1.116,11.13-4.424,18.269-13.841,23.082C717.572,342.689,720.522,333.997,729.823,329.114z"/>
	</g>
</g>
</svg>
