<?xml version="1.0" encoding="utf-8"?>
<!-- Generator: Adobe Illustrator 25.2.0, SVG Export Plug-In . SVG Version: 6.00 Build 0)  -->
<svg version="1.1" xmlns="http://www.w3.org/2000/svg" xmlns:xlink="http://www.w3.org/1999/xlink" x="0px" y="0px"
	 viewBox="0 0 400 400" style="enable-background:new 0 0 400 400;" xml:space="preserve">
<style type="text/css">
	.st0{fill:#000000;}
</style>
<g id="레이어_2">
</g>
<g id="레이어_1">
	<g>
		<path class="st0" d="M116.8,139.4c-2.3-2.6-5-3.9-8.3-3.9H41c-0.6,0-1.1-0.2-1.5-0.6c-0.4-0.4-0.6-0.8-0.6-1.2V88.3
			c0-0.5,0.2-0.9,0.6-1.2c0.4-0.4,0.9-0.6,1.5-0.6h71.3c18,0,33.5,7.3,46.5,22l17.3,21.1l-33.7,41.1L116.8,139.4z M241.4,108.3
			c13-14.5,28.6-21.8,46.8-21.8h71.1c0.6,0,1,0.2,1.3,0.5c0.3,0.3,0.4,0.8,0.4,1.4v45.4c0,0.5-0.2,0.9-0.4,1.2
			c-0.3,0.4-0.8,0.6-1.3,0.6h-67.5c-3.3,0-6.1,1.3-8.3,3.9l-49.7,60.4l49.9,60.8c2.3,2.4,4.9,3.6,8.1,3.6h67.5c0.6,0,1,0.2,1.3,0.6
			c0.3,0.4,0.4,0.9,0.4,1.5v45.4c0,0.5-0.2,0.9-0.4,1.2c-0.3,0.4-0.8,0.6-1.3,0.6h-71.1c-18.1,0-33.7-7.3-46.5-22l-41.4-50.4
			l-41.4,50.4c-13,14.7-28.6,22-46.8,22H41c-0.6,0-1.1-0.2-1.3-0.6c-0.3-0.4-0.4-0.9-0.4-1.5V266c0-0.5,0.1-0.9,0.4-1.2
			c0.3-0.4,0.8-0.6,1.3-0.6h67.5c3.1,0,5.9-1.3,8.3-3.9l48.8-59.5L241.4,108.3z"/>
	</g>
</g>
</svg>
