<?xml version="1.0" encoding="utf-8"?>
<!-- Generator: Adobe Illustrator 25.2.1, SVG Export Plug-In . SVG Version: 6.00 Build 0)  -->
<svg version="1.1" id="레이어_1" xmlns="http://www.w3.org/2000/svg" xmlns:xlink="http://www.w3.org/1999/xlink" x="0px"
	 y="0px" viewBox="0 0 1000 1000" style="enable-background:new 0 0 1000 1000;" xml:space="preserve">
<g>
	<path d="M840.99,595.43c-70.08,0-108.31-16.89-139.03-30.46c-25.96-11.47-44.71-19.76-88.3-19.76c-43.58,0-62.34,8.29-88.29,19.75
		c-30.72,13.57-68.95,30.46-139.03,30.46c-70.08,0-108.31-16.89-139.03-30.46c-25.96-11.47-44.71-19.75-88.29-19.75V419.67
		c70.08,0,108.31,16.89,139.03,30.46c25.96,11.47,44.71,19.75,88.29,19.75c43.58,0,62.34-8.29,88.3-19.75
		c30.72-13.57,68.95-30.46,139.03-30.46s108.31,16.89,139.03,30.46c25.96,11.47,44.71,19.75,88.3,19.75V595.43z"/>
	<path d="M840.99,389.2c-70.08,0-108.31-16.89-139.03-30.46c-25.96-11.47-44.71-19.75-88.3-19.75c-43.58,0-62.34,8.29-88.29,19.75
		c-30.72,13.57-68.95,30.46-139.03,30.46c-70.08,0-108.31-16.89-139.03-30.46c-25.96-11.47-44.71-19.75-88.29-19.75V213.44
		c70.08,0,108.31,16.89,139.03,30.46c25.96,11.47,44.71,19.75,88.29,19.75c43.58,0,62.34-8.29,88.3-19.75
		c30.72-13.57,68.95-30.46,139.03-30.46s108.31,16.89,139.03,30.46c25.96,11.47,44.71,19.75,88.3,19.75V389.2z"/>
	<rect x="159.01" y="651.01" width="681.98" height="125.54"/>
</g>
</svg>
