<?xml version="1.0" encoding="utf-8"?>
<!-- Generator: Adobe Illustrator 25.2.1, SVG Export Plug-In . SVG Version: 6.00 Build 0)  -->
<svg version="1.1" id="레이어_1" xmlns="http://www.w3.org/2000/svg" xmlns:xlink="http://www.w3.org/1999/xlink" x="0px"
	 y="0px" viewBox="0 0 1000 1000" style="enable-background:new 0 0 1000 1000;" xml:space="preserve">
<g>
	<path d="M499.99,781.78c-153.85,0-279-126.4-279-281.76s125.16-281.76,279-281.76s279.02,126.4,279.02,281.76
		S653.84,781.78,499.99,781.78z M499.99,271.77c-124.31,0-225.46,102.4-225.46,228.24s101.14,228.24,225.46,228.24
		c124.33,0,225.47-102.4,225.47-228.24S624.32,271.77,499.99,271.77z"/>
	<path d="M218.94,847.99c-7.75,0-15.44-3.35-20.73-9.8c-9.36-11.44-7.67-28.31,3.76-37.66l394.75-323.09
		c8-6.56,19.07-7.96,28.42-3.48c9.35,4.42,15.31,13.85,15.31,24.19v216.03c0,14.79-11.99,26.76-26.77,26.76
		s-26.77-11.97-26.77-26.76V554.63L235.88,841.94C230.91,846.01,224.9,847.99,218.94,847.99z"/>
	<path d="M386.33,528.65c-3.9,0-7.81-0.83-11.46-2.57c-9.35-4.42-15.31-13.85-15.31-24.19V285.86c0-14.79,11.99-26.76,26.77-26.76
		s26.77,11.97,26.77,26.76V445.4l351.02-287.33c11.44-9.38,28.3-7.66,37.67,3.75c9.36,11.44,7.67,28.31-3.76,37.66L403.28,522.59
		C398.41,526.59,392.39,528.65,386.33,528.65z"/>
</g>
</svg>
