<?xml version="1.0" encoding="utf-8"?>
<!-- Generator: Adobe Illustrator 25.2.0, SVG Export Plug-In . SVG Version: 6.00 Build 0)  -->
<svg version="1.1" id="레이어_1" xmlns="http://www.w3.org/2000/svg" xmlns:xlink="http://www.w3.org/1999/xlink" x="0px"
	 y="0px" viewBox="0 0 400 400" style="enable-background:new 0 0 400 400;" xml:space="preserve">
<style type="text/css">
	.st0{fill:#FFFFFF;}
</style>
<g id="layer1" transform="translate(337.47381,-86.713929)">
	<g id="path826">
		<path class="st0" d="M-305.5,286.9V266l17.7,0c18.6,0,21.1,0.2,24.2,1.6c3.5,1.6,4.6,4.1,4.4,9.9c-0.1,4.5-0.9,6.2-2.9,7.4
			c-0.7,0.4-1.3,0.8-1.3,0.9c0,0.1,0.6,0.5,1.4,0.8c0.8,0.4,1.8,1.2,2.2,1.8c0.8,1.1,0.8,1.6,0.9,6.9c0.1,5.5,0.1,5.8-0.7,7.4
			c-1,1.9-2.9,3.3-5.7,4.2c-1.8,0.6-4,0.7-21.1,0.8l-19.1,0.2L-305.5,286.9z M-269.1,301.1c2.2-0.9,2.6-1.7,2.7-5.7
			c0.1-3.3,0-3.7-0.6-4.6c-0.4-0.5-1.4-1.1-2.1-1.3c-0.8-0.2-6.8-0.4-15.1-0.4l-13.7,0v6.3v6.3h13.8
			C-273.2,301.6-270,301.5-269.1,301.1L-269.1,301.1z M-267.7,282c0.9-0.9,1.4-5,0.7-7.3c-0.7-2.6-0.7-2.6-16.9-2.6h-14v5.4v5.4
			l14.7-0.1C-268.9,282.7-268.5,282.7-267.7,282z M-249.4,286.7v-21h4h4v21v21h-4h-4V286.7z M-212.8,289.9v-17.8h-10.8h-10.8v-3.1
			V266h25.3h25.3v3.1v3.1h-10.6h-10.6v17.8v17.8h-4h-4V289.9z M-176.8,286.9V266h3.6h3.6l12.3,16.9c6.8,9.3,12.4,16.8,12.6,16.7
			c0.2-0.1,5.7-7.7,12.4-16.9l12.1-16.7h3.4h3.4v20.8v20.8h-3.6h-3.6l-0.1-14.6l-0.1-14.6l-10.6,14.6l-10.6,14.6l-3.2-0.1l-3.2-0.1
			l-10.4-14.3l-10.4-14.3l-0.1,14.4l-0.1,14.4h-3.6h-3.6L-176.8,286.9z M-108.1,307.4c0.1-0.2,6.3-9.6,13.8-20.8l13.7-20.5l2.9,0
			l2.9,0l4.5,6.9c2.5,3.8,8.7,13.2,13.7,20.8l9.2,13.9h-4.4h-4.4l-10.6-16.5c-5.8-9.1-10.7-16.6-10.9-16.6c-0.2,0-5.2,7.4-11.1,16.5
			l-10.8,16.6h-4.3C-106.4,307.7-108.2,307.6-108.1,307.4L-108.1,307.4z M-42.1,286.7v-21h4.1h4.1v21v21h-4.1h-4.1V286.7z
			 M-24.5,286.9V266l3.3,0l3.3,0l20.5,15.3c11.2,8.4,20.6,15.3,20.8,15.3c0.2,0,0.3-6.9,0.3-15.3V266h3.4h3.4v20.9v20.9l-2.1-0.1
			l-2.1-0.1l-22-16.1c-12.1-8.8-22.1-16.1-22.2-16.1c-0.1,0-0.2,7.3-0.2,16.2v16.2h-3.2h-3.2V286.9z"/>
	</g>
</g>
</svg>
