<?xml version="1.0" encoding="utf-8"?>
<!-- Generator: Adobe Illustrator 25.2.0, SVG Export Plug-In . SVG Version: 6.00 Build 0)  -->
<svg version="1.1" xmlns="http://www.w3.org/2000/svg" xmlns:xlink="http://www.w3.org/1999/xlink" x="0px" y="0px"
	 viewBox="0 0 400 400" style="enable-background:new 0 0 400 400;" xml:space="preserve">
<style type="text/css">
	.st0{fill:#FFFFFF;}
</style>
<g id="레이어_2">
</g>
<g id="레이어_1">
	<g>
		<path class="st0" d="M255.7,144.7c-2.5,0-4.8-1.5-5.7-4L207.6,27.5L103,142.3c-2.3,2.5-6.2,2.7-8.7,0.4c-2.5-2.3-2.7-6.2-0.4-8.7
			L205.3,11.8c1.4-1.6,3.6-2.3,5.7-1.9c2.1,0.4,3.8,1.9,4.6,3.9l45.9,122.6c1.2,3.2-0.4,6.7-3.6,7.9
			C257.1,144.5,256.4,144.7,255.7,144.7z"/>
		<path class="st0" d="M189.1,390.2c-0.4,0-0.8,0-1.2-0.1c-2.1-0.4-3.8-1.9-4.6-3.9l-45.9-122.7c-1.2-3.2,0.4-6.7,3.6-7.9
			c3.2-1.2,6.7,0.4,7.9,3.6l42.4,113.3l58.3-63.7c2.3-2.5,6.2-2.7,8.7-0.4c2.5,2.3,2.7,6.2,0.4,8.7l-65.1,71.1
			C192.4,389.5,190.8,390.2,189.1,390.2z"/>
		
			<rect x="242.8" y="281" transform="matrix(0.6759 -0.737 0.737 0.6759 -121.5911 297.7972)" class="st0" width="70" height="12.3"/>
		<path class="st0" d="M381.3,267.5H222.9c-2.6,0-4.8-1.6-5.7-4l-44.4-118.8H27.5l41.3,110.6h74.4c3.4,0,6.1,2.7,6.1,6.1
			c0,3.4-2.7,6.1-6.1,6.1H64.5c-2.6,0-4.8-1.6-5.7-4L12.9,140.7c-0.7-1.9-0.4-4,0.7-5.6c1.1-1.6,3-2.6,5-2.6h158.4
			c2.6,0,4.8,1.6,5.7,4l44.4,118.8h145.3l-41.3-110.6h-75.7c-3.4,0-6.1-2.7-6.1-6.1c0-3.4,2.7-6.1,6.1-6.1h80c2.6,0,4.8,1.6,5.7,4
			l45.9,122.8c0.7,1.9,0.4,4-0.7,5.6C385.2,266.5,383.3,267.5,381.3,267.5z"/>
		
			<rect x="116.1" y="193.8" transform="matrix(0.6754 -0.7374 0.7374 0.6754 -82.7464 211.8997)" class="st0" width="166.6" height="12.3"/>
	</g>
</g>
</svg>
