<svg width="64" height="21" viewBox="0 0 64 21" fill="none" xmlns="http://www.w3.org/2000/svg">
<path d="M25.32 12.056C25.7893 12.1413 26.1253 12.2853 26.328 12.488C26.2107 12.8613 26.1093 13.2773 26.024 13.736C25.9387 14.184 25.8747 14.616 25.832 15.032C25.4693 15.0213 24.9467 15.0107 24.264 15C23.592 15 22.8933 15 22.168 15C21.8693 15 21.512 15 21.096 15C20.68 15 20.2533 15 19.816 15C19.3787 15.0107 18.9733 15.016 18.6 15.016C18.2373 15.0267 17.96 15.0373 17.768 15.048C17.768 14.8773 17.7733 14.7173 17.784 14.568C17.7947 14.4187 17.8213 14.2907 17.864 14.184C18.152 14.1627 18.3707 14.1093 18.52 14.024C18.68 13.928 18.792 13.768 18.856 13.544C18.92 13.3093 18.952 12.9733 18.952 12.536V6.52C18.952 6.11467 18.92 5.81067 18.856 5.608C18.792 5.39467 18.68 5.25067 18.52 5.176C18.36 5.09067 18.136 5.032 17.848 5C17.816 4.89333 17.7947 4.76 17.784 4.6C17.7733 4.42933 17.768 4.27467 17.768 4.136C18.0133 4.14667 18.3387 4.15733 18.744 4.168C19.16 4.168 19.5707 4.17333 19.976 4.184C20.392 4.184 20.728 4.184 20.984 4.184C22.2107 4.184 23.176 4.17867 23.88 4.168C24.584 4.15733 25.096 4.14667 25.416 4.136C25.4373 4.38133 25.4587 4.664 25.48 4.984C25.512 5.304 25.5493 5.624 25.592 5.944C25.6453 6.25333 25.6987 6.52533 25.752 6.76C25.5067 6.90933 25.1707 6.984 24.744 6.984C24.7013 6.64267 24.6053 6.32267 24.456 6.024C24.3173 5.71467 24.072 5.46933 23.72 5.288C23.3787 5.096 22.8933 5 22.264 5H21V9.144H21.688C22.296 9.144 22.712 9.05867 22.936 8.888C23.1707 8.71733 23.2933 8.38667 23.304 7.896C23.4533 7.85333 23.608 7.82133 23.768 7.8C23.9387 7.77867 24.1093 7.768 24.28 7.768C24.2693 8.03467 24.2587 8.31733 24.248 8.616C24.2373 8.91467 24.232 9.224 24.232 9.544C24.232 9.88533 24.2373 10.2213 24.248 10.552C24.2587 10.872 24.2693 11.16 24.28 11.416C24.088 11.416 23.9173 11.4107 23.768 11.4C23.6187 11.3893 23.4747 11.3627 23.336 11.32C23.2933 10.7973 23.1547 10.4453 22.92 10.264C22.696 10.0827 22.2853 9.992 21.688 9.992H21V12.52C21 13.1493 21.0907 13.576 21.272 13.8C21.4533 14.0133 21.8267 14.12 22.392 14.12H22.536C23.176 14.12 23.6667 14.0453 24.008 13.896C24.36 13.7467 24.6267 13.5173 24.808 13.208C25 12.8987 25.1707 12.5147 25.32 12.056ZM27.3554 15.048C27.3554 14.888 27.3607 14.7333 27.3714 14.584C27.382 14.4347 27.4087 14.3013 27.4514 14.184C27.878 14.1733 28.166 14.072 28.3154 13.88C28.4647 13.688 28.5394 13.3253 28.5394 12.792V5.928C28.5394 5.576 28.4647 5.31467 28.3154 5.144C28.1767 4.96267 27.8514 4.86667 27.3394 4.856C27.3394 4.70667 27.35 4.568 27.3714 4.44C27.3927 4.30133 27.4354 4.17867 27.4994 4.072C27.7874 4.072 28.102 4.04533 28.4434 3.992C28.7847 3.93867 29.1047 3.86933 29.4034 3.784C29.7127 3.69867 29.9367 3.61333 30.0754 3.528C30.1927 3.57067 30.2887 3.656 30.3634 3.784C30.4487 3.90133 30.4914 4.072 30.4914 4.296V12.792C30.4914 13.3253 30.5607 13.688 30.6994 13.88C30.8487 14.072 31.1047 14.1733 31.4674 14.184C31.51 14.3013 31.5367 14.44 31.5474 14.6C31.558 14.76 31.5634 14.9093 31.5634 15.048C31.3074 15.0267 30.9874 15.0107 30.6034 15C30.23 15 29.8514 15 29.4674 15C29.0834 15 28.694 15 28.2994 15C27.9047 15.0107 27.59 15.0267 27.3554 15.048ZM32.5429 15.048C32.5429 14.888 32.5482 14.7333 32.5589 14.584C32.5695 14.4347 32.5962 14.3013 32.6389 14.184C33.0655 14.1733 33.3535 14.072 33.5029 13.88C33.6522 13.688 33.7269 13.3253 33.7269 12.792V5.928C33.7269 5.576 33.6522 5.31467 33.5029 5.144C33.3642 4.96267 33.0389 4.86667 32.5269 4.856C32.5269 4.70667 32.5375 4.568 32.5589 4.44C32.5802 4.30133 32.6229 4.17867 32.6869 4.072C32.9749 4.072 33.2895 4.04533 33.6309 3.992C33.9722 3.93867 34.2922 3.86933 34.5909 3.784C34.9002 3.69867 35.1242 3.61333 35.2629 3.528C35.3802 3.57067 35.4762 3.656 35.5509 3.784C35.6362 3.90133 35.6789 4.072 35.6789 4.296V12.792C35.6789 13.3253 35.7482 13.688 35.8869 13.88C36.0362 14.072 36.2922 14.1733 36.6549 14.184C36.6975 14.3013 36.7242 14.44 36.7349 14.6C36.7455 14.76 36.7509 14.9093 36.7509 15.048C36.4949 15.0267 36.1749 15.0107 35.7909 15C35.4175 15 35.0389 15 34.6549 15C34.2709 15 33.8815 15 33.4869 15C33.0922 15.0107 32.7775 15.0267 32.5429 15.048ZM37.7944 15.048C37.7944 14.888 37.7997 14.7333 37.8104 14.584C37.8317 14.4347 37.8637 14.3013 37.9064 14.184C38.3224 14.1733 38.605 14.072 38.7544 13.88C38.9037 13.688 38.9784 13.3253 38.9784 12.792V9.992C38.9784 9.61867 38.909 9.34133 38.7704 9.16C38.6424 8.968 38.317 8.86667 37.7944 8.856C37.7944 8.70667 37.805 8.568 37.8264 8.44C37.8477 8.30133 37.8904 8.17867 37.9544 8.072C38.2317 8.072 38.541 8.04533 38.8824 7.992C39.2344 7.93867 39.5597 7.86933 39.8584 7.784C40.157 7.69867 40.3757 7.61333 40.5144 7.528C40.6424 7.57067 40.7437 7.656 40.8184 7.784C40.9037 7.90133 40.9464 8.072 40.9464 8.296V12.792C40.9464 13.3253 41.0157 13.688 41.1544 13.88C41.293 14.072 41.549 14.1733 41.9224 14.184C41.9544 14.3013 41.9757 14.44 41.9864 14.6C42.0077 14.76 42.0184 14.9093 42.0184 15.048C41.7624 15.0267 41.4424 15.0107 41.0584 15C40.685 15 40.3064 15 39.9224 15C39.5384 15 39.149 15 38.7544 15C38.3597 15.0107 38.0397 15.0267 37.7944 15.048ZM39.7944 6.056C39.4424 6.056 39.1597 5.96 38.9464 5.768C38.733 5.56533 38.6264 5.31467 38.6264 5.016C38.6264 4.664 38.7437 4.392 38.9784 4.2C39.213 3.99733 39.4957 3.896 39.8264 3.896C40.2104 3.896 40.509 3.99733 40.7224 4.2C40.9357 4.392 41.0424 4.65867 41.0424 5C41.0424 5.288 40.925 5.53867 40.6904 5.752C40.4557 5.95467 40.157 6.056 39.7944 6.056ZM43.1225 18.92C43.1225 18.5253 43.1545 18.2373 43.2185 18.056C43.6452 18.024 43.9332 17.912 44.0825 17.72C44.2318 17.528 44.3065 17.1333 44.3065 16.536V10.088C44.3065 9.66133 44.2425 9.35733 44.1145 9.176C43.9865 8.984 43.6612 8.87733 43.1385 8.856C43.1385 8.70667 43.1492 8.568 43.1705 8.44C43.1918 8.30133 43.2345 8.17867 43.2985 8.072C43.7785 8.05067 44.2585 7.98667 44.7385 7.88C45.2292 7.77333 45.6025 7.656 45.8585 7.528C45.9758 7.57067 46.0718 7.656 46.1465 7.784C46.2318 7.90133 46.2745 8.08267 46.2745 8.328C46.2745 8.52 46.2372 8.73333 46.1625 8.968C46.2265 8.872 46.2852 8.792 46.3385 8.728C46.3918 8.65333 46.4398 8.58933 46.4825 8.536C46.6532 8.32267 46.9252 8.104 47.2985 7.88C47.6825 7.64533 48.1305 7.528 48.6425 7.528C49.5705 7.528 50.3118 7.8 50.8665 8.344C51.4318 8.87733 51.7145 9.72 51.7145 10.872C51.7145 11.704 51.5385 12.44 51.1865 13.08C50.8452 13.72 50.3545 14.2267 49.7145 14.6C49.0852 14.9627 48.3438 15.144 47.4905 15.144C47.2665 15.144 47.0585 15.128 46.8665 15.096C46.6745 15.064 46.4772 15.0213 46.2745 14.968V16.264C46.2745 16.9573 46.3865 17.4213 46.6105 17.656C46.8452 17.8907 47.2398 18.024 47.7945 18.056C47.8372 18.1733 47.8638 18.3067 47.8745 18.456C47.8852 18.6053 47.8905 18.76 47.8905 18.92C47.6238 18.8987 47.2772 18.8827 46.8505 18.872C46.4345 18.872 46.0185 18.872 45.6025 18.872C45.1652 18.872 44.7065 18.872 44.2265 18.872C43.7572 18.8827 43.3892 18.8987 43.1225 18.92ZM46.2745 11.56V13.72C46.4452 13.8907 46.6265 14.0293 46.8185 14.136C47.0212 14.232 47.2665 14.28 47.5545 14.28C47.7572 14.28 47.9812 14.2373 48.2265 14.152C48.4718 14.0667 48.7012 13.9173 48.9145 13.704C49.1385 13.4907 49.3198 13.1867 49.4585 12.792C49.5972 12.3973 49.6665 11.8907 49.6665 11.272C49.6665 10.536 49.5225 9.928 49.2345 9.448C48.9465 8.95733 48.5518 8.712 48.0505 8.712C47.7625 8.712 47.4798 8.808 47.2025 9C46.9358 9.18133 46.7118 9.48 46.5305 9.896C46.3598 10.312 46.2745 10.8667 46.2745 11.56ZM55.8165 15.144C55.1125 15.144 54.5845 14.9627 54.2325 14.6C53.8912 14.2373 53.7205 13.64 53.7205 12.808V8.92C53.5605 8.856 53.3898 8.808 53.2085 8.776C53.0272 8.744 52.8085 8.72267 52.5525 8.712C52.5525 8.54133 52.5632 8.392 52.5845 8.264C52.6165 8.12533 52.6645 7.98133 52.7285 7.832H53.7205V5.8C54.0192 5.74667 54.3125 5.656 54.6005 5.528C54.8992 5.38933 55.1445 5.24 55.3365 5.08C55.4752 5.13333 55.5658 5.21867 55.6085 5.336C55.6512 5.44267 55.6725 5.66667 55.6725 6.008V7.832H57.6885C57.6885 8.14133 57.6405 8.44 57.5445 8.728C56.8085 8.74933 56.1845 8.824 55.6725 8.952V12.504C55.6725 13.112 55.7472 13.5333 55.8965 13.768C56.0458 13.992 56.2645 14.104 56.5525 14.104C56.9258 14.104 57.2618 14.0027 57.5605 13.8C57.7098 13.9813 57.7898 14.2107 57.8005 14.488C57.6085 14.6693 57.3205 14.824 56.9365 14.952C56.5632 15.08 56.1898 15.144 55.8165 15.144ZM58.7319 15.048C58.7319 14.888 58.7372 14.7333 58.7479 14.584C58.7692 14.4347 58.8012 14.3013 58.8439 14.184C59.2599 14.1733 59.5425 14.072 59.6919 13.88C59.8412 13.688 59.9159 13.3253 59.9159 12.792V9.992C59.9159 9.61867 59.8465 9.34133 59.7079 9.16C59.5799 8.968 59.2545 8.86667 58.7319 8.856C58.7319 8.70667 58.7425 8.568 58.7639 8.44C58.7852 8.30133 58.8279 8.17867 58.8919 8.072C59.1692 8.072 59.4785 8.04533 59.8199 7.992C60.1719 7.93867 60.4972 7.86933 60.7959 7.784C61.0945 7.69867 61.3132 7.61333 61.4519 7.528C61.5799 7.57067 61.6812 7.656 61.7559 7.784C61.8412 7.90133 61.8839 8.072 61.8839 8.296V12.792C61.8839 13.3253 61.9532 13.688 62.0919 13.88C62.2305 14.072 62.4865 14.1733 62.8599 14.184C62.8919 14.3013 62.9132 14.44 62.9239 14.6C62.9452 14.76 62.9559 14.9093 62.9559 15.048C62.6999 15.0267 62.3799 15.0107 61.9959 15C61.6225 15 61.2439 15 60.8599 15C60.4759 15 60.0865 15 59.6919 15C59.2972 15.0107 58.9772 15.0267 58.7319 15.048ZM60.7319 6.056C60.3799 6.056 60.0972 5.96 59.8839 5.768C59.6705 5.56533 59.5639 5.31467 59.5639 5.016C59.5639 4.664 59.6812 4.392 59.9159 4.2C60.1505 3.99733 60.4332 3.896 60.7639 3.896C61.1479 3.896 61.4465 3.99733 61.6599 4.2C61.8732 4.392 61.9799 4.65867 61.9799 5C61.9799 5.288 61.8625 5.53867 61.6279 5.752C61.3932 5.95467 61.0945 6.056 60.7319 6.056Z" fill="white"/>
<circle cx="7.5" cy="9.5" r="7" stroke="white"/>
<path d="M13.1348 6.26939C13.5156 6.92899 13.3414 7.90761 12.596 9.01333C11.861 10.1036 10.6139 11.2437 9.02369 12.1618C7.4335 13.0798 5.82265 13.5899 4.51092 13.6813C3.18062 13.774 2.24602 13.4355 1.86519 12.7759C1.48437 12.1163 1.65856 11.1377 2.40399 10.032C3.13902 8.94167 4.38612 7.80163 5.97631 6.88354C7.5665 5.96544 9.17735 5.45544 10.4891 5.36403C11.8194 5.27133 12.754 5.60978 13.1348 6.26939Z" stroke="white" stroke-width="0.5"/>
<path d="M13 5L2 14" stroke="white" stroke-width="0.5" stroke-miterlimit="16" stroke-dasharray="0.5 0.5"/>
</svg>
