<svg width="145" height="53" viewBox="0 0 145 53" fill="none" xmlns="http://www.w3.org/2000/svg">
<path d="M18.7909 36.719C15.5727 37.7659 12.0055 36.7578 10.2219 33.9273L29.0272 25.0094C27.6313 20.1239 24.3743 15.8588 19.4888 14.1915C16.3482 13.1058 12.8198 13.3772 8.94238 15.0445C1.88555 18.0689 -2.30202 26.6766 1.34271 35.1681C1.69168 35.9823 2.07942 36.7578 2.5447 37.4945C9.52398 48.4675 29.0272 45.8309 30.4231 32.0274L23.9866 31.407C23.405 33.8498 21.35 35.9048 18.7909 36.719ZM11.6565 21.0157C15.0686 19.5423 18.4807 21.2095 19.799 23.5747L8.12813 28.6153C7.35265 25.5134 8.43832 22.3727 11.6565 21.0157Z" fill="white"/>
<path d="M42.0161 33.1516C41.6672 32.1435 41.3957 30.8639 41.3957 29.1967L41.2407 0H32.8267L32.9431 29.3905C32.9431 30.3211 32.9818 31.2129 32.9818 32.1047C33.292 39.4717 36.8204 44.0082 45.2343 44.2021C46.1649 43.1552 47.9097 37.3004 46.9404 36.2147C45.6996 36.1759 42.6365 35.8658 42.0161 33.1516Z" fill="white"/>
<path d="M58.34 33.1516C57.9911 32.1435 57.7196 30.8639 57.7196 29.1967L57.5646 0H49.1506L49.267 29.3905C49.267 30.3211 49.3057 31.2129 49.3057 32.1047C49.6159 39.4717 53.1831 44.0082 61.5583 44.2021C62.4888 43.1552 64.2336 37.3004 63.2643 36.2147C62.0235 36.1759 58.9604 35.8658 58.34 33.1516Z" fill="white"/>
<path d="M75.4778 14.0751H66.9863V44.2023H75.4778V14.0751Z" fill="white"/>
<path d="M71.2906 10.5076C73.6033 10.5076 75.4781 8.63281 75.4781 6.32008C75.4781 4.00735 73.6033 2.13251 71.2906 2.13251C68.9778 2.13251 67.103 4.00735 67.103 6.32008C67.103 8.63281 68.9778 10.5076 71.2906 10.5076Z" fill="white"/>
<path d="M96.2607 13.8421C91.9956 13.8421 88.7773 15.3155 86.5672 17.0603C85.9081 17.2542 85.5591 16.4012 85.2877 16.8665C84.1632 17.5256 83.1939 18.3011 82.496 19.0378V52.5771H90.1732L90.1344 40.7123C92.4608 41.5266 95.0199 41.8756 97.1525 41.8756C104.442 41.8756 110.84 37.3003 110.84 28.1109C110.762 23.6519 107.815 13.8421 96.2607 13.8421ZM96.4545 34.9738C92.9261 34.9738 90.0569 32.376 90.0569 28.1496V27.568C90.0569 23.3029 92.8098 20.7051 96.4545 20.6663C100.332 20.6663 102.93 23.4968 102.93 27.7619C102.93 32.1433 100.177 34.9738 96.4545 34.9738Z" fill="white"/>
<path d="M127.202 36.1761C126 35.8271 125.38 34.5476 125.264 32.2211C125.225 31.6395 125.225 31.0579 125.225 30.3988V22.1012H131.002V14.9668H125.225V5.73865H116.772V14.9668H112.585V22.1012H116.772L116.811 30.5539C116.811 31.6395 116.811 32.7252 116.85 33.7721C117.044 38.7351 118.788 43.4655 125.186 44.2022C128.094 44.4737 130.227 43.9308 131.7 43.388L130.459 36.2536C129.723 36.2924 128.404 36.6801 127.202 36.1761Z" fill="white"/>
<path d="M145 14.0751H136.509V44.2023H145V14.0751Z" fill="white"/>
<path d="M140.736 10.5076C143.049 10.5076 144.924 8.63281 144.924 6.32008C144.924 4.00735 143.049 2.13251 140.736 2.13251C138.423 2.13251 136.548 4.00735 136.548 6.32008C136.548 8.63281 138.423 10.5076 140.736 10.5076Z" fill="white"/>
</svg>
