<svg width="51" height="20" viewBox="0 0 51 20" fill="none" xmlns="http://www.w3.org/2000/svg">
<path d="M6.5425 13.6315C5.422 13.996 4.18 13.645 3.559 12.6595L10.1065 9.55452C9.6205 7.85352 8.4865 6.36852 6.7855 5.78802C5.692 5.41002 4.4635 5.50452 3.1135 6.08502C0.656497 7.13802 -0.801503 10.135 0.467497 13.0915C0.588997 13.375 0.723997 13.645 0.885997 13.9015C3.316 17.722 10.1065 16.804 10.5925 11.998L8.3515 11.782C8.149 12.6325 7.4335 13.348 6.5425 13.6315ZM4.0585 8.16401C5.2465 7.65101 6.4345 8.23152 6.8935 9.05502L2.83 10.81C2.56 9.73002 2.938 8.63651 4.0585 8.16401Z" fill="white"/>
<path d="M14.6289 12.3894C14.5074 12.0384 14.4129 11.5929 14.4129 11.0124L14.3589 0.846924H11.4294L11.4699 11.0799C11.4699 11.4039 11.4834 11.7144 11.4834 12.0249C11.5914 14.5899 12.8199 16.1694 15.7494 16.2369C16.0734 15.8724 16.6809 13.8339 16.3434 13.4559C15.9114 13.4424 14.8449 13.3344 14.6289 12.3894Z" fill="white"/>
<path d="M20.3124 12.3894C20.1909 12.0384 20.0964 11.5929 20.0964 11.0124L20.0424 0.846924H17.1129L17.1534 11.0799C17.1534 11.4039 17.1669 11.7144 17.1669 12.0249C17.2749 14.5899 18.5169 16.1694 21.4329 16.2369C21.7569 15.8724 22.3644 13.8339 22.0269 13.4559C21.5949 13.4424 20.5284 13.3344 20.3124 12.3894Z" fill="white"/>
<path d="M26.2794 5.7475H23.3229V16.237H26.2794V5.7475Z" fill="white"/>
<path d="M24.8215 4.50542C25.6267 4.50542 26.2795 3.85265 26.2795 3.04742C26.2795 2.24219 25.6267 1.58942 24.8215 1.58942C24.0162 1.58942 23.3635 2.24219 23.3635 3.04742C23.3635 3.85265 24.0162 4.50542 24.8215 4.50542Z" fill="white"/>
<path d="M33.5154 5.66638C32.0304 5.66638 30.9099 6.17938 30.1404 6.78688C29.9109 6.85438 29.7894 6.55738 29.6949 6.71938C29.3034 6.94888 28.9659 7.21888 28.7229 7.47538V19.1529H31.3959L31.3824 15.0219C32.1924 15.3054 33.0834 15.4269 33.8259 15.4269C36.3639 15.4269 38.5914 13.8339 38.5914 10.6344C38.5644 9.08188 37.5384 5.66638 33.5154 5.66638ZM33.5829 13.0239C32.3544 13.0239 31.3554 12.1194 31.3554 10.6479V10.4454C31.3554 8.96038 32.3139 8.05588 33.5829 8.04238C34.9329 8.04238 35.8374 9.02788 35.8374 10.5129C35.8374 12.0384 34.8789 13.0239 33.5829 13.0239Z" fill="white"/>
<path d="M44.2884 13.4425C43.8699 13.321 43.6539 12.8755 43.6134 12.0655C43.5999 11.863 43.5999 11.6605 43.5999 11.431V8.54197H45.6114V6.05797H43.5999V2.84497H40.657V6.05797H39.1989V8.54197H40.657L40.6704 11.485C40.6704 11.863 40.6704 12.241 40.6839 12.6055C40.7514 14.3335 41.3589 15.9805 43.5864 16.237C44.5989 16.3315 45.3414 16.1425 45.8544 15.9535L45.4224 13.4695C45.1659 13.483 44.7069 13.618 44.2884 13.4425Z" fill="white"/>
<path d="M50.4851 5.7475H47.5286V16.237H50.4851V5.7475Z" fill="white"/>
<path d="M49.0002 4.50542C49.8054 4.50542 50.4582 3.85265 50.4582 3.04742C50.4582 2.24219 49.8054 1.58942 49.0002 1.58942C48.195 1.58942 47.5422 2.24219 47.5422 3.04742C47.5422 3.85265 48.195 4.50542 49.0002 4.50542Z" fill="white"/>
</svg>
