<?xml version="1.0" encoding="utf-8"?>
<!-- Generator: Adobe Illustrator 25.2.0, SVG Export Plug-In . SVG Version: 6.00 Build 0)  -->
<svg version="1.1" xmlns="http://www.w3.org/2000/svg" xmlns:xlink="http://www.w3.org/1999/xlink" x="0px" y="0px"
	 viewBox="0 0 400 400" style="enable-background:new 0 0 400 400;" xml:space="preserve">
<style type="text/css">
	.st0{fill:#FFFFFF;}
</style>
<g id="레이어_2">
</g>
<g id="레이어_1">
	<g>
		<g>
			<path class="st0" d="M149,117.1c15.3-9.9,32.2-15,50.7-15c18.3,0,35.2,5,50.8,15.1L283,84.7c-25.3-19.4-53.1-29.1-83.3-29.1
				c-30.4,0-58.1,9.7-83.2,29L149,117.1z"/>
			<path class="st0" d="M117,250.7c-10.3-15.7-15.5-32.6-15.4-50.8c0-18.5,5.1-35.4,15.3-50.8l-32.4-32.5
				c-19.1,24.8-28.6,52.6-28.7,83.2c0,30.4,9.6,58.1,28.8,83.3L117,250.7z"/>
			<path class="st0" d="M250.7,283c-15.4,10.4-32.3,15.7-50.7,15.8c-18.7,0.1-35.8-5.1-51.3-15.7l-32.3,32.3
				c25.1,19.5,53.1,29.2,83.8,29c30.4-0.2,58.1-9.9,82.9-29L250.7,283z"/>
			<path class="st0" d="M282.7,149.1c10.4,15.7,15.5,33,15.3,51.7c-0.2,18.1-5.3,34.7-15.4,50l32.5,32.5
				c19.1-24.9,28.8-52.5,29-82.8c0.2-30.8-9.4-58.7-29-83.8L282.7,149.1z"/>
		</g>
		<g>
			<path class="st0" d="M314.6,317.8c-0.5-0.5-0.7-1.1-0.7-1.7l0,0c0-0.6,0.2-1.2,0.7-1.7l0,0c0.9-0.9,2.4-0.9,3.4,0l0,0
				c0.5,0.5,0.7,1.1,0.7,1.7l0,0c0,0.6-0.2,1.2-0.7,1.7l0,0c-0.5,0.5-1.1,0.7-1.7,0.7l0,0C315.7,318.5,315.1,318.2,314.6,317.8z
				 M307.8,310.9c-0.5-0.5-0.7-1.1-0.7-1.7l0,0c0-0.6,0.2-1.2,0.7-1.7l0,0c0.9-0.9,2.5-0.9,3.4,0l0,0c0.5,0.5,0.7,1.1,0.7,1.7l0,0
				c0,0.6-0.2,1.2-0.7,1.7l0,0c-0.5,0.5-1.1,0.7-1.7,0.7l0,0C308.9,311.6,308.3,311.4,307.8,310.9z M301,304.1
				c-0.5-0.5-0.7-1.1-0.7-1.7l0,0c0-0.6,0.2-1.2,0.7-1.7l0,0c0.9-0.9,2.5-0.9,3.4,0l0,0c0.5,0.5,0.7,1.1,0.7,1.7l0,0
				c0,0.6-0.2,1.2-0.7,1.7l0,0c-0.5,0.5-1.1,0.7-1.7,0.7l0,0C302,304.8,301.4,304.6,301,304.1z M294.1,297.2
				c-0.5-0.5-0.7-1.1-0.7-1.7l0,0c0-0.6,0.2-1.2,0.7-1.7l0,0c0.9-0.9,2.5-0.9,3.4,0l0,0c0.5,0.5,0.7,1.1,0.7,1.7l0,0
				c0,0.6-0.2,1.2-0.7,1.7l0,0c-0.5,0.5-1.1,0.7-1.7,0.7l0,0C295.2,297.9,294.6,297.7,294.1,297.2z M287.2,290.4
				c-0.5-0.5-0.7-1.1-0.7-1.7l0,0c0-0.6,0.2-1.2,0.7-1.7l0,0c0.9-0.9,2.4-0.9,3.4,0l0,0c0.5,0.5,0.7,1.1,0.7,1.7l0,0
				c0,0.6-0.2,1.2-0.7,1.7l0,0c-0.5,0.5-1.1,0.7-1.7,0.7l0,0C288.4,291.1,287.7,290.8,287.2,290.4z M280.4,283.5
				c-0.5-0.5-0.7-1.1-0.7-1.7l0,0c0-0.6,0.2-1.2,0.7-1.7l0,0c0.9-0.9,2.4-0.9,3.4,0l0,0c0.5,0.5,0.7,1.1,0.7,1.7l0,0
				c0,0.6-0.2,1.2-0.7,1.7l0,0c-0.5,0.5-1.1,0.7-1.7,0.7l0,0C281.5,284.2,280.9,284,280.4,283.5z M273.6,276.7
				c-0.5-0.5-0.7-1.1-0.7-1.7l0,0c0-0.6,0.2-1.2,0.7-1.7l0,0c0.9-0.9,2.5-0.9,3.4,0l0,0c0.5,0.5,0.7,1.1,0.7,1.7l0,0
				c0,0.6-0.2,1.2-0.7,1.7l0,0c-0.5,0.5-1.1,0.7-1.7,0.7l0,0C274.7,277.4,274.1,277.2,273.6,276.7z M266.7,269.9
				c-0.5-0.5-0.7-1.1-0.7-1.7l0,0c0-0.6,0.2-1.2,0.7-1.7l0,0c0.9-0.9,2.5-0.9,3.4,0l0,0c0.5,0.5,0.7,1.1,0.7,1.7l0,0
				c0,0.6-0.2,1.2-0.7,1.7l0,0c-0.5,0.5-1.1,0.7-1.7,0.7l0,0C267.8,270.6,267.2,270.3,266.7,269.9z M259.9,263
				c-0.5-0.5-0.7-1.1-0.7-1.7l0,0c0-0.6,0.2-1.2,0.7-1.7l0,0c0.9-0.9,2.5-0.9,3.4,0l0,0c0.5,0.5,0.7,1.1,0.7,1.7l0,0
				c0,0.6-0.2,1.2-0.7,1.7l0,0c-0.5,0.5-1.1,0.7-1.7,0.7l0,0C261,263.7,260.4,263.5,259.9,263z M253.1,256.2
				c-0.5-0.5-0.7-1.1-0.7-1.7l0,0c0-0.6,0.2-1.2,0.7-1.7l0,0c0.9-0.9,2.4-0.9,3.4,0l0,0c0.5,0.5,0.7,1.1,0.7,1.7l0,0
				c0,0.6-0.2,1.2-0.7,1.7l0,0c-0.5,0.5-1.1,0.7-1.7,0.7l0,0C254.1,256.9,253.5,256.7,253.1,256.2z M246.2,249.4
				c-0.5-0.5-0.7-1.1-0.7-1.7l0,0c0-0.6,0.2-1.2,0.7-1.7l0,0c0.9-0.9,2.4-0.9,3.4,0l0,0c0.5,0.5,0.7,1.1,0.7,1.7l0,0
				c0,0.6-0.2,1.2-0.7,1.7l0,0c-0.5,0.5-1.1,0.7-1.7,0.7l0,0C247.3,250,246.7,249.8,246.2,249.4z M239.3,242.5
				c-0.5-0.5-0.7-1.1-0.7-1.7l0,0c0-0.6,0.2-1.2,0.7-1.7l0,0c0.9-0.9,2.5-0.9,3.4,0l0,0c0.5,0.5,0.7,1.1,0.7,1.7l0,0
				c0,0.6-0.2,1.2-0.7,1.7l0,0c-0.5,0.5-1.1,0.7-1.7,0.7l0,0C240.5,243.2,239.8,242.9,239.3,242.5z M232.5,235.6
				c-0.5-0.5-0.7-1.1-0.7-1.7l0,0c0-0.6,0.2-1.2,0.7-1.7l0,0c0.9-0.9,2.5-0.9,3.4,0l0,0c0.5,0.5,0.7,1.1,0.7,1.7l0,0
				c0,0.6-0.2,1.2-0.7,1.7l0,0c-0.5,0.5-1.1,0.7-1.7,0.7l0,0C233.6,236.3,233,236.1,232.5,235.6z M225.7,228.8
				c-0.5-0.5-0.7-1.1-0.7-1.7l0,0c0-0.6,0.2-1.2,0.7-1.7l0,0c0.9-0.9,2.5-0.9,3.4,0l0,0c0.5,0.5,0.7,1.1,0.7,1.7l0,0
				c0,0.6-0.2,1.2-0.7,1.7l0,0c-0.5,0.5-1.1,0.7-1.7,0.7l0,0C226.7,229.5,226.1,229.3,225.7,228.8z M218.8,222
				c-0.5-0.5-0.7-1.1-0.7-1.7l0,0c0-0.6,0.2-1.2,0.7-1.7l0,0c0.9-0.9,2.5-0.9,3.4,0l0,0c0.5,0.5,0.7,1.1,0.7,1.7l0,0
				c0,0.6-0.2,1.2-0.7,1.7l0,0c-0.5,0.5-1.1,0.7-1.7,0.7l0,0C219.9,222.7,219.3,222.4,218.8,222z M212,215.1
				c-0.5-0.5-0.7-1.1-0.7-1.7l0,0c0-0.6,0.2-1.2,0.7-1.7l0,0c0.9-0.9,2.4-0.9,3.4,0l0,0c0.5,0.5,0.7,1.1,0.7,1.7l0,0
				c0,0.6-0.2,1.2-0.7,1.7l0,0c-0.5,0.5-1.1,0.7-1.7,0.7l0,0C213.1,215.8,212.4,215.6,212,215.1z M205.1,208.3
				c-0.5-0.5-0.7-1.1-0.7-1.7l0,0c0-0.6,0.2-1.2,0.7-1.7l0,0c0.9-0.9,2.5-0.9,3.4,0l0,0c0.5,0.5,0.7,1.1,0.7,1.7l0,0
				c0,0.6-0.2,1.2-0.7,1.7l0,0c-0.5,0.5-1.1,0.7-1.7,0.7l0,0C206.2,209,205.6,208.7,205.1,208.3z M198.3,201.4
				c-0.5-0.5-0.7-1.1-0.7-1.7l0,0c0-0.6,0.2-1.2,0.7-1.7l0,0c0.9-0.9,2.5-0.9,3.4,0l0,0c0.5,0.5,0.7,1.1,0.7,1.7l0,0
				c0,0.6-0.2,1.2-0.7,1.7l0,0c-0.5,0.5-1.1,0.7-1.7,0.7l0,0C199.4,202.1,198.8,201.9,198.3,201.4z M191.4,194.6
				c-0.5-0.5-0.7-1.1-0.7-1.7l0,0c0-0.6,0.2-1.2,0.7-1.7l0,0c0.9-0.9,2.5-0.9,3.4,0l0,0c0.5,0.5,0.7,1.1,0.7,1.7l0,0
				c0,0.6-0.2,1.2-0.7,1.7l0,0c-0.5,0.5-1.1,0.7-1.7,0.7l0,0C192.6,195.3,191.9,195,191.4,194.6z M184.6,187.7
				c-0.5-0.5-0.7-1.1-0.7-1.7l0,0c0-0.6,0.2-1.2,0.7-1.7l0,0c0.9-0.9,2.5-0.9,3.4,0l0,0c0.5,0.5,0.7,1.1,0.7,1.7l0,0
				c0,0.6-0.2,1.2-0.7,1.7l0,0c-0.5,0.5-1.1,0.7-1.7,0.7l0,0C185.7,188.4,185.1,188.2,184.6,187.7z M177.8,180.9
				c-0.5-0.5-0.7-1.1-0.7-1.7l0,0c0-0.6,0.2-1.2,0.7-1.7l0,0c0.9-0.9,2.4-0.9,3.4,0l0,0c0.5,0.5,0.7,1.1,0.7,1.7l0,0
				c0,0.6-0.2,1.2-0.7,1.7l0,0c-0.5,0.5-1.1,0.7-1.7,0.7l0,0C178.8,181.6,178.2,181.4,177.8,180.9z M170.9,174.1
				c-0.5-0.5-0.7-1.1-0.7-1.7l0,0c0-0.6,0.2-1.2,0.7-1.7l0,0c0.9-0.9,2.5-0.9,3.4,0l0,0c0.5,0.5,0.7,1.1,0.7,1.7l0,0
				c0,0.6-0.2,1.2-0.7,1.7l0,0c-0.5,0.5-1.1,0.7-1.7,0.7l0,0C172,174.7,171.4,174.5,170.9,174.1z M164,167.2
				c-0.5-0.5-0.7-1.1-0.7-1.7l0,0c0-0.6,0.2-1.2,0.7-1.7l0,0c0.9-0.9,2.4-0.9,3.4,0l0,0c0.5,0.5,0.7,1.1,0.7,1.7l0,0
				c0,0.6-0.2,1.2-0.7,1.7l0,0c-0.5,0.5-1.1,0.7-1.7,0.7l0,0C165.2,167.9,164.5,167.6,164,167.2z M157.2,160.3
				c-0.5-0.5-0.7-1.1-0.7-1.7l0,0c0-0.6,0.2-1.2,0.7-1.7l0,0c0.9-0.9,2.5-0.9,3.4,0l0,0c0.5,0.5,0.7,1.1,0.7,1.7l0,0
				c0,0.6-0.2,1.2-0.7,1.7l0,0c-0.5,0.5-1.1,0.7-1.7,0.7l0,0C158.3,161.1,157.7,160.8,157.2,160.3z M150.4,153.5
				c-0.5-0.5-0.7-1.1-0.7-1.7l0,0c0-0.6,0.2-1.2,0.7-1.7l0,0c0.9-0.9,2.5-0.9,3.4,0l0,0c0.5,0.5,0.7,1.1,0.7,1.7l0,0
				c0,0.6-0.2,1.2-0.7,1.7l0,0c-0.5,0.5-1.1,0.7-1.7,0.7l0,0C151.5,154.2,150.9,154,150.4,153.5z M143.5,146.7
				c-0.5-0.5-0.7-1.1-0.7-1.7l0,0c0-0.6,0.2-1.2,0.7-1.7l0,0c0.9-0.9,2.5-0.9,3.4,0l0,0c0.5,0.5,0.7,1.1,0.7,1.7l0,0
				c0,0.6-0.2,1.2-0.7,1.7l0,0c-0.5,0.5-1.1,0.7-1.7,0.7l0,0C144.6,147.4,144,147.1,143.5,146.7z M136.7,139.8
				c-0.5-0.5-0.7-1.1-0.7-1.7l0,0c0-0.6,0.2-1.2,0.7-1.7l0,0c0.9-0.9,2.5-0.9,3.4,0l0,0c0.5,0.5,0.7,1.1,0.7,1.7l0,0
				c0,0.6-0.2,1.2-0.7,1.7l0,0c-0.5,0.5-1.1,0.7-1.7,0.7l0,0C137.8,140.5,137.1,140.3,136.7,139.8z M129.8,133
				c-0.5-0.5-0.7-1.1-0.7-1.7l0,0c0-0.6,0.2-1.2,0.7-1.7l0,0c0.9-0.9,2.4-0.9,3.4,0l0,0c0.5,0.5,0.7,1.1,0.7,1.7l0,0
				c0,0.6-0.2,1.2-0.7,1.7l0,0c-0.5,0.5-1.1,0.7-1.7,0.7l0,0C130.9,133.7,130.3,133.4,129.8,133z M123,126.1
				c-0.5-0.5-0.7-1.1-0.7-1.7l0,0c0-0.6,0.2-1.2,0.7-1.7l0,0c0.9-0.9,2.5-0.9,3.4,0l0,0c0.5,0.5,0.7,1.1,0.7,1.7l0,0
				c0,0.6-0.2,1.2-0.7,1.7l0,0c-0.5,0.5-1.1,0.7-1.7,0.7l0,0C124.1,126.8,123.5,126.6,123,126.1z M116.1,119.3
				c-0.5-0.5-0.7-1.1-0.7-1.7l0,0c0-0.6,0.2-1.2,0.7-1.7l0,0c0.9-0.9,2.5-0.9,3.4,0l0,0c0.5,0.5,0.7,1.1,0.7,1.7l0,0
				c0,0.6-0.2,1.2-0.7,1.7l0,0c-0.5,0.5-1.1,0.7-1.7,0.7l0,0C117.3,120,116.6,119.7,116.1,119.3z M109.3,112.4
				c-0.5-0.5-0.7-1.1-0.7-1.7l0,0c0-0.6,0.2-1.2,0.7-1.7l0,0c0.9-0.9,2.5-0.9,3.4,0l0,0c0.5,0.5,0.7,1.1,0.7,1.7l0,0
				c0,0.6-0.2,1.2-0.7,1.7l0,0c-0.5,0.5-1.1,0.7-1.7,0.7l0,0C110.4,113.2,109.8,112.9,109.3,112.4z M102.5,105.6
				c-0.5-0.5-0.7-1.1-0.7-1.7l0,0c0-0.6,0.2-1.2,0.7-1.7l0,0c0.9-0.9,2.4-0.9,3.4,0l0,0c0.5,0.5,0.7,1.1,0.7,1.7l0,0
				c0,0.6-0.2,1.2-0.7,1.7l0,0c-0.5,0.5-1.1,0.7-1.7,0.7l0,0C103.5,106.3,103,106.1,102.5,105.6z"/>
			<path class="st0" d="M81.9,317.8c-0.5-0.5-0.7-1.1-0.7-1.7l0,0c0-0.6,0.2-1.2,0.7-1.7l0,0c0.9-0.9,2.5-0.9,3.4,0l0,0
				c0.5,0.5,0.7,1.1,0.7,1.7l0,0c0,0.6-0.2,1.2-0.7,1.7l0,0c-0.5,0.5-1.1,0.7-1.7,0.7l0,0C83,318.5,82.4,318.2,81.9,317.8z
				 M88.8,310.9c-0.5-0.5-0.7-1.1-0.7-1.7l0,0c0-0.6,0.2-1.2,0.7-1.7l0,0c0.9-0.9,2.5-0.9,3.4,0l0,0c0.5,0.5,0.7,1.1,0.7,1.7l0,0
				c0,0.6-0.2,1.2-0.7,1.7l0,0c-0.5,0.5-1.1,0.7-1.7,0.7l0,0C89.9,311.6,89.2,311.4,88.8,310.9z M95.6,304.1
				c-0.5-0.5-0.7-1.1-0.7-1.7l0,0c0-0.6,0.2-1.2,0.7-1.7l0,0c0.9-0.9,2.5-0.9,3.4,0l0,0c0.5,0.5,0.7,1.1,0.7,1.7l0,0
				c0,0.6-0.2,1.2-0.7,1.7l0,0c-0.5,0.5-1.1,0.7-1.7,0.7l0,0C96.7,304.8,96.1,304.6,95.6,304.1z M102.5,297.2
				c-0.5-0.5-0.7-1.1-0.7-1.7l0,0c0-0.6,0.2-1.2,0.7-1.7l0,0c0.9-0.9,2.5-0.9,3.4,0l0,0c0.5,0.5,0.7,1.1,0.7,1.7l0,0
				c0,0.6-0.2,1.2-0.7,1.7l0,0c-0.5,0.5-1.1,0.7-1.7,0.7l0,0C103.5,297.9,103,297.7,102.5,297.2z M109.3,290.4
				c-0.5-0.5-0.7-1.1-0.7-1.7l0,0c0-0.6,0.2-1.2,0.7-1.7l0,0c0.9-0.9,2.4-0.9,3.4,0l0,0c0.5,0.5,0.7,1.1,0.7,1.7l0,0
				c0,0.6-0.2,1.2-0.7,1.7l0,0c-0.5,0.5-1.1,0.7-1.7,0.7l0,0C110.4,291.1,109.8,290.8,109.3,290.4z M116.1,283.5
				c-0.5-0.5-0.7-1.1-0.7-1.7l0,0c0-0.6,0.2-1.2,0.7-1.7l0,0c0.9-0.9,2.5-0.9,3.4,0l0,0c0.5,0.5,0.7,1.1,0.7,1.7l0,0
				c0,0.6-0.2,1.2-0.7,1.7l0,0c-0.5,0.5-1.1,0.7-1.7,0.7l0,0C117.3,284.2,116.6,284,116.1,283.5z M123,276.7
				c-0.5-0.5-0.7-1.1-0.7-1.7l0,0c0-0.6,0.2-1.2,0.7-1.7l0,0c0.9-0.9,2.5-0.9,3.4,0l0,0c0.5,0.5,0.7,1.1,0.7,1.7l0,0
				c0,0.6-0.2,1.2-0.7,1.7l0,0c-0.5,0.5-1.1,0.7-1.7,0.7l0,0C124.1,277.4,123.5,277.2,123,276.7z M129.8,269.9
				c-0.5-0.5-0.7-1.1-0.7-1.7l0,0c0-0.6,0.2-1.2,0.7-1.7l0,0c0.9-0.9,2.5-0.9,3.4,0l0,0c0.5,0.5,0.7,1.1,0.7,1.7l0,0
				c0,0.6-0.2,1.2-0.7,1.7l0,0c-0.5,0.5-1.1,0.7-1.7,0.7l0,0C130.9,270.6,130.3,270.3,129.8,269.9z M136.7,263
				c-0.5-0.5-0.7-1.1-0.7-1.7l0,0c0-0.6,0.2-1.2,0.7-1.7l0,0c0.9-0.9,2.5-0.9,3.4,0l0,0c0.5,0.5,0.7,1.1,0.7,1.7l0,0
				c0,0.6-0.2,1.2-0.7,1.7l0,0c-0.5,0.5-1.1,0.7-1.7,0.7l0,0C137.8,263.7,137.1,263.5,136.7,263z M143.5,256.2
				c-0.5-0.5-0.7-1.1-0.7-1.7l0,0c0-0.6,0.2-1.2,0.7-1.7l0,0c0.9-0.9,2.5-0.9,3.4,0l0,0c0.5,0.5,0.7,1.1,0.7,1.7l0,0
				c0,0.6-0.2,1.2-0.7,1.7l0,0c-0.5,0.5-1.1,0.7-1.7,0.7l0,0C144.6,256.9,144,256.7,143.5,256.2z M150.4,249.4
				c-0.5-0.5-0.7-1.1-0.7-1.7l0,0c0-0.6,0.2-1.2,0.7-1.7l0,0c0.9-0.9,2.4-0.9,3.4,0l0,0c0.5,0.5,0.7,1.1,0.7,1.7l0,0
				c0,0.6-0.2,1.2-0.7,1.7l0,0c-0.5,0.5-1.1,0.7-1.7,0.7l0,0C151.5,250,150.9,249.8,150.4,249.4z M157.2,242.5
				c-0.5-0.5-0.7-1.1-0.7-1.7l0,0c0-0.6,0.2-1.2,0.7-1.7l0,0c0.9-0.9,2.5-0.9,3.4,0l0,0c0.5,0.5,0.7,1.1,0.7,1.7l0,0
				c0,0.6-0.2,1.2-0.7,1.7l0,0c-0.5,0.5-1.1,0.7-1.7,0.7l0,0C158.3,243.2,157.7,242.9,157.2,242.5z M164,235.6
				c-0.5-0.5-0.7-1.1-0.7-1.7l0,0c0-0.6,0.2-1.2,0.7-1.7l0,0c0.9-0.9,2.5-0.9,3.4,0l0,0c0.5,0.5,0.7,1.1,0.7,1.7l0,0
				c0,0.6-0.2,1.2-0.7,1.7l0,0c-0.5,0.5-1.1,0.7-1.7,0.7l0,0C165.2,236.3,164.5,236.1,164,235.6z M170.9,228.8
				c-0.5-0.5-0.7-1.1-0.7-1.7l0,0c0-0.6,0.2-1.2,0.7-1.7l0,0c0.9-0.9,2.5-0.9,3.4,0l0,0c0.5,0.5,0.7,1.1,0.7,1.7l0,0
				c0,0.6-0.2,1.2-0.7,1.7l0,0c-0.5,0.5-1.1,0.7-1.7,0.7l0,0C172,229.5,171.4,229.3,170.9,228.8z M177.8,222
				c-0.5-0.5-0.7-1.1-0.7-1.7l0,0c0-0.6,0.2-1.2,0.7-1.7l0,0c0.9-0.9,2.5-0.9,3.4,0l0,0c0.5,0.5,0.7,1.1,0.7,1.7l0,0
				c0,0.6-0.2,1.2-0.7,1.7l0,0c-0.5,0.5-1.1,0.7-1.7,0.7l0,0C178.8,222.7,178.2,222.4,177.8,222z M184.6,215.1
				c-0.5-0.5-0.7-1.1-0.7-1.7l0,0c0-0.6,0.2-1.2,0.7-1.7l0,0c0.9-0.9,2.4-0.9,3.4,0l0,0c0.5,0.5,0.7,1.1,0.7,1.7l0,0
				c0,0.6-0.2,1.2-0.7,1.7l0,0c-0.5,0.5-1.1,0.7-1.7,0.7l0,0C185.7,215.8,185.1,215.6,184.6,215.1z M191.4,208.3
				c-0.5-0.5-0.7-1.1-0.7-1.7l0,0c0-0.6,0.2-1.2,0.7-1.7l0,0c0.9-0.9,2.4-0.9,3.4,0l0,0c0.5,0.5,0.7,1.1,0.7,1.7l0,0
				c0,0.6-0.2,1.2-0.7,1.7l0,0c-0.5,0.5-1.1,0.7-1.7,0.7l0,0C192.6,209,191.9,208.7,191.4,208.3z M198.3,201.4
				c-0.5-0.5-0.7-1.1-0.7-1.7l0,0c0-0.6,0.2-1.2,0.7-1.7l0,0c0.9-0.9,2.5-0.9,3.4,0l0,0c0.5,0.5,0.7,1.1,0.7,1.7l0,0
				c0,0.6-0.2,1.2-0.7,1.7l0,0c-0.5,0.5-1.1,0.7-1.7,0.7l0,0C199.4,202.1,198.8,201.9,198.3,201.4z M205.1,194.6
				c-0.5-0.5-0.7-1.1-0.7-1.7l0,0c0-0.6,0.2-1.2,0.7-1.7l0,0c0.9-0.9,2.5-0.9,3.4,0l0,0c0.5,0.5,0.7,1.1,0.7,1.7l0,0
				c0,0.6-0.2,1.2-0.7,1.7l0,0c-0.5,0.5-1.1,0.7-1.7,0.7l0,0C206.2,195.3,205.6,195,205.1,194.6z M212,187.7
				c-0.5-0.5-0.7-1.1-0.7-1.7l0,0c0-0.6,0.2-1.2,0.7-1.7l0,0c0.9-0.9,2.5-0.9,3.4,0l0,0c0.5,0.5,0.7,1.1,0.7,1.7l0,0
				c0,0.6-0.2,1.2-0.7,1.7l0,0c-0.5,0.5-1.1,0.7-1.7,0.7l0,0C213.1,188.4,212.4,188.2,212,187.7z M218.8,180.9
				c-0.5-0.5-0.7-1.1-0.7-1.7l0,0c0-0.6,0.2-1.2,0.7-1.7l0,0c0.9-0.9,2.4-0.9,3.4,0l0,0c0.5,0.5,0.7,1.1,0.7,1.7l0,0
				c0,0.6-0.2,1.2-0.7,1.7l0,0c-0.5,0.5-1.1,0.7-1.7,0.7l0,0C219.9,181.6,219.3,181.4,218.8,180.9z M225.7,174.1
				c-0.5-0.5-0.7-1.1-0.7-1.7l0,0c0-0.6,0.2-1.2,0.7-1.7l0,0c0.9-0.9,2.5-0.9,3.4,0l0,0c0.5,0.5,0.7,1.1,0.7,1.7l0,0
				c0,0.6-0.2,1.2-0.7,1.7l0,0c-0.5,0.5-1.1,0.7-1.7,0.7l0,0C226.7,174.7,226.2,174.5,225.7,174.1z M232.5,167.2
				c-0.5-0.5-0.7-1.1-0.7-1.7l0,0c0-0.6,0.2-1.2,0.7-1.7l0,0c0.9-0.9,2.5-0.9,3.4,0l0,0c0.5,0.5,0.7,1.1,0.7,1.7l0,0
				c0,0.6-0.2,1.2-0.7,1.7l0,0c-0.5,0.5-1.1,0.7-1.7,0.7l0,0C233.6,167.9,233,167.6,232.5,167.2z M239.3,160.3
				c-0.5-0.5-0.7-1.1-0.7-1.7l0,0c0-0.6,0.2-1.2,0.7-1.7l0,0c0.9-0.9,2.5-0.9,3.4,0l0,0c0.5,0.5,0.7,1.1,0.7,1.7l0,0
				c0,0.6-0.2,1.2-0.7,1.7l0,0c-0.5,0.5-1.1,0.7-1.7,0.7l0,0C240.5,161.1,239.8,160.8,239.3,160.3z M246.2,153.5
				c-0.5-0.5-0.7-1.1-0.7-1.7l0,0c0-0.6,0.2-1.2,0.7-1.7l0,0c0.9-0.9,2.5-0.9,3.4,0l0,0c0.5,0.5,0.7,1.1,0.7,1.7l0,0
				c0,0.6-0.2,1.2-0.7,1.7l0,0c-0.5,0.5-1.1,0.7-1.7,0.7l0,0C247.3,154.2,246.7,154,246.2,153.5z M253.1,146.7
				c-0.5-0.5-0.7-1.1-0.7-1.7l0,0c0-0.6,0.2-1.2,0.7-1.7l0,0c0.9-0.9,2.4-0.9,3.4,0l0,0c0.5,0.5,0.7,1.1,0.7,1.7l0,0
				c0,0.6-0.2,1.2-0.7,1.7l0,0c-0.5,0.5-1.1,0.7-1.7,0.7l0,0C254.1,147.4,253.5,147.1,253.1,146.7z M259.9,139.8
				c-0.5-0.5-0.7-1.1-0.7-1.7l0,0c0-0.6,0.2-1.2,0.7-1.7l0,0c0.9-0.9,2.4-0.9,3.4,0l0,0c0.5,0.5,0.7,1.1,0.7,1.7l0,0
				c0,0.6-0.2,1.2-0.7,1.7l0,0c-0.5,0.5-1.1,0.7-1.7,0.7l0,0C261,140.5,260.4,140.3,259.9,139.8z M266.7,133
				c-0.5-0.5-0.7-1.1-0.7-1.7l0,0c0-0.6,0.2-1.2,0.7-1.7l0,0c0.9-0.9,2.5-0.9,3.4,0l0,0c0.5,0.5,0.7,1.1,0.7,1.7l0,0
				c0,0.6-0.2,1.2-0.7,1.7l0,0c-0.5,0.5-1.1,0.7-1.7,0.7l0,0C267.8,133.7,267.2,133.4,266.7,133z M273.6,126.1
				c-0.5-0.5-0.7-1.1-0.7-1.7l0,0c0-0.6,0.2-1.2,0.7-1.7l0,0c0.9-0.9,2.5-0.9,3.4,0l0,0c0.5,0.5,0.7,1.1,0.7,1.7l0,0
				c0,0.6-0.2,1.2-0.7,1.7l0,0c-0.5,0.5-1.1,0.7-1.7,0.7l0,0C274.7,126.8,274.1,126.6,273.6,126.1z M280.4,119.3
				c-0.5-0.5-0.7-1.1-0.7-1.7l0,0c0-0.6,0.2-1.2,0.7-1.7l0,0c0.9-0.9,2.5-0.9,3.4,0l0,0c0.5,0.5,0.7,1.1,0.7,1.7l0,0
				c0,0.6-0.2,1.2-0.7,1.7l0,0c-0.5,0.5-1.1,0.7-1.7,0.7l0,0C281.5,120,280.9,119.7,280.4,119.3z M287.2,112.4
				c-0.5-0.5-0.7-1.1-0.7-1.7l0,0c0-0.6,0.2-1.2,0.7-1.7l0,0c0.9-0.9,2.5-0.9,3.4,0l0,0c0.5,0.5,0.7,1.1,0.7,1.7l0,0
				c0,0.6-0.2,1.2-0.7,1.7l0,0c-0.5,0.5-1.1,0.7-1.7,0.7l0,0C288.4,113.2,287.7,112.9,287.2,112.4z M294.1,105.6
				c-0.5-0.5-0.7-1.1-0.7-1.7l0,0c0-0.6,0.2-1.2,0.7-1.7l0,0c0.9-0.9,2.4-0.9,3.4,0l0,0c0.5,0.5,0.7,1.1,0.7,1.7l0,0
				c0,0.6-0.2,1.2-0.7,1.7l0,0c-0.5,0.5-1.1,0.7-1.7,0.7l0,0C295.2,106.3,294.6,106.1,294.1,105.6z M301,98.8
				c-0.5-0.5-0.7-1.1-0.7-1.7l0,0c0-0.6,0.2-1.2,0.7-1.7l0,0c0.9-0.9,2.5-0.9,3.4,0l0,0c0.5,0.5,0.7,1.1,0.7,1.7l0,0
				c0,0.6-0.2,1.2-0.7,1.7l0,0c-0.5,0.5-1.1,0.7-1.7,0.7l0,0C302,99.5,301.4,99.2,301,98.8z M307.8,91.9c-0.5-0.5-0.7-1.1-0.7-1.7
				l0,0c0-0.6,0.2-1.2,0.7-1.7l0,0c0.9-0.9,2.5-0.9,3.4,0l0,0c0.5,0.5,0.7,1.1,0.7,1.7l0,0c0,0.6-0.2,1.2-0.7,1.7l0,0
				c-0.5,0.5-1.1,0.7-1.7,0.7l0,0C308.9,92.6,308.3,92.4,307.8,91.9z M314.6,85c-0.9-0.9-0.9-2.5,0-3.4l0,0c0.9-0.9,2.5-0.9,3.4,0
				l0,0c0.9,0.9,0.9,2.4,0,3.4l0,0c-0.5,0.5-1.1,0.7-1.7,0.7l0,0C315.8,85.8,315.1,85.5,314.6,85z"/>
		</g>
		<circle class="st0" cx="316.5" cy="316" r="22.6"/>
		<circle class="st0" cx="83.8" cy="316.1" r="22.6"/>
		<circle class="st0" cx="316.7" cy="83.1" r="22.6"/>
		<circle class="st0" cx="83.2" cy="82.7" r="22.6"/>
	</g>
</g>
</svg>
