<?xml version="1.0" encoding="utf-8"?>
<!-- Generator: Adobe Illustrator 25.2.0, SVG Export Plug-In . SVG Version: 6.00 Build 0)  -->
<svg version="1.1" id="레이어_1" xmlns="http://www.w3.org/2000/svg" xmlns:xlink="http://www.w3.org/1999/xlink" x="0px"
	 y="0px" viewBox="0 0 400 400" style="enable-background:new 0 0 400 400;" xml:space="preserve">
<style type="text/css">
	.st0{fill:#FFFFFF;}
</style>
<path class="st0" d="M31.1,156.3c0-14.8,0-29.6,0-44.5c0-6.4,3.6-10.9,8.6-14.1c7.2-4.6,14.7-8.8,22.2-13c8-4.5,16-9.2,24-13.8
	c7-4,13.9-7.9,20.8-12c4.5-2.6,9.1-5.1,14.2-6.3c3.9-0.9,7.8,0,11.1,1.8c10.4,5.7,20.7,11.8,31,17.8c7,4.1,13.9,8.2,20.9,12.1
	c6.5,3.7,12.7,7.9,19.3,11.5c3.7,2,6.8,4.4,9,7.9c1.3,2.2,2.5,4.4,2.5,7.2c-0.1,10-0.1,19.9,0.1,29.9c0,2.4-1,3.5-2.8,4.5
	c-6.8,3.7-13.3,7.6-19.9,11.6c-2.5,1.5-5.3,2.7-7.7,4.5c-0.7,0.5-1.1,0.2-1.2-0.5c-0.1-0.7-0.1-1.3-0.1-2c0-7.2-0.2-14.4,0-21.6
	c0.2-6.7-1.5-12.7-6-17.7c-2.7-3.1-6.5-4.9-10-6.9c-4.3-2.4-8.5-5.1-12.9-7.4c-4.9-2.6-9.5-5.6-14.4-8.1c-3.1-1.6-6.1-3.6-9.3-5
	c-1.8-0.8-3.5-0.7-5.3-1c-6.5-0.9-11.9,1.8-17.3,5c-6.6,3.9-13.3,7.7-19.9,11.5c-5.4,3.1-11,6.1-16.3,9.4c-2.8,1.8-4.8,4.5-6.2,7.6
	c-2.2,4.6-2.5,9.3-2.5,14.2c0.1,13-0.1,26,0.1,38.9c0.1,8.4,4.3,14.8,11.2,19.1c7.2,4.6,14.7,8.6,22.1,12.8
	c6.4,3.7,12.5,7.7,19.2,10.7c4,1.8,8.3,2.9,13.2,1.2c6.3-2.1,11.4-6,16.9-9.1c7.3-4,14.4-8.3,21.6-12.6c6.5-3.8,12.9-7.7,19.4-11.5
	c6.7-3.8,13.5-7.4,20.1-11.2c6.4-3.6,12.7-7.4,19.1-11.1c5.7-3.3,11.3-6.8,17.1-10c6.3-3.5,12.4-7.5,18.7-11.1
	c3-1.8,6.2-3.2,9.6-4.3c4.4-1.5,8.2-0.2,12.1,0.7c3,0.7,5.6,3,8.4,4.6c7.8,4.5,15.8,8.7,23.4,13.4c9.9,6.1,20.2,11.5,30.1,17.6
	c5,3,10.2,5.8,15.1,8.8c5.7,3.5,8.4,8.8,8.5,15.4c0.1,28.6,0.1,57.3,0,85.9c0,8.4-4.9,13.9-11.9,17.8c-6.6,3.7-13.2,7.5-19.9,11.2
	c-5.8,3.3-11.6,6.6-17.4,9.9c-4,2.3-7.9,4.7-11.8,7c-5.5,3.2-11,6.2-16.5,9.4c-2.7,1.6-5.5,2.9-8.4,4.2c-0.7,0.3-1.4,0.4-2.2,0.4
	c-1.3,0-2.7-0.1-4,0.1c-5.3,0.6-9.7-1.4-14.1-4.1c-5.2-3.1-10.5-6.1-15.8-9.2c-6.7-3.9-13.5-7.7-20.3-11.5
	c-7.5-4.3-15.1-8.5-22.6-12.9c-4.3-2.6-9-4.6-12.9-7.8c-2.9-2.4-5.1-5.2-6.4-9c-1.2-3.2-1.1-6.4-1.2-9.6c0-6.9,0.3-13.9-0.1-20.8
	c-0.2-3.9,1.1-6.1,4.4-7.9c8.7-4.9,17.3-10,25.9-15.1c1.8-1,2.5-0.6,2.5,1.6c0,8.6,0.2,17.3-0.1,25.9c-0.2,5.7,2.3,10,5.8,14
	c3.2,3.7,7.8,5.5,11.9,8c4.9,2.9,9.8,5.8,14.7,8.6c6.3,3.6,12.5,7.4,19,10.5c3.3,1.6,7.2,2.8,11.1,1.9c2.9-0.7,5.8-1.8,8.5-3.3
	c4.8-2.6,9.3-5.6,14-8.4c4-2.4,8-5,12.2-7.2c4-2.1,7.8-4.5,11.7-6.8c4.5-2.7,7.7-6.5,9.6-11.6c1.1-2.9,1.2-5.7,1.2-8.6
	c0-13.8,0-27.6,0-41.4c0-8.9-4.1-15.5-11.7-20c-7.3-4.3-14.7-8.5-22.1-12.7c-5.5-3.2-11-6.5-16.6-9.5c-4.7-2.6-10.1-2.8-15.1-1.7
	c-3.5,0.7-6.6,3.2-9.9,4.9c-5,2.6-9.6,5.8-14.6,8.4c-3.7,1.9-7.3,4.2-10.9,6.3c-5.9,3.4-11.8,6.7-17.6,10.2
	c-6.5,3.9-13,7.8-19.6,11.7c-5.3,3.1-10.8,6.1-16.1,9.2c-7.7,4.5-15.3,9-23,13.5c-6.5,3.7-13.3,7.1-19.6,11.1
	c-3.8,2.5-7.9,4.1-12.1,5.5c-2.3,0.7-4.9,0.6-7.4-0.2c-11-3.6-20.2-10.8-30.4-16.1c-7.2-3.7-14.1-8-21.1-12
	c-9.6-5.5-19.3-10.8-28.6-16.7c-4.9-3.1-8.4-7.8-8.3-14.2C31.2,185.8,31.1,171,31.1,156.3z"/>
</svg>
