<?xml version="1.0" encoding="utf-8"?>
<!-- Generator: Adobe Illustrator 25.2.0, SVG Export Plug-In . SVG Version: 6.00 Build 0)  -->
<svg version="1.1" id="레이어_1" xmlns="http://www.w3.org/2000/svg" xmlns:xlink="http://www.w3.org/1999/xlink" x="0px"
	 y="0px" viewBox="0 0 400 400" style="enable-background:new 0 0 400 400;" xml:space="preserve">
<style type="text/css">
	.st0{fill:#FFFFFF;}
	.st1{fill:#CECECE;}
</style>
<g id="레이어_2_1_">
</g>
<g id="레이어_1_1_">
	<g>
		<path class="st0" d="M200,352.9c-0.6-0.3-1.2-0.6-1.7-0.9C129.9,311.9,78.2,246,57.2,167c-3.3-12.5-5.8-25.2-7.5-38
			c-1.7-12.9-2.6-25.9-2.7-39c0-2.2-0.2-1.9,1.7-3c25.7-14.6,52.9-25.3,81.7-32c10.6-2.5,21.4-4.4,32.2-5.7
			c14.9-1.8,29.9-2.6,44.9-2.2c8.4,0.2,16.8,0.8,25.2,1.6c41.9,4.5,81.3,17.1,118,37.8c0.5,0.3,1,0.6,1.6,0.9s0.9,0.8,0.9,1.5
			s0,1.5,0,2.2c-0.1,7.6-0.4,15.1-1,22.6c-0.9,10.8-2.4,21.6-4.4,32.2c-4.4,22.9-11.3,45-20.8,66.3c-15.1,33.8-35.7,63.9-61.6,90.2
			c-18.7,19-39.6,35.3-62.6,48.9C201.8,351.9,201,352.3,200,352.9z M61,97.5c0,0.7,0,1.3,0,1.8c0,10.7,0.7,21.4,2,32.1
			c1.2,9.6,2.8,19.2,5,28.6c0.4,1.7,0.9,3.3,1.6,4.8c13.1,27.9,43.5,42.8,73.6,35.9c23-5.2,41.6-22.9,48-45.6
			c1.8-6.3,2.4-12.7,2.6-19.1c0.1-4.3,0.5-8.5,1.3-12.7c4.9-25.7,22.1-46.9,46.1-57c1.3-0.6,2.7-1.1,4.1-1.6
			c0.2-0.1,0.5-0.1,0.4-0.5c-3.8-1.3-26.5-3.6-40.1-3.9c-29.2-0.6-57.8,3.3-85.8,11.7C99.3,78.2,79.7,86.7,61,97.5z M276.6,272.6
			c0.8-0.4,1.1-1,1.5-1.5c5.9-7.3,11.4-14.9,16.5-22.8c18.3-28.3,31.1-59,38.2-92c2.4-11.2,4.1-22.5,5.1-33.9
			c0.7-7.8,1.1-15.6,1.1-23.4c0-0.5-0.1-1.1-0.1-1.6c-0.8-0.4-1.4-0.9-2.1-1.2c-6-3.4-12.1-6.6-18.3-9.5c-9-4.2-18.1-8.1-27.6-11.1
			c-11.6-3.6-23.2-4-35-1.2c-33.5,8.1-54.9,40.9-48.6,74.7c3.5,18.8,13.6,33.3,29.7,43.5c1.1,0.7,2.2,1.3,3.3,2
			c11.8,7.2,21.1,16.9,27.7,29c6.9,12.8,10.1,26.5,9.3,41C277.1,267.3,276.8,269.8,276.6,272.6z M200.1,338c0.6-0.3,1.3-0.7,2-1.1
			c18.4-10.8,35.3-23.7,50.8-38.3c1-0.9,1.8-2,2.4-3.2c1-2,2-3.9,3-5.9c7.3-15.3,8.9-31.1,4-47.3c-9.5-31.6-39.9-49.7-70.4-45.9
			c-8.7,1.1-16.9,3.9-24.5,8.1c-14.5,8.2-30,11.5-46.6,9.9c-8.1-0.8-15.9-2.9-23.4-6.1c-5.9-2.6-11.4-5.9-16.4-9.8
			c-0.4-0.3-0.8-0.5-1.4-0.9c0.2,0.7,0.3,1.1,0.5,1.5c6.5,16.6,14.6,32.4,24.2,47.5c10.4,16.2,22.3,31.3,35.7,45
			c13.5,13.8,28.2,26,44.2,36.8C191.2,332.9,198,337.1,200.1,338z"/>
		<path class="st1" d="M61,97.5c18.7-10.8,38.3-19.3,58.9-25.4c28-8.4,56.6-12.2,85.8-11.7c13.6,0.3,36.3,2.5,40.1,3.9
			c0.1,0.4-0.2,0.4-0.4,0.5c-1.4,0.5-2.7,1-4.1,1.6c-24.1,10.1-41.2,31.3-46.1,57c-0.8,4.2-1.2,8.4-1.3,12.7
			c-0.2,6.5-0.8,12.9-2.6,19.1c-6.4,22.7-25,40.4-48,45.6c-30.1,6.8-60.5-8-73.6-35.9c-0.7-1.6-1.2-3.2-1.6-4.8
			c-2.2-9.4-3.8-19-5-28.6c-1.3-10.7-2-21.3-2-32.1C61,98.7,61,98.2,61,97.5z"/>
		<path class="st1" d="M276.6,272.6c0.2-2.8,0.5-5.3,0.7-7.9c0.8-14.5-2.3-28.2-9.3-41c-6.6-12.2-15.9-21.8-27.7-29
			c-1.1-0.7-2.2-1.3-3.3-2c-16.2-10.2-26.2-24.7-29.7-43.5c-6.3-33.9,15.1-66.7,48.6-74.7c11.8-2.8,23.4-2.4,35,1.2
			c9.5,3,18.6,6.9,27.6,11.1c6.2,2.9,12.3,6.1,18.3,9.5c0.7,0.4,1.4,0.8,2.1,1.2c0,0.5,0.1,1.1,0.1,1.6c0,7.8-0.4,15.6-1.1,23.4
			c-1,11.4-2.7,22.7-5.1,33.9c-7.1,33-19.9,63.6-38.2,92c-5.1,7.9-10.6,15.5-16.5,22.8C277.7,271.6,277.4,272.2,276.6,272.6z"/>
		<path class="st1" d="M200.1,338c-2.2-0.9-9-5-16-9.8c-16-10.7-30.7-23-44.2-36.8s-25.4-28.8-35.7-45
			c-9.6-15.1-17.7-30.9-24.2-47.5c-0.1-0.4-0.2-0.8-0.5-1.5c0.7,0.4,1.1,0.6,1.4,0.9c5.1,3.9,10.5,7.2,16.4,9.8
			c7.5,3.3,15.3,5.4,23.4,6.1c16.6,1.6,32.1-1.8,46.6-9.9c7.6-4.3,15.8-7,24.5-8.1c30.5-3.8,60.9,14.3,70.4,45.9
			c4.9,16.2,3.3,32-4,47.3c-1,2-2,3.9-3,5.9c-0.6,1.2-1.4,2.3-2.4,3.2c-15.5,14.7-32.4,27.5-50.8,38.3
			C201.4,337.3,200.7,337.6,200.1,338z"/>
	</g>
</g>
</svg>
