<?xml version="1.0" encoding="utf-8"?>
<!-- Generator: Adobe Illustrator 25.2.0, SVG Export Plug-In . SVG Version: 6.00 Build 0)  -->
<svg version="1.1" xmlns="http://www.w3.org/2000/svg" xmlns:xlink="http://www.w3.org/1999/xlink" x="0px" y="0px"
	 viewBox="0 0 400 400" style="enable-background:new 0 0 400 400;" xml:space="preserve">
<style type="text/css">
	.st0{fill:#FFFFFF;}
</style>
<g id="레이어_2">
</g>
<g id="레이어_1">
	<g>
		<path class="st0" d="M58.4,60.2c42.6,42.6,84.5,84.5,127.2,127.2c-12.5,0-24.6-0.2-36.7,0.1c-5.8,0.1-13.4-2.6-17,1.2
			c-3.5,3.7-1,11.2-1,17.1c-0.1,42.7-0.1,85.4,0.1,128.1c0,5.4-1.2,7.1-6.9,7c-20.3-0.4-40.6-0.2-60.9-0.1c-3.3,0-4.9-0.4-4.9-4.5
			C58.4,244.4,58.4,152.7,58.4,60.2z"/>
		<path class="st0" d="M215.6,212.7c15.5,0,31.3-0.3,47.1,0.1c5.4,0.1,6.6-1.4,6.6-6.7c-0.2-46.5,0-93-0.3-139.4
			c0-5.6,0.9-7.6,7.1-7.4c20,0.5,40.1,0.2,60.2,0.1c3.6,0,5.4,0.2,5.4,4.7c-0.1,91.3-0.1,182.6-0.1,273.9c0,0.4-0.3,0.8-0.1,0.5
			C299.7,296.7,257.7,254.7,215.6,212.7z"/>
	</g>
</g>
</svg>
