<?xml version="1.0" encoding="utf-8"?>
<!-- Generator: Adobe Illustrator 25.2.0, SVG Export Plug-In . SVG Version: 6.00 Build 0)  -->
<svg version="1.1" xmlns="http://www.w3.org/2000/svg" xmlns:xlink="http://www.w3.org/1999/xlink" x="0px" y="0px"
	 viewBox="0 0 400 400" style="enable-background:new 0 0 400 400;" xml:space="preserve">
<style type="text/css">
	.st0{fill:#FFFFFF;}
	.st1{fill:#2E74E5;}
</style>
<g id="레이어_2">
</g>
<g id="레이어_1">
	<g>
		<path class="st0" d="M49.4,259.7l0.2,0.1L49.4,259.7c0.1-6.4,2.5-12,6.2-17.1c2.8-3.9,6-7.5,9.5-10.8
			c16.1-14.9,34.6-25.4,55.7-31.3c1.1-0.3,3,0.3,2.9-1.9c-4.3-2.1-8.8-4-12.9-6.3c-3-1.7-5.9-2.1-9.2-1.5
			c-18.9,3.2-36.1,10.3-51,22.4c-4.8,3.9-9.1,8.4-11.9,14c-2.6,5.1-3.9,10.4-0.9,15.8C41,248.9,44.3,254.9,49.4,259.7z M239.7,211.3
			c-7.7,0.6-14.3,1.3-20.9,1.4c-4,0.1-7,1-9.6,4.1c-2.9,3.5-6.2,6.8-9.4,10.1c-25,26-46.1,55.6-73.3,79.8c6.5,2.5,13.4,3.4,20,5.3
			c6.1,1.8,11.3,0.3,16.3-3c7-4.6,13-10.2,18.7-16.2c17.2-18.3,32.1-38.4,45.6-59.5C231.4,226.5,235.6,219.7,239.7,211.3z
			 M193.3,317c8.2,1.8,16.1,0.5,24,0.7c7.6,0.2,14.5-2.1,21-5.7c5.9-3.2,11.2-7.2,15.8-12c18.9-19.4,30.3-42.9,36.4-69.1
			c2.1-9.2,3.5-18.5,1.5-27.9c-1.1-5.3-1.3-5.4-6.2-3.6c-1.9,0.7-3.8,1.9-5.8,2.2c-8.4,1.1-12.3,5.7-11.8,14.1
			c0.1,1.1-0.5,2.2-0.8,3.3c-8.9,32.1-25.3,59.8-49,83.2C211.6,309.1,203.4,314.6,193.3,317z M178.6,211.7c-7.3-1.2-13.7-2-20-3.4
			c-3.6-0.8-6.6-0.4-9.9,1.1c-11.8,5.3-22.6,12.1-32.9,20c-13.5,10.4-25.9,21.9-36.3,35.6c-2.8,3.7-5.4,7.4-6.9,11.8
			c-0.9,2.8-0.5,4.9,2.2,6.4c4.3,2.6,8.6,5.4,12.9,7.9c5.8,3.3,5.8,3.2,9.9-2.5c1.2-1.7,2.4-3.3,3.7-4.9
			C123.6,256.6,147.8,231.6,178.6,211.7z M265.2,311.6c6.3-0.8,12.2-2.9,18.2-4.4c12.1-3.2,22.5-9.3,31-18.3
			c23.2-24.6,31.1-53.9,25.4-86.9c-1.7-9.6-5.8-18.3-13.3-25.1c-2-1.8-3.5-2.6-5.6,0c-2.7,3.4-5.7,6.5-8.9,9.9
			c6.8,8.5,9.3,19.1,9.7,30.3c0.2,7.4-0.4,14.7-2.1,21.8C311.8,270.8,296.5,297,265.2,311.6z M334.3,281.9
			c27.4-16.7,43.3-51.8,38.3-83.3c-2.4-14.9-7.8-28.3-18.3-39.3c-6.2-6.5-13.5-11.5-22.9-14c0,3.5,0.5,6.5-0.1,9.2
			c-0.7,3.5,0.8,4.9,3.5,6.4c11.7,6.8,19,17,23.3,29.6c4.7,14.1,5,28.4,2.2,42.8C356.5,252.1,348.1,268.4,334.3,281.9z M27.6,208.3
			c1.6-9.2,7-15.2,14.1-19.8c8.6-5.6,18.2-8.5,28.2-10.3c5.7-1,11.6-1.3,18.3-1.4c-2.7-3.6-5-6.2-6.7-9.1c-1.6-2.7-3.8-3.7-6.7-3.9
			c-10.9-0.9-21.5-0.2-31.8,3.9c-1.6,0.6-3.1,2.1-5.8,0.5c9.1-11.9,20.9-18,35.6-19.2c-6.8-3.4-16.5-4.4-24.1-2.6
			c-5.7,1.4-9.5,4.6-12.4,9.8c-6.4,11.3-6.2,24.2-9.2,36.3C25.9,197.5,26.6,202.7,27.6,208.3z M369.3,163.3
			c-7.9-25.6-34.4-46.3-56.9-45.2c2.1,2.2,4.3,4.1,6.1,6.3c2.9,3.5,6.4,5.2,10.9,6.3c13.1,3.1,23.8,10.4,32,21.1
			C363.9,155,366,158.5,369.3,163.3z M88.2,120.2c-2.9-2.9-5.9-4.5-9.1-5.7c-1.8-0.7-3.6-1-5.3,0.1c-5.6,3.9-11.3,7.8-16.8,13.8
			c7.6-2.2,13.2,0,18.6,2.4c2.5,1.1,4.1,1.1,5.7-1.5C83.2,126.2,85.6,123.5,88.2,120.2z M270.1,97.1c6.2,2.4,11,4.3,15.8,6.2
			c1.9,0.7,3.7,1.8,5.9,1.9c3.9,0,7.8-0.1,11.7,0.4c3.8,0.5,7.6,1.6,11.3,2.5C301.1,101,287.8,92.9,270.1,97.1z M215,85.9
			c0,0.5,0,1,0,1.5c7.9,0.9,15.8,1.8,23.7,2.8c1.9,0.2,3.5-0.7,5.3-1.2c6.5-1.7,8.6-1.9,13.4-1C243.3,85.5,229.3,80.1,215,85.9z
			 M101.7,99.8c4.4,7.6,4.4,7.6,11.7,4.2c2.1-1,4.1-1.9,6.2-2.8c6.2-2.6,6.2-2.6,4.3-9.5C116.3,93.9,108.9,96.3,101.7,99.8z
			 M154.1,91.1c4.3-0.6,7.7-1.1,11.1-1.5c7.4-1,15.2-0.8,20.9-6.8c0.1-0.1,0.6,0.1,0.6,0.2c0,0.9,0.6-0.8,0.6-0.8
			c-9.8,0.1-18.6,1.1-27.3,2.3C156.7,84.8,154.8,87,154.1,91.1z"/>
		<path class="st1" d="M239.6,300.6l0.3,0.2c0,0-0.2-0.2-0.2-0.2C239.7,300.6,239.6,300.6,239.6,300.6z"/>
		<path class="st0" d="M221.5,169.3c-0.2,0.4-0.5,0.8-0.7,1.3c-0.2-0.2-0.7-0.5-0.6-0.7c0.1-0.5,0.4-0.9,0.6-1.3
			C221,168.8,221.2,169.1,221.5,169.3z"/>
	</g>
</g>
</svg>
