<svg width="2000" height="2000" viewBox="0 0 2000 2000" fill="none" xmlns="http://www.w3.org/2000/svg">
<path d="M228.99 570.63C324.13 604.17 416.89 636.86 512.99 670.74C490.66 586.96 503.87 513.04 564.33 447.24C578.43 479.96 582.19 513.44 598.28 543.26C662.17 417.14 737.27 364.49 847.18 369.27C841.98 393.51 821.31 409.63 812.5 436.57C1038.07 333.64 1242.08 372.68 1439.16 518.88C1399.5 520.59 1367.11 509.29 1332.26 516.85C1451.96 578.64 1545.33 665.14 1607.48 782.99C1669.64 900.88 1688 1026.92 1675.14 1163.93C1659.39 1145.63 1646.86 1131.07 1630.21 1111.73C1640.43 1328.23 1548.69 1487.63 1385.4 1611.17C1390.04 1585.42 1390.18 1560.04 1395.82 1527.17C1311.3 1638.92 1208.9 1711.04 1067.9 1734.97C1087.57 1713.65 1102.47 1697.5 1117.37 1681.35C994.7 1727.86 872.26 1722.04 745.2 1689.52C761.24 1675.81 776.87 1682.26 790.77 1681.71C922.04 1676.53 1026.64 1622.3 1097.54 1510.82C1182.92 1376.56 1149.93 1192.65 1025.71 1093.75C1015.82 1085.87 1009.69 1081.48 1000.18 1095.15C981.46 1122.09 960.06 1147.15 940.95 1173.84C923.15 1198.7 912.75 1224.86 916.64 1257.87C920.37 1289.49 907.43 1318.71 882.72 1340.96C857.63 1363.55 832.56 1386.16 807.42 1408.69C786.93 1427.05 762.08 1431.56 735.92 1429.11C715.63 1427.21 699.08 1431.98 683.26 1445.55C657.18 1467.92 626.84 1455.96 599.5 1449.37C575.63 1443.62 546.81 1443.81 531.1 1419.65C508.02 1384.15 492.72 1345.19 486.91 1303.06C485.25 1291.01 490 1279.02 496.6 1269.37C540.71 1204.93 547.78 1130.36 556.27 1056.09C558.96 1032.56 560.48 1008.77 565.06 985.6C571.2 954.53 568.06 926.13 550.55 899.18C538.07 879.98 539.79 858.01 547.24 838.35C553.88 820.83 545.64 814.35 533.87 805.85C437.77 736.41 341.9 666.64 246.14 596.73C239.27 591.71 229.41 588.48 228.99 570.63ZM787.94 1308.54C786.17 1308.82 784.39 1309.1 782.62 1309.38C759.59 1323.59 746.64 1347.54 728.02 1366.03C717.46 1376.52 722.01 1381.25 735.37 1381.7C756.75 1382.42 776.36 1381.05 792.46 1362.92C806.9 1346.66 824.74 1333.45 840.73 1318.52C873.36 1288.05 881.39 1262.03 867.95 1231.94C848.84 1189.17 814.67 1167.8 772.15 1171.59C763.85 1172.33 755 1174.85 741.26 1167.71C782.09 1147.54 813.38 1124.25 814.95 1078.63C827.37 1060.4 833.98 1039.33 839.71 1018.72C849.94 981.93 872.72 962.5 909.79 958.03C922.4 956.51 931.21 950.53 936.27 938C950.51 902.73 965.51 867.76 980.37 832.73C983.19 826.08 986.82 820.16 983.45 812.21C971.51 784 964.19 753.84 947.62 727.58C941.88 716.49 948.49 689.85 923.98 701.28C899.26 712.81 873.6 719.79 848.09 728.06C839.07 725.59 828.2 731.28 820.25 722.2C923.5 652.91 949.86 570.64 903.15 477.73C897.68 485.49 892.38 492.79 887.31 500.25C840.72 568.79 794.64 637.71 743.17 702.76C720.41 731.53 714.71 731.72 684.96 707.3C671.54 743.67 659.53 779.9 644.89 815.04C622.08 869.78 621.3 921.37 652.9 974.25C669.81 1002.55 669.5 1035.31 648.04 1068.19C643.73 1040.2 632.4 1020.27 614.16 999.05C611.28 1022.55 609.64 1042.17 606.38 1061.52C595.41 1126.54 600.96 1196.07 561.97 1253.77C537.03 1290.68 537.97 1324.61 556.12 1363.26C574.77 1402.99 623.24 1419.93 661.99 1396.65C706.08 1363.62 736.31 1324.7 735.01 1264.66C734.04 1220.13 752.06 1209.57 794.27 1219.68C811.19 1222.77 821.96 1232.39 825.6 1249.4C829.4 1267.14 820.16 1278.38 807.05 1288.52C799.67 1294.23 788.79 1297.21 787.43 1308.91L787.94 1308.54ZM1358.96 1182.92C1354.08 1187.39 1351.06 1182.92 1347.45 1180.65C1315 1160.21 1316.93 1124.72 1309.72 1093.5C1296.77 1037.45 1275.61 985.44 1238.87 939.97C1237.9 982.41 1236.64 1024.14 1229.17 1065.21C1226.72 1078.71 1228.13 1089.79 1233.94 1101.85C1275.15 1187.31 1277.85 1275.18 1251 1365.38C1238.06 1408.86 1217.02 1448.42 1194.75 1487.63C1197.72 1488.9 1198.64 1489.7 1199.35 1489.54C1205.32 1488.18 1211.25 1486.64 1217.19 1485.17C1216.12 1508.08 1188.9 1513.66 1180.34 1541.12C1199.35 1526.42 1212.56 1516.21 1225.76 1506C1234.4 1507.98 1238.82 1501.18 1244.34 1496.9C1288.51 1462.57 1325.47 1421.36 1354.33 1373.76C1396.1 1304.87 1424.72 1231.1 1427.69 1149.25C1435.29 1031.17 1406.04 923.16 1336.07 827.59C1268.27 734.98 1180.49 670.07 1067.15 643.1C1047.21 633.37 1025.49 630.92 1003.92 629.27C987.77 628.03 964.79 655.34 970.41 669.75C975.24 682.14 976.92 696.46 987.38 706.38C994.17 738.58 1007.66 768.68 1021.54 797.88C1038.49 833.52 1019.7 860.94 1008.24 890.76C1005.41 898.11 998.07 899.01 992.08 897.93C968.48 893.66 958.79 908.42 953.95 926.79C946.31 955.82 928.15 970.14 899.2 975.5C886.87 977.78 870.79 977.88 864.68 993.5C847.51 1037.41 830.2 1081.28 813.86 1125.5C808.35 1140.42 819.1 1133.79 825.21 1132.35C856.09 1143.6 876.25 1136.41 890.3 1103.68C901.6 1077.35 921.56 1054.83 936.77 1030.07C948.98 1010.21 965.22 1003.04 988.87 1003.18C1048.86 1003.54 1098.3 980.23 1124.87 924.43C1153.6 864.1 1155.45 802.24 1121.02 742.2C1119.49 735.85 1117.97 729.5 1116.44 723.14L1117.92 721.94C1136.37 724.9 1146.86 740.6 1161.73 749.29C1194.43 795.25 1223.37 842.93 1230.82 900.42C1231.46 905.35 1235.87 907.5 1238.16 910.99C1267.44 955.66 1299.07 999.19 1312.45 1052.2C1314.88 1061.82 1318.71 1070.59 1324.73 1078.44C1315.08 1104.7 1328.94 1127.41 1335.71 1151.19C1339.7 1160.76 1346.33 1167.81 1355.77 1172.18C1356.85 1175.76 1357.91 1179.34 1358.96 1182.92ZM1006.85 585.8C1321.6 609.23 1519.73 777.34 1639.88 1051.76C1631.49 879.85 1570.79 732.15 1430.3 627.31C1301.53 531.23 1158.3 540.95 1006.85 585.8ZM1451.48 964.65C1522.53 1143.85 1527.08 1321.62 1450 1500.47C1518.34 1438.15 1557.03 1360.5 1564.8 1269.01C1574.89 1150.23 1536.8 1048.04 1451.48 964.65ZM1286.21 469.13C1262.41 453.67 1235.91 444.93 1209.14 437.13C1116.32 410.07 1022.99 402.24 929.39 432.78C922.14 435.15 901.61 433.86 912.89 451.47C920.71 463.67 913.67 493.22 944.98 482.77C1016.96 458.74 1091.07 454.13 1166.43 457.69C1206.52 459.58 1245.92 466.47 1286.21 469.13ZM748.68 433.65C713.61 439.76 678.93 473.25 668.53 506.25C655.9 546.31 665.3 590.9 694.59 621.41C689.36 552.21 702.9 489.88 748.68 433.65ZM435.3 692.9C487.15 723.6 535.32 752.29 583.71 780.62C592.34 785.67 602.29 790.82 609.52 778.38C615.91 767.38 613.35 756.91 604.1 749.04C598.75 744.49 591.86 741.36 585.2 738.81C544.55 723.3 503.72 708.25 463.06 692.76C455.21 689.77 447.73 687.23 435.3 692.9ZM550.71 541.47C521 646.9 580.02 710.46 630.19 696.67C582.2 655.1 564.26 599.43 550.71 541.47ZM784.84 572.81C837.24 544.87 868.5 497.25 899.65 449.55C843.67 474.16 807.69 517.37 784.84 572.81ZM754.09 1303.54C769.58 1291.35 780.78 1282.58 791.93 1273.75C799.25 1267.95 806.17 1261.35 802.2 1251.05C798.1 1240.4 788.73 1237.52 777.95 1237.5C766.61 1237.48 761.63 1244.14 760.18 1254.04C757.98 1269.16 756.41 1284.38 754.09 1303.54Z" fill="white"/>
<path d="M947.62 727.58C964.19 753.84 971.51 784 983.45 812.21C986.82 820.16 983.19 826.08 980.37 832.73C965.52 867.76 950.52 902.73 936.27 938C931.21 950.53 922.4 956.51 909.79 958.03C872.72 962.5 849.94 981.93 839.71 1018.72C833.98 1039.33 827.37 1060.4 814.95 1078.63C739.9 1102 688.63 1148.77 673.27 1230.42C658.1 1217.24 657.82 1197.68 637.85 1193.74C647.68 1259.26 681.36 1329.12 591.68 1372.37C608.49 1376.31 619.04 1376.77 627.44 1381.25C638.67 1387.25 656.32 1378.85 661.98 1396.64C623.23 1419.92 574.76 1402.98 556.11 1363.25C537.96 1324.6 537.02 1290.66 561.96 1253.76C600.95 1196.06 595.4 1126.54 606.37 1061.51C609.63 1042.16 611.28 1022.54 614.15 999.04C632.39 1020.26 643.72 1040.19 648.03 1068.18C669.49 1035.3 669.8 1002.54 652.89 974.24C621.29 921.37 622.07 869.77 644.88 815.03C659.52 779.89 671.53 743.66 684.95 707.29C714.7 731.71 720.41 731.51 743.16 702.75C794.62 637.69 840.71 568.78 887.3 500.24C892.37 492.78 897.67 485.48 903.14 477.72C949.85 570.63 923.49 652.9 820.24 722.19C828.19 731.27 839.06 725.58 848.08 728.05C855.32 735.39 864.75 732.45 873.36 733.51C898.54 736.64 922.61 726.22 947.62 727.58ZM673.51 922.25C665.55 933.43 667.28 940.9 667.55 947.91C669.07 987.31 688.73 998.11 721.96 978.4C728.17 974.72 735.32 972.64 741.95 969.65C772.92 955.7 801.6 938.03 825.95 914.28C848.63 892.16 850.36 856.54 825.01 840.14C801.48 824.91 802.94 810.56 812.73 790.49C814.54 786.78 816.98 782.45 812.65 778.16C803.51 780.52 801.55 789.37 797.17 795.84C768.58 838.05 739.67 880.06 711.94 922.83C699.35 942.25 688.39 954.09 673.51 922.25ZM890.72 549.46C865.05 587.37 840.62 623.44 814.96 661.34C870.43 652.05 904.94 601.33 890.72 549.46ZM602.31 1249.95C591.62 1270.71 581.5 1287.45 574.28 1305.36C569.36 1317.56 574.17 1330.87 588.08 1332.69C602.61 1334.6 612.83 1323.65 619.78 1311.22C625.75 1300.56 631.07 1286.08 619.86 1279.48C608.91 1273.04 610.05 1262.57 602.31 1249.95ZM813.61 724.55L812.58 725.74L814.18 726.03L813.61 724.55Z" fill="#5F5F5F"/>
<path d="M1161.76 749.28C1146.89 740.59 1136.39 724.9 1117.92 721.95C1116.85 720.86 1115.87 719.67 1114.7 718.72C1114.56 718.61 1113.4 719.74 1112.71 720.3C1113.96 721.24 1115.21 722.19 1116.46 723.13C1117.99 729.48 1119.51 735.83 1121.04 742.19C1116.84 747.95 1118.09 754.15 1119.18 760.54C1138.98 876.51 1056.57 977.78 954.41 975.92C926.37 975.41 890.56 981.45 875.53 1006.47C852.45 1044.88 835.57 1087.81 825.22 1132.34C819.11 1133.78 808.36 1140.41 813.87 1125.49C830.21 1081.27 847.51 1037.4 864.69 993.49C870.8 977.87 886.88 977.77 899.21 975.49C928.16 970.13 946.32 955.82 953.96 926.78C958.79 908.41 968.49 893.65 992.09 897.92C998.08 899 1005.43 898.11 1008.25 890.75C1019.72 860.93 1038.5 833.51 1021.55 797.87C1007.66 768.67 994.17 738.57 987.39 706.37C1021.73 695.04 1049.35 675.25 1067.16 643.09C1180.5 670.06 1268.28 734.97 1336.08 827.58C1406.05 923.15 1435.3 1031.16 1427.7 1149.24C1414.01 1121.72 1417.8 1090.75 1410.21 1061.88C1378.74 942.19 1305.69 852.09 1209.9 778.14C1195.2 766.79 1182.26 751.42 1161.76 749.28Z" fill="#5F5F5F"/>
<path d="M1006.85 585.8C1158.3 540.94 1301.53 531.22 1430.31 627.31C1570.8 732.14 1631.49 879.85 1639.89 1051.76C1519.73 777.34 1321.6 609.24 1006.85 585.8Z" fill="#949494"/>
<path d="M1161.76 749.28C1182.25 751.42 1195.2 766.79 1209.91 778.14C1305.7 852.09 1378.75 942.19 1410.22 1061.88C1417.81 1090.75 1414.02 1121.73 1427.71 1149.24C1424.74 1231.09 1396.12 1304.86 1354.35 1373.75C1325.49 1421.35 1288.53 1462.55 1244.36 1496.89C1238.85 1501.17 1234.43 1507.97 1225.79 1505.99C1222.93 1494.21 1236.18 1489.22 1237.13 1479.05C1236.79 1473.75 1240.07 1470.44 1243.61 1467.26C1269.3 1449.9 1279.47 1422.07 1291.92 1395.77C1291.25 1393.16 1289.12 1389.51 1290.12 1388.11C1311.24 1358.58 1306.92 1312.44 1349.64 1296.81C1353.32 1295.46 1355.57 1290.2 1358.48 1286.75C1361.55 1285.31 1366.65 1284.54 1367.39 1282.32C1377.68 1251.58 1375.15 1219.89 1372.56 1188.44C1371.89 1180.27 1363.99 1174.98 1355.8 1172.18C1346.36 1167.81 1339.73 1160.76 1335.74 1151.19C1337.61 1126.1 1332.72 1102.04 1324.76 1078.44C1318.74 1070.6 1314.9 1061.82 1312.48 1052.2C1299.11 999.18 1267.47 955.65 1238.19 910.99C1235.9 907.5 1231.49 905.35 1230.85 900.42C1223.41 842.92 1194.47 795.24 1161.76 749.28Z" fill="#C9C9C9"/>
<path d="M661.98 1396.65C656.32 1378.86 638.67 1387.26 627.44 1381.26C619.04 1376.77 608.49 1376.32 591.68 1372.38C681.36 1329.12 647.68 1259.26 637.85 1193.75C657.82 1197.69 658.1 1217.25 673.27 1230.43C688.63 1148.78 739.9 1102.01 814.95 1078.64C813.38 1124.25 782.09 1147.54 741.26 1167.72C754.99 1174.86 763.85 1172.34 772.15 1171.6C814.67 1167.81 848.84 1189.18 867.95 1231.95C881.4 1262.04 873.36 1288.06 840.73 1318.53C824.74 1333.46 806.9 1346.67 792.46 1362.93C776.36 1381.06 756.75 1382.43 735.37 1381.71C722 1381.26 717.45 1376.53 728.02 1366.04C746.64 1347.55 759.59 1323.6 782.62 1309.39C784.85 1311.99 786.6 1311.59 787.94 1308.55L787.41 1308.92C803.22 1306.26 815.65 1296.71 827.35 1287.12C846.21 1271.66 843.9 1251.13 832.99 1233.16C825.11 1220.18 813.33 1206.17 794.25 1219.7C752.04 1209.59 734.02 1220.14 734.99 1264.68C736.31 1324.7 706.08 1363.62 661.98 1396.65Z" fill="#C9C9C9"/>
<path d="M1217.2 1485.14C1211.26 1486.62 1205.33 1488.16 1199.36 1489.53C1198.66 1489.69 1197.73 1488.9 1194.76 1487.62C1217.03 1448.41 1238.07 1408.85 1251.01 1365.37C1277.85 1275.17 1275.16 1187.3 1233.95 1101.84C1228.13 1089.78 1226.73 1078.7 1229.18 1065.2C1236.64 1024.13 1237.9 982.4 1238.88 939.96C1275.61 985.42 1296.78 1037.44 1309.73 1093.49C1316.94 1124.71 1315.02 1160.2 1347.46 1180.64C1351.06 1182.91 1354.09 1187.38 1358.97 1182.91L1358.13 1182.67C1357.5 1184.36 1356.33 1186.04 1356.31 1187.73C1355.81 1231.96 1366.93 1280.37 1311.82 1304.15C1304.21 1307.43 1303.46 1317.75 1300.99 1325.5C1293.52 1348.92 1283.46 1371.2 1273.07 1393.47C1257.65 1426.5 1232.64 1453.3 1215.59 1485.17L1217.2 1485.14Z" fill="#C9C9C9"/>
<path d="M1451.48 964.65C1536.8 1048.04 1574.89 1150.23 1564.8 1269.01C1557.03 1360.5 1518.34 1438.15 1450 1500.47C1527.09 1321.62 1522.53 1143.85 1451.48 964.65Z" fill="#949494"/>
<path d="M825.23 1132.35C835.58 1087.81 852.47 1044.89 875.54 1006.48C890.57 981.46 926.38 975.42 954.42 975.93C1056.58 977.8 1138.99 876.53 1119.19 760.55C1118.1 754.15 1116.84 747.96 1121.05 742.2C1155.48 802.23 1153.63 864.1 1124.9 924.43C1098.33 980.23 1048.89 1003.54 988.901 1003.18C965.251 1003.04 949 1010.21 936.8 1030.07C921.58 1054.83 901.621 1077.35 890.331 1103.68C876.271 1136.4 856.11 1143.6 825.23 1132.35Z" fill="#C9C9C9"/>
<path d="M1286.21 469.13C1245.92 466.47 1206.52 459.58 1166.42 457.69C1091.06 454.13 1016.96 458.74 944.97 482.77C913.66 493.22 920.7 463.67 912.88 451.47C901.6 433.86 922.13 435.15 929.38 432.78C1022.98 402.24 1116.31 410.07 1209.13 437.13C1235.91 444.93 1262.41 453.67 1286.21 469.13Z" fill="#949494"/>
<path d="M748.68 433.65C702.89 489.88 689.36 552.21 694.59 621.41C665.3 590.91 655.9 546.32 668.53 506.25C678.93 473.25 713.61 439.76 748.68 433.65Z" fill="#949494"/>
<path d="M435.3 692.9C447.73 687.23 455.21 689.77 463.05 692.76C503.71 708.25 544.54 723.3 585.19 738.81C591.86 741.35 598.75 744.49 604.09 749.04C613.34 756.91 615.91 767.39 609.51 778.38C602.28 790.82 592.33 785.67 583.7 780.62C535.32 752.29 487.15 723.6 435.3 692.9Z" fill="#5F5F5F"/>
<path d="M550.71 541.47C564.26 599.44 582.2 655.1 630.19 696.67C580.02 710.46 521 646.9 550.71 541.47Z" fill="#949494"/>
<path d="M1067.17 643.1C1049.36 675.26 1021.74 695.05 987.4 706.38C976.94 696.46 975.25 682.14 970.43 669.75C964.82 655.34 987.8 628.03 1003.94 629.27C1025.52 630.93 1047.23 633.37 1067.17 643.1Z" fill="#C9C9C9"/>
<path d="M784.84 572.81C807.68 517.37 843.67 474.16 899.65 449.55C868.5 497.25 837.25 544.87 784.84 572.81Z" fill="#949494"/>
<path d="M754.09 1303.54C756.41 1284.38 757.98 1269.17 760.18 1254.04C761.62 1244.14 766.61 1237.48 777.95 1237.5C788.73 1237.52 798.1 1240.4 802.2 1251.05C806.17 1261.35 799.25 1267.95 791.93 1273.75C780.78 1282.58 769.58 1291.35 754.09 1303.54Z" fill="#5F5F5F"/>
<path d="M947.62 727.58C922.6 726.22 898.54 736.63 873.36 733.52C864.75 732.46 855.32 735.39 848.08 728.06C873.59 719.79 899.24 712.81 923.97 701.28C948.5 689.85 941.89 716.49 947.62 727.58Z" fill="#C9C9C9"/>
<path d="M794.25 1219.68C813.33 1206.15 825.11 1220.17 832.99 1233.14C843.9 1251.11 846.21 1271.63 827.35 1287.1C815.65 1296.69 803.22 1306.24 787.41 1308.9C788.78 1297.2 799.66 1294.22 807.03 1288.51C820.14 1278.37 829.38 1267.14 825.58 1249.39C821.94 1232.39 811.17 1222.77 794.25 1219.68Z" fill="#5F5F5F"/>
<path d="M1355.8 1172.18C1363.98 1174.98 1371.88 1180.27 1372.56 1188.44C1375.15 1219.89 1377.68 1251.59 1367.39 1282.32C1366.65 1284.54 1361.55 1285.31 1358.48 1286.75C1357.76 1280.44 1360.06 1274.16 1360.21 1268.38C1360.94 1239.83 1377.94 1210.66 1358.13 1182.67L1358.97 1182.91C1357.91 1179.34 1356.85 1175.76 1355.8 1172.18Z" fill="#5F5F5F"/>
<path d="M1237.12 1479.06C1236.17 1489.23 1222.92 1494.22 1225.78 1506C1212.57 1516.21 1199.37 1526.42 1180.36 1541.12C1188.92 1513.65 1216.14 1508.07 1217.2 1485.16C1217.2 1485.15 1215.56 1485.18 1215.57 1485.18C1225.41 1492.49 1228.06 1474.49 1237.12 1479.06Z" fill="#5F5F5F"/>
<path d="M1324.76 1078.43C1332.72 1102.03 1337.61 1126.1 1335.74 1151.18C1328.97 1127.41 1315.11 1104.69 1324.76 1078.43Z" fill="#5F5F5F"/>
<path d="M787.94 1308.54C786.6 1311.58 784.84 1311.97 782.62 1309.38C784.39 1309.1 786.17 1308.82 787.94 1308.54Z" fill="#5F5F5F"/>
<path d="M673.51 922.25C688.39 954.09 699.35 942.25 711.95 922.82C739.68 880.05 768.59 838.04 797.18 795.83C801.56 789.36 803.52 780.51 812.66 778.15C816.98 782.44 814.54 786.77 812.74 790.48C802.95 810.55 801.49 824.9 825.02 840.13C850.37 856.54 848.63 892.15 825.96 914.27C801.61 938.02 772.93 955.69 741.96 969.64C735.32 972.63 728.18 974.71 721.97 978.39C688.74 998.11 669.08 987.3 667.56 947.9C667.28 940.9 665.55 933.42 673.51 922.25ZM731 948.8C759.51 939.59 783.25 925.11 801.79 903.58C814.85 888.42 815.81 873.04 800.84 857.98C793.37 850.47 788.35 849.98 782.57 860.24C765.79 890 748.24 919.31 731 948.8Z" fill="white"/>
<path d="M890.72 549.46C904.93 601.33 870.42 652.06 814.96 661.34C840.63 623.44 865.05 587.36 890.72 549.46Z" fill="white"/>
<path d="M602.31 1249.95C610.04 1262.57 608.91 1273.04 619.86 1279.48C631.08 1286.08 625.75 1300.56 619.78 1311.22C612.83 1323.65 602.61 1334.6 588.08 1332.69C574.18 1330.86 569.37 1317.55 574.28 1305.36C581.51 1287.45 591.62 1270.71 602.31 1249.95Z" fill="white"/>
<path d="M813.61 724.55L814.18 726.02L812.58 725.73L813.61 724.55Z" fill="#C9C9C9"/>
<path d="M1116.47 723.14C1115.22 722.2 1113.97 721.25 1112.72 720.31C1113.41 719.75 1114.56 718.609 1114.71 718.729C1115.88 719.679 1116.87 720.86 1117.93 721.96C1117.95 721.93 1116.47 723.14 1116.47 723.14Z" fill="white"/>
<path d="M1237.12 1479.06C1228.06 1474.49 1225.41 1492.49 1215.57 1485.18C1232.62 1453.31 1257.64 1426.51 1273.05 1393.48C1283.44 1371.21 1293.5 1348.93 1300.97 1325.51C1303.44 1317.76 1304.19 1307.44 1311.8 1304.16C1366.91 1280.38 1355.79 1231.98 1356.29 1187.74C1356.31 1186.05 1357.48 1184.36 1358.11 1182.68C1377.92 1210.66 1360.92 1239.84 1360.19 1268.39C1360.04 1274.17 1357.74 1280.45 1358.46 1286.76C1355.55 1290.21 1353.3 1295.47 1349.62 1296.82C1306.9 1312.45 1311.22 1358.59 1290.1 1388.12C1289.09 1389.53 1291.23 1393.18 1291.9 1395.79C1268.04 1414.38 1257.48 1441.96 1243.59 1467.28C1240.07 1470.44 1236.78 1473.76 1237.12 1479.06Z" fill="white"/>
<path d="M1243.6 1467.27C1257.49 1441.94 1268.05 1414.37 1291.91 1395.78C1279.47 1422.08 1269.29 1449.91 1243.6 1467.27Z" fill="#5F5F5F"/>
<path d="M731 948.799C748.24 919.309 765.8 889.999 782.56 860.249C788.35 849.979 793.36 850.479 800.83 857.989C815.8 873.039 814.84 888.429 801.78 903.589C783.24 925.099 759.5 939.579 731 948.799Z" fill="#B9B9B9"/>
</svg>
