<?xml version="1.0" encoding="utf-8"?>
<!-- Generator: Adobe Illustrator 25.2.1, SVG Export Plug-In . SVG Version: 6.00 Build 0)  -->
<svg version="1.1" id="Layer_1" xmlns="http://www.w3.org/2000/svg" xmlns:xlink="http://www.w3.org/1999/xlink" x="0px" y="0px"
	 viewBox="0 0 2000 2000" style="enable-background:new 0 0 2000 2000;" xml:space="preserve">
<style type="text/css">
	.st0{fill:#2F2F2F;}
	.st1{fill:#F9F9F9;}
	.st2{fill:#474747;}
	.st3{fill:#A2A2A2;}
	.st4{fill:#C1C1C1;}
</style>
<g id="_x37_Ust4G.tif">
	<g>
		<path class="st0" d="M228.99,570.63c95.14,33.54,187.9,66.23,284,100.11c-22.33-83.78-9.12-157.7,51.34-223.5
			c14.1,32.72,17.86,66.2,33.95,96.02c63.89-126.12,138.99-178.77,248.9-173.99c-5.2,24.24-25.87,40.36-34.68,67.3
			c225.57-102.93,429.58-63.89,626.66,82.31c-39.66,1.71-72.05-9.59-106.9-2.03c119.7,61.79,213.07,148.29,275.22,266.14
			c62.16,117.89,80.52,243.93,67.66,380.94c-15.75-18.3-28.28-32.86-44.93-52.2c10.22,216.5-81.52,375.9-244.81,499.44
			c4.64-25.75,4.78-51.13,10.42-84c-84.52,111.75-186.92,183.87-327.92,207.8c19.67-21.32,34.57-37.47,49.47-53.62
			c-122.67,46.51-245.11,40.69-372.17,8.17c16.04-13.71,31.67-7.26,45.57-7.81c131.27-5.18,235.87-59.41,306.77-170.89
			c85.38-134.26,52.39-318.17-71.83-417.07c-9.89-7.88-16.02-12.27-25.53,1.4c-18.72,26.94-40.12,52-59.23,78.69
			c-17.8,24.86-28.2,51.02-24.31,84.03c3.73,31.62-9.21,60.84-33.92,83.09c-25.09,22.59-50.16,45.2-75.3,67.73
			c-20.49,18.36-45.34,22.87-71.5,20.42c-20.29-1.9-36.84,2.87-52.66,16.44c-26.08,22.37-56.42,10.41-83.76,3.82
			c-23.87-5.75-52.69-5.56-68.4-29.72c-23.08-35.5-38.38-74.46-44.19-116.59c-1.66-12.05,3.09-24.04,9.69-33.69
			c44.11-64.44,51.18-139.01,59.67-213.28c2.69-23.53,4.21-47.32,8.79-70.49c6.14-31.07,3-59.47-14.51-86.42
			c-12.48-19.2-10.76-41.17-3.31-60.83c6.64-17.52-1.6-24-13.37-32.5c-96.1-69.44-191.97-139.21-287.73-209.12
			C239.27,591.71,229.41,588.48,228.99,570.63z M787.94,1308.54c-1.77,0.28-3.55,0.56-5.32,0.84
			c-23.03,14.21-35.98,38.16-54.6,56.65c-10.56,10.49-6.01,15.22,7.35,15.67c21.38,0.72,40.99-0.65,57.09-18.78
			c14.44-16.26,32.28-29.47,48.27-44.4c32.63-30.47,40.66-56.49,27.22-86.58c-19.11-42.77-53.28-64.14-95.8-60.35
			c-8.3,0.74-17.15,3.26-30.89-3.88c40.83-20.17,72.12-43.46,73.69-89.08c12.42-18.23,19.03-39.3,24.76-59.91
			c10.23-36.79,33.01-56.22,70.08-60.69c12.61-1.52,21.42-7.5,26.48-20.03c14.24-35.27,29.24-70.24,44.1-105.27
			c2.82-6.65,6.45-12.57,3.08-20.52c-11.94-28.21-19.26-58.37-35.83-84.63c-5.74-11.09,0.87-37.73-23.64-26.3
			c-24.72,11.53-50.38,18.51-75.89,26.78c-9.02-2.47-19.89,3.22-27.84-5.86c103.25-69.29,129.61-151.56,82.9-244.47
			c-5.47,7.76-10.77,15.06-15.84,22.52c-46.59,68.54-92.67,137.46-144.14,202.51c-22.76,28.77-28.46,28.96-58.21,4.54
			c-13.42,36.37-25.43,72.6-40.07,107.74c-22.81,54.74-23.59,106.33,8.01,159.21c16.91,28.3,16.6,61.06-4.86,93.94
			c-4.31-27.99-15.64-47.92-33.88-69.14c-2.88,23.5-4.52,43.12-7.78,62.47c-10.97,65.02-5.42,134.55-44.41,192.25
			c-24.94,36.91-24,70.84-5.85,109.49c18.65,39.73,67.12,56.67,105.87,33.39c44.09-33.03,74.32-71.95,73.02-131.99
			c-0.97-44.53,17.05-55.09,59.26-44.98c16.92,3.09,27.69,12.71,31.33,29.72c3.8,17.74-5.44,28.98-18.55,39.12
			c-7.38,5.71-18.26,8.69-19.62,20.39L787.94,1308.54z M1358.96,1182.92c-4.88,4.47-7.9,0-11.51-2.27
			c-32.45-20.44-30.52-55.93-37.73-87.15c-12.95-56.05-34.11-108.06-70.85-153.53c-0.97,42.44-2.23,84.17-9.7,125.24
			c-2.45,13.5-1.04,24.58,4.77,36.64c41.21,85.46,43.91,173.33,17.06,263.53c-12.94,43.48-33.98,83.04-56.25,122.25
			c2.97,1.27,3.89,2.07,4.6,1.91c5.97-1.36,11.9-2.9,17.84-4.37c-1.07,22.91-28.29,28.49-36.85,55.95
			c19.01-14.7,32.22-24.91,45.42-35.12c8.64,1.98,13.06-4.82,18.58-9.1c44.17-34.33,81.13-75.54,109.99-123.14
			c41.77-68.89,70.39-142.66,73.36-224.51c7.6-118.08-21.65-226.09-91.62-321.66c-67.8-92.61-155.58-157.52-268.92-184.49
			c-19.94-9.73-41.66-12.18-63.23-13.83c-16.15-1.24-39.13,26.07-33.51,40.48c4.83,12.39,6.51,26.71,16.97,36.63
			c6.79,32.2,20.28,62.3,34.16,91.5c16.95,35.64-1.84,63.06-13.3,92.88c-2.83,7.35-10.17,8.25-16.16,7.17
			c-23.6-4.27-33.29,10.49-38.13,28.86c-7.64,29.03-25.8,43.35-54.75,48.71c-12.33,2.28-28.41,2.38-34.52,18
			c-17.17,43.91-34.48,87.78-50.82,132c-5.51,14.92,5.24,8.29,11.35,6.85c30.88,11.25,51.04,4.06,65.09-28.67
			c11.3-26.33,31.26-48.85,46.47-73.61c12.21-19.86,28.45-27.03,52.1-26.89c59.99,0.36,109.43-22.95,136-78.75
			c28.73-60.33,30.58-122.19-3.85-182.23c-1.53-6.35-3.05-12.7-4.58-19.06l1.48-1.2c18.45,2.96,28.94,18.66,43.81,27.35
			c32.7,45.96,61.64,93.64,69.09,151.13c0.64,4.93,5.05,7.08,7.34,10.57c29.28,44.67,60.91,88.2,74.29,141.21
			c2.43,9.62,6.26,18.39,12.28,26.24c-9.65,26.26,4.21,48.97,10.98,72.75c3.99,9.57,10.62,16.62,20.06,20.99
			C1356.85,1175.76,1357.91,1179.34,1358.96,1182.92z M1006.85,585.8c314.75,23.43,512.88,191.54,633.03,465.96
			c-8.39-171.91-69.09-319.61-209.58-424.45C1301.53,531.23,1158.3,540.95,1006.85,585.8z M1451.48,964.65
			c71.05,179.2,75.6,356.97-1.48,535.82c68.34-62.32,107.03-139.97,114.8-231.46C1574.89,1150.23,1536.8,1048.04,1451.48,964.65z
			 M1286.21,469.13c-23.8-15.46-50.3-24.2-77.07-32c-92.82-27.06-186.15-34.89-279.75-4.35c-7.25,2.37-27.78,1.08-16.5,18.69
			c7.82,12.2,0.78,41.75,32.09,31.3c71.98-24.03,146.09-28.64,221.45-25.08C1206.52,459.58,1245.92,466.47,1286.21,469.13z
			 M748.68,433.65c-35.07,6.11-69.75,39.6-80.15,72.6c-12.63,40.06-3.23,84.65,26.06,115.16
			C689.36,552.21,702.9,489.88,748.68,433.65z M435.3,692.9c51.85,30.7,100.02,59.39,148.41,87.72c8.63,5.05,18.58,10.2,25.81-2.24
			c6.39-11,3.83-21.47-5.42-29.34c-5.35-4.55-12.24-7.68-18.9-10.23c-40.65-15.51-81.48-30.56-122.14-46.05
			C455.21,689.77,447.73,687.23,435.3,692.9z M550.71,541.47C521,646.9,580.02,710.46,630.19,696.67
			C582.2,655.1,564.26,599.43,550.71,541.47z M784.84,572.81c52.4-27.94,83.66-75.56,114.81-123.26
			C843.67,474.16,807.69,517.37,784.84,572.81z M754.09,1303.54c15.49-12.19,26.69-20.96,37.84-29.79
			c7.32-5.8,14.24-12.4,10.27-22.7c-4.1-10.65-13.47-13.53-24.25-13.55c-11.34-0.02-16.32,6.64-17.77,16.54
			C757.98,1269.16,756.41,1284.38,754.09,1303.54z"/>
		<path class="st1" d="M947.62,727.58c16.57,26.26,23.89,56.42,35.83,84.63c3.37,7.95-0.26,13.87-3.08,20.52
			c-14.85,35.03-29.85,70-44.1,105.27c-5.06,12.53-13.87,18.51-26.48,20.03c-37.07,4.47-59.85,23.9-70.08,60.69
			c-5.73,20.61-12.34,41.68-24.76,59.91c-75.05,23.37-126.32,70.14-141.68,151.79c-15.17-13.18-15.45-32.74-35.42-36.68
			c9.83,65.52,43.51,135.38-46.17,178.63c16.81,3.94,27.36,4.4,35.76,8.88c11.23,6,28.88-2.4,34.54,15.39
			c-38.75,23.28-87.22,6.34-105.87-33.39c-18.15-38.65-19.09-72.59,5.85-109.49c38.99-57.7,33.44-127.22,44.41-192.25
			c3.26-19.35,4.91-38.97,7.78-62.47c18.24,21.22,29.57,41.15,33.88,69.14c21.46-32.88,21.77-65.64,4.86-93.94
			c-31.6-52.87-30.82-104.47-8.01-159.21c14.64-35.14,26.65-71.37,40.07-107.74c29.75,24.42,35.46,24.22,58.21-4.54
			c51.46-65.06,97.55-133.97,144.14-202.51c5.07-7.46,10.37-14.76,15.84-22.52c46.71,92.91,20.35,175.18-82.9,244.47
			c7.95,9.08,18.82,3.39,27.84,5.86c7.24,7.34,16.67,4.4,25.28,5.46C898.54,736.64,922.61,726.22,947.62,727.58z M673.51,922.25
			c-7.96,11.18-6.23,18.65-5.96,25.66c1.52,39.4,21.18,50.2,54.41,30.49c6.21-3.68,13.36-5.76,19.99-8.75
			c30.97-13.95,59.65-31.62,84-55.37c22.68-22.12,24.41-57.74-0.94-74.14c-23.53-15.23-22.07-29.58-12.28-49.65
			c1.81-3.71,4.25-8.04-0.08-12.33c-9.14,2.36-11.1,11.21-15.48,17.68c-28.59,42.21-57.5,84.22-85.23,126.99
			C699.35,942.25,688.39,954.09,673.51,922.25z M890.72,549.46c-25.67,37.91-50.1,73.98-75.76,111.88
			C870.43,652.05,904.94,601.33,890.72,549.46z M602.31,1249.95c-10.69,20.76-20.81,37.5-28.03,55.41
			c-4.92,12.2-0.11,25.51,13.8,27.33c14.53,1.91,24.75-9.04,31.7-21.47c5.97-10.66,11.29-25.14,0.08-31.74
			C608.91,1273.04,610.05,1262.57,602.31,1249.95z M813.61,724.55l-1.03,1.19l1.6,0.29L813.61,724.55z"/>
		<path class="st1" d="M1161.76,749.28c-14.87-8.69-25.37-24.38-43.84-27.33c-1.07-1.09-2.05-2.28-3.22-3.23
			c-0.14-0.11-1.3,1.02-1.99,1.58c1.25,0.94,2.5,1.89,3.75,2.83c1.53,6.35,3.05,12.7,4.58,19.06c-4.2,5.76-2.95,11.96-1.86,18.35
			c19.8,115.97-62.61,217.24-164.77,215.38c-28.04-0.51-63.85,5.53-78.88,30.55c-23.08,38.41-39.96,81.34-50.31,125.87
			c-6.11,1.44-16.86,8.07-11.35-6.85c16.34-44.22,33.64-88.09,50.82-132c6.11-15.62,22.19-15.72,34.52-18
			c28.95-5.36,47.11-19.67,54.75-48.71c4.83-18.37,14.53-33.13,38.13-28.86c5.99,1.08,13.34,0.19,16.16-7.17
			c11.47-29.82,30.25-57.24,13.3-92.88c-13.89-29.2-27.38-59.3-34.16-91.5c34.34-11.33,61.96-31.12,79.77-63.28
			c113.34,26.97,201.12,91.88,268.92,184.49c69.97,95.57,99.22,203.58,91.62,321.66c-13.69-27.52-9.9-58.49-17.49-87.36
			c-31.47-119.69-104.52-209.79-200.31-283.74C1195.2,766.79,1182.26,751.42,1161.76,749.28z"/>
		<path class="st2" d="M1006.85,585.8c151.45-44.86,294.68-54.58,423.46,41.51c140.49,104.83,201.18,252.54,209.58,424.45
			C1519.73,777.34,1321.6,609.24,1006.85,585.8z"/>
		<path class="st3" d="M1161.76,749.28c20.49,2.14,33.44,17.51,48.15,28.86c95.79,73.95,168.84,164.05,200.31,283.74
			c7.59,28.87,3.8,59.85,17.49,87.36c-2.97,81.85-31.59,155.62-73.36,224.51c-28.86,47.6-65.82,88.8-109.99,123.14
			c-5.51,4.28-9.93,11.08-18.57,9.1c-2.86-11.78,10.39-16.77,11.34-26.94c-0.34-5.3,2.94-8.61,6.48-11.79
			c25.69-17.36,35.86-45.19,48.31-71.49c-0.67-2.61-2.8-6.26-1.8-7.66c21.12-29.53,16.8-75.67,59.52-91.3
			c3.68-1.35,5.93-6.61,8.84-10.06c3.07-1.44,8.17-2.21,8.91-4.43c10.29-30.74,7.76-62.43,5.17-93.88
			c-0.67-8.17-8.57-13.46-16.76-16.26c-9.44-4.37-16.07-11.42-20.06-20.99c1.87-25.09-3.02-49.15-10.98-72.75
			c-6.02-7.84-9.86-16.62-12.28-26.24c-13.37-53.02-45.01-96.55-74.29-141.21c-2.29-3.49-6.7-5.64-7.34-10.57
			C1223.41,842.92,1194.47,795.24,1161.76,749.28z"/>
		<path class="st3" d="M661.98,1396.65c-5.66-17.79-23.31-9.39-34.54-15.39c-8.4-4.49-18.95-4.94-35.76-8.88
			c89.68-43.26,56-113.12,46.17-178.63c19.97,3.94,20.25,23.5,35.42,36.68c15.36-81.65,66.63-128.42,141.68-151.79
			c-1.57,45.61-32.86,68.9-73.69,89.08c13.73,7.14,22.59,4.62,30.89,3.88c42.52-3.79,76.69,17.58,95.8,60.35
			c13.45,30.09,5.41,56.11-27.22,86.58c-15.99,14.93-33.83,28.14-48.27,44.4c-16.1,18.13-35.71,19.5-57.09,18.78
			c-13.37-0.45-17.92-5.18-7.35-15.67c18.62-18.49,31.57-42.44,54.6-56.65c2.23,2.6,3.98,2.2,5.32-0.84c0,0-0.53,0.37-0.53,0.37
			c15.81-2.66,28.24-12.21,39.94-21.8c18.86-15.46,16.55-35.99,5.64-53.96c-7.88-12.98-19.66-26.99-38.74-13.46
			c-42.21-10.11-60.23,0.44-59.26,44.98C736.31,1324.7,706.08,1363.62,661.98,1396.65z"/>
		<path class="st3" d="M1217.2,1485.14c-5.94,1.48-11.87,3.02-17.84,4.39c-0.7,0.16-1.63-0.63-4.6-1.91
			c22.27-39.21,43.31-78.77,56.25-122.25c26.84-90.2,24.15-178.07-17.06-263.53c-5.82-12.06-7.22-23.14-4.77-36.64
			c7.46-41.07,8.72-82.8,9.7-125.24c36.73,45.46,57.9,97.48,70.85,153.53c7.21,31.22,5.29,66.71,37.73,87.15
			c3.6,2.27,6.63,6.74,11.51,2.27c0,0-0.84-0.24-0.84-0.24c-0.63,1.69-1.8,3.37-1.82,5.06c-0.5,44.23,10.62,92.64-44.49,116.42
			c-7.61,3.28-8.36,13.6-10.83,21.35c-7.47,23.42-17.53,45.7-27.92,67.97c-15.42,33.03-40.43,59.83-57.48,91.7L1217.2,1485.14z"/>
		<path class="st2" d="M1451.48,964.65c85.32,83.39,123.41,185.58,113.32,304.36c-7.77,91.49-46.46,169.14-114.8,231.46
			C1527.09,1321.62,1522.53,1143.85,1451.48,964.65z"/>
		<path class="st3" d="M825.23,1132.35c10.35-44.54,27.24-87.46,50.31-125.87c15.03-25.02,50.84-31.06,78.88-30.55
			c102.16,1.87,184.57-99.4,164.77-215.38c-1.09-6.4-2.35-12.59,1.86-18.35c34.43,60.03,32.58,121.9,3.85,182.23
			c-26.57,55.8-76.01,79.11-136,78.75c-23.65-0.14-39.9,7.03-52.1,26.89c-15.22,24.76-35.18,47.28-46.47,73.61
			C876.27,1136.4,856.11,1143.6,825.23,1132.35z"/>
		<path class="st2" d="M1286.21,469.13c-40.29-2.66-79.69-9.55-119.79-11.44c-75.36-3.56-149.46,1.05-221.45,25.08
			c-31.31,10.45-24.27-19.1-32.09-31.3c-11.28-17.61,9.25-16.32,16.5-18.69c93.6-30.54,186.93-22.71,279.75,4.35
			C1235.91,444.93,1262.41,453.67,1286.21,469.13z"/>
		<path class="st2" d="M748.68,433.65c-45.79,56.23-59.32,118.56-54.09,187.76c-29.29-30.5-38.69-75.09-26.06-115.16
			C678.93,473.25,713.61,439.76,748.68,433.65z"/>
		<path class="st1" d="M435.3,692.9c12.43-5.67,19.91-3.13,27.75-0.14c40.66,15.49,81.49,30.54,122.14,46.05
			c6.67,2.54,13.56,5.68,18.9,10.23c9.25,7.87,11.82,18.35,5.42,29.34c-7.23,12.44-17.18,7.29-25.81,2.24
			C535.32,752.29,487.15,723.6,435.3,692.9z"/>
		<path class="st2" d="M550.71,541.47c13.55,57.97,31.49,113.63,79.48,155.2C580.02,710.46,521,646.9,550.71,541.47z"/>
		<path class="st3" d="M1067.17,643.1c-17.81,32.16-45.43,51.95-79.77,63.28c-10.46-9.92-12.15-24.24-16.97-36.63
			c-5.61-14.41,17.37-41.72,33.51-40.48C1025.52,630.93,1047.23,633.37,1067.17,643.1z"/>
		<path class="st2" d="M784.84,572.81c22.84-55.44,58.83-98.65,114.81-123.26C868.5,497.25,837.25,544.87,784.84,572.81z"/>
		<path class="st1" d="M754.09,1303.54c2.32-19.16,3.89-34.37,6.09-49.5c1.44-9.9,6.43-16.56,17.77-16.54
			c10.78,0.02,20.15,2.9,24.25,13.55c3.97,10.3-2.95,16.9-10.27,22.7C780.78,1282.58,769.58,1291.35,754.09,1303.54z"/>
		<path class="st3" d="M947.62,727.58c-25.02-1.36-49.08,9.05-74.26,5.94c-8.61-1.06-18.04,1.87-25.28-5.46
			c25.51-8.27,51.16-15.25,75.89-26.78C948.5,689.85,941.89,716.49,947.62,727.58z"/>
		<path class="st1" d="M794.25,1219.68c19.08-13.53,30.86,0.49,38.74,13.46c10.91,17.97,13.22,38.49-5.64,53.96
			c-11.7,9.59-24.13,19.14-39.94,21.8c1.37-11.7,12.25-14.68,19.62-20.39c13.11-10.14,22.35-21.37,18.55-39.12
			C821.94,1232.39,811.17,1222.77,794.25,1219.68z"/>
		<path class="st1" d="M1355.8,1172.18c8.18,2.8,16.08,8.09,16.76,16.26c2.59,31.45,5.12,63.15-5.17,93.88
			c-0.74,2.22-5.84,2.99-8.91,4.43c-0.72-6.31,1.58-12.59,1.73-18.37c0.73-28.55,17.73-57.72-2.08-85.71c0,0,0.84,0.24,0.84,0.24
			C1357.91,1179.34,1356.85,1175.76,1355.8,1172.18z"/>
		<path class="st1" d="M1237.12,1479.06c-0.95,10.17-14.2,15.16-11.34,26.94c-13.21,10.21-26.41,20.42-45.42,35.12
			c8.56-27.47,35.78-33.05,36.84-55.96c0-0.01-1.64,0.02-1.63,0.02C1225.41,1492.49,1228.06,1474.49,1237.12,1479.06z"/>
		<path class="st1" d="M1324.76,1078.43c7.96,23.6,12.85,47.67,10.98,72.75C1328.97,1127.41,1315.11,1104.69,1324.76,1078.43z"/>
		<path class="st1" d="M787.94,1308.54c-1.34,3.04-3.1,3.43-5.32,0.84C784.39,1309.1,786.17,1308.82,787.94,1308.54z"/>
		<path class="st0" d="M673.51,922.25c14.88,31.84,25.84,20,38.44,0.57c27.73-42.77,56.64-84.78,85.23-126.99
			c4.38-6.47,6.34-15.32,15.48-17.68c4.32,4.29,1.88,8.62,0.08,12.33c-9.79,20.07-11.25,34.42,12.28,49.65
			c25.35,16.41,23.61,52.02,0.94,74.14c-24.35,23.75-53.03,41.42-84,55.37c-6.64,2.99-13.78,5.07-19.99,8.75
			c-33.23,19.72-52.89,8.91-54.41-30.49C667.28,940.9,665.55,933.42,673.51,922.25z M731,948.8c28.51-9.21,52.25-23.69,70.79-45.22
			c13.06-15.16,14.02-30.54-0.95-45.6c-7.47-7.51-12.49-8-18.27,2.26C765.79,890,748.24,919.31,731,948.8z"/>
		<path class="st0" d="M890.72,549.46c14.21,51.87-20.3,102.6-75.76,111.88C840.63,623.44,865.05,587.36,890.72,549.46z"/>
		<path class="st0" d="M602.31,1249.95c7.73,12.62,6.6,23.09,17.55,29.53c11.22,6.6,5.89,21.08-0.08,31.74
			c-6.95,12.43-17.17,23.38-31.7,21.47c-13.9-1.83-18.71-15.14-13.8-27.33C581.51,1287.45,591.62,1270.71,602.31,1249.95z"/>
		<polygon class="st3" points="813.61,724.55 814.18,726.02 812.58,725.73 		"/>
		<path class="st0" d="M1116.47,723.14c-1.25-0.94-2.5-1.89-3.75-2.83c0.69-0.56,1.84-1.7,1.99-1.58c1.17,0.95,2.16,2.13,3.22,3.23
			C1117.95,721.93,1116.47,723.14,1116.47,723.14z"/>
		<path class="st0" d="M1237.12,1479.06c-9.06-4.57-11.71,13.43-21.55,6.12c17.05-31.87,42.07-58.67,57.48-91.7
			c10.39-22.27,20.45-44.55,27.92-67.97c2.47-7.75,3.22-18.07,10.83-21.35c55.11-23.78,43.99-72.18,44.49-116.42
			c0.02-1.69,1.19-3.38,1.82-5.06c19.81,27.98,2.81,57.16,2.08,85.71c-0.15,5.78-2.45,12.06-1.73,18.37
			c-2.91,3.45-5.16,8.71-8.84,10.06c-42.72,15.63-38.4,61.77-59.52,91.3c-1.01,1.41,1.13,5.06,1.8,7.67
			c-23.86,18.59-34.42,46.17-48.31,71.49C1240.07,1470.44,1236.78,1473.76,1237.12,1479.06z"/>
		<path class="st1" d="M1243.6,1467.27c13.89-25.33,24.45-52.9,48.31-71.49C1279.47,1422.08,1269.29,1449.91,1243.6,1467.27z"/>
		<path class="st4" d="M731,948.8c17.24-29.49,34.8-58.8,51.56-88.55c5.79-10.27,10.8-9.77,18.27-2.26
			c14.97,15.05,14.01,30.44,0.95,45.6C783.24,925.1,759.5,939.58,731,948.8z"/>
	</g>
</g>
</svg>
