<svg width="363" height="113" viewBox="0 0 363 113" fill="none" xmlns="http://www.w3.org/2000/svg">
<path d="M336.17 0L258 111.99H282L360.58 0H336.17Z" fill="white"/>
<path d="M284.5 0L307.5 33L295.5 51L260 0H284.5Z" fill="white"/>
<path d="M338.5 112L313 75.5L325 58L362.5 112H338.5Z" fill="url(#paint0_linear)"/>
<path fill-rule="evenodd" clip-rule="evenodd" d="M230 0H251V111.99H230V107.81C223.93 111.12 216.97 113 209.57 113C186.06 113 167 94.03 167 70.62C167 47.21 186.06 28.24 209.57 28.24C216.97 28.24 223.94 30.12 230 33.43V0ZM209.34 94.4C222.66 94.4 233.45 83.65 233.45 70.4C233.45 57.15 222.66 46.4 209.34 46.4C196.02 46.4 185.23 57.15 185.23 70.4C185.23 83.65 196.03 94.4 209.34 94.4Z" fill="white"/>
<path d="M169.09 0L91 111.99H115.48L193.49 0H169.09Z" fill="white"/>
<path d="M115.5 0L140 34L126.5 53L90 0H115.5Z" fill="white"/>
<path fill-rule="evenodd" clip-rule="evenodd" d="M63 0H84V111.99H63V107.81C56.93 111.12 49.97 113 42.57 113C19.06 113 0 94.03 0 70.62C0 47.21 19.06 28.24 42.57 28.24C49.97 28.24 56.94 30.12 63 33.43V0ZM42.34 94.4C55.65 94.4 66.45 83.65 66.45 70.4C66.45 57.15 55.66 46.4 42.34 46.4C29.02 46.4 18.23 57.15 18.23 70.4C18.23 83.65 29.03 94.4 42.34 94.4Z" fill="white"/>
<defs>
<linearGradient id="paint0_linear" x1="344.95" y1="102.795" x2="304.497" y2="48.2602" gradientUnits="userSpaceOnUse">
<stop stop-color="white"/>
<stop offset="1" stop-color="#959595" stop-opacity="0.36"/>
</linearGradient>
</defs>
</svg>
