<?xml version="1.0" encoding="utf-8"?>
<!-- Generator: Adobe Illustrator 25.2.1, SVG Export Plug-In . SVG Version: 6.00 Build 0)  -->
<svg version="1.1" id="레이어_1" xmlns="http://www.w3.org/2000/svg" xmlns:xlink="http://www.w3.org/1999/xlink" x="0px"
	 y="0px" viewBox="0 0 400 400" style="enable-background:new 0 0 400 400;" xml:space="preserve">
<g id="레이어_2_1_">
</g>
<g id="레이어_1_1_">
	<g>
		<path d="M305.8,111.2c-2.4-13.3-9.7-25.4-21.8-35.7L106,253.4c-8.3,8.6-12.4,19.5-12.4,32.8c-0.3,13.3,7.7,26,23.3,38.4
			l177.4-177.4C304.3,136.6,308.1,124.5,305.8,111.2z"/>
	</g>
	<g>
		<path d="M242.3,47.7c-2.4-13.3-9.7-25.4-21.8-35.7l-178,178c-8.3,8.6-12.4,19.5-12.4,32.8c-0.3,13.3,7.7,26,23.3,38.4L230.8,83.7
			C240.8,73.1,244.7,61,242.3,47.7z"/>
	</g>
	<g>
		<path d="M369.2,174.6c-2.4-13.3-9.7-25.4-21.8-35.7l-178,178c-8.3,8.6-12.4,19.5-12.4,32.8c-0.3,13.3,7.7,26,23.3,38.4
			l177.4-177.4C367.7,200,371.6,187.9,369.2,174.6z"/>
	</g>
</g>
</svg>
