<svg width="2000" height="2000" viewBox="0 0 2000 2000" fill="none" xmlns="http://www.w3.org/2000/svg">
<path d="M404.51 1000.68C404.51 873.52 404.46 746.36 404.57 619.2C404.58 604.51 401.85 588.44 418.73 579.72C436.82 570.37 449.82 580.77 463.3 590.91C619.83 708.58 776.37 826.26 933.29 943.42C947.36 953.93 953.63 965.73 953.6 982.95C953.37 1116.84 953.53 1250.73 953.65 1384.62C953.66 1393.75 952.6 1402.41 947.51 1410.35C941.28 1420.07 932.83 1424.8 921.14 1423.79C910.25 1422.84 903.59 1416.75 899.06 1407.27C894.34 1397.41 894.59 1386.98 894.59 1376.5C894.61 1253.83 894.32 1131.16 894.98 1008.49C895.07 992.51 890.03 982.67 877.24 973.15C745.38 874.9 614.01 775.98 482.32 677.49C476.85 673.4 471.5 664.2 463.64 668.88C457.64 672.45 460.98 681.33 460.98 687.79C460.85 918.17 460.86 1148.55 460.83 1378.94C460.83 1385.67 461.53 1392.55 460.41 1399.1C457.84 1414.07 448.99 1423.65 433.23 1423.74C417.81 1423.83 407.64 1415.92 405.66 1400.03C404.56 1391.17 404.48 1382.13 404.47 1373.18C404.4 1249.01 404.42 1124.85 404.42 1000.68C404.45 1000.68 404.48 1000.68 404.51 1000.68Z" fill="#E1E1E1"/>
<path d="M1595.5 1000.24C1595.51 1126.65 1595.55 1253.06 1595.43 1379.47C1595.42 1387.63 1595.43 1396.15 1593.19 1403.86C1589.5 1416.56 1580.25 1423.84 1566.48 1423.52C1552.76 1423.2 1543.77 1415.89 1540.87 1402.69C1539.13 1394.79 1539.11 1386.41 1539.1 1378.24C1539.02 1148.61 1539.06 918.98 1538.92 689.35C1538.92 682.16 1542.59 672.14 1536.06 668.35C1527.51 663.38 1521.68 673.64 1515.59 678.19C1384.47 776.29 1253.71 874.88 1122.35 972.66C1108.16 983.23 1102.54 994.31 1102.63 1011.85C1103.26 1133.77 1102.96 1255.69 1102.93 1377.61C1102.93 1385.08 1103.37 1392.67 1102.31 1400.01C1100.22 1414.44 1091.43 1422.99 1076.73 1423.43C1062.24 1423.86 1052.39 1416.23 1048.98 1402.19C1047.25 1395.05 1047.53 1387.34 1047.52 1379.89C1047.44 1250.49 1047.94 1121.09 1047.04 991.69C1046.87 967.53 1054.9 951.91 1074.42 937.4C1230.46 821.41 1385.78 704.45 1541.16 587.58C1553.26 578.48 1565.34 571.95 1580.15 579.64C1594.16 586.92 1595.6 600.14 1595.58 614.29C1595.42 742.93 1595.49 871.58 1595.5 1000.24Z" fill="white"/>
</svg>
