<?xml version="1.0" encoding="utf-8"?>
<!-- Generator: Adobe Illustrator 25.2.1, SVG Export Plug-In . SVG Version: 6.00 Build 0)  -->
<svg version="1.1" id="Layer_1" xmlns="http://www.w3.org/2000/svg" xmlns:xlink="http://www.w3.org/1999/xlink" x="0px" y="0px"
	 viewBox="0 0 2000 2000" style="enable-background:new 0 0 2000 2000;" xml:space="preserve">
<g id="gcayIf.tif">
	<g>
		<path d="M1002.86,1636.76c-10.61,0-21.22,0-31.83,0c-41.18-11.78-82.03-25.02-123.69-34.72c-20.27-4.72-28.27-12.6-27.76-33.83
			c1.24-51.03-0.17-102.12,0.7-153.17c0.31-17.99-5.46-26.22-23.76-30.16c-42.38-9.12-83.89-22.41-126.37-30.83
			c-23.78-4.72-29.61-15.45-29.51-38.57c0.88-198.93,0.48-397.86,0.57-596.79c0-9.32,0.96-18.64,1.7-32.07
			c57.53,12.22,112.57,23.92,173.89,36.95c0-69.25,0-133.18,0-200.41c60.96,14.31,115.98,27.23,177.36,41.64
			c0-69.08,0-133.04,0-201.54c59.39,14.78,112.72,27.17,165.29,42.24c6.59,1.89,12.77,17.78,13.02,27.34
			c1.29,49.97,1.29,100,0.27,149.97c-0.42,20.78,6.63,28.86,27.71,33.63c53.45,12.08,106.01,28.11,158.93,42.56
			c0,217.29,0,434.57,0,651.86c-17.17-0.45-34.87,1.6-51.42-1.85c-41.64-8.68-82.77-19.86-129.21-31.29c0,70.01,0,133.16,0,201.57
			c-60.64-14.59-116.54-28.05-175.88-42.33C1002.86,1505.81,1002.86,1571.28,1002.86,1636.76z M781.92,863.35c0,16.37,0,27.68,0,39
			c0,90.31,0,180.62,0,270.93c0,69.03-0.28,70.1,65.93,87.76c58.85,15.69,118.42,28.66,180,43.39c0-129.48,0-255.33,0-382.44
			C946.4,902.58,866.68,883.56,781.92,863.35z"/>
	</g>
</g>
</svg>
