<svg width="2000" height="2000" viewBox="0 0 2000 2000" fill="none" xmlns="http://www.w3.org/2000/svg">
<path d="M1002.86 1636.76C992.25 1636.76 981.64 1636.76 971.03 1636.76C929.85 1624.98 889 1611.74 847.34 1602.04C827.07 1597.32 819.07 1589.44 819.58 1568.21C820.82 1517.18 819.41 1466.09 820.28 1415.04C820.59 1397.05 814.82 1388.82 796.52 1384.88C754.14 1375.76 712.63 1362.47 670.15 1354.05C646.37 1349.33 640.54 1338.6 640.64 1315.48C641.52 1116.55 641.12 917.62 641.21 718.69C641.21 709.37 642.17 700.05 642.91 686.62C700.44 698.84 755.48 710.54 816.8 723.57C816.8 654.32 816.8 590.39 816.8 523.16C877.76 537.47 932.78 550.39 994.16 564.8C994.16 495.72 994.16 431.76 994.16 363.26C1053.55 378.04 1106.88 390.43 1159.45 405.5C1166.04 407.39 1172.22 423.28 1172.47 432.84C1173.76 482.81 1173.76 532.84 1172.74 582.81C1172.32 603.59 1179.37 611.67 1200.45 616.44C1253.9 628.52 1306.46 644.55 1359.38 659C1359.38 876.29 1359.38 1093.57 1359.38 1310.86C1342.21 1310.41 1324.51 1312.46 1307.96 1309.01C1266.32 1300.33 1225.19 1289.15 1178.75 1277.72C1178.75 1347.73 1178.75 1410.88 1178.75 1479.29C1118.11 1464.7 1062.21 1451.24 1002.87 1436.96C1002.86 1505.81 1002.86 1571.28 1002.86 1636.76ZM781.92 863.35C781.92 879.72 781.92 891.03 781.92 902.35C781.92 992.66 781.92 1082.97 781.92 1173.28C781.92 1242.31 781.64 1243.38 847.85 1261.04C906.7 1276.73 966.27 1289.7 1027.85 1304.43C1027.85 1174.95 1027.85 1049.1 1027.85 921.99C946.4 902.58 866.68 883.56 781.92 863.35Z" fill="white"/>
</svg>
