<svg width="234" height="241" viewBox="0 0 234 241" fill="none" xmlns="http://www.w3.org/2000/svg">
<path d="M116.89 135.944L96.2073 157.229L96.1708 157.265C96.1342 157.302 96.0611 157.302 95.9881 157.302C95.8053 157.302 95.6592 157.156 95.6592 156.973C95.6592 156.937 95.6592 156.9 95.6592 156.864L103.516 126.634C104.174 124.48 103.699 121.997 102.018 120.281L81.3345 98.9958L81.298 98.9593C81.2614 98.9228 81.2614 98.8497 81.2614 98.7767C81.2614 98.5942 81.4076 98.4482 81.5903 98.4482C81.6269 98.4482 81.6634 98.4482 81.6999 98.4482L111.044 106.553C113.163 107.247 115.538 106.736 117.219 105.02L137.902 83.7348L137.939 83.6983C137.975 83.6618 138.049 83.6617 138.122 83.6617C138.304 83.6617 138.45 83.8078 138.45 83.9904C138.45 84.0269 138.45 84.0634 138.45 84.0999L130.594 114.33C129.936 116.484 130.411 118.967 132.092 120.683L152.775 141.968L152.812 142.004C152.848 142.041 152.848 142.114 152.848 142.187C152.848 142.369 152.702 142.515 152.519 142.515C152.483 142.515 152.446 142.515 152.41 142.515L123.066 134.41C120.947 133.716 118.571 134.228 116.89 135.944ZM233.096 118.273L183.727 67.415C182.046 65.699 179.67 65.1879 177.551 65.8816L145.101 74.863C145.065 74.863 145.028 74.863 144.992 74.863C144.809 74.863 144.663 74.7169 144.663 74.5343C144.663 74.4248 144.736 74.3153 144.809 74.2423C148.353 71.7961 153.725 67.415 166.552 54.1985C167.758 52.9572 167.758 50.9857 166.552 49.7443L119.156 0.930995C117.95 -0.310332 116.05 -0.310332 114.844 0.930995L65.4751 51.7889C63.7941 53.5048 63.3191 55.9875 63.9768 58.1416L72.6739 91.5843C72.6739 91.6208 72.6739 91.6574 72.6739 91.6939C72.6739 91.8765 72.5278 92.0225 72.345 92.0225C72.2354 92.0225 72.1258 91.9494 72.0892 91.8764C69.7505 88.2254 65.4751 82.676 52.6121 69.4595C51.4062 68.2182 49.506 68.2182 48.3001 69.4595L0.904427 118.273C-0.301476 119.514 -0.301476 121.486 0.904427 122.727L50.2734 173.585C51.9543 175.301 54.3296 175.812 56.4491 175.118L88.8988 166.137C88.9354 166.137 88.9719 166.137 89.0084 166.137C89.1912 166.137 89.3373 166.283 89.3373 166.466C89.3373 166.575 89.2642 166.685 89.1911 166.758C85.6465 169.167 80.2748 173.585 67.4483 186.801C66.2424 188.043 66.2424 190.014 67.4483 191.256L114.844 240.069C116.05 241.31 117.95 241.31 119.156 240.069L168.525 189.211C170.206 187.495 170.681 185.012 170.023 182.858L161.326 149.416C161.326 149.379 161.326 149.343 161.326 149.306C161.326 149.124 161.472 148.977 161.655 148.977C161.765 148.977 161.874 149.051 161.947 149.124C164.286 152.774 168.561 158.324 181.424 171.54C182.63 172.782 184.531 172.782 185.736 171.54L233.096 122.691C234.301 121.486 234.301 119.478 233.096 118.273Z" fill="white"/>
</svg>
