<?xml version="1.0" encoding="utf-8"?>
<!-- Generator: Adobe Illustrator 25.2.1, SVG Export Plug-In . SVG Version: 6.00 Build 0)  -->
<svg version="1.1" id="레이어_1" xmlns="http://www.w3.org/2000/svg" xmlns:xlink="http://www.w3.org/1999/xlink" x="0px"
	 y="0px" viewBox="0 0 400 400" style="enable-background:new 0 0 400 400;" xml:space="preserve">
<g id="Hovers_x2C_-Color_x2C_-Fonts-_x26_-Icons">
	<g id="Group-23">
		<path id="Fill-1" d="M124.75,208.58c0,5.09-2.91,8.01-8.64,8.01h-13.7v-6.03h12.07c1.77,0,2.62-0.61,2.62-2.17
			c0-1.27-0.95-2.07-3.05-3.54l-7.16-5.47c-3.63-2.73-5.15-5.28-5.15-8.3c0-5.14,3.05-7.5,9.07-7.5h13.36v6.03h-12.02
			c-1.86,0-2.77,0.61-2.77,2.22c0,1.23,0.95,2.03,3.1,3.44l7.11,4.9C123.22,202.64,124.75,205.61,124.75,208.58"/>
		<polygon id="Fill-3" points="152.75,189.63 144.09,189.63 144.09,216.59 136.4,216.59 136.4,189.63 127.75,189.63 127.75,183.59 
			152.75,183.59 		"/>
		<path id="Fill-5" d="M173.38,204.71l-4.59-13.06l-4.64,13.06H173.38z M175.35,210.23h-13.21l-2.25,6.36h-8.15l13.07-33h7.87
			l13.07,33h-8.15L175.35,210.23z"/>
		<path id="Fill-7" d="M198.72,199.15c4.2,0,5.44-1.46,5.44-4.95c0-3.49-1.24-4.95-5.44-4.95h-3.34v9.9H198.72z M212.75,216.59
			h-7.68l-1.48-6.32c-0.95-4.38-1.81-5.56-5.15-5.61h-3.05v11.93h-7.63v-33h13.69c7.11,0,10.35,3.11,10.35,9.9
			c0,4.57-1.81,7.35-5.49,8.49c2.62,1.23,3.91,3.68,4.96,8.3L212.75,216.59z"/>
		<path id="Fill-9" d="M225.18,199.58l11.85-15.98h8.88l-12.46,15.98l13.29,17.02h-8.88L225.18,199.58z M217.75,216.59h7.44v-33
			h-7.44V216.59z"/>
		<polygon id="Fill-11" points="295.75,183.59 285.77,216.59 281.1,216.59 273.22,190.19 265.34,216.59 260.63,216.59 
			250.75,183.59 255.32,183.59 263.1,211.46 271.36,183.59 275.09,183.59 283.34,211.46 291.18,183.59 		"/>
		<path id="Fill-13" d="M315.52,204.86l-6.25-16.55l-6.29,16.55H315.52z M316.7,208.01h-14.91l-3.27,8.58h-4.78l13.2-33h4.59
			l13.2,33h-4.78L316.7,208.01z"/>
		<path id="Fill-15" d="M339.1,199.76c5.25,0,7.21-2.03,7.21-6.46c0-4.34-1.96-6.41-7.21-6.41h-5.96v12.87H339.1z M351.75,216.59
			h-4.44l-1.19-5.66c-1.19-5.89-2.67-7.87-7.16-7.97h-5.82v13.62h-4.39v-33h11.83c7.01,0,10.12,3.06,10.12,9.33
			c0,4.71-1.96,7.59-6.06,8.53c3.24,1.23,4.72,4.01,5.87,9.48L351.75,216.59z"/>
		<g id="Fill-17">
			<path id="path-1_1_" d="M363.11,187.08v10.04h14.7v3.25h-14.7v7.07c0,3.91,1.71,5.66,5.59,5.66h11.05v3.49h-11.71
				c-6.92,0-9.29-2.26-9.29-8.77v-24.23h21v3.49H363.11z"/>
		</g>
		<path id="Fill-20" d="M51.7,203.83l-5.66,5.83c0,0-0.01,0.01-0.01,0.01c-0.01,0.01-0.03,0.01-0.05,0.01
			c-0.05,0-0.09-0.04-0.09-0.09c0-0.01,0-0.02,0-0.03c0,0,0,0,0,0l2.15-8.28c0.18-0.59,0.05-1.27-0.41-1.74l-5.66-5.83
			c0,0-0.01-0.01-0.01-0.01c-0.01-0.01-0.01-0.03-0.01-0.05c0-0.05,0.04-0.09,0.09-0.09c0.01,0,0.02,0,0.03,0c0,0,0,0,0,0l8.03,2.22
			c0.58,0.19,1.23,0.05,1.69-0.42l5.66-5.83c0,0,0.01-0.01,0.01-0.01c0.01-0.01,0.03-0.01,0.05-0.01c0.05,0,0.09,0.04,0.09,0.09
			c0,0.01,0,0.02,0,0.03l0,0l-2.15,8.28c-0.18,0.59-0.05,1.27,0.41,1.74l5.66,5.83c0,0,0.01,0.01,0.01,0.01
			c0.01,0.01,0.01,0.03,0.01,0.05c0,0.05-0.04,0.09-0.09,0.09c-0.01,0-0.02,0-0.03,0c0,0,0,0,0,0l-8.03-2.22
			C52.81,203.22,52.16,203.36,51.7,203.83 M83.5,198.99l-13.51-13.93c-0.46-0.47-1.11-0.61-1.69-0.42l-8.88,2.46c0,0,0,0,0,0
			c-0.01,0-0.02,0-0.03,0c-0.05,0-0.09-0.04-0.09-0.09c0-0.03,0.02-0.06,0.04-0.08c0,0,0,0,0,0c0.97-0.67,2.44-1.87,5.95-5.49
			c0.33-0.34,0.33-0.88,0-1.22l-12.97-13.37c-0.33-0.34-0.85-0.34-1.18,0l-13.51,13.93c-0.46,0.47-0.59,1.15-0.41,1.74l2.38,9.16
			c0,0,0,0,0,0c0,0.01,0,0.02,0,0.03c0,0.05-0.04,0.09-0.09,0.09c-0.03,0-0.06-0.02-0.07-0.04c0,0,0,0,0,0
			c-0.64-1-1.81-2.52-5.33-6.14c-0.33-0.34-0.85-0.34-1.18,0l-12.97,13.37c-0.33,0.34-0.33,0.88,0,1.22l13.51,13.93
			c0.46,0.47,1.11,0.61,1.69,0.42l8.88-2.46c0,0,0,0,0,0c0.01,0,0.02,0,0.03,0c0.05,0,0.09,0.04,0.09,0.09
			c0,0.03-0.02,0.06-0.04,0.08c0,0,0,0,0,0c-0.97,0.66-2.44,1.87-5.95,5.49c-0.33,0.34-0.33,0.88,0,1.22l12.97,13.37
			c0.33,0.34,0.85,0.34,1.18,0l13.51-13.93c0.46-0.47,0.59-1.15,0.41-1.74l-2.38-9.16c0,0,0,0,0,0c0-0.01,0-0.02,0-0.03
			c0-0.05,0.04-0.09,0.09-0.09c0.03,0,0.06,0.02,0.08,0.04v0c0.64,1,1.81,2.52,5.33,6.14c0.33,0.34,0.85,0.34,1.18,0L83.5,200.2
			C83.83,199.87,83.83,199.32,83.5,198.99"/>
	</g>
</g>
</svg>
